G04*
G04 #@! TF.GenerationSoftware,Altium Limited,Altium Designer,18.0.7 (293)*
G04*
G04 Layer_Color=32896*
%FSLAX25Y25*%
%MOIN*%
G70*
G01*
G75*
%ADD10C,0.00787*%
%ADD12C,0.00500*%
%ADD13C,0.01000*%
%ADD20C,0.00197*%
%ADD21C,0.00394*%
%ADD22C,0.00300*%
D10*
X458268Y44291D02*
Y148622D01*
X496850D01*
Y44291D02*
Y148622D01*
X458268Y44291D02*
X496850D01*
X504937Y183189D02*
Y287520D01*
X543520D01*
Y183189D02*
Y287520D01*
X504937Y183189D02*
X543520D01*
X504937Y44291D02*
Y148622D01*
X543520D01*
Y44291D02*
Y148622D01*
X504937Y44291D02*
X543520D01*
X458268Y183189D02*
Y287520D01*
X496850D01*
Y183189D02*
Y287520D01*
X458268Y183189D02*
X496850D01*
D12*
X114872Y299325D02*
G03*
X116863Y298269I1976J1321D01*
G01*
X118571Y298268D02*
G03*
X120545Y299305I11J2376D01*
G01*
X116862Y317953D02*
G03*
X114888Y316915I-11J-2376D01*
G01*
X120562Y316896D02*
G03*
X118570Y317951I-1976J-1321D01*
G01*
X114034Y315462D02*
G03*
X113768Y315197I87J-354D01*
G01*
X116918Y315272D02*
G03*
X114034Y315462I-4288J-43031D01*
G01*
X116918Y300949D02*
G03*
X114034Y300759I41749J-654584D01*
G01*
X113768Y301024D02*
G03*
X114034Y300759I357J92D01*
G01*
X118516Y315272D02*
G03*
X121399Y315462I-41797J655314D01*
G01*
X121665Y315197D02*
G03*
X121399Y315462I-357J-92D01*
G01*
X121399Y300759D02*
G03*
X121665Y301024I-87J354D01*
G01*
X118516Y300949D02*
G03*
X121399Y300759I4288J43031D01*
G01*
X116918Y300420D02*
G03*
X115656Y299252I3661J-5218D01*
G01*
X113768Y301024D02*
G03*
X115540Y299252I1772J0D01*
G01*
X121665Y315197D02*
G03*
X119894Y316968I-1772J0D01*
G01*
X115540D02*
G03*
X113768Y315197I0J-1772D01*
G01*
X119894Y299252D02*
G03*
X121665Y301024I0J1772D01*
G01*
X116535Y298268D02*
G03*
X118898Y298268I1181J0D01*
G01*
Y317953D02*
G03*
X116535Y317953I-1181J0D01*
G01*
X120562Y357211D02*
G03*
X118570Y358266I-1976J-1321D01*
G01*
X116862Y358268D02*
G03*
X114888Y357230I-11J-2376D01*
G01*
X118571Y338583D02*
G03*
X120545Y339620I11J2376D01*
G01*
X114872Y339640D02*
G03*
X116863Y338584I1976J1321D01*
G01*
X121399Y341073D02*
G03*
X121665Y341339I-87J354D01*
G01*
X118516Y341264D02*
G03*
X121399Y341073I4288J43031D01*
G01*
X118516Y355587D02*
G03*
X121399Y355777I-41749J654584D01*
G01*
X121665Y355512D02*
G03*
X121399Y355777I-357J-92D01*
G01*
X116918Y341264D02*
G03*
X114034Y341073I41797J-655314D01*
G01*
X113768Y341339D02*
G03*
X114034Y341073I357J92D01*
G01*
X114034Y355777D02*
G03*
X113768Y355512I87J-354D01*
G01*
X116918Y355587D02*
G03*
X114034Y355777I-4288J-43031D01*
G01*
X118516Y356115D02*
G03*
X119777Y357283I-3661J5218D01*
G01*
X121665Y355512D02*
G03*
X119894Y357283I-1772J0D01*
G01*
X113768Y341339D02*
G03*
X115540Y339567I1772J0D01*
G01*
X119894D02*
G03*
X121665Y341339I0J1772D01*
G01*
X115540Y357283D02*
G03*
X113768Y355512I0J-1772D01*
G01*
X118898Y358268D02*
G03*
X116535Y358268I-1181J0D01*
G01*
Y338583D02*
G03*
X118898Y338583I1181J0D01*
G01*
X336345Y217234D02*
G03*
X337400Y219226I-1321J1976D01*
G01*
X337402Y220933D02*
G03*
X336364Y222907I-2376J11D01*
G01*
X317717Y219224D02*
G03*
X318754Y217250I2376J-11D01*
G01*
X318773Y222924D02*
G03*
X317718Y220932I1321J-1976D01*
G01*
X320207Y216396D02*
G03*
X320472Y216130I354J87D01*
G01*
X320398Y219280D02*
G03*
X320207Y216396I43031J-4288D01*
G01*
X334720Y219280D02*
G03*
X334911Y216396I654584J41749D01*
G01*
X334646Y216130D02*
G03*
X334911Y216396I-92J357D01*
G01*
X320398Y220878D02*
G03*
X320207Y223761I-655314J-41797D01*
G01*
X320472Y224027D02*
G03*
X320207Y223761I92J-357D01*
G01*
X334911Y223761D02*
G03*
X334646Y224027I-354J-87D01*
G01*
X334720Y220878D02*
G03*
X334911Y223761I-43031J4288D01*
G01*
X335249Y219280D02*
G03*
X336417Y218018I5218J3661D01*
G01*
X334646Y216130D02*
G03*
X336417Y217902I0J1772D01*
G01*
X320472Y224027D02*
G03*
X318701Y222256I0J-1772D01*
G01*
Y217902D02*
G03*
X320472Y216130I1772J0D01*
G01*
X336417Y222256D02*
G03*
X334646Y224027I-1772J0D01*
G01*
X337402Y218898D02*
G03*
X337402Y221260I0J1181D01*
G01*
X317717D02*
G03*
X317717Y218898I0J-1181D01*
G01*
X172317Y222924D02*
G03*
X171261Y220932I1321J-1976D01*
G01*
X171260Y219224D02*
G03*
X172298Y217250I2376J-11D01*
G01*
X190945Y220933D02*
G03*
X189907Y222907I-2376J11D01*
G01*
X189888Y217234D02*
G03*
X190944Y219226I-1321J1976D01*
G01*
X188454Y223761D02*
G03*
X188189Y224027I-354J-87D01*
G01*
X188264Y220878D02*
G03*
X188454Y223761I-43031J4288D01*
G01*
X173941Y220878D02*
G03*
X173751Y223761I-654584J-41749D01*
G01*
X174016Y224027D02*
G03*
X173751Y223761I92J-357D01*
G01*
X188264Y219280D02*
G03*
X188454Y216396I655314J41797D01*
G01*
X188189Y216130D02*
G03*
X188454Y216396I-92J357D01*
G01*
X173751Y216396D02*
G03*
X174016Y216130I354J87D01*
G01*
X173941Y219280D02*
G03*
X173751Y216396I43031J-4288D01*
G01*
X173412Y220878D02*
G03*
X172244Y222139I-5218J-3661D01*
G01*
X174016Y224027D02*
G03*
X172244Y222256I0J-1772D01*
G01*
X188189Y216130D02*
G03*
X189961Y217902I0J1772D01*
G01*
Y222256D02*
G03*
X188189Y224027I-1772J0D01*
G01*
X172244Y217902D02*
G03*
X174016Y216130I1772J0D01*
G01*
X171260Y221260D02*
G03*
X171260Y218898I0J-1181D01*
G01*
X190945D02*
G03*
X190945Y221260I0J1181D01*
G01*
X52667Y296595D02*
G03*
X54659Y295539I1976J1321D01*
G01*
X56366Y295538D02*
G03*
X58340Y296576I11J2376D01*
G01*
X54657Y315223D02*
G03*
X52684Y314186I-11J-2376D01*
G01*
X58357Y314166D02*
G03*
X56365Y315222I-1976J-1321D01*
G01*
X51829Y312732D02*
G03*
X51563Y312467I87J-354D01*
G01*
X54713Y312542D02*
G03*
X51829Y312732I-4288J-43031D01*
G01*
X54713Y298219D02*
G03*
X51829Y298029I41749J-654584D01*
G01*
X51563Y298294D02*
G03*
X51829Y298029I357J92D01*
G01*
X56311Y312542D02*
G03*
X59194Y312732I-41797J655314D01*
G01*
X59460Y312467D02*
G03*
X59194Y312732I-357J-92D01*
G01*
X59194Y298029D02*
G03*
X59460Y298294I-87J354D01*
G01*
X56311Y298219D02*
G03*
X59194Y298029I4288J43031D01*
G01*
X54713Y297691D02*
G03*
X53451Y296522I3661J-5218D01*
G01*
X51563Y298294D02*
G03*
X53335Y296522I1772J0D01*
G01*
X59460Y312467D02*
G03*
X57689Y314239I-1772J0D01*
G01*
X53335D02*
G03*
X51563Y312467I0J-1772D01*
G01*
X57689Y296522D02*
G03*
X59460Y298294I0J1772D01*
G01*
X54331Y295538D02*
G03*
X56693Y295538I1181J0D01*
G01*
Y315223D02*
G03*
X54331Y315223I-1181J0D01*
G01*
X52667Y339640D02*
G03*
X54659Y338584I1976J1321D01*
G01*
X56366Y338583D02*
G03*
X58340Y339620I11J2376D01*
G01*
X54657Y358268D02*
G03*
X52684Y357230I-11J-2376D01*
G01*
X58357Y357211D02*
G03*
X56365Y358266I-1976J-1321D01*
G01*
X51829Y355777D02*
G03*
X51563Y355512I87J-354D01*
G01*
X54713Y355587D02*
G03*
X51829Y355777I-4288J-43031D01*
G01*
X54713Y341264D02*
G03*
X51829Y341073I41749J-654584D01*
G01*
X51563Y341339D02*
G03*
X51829Y341073I357J92D01*
G01*
X56311Y355587D02*
G03*
X59194Y355777I-41797J655314D01*
G01*
X59460Y355512D02*
G03*
X59194Y355777I-357J-92D01*
G01*
X59194Y341073D02*
G03*
X59460Y341339I-87J354D01*
G01*
X56311Y341264D02*
G03*
X59194Y341073I4288J43031D01*
G01*
X54713Y340735D02*
G03*
X53451Y339567I3661J-5218D01*
G01*
X51563Y341339D02*
G03*
X53335Y339567I1772J0D01*
G01*
X59460Y355512D02*
G03*
X57689Y357283I-1772J0D01*
G01*
X53335D02*
G03*
X51563Y355512I0J-1772D01*
G01*
X57689Y339567D02*
G03*
X59460Y341339I0J1772D01*
G01*
X54331Y338583D02*
G03*
X56693Y338583I1181J0D01*
G01*
Y358268D02*
G03*
X54331Y358268I-1181J0D01*
G01*
X52667Y253550D02*
G03*
X54659Y252495I1976J1321D01*
G01*
X56366Y252493D02*
G03*
X58340Y253531I11J2376D01*
G01*
X54657Y272179D02*
G03*
X52684Y271141I-11J-2376D01*
G01*
X58357Y271122D02*
G03*
X56365Y272177I-1976J-1321D01*
G01*
X51829Y269688D02*
G03*
X51563Y269423I87J-354D01*
G01*
X54713Y269497D02*
G03*
X51829Y269688I-4288J-43031D01*
G01*
X54713Y255174D02*
G03*
X51829Y254984I41749J-654584D01*
G01*
X51563Y255249D02*
G03*
X51829Y254984I357J92D01*
G01*
X56311Y269497D02*
G03*
X59194Y269688I-41797J655314D01*
G01*
X59460Y269423D02*
G03*
X59194Y269688I-357J-92D01*
G01*
X59194Y254984D02*
G03*
X59460Y255249I-87J354D01*
G01*
X56311Y255174D02*
G03*
X59194Y254984I4288J43031D01*
G01*
X54713Y254646D02*
G03*
X53451Y253478I3661J-5218D01*
G01*
X51563Y255249D02*
G03*
X53335Y253478I1772J0D01*
G01*
X59460Y269423D02*
G03*
X57689Y271194I-1772J0D01*
G01*
X53335D02*
G03*
X51563Y269423I0J-1772D01*
G01*
X57689Y253478D02*
G03*
X59460Y255249I0J1772D01*
G01*
X54331Y252493D02*
G03*
X56693Y252493I1181J0D01*
G01*
Y272179D02*
G03*
X54331Y272179I-1181J0D01*
G01*
X52667Y210506D02*
G03*
X54659Y209450I1976J1321D01*
G01*
X56366Y209449D02*
G03*
X58340Y210486I11J2376D01*
G01*
X54657Y229134D02*
G03*
X52684Y228096I-11J-2376D01*
G01*
X58357Y228077D02*
G03*
X56365Y229133I-1976J-1321D01*
G01*
X51829Y226643D02*
G03*
X51563Y226378I87J-354D01*
G01*
X54713Y226453D02*
G03*
X51829Y226643I-4288J-43031D01*
G01*
X54713Y212130D02*
G03*
X51829Y211940I41749J-654584D01*
G01*
X51563Y212205D02*
G03*
X51829Y211940I357J92D01*
G01*
X56311Y226453D02*
G03*
X59194Y226643I-41797J655314D01*
G01*
X59460Y226378D02*
G03*
X59194Y226643I-357J-92D01*
G01*
X59194Y211940D02*
G03*
X59460Y212205I-87J354D01*
G01*
X56311Y212130D02*
G03*
X59194Y211940I4288J43031D01*
G01*
X54713Y211601D02*
G03*
X53451Y210433I3661J-5218D01*
G01*
X51563Y212205D02*
G03*
X53335Y210433I1772J0D01*
G01*
X59460Y226378D02*
G03*
X57689Y228150I-1772J0D01*
G01*
X53335D02*
G03*
X51563Y226378I0J-1772D01*
G01*
X57689Y210433D02*
G03*
X59460Y212205I0J1772D01*
G01*
X54331Y209449D02*
G03*
X56693Y209449I1181J0D01*
G01*
Y229134D02*
G03*
X54331Y229134I-1181J0D01*
G01*
X141659Y52273D02*
G03*
X142715Y54265I-1321J1976D01*
G01*
X142716Y55972D02*
G03*
X141679Y57946I-2376J11D01*
G01*
X123031Y54264D02*
G03*
X124069Y52290I2376J-11D01*
G01*
X124088Y57963D02*
G03*
X123033Y55971I1321J-1976D01*
G01*
X125522Y51436D02*
G03*
X125787Y51170I354J87D01*
G01*
X125712Y54319D02*
G03*
X125522Y51436I43031J-4288D01*
G01*
X140035Y54319D02*
G03*
X140226Y51436I654584J41749D01*
G01*
X139961Y51170D02*
G03*
X140226Y51436I-92J357D01*
G01*
X125712Y55917D02*
G03*
X125522Y58801I-655314J-41797D01*
G01*
X125787Y59067D02*
G03*
X125522Y58801I92J-357D01*
G01*
X140226Y58800D02*
G03*
X139961Y59067I-354J-87D01*
G01*
X140035Y55917D02*
G03*
X140226Y58800I-43031J4288D01*
G01*
X140564Y54319D02*
G03*
X141732Y53058I5218J3661D01*
G01*
X139961Y51170D02*
G03*
X141732Y52941I0J1772D01*
G01*
X125787Y59067D02*
G03*
X124016Y57295I0J-1772D01*
G01*
Y52941D02*
G03*
X125787Y51170I1772J0D01*
G01*
X141732Y57295D02*
G03*
X139961Y59067I-1772J0D01*
G01*
X142716Y53937D02*
G03*
X142716Y56299I0J1181D01*
G01*
X123031D02*
G03*
X123031Y53937I0J-1181D01*
G01*
X43773Y57963D02*
G03*
X42718Y55971I1321J-1976D01*
G01*
X42717Y54264D02*
G03*
X43754Y52290I2376J-11D01*
G01*
X62402Y55972D02*
G03*
X61364Y57946I-2376J11D01*
G01*
X61345Y52273D02*
G03*
X62400Y54265I-1321J1976D01*
G01*
X59911Y58800D02*
G03*
X59646Y59067I-354J-87D01*
G01*
X59721Y55917D02*
G03*
X59911Y58800I-43031J4288D01*
G01*
X45398Y55917D02*
G03*
X45207Y58800I-654584J-41749D01*
G01*
X45472Y59067D02*
G03*
X45207Y58800I92J-357D01*
G01*
X59721Y54319D02*
G03*
X59911Y51436I655314J41797D01*
G01*
X59646Y51170D02*
G03*
X59911Y51436I-92J357D01*
G01*
X45207Y51436D02*
G03*
X45472Y51170I354J87D01*
G01*
X45398Y54319D02*
G03*
X45207Y51436I43031J-4288D01*
G01*
X44869Y55917D02*
G03*
X43701Y57178I-5218J-3661D01*
G01*
X45472Y59067D02*
G03*
X43701Y57295I0J-1772D01*
G01*
X59646Y51170D02*
G03*
X61417Y52941I0J1772D01*
G01*
Y57295D02*
G03*
X59646Y59067I-1772J0D01*
G01*
X43701Y52941D02*
G03*
X45472Y51170I1772J0D01*
G01*
X42717Y56299D02*
G03*
X42717Y53937I0J-1181D01*
G01*
X62402D02*
G03*
X62402Y56299I0J1181D01*
G01*
X114872Y257356D02*
G03*
X116863Y256300I1976J1321D01*
G01*
X118571Y256299D02*
G03*
X120545Y257337I11J2376D01*
G01*
X116862Y275984D02*
G03*
X114888Y274947I-11J-2376D01*
G01*
X120562Y274927D02*
G03*
X118570Y275983I-1976J-1321D01*
G01*
X114034Y273493D02*
G03*
X113768Y273228I87J-354D01*
G01*
X116918Y273303D02*
G03*
X114034Y273493I-4288J-43031D01*
G01*
X116918Y258980D02*
G03*
X114034Y258790I41749J-654584D01*
G01*
X113768Y259055D02*
G03*
X114034Y258790I357J92D01*
G01*
X118516Y273303D02*
G03*
X121399Y273493I-41797J655314D01*
G01*
X121665Y273228D02*
G03*
X121399Y273493I-357J-92D01*
G01*
X121399Y258790D02*
G03*
X121665Y259055I-87J354D01*
G01*
X118516Y258980D02*
G03*
X121399Y258790I4288J43031D01*
G01*
X116918Y258452D02*
G03*
X115656Y257283I3661J-5218D01*
G01*
X113768Y259055D02*
G03*
X115540Y257283I1772J0D01*
G01*
X121665Y273228D02*
G03*
X119894Y275000I-1772J0D01*
G01*
X115540D02*
G03*
X113768Y273228I0J-1772D01*
G01*
X119894Y257283D02*
G03*
X121665Y259055I0J1772D01*
G01*
X116535Y256299D02*
G03*
X118898Y256299I1181J0D01*
G01*
Y275984D02*
G03*
X116535Y275984I-1181J0D01*
G01*
X114872Y210506D02*
G03*
X116863Y209450I1976J1321D01*
G01*
X118571Y209449D02*
G03*
X120545Y210486I11J2376D01*
G01*
X116862Y229134D02*
G03*
X114888Y228096I-11J-2376D01*
G01*
X120562Y228077D02*
G03*
X118570Y229133I-1976J-1321D01*
G01*
X114034Y226643D02*
G03*
X113768Y226378I87J-354D01*
G01*
X116918Y226453D02*
G03*
X114034Y226643I-4288J-43031D01*
G01*
X116918Y212130D02*
G03*
X114034Y211940I41749J-654584D01*
G01*
X113768Y212205D02*
G03*
X114034Y211940I357J92D01*
G01*
X118516Y226453D02*
G03*
X121399Y226643I-41797J655314D01*
G01*
X121665Y226378D02*
G03*
X121399Y226643I-357J-92D01*
G01*
X121399Y211940D02*
G03*
X121665Y212205I-87J354D01*
G01*
X118516Y212130D02*
G03*
X121399Y211940I4288J43031D01*
G01*
X116918Y211601D02*
G03*
X115656Y210433I3661J-5218D01*
G01*
X113768Y212205D02*
G03*
X115540Y210433I1772J0D01*
G01*
X121665Y226378D02*
G03*
X119894Y228150I-1772J0D01*
G01*
X115540D02*
G03*
X113768Y226378I0J-1772D01*
G01*
X119894Y210433D02*
G03*
X121665Y212205I0J1772D01*
G01*
X116535Y209449D02*
G03*
X118898Y209449I1181J0D01*
G01*
Y229134D02*
G03*
X116535Y229134I-1181J0D01*
G01*
X120561Y299324D02*
X120579Y299350D01*
X120638Y299431D01*
X114799Y299425D02*
X114867Y299331D01*
X114872Y299325D01*
X114854Y316870D02*
X114871Y316898D01*
X114795Y316790D02*
X114854Y316870D01*
X120566Y316889D02*
X120634Y316796D01*
X120561Y316896D02*
X120566Y316889D01*
X118516Y315800D02*
X118593Y315812D01*
X118685Y315854D01*
X118785Y315928D01*
X118869Y316010D01*
X119090Y316273D01*
X119278Y316514D01*
X119447Y316719D01*
X119594Y316869D01*
X119694Y316943D01*
X119777Y316969D01*
X115656D02*
X115761Y316929D01*
X115900Y316811D01*
X116084Y316602D01*
X116312Y316312D01*
X116430Y316164D01*
X116565Y316009D01*
X116660Y315918D01*
X116780Y315836D01*
X116857Y315807D01*
X116918Y315800D01*
X119729Y299262D02*
X119777Y299252D01*
X119672Y299291D02*
X119729Y299262D01*
X119606Y299341D02*
X119672Y299291D01*
X119533Y299410D02*
X119606Y299341D01*
X119445Y299504D02*
X119533Y299410D01*
X119349Y299618D02*
X119445Y299504D01*
X119241Y299754D02*
X119349Y299618D01*
X119121Y299908D02*
X119241Y299754D01*
X119003Y300056D02*
X119121Y299908D01*
X118868Y300211D02*
X119003Y300056D01*
X118822Y300258D02*
X118868Y300211D01*
X118773Y300303D02*
X118822Y300258D01*
X118717Y300346D02*
X118773Y300303D01*
X118653Y300385D02*
X118717Y300346D01*
X118617Y300401D02*
X118653Y300385D01*
X118576Y300413D02*
X118617Y300401D01*
X118547Y300418D02*
X118576Y300413D01*
X118516Y300420D02*
X118547Y300418D01*
X116863Y298269D02*
X118571Y298268D01*
X116862Y317953D02*
X118570Y317952D01*
X116918Y300420D02*
Y315800D01*
X113768Y301024D02*
Y315197D01*
X121665Y301024D02*
Y315197D01*
X118516Y300420D02*
Y315800D01*
X116918Y315272D02*
X118516D01*
X116918Y300949D02*
X118516D01*
X116918Y300420D02*
X118516D01*
X116918Y315800D02*
X118516D01*
X115540Y316969D02*
X119893D01*
X115540Y299252D02*
X119893D01*
X114854Y357185D02*
X114872Y357212D01*
X114795Y357105D02*
X114854Y357185D01*
X120566Y357204D02*
X120634Y357111D01*
X120561Y357211D02*
X120566Y357204D01*
X120562Y339638D02*
X120579Y339665D01*
X120638Y339745D01*
X114799Y339740D02*
X114867Y339646D01*
X114872Y339640D01*
X116840Y340724D02*
X116918Y340735D01*
X116748Y340682D02*
X116840Y340724D01*
X116648Y340608D02*
X116748Y340682D01*
X116564Y340525D02*
X116648Y340608D01*
X116343Y340263D02*
X116564Y340525D01*
X116155Y340022D02*
X116343Y340263D01*
X115986Y339817D02*
X116155Y340022D01*
X115839Y339666D02*
X115986Y339817D01*
X115739Y339593D02*
X115839Y339666D01*
X115656Y339567D02*
X115739Y339593D01*
X119672Y339606D02*
X119777Y339567D01*
X119533Y339725D02*
X119672Y339606D01*
X119349Y339933D02*
X119533Y339725D01*
X119121Y340223D02*
X119349Y339933D01*
X119003Y340372D02*
X119121Y340223D01*
X118868Y340526D02*
X119003Y340372D01*
X118773Y340618D02*
X118868Y340526D01*
X118653Y340700D02*
X118773Y340618D01*
X118576Y340728D02*
X118653Y340700D01*
X118516Y340735D02*
X118576Y340728D01*
X115656Y357283D02*
X115705Y357274D01*
X115761Y357244D01*
X115827Y357195D01*
X115900Y357126D01*
X115988Y357032D01*
X116084Y356917D01*
X116192Y356781D01*
X116312Y356627D01*
X116430Y356479D01*
X116565Y356324D01*
X116611Y356278D01*
X116660Y356233D01*
X116716Y356189D01*
X116780Y356151D01*
X116816Y356135D01*
X116857Y356122D01*
X116886Y356117D01*
X116918Y356115D01*
X116862Y358268D02*
X118570Y358266D01*
X116863Y338584D02*
X118571Y338583D01*
X118516Y340735D02*
Y356115D01*
X121665Y341339D02*
Y355512D01*
X113768Y341339D02*
Y355512D01*
X116918Y340735D02*
Y356115D01*
Y341264D02*
X118516D01*
X116918Y355587D02*
X118516D01*
X116918Y356115D02*
X118516D01*
X116918Y340735D02*
X118516D01*
X115540Y339567D02*
X119893D01*
X115540Y357283D02*
X119893D01*
X336319Y222941D02*
X336346Y222923D01*
X336239Y223001D02*
X336319Y222941D01*
X336244Y217161D02*
X336338Y217229D01*
X336345Y217234D01*
X318771Y217233D02*
X318799Y217216D01*
X318879Y217157D01*
X318780Y222928D02*
X318874Y222996D01*
X318773Y222924D02*
X318780Y222928D01*
X319858Y220955D02*
X319869Y220878D01*
X319816Y221047D02*
X319858Y220955D01*
X319741Y221147D02*
X319816Y221047D01*
X319659Y221231D02*
X319741Y221147D01*
X319396Y221452D02*
X319659Y221231D01*
X319156Y221640D02*
X319396Y221452D01*
X318951Y221809D02*
X319156Y221640D01*
X318800Y221956D02*
X318951Y221809D01*
X318726Y222057D02*
X318800Y221956D01*
X318701Y222139D02*
X318726Y222057D01*
X318701Y218018D02*
X318740Y218123D01*
X318858Y218263D01*
X319067Y218447D01*
X319357Y218674D01*
X319506Y218792D01*
X319660Y218927D01*
X319751Y219023D01*
X319833Y219142D01*
X319862Y219219D01*
X319869Y219280D01*
X336408Y222091D02*
X336417Y222139D01*
X336378Y222034D02*
X336408Y222091D01*
X336329Y221968D02*
X336378Y222034D01*
X336260Y221895D02*
X336329Y221968D01*
X336166Y221807D02*
X336260Y221895D01*
X336051Y221711D02*
X336166Y221807D01*
X335915Y221603D02*
X336051Y221711D01*
X335761Y221483D02*
X335915Y221603D01*
X335613Y221366D02*
X335761Y221483D01*
X335458Y221230D02*
X335613Y221366D01*
X335412Y221184D02*
X335458Y221230D01*
X335367Y221135D02*
X335412Y221184D01*
X335323Y221079D02*
X335367Y221135D01*
X335285Y221016D02*
X335323Y221079D01*
X335268Y220979D02*
X335285Y221016D01*
X335256Y220939D02*
X335268Y220979D01*
X335251Y220909D02*
X335256Y220939D01*
X335249Y220878D02*
X335251Y220909D01*
X337400Y219226D02*
X337402Y220933D01*
X317717Y219224D02*
X317718Y220932D01*
X319869Y219280D02*
X335249D01*
X320472Y216130D02*
X334646D01*
X320472Y224027D02*
X334646D01*
X319869Y220878D02*
X335249D01*
X320398Y219280D02*
Y220878D01*
X334720Y219280D02*
Y220878D01*
X335249Y219280D02*
Y220878D01*
X319869Y219280D02*
Y220878D01*
X318701Y217902D02*
Y222256D01*
X336417Y217902D02*
Y222256D01*
X172316Y217234D02*
X172342Y217216D01*
X172423Y217157D01*
X172323Y222928D02*
X172417Y222996D01*
X172317Y222924D02*
X172323Y222928D01*
X189862Y222941D02*
X189890Y222924D01*
X189782Y223001D02*
X189862Y222941D01*
X189788Y217161D02*
X189881Y217229D01*
X189888Y217234D01*
X188792Y219280D02*
X188804Y219202D01*
X188846Y219110D01*
X188920Y219011D01*
X189002Y218926D01*
X189265Y218705D01*
X189506Y218517D01*
X189711Y218348D01*
X189861Y218201D01*
X189935Y218101D01*
X189961Y218018D01*
X189922Y222034D02*
X189961Y222139D01*
X189803Y221895D02*
X189922Y222034D01*
X189594Y221711D02*
X189803Y221895D01*
X189305Y221483D02*
X189594Y221711D01*
X189156Y221365D02*
X189305Y221483D01*
X189001Y221230D02*
X189156Y221365D01*
X188910Y221135D02*
X189001Y221230D01*
X188828Y221016D02*
X188910Y221135D01*
X188799Y220939D02*
X188828Y221016D01*
X188792Y220878D02*
X188799Y220939D01*
X172244Y218018D02*
X172254Y218067D01*
X172283Y218123D01*
X172333Y218189D01*
X172402Y218263D01*
X172496Y218350D01*
X172610Y218447D01*
X172746Y218555D01*
X172900Y218674D01*
X173048Y218792D01*
X173203Y218927D01*
X173250Y218973D01*
X173295Y219023D01*
X173338Y219078D01*
X173377Y219142D01*
X173393Y219179D01*
X173405Y219219D01*
X173411Y219249D01*
X173412Y219280D01*
X171260Y219224D02*
X171261Y220932D01*
X190944Y219226D02*
X190945Y220933D01*
X173412Y220878D02*
X188792D01*
X174016Y224027D02*
X188189D01*
X174016Y216130D02*
X188189D01*
X173412Y219280D02*
X188792D01*
X188264D02*
Y220878D01*
X173941Y219280D02*
Y220878D01*
X173412Y219280D02*
Y220878D01*
X188792Y219280D02*
Y220878D01*
X189961Y217902D02*
Y222256D01*
X172244Y217902D02*
Y222256D01*
X58356Y296594D02*
X58375Y296621D01*
X58434Y296701D01*
X52595Y296695D02*
X52662Y296601D01*
X52667Y296595D01*
X52649Y314141D02*
X52666Y314168D01*
X52590Y314060D02*
X52649Y314141D01*
X58361Y314160D02*
X58429Y314066D01*
X58357Y314166D02*
X58361Y314160D01*
X56311Y313071D02*
X56388Y313082D01*
X56480Y313124D01*
X56580Y313198D01*
X56664Y313281D01*
X56886Y313543D01*
X57073Y313784D01*
X57242Y313989D01*
X57389Y314139D01*
X57490Y314213D01*
X57572Y314239D01*
X53451D02*
X53556Y314200D01*
X53696Y314081D01*
X53880Y313872D01*
X54107Y313583D01*
X54225Y313434D01*
X54360Y313279D01*
X54456Y313188D01*
X54575Y313106D01*
X54652Y313078D01*
X54713Y313071D01*
X57524Y296532D02*
X57572Y296522D01*
X57467Y296561D02*
X57524Y296532D01*
X57402Y296611D02*
X57467Y296561D01*
X57328Y296680D02*
X57402Y296611D01*
X57241Y296774D02*
X57328Y296680D01*
X57144Y296889D02*
X57241Y296774D01*
X57036Y297025D02*
X57144Y296889D01*
X56916Y297178D02*
X57036Y297025D01*
X56799Y297326D02*
X56916Y297178D01*
X56663Y297482D02*
X56799Y297326D01*
X56617Y297528D02*
X56663Y297482D01*
X56568Y297573D02*
X56617Y297528D01*
X56512Y297616D02*
X56568Y297573D01*
X56449Y297655D02*
X56512Y297616D01*
X56412Y297671D02*
X56449Y297655D01*
X56372Y297684D02*
X56412Y297671D01*
X56342Y297689D02*
X56372Y297684D01*
X56311Y297691D02*
X56342Y297689D01*
X54659Y295539D02*
X56366Y295538D01*
X54657Y315223D02*
X56365Y315222D01*
X54713Y297691D02*
Y313071D01*
X51563Y298294D02*
Y312467D01*
X59460Y298294D02*
Y312467D01*
X56311Y297691D02*
Y313071D01*
X54713Y312542D02*
X56311D01*
X54713Y298219D02*
X56311D01*
X54713Y297691D02*
X56311D01*
X54713Y313071D02*
X56311D01*
X53335Y314239D02*
X57689D01*
X53335Y296522D02*
X57689D01*
X58356Y339638D02*
X58375Y339665D01*
X58434Y339745D01*
X52595Y339740D02*
X52662Y339646D01*
X52667Y339640D01*
X52649Y357185D02*
X52666Y357213D01*
X52590Y357105D02*
X52649Y357185D01*
X58361Y357204D02*
X58429Y357110D01*
X58357Y357211D02*
X58361Y357204D01*
X56311Y356115D02*
X56388Y356127D01*
X56480Y356168D01*
X56580Y356243D01*
X56664Y356325D01*
X56886Y356588D01*
X57073Y356829D01*
X57242Y357034D01*
X57389Y357184D01*
X57490Y357258D01*
X57572Y357283D01*
X53451D02*
X53556Y357244D01*
X53696Y357126D01*
X53880Y356917D01*
X54107Y356627D01*
X54225Y356478D01*
X54360Y356324D01*
X54456Y356233D01*
X54575Y356151D01*
X54652Y356122D01*
X54713Y356115D01*
X57524Y339577D02*
X57572Y339567D01*
X57467Y339606D02*
X57524Y339577D01*
X57402Y339656D02*
X57467Y339606D01*
X57328Y339725D02*
X57402Y339656D01*
X57241Y339819D02*
X57328Y339725D01*
X57144Y339933D02*
X57241Y339819D01*
X57036Y340069D02*
X57144Y339933D01*
X56916Y340223D02*
X57036Y340069D01*
X56799Y340371D02*
X56916Y340223D01*
X56663Y340526D02*
X56799Y340371D01*
X56617Y340572D02*
X56663Y340526D01*
X56568Y340618D02*
X56617Y340572D01*
X56512Y340661D02*
X56568Y340618D01*
X56449Y340700D02*
X56512Y340661D01*
X56412Y340716D02*
X56449Y340700D01*
X56372Y340728D02*
X56412Y340716D01*
X56342Y340733D02*
X56372Y340728D01*
X56311Y340735D02*
X56342Y340733D01*
X54659Y338584D02*
X56366Y338583D01*
X54657Y358268D02*
X56365Y358266D01*
X54713Y340735D02*
Y356115D01*
X51563Y341339D02*
Y355512D01*
X59460Y341339D02*
Y355512D01*
X56311Y340735D02*
Y356115D01*
X54713Y355587D02*
X56311D01*
X54713Y341264D02*
X56311D01*
X54713Y340735D02*
X56311D01*
X54713Y356115D02*
X56311D01*
X53335Y357283D02*
X57689D01*
X53335Y339567D02*
X57689D01*
X58356Y253549D02*
X58375Y253576D01*
X58434Y253656D01*
X52595Y253651D02*
X52662Y253557D01*
X52667Y253550D01*
X52649Y271096D02*
X52666Y271124D01*
X52590Y271016D02*
X52649Y271096D01*
X58361Y271115D02*
X58429Y271021D01*
X58357Y271122D02*
X58361Y271115D01*
X56311Y270026D02*
X56388Y270037D01*
X56480Y270079D01*
X56580Y270154D01*
X56664Y270236D01*
X56886Y270499D01*
X57073Y270739D01*
X57242Y270944D01*
X57389Y271095D01*
X57490Y271169D01*
X57572Y271194D01*
X53451D02*
X53556Y271155D01*
X53696Y271037D01*
X53880Y270828D01*
X54107Y270538D01*
X54225Y270389D01*
X54360Y270235D01*
X54456Y270144D01*
X54575Y270062D01*
X54652Y270033D01*
X54713Y270026D01*
X57524Y253487D02*
X57572Y253478D01*
X57467Y253517D02*
X57524Y253487D01*
X57402Y253566D02*
X57467Y253517D01*
X57328Y253635D02*
X57402Y253566D01*
X57241Y253729D02*
X57328Y253635D01*
X57144Y253844D02*
X57241Y253729D01*
X57036Y253980D02*
X57144Y253844D01*
X56916Y254134D02*
X57036Y253980D01*
X56799Y254282D02*
X56916Y254134D01*
X56663Y254437D02*
X56799Y254282D01*
X56617Y254483D02*
X56663Y254437D01*
X56568Y254528D02*
X56617Y254483D01*
X56512Y254572D02*
X56568Y254528D01*
X56449Y254610D02*
X56512Y254572D01*
X56412Y254627D02*
X56449Y254610D01*
X56372Y254639D02*
X56412Y254627D01*
X56342Y254644D02*
X56372Y254639D01*
X56311Y254646D02*
X56342Y254644D01*
X54659Y252495D02*
X56366Y252493D01*
X54657Y272178D02*
X56365Y272177D01*
X54713Y254646D02*
Y270026D01*
X51563Y255249D02*
Y269423D01*
X59460Y255249D02*
Y269423D01*
X56311Y254646D02*
Y270026D01*
X54713Y269497D02*
X56311D01*
X54713Y255175D02*
X56311D01*
X54713Y254646D02*
X56311D01*
X54713Y270026D02*
X56311D01*
X53335Y271194D02*
X57689D01*
X53335Y253478D02*
X57689D01*
X58356Y210505D02*
X58375Y210531D01*
X58434Y210612D01*
X52595Y210606D02*
X52662Y210512D01*
X52667Y210506D01*
X52649Y228051D02*
X52666Y228079D01*
X52590Y227971D02*
X52649Y228051D01*
X58361Y228070D02*
X58429Y227977D01*
X58357Y228077D02*
X58361Y228070D01*
X56311Y226981D02*
X56388Y226993D01*
X56480Y227035D01*
X56580Y227109D01*
X56664Y227191D01*
X56886Y227454D01*
X57073Y227695D01*
X57242Y227900D01*
X57389Y228050D01*
X57490Y228124D01*
X57572Y228150D01*
X53451D02*
X53556Y228110D01*
X53696Y227992D01*
X53880Y227783D01*
X54107Y227493D01*
X54225Y227345D01*
X54360Y227190D01*
X54456Y227099D01*
X54575Y227017D01*
X54652Y226988D01*
X54713Y226981D01*
X57524Y210443D02*
X57572Y210433D01*
X57467Y210472D02*
X57524Y210443D01*
X57402Y210522D02*
X57467Y210472D01*
X57328Y210591D02*
X57402Y210522D01*
X57241Y210685D02*
X57328Y210591D01*
X57144Y210799D02*
X57241Y210685D01*
X57036Y210935D02*
X57144Y210799D01*
X56916Y211089D02*
X57036Y210935D01*
X56799Y211237D02*
X56916Y211089D01*
X56663Y211392D02*
X56799Y211237D01*
X56617Y211439D02*
X56663Y211392D01*
X56568Y211484D02*
X56617Y211439D01*
X56512Y211527D02*
X56568Y211484D01*
X56449Y211566D02*
X56512Y211527D01*
X56412Y211582D02*
X56449Y211566D01*
X56372Y211594D02*
X56412Y211582D01*
X56342Y211599D02*
X56372Y211594D01*
X56311Y211601D02*
X56342Y211599D01*
X54659Y209450D02*
X56366Y209449D01*
X54657Y229134D02*
X56365Y229133D01*
X54713Y211601D02*
Y226981D01*
X51563Y212205D02*
Y226378D01*
X59460Y212205D02*
Y226378D01*
X56311Y211601D02*
Y226981D01*
X54713Y226453D02*
X56311D01*
X54713Y212130D02*
X56311D01*
X54713Y211601D02*
X56311D01*
X54713Y226981D02*
X56311D01*
X53335Y228150D02*
X57689D01*
X53335Y210433D02*
X57689D01*
X141634Y57981D02*
X141661Y57963D01*
X141554Y58040D02*
X141634Y57981D01*
X141559Y52201D02*
X141653Y52269D01*
X141660Y52273D01*
X124086Y52272D02*
X124114Y52255D01*
X124194Y52196D01*
X124095Y57967D02*
X124189Y58035D01*
X124088Y57963D02*
X124095Y57967D01*
X125172Y55995D02*
X125184Y55917D01*
X125131Y56087D02*
X125172Y55995D01*
X125056Y56186D02*
X125131Y56087D01*
X124974Y56271D02*
X125056Y56186D01*
X124711Y56492D02*
X124974Y56271D01*
X124471Y56679D02*
X124711Y56492D01*
X124266Y56848D02*
X124471Y56679D01*
X124115Y56995D02*
X124266Y56848D01*
X124041Y57096D02*
X124115Y56995D01*
X124016Y57179D02*
X124041Y57096D01*
X124016Y53058D02*
X124055Y53163D01*
X124173Y53302D01*
X124382Y53486D01*
X124672Y53714D01*
X124821Y53831D01*
X124975Y53967D01*
X125066Y54062D01*
X125148Y54181D01*
X125177Y54258D01*
X125184Y54319D01*
X141722Y57130D02*
X141732Y57179D01*
X141693Y57073D02*
X141722Y57130D01*
X141644Y57008D02*
X141693Y57073D01*
X141575Y56934D02*
X141644Y57008D01*
X141480Y56847D02*
X141575Y56934D01*
X141366Y56750D02*
X141480Y56847D01*
X141230Y56642D02*
X141366Y56750D01*
X141076Y56523D02*
X141230Y56642D01*
X140928Y56405D02*
X141076Y56523D01*
X140773Y56269D02*
X140928Y56405D01*
X140727Y56224D02*
X140773Y56269D01*
X140682Y56174D02*
X140727Y56224D01*
X140638Y56119D02*
X140682Y56174D01*
X140599Y56055D02*
X140638Y56119D01*
X140583Y56018D02*
X140599Y56055D01*
X140571Y55978D02*
X140583Y56018D01*
X140566Y55948D02*
X140571Y55978D01*
X140564Y55917D02*
X140566Y55948D01*
X142715Y54265D02*
X142716Y55972D01*
X123031Y54264D02*
X123033Y55971D01*
X125184Y54319D02*
X140564D01*
X125787Y51170D02*
X139960D01*
X125787Y59067D02*
X139960D01*
X125184Y55917D02*
X140564D01*
X125712Y54319D02*
Y55917D01*
X140035Y54319D02*
Y55917D01*
X140564Y54319D02*
Y55917D01*
X125184Y54319D02*
Y55917D01*
X124016Y52941D02*
Y57295D01*
X141732Y52941D02*
Y57295D01*
X43772Y52274D02*
X43799Y52255D01*
X43879Y52196D01*
X43780Y57967D02*
X43874Y58035D01*
X43773Y57963D02*
X43780Y57967D01*
X61319Y57981D02*
X61347Y57964D01*
X61239Y58040D02*
X61319Y57981D01*
X61244Y52201D02*
X61338Y52269D01*
X61345Y52273D01*
X60249Y54319D02*
X60261Y54241D01*
X60302Y54150D01*
X60377Y54050D01*
X60459Y53966D01*
X60722Y53744D01*
X60962Y53557D01*
X61167Y53388D01*
X61318Y53241D01*
X61392Y53140D01*
X61417Y53058D01*
X61378Y57073D02*
X61417Y57179D01*
X61260Y56934D02*
X61378Y57073D01*
X61051Y56750D02*
X61260Y56934D01*
X60761Y56523D02*
X61051Y56750D01*
X60612Y56405D02*
X60761Y56523D01*
X60458Y56269D02*
X60612Y56405D01*
X60367Y56174D02*
X60458Y56269D01*
X60285Y56055D02*
X60367Y56174D01*
X60256Y55978D02*
X60285Y56055D01*
X60249Y55917D02*
X60256Y55978D01*
X43701Y53058D02*
X43711Y53106D01*
X43740Y53163D01*
X43789Y53228D01*
X43858Y53302D01*
X43953Y53389D01*
X44067Y53486D01*
X44203Y53594D01*
X44357Y53714D01*
X44505Y53831D01*
X44660Y53967D01*
X44706Y54012D01*
X44751Y54062D01*
X44795Y54118D01*
X44834Y54181D01*
X44850Y54218D01*
X44862Y54258D01*
X44867Y54288D01*
X44869Y54319D01*
X42717Y54264D02*
X42718Y55971D01*
X62400Y54265D02*
X62402Y55972D01*
X44869Y55917D02*
X60249D01*
X45473Y59067D02*
X59646D01*
X45473Y51170D02*
X59646D01*
X44869Y54319D02*
X60249D01*
X59721D02*
Y55917D01*
X45398Y54319D02*
Y55917D01*
X44869Y54319D02*
Y55917D01*
X60249Y54319D02*
Y55917D01*
X61417Y52941D02*
Y57295D01*
X43701Y52941D02*
Y57295D01*
X120561Y257355D02*
X120579Y257382D01*
X120638Y257462D01*
X114799Y257456D02*
X114867Y257363D01*
X114872Y257356D01*
X114854Y274902D02*
X114871Y274929D01*
X114795Y274821D02*
X114854Y274902D01*
X120566Y274921D02*
X120634Y274827D01*
X120561Y274927D02*
X120566Y274921D01*
X118516Y273832D02*
X118593Y273843D01*
X118685Y273885D01*
X118785Y273959D01*
X118869Y274042D01*
X119090Y274304D01*
X119278Y274545D01*
X119447Y274750D01*
X119594Y274901D01*
X119694Y274974D01*
X119777Y275000D01*
X115656D02*
X115761Y274961D01*
X115900Y274842D01*
X116084Y274634D01*
X116312Y274344D01*
X116430Y274195D01*
X116565Y274041D01*
X116660Y273949D01*
X116780Y273867D01*
X116857Y273839D01*
X116918Y273832D01*
X119729Y257293D02*
X119777Y257283D01*
X119672Y257323D02*
X119729Y257293D01*
X119606Y257372D02*
X119672Y257323D01*
X119533Y257441D02*
X119606Y257372D01*
X119445Y257535D02*
X119533Y257441D01*
X119349Y257650D02*
X119445Y257535D01*
X119241Y257786D02*
X119349Y257650D01*
X119121Y257940D02*
X119241Y257786D01*
X119003Y258088D02*
X119121Y257940D01*
X118868Y258243D02*
X119003Y258088D01*
X118822Y258289D02*
X118868Y258243D01*
X118773Y258334D02*
X118822Y258289D01*
X118717Y258377D02*
X118773Y258334D01*
X118653Y258416D02*
X118717Y258377D01*
X118617Y258432D02*
X118653Y258416D01*
X118576Y258445D02*
X118617Y258432D01*
X118547Y258450D02*
X118576Y258445D01*
X118516Y258452D02*
X118547Y258450D01*
X116863Y256300D02*
X118571Y256299D01*
X116862Y275984D02*
X118570Y275983D01*
X116918Y258452D02*
Y273832D01*
X113768Y259055D02*
Y273228D01*
X121665Y259055D02*
Y273228D01*
X118516Y258452D02*
Y273832D01*
X116918Y273303D02*
X118516D01*
X116918Y258980D02*
X118516D01*
X116918Y258452D02*
X118516D01*
X116918Y273832D02*
X118516D01*
X115540Y275000D02*
X119893D01*
X115540Y257283D02*
X119893D01*
X120561Y210505D02*
X120579Y210531D01*
X120638Y210612D01*
X114799Y210606D02*
X114867Y210512D01*
X114872Y210506D01*
X114854Y228051D02*
X114871Y228079D01*
X114795Y227971D02*
X114854Y228051D01*
X120566Y228070D02*
X120634Y227977D01*
X120561Y228077D02*
X120566Y228070D01*
X118516Y226981D02*
X118593Y226993D01*
X118685Y227035D01*
X118785Y227109D01*
X118869Y227191D01*
X119090Y227454D01*
X119278Y227695D01*
X119447Y227900D01*
X119594Y228050D01*
X119694Y228124D01*
X119777Y228150D01*
X115656D02*
X115761Y228110D01*
X115900Y227992D01*
X116084Y227783D01*
X116312Y227493D01*
X116430Y227345D01*
X116565Y227190D01*
X116660Y227099D01*
X116780Y227017D01*
X116857Y226988D01*
X116918Y226981D01*
X119729Y210443D02*
X119777Y210433D01*
X119672Y210472D02*
X119729Y210443D01*
X119606Y210522D02*
X119672Y210472D01*
X119533Y210591D02*
X119606Y210522D01*
X119445Y210685D02*
X119533Y210591D01*
X119349Y210799D02*
X119445Y210685D01*
X119241Y210935D02*
X119349Y210799D01*
X119121Y211089D02*
X119241Y210935D01*
X119003Y211237D02*
X119121Y211089D01*
X118868Y211392D02*
X119003Y211237D01*
X118822Y211439D02*
X118868Y211392D01*
X118773Y211484D02*
X118822Y211439D01*
X118717Y211527D02*
X118773Y211484D01*
X118653Y211566D02*
X118717Y211527D01*
X118617Y211582D02*
X118653Y211566D01*
X118576Y211594D02*
X118617Y211582D01*
X118547Y211599D02*
X118576Y211594D01*
X118516Y211601D02*
X118547Y211599D01*
X116863Y209450D02*
X118571Y209449D01*
X116862Y229134D02*
X118570Y229133D01*
X116918Y211601D02*
Y226981D01*
X113768Y212205D02*
Y226378D01*
X121665Y212205D02*
Y226378D01*
X118516Y211601D02*
Y226981D01*
X116918Y226453D02*
X118516D01*
X116918Y212130D02*
X118516D01*
X116918Y211601D02*
X118516D01*
X116918Y226981D02*
X118516D01*
X115540Y228150D02*
X119893D01*
X115540Y210433D02*
X119893D01*
D13*
X75920Y366070D02*
X101120D01*
Y290168D02*
Y366070D01*
X75920Y290168D02*
X101120D01*
X75920D02*
Y365670D01*
D20*
X107744Y243701D02*
G03*
X107744Y243701I-19555J0D01*
G01*
D21*
X290862Y21651D02*
G03*
X274729Y21651I-8066J6302D01*
G01*
X256741D02*
G03*
X240608Y21651I-8066J6302D01*
G01*
X256741Y111415D02*
G03*
X240608Y111415I-8066J6302D01*
G01*
X290862D02*
G03*
X274729Y111415I-8066J6302D01*
G01*
X274729Y21654D02*
X290862D01*
X240608D02*
X256741D01*
X240608Y111417D02*
X256741D01*
X274729D02*
X290862D01*
X402282Y38526D02*
Y51526D01*
X362282Y38526D02*
X402282D01*
X362282D02*
Y51526D01*
Y56526D02*
X402282D01*
X362282Y51526D02*
Y56526D01*
Y51526D02*
X402282D01*
Y56526D01*
X447951Y188526D02*
Y201526D01*
X407951Y188526D02*
X447951D01*
X407951D02*
Y201526D01*
Y206526D02*
X447951D01*
X407951Y201526D02*
Y206526D01*
Y201526D02*
X447951D01*
Y206526D01*
Y38526D02*
Y51526D01*
X407951Y38526D02*
X447951D01*
X407951D02*
Y51526D01*
Y56526D02*
X447951D01*
X407951Y51526D02*
Y56526D01*
Y51526D02*
X447951D01*
Y56526D01*
X397794Y188526D02*
Y201526D01*
X357794Y188526D02*
X397794D01*
X357794D02*
Y201526D01*
Y206526D02*
X397794D01*
X357794Y201526D02*
Y206526D01*
Y201526D02*
X397794D01*
Y206526D01*
X280827Y27953D02*
X284764D01*
X282795Y25984D02*
Y29921D01*
X246706Y27953D02*
X250643D01*
X248675Y25984D02*
Y29921D01*
X246706Y117717D02*
X250643D01*
X248675Y115748D02*
Y119685D01*
X280827Y117717D02*
X284764D01*
X282795Y115748D02*
Y119685D01*
D22*
X480553Y22638D02*
G03*
X480553Y22638I-2994J0D01*
G01*
X525041Y306299D02*
G03*
X525041Y306299I-2994J0D01*
G01*
X480553Y163779D02*
G03*
X480553Y163779I-2994J0D01*
G01*
X480553Y306299D02*
G03*
X480553Y306299I-2994J0D01*
G01*
X527222Y22638D02*
G03*
X527222Y22638I-2994J0D01*
G01*
M02*
