G04*
G04 #@! TF.GenerationSoftware,Altium Limited,Altium Designer,18.0.7 (293)*
G04*
G04 Layer_Physical_Order=2*
G04 Layer_Color=16711680*
%FSLAX25Y25*%
%MOIN*%
G70*
G01*
G75*
%ADD10C,0.00787*%
%ADD12C,0.00500*%
%ADD13C,0.01000*%
%ADD20C,0.00197*%
%ADD21C,0.00394*%
%ADD22C,0.00300*%
%ADD46C,0.09843*%
%ADD47C,0.05906*%
%ADD48C,0.05906*%
%ADD49C,0.09843*%
%ADD50C,0.07000*%
%ADD51C,0.05906*%
%ADD52O,0.03937X0.07874*%
%ADD53R,0.03937X0.07874*%
%ADD54C,0.07087*%
%ADD55C,0.06496*%
G04:AMPARAMS|DCode=56|XSize=153.54mil|YSize=94.5mil|CornerRadius=0mil|HoleSize=0mil|Usage=FLASHONLY|Rotation=180.000|XOffset=0mil|YOffset=0mil|HoleType=Round|Shape=Octagon|*
%AMOCTAGOND56*
4,1,8,-0.07677,0.02363,-0.07677,-0.02363,-0.05315,-0.04725,0.05315,-0.04725,0.07677,-0.02363,0.07677,0.02363,0.05315,0.04725,-0.05315,0.04725,-0.07677,0.02363,0.0*
%
%ADD56OCTAGOND56*%

%ADD57R,0.08268X0.08268*%
%ADD58C,0.08268*%
%ADD59P,0.23438X8X22.5*%
%ADD60C,0.07500*%
G04:AMPARAMS|DCode=61|XSize=75mil|YSize=75mil|CornerRadius=9.38mil|HoleSize=0mil|Usage=FLASHONLY|Rotation=90.000|XOffset=0mil|YOffset=0mil|HoleType=Round|Shape=RoundedRectangle|*
%AMROUNDEDRECTD61*
21,1,0.07500,0.05625,0,0,90.0*
21,1,0.05625,0.07500,0,0,90.0*
1,1,0.01875,0.02813,0.02813*
1,1,0.01875,0.02813,-0.02813*
1,1,0.01875,-0.02813,-0.02813*
1,1,0.01875,-0.02813,0.02813*
%
%ADD61ROUNDEDRECTD61*%
G04:AMPARAMS|DCode=62|XSize=75mil|YSize=75mil|CornerRadius=9.38mil|HoleSize=0mil|Usage=FLASHONLY|Rotation=180.000|XOffset=0mil|YOffset=0mil|HoleType=Round|Shape=RoundedRectangle|*
%AMROUNDEDRECTD62*
21,1,0.07500,0.05625,0,0,180.0*
21,1,0.05625,0.07500,0,0,180.0*
1,1,0.01875,-0.02813,0.02813*
1,1,0.01875,0.02813,0.02813*
1,1,0.01875,0.02813,-0.02813*
1,1,0.01875,-0.02813,-0.02813*
%
%ADD62ROUNDEDRECTD62*%
%ADD63C,0.11811*%
%ADD65O,0.06000X0.07000*%
G04:AMPARAMS|DCode=66|XSize=60mil|YSize=70mil|CornerRadius=0mil|HoleSize=0mil|Usage=FLASHONLY|Rotation=0.000|XOffset=0mil|YOffset=0mil|HoleType=Round|Shape=Octagon|*
%AMOCTAGOND66*
4,1,8,-0.01500,0.03500,0.01500,0.03500,0.03000,0.02000,0.03000,-0.02000,0.01500,-0.03500,-0.01500,-0.03500,-0.03000,-0.02000,-0.03000,0.02000,-0.01500,0.03500,0.0*
%
%ADD66OCTAGOND66*%

%ADD67C,0.06693*%
%ADD68R,0.06693X0.06693*%
%ADD69C,0.06299*%
%ADD70R,0.06299X0.06299*%
%ADD71C,0.08858*%
%ADD72C,0.05512*%
%ADD73R,0.05906X0.05906*%
%ADD74C,0.05000*%
G36*
X530133Y357144D02*
X530048Y357114D01*
X529973Y357063D01*
X529908Y356992D01*
X529853Y356901D01*
X529808Y356790D01*
X529773Y356658D01*
X529748Y356506D01*
X529733Y356334D01*
X529728Y356142D01*
X528728D01*
X528723Y356334D01*
X528708Y356506D01*
X528683Y356658D01*
X528648Y356790D01*
X528603Y356901D01*
X528548Y356992D01*
X528483Y357063D01*
X528408Y357114D01*
X528323Y357144D01*
X528228Y357154D01*
X530228D01*
X530133Y357144D01*
D02*
G37*
G36*
X516499Y336422D02*
X516360Y336260D01*
X516235Y336070D01*
X516127Y335850D01*
X516033Y335601D01*
X515954Y335323D01*
X515891Y335016D01*
X515842Y334679D01*
X515790Y333918D01*
X515787Y333494D01*
X512864Y336417D01*
X513288Y336420D01*
X514049Y336472D01*
X514386Y336521D01*
X514693Y336584D01*
X514971Y336663D01*
X515220Y336757D01*
X515440Y336865D01*
X515630Y336989D01*
X515792Y337129D01*
X516499Y336422D01*
D02*
G37*
G36*
X565635Y339877D02*
X565444Y339415D01*
X525965D01*
X524805Y339300D01*
X523689Y338962D01*
X522660Y338412D01*
X521758Y337672D01*
X517261Y333174D01*
X516812Y333396D01*
X516821Y333465D01*
X516807Y333571D01*
X516810Y333880D01*
X516857Y334572D01*
X516895Y334840D01*
X516945Y335081D01*
X517002Y335282D01*
X517063Y335443D01*
X517123Y335563D01*
X517171Y335638D01*
X530310Y348777D01*
X530641Y349273D01*
X530758Y349858D01*
Y356130D01*
X531228D01*
X533228Y358130D01*
Y363130D01*
X531228Y365130D01*
X527228D01*
X525228Y363130D01*
Y358130D01*
X527228Y356130D01*
X527699D01*
Y350492D01*
X515008Y337801D01*
X514933Y337753D01*
X514813Y337693D01*
X514652Y337632D01*
X514451Y337575D01*
X514210Y337525D01*
X513942Y337487D01*
X513250Y337440D01*
X512941Y337437D01*
X512835Y337452D01*
X511803Y337316D01*
X510841Y336917D01*
X510015Y336284D01*
X509382Y335458D01*
X508984Y334496D01*
X508848Y333465D01*
X508984Y332433D01*
X509382Y331471D01*
X510015Y330645D01*
X510841Y330012D01*
X511803Y329614D01*
X512835Y329478D01*
X512904Y329487D01*
X513125Y329038D01*
X496336Y312249D01*
X481076D01*
X480214Y312710D01*
X478913Y313105D01*
X477559Y313238D01*
X476205Y313105D01*
X474904Y312710D01*
X473704Y312069D01*
X472652Y311206D01*
X471790Y310154D01*
X471148Y308955D01*
X470753Y307653D01*
X470620Y306299D01*
X470753Y304945D01*
X471148Y303644D01*
X471790Y302444D01*
X472652Y301393D01*
X473704Y300530D01*
X474904Y299888D01*
X476205Y299494D01*
X477559Y299360D01*
X478913Y299494D01*
X480214Y299888D01*
X481076Y300349D01*
X498800D01*
X499961Y300464D01*
X501077Y300802D01*
X502106Y301352D01*
X503007Y302092D01*
X528430Y327515D01*
X572835D01*
X573995Y327629D01*
X575111Y327968D01*
X576140Y328517D01*
X576609Y328903D01*
X590551Y314961D01*
Y78740D01*
X571997Y60186D01*
X571494Y60120D01*
X570246Y59603D01*
X569173Y58780D01*
X568350Y57707D01*
X567833Y56458D01*
X567767Y55956D01*
X530532Y18721D01*
X530126Y19022D01*
X530639Y19982D01*
X531034Y21284D01*
X531167Y22638D01*
X531034Y23991D01*
X530639Y25293D01*
X529998Y26493D01*
X529135Y27544D01*
X528084Y28407D01*
X526884Y29048D01*
X525582Y29443D01*
X524228Y29577D01*
X522875Y29443D01*
X521573Y29048D01*
X520373Y28407D01*
X519322Y27544D01*
X518459Y26493D01*
X517818Y25293D01*
X517423Y23991D01*
X517289Y22638D01*
X517423Y21284D01*
X517818Y19982D01*
X518459Y18783D01*
X519322Y17731D01*
X520373Y16868D01*
X521573Y16227D01*
X522875Y15832D01*
X524228Y15699D01*
X525582Y15832D01*
X526884Y16227D01*
X527844Y16740D01*
X528146Y16334D01*
X511811Y0D01*
X78740D01*
X0Y78740D01*
Y314961D01*
X19237Y334198D01*
X19923Y333635D01*
X20952Y333086D01*
X22068Y332747D01*
X23228Y332633D01*
X72293D01*
X72954Y332432D01*
X74115Y332318D01*
X92520D01*
X93681Y332432D01*
X94045Y332543D01*
X98334D01*
X101197Y335405D01*
Y341130D01*
X98334Y343993D01*
X94045D01*
X93681Y344103D01*
X92520Y344218D01*
X75622D01*
X74961Y344418D01*
X73800Y344532D01*
X30225D01*
X30034Y344994D01*
X78740Y393701D01*
X511811D01*
X565635Y339877D01*
D02*
G37*
%LPC*%
G36*
X519228Y365164D02*
X518184Y365027D01*
X517211Y364624D01*
X516376Y363983D01*
X515734Y363147D01*
X515331Y362174D01*
X515194Y361130D01*
Y360130D01*
X515331Y359086D01*
X515734Y358113D01*
X516376Y357277D01*
X517211Y356636D01*
X518184Y356233D01*
X519228Y356096D01*
X520273Y356233D01*
X521246Y356636D01*
X522081Y357277D01*
X522722Y358113D01*
X523126Y359086D01*
X523263Y360130D01*
Y361130D01*
X523126Y362174D01*
X522722Y363147D01*
X522081Y363983D01*
X521246Y364624D01*
X520273Y365027D01*
X519228Y365164D01*
D02*
G37*
G36*
X477559D02*
X476515Y365027D01*
X475542Y364624D01*
X474706Y363983D01*
X474065Y363147D01*
X473662Y362174D01*
X473525Y361130D01*
Y360130D01*
X473662Y359086D01*
X474065Y358113D01*
X474706Y357277D01*
X475542Y356636D01*
X476515Y356233D01*
X477559Y356096D01*
X478603Y356233D01*
X479576Y356636D01*
X480412Y357277D01*
X481053Y358113D01*
X481456Y359086D01*
X481594Y360130D01*
Y361130D01*
X481456Y362174D01*
X481053Y363147D01*
X480412Y363983D01*
X479576Y364624D01*
X478603Y365027D01*
X477559Y365164D01*
D02*
G37*
G36*
X120529Y363056D02*
X114904D01*
X114148Y362905D01*
X113507Y362477D01*
X113079Y361836D01*
X112929Y361080D01*
Y355455D01*
X113079Y354699D01*
X113507Y354058D01*
X114148Y353630D01*
X114904Y353480D01*
X120529D01*
X121285Y353630D01*
X121926Y354058D01*
X122354Y354699D01*
X122505Y355455D01*
Y361080D01*
X122354Y361836D01*
X121926Y362477D01*
X121285Y362905D01*
X120529Y363056D01*
D02*
G37*
G36*
X489559Y365130D02*
X485559D01*
X483559Y363130D01*
Y358130D01*
X485559Y356130D01*
X486030D01*
Y352634D01*
X468390Y334994D01*
X449289D01*
X449201Y335013D01*
X449074Y335055D01*
X448917Y335126D01*
X448734Y335228D01*
X448528Y335364D01*
X448312Y335526D01*
X447789Y335982D01*
X447570Y336198D01*
X447504Y336284D01*
X446678Y336917D01*
X445717Y337316D01*
X444685Y337452D01*
X443653Y337316D01*
X442692Y336917D01*
X441866Y336284D01*
X441232Y335458D01*
X440834Y334496D01*
X440698Y333465D01*
X440834Y332433D01*
X441232Y331471D01*
X441866Y330645D01*
X442692Y330012D01*
X443653Y329614D01*
X444685Y329478D01*
X445717Y329614D01*
X446678Y330012D01*
X447504Y330645D01*
X447570Y330731D01*
X447790Y330948D01*
X448312Y331403D01*
X448528Y331565D01*
X448734Y331701D01*
X448917Y331803D01*
X449074Y331874D01*
X449201Y331917D01*
X449289Y331935D01*
X469024D01*
X469609Y332052D01*
X470105Y332383D01*
X488640Y350919D01*
X488972Y351415D01*
X489088Y352000D01*
Y356130D01*
X489559D01*
X491559Y358130D01*
Y363130D01*
X489559Y365130D01*
D02*
G37*
G36*
X117717Y343374D02*
X116477Y343211D01*
X115321Y342732D01*
X114329Y341970D01*
X113567Y340978D01*
X113089Y339823D01*
X112926Y338583D01*
X113089Y337343D01*
X113567Y336187D01*
X114329Y335195D01*
X115321Y334434D01*
X116477Y333955D01*
X117717Y333792D01*
X118957Y333955D01*
X120112Y334434D01*
X121104Y335195D01*
X121866Y336187D01*
X122344Y337343D01*
X122508Y338583D01*
X122344Y339823D01*
X121866Y340978D01*
X121104Y341970D01*
X120112Y342732D01*
X118957Y343211D01*
X117717Y343374D01*
D02*
G37*
G36*
X494685Y337452D02*
X493653Y337316D01*
X492692Y336917D01*
X491866Y336284D01*
X491232Y335458D01*
X490834Y334496D01*
X490698Y333465D01*
X490834Y332433D01*
X491232Y331471D01*
X491866Y330645D01*
X492692Y330012D01*
X493653Y329614D01*
X494685Y329478D01*
X495717Y329614D01*
X496678Y330012D01*
X497504Y330645D01*
X498138Y331471D01*
X498536Y332433D01*
X498672Y333465D01*
X498536Y334496D01*
X498138Y335458D01*
X497504Y336284D01*
X496678Y336917D01*
X495717Y337316D01*
X494685Y337452D01*
D02*
G37*
G36*
X18610Y329128D02*
Y324516D01*
X23223D01*
X23112Y325356D01*
X22595Y326605D01*
X21772Y327677D01*
X20699Y328500D01*
X19450Y329017D01*
X18610Y329128D01*
D02*
G37*
G36*
X17610D02*
X16770Y329017D01*
X15521Y328500D01*
X14449Y327677D01*
X13626Y326605D01*
X13108Y325356D01*
X12998Y324516D01*
X17610D01*
Y329128D01*
D02*
G37*
G36*
X23223Y323516D02*
X18610D01*
Y318903D01*
X19450Y319014D01*
X20699Y319531D01*
X21772Y320354D01*
X22595Y321427D01*
X23112Y322676D01*
X23223Y323516D01*
D02*
G37*
G36*
X17610D02*
X12998D01*
X13108Y322676D01*
X13626Y321427D01*
X14449Y320354D01*
X15521Y319531D01*
X16770Y319014D01*
X17610Y318903D01*
Y323516D01*
D02*
G37*
G36*
X69702Y332016D02*
X39845D01*
X38684Y331901D01*
X37568Y331563D01*
X36540Y331013D01*
X35638Y330273D01*
X20187Y314822D01*
X16893Y311719D01*
X15290Y310365D01*
X14688Y309918D01*
X14227Y309621D01*
X13963Y309491D01*
X13842Y309465D01*
X12976D01*
Y308491D01*
X12969Y308453D01*
X12976Y308415D01*
Y307287D01*
X12613Y306608D01*
X12275Y305492D01*
X12160Y304331D01*
X12275Y303170D01*
X12613Y302054D01*
X12976Y301375D01*
Y299197D01*
X15154D01*
X15833Y298834D01*
X16949Y298495D01*
X18110Y298381D01*
X19271Y298495D01*
X20387Y298834D01*
X21067Y299197D01*
X22194D01*
X22232Y299189D01*
X22270Y299197D01*
X23244D01*
Y300063D01*
X23271Y300183D01*
X23400Y300448D01*
X23673Y300871D01*
X28611Y306418D01*
X42310Y320116D01*
X51398D01*
X51566Y319645D01*
X51305Y319430D01*
X50565Y318529D01*
X50015Y317500D01*
X49676Y316384D01*
X49562Y315223D01*
X49676Y314062D01*
X50015Y312946D01*
X50565Y311918D01*
X51305Y311016D01*
X68260Y294061D01*
X69162Y293321D01*
X70190Y292771D01*
X71306Y292432D01*
X72467Y292318D01*
X92520D01*
X93681Y292432D01*
X94045Y292543D01*
X98334D01*
X101197Y295405D01*
Y301130D01*
X98334Y303993D01*
X94045D01*
X93681Y304103D01*
X92520Y304218D01*
X74932D01*
X59719Y319430D01*
X59457Y319645D01*
X59626Y320116D01*
X67238D01*
X73293Y314061D01*
X74194Y313321D01*
X75223Y312771D01*
X76339Y312432D01*
X77500Y312318D01*
X111600D01*
X112761Y312432D01*
X113877Y312771D01*
X114374Y313036D01*
X114411Y313006D01*
X115440Y312456D01*
X116556Y312117D01*
X117717Y312003D01*
X118877Y312117D01*
X119993Y312456D01*
X121022Y313006D01*
X121924Y313746D01*
X122664Y314647D01*
X123214Y315676D01*
X123552Y316792D01*
X123667Y317953D01*
X123552Y319114D01*
X123214Y320230D01*
X122664Y321258D01*
X121924Y322160D01*
X118708Y325376D01*
X117806Y326116D01*
X116778Y326666D01*
X115662Y327004D01*
X114501Y327118D01*
X113340Y327004D01*
X112224Y326666D01*
X111195Y326116D01*
X110294Y325376D01*
X109135Y324218D01*
X79965D01*
X73909Y330273D01*
X73008Y331013D01*
X71979Y331563D01*
X70863Y331901D01*
X69702Y332016D01*
D02*
G37*
G36*
X377272Y313976D02*
Y307587D01*
X383661D01*
X383577Y308440D01*
X383182Y309742D01*
X382541Y310942D01*
X381678Y311993D01*
X380627Y312856D01*
X379427Y313497D01*
X378125Y313892D01*
X377272Y313976D01*
D02*
G37*
G36*
X376272D02*
X375418Y313892D01*
X374116Y313497D01*
X372917Y312856D01*
X371865Y311993D01*
X371002Y310942D01*
X370361Y309742D01*
X369966Y308440D01*
X369882Y307587D01*
X376272D01*
Y313976D01*
D02*
G37*
G36*
X371816Y306587D02*
X371307D01*
X371770Y306123D01*
X371791Y306229D01*
X371816Y306587D01*
D02*
G37*
G36*
X370860D02*
X369882D01*
X369966Y305733D01*
X370361Y304431D01*
X370726Y303749D01*
X370838Y305149D01*
X370860Y306587D01*
D02*
G37*
G36*
X376272D02*
X372353D01*
X376272Y302668D01*
Y306587D01*
D02*
G37*
G36*
Y302131D02*
X375914Y302106D01*
X375809Y302085D01*
X376272Y301622D01*
Y302131D01*
D02*
G37*
G36*
X383661Y306587D02*
X377272D01*
Y300197D01*
X378125Y300281D01*
X379427Y300676D01*
X380627Y301317D01*
X381678Y302180D01*
X382541Y303232D01*
X383182Y304431D01*
X383577Y305733D01*
X383661Y306587D01*
D02*
G37*
G36*
X376272Y301181D02*
X375734Y301179D01*
X373439Y301038D01*
X374116Y300676D01*
X375418Y300281D01*
X376272Y300197D01*
Y301181D01*
D02*
G37*
G36*
X197835Y306587D02*
X191445D01*
Y300197D01*
X192298Y300281D01*
X193600Y300676D01*
X194800Y301317D01*
X195851Y302180D01*
X196714Y303232D01*
X197355Y304431D01*
X197750Y305733D01*
X197835Y306587D01*
D02*
G37*
G36*
X190445D02*
X184055D01*
X184139Y305733D01*
X184534Y304431D01*
X185175Y303232D01*
X186038Y302180D01*
X187090Y301317D01*
X188289Y300676D01*
X189591Y300281D01*
X190445Y300197D01*
Y306587D01*
D02*
G37*
G36*
X337402Y314025D02*
X336048Y313892D01*
X334746Y313497D01*
X333546Y312856D01*
X332495Y311993D01*
X331632Y310942D01*
X330991Y309742D01*
X330596Y308440D01*
X330463Y307087D01*
X330596Y305733D01*
X330991Y304431D01*
X331632Y303232D01*
X332495Y302180D01*
X333546Y301317D01*
X334746Y300676D01*
X336048Y300281D01*
X337402Y300148D01*
X338755Y300281D01*
X340057Y300676D01*
X341257Y301317D01*
X342308Y302180D01*
X343171Y303232D01*
X343812Y304431D01*
X344207Y305733D01*
X344340Y307087D01*
X344207Y308440D01*
X343812Y309742D01*
X343171Y310942D01*
X342308Y311993D01*
X341257Y312856D01*
X340057Y313497D01*
X338755Y313892D01*
X337402Y314025D01*
D02*
G37*
G36*
X127200Y381950D02*
X109100D01*
X107939Y381836D01*
X106823Y381497D01*
X105794Y380947D01*
X104893Y380207D01*
X100893Y376207D01*
X100153Y375306D01*
X99603Y374277D01*
X99264Y373161D01*
X99150Y372000D01*
Y364218D01*
X55512D01*
X54351Y364103D01*
X53235Y363765D01*
X52206Y363215D01*
X51305Y362475D01*
X50565Y361573D01*
X50015Y360545D01*
X49676Y359429D01*
X49562Y358268D01*
X49676Y357107D01*
X50015Y355991D01*
X50565Y354962D01*
X51305Y354061D01*
X52206Y353321D01*
X53235Y352771D01*
X54351Y352432D01*
X55512Y352318D01*
X102000D01*
X103161Y352432D01*
X104277Y352771D01*
X105306Y353321D01*
X106207Y354061D01*
X109307Y357161D01*
X110047Y358062D01*
X110597Y359091D01*
X110936Y360207D01*
X111050Y361368D01*
Y369535D01*
X111565Y370050D01*
X124735D01*
X125250Y369535D01*
Y319400D01*
Y314216D01*
X113520Y302486D01*
X113507Y302477D01*
X113490Y302452D01*
X112769Y301573D01*
X112220Y300545D01*
X111881Y299429D01*
X111767Y298268D01*
X111881Y297107D01*
X112220Y295991D01*
X112769Y294962D01*
X113490Y294084D01*
X113507Y294058D01*
X113533Y294041D01*
X114411Y293321D01*
X115440Y292771D01*
X116556Y292432D01*
X117717Y292318D01*
X118877Y292432D01*
X119993Y292771D01*
X121022Y293321D01*
X121900Y294041D01*
X121926Y294058D01*
X121935Y294071D01*
X135407Y307544D01*
X136147Y308446D01*
X136697Y309474D01*
X137036Y310590D01*
X137150Y311751D01*
Y313450D01*
X187172D01*
X187294Y312965D01*
X187090Y312856D01*
X186038Y311993D01*
X185175Y310942D01*
X184534Y309742D01*
X184139Y308440D01*
X184055Y307587D01*
X197835D01*
X197750Y308440D01*
X197355Y309742D01*
X196714Y310942D01*
X195851Y311993D01*
X194800Y312856D01*
X194596Y312965D01*
X194718Y313450D01*
X215537D01*
X223621Y305367D01*
X223904Y304431D01*
X224546Y303232D01*
X225408Y302180D01*
X226460Y301317D01*
X227660Y300676D01*
X228961Y300281D01*
X230315Y300148D01*
X231669Y300281D01*
X232970Y300676D01*
X234170Y301317D01*
X235222Y302180D01*
X236085Y303232D01*
X236726Y304431D01*
X237121Y305733D01*
X237254Y307087D01*
X237121Y308440D01*
X236726Y309742D01*
X236085Y310942D01*
X235222Y311993D01*
X234170Y312856D01*
X232970Y313497D01*
X232035Y313781D01*
X222209Y323607D01*
X221307Y324347D01*
X220279Y324897D01*
X219162Y325236D01*
X218002Y325350D01*
X137150D01*
Y372000D01*
X137036Y373161D01*
X136697Y374277D01*
X136147Y375306D01*
X135407Y376207D01*
X131407Y380207D01*
X130506Y380947D01*
X129477Y381497D01*
X128361Y381836D01*
X127200Y381950D01*
D02*
G37*
G36*
X58324Y300326D02*
X52699D01*
X51943Y300176D01*
X51302Y299747D01*
X50874Y299107D01*
X50724Y298351D01*
Y292725D01*
X50874Y291969D01*
X51302Y291329D01*
X51943Y290900D01*
X52699Y290750D01*
X58324D01*
X59080Y290900D01*
X59721Y291329D01*
X60149Y291969D01*
X60300Y292725D01*
Y298351D01*
X60149Y299107D01*
X59721Y299747D01*
X59080Y300176D01*
X58324Y300326D01*
D02*
G37*
G36*
X117717Y280775D02*
X116477Y280612D01*
X115321Y280133D01*
X114329Y279372D01*
X113567Y278380D01*
X113089Y277224D01*
X112926Y275984D01*
X113089Y274744D01*
X113567Y273589D01*
X114329Y272597D01*
X115321Y271835D01*
X116477Y271357D01*
X117717Y271193D01*
X118957Y271357D01*
X120112Y271835D01*
X121104Y272597D01*
X121866Y273589D01*
X122344Y274744D01*
X122508Y275984D01*
X122344Y277224D01*
X121866Y278380D01*
X121104Y279372D01*
X120112Y280133D01*
X118957Y280612D01*
X117717Y280775D01*
D02*
G37*
G36*
X522047Y313238D02*
X520693Y313105D01*
X519392Y312710D01*
X518192Y312069D01*
X517141Y311206D01*
X516278Y310154D01*
X515636Y308955D01*
X515242Y307653D01*
X515108Y306299D01*
X515242Y304945D01*
X515636Y303644D01*
X516278Y302444D01*
X517141Y301393D01*
X518192Y300530D01*
X519392Y299888D01*
X520693Y299494D01*
X522047Y299360D01*
X523401Y299494D01*
X524703Y299888D01*
X525565Y300349D01*
X540764D01*
X562343Y278770D01*
X565446Y275476D01*
X566800Y273872D01*
X567248Y273271D01*
X567545Y272810D01*
X567674Y272545D01*
X567701Y272425D01*
Y271559D01*
X568675D01*
X568713Y271551D01*
X568751Y271559D01*
X569878D01*
X570558Y271196D01*
X571674Y270857D01*
X572835Y270743D01*
X573995Y270857D01*
X575111Y271196D01*
X575791Y271559D01*
X577969D01*
Y273737D01*
X578332Y274416D01*
X578670Y275532D01*
X578785Y276693D01*
X578670Y277854D01*
X578332Y278970D01*
X577969Y279649D01*
Y280777D01*
X577976Y280815D01*
X577969Y280853D01*
Y281827D01*
X577102D01*
X576982Y281853D01*
X576717Y281983D01*
X576294Y282255D01*
X570748Y287194D01*
X547435Y310506D01*
X546534Y311246D01*
X545505Y311796D01*
X544389Y312135D01*
X543228Y312249D01*
X525565D01*
X524703Y312710D01*
X523401Y313105D01*
X522047Y313238D01*
D02*
G37*
G36*
X18610Y269069D02*
Y264457D01*
X23223D01*
X23112Y265297D01*
X22595Y266546D01*
X21772Y267618D01*
X20699Y268441D01*
X19450Y268958D01*
X18610Y269069D01*
D02*
G37*
G36*
X17610D02*
X16770Y268958D01*
X15521Y268441D01*
X14449Y267618D01*
X13626Y266546D01*
X13108Y265297D01*
X12998Y264457D01*
X17610D01*
Y269069D01*
D02*
G37*
G36*
X23223Y263457D02*
X18610D01*
Y258844D01*
X19450Y258955D01*
X20699Y259472D01*
X21772Y260295D01*
X22595Y261368D01*
X23112Y262616D01*
X23223Y263457D01*
D02*
G37*
G36*
X17610D02*
X12998D01*
X13108Y262616D01*
X13626Y261368D01*
X14449Y260295D01*
X15521Y259472D01*
X16770Y258955D01*
X17610Y258844D01*
Y263457D01*
D02*
G37*
G36*
X573335Y262120D02*
Y257508D01*
X577947D01*
X577836Y258348D01*
X577319Y259597D01*
X576496Y260669D01*
X575424Y261492D01*
X574175Y262010D01*
X573335Y262120D01*
D02*
G37*
G36*
X572335Y262120D02*
X571494Y262010D01*
X570246Y261492D01*
X569173Y260669D01*
X568350Y259597D01*
X567833Y258348D01*
X567722Y257508D01*
X572335D01*
Y262120D01*
D02*
G37*
G36*
X55512Y276969D02*
X54272Y276806D01*
X53116Y276327D01*
X52124Y275566D01*
X51363Y274574D01*
X50884Y273418D01*
X50721Y272178D01*
X50884Y270938D01*
X51363Y269783D01*
X52124Y268791D01*
X53116Y268029D01*
X54272Y267551D01*
X55512Y267387D01*
X56752Y267551D01*
X57907Y268029D01*
X58086Y268166D01*
X72999Y253253D01*
X72731Y252813D01*
X61767Y256293D01*
X61677Y256309D01*
X61593Y256344D01*
X61166Y256401D01*
X60742Y256476D01*
X60651Y256468D01*
X60561Y256480D01*
X59870D01*
X59721Y256703D01*
X59080Y257131D01*
X58324Y257281D01*
X52699D01*
X51943Y257131D01*
X51302Y256703D01*
X50874Y256062D01*
X50724Y255306D01*
Y249681D01*
X50874Y248925D01*
X51302Y248284D01*
X51943Y247856D01*
X52699Y247705D01*
X58324D01*
X59080Y247856D01*
X59721Y248284D01*
X59870Y248506D01*
X59943D01*
X69944Y245332D01*
X72943Y233151D01*
X72881Y232677D01*
X73027Y231568D01*
X73455Y230535D01*
X74136Y229647D01*
X75023Y228967D01*
X75390Y228815D01*
X82606Y221598D01*
X82606Y221598D01*
X83432Y220965D01*
X84394Y220566D01*
X85425Y220430D01*
X113000D01*
X113000Y220430D01*
X114032Y220566D01*
X114993Y220965D01*
X115819Y221598D01*
X118692Y224471D01*
X118957Y224506D01*
X120112Y224985D01*
X121104Y225746D01*
X121866Y226738D01*
X122344Y227894D01*
X122508Y229134D01*
X122344Y230374D01*
X121866Y231529D01*
X121104Y232522D01*
X120112Y233283D01*
X118957Y233762D01*
X117717Y233925D01*
X116477Y233762D01*
X115321Y233283D01*
X114329Y232522D01*
X113567Y231529D01*
X113089Y230374D01*
X113054Y230110D01*
X111349Y228404D01*
X101541D01*
X101404Y228747D01*
X101402Y228904D01*
X102242Y229549D01*
X102923Y230436D01*
X103351Y231470D01*
X103497Y232579D01*
X103351Y233688D01*
X102923Y234721D01*
X102242Y235609D01*
X101355Y236289D01*
X100322Y236718D01*
X99213Y236863D01*
X98104Y236718D01*
X97070Y236289D01*
X96183Y235609D01*
X95502Y234721D01*
X95074Y233688D01*
X94928Y232579D01*
X95074Y231470D01*
X95502Y230436D01*
X96183Y229549D01*
X97023Y228904D01*
X97022Y228747D01*
X96884Y228404D01*
X87077D01*
X81028Y234453D01*
X80876Y234820D01*
X80682Y235073D01*
X77153Y249409D01*
X76981Y249847D01*
X76938Y249965D01*
X77032Y250160D01*
X77293Y250456D01*
X78274Y250586D01*
X79308Y251014D01*
X80195Y251695D01*
X80876Y252582D01*
X81304Y253615D01*
X81450Y254724D01*
X81304Y255833D01*
X80876Y256867D01*
X80195Y257754D01*
X79308Y258435D01*
X78941Y258587D01*
X62530Y274997D01*
X61705Y275631D01*
X60743Y276029D01*
X59711Y276165D01*
X59711Y276165D01*
X58119D01*
X57907Y276327D01*
X56752Y276806D01*
X55512Y276969D01*
D02*
G37*
G36*
X572335Y256508D02*
X567722D01*
X567833Y255668D01*
X568350Y254419D01*
X569173Y253346D01*
X570246Y252523D01*
X571494Y252006D01*
X572335Y251895D01*
Y256508D01*
D02*
G37*
G36*
X577947D02*
X573335D01*
Y251895D01*
X574175Y252006D01*
X575424Y252523D01*
X576496Y253346D01*
X577319Y254419D01*
X577836Y255668D01*
X577947Y256508D01*
D02*
G37*
G36*
X18110Y288820D02*
X16770Y288643D01*
X15521Y288126D01*
X14449Y287303D01*
X13626Y286231D01*
X13108Y284982D01*
X12932Y283642D01*
X13108Y282301D01*
X13626Y281052D01*
X14449Y279980D01*
X15521Y279157D01*
X16770Y278640D01*
X18110Y278463D01*
X19450Y278640D01*
X20699Y279157D01*
X21348Y279655D01*
X88723D01*
X109583Y258795D01*
X109715Y258657D01*
X110870Y257296D01*
X111345Y256647D01*
X111767Y255999D01*
X112132Y255363D01*
X112440Y254737D01*
X112692Y254122D01*
X112888Y253519D01*
X113041Y252886D01*
X113053Y252860D01*
X113079Y252731D01*
X113190Y252565D01*
X113208Y252525D01*
X113229Y252506D01*
X113507Y252090D01*
X114148Y251662D01*
X114904Y251511D01*
X120529D01*
X121285Y251662D01*
X121926Y252090D01*
X122354Y252731D01*
X122505Y253487D01*
Y259112D01*
X122354Y259868D01*
X121926Y260509D01*
X121510Y260786D01*
X121491Y260807D01*
X121451Y260826D01*
X121285Y260937D01*
X121156Y260963D01*
X121130Y260975D01*
X120496Y261127D01*
X119893Y261324D01*
X119279Y261576D01*
X118653Y261884D01*
X118016Y262248D01*
X117368Y262671D01*
X116720Y263146D01*
X115358Y264301D01*
X115221Y264433D01*
X93193Y286461D01*
X92368Y287094D01*
X91406Y287493D01*
X90374Y287629D01*
X90374Y287629D01*
X21348D01*
X20699Y288126D01*
X19450Y288643D01*
X18110Y288820D01*
D02*
G37*
G36*
X99213Y259009D02*
X98104Y258863D01*
X97070Y258435D01*
X96183Y257754D01*
X95502Y256867D01*
X95074Y255833D01*
X94928Y254724D01*
X95074Y253615D01*
X95502Y252582D01*
X96183Y251695D01*
X97070Y251014D01*
X98104Y250586D01*
X99213Y250440D01*
X100322Y250586D01*
X101355Y251014D01*
X102242Y251695D01*
X102923Y252582D01*
X103351Y253615D01*
X103497Y254724D01*
X103351Y255833D01*
X102923Y256867D01*
X102242Y257754D01*
X101355Y258435D01*
X100322Y258863D01*
X99213Y259009D01*
D02*
G37*
G36*
X22232Y249413D02*
X22206Y249408D01*
X22180Y249412D01*
X22155Y249406D01*
X12976D01*
Y240227D01*
X12970Y240202D01*
X12974Y240176D01*
X12969Y240150D01*
X12976Y240112D01*
Y239138D01*
X13911D01*
X13936Y239131D01*
X14699Y239092D01*
X15416Y238982D01*
X16141Y238798D01*
X16876Y238536D01*
X17623Y238195D01*
X18381Y237773D01*
X19149Y237270D01*
X19927Y236682D01*
X20715Y236010D01*
X21099Y235644D01*
X30429Y226315D01*
X30429Y226315D01*
X31255Y225681D01*
X32216Y225283D01*
X33248Y225147D01*
X52905D01*
X53116Y224985D01*
X54272Y224506D01*
X55512Y224343D01*
X56752Y224506D01*
X57907Y224985D01*
X58899Y225746D01*
X59661Y226738D01*
X60140Y227894D01*
X60303Y229134D01*
X60140Y230374D01*
X59661Y231529D01*
X58899Y232522D01*
X57907Y233283D01*
X56752Y233762D01*
X55512Y233925D01*
X54272Y233762D01*
X53116Y233283D01*
X52905Y233121D01*
X34899D01*
X26737Y241283D01*
X26372Y241667D01*
X25700Y242455D01*
X25112Y243233D01*
X24608Y244001D01*
X24187Y244759D01*
X23846Y245505D01*
X23584Y246240D01*
X23399Y246966D01*
X23289Y247682D01*
X23250Y248446D01*
X23244Y248470D01*
Y249406D01*
X22270D01*
X22232Y249413D01*
D02*
G37*
G36*
X577969Y241449D02*
X567701D01*
Y231181D01*
X577969D01*
Y241449D01*
D02*
G37*
G36*
X477559Y282643D02*
X476398Y282529D01*
X475282Y282190D01*
X474253Y281640D01*
X473352Y280900D01*
X472612Y279999D01*
X472062Y278970D01*
X471723Y277854D01*
X471609Y276693D01*
Y270524D01*
X422368Y221283D01*
X421920Y221504D01*
X421940Y221654D01*
X421804Y222686D01*
X421406Y223647D01*
X420772Y224473D01*
X419946Y225106D01*
X418985Y225505D01*
X417953Y225641D01*
X416921Y225505D01*
X415959Y225106D01*
X415134Y224473D01*
X414500Y223647D01*
X414102Y222686D01*
X413966Y221654D01*
X414102Y220622D01*
X414500Y219660D01*
X415134Y218834D01*
X415959Y218201D01*
X416921Y217803D01*
X417953Y217667D01*
X418102Y217686D01*
X418324Y217238D01*
X413051Y211965D01*
X383810D01*
X382649Y211851D01*
X381533Y211512D01*
X380505Y210962D01*
X379603Y210222D01*
X373588Y204207D01*
X372848Y203306D01*
X372298Y202277D01*
X371960Y201161D01*
X371845Y200000D01*
Y199425D01*
X369325D01*
Y213866D01*
X373381Y217923D01*
X375582Y220124D01*
X393843D01*
Y217701D01*
X401748D01*
Y225606D01*
X393843D01*
Y223183D01*
X374949D01*
X374363Y223067D01*
X374329Y223044D01*
X373829Y223311D01*
Y224000D01*
X373713Y224585D01*
X373381Y225081D01*
X371181Y227281D01*
X370685Y227613D01*
X370100Y227729D01*
X353000D01*
X352415Y227613D01*
X351919Y227281D01*
X342652Y218014D01*
X342190Y218206D01*
Y219579D01*
X337902D01*
Y215291D01*
X339275D01*
X339466Y214829D01*
X307955Y183318D01*
X307904Y183283D01*
X307812Y183235D01*
X307690Y183185D01*
X307539Y183138D01*
X307356Y183096D01*
X307157Y183064D01*
X306620Y183022D01*
X306377Y183020D01*
X306300Y183030D01*
X305386Y182910D01*
X304535Y182557D01*
X303804Y181996D01*
X303243Y181265D01*
X302890Y180414D01*
X302770Y179500D01*
X302890Y178586D01*
X303243Y177735D01*
X303804Y177004D01*
X304535Y176443D01*
X305386Y176090D01*
X306300Y175970D01*
X307214Y176090D01*
X308065Y176443D01*
X308796Y177004D01*
X309357Y177735D01*
X309710Y178586D01*
X309830Y179500D01*
X309821Y179568D01*
X309838Y180113D01*
X309862Y180344D01*
X309896Y180556D01*
X309938Y180738D01*
X309985Y180890D01*
X310034Y181012D01*
X310083Y181104D01*
X310118Y181155D01*
X353633Y224671D01*
X364498D01*
X364744Y224171D01*
X364342Y223647D01*
X363944Y222686D01*
X363808Y221654D01*
X363822Y221547D01*
X363820Y221238D01*
X363773Y220547D01*
X363735Y220279D01*
X363685Y220038D01*
X363628Y219836D01*
X363567Y219675D01*
X363507Y219555D01*
X363458Y219480D01*
X321797Y177818D01*
X321741Y177773D01*
X321652Y177713D01*
X321562Y177662D01*
X321471Y177620D01*
X321376Y177585D01*
X321277Y177558D01*
X321171Y177537D01*
X321100Y177529D01*
X318000D01*
X317415Y177413D01*
X316919Y177081D01*
X303219Y163381D01*
X302887Y162885D01*
X302771Y162300D01*
Y141333D01*
X299366Y137929D01*
X294439D01*
X294193Y138429D01*
X294488Y138814D01*
X294867Y139728D01*
X294930Y140209D01*
X291207D01*
X287485D01*
X287548Y139728D01*
X287927Y138814D01*
X288222Y138429D01*
X288007Y137993D01*
X287514Y137949D01*
X256381Y169081D01*
X255885Y169413D01*
X255300Y169529D01*
X254570D01*
X254509Y169541D01*
X254410Y169572D01*
X254289Y169623D01*
X254148Y169697D01*
X253990Y169796D01*
X253826Y169914D01*
X253417Y170265D01*
X253244Y170434D01*
X253196Y170496D01*
X252465Y171057D01*
X251614Y171410D01*
X250700Y171530D01*
X249786Y171410D01*
X248935Y171057D01*
X248204Y170496D01*
X247643Y169765D01*
X247290Y168914D01*
X247170Y168000D01*
X247290Y167086D01*
X247643Y166235D01*
X247923Y165870D01*
X247716Y165428D01*
X247256Y165382D01*
X242456Y170181D01*
X241960Y170513D01*
X241374Y170629D01*
X216533D01*
X192474Y194689D01*
Y214184D01*
X192475Y214200D01*
X192507Y214332D01*
X192574Y214510D01*
X192681Y214730D01*
X192834Y214985D01*
X193032Y215271D01*
X193270Y215577D01*
X193909Y216295D01*
X194205Y216593D01*
X194333Y216691D01*
X195094Y217683D01*
X195572Y218839D01*
X195736Y220079D01*
X195572Y221319D01*
X195094Y222474D01*
X194333Y223466D01*
X193340Y224228D01*
X192185Y224707D01*
X190945Y224870D01*
X189705Y224707D01*
X188549Y224228D01*
X187557Y223466D01*
X186796Y222474D01*
X186317Y221319D01*
X186154Y220079D01*
X186317Y218839D01*
X186796Y217683D01*
X187557Y216691D01*
X187685Y216593D01*
X187980Y216295D01*
X188620Y215577D01*
X188858Y215271D01*
X189056Y214985D01*
X189208Y214730D01*
X189316Y214511D01*
X189383Y214332D01*
X189414Y214200D01*
X189415Y214184D01*
Y194055D01*
X189532Y193470D01*
X189863Y192974D01*
X214819Y168019D01*
X215315Y167687D01*
X215900Y167571D01*
X240741D01*
X245602Y162709D01*
X246098Y162378D01*
X246684Y162261D01*
X253776D01*
X271112Y144925D01*
X270891Y144476D01*
X270735Y144497D01*
X269755Y144368D01*
X268841Y143989D01*
X268056Y143387D01*
X267454Y142603D01*
X267076Y141689D01*
X267013Y141209D01*
X270735D01*
Y140709D01*
X271235D01*
Y136986D01*
X271715Y137049D01*
X272629Y137428D01*
X273414Y138030D01*
X274016Y138814D01*
X274394Y139728D01*
X274523Y140709D01*
X274503Y140865D01*
X274951Y141086D01*
X286266Y129771D01*
Y122329D01*
X286261Y122259D01*
X286259Y122248D01*
X285678Y121802D01*
X285545Y121629D01*
X285045D01*
X284912Y121802D01*
X284292Y122278D01*
X283570Y122577D01*
X282795Y122679D01*
X282020Y122577D01*
X281298Y122278D01*
X281212Y122212D01*
X280764Y122433D01*
Y122654D01*
X274827D01*
Y112780D01*
X280764D01*
Y113000D01*
X281212Y113221D01*
X281298Y113155D01*
X282020Y112856D01*
X282795Y112754D01*
X283570Y112856D01*
X284292Y113155D01*
X284912Y113631D01*
X285045Y113804D01*
X285545D01*
X285678Y113631D01*
X286254Y113189D01*
X286266Y113069D01*
Y109100D01*
X286382Y108515D01*
X286714Y108019D01*
X306414Y88319D01*
X306910Y87987D01*
X307495Y87871D01*
X362722D01*
X377273Y73320D01*
X377276Y73316D01*
X377343Y73209D01*
X377417Y73050D01*
X377491Y72837D01*
X377560Y72571D01*
X377619Y72255D01*
X377665Y71900D01*
X377718Y71010D01*
X377720Y70618D01*
X377701Y70472D01*
X377823Y69547D01*
X377349Y69314D01*
X370581Y76081D01*
X370085Y76413D01*
X369500Y76529D01*
X318700D01*
X318115Y76413D01*
X317619Y76081D01*
X301991Y60454D01*
X301529Y60646D01*
Y82913D01*
X301413Y83499D01*
X301081Y83995D01*
X291907Y93169D01*
X291864Y93234D01*
X291809Y93342D01*
X291753Y93485D01*
X291701Y93665D01*
X291654Y93881D01*
X291618Y94119D01*
X291574Y94744D01*
X291571Y95024D01*
X291583Y95118D01*
X291454Y96099D01*
X291076Y97012D01*
X290474Y97797D01*
X289689Y98399D01*
X288776Y98777D01*
X287795Y98906D01*
X286815Y98777D01*
X285901Y98399D01*
X285117Y97797D01*
X284514Y97012D01*
X284136Y96099D01*
X284007Y95118D01*
X284136Y94138D01*
X284514Y93224D01*
X285117Y92440D01*
X285901Y91837D01*
X286815Y91459D01*
X287795Y91330D01*
X287879Y91341D01*
X288508Y91323D01*
X288782Y91297D01*
X289032Y91259D01*
X289248Y91213D01*
X289428Y91160D01*
X289571Y91104D01*
X289680Y91049D01*
X289744Y91007D01*
X298471Y82280D01*
Y57342D01*
X298463Y57271D01*
X298443Y57165D01*
X298415Y57065D01*
X298380Y56971D01*
X298338Y56879D01*
X298287Y56790D01*
X298227Y56701D01*
X298182Y56645D01*
X276714Y35177D01*
X276382Y34681D01*
X276266Y34095D01*
Y32890D01*
X274827D01*
Y24832D01*
X274365Y24640D01*
X254224Y44781D01*
X253728Y45113D01*
X253142Y45229D01*
X241548D01*
X238144Y48634D01*
Y50833D01*
X238159Y50908D01*
X238196Y51024D01*
X238259Y51165D01*
X238348Y51329D01*
X238468Y51515D01*
X238611Y51709D01*
X239021Y52182D01*
X239218Y52382D01*
X239293Y52439D01*
X239895Y53224D01*
X240273Y54138D01*
X240403Y55118D01*
X240273Y56099D01*
X239895Y57012D01*
X239293Y57797D01*
X238508Y58399D01*
X237595Y58777D01*
X236614Y58907D01*
X235634Y58777D01*
X234720Y58399D01*
X233935Y57797D01*
X233333Y57012D01*
X232955Y56099D01*
X232826Y55118D01*
X232955Y54138D01*
X233333Y53224D01*
X233935Y52439D01*
X234002Y52388D01*
X234435Y51930D01*
X234610Y51718D01*
X234760Y51515D01*
X234880Y51329D01*
X234970Y51165D01*
X235032Y51024D01*
X235069Y50908D01*
X235085Y50833D01*
Y48000D01*
X235201Y47415D01*
X235533Y46919D01*
X239833Y42619D01*
X240329Y42287D01*
X240914Y42171D01*
X252509D01*
X272172Y22507D01*
X271981Y22045D01*
X247559D01*
X246819Y22785D01*
X246851Y23011D01*
X246915Y23086D01*
X247375Y23310D01*
X247900Y23092D01*
X248675Y22990D01*
X249449Y23092D01*
X250172Y23391D01*
X250792Y23867D01*
X250925Y24040D01*
X251425D01*
X251557Y23867D01*
X252178Y23391D01*
X252900Y23092D01*
X253675Y22990D01*
X254450Y23092D01*
X255172Y23391D01*
X255792Y23867D01*
X256268Y24487D01*
X256567Y25209D01*
X256669Y25984D01*
Y29921D01*
X256567Y30696D01*
X256268Y31418D01*
X255792Y32039D01*
X255172Y32514D01*
X254450Y32813D01*
X253675Y32915D01*
X252900Y32813D01*
X252178Y32514D01*
X251557Y32039D01*
X251425Y31865D01*
X250925D01*
X250792Y32039D01*
X250172Y32514D01*
X249449Y32813D01*
X248675Y32915D01*
X247900Y32813D01*
X247178Y32514D01*
X247092Y32448D01*
X246643Y32669D01*
Y32890D01*
X240706D01*
Y23016D01*
X242372D01*
X242593Y22685D01*
X245844Y19434D01*
X246340Y19103D01*
X246925Y18986D01*
X291338D01*
X291924Y19103D01*
X292420Y19434D01*
X293897Y20912D01*
X367680D01*
X367767Y20893D01*
X367895Y20850D01*
X368051Y20779D01*
X368234Y20677D01*
X368440Y20542D01*
X368656Y20380D01*
X369179Y19924D01*
X369399Y19707D01*
X369464Y19622D01*
X370290Y18988D01*
X371252Y18590D01*
X372283Y18454D01*
X373315Y18590D01*
X374277Y18988D01*
X375102Y19622D01*
X375736Y20448D01*
X376134Y21409D01*
X376270Y22441D01*
X376134Y23473D01*
X375736Y24434D01*
X375102Y25260D01*
X374277Y25894D01*
X373315Y26292D01*
X372283Y26428D01*
X371252Y26292D01*
X370290Y25894D01*
X369464Y25260D01*
X369399Y25175D01*
X369179Y24958D01*
X368656Y24502D01*
X368440Y24340D01*
X368234Y24205D01*
X368051Y24103D01*
X367895Y24032D01*
X367767Y23989D01*
X367680Y23970D01*
X293264D01*
X292678Y23854D01*
X292182Y23522D01*
X290705Y22045D01*
X283056D01*
X282865Y22507D01*
X283188Y22830D01*
X283367Y22980D01*
X283431Y23028D01*
X283486Y23064D01*
X283515Y23080D01*
X283516Y23080D01*
X283531Y23087D01*
X283570Y23092D01*
X283802Y23188D01*
X283806Y23189D01*
X283806Y23190D01*
X284292Y23391D01*
X284912Y23867D01*
X285045Y24040D01*
X285545D01*
X285678Y23867D01*
X286298Y23391D01*
X287020Y23092D01*
X287795Y22990D01*
X288570Y23092D01*
X289292Y23391D01*
X289912Y23867D01*
X290388Y24487D01*
X290687Y25209D01*
X290789Y25984D01*
Y29921D01*
X290687Y30696D01*
X290388Y31418D01*
X290308Y31522D01*
X290530Y31971D01*
X304366D01*
X304952Y32087D01*
X305448Y32419D01*
X339165Y66136D01*
X339240Y66185D01*
X339360Y66244D01*
X339521Y66305D01*
X339723Y66362D01*
X339964Y66412D01*
X340231Y66450D01*
X340923Y66497D01*
X341232Y66500D01*
X341339Y66486D01*
X342371Y66621D01*
X343332Y67020D01*
X344158Y67653D01*
X344791Y68479D01*
X345190Y69441D01*
X345325Y70472D01*
X345190Y71504D01*
X344791Y72466D01*
X344404Y72971D01*
X344651Y73471D01*
X368866D01*
X376071Y66267D01*
Y49425D01*
X368134D01*
Y41126D01*
X376071D01*
Y36000D01*
X376187Y35415D01*
X376519Y34919D01*
X378819Y32619D01*
X379315Y32287D01*
X379900Y32171D01*
X406377D01*
X406962Y32287D01*
X407459Y32619D01*
X415717Y40877D01*
X415877Y41026D01*
X415998Y41122D01*
X416003Y41126D01*
X416191D01*
X416229Y41118D01*
X416268Y41126D01*
X419638D01*
X419676Y41118D01*
X419714Y41126D01*
X419901D01*
X420150Y40915D01*
X422547Y38519D01*
X423043Y38187D01*
X423628Y38071D01*
X430160D01*
X443755Y24476D01*
X443903Y24316D01*
X444000Y24196D01*
Y18488D01*
X451906D01*
Y26394D01*
X446200D01*
X445956Y26601D01*
X431875Y40681D01*
X431379Y41013D01*
X430794Y41129D01*
X430093D01*
X429993Y41629D01*
X430046Y41651D01*
X430912Y42316D01*
X431577Y43183D01*
X431996Y44192D01*
X432138Y45276D01*
X431996Y46359D01*
X431940Y46494D01*
Y51088D01*
X433951Y53100D01*
X443520D01*
X443520Y53100D01*
X444552Y53236D01*
X445513Y53634D01*
X446339Y54268D01*
X523578Y131507D01*
X524244Y132143D01*
X524491Y132354D01*
X525646Y132506D01*
X526966Y133053D01*
X528100Y133923D01*
X528971Y135057D01*
X529518Y136378D01*
X529704Y137795D01*
X529518Y139213D01*
X528971Y140533D01*
X528100Y141667D01*
X526966Y142537D01*
X525646Y143085D01*
X524228Y143271D01*
X522811Y143085D01*
X521490Y142537D01*
X520356Y141667D01*
X519486Y140533D01*
X518939Y139213D01*
X518801Y138166D01*
X517371Y136576D01*
X441868Y61073D01*
X432300D01*
X432300Y61073D01*
X431268Y60938D01*
X430307Y60539D01*
X429481Y59906D01*
X425134Y55559D01*
X424500Y54733D01*
X424102Y53771D01*
X423966Y52739D01*
X423966Y52739D01*
Y46494D01*
X423910Y46359D01*
X423767Y45276D01*
X423910Y44192D01*
X424328Y43183D01*
X424993Y42316D01*
X425860Y41651D01*
X425912Y41629D01*
X425813Y41129D01*
X424262D01*
X422352Y43040D01*
X422202Y43200D01*
X422106Y43321D01*
X422102Y43326D01*
Y43514D01*
X422110Y43552D01*
X422102Y43590D01*
Y49425D01*
X415263D01*
X414824Y49925D01*
X414887Y50400D01*
X414887Y50400D01*
Y69485D01*
X476909Y131507D01*
X477575Y132143D01*
X477822Y132354D01*
X478976Y132506D01*
X480297Y133053D01*
X481431Y133923D01*
X482301Y135057D01*
X482848Y136378D01*
X483035Y137795D01*
X482848Y139213D01*
X482301Y140533D01*
X481431Y141667D01*
X480297Y142537D01*
X478976Y143085D01*
X477559Y143271D01*
X476142Y143085D01*
X474821Y142537D01*
X473687Y141667D01*
X472817Y140533D01*
X472270Y139213D01*
X472132Y138166D01*
X470702Y136576D01*
X408081Y73955D01*
X407447Y73130D01*
X407049Y72168D01*
X406913Y71136D01*
X406913Y71136D01*
Y52051D01*
X397022Y42160D01*
X395754D01*
X395507Y42660D01*
X395908Y43183D01*
X396326Y44192D01*
X396469Y45276D01*
X396326Y46359D01*
X396270Y46494D01*
Y104016D01*
X396270Y104017D01*
X396134Y105049D01*
X395736Y106010D01*
X395103Y106836D01*
X395103Y106836D01*
X361719Y140219D01*
X360893Y140853D01*
X359932Y141251D01*
X358900Y141387D01*
X358900Y141387D01*
X327794D01*
X327794Y141387D01*
X326762Y141251D01*
X325800Y140853D01*
X324975Y140219D01*
X324975Y140219D01*
X318047Y133291D01*
X317413Y132466D01*
X317015Y131504D01*
X316879Y130472D01*
X317015Y129440D01*
X317413Y128479D01*
X318047Y127653D01*
X318873Y127020D01*
X319834Y126621D01*
X320866Y126486D01*
X321898Y126621D01*
X322860Y127020D01*
X323685Y127653D01*
X329445Y133413D01*
X337983D01*
X338229Y132913D01*
X337886Y132466D01*
X337488Y131504D01*
X337352Y130472D01*
X337488Y129440D01*
X337886Y128479D01*
X338520Y127653D01*
X339345Y127020D01*
X340307Y126621D01*
X341339Y126486D01*
X342371Y126621D01*
X343332Y127020D01*
X344158Y127653D01*
X344791Y128479D01*
X345190Y129440D01*
X345325Y130472D01*
X345190Y131504D01*
X344791Y132466D01*
X344448Y132913D01*
X344695Y133413D01*
X357249D01*
X388297Y102365D01*
Y46494D01*
X388241Y46359D01*
X388098Y45276D01*
X388241Y44192D01*
X388659Y43183D01*
X389060Y42660D01*
X388813Y42160D01*
X386270D01*
Y44057D01*
X386326Y44192D01*
X386469Y45276D01*
X386326Y46359D01*
X385908Y47368D01*
X385243Y48235D01*
X384376Y48900D01*
X383367Y49318D01*
X382283Y49461D01*
X381200Y49318D01*
X380191Y48900D01*
X379629Y48470D01*
X379129Y48716D01*
Y66536D01*
X379629Y66782D01*
X379992Y66504D01*
X381097Y66046D01*
X382283Y65890D01*
X383469Y66046D01*
X384575Y66504D01*
X385524Y67232D01*
X386252Y68181D01*
X386710Y69286D01*
X386866Y70472D01*
X386710Y71658D01*
X386252Y72764D01*
X385524Y73713D01*
X384575Y74441D01*
X383469Y74899D01*
X382283Y75055D01*
X382138Y75036D01*
X381746Y75038D01*
X380856Y75091D01*
X380501Y75137D01*
X380185Y75196D01*
X379919Y75265D01*
X379706Y75339D01*
X379546Y75413D01*
X379440Y75480D01*
X379435Y75483D01*
X364437Y90481D01*
X363941Y90813D01*
X363356Y90929D01*
X308129D01*
X289325Y109733D01*
Y113104D01*
X289330Y113175D01*
X289331Y113185D01*
X289912Y113631D01*
X290388Y114251D01*
X290687Y114973D01*
X290789Y115748D01*
Y119685D01*
X290687Y120460D01*
X290388Y121182D01*
X289912Y121802D01*
X289337Y122244D01*
X289325Y122364D01*
Y130405D01*
X289208Y130990D01*
X288877Y131486D01*
X255491Y164872D01*
X254995Y165204D01*
X254409Y165320D01*
X253715D01*
X253517Y165820D01*
X253636Y165932D01*
X253815Y166078D01*
X253990Y166204D01*
X254148Y166303D01*
X254289Y166377D01*
X254410Y166428D01*
X254509Y166459D01*
X254570Y166471D01*
X254666D01*
X285819Y135319D01*
X286315Y134987D01*
X286900Y134871D01*
X300000D01*
X300585Y134987D01*
X301081Y135319D01*
X305381Y139619D01*
X305713Y140115D01*
X305829Y140700D01*
Y161667D01*
X313971Y169808D01*
X314471Y169601D01*
Y163629D01*
X314587Y163044D01*
X314919Y162548D01*
X315548Y161919D01*
X316044Y161587D01*
X316629Y161471D01*
X364575D01*
X365160Y161587D01*
X365656Y161919D01*
X379435Y175698D01*
X379440Y175701D01*
X379546Y175768D01*
X379706Y175842D01*
X379919Y175916D01*
X380185Y175985D01*
X380501Y176044D01*
X380856Y176090D01*
X381746Y176143D01*
X382138Y176145D01*
X382283Y176126D01*
X383469Y176282D01*
X384575Y176740D01*
X385524Y177468D01*
X386252Y178417D01*
X386710Y179523D01*
X386866Y180709D01*
X386710Y181895D01*
X386252Y183000D01*
X385524Y183949D01*
X384575Y184677D01*
X384218Y184825D01*
X384318Y185325D01*
X409531D01*
X410117Y185441D01*
X410613Y185773D01*
X415717Y190877D01*
X415877Y191026D01*
X415998Y191122D01*
X416003Y191126D01*
X416191D01*
X416229Y191118D01*
X416268Y191126D01*
X422102D01*
Y199425D01*
X413803D01*
Y193590D01*
X413796Y193552D01*
X413803Y193514D01*
Y193327D01*
X413592Y193078D01*
X408898Y188384D01*
X383719D01*
X383528Y188846D01*
X385397Y190714D01*
X385483Y190770D01*
X385616Y190834D01*
X385794Y190899D01*
X386017Y190960D01*
X386284Y191014D01*
X386581Y191055D01*
X387339Y191104D01*
X387675Y191106D01*
X387795Y191090D01*
X388878Y191233D01*
X389888Y191651D01*
X390755Y192316D01*
X391420Y193183D01*
X391838Y194192D01*
X391981Y195276D01*
X391838Y196359D01*
X391420Y197368D01*
X390755Y198235D01*
X389888Y198900D01*
X388878Y199318D01*
X387795Y199461D01*
X386712Y199318D01*
X385898Y198981D01*
X385615Y199405D01*
X386275Y200065D01*
X415515D01*
X416676Y200179D01*
X417792Y200518D01*
X418821Y201068D01*
X419722Y201808D01*
X443500Y225586D01*
X444000Y225378D01*
X444000Y225201D01*
Y217701D01*
X451906D01*
Y225606D01*
X444425D01*
X444228Y225606D01*
X444021Y226106D01*
X481766Y263852D01*
X482506Y264753D01*
X483056Y265782D01*
X483395Y266898D01*
X483509Y268059D01*
Y276693D01*
X483395Y277854D01*
X483056Y278970D01*
X482506Y279999D01*
X481766Y280900D01*
X480865Y281640D01*
X479836Y282190D01*
X478720Y282529D01*
X477559Y282643D01*
D02*
G37*
G36*
X340214Y224867D02*
X337902D01*
Y220579D01*
X342190D01*
Y222891D01*
X342039Y223647D01*
X341611Y224288D01*
X340970Y224716D01*
X340214Y224867D01*
D02*
G37*
G36*
X174072D02*
X171760D01*
Y220579D01*
X176048D01*
Y222891D01*
X175897Y223647D01*
X175469Y224288D01*
X174828Y224716D01*
X174072Y224867D01*
D02*
G37*
G36*
X170760D02*
X168447D01*
X167691Y224716D01*
X167050Y224288D01*
X166622Y223647D01*
X166472Y222891D01*
Y220579D01*
X170760D01*
Y224867D01*
D02*
G37*
G36*
X336902D02*
X334589D01*
X333833Y224716D01*
X333192Y224288D01*
X332764Y223647D01*
X332614Y222891D01*
Y220579D01*
X336902D01*
Y224867D01*
D02*
G37*
G36*
X573335Y221742D02*
Y217130D01*
X577947D01*
X577836Y217970D01*
X577319Y219219D01*
X576496Y220291D01*
X575424Y221114D01*
X574175Y221632D01*
X573335Y221742D01*
D02*
G37*
G36*
X572335Y221742D02*
X571494Y221632D01*
X570246Y221114D01*
X569173Y220291D01*
X568350Y219219D01*
X567833Y217970D01*
X567722Y217130D01*
X572335D01*
Y221742D01*
D02*
G37*
G36*
X336902Y219579D02*
X332614D01*
Y217266D01*
X332764Y216510D01*
X333192Y215869D01*
X333833Y215441D01*
X334589Y215291D01*
X336902D01*
Y219579D01*
D02*
G37*
G36*
X176048D02*
X171760D01*
Y215291D01*
X174072D01*
X174828Y215441D01*
X175469Y215869D01*
X175897Y216510D01*
X176048Y217266D01*
Y219579D01*
D02*
G37*
G36*
X170760D02*
X166472D01*
Y217266D01*
X166622Y216510D01*
X167050Y215869D01*
X167691Y215441D01*
X168447Y215291D01*
X170760D01*
Y219579D01*
D02*
G37*
G36*
X317717Y224870D02*
X316477Y224707D01*
X315321Y224228D01*
X314329Y223466D01*
X313567Y222474D01*
X313089Y221319D01*
X312926Y220079D01*
X313089Y218839D01*
X313567Y217683D01*
X314329Y216691D01*
X315321Y215930D01*
X316477Y215451D01*
X317717Y215288D01*
X318957Y215451D01*
X320112Y215930D01*
X321104Y216691D01*
X321866Y217683D01*
X322344Y218839D01*
X322508Y220079D01*
X322344Y221319D01*
X321866Y222474D01*
X321104Y223466D01*
X320112Y224228D01*
X318957Y224707D01*
X317717Y224870D01*
D02*
G37*
G36*
X572335Y216130D02*
X567722D01*
X567833Y215290D01*
X568350Y214041D01*
X569173Y212968D01*
X570246Y212146D01*
X571494Y211628D01*
X572335Y211518D01*
Y216130D01*
D02*
G37*
G36*
X577947D02*
X573335D01*
Y211518D01*
X574175Y211628D01*
X575424Y212146D01*
X576496Y212968D01*
X577319Y214041D01*
X577836Y215290D01*
X577947Y216130D01*
D02*
G37*
G36*
X313200Y215130D02*
X312286Y215010D01*
X311435Y214657D01*
X310704Y214096D01*
X310662Y214042D01*
X310264Y213668D01*
X310085Y213522D01*
X309910Y213396D01*
X309752Y213297D01*
X309611Y213223D01*
X309490Y213172D01*
X309390Y213141D01*
X309331Y213129D01*
X264487D01*
X263902Y213013D01*
X263406Y212681D01*
X235544Y184820D01*
X235480Y184778D01*
X235372Y184723D01*
X235229Y184667D01*
X235049Y184614D01*
X234833Y184567D01*
X234595Y184532D01*
X233970Y184487D01*
X233690Y184485D01*
X233596Y184497D01*
X232615Y184368D01*
X231702Y183989D01*
X230917Y183387D01*
X230315Y182603D01*
X229937Y181689D01*
X229807Y180709D01*
X229937Y179728D01*
X230315Y178814D01*
X230917Y178030D01*
X231702Y177428D01*
X232615Y177049D01*
X233596Y176920D01*
X234576Y177049D01*
X235490Y177428D01*
X236275Y178030D01*
X236877Y178814D01*
X237255Y179728D01*
X237384Y180709D01*
X237373Y180792D01*
X237391Y181422D01*
X237417Y181695D01*
X237455Y181946D01*
X237501Y182161D01*
X237554Y182341D01*
X237610Y182485D01*
X237665Y182593D01*
X237707Y182657D01*
X265121Y210071D01*
X309331D01*
X309390Y210059D01*
X309490Y210028D01*
X309611Y209977D01*
X309752Y209903D01*
X309910Y209804D01*
X310074Y209686D01*
X310483Y209335D01*
X310656Y209166D01*
X310704Y209104D01*
X311435Y208543D01*
X312286Y208190D01*
X313200Y208070D01*
X314114Y208190D01*
X314965Y208543D01*
X315696Y209104D01*
X316257Y209835D01*
X316610Y210686D01*
X316730Y211600D01*
X316610Y212514D01*
X316257Y213365D01*
X315696Y214096D01*
X314965Y214657D01*
X314114Y215010D01*
X313200Y215130D01*
D02*
G37*
G36*
X120529Y214237D02*
X114904D01*
X114148Y214086D01*
X113507Y213658D01*
X113079Y213017D01*
X112929Y212261D01*
Y206636D01*
X113079Y205880D01*
X113507Y205239D01*
X114148Y204811D01*
X114904Y204661D01*
X120529D01*
X121285Y204811D01*
X121926Y205239D01*
X122354Y205880D01*
X122505Y206636D01*
Y212261D01*
X122354Y213017D01*
X121926Y213658D01*
X121285Y214086D01*
X120529Y214237D01*
D02*
G37*
G36*
X524228Y282643D02*
X523068Y282528D01*
X521951Y282190D01*
X520923Y281640D01*
X520021Y280900D01*
X453732Y214611D01*
X438510D01*
X437349Y214497D01*
X436233Y214158D01*
X435205Y213609D01*
X434303Y212869D01*
X433563Y211967D01*
X433013Y210938D01*
X432675Y209822D01*
X432612Y209182D01*
X424743Y201313D01*
X424022Y200373D01*
X423569Y199279D01*
X423414Y198104D01*
Y195276D01*
X423569Y194101D01*
X424022Y193006D01*
X424743Y192066D01*
X425683Y191345D01*
X426778Y190891D01*
X427953Y190737D01*
X429128Y190891D01*
X430222Y191345D01*
X431162Y192066D01*
X431883Y193006D01*
X432337Y194101D01*
X432492Y195276D01*
Y196224D01*
X433928Y197661D01*
X434328Y197368D01*
X433910Y196359D01*
X433767Y195276D01*
X433910Y194192D01*
X434328Y193183D01*
X434993Y192316D01*
X435860Y191651D01*
X436869Y191233D01*
X437953Y191090D01*
X439036Y191233D01*
X440045Y191651D01*
X440912Y192316D01*
X441577Y193183D01*
X441996Y194192D01*
X442138Y195276D01*
X441996Y196359D01*
X441577Y197368D01*
X440912Y198235D01*
X440045Y198900D01*
X439036Y199318D01*
X437953Y199461D01*
X436869Y199318D01*
X435860Y198900D01*
X435568Y199300D01*
X438979Y202712D01*
X456197D01*
X457358Y202826D01*
X458474Y203164D01*
X459503Y203714D01*
X460404Y204454D01*
X528436Y272486D01*
X529176Y273387D01*
X529725Y274416D01*
X530064Y275532D01*
X530178Y276693D01*
X530064Y277854D01*
X529725Y278970D01*
X529176Y279998D01*
X528436Y280900D01*
X527534Y281640D01*
X526505Y282190D01*
X525389Y282528D01*
X524228Y282643D01*
D02*
G37*
G36*
X577969Y201071D02*
X567701D01*
Y190803D01*
X577969D01*
Y201071D01*
D02*
G37*
G36*
X524228Y199492D02*
X522811Y199305D01*
X521490Y198758D01*
X520356Y197888D01*
X519486Y196754D01*
X518939Y195433D01*
X518752Y194016D01*
X518939Y192598D01*
X519486Y191278D01*
X520356Y190144D01*
X521490Y189274D01*
X522811Y188726D01*
X524228Y188540D01*
X525646Y188726D01*
X526966Y189274D01*
X528100Y190144D01*
X528971Y191278D01*
X529518Y192598D01*
X529704Y194016D01*
X529518Y195433D01*
X528971Y196754D01*
X528100Y197888D01*
X526966Y198758D01*
X525646Y199305D01*
X524228Y199492D01*
D02*
G37*
G36*
X477559D02*
X476142Y199305D01*
X474821Y198758D01*
X473687Y197888D01*
X472817Y196754D01*
X472270Y195433D01*
X472083Y194016D01*
X472270Y192598D01*
X472817Y191278D01*
X473687Y190144D01*
X474821Y189274D01*
X476142Y188726D01*
X477559Y188540D01*
X478976Y188726D01*
X480297Y189274D01*
X481431Y190144D01*
X482301Y191278D01*
X482848Y192598D01*
X483035Y194016D01*
X482848Y195433D01*
X482301Y196754D01*
X481431Y197888D01*
X480297Y198758D01*
X478976Y199305D01*
X477559Y199492D01*
D02*
G37*
G36*
X291207Y184497D02*
X290227Y184368D01*
X289313Y183989D01*
X288529Y183387D01*
X287927Y182603D01*
X287548Y181689D01*
X287419Y180709D01*
X287548Y179728D01*
X287927Y178814D01*
X288529Y178030D01*
X289313Y177428D01*
X290227Y177049D01*
X291207Y176920D01*
X292188Y177049D01*
X293102Y177428D01*
X293886Y178030D01*
X294488Y178814D01*
X294867Y179728D01*
X294996Y180709D01*
X294867Y181689D01*
X294488Y182603D01*
X293886Y183387D01*
X293102Y183989D01*
X292188Y184368D01*
X291207Y184497D01*
D02*
G37*
G36*
X270735D02*
X269755Y184368D01*
X268841Y183989D01*
X268056Y183387D01*
X267454Y182603D01*
X267076Y181689D01*
X266947Y180709D01*
X267076Y179728D01*
X267454Y178814D01*
X268056Y178030D01*
X268841Y177428D01*
X269755Y177049D01*
X270735Y176920D01*
X271715Y177049D01*
X272629Y177428D01*
X273414Y178030D01*
X274016Y178814D01*
X274394Y179728D01*
X274523Y180709D01*
X274394Y181689D01*
X274016Y182603D01*
X273414Y183387D01*
X272629Y183989D01*
X271715Y184368D01*
X270735Y184497D01*
D02*
G37*
G36*
X250656D02*
X249676Y184368D01*
X248762Y183989D01*
X247977Y183387D01*
X247375Y182603D01*
X246997Y181689D01*
X246868Y180709D01*
X246997Y179728D01*
X247375Y178814D01*
X247977Y178030D01*
X248762Y177428D01*
X249676Y177049D01*
X250656Y176920D01*
X251637Y177049D01*
X252550Y177428D01*
X253335Y178030D01*
X253937Y178814D01*
X254315Y179728D01*
X254445Y180709D01*
X254315Y181689D01*
X253937Y182603D01*
X253335Y183387D01*
X252550Y183989D01*
X251637Y184368D01*
X250656Y184497D01*
D02*
G37*
G36*
X573335Y181364D02*
Y176752D01*
X577947D01*
X577836Y177592D01*
X577319Y178841D01*
X576496Y179913D01*
X575424Y180736D01*
X574175Y181254D01*
X573335Y181364D01*
D02*
G37*
G36*
X572335Y181364D02*
X571494Y181254D01*
X570246Y180736D01*
X569173Y179913D01*
X568350Y178841D01*
X567833Y177592D01*
X567722Y176752D01*
X572335D01*
Y181364D01*
D02*
G37*
G36*
X427953Y185291D02*
X426767Y185135D01*
X425662Y184677D01*
X424713Y183949D01*
X423984Y183000D01*
X423526Y181895D01*
X423370Y180709D01*
X423526Y179523D01*
X423984Y178417D01*
X424713Y177468D01*
X425662Y176740D01*
X426767Y176282D01*
X427953Y176126D01*
X429139Y176282D01*
X430244Y176740D01*
X431193Y177468D01*
X431921Y178417D01*
X432379Y179523D01*
X432535Y180709D01*
X432379Y181895D01*
X431921Y183000D01*
X431193Y183949D01*
X430244Y184677D01*
X429139Y185135D01*
X427953Y185291D01*
D02*
G37*
G36*
X572335Y175752D02*
X567722D01*
X567833Y174912D01*
X568350Y173663D01*
X569173Y172590D01*
X570246Y171768D01*
X571494Y171250D01*
X572335Y171140D01*
Y175752D01*
D02*
G37*
G36*
X577947D02*
X573335D01*
Y171140D01*
X574175Y171250D01*
X575424Y171768D01*
X576496Y172590D01*
X577319Y173663D01*
X577836Y174912D01*
X577947Y175752D01*
D02*
G37*
G36*
X478059Y170669D02*
Y164280D01*
X484449D01*
X484365Y165133D01*
X483970Y166435D01*
X483328Y167635D01*
X482466Y168686D01*
X481414Y169549D01*
X480214Y170190D01*
X478913Y170585D01*
X478059Y170669D01*
D02*
G37*
G36*
X477059D02*
X476205Y170585D01*
X474904Y170190D01*
X473704Y169549D01*
X472652Y168686D01*
X471790Y167635D01*
X471148Y166435D01*
X470753Y165133D01*
X470669Y164280D01*
X477059D01*
Y170669D01*
D02*
G37*
G36*
X484449Y163280D02*
X478059D01*
Y156890D01*
X478913Y156974D01*
X480214Y157369D01*
X481414Y158010D01*
X482466Y158873D01*
X483328Y159924D01*
X483970Y161124D01*
X484365Y162426D01*
X484449Y163280D01*
D02*
G37*
G36*
X477059D02*
X470669D01*
X470753Y162426D01*
X471148Y161124D01*
X471790Y159924D01*
X472652Y158873D01*
X473704Y158010D01*
X474904Y157369D01*
X476205Y156974D01*
X477059Y156890D01*
Y163280D01*
D02*
G37*
G36*
X577969Y160693D02*
X567701D01*
Y150425D01*
X577969D01*
Y160693D01*
D02*
G37*
G36*
X291848Y144413D02*
X291936Y144211D01*
X292065Y143976D01*
X292222Y143732D01*
X292408Y143481D01*
X292622Y143221D01*
X293137Y142677D01*
X291707D01*
Y141209D01*
X294930D01*
X294867Y141689D01*
X294488Y142603D01*
X293886Y143387D01*
X293102Y143989D01*
X292188Y144368D01*
X291848Y144413D01*
D02*
G37*
G36*
X290567D02*
X290227Y144368D01*
X289313Y143989D01*
X288529Y143387D01*
X287927Y142603D01*
X287548Y141689D01*
X287485Y141209D01*
X290707D01*
Y142677D01*
X289278D01*
X289550Y142953D01*
X290007Y143481D01*
X290193Y143732D01*
X290350Y143976D01*
X290479Y144211D01*
X290567Y144413D01*
D02*
G37*
G36*
X267966Y140209D02*
X267013D01*
X267076Y139728D01*
X267454Y138814D01*
X267663Y138542D01*
X267743Y138747D01*
X267818Y139004D01*
X267880Y139288D01*
X267926Y139597D01*
X267958Y139933D01*
X267966Y140209D01*
D02*
G37*
G36*
X270235D02*
X268452D01*
X270235Y138425D01*
Y140209D01*
D02*
G37*
G36*
Y137943D02*
X269624Y137900D01*
X269314Y137853D01*
X269031Y137792D01*
X268773Y137716D01*
X268568Y137637D01*
X268841Y137428D01*
X269755Y137049D01*
X270235Y136986D01*
Y137943D01*
D02*
G37*
G36*
X250656Y144497D02*
X249676Y144368D01*
X248762Y143989D01*
X247977Y143387D01*
X247375Y142603D01*
X246997Y141689D01*
X246868Y140709D01*
X246997Y139728D01*
X247375Y138814D01*
X247977Y138030D01*
X248762Y137428D01*
X249676Y137049D01*
X250656Y136920D01*
X251637Y137049D01*
X252550Y137428D01*
X253335Y138030D01*
X253937Y138814D01*
X254315Y139728D01*
X254445Y140709D01*
X254315Y141689D01*
X253937Y142603D01*
X253335Y143387D01*
X252550Y143989D01*
X251637Y144368D01*
X250656Y144497D01*
D02*
G37*
G36*
X233596D02*
X232615Y144368D01*
X231702Y143989D01*
X230917Y143387D01*
X230315Y142603D01*
X229937Y141689D01*
X229807Y140709D01*
X229937Y139728D01*
X230315Y138814D01*
X230917Y138030D01*
X231702Y137428D01*
X232615Y137049D01*
X233596Y136920D01*
X234576Y137049D01*
X235490Y137428D01*
X236275Y138030D01*
X236877Y138814D01*
X237255Y139728D01*
X237384Y140709D01*
X237255Y141689D01*
X236877Y142603D01*
X236275Y143387D01*
X235490Y143989D01*
X234576Y144368D01*
X233596Y144497D01*
D02*
G37*
G36*
X573335Y140986D02*
Y136374D01*
X577947D01*
X577836Y137214D01*
X577319Y138463D01*
X576496Y139535D01*
X575424Y140358D01*
X574175Y140876D01*
X573335Y140986D01*
D02*
G37*
G36*
X572335Y140986D02*
X571494Y140876D01*
X570246Y140358D01*
X569173Y139535D01*
X568350Y138463D01*
X567833Y137214D01*
X567722Y136374D01*
X572335D01*
Y140986D01*
D02*
G37*
G36*
Y135374D02*
X567722D01*
X567833Y134534D01*
X568350Y133285D01*
X569173Y132212D01*
X570246Y131390D01*
X571494Y130872D01*
X572335Y130762D01*
Y135374D01*
D02*
G37*
G36*
X577947D02*
X573335D01*
Y130762D01*
X574175Y130872D01*
X575424Y131390D01*
X576496Y132212D01*
X577319Y133285D01*
X577836Y134534D01*
X577947Y135374D01*
D02*
G37*
G36*
X253675Y122679D02*
X252900Y122577D01*
X252178Y122278D01*
X251557Y121802D01*
X251425Y121629D01*
X250925D01*
X250792Y121802D01*
X250172Y122278D01*
X249449Y122577D01*
X248675Y122679D01*
X247900Y122577D01*
X247178Y122278D01*
X247092Y122212D01*
X246643Y122433D01*
Y122654D01*
X240706D01*
Y112780D01*
X246643D01*
Y113000D01*
X247092Y113221D01*
X247178Y113155D01*
X247900Y112856D01*
X248675Y112754D01*
X249449Y112856D01*
X250172Y113155D01*
X250792Y113631D01*
X250925Y113804D01*
X251425D01*
X251557Y113631D01*
X252178Y113155D01*
X252900Y112856D01*
X253675Y112754D01*
X254450Y112856D01*
X255172Y113155D01*
X255792Y113631D01*
X256268Y114251D01*
X256567Y114973D01*
X256669Y115748D01*
Y119685D01*
X256567Y120460D01*
X256268Y121182D01*
X255792Y121802D01*
X255172Y122278D01*
X254450Y122577D01*
X253675Y122679D01*
D02*
G37*
G36*
X577969Y120315D02*
X567701D01*
Y110047D01*
X577969D01*
Y120315D01*
D02*
G37*
G36*
X153059Y112192D02*
Y108374D01*
X156877D01*
X156794Y109009D01*
X156356Y110066D01*
X155659Y110974D01*
X154751Y111671D01*
X153694Y112109D01*
X153059Y112192D01*
D02*
G37*
G36*
X152059D02*
X151424Y112109D01*
X150367Y111671D01*
X149459Y110974D01*
X148762Y110066D01*
X148324Y109009D01*
X148241Y108374D01*
X152059D01*
Y112192D01*
D02*
G37*
G36*
X47063Y112221D02*
X43217D01*
Y108374D01*
X47063D01*
Y112221D01*
D02*
G37*
G36*
X42217D02*
X38370D01*
Y108374D01*
X42217D01*
Y112221D01*
D02*
G37*
G36*
X156877Y107374D02*
X155908D01*
X155908Y107342D01*
X155964Y106453D01*
X155974Y106371D01*
X156862Y107259D01*
X156877Y107374D01*
D02*
G37*
G36*
X155439D02*
X153059D01*
Y104994D01*
X155439Y107374D01*
D02*
G37*
G36*
X153059Y104525D02*
Y103556D01*
X153174Y103571D01*
X154062Y104459D01*
X153980Y104470D01*
X153091Y104525D01*
X153059Y104525D01*
D02*
G37*
G36*
X152059Y107374D02*
X148241D01*
X148324Y106739D01*
X148762Y105682D01*
X149459Y104774D01*
X150367Y104077D01*
X151424Y103639D01*
X152059Y103556D01*
Y107374D01*
D02*
G37*
G36*
X47063D02*
X43217D01*
Y103527D01*
X47063D01*
Y107374D01*
D02*
G37*
G36*
X42217D02*
X38370D01*
Y103527D01*
X42217D01*
Y107374D01*
D02*
G37*
G36*
X58324Y214237D02*
X52699D01*
X51943Y214086D01*
X51302Y213658D01*
X50874Y213017D01*
X50724Y212261D01*
Y206636D01*
X50813Y206186D01*
X50813Y206178D01*
X50820Y206154D01*
X50874Y205880D01*
X50925Y205805D01*
X50927Y205797D01*
X51032Y205600D01*
X51115Y205368D01*
X51204Y205016D01*
X51282Y204590D01*
X51525Y200921D01*
Y175394D01*
X51525Y175394D01*
X51661Y174362D01*
X52059Y173400D01*
X52693Y172574D01*
X115448Y109819D01*
X115563Y109700D01*
X116859Y108211D01*
X117363Y107545D01*
X117788Y106913D01*
X118125Y106329D01*
X118378Y105796D01*
X118550Y105318D01*
X118645Y104900D01*
X118681Y104457D01*
X118685Y104442D01*
Y103527D01*
X119659D01*
X119697Y103520D01*
X119735Y103527D01*
X119743D01*
X119779Y103523D01*
X119794Y103527D01*
X127378D01*
Y111111D01*
X127382Y111126D01*
X127378Y111163D01*
Y111170D01*
X127385Y111208D01*
X127378Y111247D01*
Y112221D01*
X126463D01*
X126448Y112225D01*
X126006Y112260D01*
X125588Y112356D01*
X125110Y112527D01*
X124577Y112780D01*
X123992Y113118D01*
X123361Y113542D01*
X122694Y114047D01*
X121205Y115342D01*
X121086Y115458D01*
X59499Y177045D01*
Y200787D01*
X59513Y201755D01*
X59598Y203339D01*
X59737Y204566D01*
X59820Y205016D01*
X59909Y205368D01*
X59992Y205600D01*
X60097Y205797D01*
X60099Y205805D01*
X60149Y205880D01*
X60204Y206154D01*
X60211Y206178D01*
X60210Y206186D01*
X60300Y206636D01*
Y212261D01*
X60149Y213017D01*
X59721Y213658D01*
X59080Y214086D01*
X58324Y214237D01*
D02*
G37*
G36*
X72244Y112258D02*
X71109Y112109D01*
X70052Y111671D01*
X69144Y110974D01*
X68447Y110066D01*
X68009Y109009D01*
X67860Y107874D01*
X68009Y106739D01*
X68447Y105682D01*
X69144Y104774D01*
X70052Y104077D01*
X71109Y103639D01*
X72244Y103490D01*
X73379Y103639D01*
X74436Y104077D01*
X75344Y104774D01*
X76041Y105682D01*
X76479Y106739D01*
X76628Y107874D01*
X76479Y109009D01*
X76041Y110066D01*
X75344Y110974D01*
X74436Y111671D01*
X73379Y112109D01*
X72244Y112258D01*
D02*
G37*
G36*
X573335Y100608D02*
Y95996D01*
X577947D01*
X577836Y96836D01*
X577319Y98085D01*
X576496Y99158D01*
X575424Y99980D01*
X574175Y100498D01*
X573335Y100608D01*
D02*
G37*
G36*
X572335Y100608D02*
X571494Y100498D01*
X570246Y99980D01*
X569173Y99158D01*
X568350Y98085D01*
X567833Y96836D01*
X567722Y95996D01*
X572335D01*
Y100608D01*
D02*
G37*
G36*
X270735Y98906D02*
X269754Y98777D01*
X268841Y98399D01*
X268056Y97797D01*
X267454Y97012D01*
X267076Y96099D01*
X266947Y95118D01*
X267076Y94138D01*
X267454Y93224D01*
X268056Y92440D01*
X268841Y91837D01*
X269754Y91459D01*
X270735Y91330D01*
X271715Y91459D01*
X272629Y91837D01*
X273413Y92440D01*
X274016Y93224D01*
X274394Y94138D01*
X274523Y95118D01*
X274394Y96099D01*
X274016Y97012D01*
X273413Y97797D01*
X272629Y98399D01*
X271715Y98777D01*
X270735Y98906D01*
D02*
G37*
G36*
X253675D02*
X252694Y98777D01*
X251780Y98399D01*
X250996Y97797D01*
X250394Y97012D01*
X250015Y96099D01*
X249886Y95118D01*
X250015Y94138D01*
X250394Y93224D01*
X250996Y92440D01*
X251780Y91837D01*
X252694Y91459D01*
X253675Y91330D01*
X254655Y91459D01*
X255569Y91837D01*
X256353Y92440D01*
X256955Y93224D01*
X257334Y94138D01*
X257463Y95118D01*
X257334Y96099D01*
X256955Y97012D01*
X256353Y97797D01*
X255569Y98399D01*
X254655Y98777D01*
X253675Y98906D01*
D02*
G37*
G36*
X236614D02*
X235634Y98777D01*
X234720Y98399D01*
X233935Y97797D01*
X233333Y97012D01*
X232955Y96099D01*
X232826Y95118D01*
X232955Y94138D01*
X233333Y93224D01*
X233935Y92440D01*
X234720Y91837D01*
X235634Y91459D01*
X236614Y91330D01*
X237595Y91459D01*
X238508Y91837D01*
X239293Y92440D01*
X239895Y93224D01*
X240273Y94138D01*
X240403Y95118D01*
X240273Y96099D01*
X239895Y97012D01*
X239293Y97797D01*
X238508Y98399D01*
X237595Y98777D01*
X236614Y98906D01*
D02*
G37*
G36*
X572335Y94996D02*
X567722D01*
X567833Y94156D01*
X568350Y92907D01*
X569173Y91834D01*
X570246Y91012D01*
X571494Y90494D01*
X572335Y90384D01*
Y94996D01*
D02*
G37*
G36*
X577947D02*
X573335D01*
Y90384D01*
X574175Y90494D01*
X575424Y91012D01*
X576496Y91834D01*
X577319Y92907D01*
X577836Y94156D01*
X577947Y94996D01*
D02*
G37*
G36*
X427953Y75055D02*
X426767Y74899D01*
X425662Y74441D01*
X424713Y73713D01*
X423984Y72764D01*
X423526Y71658D01*
X423370Y70472D01*
X423526Y69286D01*
X423984Y68181D01*
X424713Y67232D01*
X425662Y66504D01*
X426767Y66046D01*
X427953Y65890D01*
X429139Y66046D01*
X430244Y66504D01*
X431193Y67232D01*
X431921Y68181D01*
X432379Y69286D01*
X432535Y70472D01*
X432379Y71658D01*
X431921Y72764D01*
X431193Y73713D01*
X430244Y74441D01*
X429139Y74899D01*
X427953Y75055D01*
D02*
G37*
G36*
X568713Y79945D02*
X568675Y79937D01*
X567701D01*
Y79002D01*
X567695Y78977D01*
X567655Y78214D01*
X567545Y77497D01*
X567361Y76772D01*
X567099Y76037D01*
X566758Y75290D01*
X566336Y74533D01*
X565833Y73765D01*
X565245Y72986D01*
X564572Y72198D01*
X564207Y71814D01*
X551498Y59105D01*
X529135D01*
X528214Y59127D01*
X527890Y59152D01*
X526966Y59860D01*
X525646Y60408D01*
X524228Y60594D01*
X522811Y60408D01*
X521490Y59860D01*
X520356Y58990D01*
X519486Y57856D01*
X518939Y56536D01*
X518752Y55118D01*
X518939Y53701D01*
X519486Y52380D01*
X520356Y51246D01*
X521490Y50376D01*
X522811Y49829D01*
X524228Y49642D01*
X525646Y49829D01*
X526966Y50376D01*
X527804Y51019D01*
X529939Y51131D01*
X553150D01*
X553150Y51131D01*
X554181Y51267D01*
X555143Y51666D01*
X555969Y52299D01*
X569845Y66176D01*
X570230Y66541D01*
X571018Y67213D01*
X571796Y67801D01*
X572564Y68305D01*
X573322Y68727D01*
X574068Y69067D01*
X574803Y69329D01*
X575529Y69514D01*
X576245Y69624D01*
X577009Y69663D01*
X577033Y69669D01*
X577969D01*
Y70643D01*
X577976Y70681D01*
X577971Y70707D01*
X577975Y70733D01*
X577969Y70758D01*
Y79937D01*
X568790D01*
X568765Y79943D01*
X568739Y79940D01*
X568713Y79945D01*
D02*
G37*
G36*
X270095Y58822D02*
X269754Y58777D01*
X268841Y58399D01*
X268568Y58190D01*
X268773Y58110D01*
X269031Y58035D01*
X269314Y57974D01*
X269568Y57935D01*
X269720Y58142D01*
X269878Y58386D01*
X270006Y58621D01*
X270095Y58822D01*
D02*
G37*
G36*
X271375D02*
X271463Y58621D01*
X271592Y58386D01*
X271749Y58142D01*
X271935Y57890D01*
X272149Y57630D01*
X272658Y57093D01*
X272932Y56838D01*
X273478Y56388D01*
X273736Y56206D01*
X273985Y56051D01*
X274224Y55925D01*
X274429Y55837D01*
X274394Y56099D01*
X274016Y57012D01*
X273413Y57797D01*
X272629Y58399D01*
X271715Y58777D01*
X271375Y58822D01*
D02*
G37*
G36*
X145529Y59906D02*
X143216D01*
Y55618D01*
X147504D01*
Y57931D01*
X147354Y58687D01*
X146926Y59328D01*
X146285Y59756D01*
X145529Y59906D01*
D02*
G37*
G36*
X288295Y58841D02*
Y55618D01*
X291518D01*
X291454Y56099D01*
X291076Y57012D01*
X290474Y57797D01*
X289689Y58399D01*
X288776Y58777D01*
X288295Y58841D01*
D02*
G37*
G36*
X272645Y57086D02*
X271235D01*
Y55618D01*
X272689D01*
X272645Y57086D01*
D02*
G37*
G36*
X45529Y59906D02*
X43217D01*
Y55618D01*
X47505D01*
Y57931D01*
X47354Y58687D01*
X46926Y59328D01*
X46285Y59756D01*
X45529Y59906D01*
D02*
G37*
G36*
X42217D02*
X39904D01*
X39148Y59756D01*
X38507Y59328D01*
X38079Y58687D01*
X37929Y57931D01*
Y55618D01*
X42217D01*
Y59906D01*
D02*
G37*
G36*
X287295Y58841D02*
X286815Y58777D01*
X285901Y58399D01*
X285117Y57797D01*
X284514Y57012D01*
X284136Y56099D01*
X284091Y55758D01*
X284292Y55847D01*
X284528Y55976D01*
X284771Y56133D01*
X285023Y56318D01*
X285283Y56533D01*
X285827Y57047D01*
Y55618D01*
X287295D01*
Y58841D01*
D02*
G37*
G36*
X270235Y57086D02*
X269920D01*
X268451Y55618D01*
X270235D01*
Y57086D01*
D02*
G37*
G36*
X267663Y57285D02*
X267454Y57012D01*
X267076Y56099D01*
X267012Y55618D01*
X267970D01*
X267926Y56230D01*
X267879Y56539D01*
X267818Y56822D01*
X267743Y57080D01*
X267663Y57285D01*
D02*
G37*
G36*
X142216Y59906D02*
X139904D01*
X139148Y59756D01*
X138507Y59328D01*
X138079Y58687D01*
X137928Y57931D01*
Y55618D01*
X142216D01*
Y59906D01*
D02*
G37*
G36*
X287295Y54618D02*
X285827D01*
Y53189D01*
X285551Y53461D01*
X285023Y53918D01*
X284771Y54104D01*
X284528Y54261D01*
X284292Y54390D01*
X284091Y54478D01*
X284136Y54138D01*
X284514Y53224D01*
X285117Y52439D01*
X285901Y51837D01*
X286815Y51459D01*
X287295Y51396D01*
Y54618D01*
D02*
G37*
G36*
X291518D02*
X288295D01*
Y51396D01*
X288776Y51459D01*
X289689Y51837D01*
X290474Y52439D01*
X291076Y53224D01*
X291454Y54138D01*
X291518Y54618D01*
D02*
G37*
G36*
X272719D02*
X271235D01*
Y51396D01*
X271715Y51459D01*
X272629Y51837D01*
X273413Y52439D01*
X274016Y53224D01*
X274394Y54138D01*
X274449Y54558D01*
X274250Y54468D01*
X274018Y54337D01*
X273779Y54177D01*
X273534Y53989D01*
X273283Y53771D01*
X272759Y53248D01*
X272719Y54618D01*
D02*
G37*
G36*
X270235D02*
X267012D01*
X267076Y54138D01*
X267454Y53224D01*
X268056Y52439D01*
X268841Y51837D01*
X269754Y51459D01*
X270235Y51396D01*
Y54618D01*
D02*
G37*
G36*
X253675Y58907D02*
X252694Y58777D01*
X251780Y58399D01*
X250996Y57797D01*
X250394Y57012D01*
X250015Y56099D01*
X249886Y55118D01*
X250015Y54138D01*
X250394Y53224D01*
X250996Y52439D01*
X251780Y51837D01*
X252694Y51459D01*
X253675Y51330D01*
X254655Y51459D01*
X255569Y51837D01*
X256353Y52439D01*
X256955Y53224D01*
X257334Y54138D01*
X257463Y55118D01*
X257334Y56099D01*
X256955Y57012D01*
X256353Y57797D01*
X255569Y58399D01*
X254655Y58777D01*
X253675Y58907D01*
D02*
G37*
G36*
X147504Y54618D02*
X143216D01*
Y50330D01*
X145529D01*
X146285Y50481D01*
X146926Y50909D01*
X147354Y51550D01*
X147504Y52306D01*
Y54618D01*
D02*
G37*
G36*
X142216D02*
X137928D01*
Y52306D01*
X138079Y51550D01*
X138507Y50909D01*
X139148Y50481D01*
X139904Y50330D01*
X142216D01*
Y54618D01*
D02*
G37*
G36*
X47505D02*
X43217D01*
Y50330D01*
X45529D01*
X46285Y50481D01*
X46926Y50909D01*
X47354Y51550D01*
X47505Y52306D01*
Y54618D01*
D02*
G37*
G36*
X42217D02*
X37929D01*
Y52306D01*
X38079Y51550D01*
X38507Y50909D01*
X39148Y50481D01*
X39904Y50330D01*
X42217D01*
Y54618D01*
D02*
G37*
G36*
X123031Y59909D02*
X121791Y59746D01*
X120636Y59267D01*
X119644Y58506D01*
X118882Y57514D01*
X118404Y56358D01*
X118240Y55118D01*
X118404Y53878D01*
X118882Y52723D01*
X119644Y51731D01*
X120636Y50969D01*
X121791Y50490D01*
X123031Y50327D01*
X124271Y50490D01*
X125427Y50969D01*
X126419Y51731D01*
X127181Y52723D01*
X127659Y53878D01*
X127822Y55118D01*
X127659Y56358D01*
X127181Y57514D01*
X126419Y58506D01*
X125427Y59267D01*
X124271Y59746D01*
X123031Y59909D01*
D02*
G37*
G36*
X62402D02*
X61162Y59746D01*
X60006Y59267D01*
X59014Y58506D01*
X58253Y57514D01*
X57774Y56358D01*
X57611Y55118D01*
X57774Y53878D01*
X58253Y52723D01*
X59014Y51731D01*
X60006Y50969D01*
X61162Y50490D01*
X62402Y50327D01*
X63642Y50490D01*
X64797Y50969D01*
X65789Y51731D01*
X66551Y52723D01*
X67029Y53878D01*
X67193Y55118D01*
X67029Y56358D01*
X66551Y57514D01*
X65789Y58506D01*
X64797Y59267D01*
X63642Y59746D01*
X62402Y59909D01*
D02*
G37*
G36*
X477559Y60594D02*
X476142Y60408D01*
X474821Y59860D01*
X473687Y58990D01*
X472817Y57856D01*
X472270Y56536D01*
X472083Y55118D01*
X472270Y53701D01*
X472817Y52380D01*
X473687Y51246D01*
X474821Y50376D01*
X476142Y49829D01*
X477559Y49642D01*
X478976Y49829D01*
X480297Y50376D01*
X481431Y51246D01*
X482301Y52380D01*
X482848Y53701D01*
X483035Y55118D01*
X482848Y56536D01*
X482301Y57856D01*
X481431Y58990D01*
X480297Y59860D01*
X478976Y60408D01*
X477559Y60594D01*
D02*
G37*
G36*
X437953Y49461D02*
X436869Y49318D01*
X435860Y48900D01*
X434993Y48235D01*
X434328Y47368D01*
X433910Y46359D01*
X433767Y45276D01*
X433910Y44192D01*
X434328Y43183D01*
X434993Y42316D01*
X435860Y41651D01*
X436869Y41233D01*
X437953Y41090D01*
X439036Y41233D01*
X440045Y41651D01*
X440912Y42316D01*
X441577Y43183D01*
X441996Y44192D01*
X442138Y45276D01*
X441996Y46359D01*
X441577Y47368D01*
X440912Y48235D01*
X440045Y48900D01*
X439036Y49318D01*
X437953Y49461D01*
D02*
G37*
G36*
X406236Y26394D02*
X398331D01*
Y18488D01*
X406236D01*
Y26394D01*
D02*
G37*
G36*
X417953Y26428D02*
X416921Y26292D01*
X415959Y25894D01*
X415134Y25260D01*
X414500Y24434D01*
X414102Y23473D01*
X413966Y22441D01*
X414102Y21409D01*
X414500Y20448D01*
X415134Y19622D01*
X415959Y18988D01*
X416921Y18590D01*
X417953Y18454D01*
X418985Y18590D01*
X419946Y18988D01*
X420772Y19622D01*
X421406Y20448D01*
X421804Y21409D01*
X421940Y22441D01*
X421804Y23473D01*
X421406Y24434D01*
X420772Y25260D01*
X419946Y25894D01*
X418985Y26292D01*
X417953Y26428D01*
D02*
G37*
G36*
X477559Y29577D02*
X476205Y29443D01*
X474904Y29048D01*
X473704Y28407D01*
X472652Y27544D01*
X471790Y26493D01*
X471148Y25293D01*
X470753Y23991D01*
X470620Y22638D01*
X470753Y21284D01*
X471148Y19982D01*
X471790Y18783D01*
X472652Y17731D01*
X473704Y16868D01*
X474904Y16227D01*
X476205Y15832D01*
X477559Y15699D01*
X478913Y15832D01*
X480214Y16227D01*
X481414Y16868D01*
X482466Y17731D01*
X483328Y18783D01*
X483970Y19982D01*
X484365Y21284D01*
X484498Y22638D01*
X484365Y23991D01*
X483970Y25293D01*
X483328Y26493D01*
X482466Y27544D01*
X481414Y28407D01*
X480214Y29048D01*
X478913Y29443D01*
X477559Y29577D01*
D02*
G37*
%LPD*%
G36*
X488464Y357144D02*
X488379Y357114D01*
X488304Y357063D01*
X488239Y356992D01*
X488184Y356901D01*
X488139Y356790D01*
X488104Y356658D01*
X488079Y356506D01*
X488064Y356334D01*
X488059Y356142D01*
X487059D01*
X487054Y356334D01*
X487039Y356506D01*
X487014Y356658D01*
X486979Y356790D01*
X486934Y356901D01*
X486879Y356992D01*
X486814Y357063D01*
X486739Y357114D01*
X486654Y357144D01*
X486559Y357154D01*
X488559D01*
X488464Y357144D01*
D02*
G37*
G36*
X447096Y335234D02*
X447670Y334732D01*
X447943Y334529D01*
X448205Y334356D01*
X448457Y334215D01*
X448700Y334106D01*
X448932Y334027D01*
X449154Y333980D01*
X449367Y333965D01*
Y332965D01*
X449154Y332949D01*
X448932Y332902D01*
X448700Y332824D01*
X448457Y332714D01*
X448205Y332573D01*
X447943Y332400D01*
X447670Y332197D01*
X447096Y331695D01*
X446794Y331398D01*
Y335531D01*
X447096Y335234D01*
D02*
G37*
G36*
X29192Y308453D02*
X27869Y307118D01*
X22858Y301490D01*
X22511Y300950D01*
X22302Y300522D01*
X22232Y300209D01*
X13988Y308453D01*
X14302Y308522D01*
X14729Y308731D01*
X15270Y309079D01*
X15924Y309566D01*
X17572Y310958D01*
X20897Y314090D01*
X22232Y315412D01*
X29192Y308453D01*
D02*
G37*
G36*
X570048Y286452D02*
X575675Y281441D01*
X576216Y281093D01*
X576643Y280884D01*
X576957Y280815D01*
X568713Y272571D01*
X568643Y272884D01*
X568434Y273312D01*
X568086Y273852D01*
X567599Y274506D01*
X566207Y276155D01*
X563075Y279480D01*
X561753Y280815D01*
X568713Y287774D01*
X570048Y286452D01*
D02*
G37*
G36*
X114674Y263544D02*
X116088Y262345D01*
X116788Y261832D01*
X117484Y261378D01*
X118174Y260983D01*
X118860Y260646D01*
X119542Y260367D01*
X120218Y260146D01*
X120890Y259983D01*
X114032Y253126D01*
X113870Y253798D01*
X113649Y254474D01*
X113370Y255155D01*
X113033Y255841D01*
X112637Y256532D01*
X112183Y257227D01*
X111671Y257927D01*
X110472Y259341D01*
X109785Y260055D01*
X113961Y264231D01*
X114674Y263544D01*
D02*
G37*
G36*
X22274Y247579D02*
X22399Y246762D01*
X22608Y245943D01*
X22900Y245122D01*
X23276Y244299D01*
X23735Y243473D01*
X24278Y242646D01*
X24905Y241816D01*
X25615Y240984D01*
X26408Y240150D01*
X22232Y235974D01*
X21398Y236767D01*
X20566Y237477D01*
X19736Y238104D01*
X18909Y238646D01*
X18083Y239106D01*
X17260Y239482D01*
X16439Y239774D01*
X15620Y239983D01*
X14803Y240108D01*
X13988Y240150D01*
X22232Y248394D01*
X22274Y247579D01*
D02*
G37*
G36*
X394866Y220654D02*
X394856Y220749D01*
X394826Y220834D01*
X394775Y220909D01*
X394705Y220974D01*
X394614Y221029D01*
X394502Y221074D01*
X394371Y221109D01*
X394219Y221134D01*
X394047Y221149D01*
X393854Y221154D01*
Y222154D01*
X394047Y222159D01*
X394219Y222174D01*
X394371Y222199D01*
X394502Y222234D01*
X394614Y222279D01*
X394705Y222334D01*
X394775Y222399D01*
X394826Y222474D01*
X394856Y222559D01*
X394866Y222654D01*
Y220654D01*
D02*
G37*
G36*
X372807Y221029D02*
X372828Y220880D01*
X372864Y220765D01*
X372913Y220685D01*
X372977Y220639D01*
X373055Y220626D01*
X373147Y220648D01*
X373253Y220705D01*
X373373Y220795D01*
X373507Y220919D01*
X373361Y219358D01*
X372654Y218651D01*
X371093Y218505D01*
X371227Y218649D01*
X371347Y218799D01*
X371453Y218955D01*
X371545Y219117D01*
X371623Y219285D01*
X371687Y219459D01*
X371736Y219638D01*
X371772Y219824D01*
X371793Y220015D01*
X371800Y220212D01*
X372800Y221212D01*
X372807Y221029D01*
D02*
G37*
G36*
X367766Y218701D02*
X367341Y218698D01*
X366581Y218646D01*
X366244Y218598D01*
X365937Y218534D01*
X365659Y218455D01*
X365410Y218362D01*
X365190Y218253D01*
X365000Y218129D01*
X364838Y217989D01*
X364131Y218697D01*
X364270Y218858D01*
X364394Y219048D01*
X364503Y219268D01*
X364597Y219517D01*
X364676Y219795D01*
X364739Y220103D01*
X364788Y220439D01*
X364839Y221200D01*
X364843Y221624D01*
X367766Y218701D01*
D02*
G37*
G36*
X368371Y217238D02*
X366714Y215581D01*
X366382Y215085D01*
X366266Y214500D01*
Y199425D01*
X363646D01*
Y191126D01*
X371945D01*
Y192599D01*
X372445Y192724D01*
X372848Y191970D01*
X373588Y191068D01*
X373849Y190854D01*
X373680Y190384D01*
X364200D01*
X363615Y190267D01*
X363119Y189936D01*
X350712Y177529D01*
X326487D01*
X326296Y177991D01*
X365621Y217317D01*
X365696Y217366D01*
X365817Y217425D01*
X365978Y217486D01*
X366179Y217543D01*
X366420Y217593D01*
X366688Y217632D01*
X367380Y217678D01*
X367688Y217681D01*
X367795Y217667D01*
X368137Y217712D01*
X368371Y217238D01*
D02*
G37*
G36*
X193166Y216993D02*
X192486Y216230D01*
X192210Y215875D01*
X191976Y215537D01*
X191785Y215217D01*
X191636Y214915D01*
X191530Y214630D01*
X191466Y214362D01*
X191445Y214112D01*
X190445D01*
X190424Y214362D01*
X190360Y214630D01*
X190253Y214915D01*
X190105Y215217D01*
X189914Y215537D01*
X189680Y215875D01*
X189403Y216230D01*
X188724Y216993D01*
X188320Y217401D01*
X193570D01*
X193166Y216993D01*
D02*
G37*
G36*
X368300Y199221D02*
X368315Y199049D01*
X368340Y198897D01*
X368375Y198766D01*
X368420Y198654D01*
X368475Y198563D01*
X368540Y198492D01*
X368615Y198442D01*
X368700Y198411D01*
X368795Y198401D01*
X366795D01*
X366890Y198411D01*
X366975Y198442D01*
X367050Y198492D01*
X367115Y198563D01*
X367170Y198654D01*
X367215Y198766D01*
X367250Y198897D01*
X367275Y199049D01*
X367290Y199221D01*
X367295Y199413D01*
X368295D01*
X368300Y199221D01*
D02*
G37*
G36*
X416229Y192138D02*
X416152Y192195D01*
X416060Y192223D01*
X415954D01*
X415833Y192195D01*
X415699Y192138D01*
X415551Y192053D01*
X415388Y191940D01*
X415211Y191799D01*
X414815Y191431D01*
X414108Y192138D01*
X414306Y192343D01*
X414617Y192711D01*
X414730Y192873D01*
X414815Y193022D01*
X414872Y193156D01*
X414900Y193276D01*
Y193383D01*
X414872Y193474D01*
X414815Y193552D01*
X416229Y192138D01*
D02*
G37*
G36*
X387764Y192126D02*
X387303Y192123D01*
X386478Y192070D01*
X386114Y192019D01*
X385783Y191953D01*
X385484Y191872D01*
X385218Y191774D01*
X384984Y191661D01*
X384783Y191532D01*
X384614Y191387D01*
X383907Y192094D01*
X384051Y192263D01*
X384180Y192464D01*
X384294Y192698D01*
X384391Y192964D01*
X384473Y193263D01*
X384539Y193594D01*
X384589Y193958D01*
X384643Y194783D01*
X384646Y195244D01*
X387764Y192126D01*
D02*
G37*
G36*
X309446Y181939D02*
X309320Y181796D01*
X309208Y181630D01*
X309109Y181443D01*
X309024Y181234D01*
X308953Y181004D01*
X308895Y180751D01*
X308851Y180477D01*
X308820Y180182D01*
X308800Y179525D01*
X306325Y182000D01*
X306664Y182003D01*
X307277Y182051D01*
X307551Y182095D01*
X307804Y182153D01*
X308034Y182224D01*
X308243Y182309D01*
X308430Y182408D01*
X308595Y182520D01*
X308739Y182646D01*
X309446Y181939D01*
D02*
G37*
G36*
X382248Y177165D02*
X381713Y177163D01*
X380760Y177106D01*
X380342Y177052D01*
X379963Y176981D01*
X379623Y176893D01*
X379322Y176788D01*
X379060Y176666D01*
X378837Y176527D01*
X378653Y176371D01*
X377946Y177078D01*
X378102Y177262D01*
X378241Y177485D01*
X378363Y177747D01*
X378468Y178048D01*
X378556Y178388D01*
X378626Y178767D01*
X378680Y179185D01*
X378737Y180138D01*
X378740Y180673D01*
X382248Y177165D01*
D02*
G37*
G36*
X323932Y177073D02*
X323841Y176953D01*
X323785Y176847D01*
X323763Y176755D01*
X323776Y176677D01*
X323822Y176613D01*
X323902Y176564D01*
X324017Y176528D01*
X324166Y176507D01*
X324349Y176500D01*
X323349Y175500D01*
X323152Y175493D01*
X322960Y175472D01*
X322775Y175436D01*
X322596Y175387D01*
X322422Y175323D01*
X322254Y175245D01*
X322092Y175154D01*
X321936Y175048D01*
X321786Y174927D01*
X321642Y174793D01*
X320227D01*
X320352Y174927D01*
X320442Y175048D01*
X320498Y175154D01*
X320520Y175245D01*
X320508Y175323D01*
X320461Y175387D01*
X320381Y175436D01*
X320266Y175472D01*
X320117Y175493D01*
X319935Y175500D01*
X320935Y176500D01*
X321132Y176507D01*
X321323Y176528D01*
X321508Y176564D01*
X321688Y176613D01*
X321861Y176677D01*
X322029Y176755D01*
X322191Y176847D01*
X322347Y176953D01*
X322497Y177073D01*
X322642Y177207D01*
X324056D01*
X323932Y177073D01*
D02*
G37*
G36*
X369500Y186863D02*
X352167Y169529D01*
X323869D01*
X323810Y169541D01*
X323710Y169572D01*
X323589Y169623D01*
X323448Y169697D01*
X323290Y169796D01*
X323126Y169914D01*
X322717Y170265D01*
X322544Y170434D01*
X322496Y170496D01*
X321765Y171057D01*
X320914Y171410D01*
X320479Y171467D01*
X320300Y171995D01*
X322486Y174182D01*
X322542Y174227D01*
X322631Y174287D01*
X322721Y174338D01*
X322812Y174380D01*
X322907Y174415D01*
X323006Y174443D01*
X323113Y174463D01*
X323183Y174471D01*
X351346D01*
X351931Y174587D01*
X352427Y174919D01*
X364833Y187325D01*
X369309D01*
X369500Y186863D01*
D02*
G37*
G36*
X322027Y169512D02*
X322495Y169113D01*
X322720Y168950D01*
X322939Y168813D01*
X323153Y168700D01*
X323360Y168613D01*
X323563Y168550D01*
X323759Y168512D01*
X323950Y168500D01*
Y167500D01*
X323759Y167488D01*
X323563Y167450D01*
X323360Y167387D01*
X323153Y167300D01*
X322939Y167188D01*
X322720Y167050D01*
X322495Y166887D01*
X322264Y166700D01*
X321785Y166250D01*
Y169750D01*
X322027Y169512D01*
D02*
G37*
G36*
X252728D02*
X253195Y169113D01*
X253420Y168950D01*
X253639Y168813D01*
X253853Y168700D01*
X254060Y168613D01*
X254262Y168550D01*
X254459Y168512D01*
X254649Y168500D01*
Y167500D01*
X254459Y167488D01*
X254262Y167450D01*
X254060Y167387D01*
X253853Y167300D01*
X253639Y167188D01*
X253420Y167050D01*
X253195Y166887D01*
X252964Y166700D01*
X252485Y166250D01*
Y169750D01*
X252728Y169512D01*
D02*
G37*
G36*
X380349Y184825D02*
X379992Y184677D01*
X379043Y183949D01*
X378315Y183000D01*
X377857Y181895D01*
X377701Y180709D01*
X377720Y180563D01*
X377718Y180171D01*
X377665Y179281D01*
X377619Y178926D01*
X377560Y178610D01*
X377491Y178344D01*
X377417Y178131D01*
X377343Y177972D01*
X377276Y177865D01*
X377273Y177861D01*
X363941Y164529D01*
X322007D01*
X321878Y165029D01*
X322496Y165504D01*
X322538Y165558D01*
X322936Y165932D01*
X323115Y166078D01*
X323290Y166204D01*
X323448Y166303D01*
X323589Y166377D01*
X323710Y166428D01*
X323810Y166459D01*
X323869Y166471D01*
X352800D01*
X353385Y166587D01*
X353881Y166919D01*
X372288Y185325D01*
X380249D01*
X380349Y184825D01*
D02*
G37*
G36*
X524184Y133366D02*
X524126Y133348D01*
X524035Y133292D01*
X523910Y133199D01*
X523560Y132899D01*
X522461Y131850D01*
X522103Y131494D01*
X517927Y135670D01*
X519800Y137751D01*
X524184Y133366D01*
D02*
G37*
G36*
X477515D02*
X477457Y133348D01*
X477365Y133292D01*
X477241Y133199D01*
X476891Y132899D01*
X475792Y131850D01*
X475433Y131494D01*
X471258Y135670D01*
X473130Y137751D01*
X477515Y133366D01*
D02*
G37*
G36*
X288300Y122361D02*
X288339Y121971D01*
X288374Y121813D01*
X288418Y121679D01*
X288473Y121569D01*
X288537Y121484D01*
X288611Y121423D01*
X288694Y121387D01*
X288788Y121374D01*
X286803D01*
X286896Y121387D01*
X286980Y121423D01*
X287054Y121484D01*
X287118Y121569D01*
X287172Y121679D01*
X287216Y121813D01*
X287251Y121971D01*
X287276Y122154D01*
X287290Y122361D01*
X287295Y122593D01*
X288295D01*
X288300Y122361D01*
D02*
G37*
G36*
X288694Y114047D02*
X288611Y114010D01*
X288537Y113949D01*
X288473Y113864D01*
X288418Y113754D01*
X288374Y113620D01*
X288339Y113462D01*
X288315Y113279D01*
X288300Y113072D01*
X288295Y112840D01*
X287295D01*
X287290Y113072D01*
X287251Y113462D01*
X287216Y113620D01*
X287172Y113754D01*
X287118Y113864D01*
X287054Y113949D01*
X286980Y114010D01*
X286896Y114047D01*
X286803Y114059D01*
X288788D01*
X288694Y114047D01*
D02*
G37*
G36*
X290554Y94703D02*
X290604Y94007D01*
X290651Y93697D01*
X290712Y93414D01*
X290787Y93156D01*
X290877Y92925D01*
X290982Y92719D01*
X291101Y92540D01*
X291234Y92386D01*
X290527Y91679D01*
X290374Y91812D01*
X290194Y91931D01*
X289988Y92036D01*
X289757Y92126D01*
X289499Y92202D01*
X289216Y92263D01*
X288907Y92309D01*
X288571Y92342D01*
X287823Y92362D01*
X290551Y95091D01*
X290554Y94703D01*
D02*
G37*
G36*
X378837Y74654D02*
X379060Y74515D01*
X379322Y74393D01*
X379623Y74288D01*
X379963Y74200D01*
X380342Y74129D01*
X380760Y74075D01*
X381713Y74019D01*
X382248Y74015D01*
X378740Y70508D01*
X378737Y71043D01*
X378680Y71996D01*
X378626Y72414D01*
X378556Y72793D01*
X378468Y73133D01*
X378363Y73434D01*
X378241Y73696D01*
X378102Y73919D01*
X377946Y74103D01*
X378653Y74810D01*
X378837Y74654D01*
D02*
G37*
G36*
X341309Y67520D02*
X340885Y67517D01*
X340124Y67465D01*
X339788Y67417D01*
X339480Y67353D01*
X339202Y67274D01*
X338953Y67180D01*
X338733Y67071D01*
X338543Y66948D01*
X338382Y66808D01*
X337674Y67515D01*
X337814Y67677D01*
X337938Y67867D01*
X338047Y68087D01*
X338140Y68336D01*
X338219Y68614D01*
X338283Y68921D01*
X338331Y69258D01*
X338383Y70019D01*
X338386Y70443D01*
X341309Y67520D01*
D02*
G37*
G36*
X338273Y72971D02*
X337886Y72466D01*
X337488Y71504D01*
X337352Y70472D01*
X337366Y70366D01*
X337364Y70057D01*
X337316Y69365D01*
X337278Y69097D01*
X337228Y68856D01*
X337171Y68655D01*
X337110Y68494D01*
X337051Y68374D01*
X337002Y68299D01*
X303733Y35029D01*
X289000D01*
X288415Y34913D01*
X287919Y34581D01*
X286714Y33377D01*
X286382Y32880D01*
X286310Y32519D01*
X286298Y32514D01*
X285678Y32039D01*
X285545Y31865D01*
X285045D01*
X284912Y32039D01*
X284292Y32514D01*
X283570Y32813D01*
X282795Y32915D01*
X282020Y32813D01*
X281298Y32514D01*
X281212Y32448D01*
X280764Y32669D01*
Y32890D01*
X279325D01*
Y33462D01*
X301081Y55219D01*
X316425Y70562D01*
X316898Y70328D01*
X317015Y69441D01*
X317413Y68479D01*
X318047Y67653D01*
X318873Y67020D01*
X319834Y66621D01*
X320866Y66486D01*
X321898Y66621D01*
X322860Y67020D01*
X323685Y67653D01*
X324319Y68479D01*
X324717Y69441D01*
X324853Y70472D01*
X324717Y71504D01*
X324319Y72466D01*
X323932Y72971D01*
X324178Y73471D01*
X338027D01*
X338273Y72971D01*
D02*
G37*
G36*
X300507Y58324D02*
X300528Y58175D01*
X300564Y58061D01*
X300613Y57980D01*
X300677Y57934D01*
X300755Y57922D01*
X300847Y57944D01*
X300953Y58000D01*
X301073Y58090D01*
X301207Y58214D01*
X301061Y56653D01*
X300354Y55946D01*
X298793Y55800D01*
X298927Y55944D01*
X299047Y56095D01*
X299153Y56251D01*
X299245Y56413D01*
X299323Y56580D01*
X299387Y56754D01*
X299436Y56933D01*
X299472Y57119D01*
X299493Y57310D01*
X299500Y57507D01*
X300500Y58507D01*
X300507Y58324D01*
D02*
G37*
G36*
X238272Y52874D02*
X237814Y52346D01*
X237629Y52094D01*
X237472Y51851D01*
X237343Y51615D01*
X237243Y51388D01*
X237171Y51169D01*
X237128Y50958D01*
X237114Y50754D01*
X236114D01*
X236100Y50958D01*
X236057Y51169D01*
X235986Y51388D01*
X235886Y51615D01*
X235757Y51851D01*
X235600Y52094D01*
X235414Y52346D01*
X235199Y52606D01*
X234685Y53150D01*
X238543D01*
X238272Y52874D01*
D02*
G37*
G36*
X416229Y42138D02*
X416152Y42195D01*
X416060Y42223D01*
X415954D01*
X415833Y42195D01*
X415699Y42138D01*
X415551Y42053D01*
X415388Y41940D01*
X415211Y41799D01*
X414815Y41431D01*
X414108Y42138D01*
X414306Y42343D01*
X414617Y42711D01*
X414730Y42873D01*
X414815Y43022D01*
X414872Y43156D01*
X414900Y43276D01*
Y43382D01*
X414872Y43474D01*
X414815Y43552D01*
X416229Y42138D01*
D02*
G37*
G36*
X421034Y43474D02*
X421006Y43382D01*
Y43276D01*
X421034Y43156D01*
X421090Y43022D01*
X421175Y42873D01*
X421288Y42711D01*
X421430Y42534D01*
X421798Y42138D01*
X421090Y41431D01*
X420885Y41629D01*
X420518Y41940D01*
X420355Y42053D01*
X420206Y42138D01*
X420072Y42195D01*
X419952Y42223D01*
X419846D01*
X419754Y42195D01*
X419676Y42138D01*
X421090Y43552D01*
X421034Y43474D01*
D02*
G37*
G36*
X413803Y46958D02*
Y43590D01*
X413796Y43552D01*
X413803Y43514D01*
Y43327D01*
X413592Y43078D01*
X405744Y35229D01*
X402075D01*
X401868Y35729D01*
X413303Y47165D01*
X413803Y46958D01*
D02*
G37*
G36*
X278300Y32686D02*
X278315Y32513D01*
X278340Y32362D01*
X278375Y32230D01*
X278420Y32119D01*
X278475Y32028D01*
X278540Y31957D01*
X278615Y31906D01*
X278700Y31876D01*
X278795Y31866D01*
X276795D01*
X276890Y31876D01*
X276975Y31906D01*
X277050Y31957D01*
X277115Y32028D01*
X277170Y32119D01*
X277215Y32230D01*
X277250Y32362D01*
X277275Y32513D01*
X277290Y32686D01*
X277295Y32878D01*
X278295D01*
X278300Y32686D01*
D02*
G37*
G36*
X445218Y25890D02*
X445587Y25576D01*
X445750Y25462D01*
X445899Y25376D01*
X446033Y25318D01*
X446153Y25289D01*
X446258Y25287D01*
X446350Y25314D01*
X446426Y25370D01*
X445024Y23968D01*
X445079Y24044D01*
X445107Y24135D01*
X445105Y24241D01*
X445076Y24361D01*
X445018Y24495D01*
X444932Y24644D01*
X444818Y24806D01*
X444675Y24984D01*
X444305Y25382D01*
X445012Y26089D01*
X445218Y25890D01*
D02*
G37*
G36*
X283306Y24078D02*
X283228Y24062D01*
X283143Y24032D01*
X283051Y23989D01*
X282953Y23933D01*
X282848Y23864D01*
X282736Y23782D01*
X282494Y23578D01*
X282224Y23322D01*
X281076Y23588D01*
X281236Y23755D01*
X281367Y23908D01*
X281471Y24046D01*
X281545Y24170D01*
X281592Y24280D01*
X281609Y24375D01*
X281599Y24456D01*
X281560Y24523D01*
X281492Y24575D01*
X281396Y24613D01*
X283306Y24078D01*
D02*
G37*
G36*
X370175Y20374D02*
X369872Y20672D01*
X369298Y21173D01*
X369026Y21377D01*
X368763Y21549D01*
X368511Y21690D01*
X368269Y21800D01*
X368037Y21878D01*
X367814Y21925D01*
X367602Y21941D01*
Y22941D01*
X367814Y22957D01*
X368037Y23004D01*
X368269Y23082D01*
X368511Y23192D01*
X368763Y23333D01*
X369026Y23505D01*
X369298Y23709D01*
X369872Y24210D01*
X370175Y24508D01*
Y20374D01*
D02*
G37*
G36*
X341826Y223796D02*
X341635Y223598D01*
X341336Y223243D01*
X341229Y223085D01*
X341148Y222941D01*
X341095Y222810D01*
X341069Y222693D01*
X341071Y222589D01*
X341101Y222498D01*
X341158Y222421D01*
X339743Y223835D01*
X339821Y223778D01*
X339912Y223748D01*
X340016Y223746D01*
X340133Y223772D01*
X340264Y223825D01*
X340408Y223906D01*
X340566Y224014D01*
X340737Y224149D01*
X340921Y224312D01*
X341119Y224503D01*
X341826Y223796D01*
D02*
G37*
G36*
X335060Y216335D02*
X334983Y216390D01*
X334893Y216419D01*
X334790Y216420D01*
X334673Y216393D01*
X334542Y216338D01*
X334398Y216257D01*
X334240Y216147D01*
X334068Y216011D01*
X333883Y215846D01*
X333685Y215655D01*
X332978Y216362D01*
X333169Y216561D01*
X333470Y216917D01*
X333579Y217075D01*
X333661Y217219D01*
X333716Y217350D01*
X333742Y217467D01*
X333741Y217571D01*
X333713Y217661D01*
X333658Y217737D01*
X335060Y216335D01*
D02*
G37*
G36*
X311415Y209850D02*
X311173Y210087D01*
X310705Y210488D01*
X310480Y210650D01*
X310261Y210788D01*
X310047Y210900D01*
X309840Y210987D01*
X309637Y211050D01*
X309441Y211087D01*
X309250Y211100D01*
Y212100D01*
X309441Y212112D01*
X309637Y212150D01*
X309840Y212212D01*
X310047Y212300D01*
X310261Y212413D01*
X310480Y212550D01*
X310705Y212713D01*
X310936Y212900D01*
X311415Y213350D01*
Y209850D01*
D02*
G37*
G36*
X237035Y183441D02*
X236901Y183287D01*
X236783Y183107D01*
X236678Y182902D01*
X236588Y182670D01*
X236512Y182413D01*
X236451Y182129D01*
X236405Y181820D01*
X236372Y181485D01*
X236352Y180736D01*
X233623Y183464D01*
X234011Y183468D01*
X234707Y183518D01*
X235017Y183564D01*
X235300Y183625D01*
X235558Y183701D01*
X235789Y183791D01*
X235995Y183895D01*
X236174Y184014D01*
X236328Y184148D01*
X237035Y183441D01*
D02*
G37*
G36*
X59057Y206013D02*
X58933Y205666D01*
X58823Y205234D01*
X58728Y204716D01*
X58582Y203424D01*
X58494Y201790D01*
X58465Y199815D01*
X52559D01*
X52552Y200845D01*
X52296Y204716D01*
X52201Y205234D01*
X52091Y205666D01*
X51967Y206013D01*
X51828Y206275D01*
X59196D01*
X59057Y206013D01*
D02*
G37*
G36*
X120515Y114591D02*
X122051Y113255D01*
X122768Y112712D01*
X123452Y112252D01*
X124102Y111877D01*
X124719Y111584D01*
X125301Y111375D01*
X125850Y111250D01*
X126366Y111208D01*
X119697Y104540D01*
X119655Y105055D01*
X119530Y105604D01*
X119321Y106187D01*
X119029Y106803D01*
X118653Y107453D01*
X118194Y108137D01*
X117651Y108854D01*
X116314Y110390D01*
X115521Y111208D01*
X119697Y115384D01*
X120515Y114591D01*
D02*
G37*
G36*
X576957Y70681D02*
X576142Y70640D01*
X575325Y70514D01*
X574506Y70306D01*
X573685Y70013D01*
X572862Y69637D01*
X572036Y69178D01*
X571208Y68635D01*
X570379Y68009D01*
X569547Y67299D01*
X568713Y66505D01*
X564537Y70681D01*
X565330Y71515D01*
X566040Y72347D01*
X566667Y73177D01*
X567209Y74005D01*
X567669Y74830D01*
X568045Y75653D01*
X568337Y76475D01*
X568546Y77294D01*
X568671Y78110D01*
X568713Y78925D01*
X576957Y70681D01*
D02*
G37*
G36*
X527445Y58191D02*
X527550Y58165D01*
X527704Y58143D01*
X528163Y58108D01*
X529682Y58072D01*
X530187Y58071D01*
Y52165D01*
X527391Y52018D01*
Y58219D01*
X527445Y58191D01*
D02*
G37*
D10*
X458268Y44291D02*
Y148622D01*
X496850D01*
Y44291D02*
Y148622D01*
X458268Y44291D02*
X496850D01*
X504937Y183189D02*
Y287520D01*
X543520D01*
Y183189D02*
Y287520D01*
X504937Y183189D02*
X543520D01*
X504937Y44291D02*
Y148622D01*
X543520D01*
Y44291D02*
Y148622D01*
X504937Y44291D02*
X543520D01*
X458268Y183189D02*
Y287520D01*
X496850D01*
Y183189D02*
Y287520D01*
X458268Y183189D02*
X496850D01*
D12*
X114872Y299325D02*
G03*
X116863Y298269I1976J1321D01*
G01*
X118571Y298268D02*
G03*
X120545Y299305I11J2376D01*
G01*
X116862Y317953D02*
G03*
X114888Y316915I-11J-2376D01*
G01*
X120562Y316896D02*
G03*
X118570Y317951I-1976J-1321D01*
G01*
X114034Y315462D02*
G03*
X113768Y315197I87J-354D01*
G01*
X116918Y315272D02*
G03*
X114034Y315462I-4288J-43031D01*
G01*
X116918Y300949D02*
G03*
X114034Y300759I41749J-654584D01*
G01*
X113768Y301024D02*
G03*
X114034Y300759I357J92D01*
G01*
X118516Y315272D02*
G03*
X121399Y315462I-41797J655314D01*
G01*
X121665Y315197D02*
G03*
X121399Y315462I-357J-92D01*
G01*
X121399Y300759D02*
G03*
X121665Y301024I-87J354D01*
G01*
X118516Y300949D02*
G03*
X121399Y300759I4288J43031D01*
G01*
X116918Y300420D02*
G03*
X115656Y299252I3661J-5218D01*
G01*
X113768Y301024D02*
G03*
X115540Y299252I1772J0D01*
G01*
X121665Y315197D02*
G03*
X119894Y316968I-1772J0D01*
G01*
X115540D02*
G03*
X113768Y315197I0J-1772D01*
G01*
X119894Y299252D02*
G03*
X121665Y301024I0J1772D01*
G01*
X116535Y298268D02*
G03*
X118898Y298268I1181J0D01*
G01*
Y317953D02*
G03*
X116535Y317953I-1181J0D01*
G01*
X120562Y357211D02*
G03*
X118570Y358266I-1976J-1321D01*
G01*
X116862Y358268D02*
G03*
X114888Y357230I-11J-2376D01*
G01*
X118571Y338583D02*
G03*
X120545Y339620I11J2376D01*
G01*
X114872Y339640D02*
G03*
X116863Y338584I1976J1321D01*
G01*
X121399Y341073D02*
G03*
X121665Y341339I-87J354D01*
G01*
X118516Y341264D02*
G03*
X121399Y341073I4288J43031D01*
G01*
X118516Y355587D02*
G03*
X121399Y355777I-41749J654584D01*
G01*
X121665Y355512D02*
G03*
X121399Y355777I-357J-92D01*
G01*
X116918Y341264D02*
G03*
X114034Y341073I41797J-655314D01*
G01*
X113768Y341339D02*
G03*
X114034Y341073I357J92D01*
G01*
X114034Y355777D02*
G03*
X113768Y355512I87J-354D01*
G01*
X116918Y355587D02*
G03*
X114034Y355777I-4288J-43031D01*
G01*
X118516Y356115D02*
G03*
X119777Y357283I-3661J5218D01*
G01*
X121665Y355512D02*
G03*
X119894Y357283I-1772J0D01*
G01*
X113768Y341339D02*
G03*
X115540Y339567I1772J0D01*
G01*
X119894D02*
G03*
X121665Y341339I0J1772D01*
G01*
X115540Y357283D02*
G03*
X113768Y355512I0J-1772D01*
G01*
X118898Y358268D02*
G03*
X116535Y358268I-1181J0D01*
G01*
Y338583D02*
G03*
X118898Y338583I1181J0D01*
G01*
X336345Y217234D02*
G03*
X337400Y219226I-1321J1976D01*
G01*
X337402Y220933D02*
G03*
X336364Y222907I-2376J11D01*
G01*
X317717Y219224D02*
G03*
X318754Y217250I2376J-11D01*
G01*
X318773Y222924D02*
G03*
X317718Y220932I1321J-1976D01*
G01*
X320207Y216396D02*
G03*
X320472Y216130I354J87D01*
G01*
X320398Y219280D02*
G03*
X320207Y216396I43031J-4288D01*
G01*
X334720Y219280D02*
G03*
X334911Y216396I654584J41749D01*
G01*
X334646Y216130D02*
G03*
X334911Y216396I-92J357D01*
G01*
X320398Y220878D02*
G03*
X320207Y223761I-655314J-41797D01*
G01*
X320472Y224027D02*
G03*
X320207Y223761I92J-357D01*
G01*
X334911Y223761D02*
G03*
X334646Y224027I-354J-87D01*
G01*
X334720Y220878D02*
G03*
X334911Y223761I-43031J4288D01*
G01*
X335249Y219280D02*
G03*
X336417Y218018I5218J3661D01*
G01*
X334646Y216130D02*
G03*
X336417Y217902I0J1772D01*
G01*
X320472Y224027D02*
G03*
X318701Y222256I0J-1772D01*
G01*
Y217902D02*
G03*
X320472Y216130I1772J0D01*
G01*
X336417Y222256D02*
G03*
X334646Y224027I-1772J0D01*
G01*
X337402Y218898D02*
G03*
X337402Y221260I0J1181D01*
G01*
X317717D02*
G03*
X317717Y218898I0J-1181D01*
G01*
X172317Y222924D02*
G03*
X171261Y220932I1321J-1976D01*
G01*
X171260Y219224D02*
G03*
X172298Y217250I2376J-11D01*
G01*
X190945Y220933D02*
G03*
X189907Y222907I-2376J11D01*
G01*
X189888Y217234D02*
G03*
X190944Y219226I-1321J1976D01*
G01*
X188454Y223761D02*
G03*
X188189Y224027I-354J-87D01*
G01*
X188264Y220878D02*
G03*
X188454Y223761I-43031J4288D01*
G01*
X173941Y220878D02*
G03*
X173751Y223761I-654584J-41749D01*
G01*
X174016Y224027D02*
G03*
X173751Y223761I92J-357D01*
G01*
X188264Y219280D02*
G03*
X188454Y216396I655314J41797D01*
G01*
X188189Y216130D02*
G03*
X188454Y216396I-92J357D01*
G01*
X173751Y216396D02*
G03*
X174016Y216130I354J87D01*
G01*
X173941Y219280D02*
G03*
X173751Y216396I43031J-4288D01*
G01*
X173412Y220878D02*
G03*
X172244Y222139I-5218J-3661D01*
G01*
X174016Y224027D02*
G03*
X172244Y222256I0J-1772D01*
G01*
X188189Y216130D02*
G03*
X189961Y217902I0J1772D01*
G01*
Y222256D02*
G03*
X188189Y224027I-1772J0D01*
G01*
X172244Y217902D02*
G03*
X174016Y216130I1772J0D01*
G01*
X171260Y221260D02*
G03*
X171260Y218898I0J-1181D01*
G01*
X190945D02*
G03*
X190945Y221260I0J1181D01*
G01*
X52667Y296595D02*
G03*
X54659Y295539I1976J1321D01*
G01*
X56366Y295538D02*
G03*
X58340Y296576I11J2376D01*
G01*
X54657Y315223D02*
G03*
X52684Y314186I-11J-2376D01*
G01*
X58357Y314166D02*
G03*
X56365Y315222I-1976J-1321D01*
G01*
X51829Y312732D02*
G03*
X51563Y312467I87J-354D01*
G01*
X54713Y312542D02*
G03*
X51829Y312732I-4288J-43031D01*
G01*
X54713Y298219D02*
G03*
X51829Y298029I41749J-654584D01*
G01*
X51563Y298294D02*
G03*
X51829Y298029I357J92D01*
G01*
X56311Y312542D02*
G03*
X59194Y312732I-41797J655314D01*
G01*
X59460Y312467D02*
G03*
X59194Y312732I-357J-92D01*
G01*
X59194Y298029D02*
G03*
X59460Y298294I-87J354D01*
G01*
X56311Y298219D02*
G03*
X59194Y298029I4288J43031D01*
G01*
X54713Y297691D02*
G03*
X53451Y296522I3661J-5218D01*
G01*
X51563Y298294D02*
G03*
X53335Y296522I1772J0D01*
G01*
X59460Y312467D02*
G03*
X57689Y314239I-1772J0D01*
G01*
X53335D02*
G03*
X51563Y312467I0J-1772D01*
G01*
X57689Y296522D02*
G03*
X59460Y298294I0J1772D01*
G01*
X54331Y295538D02*
G03*
X56693Y295538I1181J0D01*
G01*
Y315223D02*
G03*
X54331Y315223I-1181J0D01*
G01*
X52667Y339640D02*
G03*
X54659Y338584I1976J1321D01*
G01*
X56366Y338583D02*
G03*
X58340Y339620I11J2376D01*
G01*
X54657Y358268D02*
G03*
X52684Y357230I-11J-2376D01*
G01*
X58357Y357211D02*
G03*
X56365Y358266I-1976J-1321D01*
G01*
X51829Y355777D02*
G03*
X51563Y355512I87J-354D01*
G01*
X54713Y355587D02*
G03*
X51829Y355777I-4288J-43031D01*
G01*
X54713Y341264D02*
G03*
X51829Y341073I41749J-654584D01*
G01*
X51563Y341339D02*
G03*
X51829Y341073I357J92D01*
G01*
X56311Y355587D02*
G03*
X59194Y355777I-41797J655314D01*
G01*
X59460Y355512D02*
G03*
X59194Y355777I-357J-92D01*
G01*
X59194Y341073D02*
G03*
X59460Y341339I-87J354D01*
G01*
X56311Y341264D02*
G03*
X59194Y341073I4288J43031D01*
G01*
X54713Y340735D02*
G03*
X53451Y339567I3661J-5218D01*
G01*
X51563Y341339D02*
G03*
X53335Y339567I1772J0D01*
G01*
X59460Y355512D02*
G03*
X57689Y357283I-1772J0D01*
G01*
X53335D02*
G03*
X51563Y355512I0J-1772D01*
G01*
X57689Y339567D02*
G03*
X59460Y341339I0J1772D01*
G01*
X54331Y338583D02*
G03*
X56693Y338583I1181J0D01*
G01*
Y358268D02*
G03*
X54331Y358268I-1181J0D01*
G01*
X52667Y253550D02*
G03*
X54659Y252495I1976J1321D01*
G01*
X56366Y252493D02*
G03*
X58340Y253531I11J2376D01*
G01*
X54657Y272179D02*
G03*
X52684Y271141I-11J-2376D01*
G01*
X58357Y271122D02*
G03*
X56365Y272177I-1976J-1321D01*
G01*
X51829Y269688D02*
G03*
X51563Y269423I87J-354D01*
G01*
X54713Y269497D02*
G03*
X51829Y269688I-4288J-43031D01*
G01*
X54713Y255174D02*
G03*
X51829Y254984I41749J-654584D01*
G01*
X51563Y255249D02*
G03*
X51829Y254984I357J92D01*
G01*
X56311Y269497D02*
G03*
X59194Y269688I-41797J655314D01*
G01*
X59460Y269423D02*
G03*
X59194Y269688I-357J-92D01*
G01*
X59194Y254984D02*
G03*
X59460Y255249I-87J354D01*
G01*
X56311Y255174D02*
G03*
X59194Y254984I4288J43031D01*
G01*
X54713Y254646D02*
G03*
X53451Y253478I3661J-5218D01*
G01*
X51563Y255249D02*
G03*
X53335Y253478I1772J0D01*
G01*
X59460Y269423D02*
G03*
X57689Y271194I-1772J0D01*
G01*
X53335D02*
G03*
X51563Y269423I0J-1772D01*
G01*
X57689Y253478D02*
G03*
X59460Y255249I0J1772D01*
G01*
X54331Y252493D02*
G03*
X56693Y252493I1181J0D01*
G01*
Y272179D02*
G03*
X54331Y272179I-1181J0D01*
G01*
X52667Y210506D02*
G03*
X54659Y209450I1976J1321D01*
G01*
X56366Y209449D02*
G03*
X58340Y210486I11J2376D01*
G01*
X54657Y229134D02*
G03*
X52684Y228096I-11J-2376D01*
G01*
X58357Y228077D02*
G03*
X56365Y229133I-1976J-1321D01*
G01*
X51829Y226643D02*
G03*
X51563Y226378I87J-354D01*
G01*
X54713Y226453D02*
G03*
X51829Y226643I-4288J-43031D01*
G01*
X54713Y212130D02*
G03*
X51829Y211940I41749J-654584D01*
G01*
X51563Y212205D02*
G03*
X51829Y211940I357J92D01*
G01*
X56311Y226453D02*
G03*
X59194Y226643I-41797J655314D01*
G01*
X59460Y226378D02*
G03*
X59194Y226643I-357J-92D01*
G01*
X59194Y211940D02*
G03*
X59460Y212205I-87J354D01*
G01*
X56311Y212130D02*
G03*
X59194Y211940I4288J43031D01*
G01*
X54713Y211601D02*
G03*
X53451Y210433I3661J-5218D01*
G01*
X51563Y212205D02*
G03*
X53335Y210433I1772J0D01*
G01*
X59460Y226378D02*
G03*
X57689Y228150I-1772J0D01*
G01*
X53335D02*
G03*
X51563Y226378I0J-1772D01*
G01*
X57689Y210433D02*
G03*
X59460Y212205I0J1772D01*
G01*
X54331Y209449D02*
G03*
X56693Y209449I1181J0D01*
G01*
Y229134D02*
G03*
X54331Y229134I-1181J0D01*
G01*
X141659Y52273D02*
G03*
X142715Y54265I-1321J1976D01*
G01*
X142716Y55972D02*
G03*
X141679Y57946I-2376J11D01*
G01*
X123031Y54264D02*
G03*
X124069Y52290I2376J-11D01*
G01*
X124088Y57963D02*
G03*
X123033Y55971I1321J-1976D01*
G01*
X125522Y51436D02*
G03*
X125787Y51170I354J87D01*
G01*
X125712Y54319D02*
G03*
X125522Y51436I43031J-4288D01*
G01*
X140035Y54319D02*
G03*
X140226Y51436I654584J41749D01*
G01*
X139961Y51170D02*
G03*
X140226Y51436I-92J357D01*
G01*
X125712Y55917D02*
G03*
X125522Y58801I-655314J-41797D01*
G01*
X125787Y59067D02*
G03*
X125522Y58801I92J-357D01*
G01*
X140226Y58800D02*
G03*
X139961Y59067I-354J-87D01*
G01*
X140035Y55917D02*
G03*
X140226Y58800I-43031J4288D01*
G01*
X140564Y54319D02*
G03*
X141732Y53058I5218J3661D01*
G01*
X139961Y51170D02*
G03*
X141732Y52941I0J1772D01*
G01*
X125787Y59067D02*
G03*
X124016Y57295I0J-1772D01*
G01*
Y52941D02*
G03*
X125787Y51170I1772J0D01*
G01*
X141732Y57295D02*
G03*
X139961Y59067I-1772J0D01*
G01*
X142716Y53937D02*
G03*
X142716Y56299I0J1181D01*
G01*
X123031D02*
G03*
X123031Y53937I0J-1181D01*
G01*
X43773Y57963D02*
G03*
X42718Y55971I1321J-1976D01*
G01*
X42717Y54264D02*
G03*
X43754Y52290I2376J-11D01*
G01*
X62402Y55972D02*
G03*
X61364Y57946I-2376J11D01*
G01*
X61345Y52273D02*
G03*
X62400Y54265I-1321J1976D01*
G01*
X59911Y58800D02*
G03*
X59646Y59067I-354J-87D01*
G01*
X59721Y55917D02*
G03*
X59911Y58800I-43031J4288D01*
G01*
X45398Y55917D02*
G03*
X45207Y58800I-654584J-41749D01*
G01*
X45472Y59067D02*
G03*
X45207Y58800I92J-357D01*
G01*
X59721Y54319D02*
G03*
X59911Y51436I655314J41797D01*
G01*
X59646Y51170D02*
G03*
X59911Y51436I-92J357D01*
G01*
X45207Y51436D02*
G03*
X45472Y51170I354J87D01*
G01*
X45398Y54319D02*
G03*
X45207Y51436I43031J-4288D01*
G01*
X44869Y55917D02*
G03*
X43701Y57178I-5218J-3661D01*
G01*
X45472Y59067D02*
G03*
X43701Y57295I0J-1772D01*
G01*
X59646Y51170D02*
G03*
X61417Y52941I0J1772D01*
G01*
Y57295D02*
G03*
X59646Y59067I-1772J0D01*
G01*
X43701Y52941D02*
G03*
X45472Y51170I1772J0D01*
G01*
X42717Y56299D02*
G03*
X42717Y53937I0J-1181D01*
G01*
X62402D02*
G03*
X62402Y56299I0J1181D01*
G01*
X114872Y257356D02*
G03*
X116863Y256300I1976J1321D01*
G01*
X118571Y256299D02*
G03*
X120545Y257337I11J2376D01*
G01*
X116862Y275984D02*
G03*
X114888Y274947I-11J-2376D01*
G01*
X120562Y274927D02*
G03*
X118570Y275983I-1976J-1321D01*
G01*
X114034Y273493D02*
G03*
X113768Y273228I87J-354D01*
G01*
X116918Y273303D02*
G03*
X114034Y273493I-4288J-43031D01*
G01*
X116918Y258980D02*
G03*
X114034Y258790I41749J-654584D01*
G01*
X113768Y259055D02*
G03*
X114034Y258790I357J92D01*
G01*
X118516Y273303D02*
G03*
X121399Y273493I-41797J655314D01*
G01*
X121665Y273228D02*
G03*
X121399Y273493I-357J-92D01*
G01*
X121399Y258790D02*
G03*
X121665Y259055I-87J354D01*
G01*
X118516Y258980D02*
G03*
X121399Y258790I4288J43031D01*
G01*
X116918Y258452D02*
G03*
X115656Y257283I3661J-5218D01*
G01*
X113768Y259055D02*
G03*
X115540Y257283I1772J0D01*
G01*
X121665Y273228D02*
G03*
X119894Y275000I-1772J0D01*
G01*
X115540D02*
G03*
X113768Y273228I0J-1772D01*
G01*
X119894Y257283D02*
G03*
X121665Y259055I0J1772D01*
G01*
X116535Y256299D02*
G03*
X118898Y256299I1181J0D01*
G01*
Y275984D02*
G03*
X116535Y275984I-1181J0D01*
G01*
X114872Y210506D02*
G03*
X116863Y209450I1976J1321D01*
G01*
X118571Y209449D02*
G03*
X120545Y210486I11J2376D01*
G01*
X116862Y229134D02*
G03*
X114888Y228096I-11J-2376D01*
G01*
X120562Y228077D02*
G03*
X118570Y229133I-1976J-1321D01*
G01*
X114034Y226643D02*
G03*
X113768Y226378I87J-354D01*
G01*
X116918Y226453D02*
G03*
X114034Y226643I-4288J-43031D01*
G01*
X116918Y212130D02*
G03*
X114034Y211940I41749J-654584D01*
G01*
X113768Y212205D02*
G03*
X114034Y211940I357J92D01*
G01*
X118516Y226453D02*
G03*
X121399Y226643I-41797J655314D01*
G01*
X121665Y226378D02*
G03*
X121399Y226643I-357J-92D01*
G01*
X121399Y211940D02*
G03*
X121665Y212205I-87J354D01*
G01*
X118516Y212130D02*
G03*
X121399Y211940I4288J43031D01*
G01*
X116918Y211601D02*
G03*
X115656Y210433I3661J-5218D01*
G01*
X113768Y212205D02*
G03*
X115540Y210433I1772J0D01*
G01*
X121665Y226378D02*
G03*
X119894Y228150I-1772J0D01*
G01*
X115540D02*
G03*
X113768Y226378I0J-1772D01*
G01*
X119894Y210433D02*
G03*
X121665Y212205I0J1772D01*
G01*
X116535Y209449D02*
G03*
X118898Y209449I1181J0D01*
G01*
Y229134D02*
G03*
X116535Y229134I-1181J0D01*
G01*
X120561Y299324D02*
X120579Y299350D01*
X120638Y299431D01*
X114799Y299425D02*
X114867Y299331D01*
X114872Y299325D01*
X114854Y316870D02*
X114871Y316898D01*
X114795Y316790D02*
X114854Y316870D01*
X120566Y316889D02*
X120634Y316796D01*
X120561Y316896D02*
X120566Y316889D01*
X118516Y315800D02*
X118593Y315812D01*
X118685Y315854D01*
X118785Y315928D01*
X118869Y316010D01*
X119090Y316273D01*
X119278Y316514D01*
X119447Y316719D01*
X119594Y316869D01*
X119694Y316943D01*
X119777Y316969D01*
X115656D02*
X115761Y316929D01*
X115900Y316811D01*
X116084Y316602D01*
X116312Y316312D01*
X116430Y316164D01*
X116565Y316009D01*
X116660Y315918D01*
X116780Y315836D01*
X116857Y315807D01*
X116918Y315800D01*
X119729Y299262D02*
X119777Y299252D01*
X119672Y299291D02*
X119729Y299262D01*
X119606Y299341D02*
X119672Y299291D01*
X119533Y299410D02*
X119606Y299341D01*
X119445Y299504D02*
X119533Y299410D01*
X119349Y299618D02*
X119445Y299504D01*
X119241Y299754D02*
X119349Y299618D01*
X119121Y299908D02*
X119241Y299754D01*
X119003Y300056D02*
X119121Y299908D01*
X118868Y300211D02*
X119003Y300056D01*
X118822Y300258D02*
X118868Y300211D01*
X118773Y300303D02*
X118822Y300258D01*
X118717Y300346D02*
X118773Y300303D01*
X118653Y300385D02*
X118717Y300346D01*
X118617Y300401D02*
X118653Y300385D01*
X118576Y300413D02*
X118617Y300401D01*
X118547Y300418D02*
X118576Y300413D01*
X118516Y300420D02*
X118547Y300418D01*
X116863Y298269D02*
X118571Y298268D01*
X116862Y317953D02*
X118570Y317952D01*
X116918Y300420D02*
Y315800D01*
X113768Y301024D02*
Y315197D01*
X121665Y301024D02*
Y315197D01*
X118516Y300420D02*
Y315800D01*
X116918Y315272D02*
X118516D01*
X116918Y300949D02*
X118516D01*
X116918Y300420D02*
X118516D01*
X116918Y315800D02*
X118516D01*
X115540Y316969D02*
X119893D01*
X115540Y299252D02*
X119893D01*
X114854Y357185D02*
X114872Y357212D01*
X114795Y357105D02*
X114854Y357185D01*
X120566Y357204D02*
X120634Y357111D01*
X120561Y357211D02*
X120566Y357204D01*
X120562Y339638D02*
X120579Y339665D01*
X120638Y339745D01*
X114799Y339740D02*
X114867Y339646D01*
X114872Y339640D01*
X116840Y340724D02*
X116918Y340735D01*
X116748Y340682D02*
X116840Y340724D01*
X116648Y340608D02*
X116748Y340682D01*
X116564Y340525D02*
X116648Y340608D01*
X116343Y340263D02*
X116564Y340525D01*
X116155Y340022D02*
X116343Y340263D01*
X115986Y339817D02*
X116155Y340022D01*
X115839Y339666D02*
X115986Y339817D01*
X115739Y339593D02*
X115839Y339666D01*
X115656Y339567D02*
X115739Y339593D01*
X119672Y339606D02*
X119777Y339567D01*
X119533Y339725D02*
X119672Y339606D01*
X119349Y339933D02*
X119533Y339725D01*
X119121Y340223D02*
X119349Y339933D01*
X119003Y340372D02*
X119121Y340223D01*
X118868Y340526D02*
X119003Y340372D01*
X118773Y340618D02*
X118868Y340526D01*
X118653Y340700D02*
X118773Y340618D01*
X118576Y340728D02*
X118653Y340700D01*
X118516Y340735D02*
X118576Y340728D01*
X115656Y357283D02*
X115705Y357274D01*
X115761Y357244D01*
X115827Y357195D01*
X115900Y357126D01*
X115988Y357032D01*
X116084Y356917D01*
X116192Y356781D01*
X116312Y356627D01*
X116430Y356479D01*
X116565Y356324D01*
X116611Y356278D01*
X116660Y356233D01*
X116716Y356189D01*
X116780Y356151D01*
X116816Y356135D01*
X116857Y356122D01*
X116886Y356117D01*
X116918Y356115D01*
X116862Y358268D02*
X118570Y358266D01*
X116863Y338584D02*
X118571Y338583D01*
X118516Y340735D02*
Y356115D01*
X121665Y341339D02*
Y355512D01*
X113768Y341339D02*
Y355512D01*
X116918Y340735D02*
Y356115D01*
Y341264D02*
X118516D01*
X116918Y355587D02*
X118516D01*
X116918Y356115D02*
X118516D01*
X116918Y340735D02*
X118516D01*
X115540Y339567D02*
X119893D01*
X115540Y357283D02*
X119893D01*
X336319Y222941D02*
X336346Y222923D01*
X336239Y223001D02*
X336319Y222941D01*
X336244Y217161D02*
X336338Y217229D01*
X336345Y217234D01*
X318771Y217233D02*
X318799Y217216D01*
X318879Y217157D01*
X318780Y222928D02*
X318874Y222996D01*
X318773Y222924D02*
X318780Y222928D01*
X319858Y220955D02*
X319869Y220878D01*
X319816Y221047D02*
X319858Y220955D01*
X319741Y221147D02*
X319816Y221047D01*
X319659Y221231D02*
X319741Y221147D01*
X319396Y221452D02*
X319659Y221231D01*
X319156Y221640D02*
X319396Y221452D01*
X318951Y221809D02*
X319156Y221640D01*
X318800Y221956D02*
X318951Y221809D01*
X318726Y222057D02*
X318800Y221956D01*
X318701Y222139D02*
X318726Y222057D01*
X318701Y218018D02*
X318740Y218123D01*
X318858Y218263D01*
X319067Y218447D01*
X319357Y218674D01*
X319506Y218792D01*
X319660Y218927D01*
X319751Y219023D01*
X319833Y219142D01*
X319862Y219219D01*
X319869Y219280D01*
X336408Y222091D02*
X336417Y222139D01*
X336378Y222034D02*
X336408Y222091D01*
X336329Y221968D02*
X336378Y222034D01*
X336260Y221895D02*
X336329Y221968D01*
X336166Y221807D02*
X336260Y221895D01*
X336051Y221711D02*
X336166Y221807D01*
X335915Y221603D02*
X336051Y221711D01*
X335761Y221483D02*
X335915Y221603D01*
X335613Y221366D02*
X335761Y221483D01*
X335458Y221230D02*
X335613Y221366D01*
X335412Y221184D02*
X335458Y221230D01*
X335367Y221135D02*
X335412Y221184D01*
X335323Y221079D02*
X335367Y221135D01*
X335285Y221016D02*
X335323Y221079D01*
X335268Y220979D02*
X335285Y221016D01*
X335256Y220939D02*
X335268Y220979D01*
X335251Y220909D02*
X335256Y220939D01*
X335249Y220878D02*
X335251Y220909D01*
X337400Y219226D02*
X337402Y220933D01*
X317717Y219224D02*
X317718Y220932D01*
X319869Y219280D02*
X335249D01*
X320472Y216130D02*
X334646D01*
X320472Y224027D02*
X334646D01*
X319869Y220878D02*
X335249D01*
X320398Y219280D02*
Y220878D01*
X334720Y219280D02*
Y220878D01*
X335249Y219280D02*
Y220878D01*
X319869Y219280D02*
Y220878D01*
X318701Y217902D02*
Y222256D01*
X336417Y217902D02*
Y222256D01*
X172316Y217234D02*
X172342Y217216D01*
X172423Y217157D01*
X172323Y222928D02*
X172417Y222996D01*
X172317Y222924D02*
X172323Y222928D01*
X189862Y222941D02*
X189890Y222924D01*
X189782Y223001D02*
X189862Y222941D01*
X189788Y217161D02*
X189881Y217229D01*
X189888Y217234D01*
X188792Y219280D02*
X188804Y219202D01*
X188846Y219110D01*
X188920Y219011D01*
X189002Y218926D01*
X189265Y218705D01*
X189506Y218517D01*
X189711Y218348D01*
X189861Y218201D01*
X189935Y218101D01*
X189961Y218018D01*
X189922Y222034D02*
X189961Y222139D01*
X189803Y221895D02*
X189922Y222034D01*
X189594Y221711D02*
X189803Y221895D01*
X189305Y221483D02*
X189594Y221711D01*
X189156Y221365D02*
X189305Y221483D01*
X189001Y221230D02*
X189156Y221365D01*
X188910Y221135D02*
X189001Y221230D01*
X188828Y221016D02*
X188910Y221135D01*
X188799Y220939D02*
X188828Y221016D01*
X188792Y220878D02*
X188799Y220939D01*
X172244Y218018D02*
X172254Y218067D01*
X172283Y218123D01*
X172333Y218189D01*
X172402Y218263D01*
X172496Y218350D01*
X172610Y218447D01*
X172746Y218555D01*
X172900Y218674D01*
X173048Y218792D01*
X173203Y218927D01*
X173250Y218973D01*
X173295Y219023D01*
X173338Y219078D01*
X173377Y219142D01*
X173393Y219179D01*
X173405Y219219D01*
X173411Y219249D01*
X173412Y219280D01*
X171260Y219224D02*
X171261Y220932D01*
X190944Y219226D02*
X190945Y220933D01*
X173412Y220878D02*
X188792D01*
X174016Y224027D02*
X188189D01*
X174016Y216130D02*
X188189D01*
X173412Y219280D02*
X188792D01*
X188264D02*
Y220878D01*
X173941Y219280D02*
Y220878D01*
X173412Y219280D02*
Y220878D01*
X188792Y219280D02*
Y220878D01*
X189961Y217902D02*
Y222256D01*
X172244Y217902D02*
Y222256D01*
X58356Y296594D02*
X58375Y296621D01*
X58434Y296701D01*
X52595Y296695D02*
X52662Y296601D01*
X52667Y296595D01*
X52649Y314141D02*
X52666Y314168D01*
X52590Y314060D02*
X52649Y314141D01*
X58361Y314160D02*
X58429Y314066D01*
X58357Y314166D02*
X58361Y314160D01*
X56311Y313071D02*
X56388Y313082D01*
X56480Y313124D01*
X56580Y313198D01*
X56664Y313281D01*
X56886Y313543D01*
X57073Y313784D01*
X57242Y313989D01*
X57389Y314139D01*
X57490Y314213D01*
X57572Y314239D01*
X53451D02*
X53556Y314200D01*
X53696Y314081D01*
X53880Y313872D01*
X54107Y313583D01*
X54225Y313434D01*
X54360Y313279D01*
X54456Y313188D01*
X54575Y313106D01*
X54652Y313078D01*
X54713Y313071D01*
X57524Y296532D02*
X57572Y296522D01*
X57467Y296561D02*
X57524Y296532D01*
X57402Y296611D02*
X57467Y296561D01*
X57328Y296680D02*
X57402Y296611D01*
X57241Y296774D02*
X57328Y296680D01*
X57144Y296889D02*
X57241Y296774D01*
X57036Y297025D02*
X57144Y296889D01*
X56916Y297178D02*
X57036Y297025D01*
X56799Y297326D02*
X56916Y297178D01*
X56663Y297482D02*
X56799Y297326D01*
X56617Y297528D02*
X56663Y297482D01*
X56568Y297573D02*
X56617Y297528D01*
X56512Y297616D02*
X56568Y297573D01*
X56449Y297655D02*
X56512Y297616D01*
X56412Y297671D02*
X56449Y297655D01*
X56372Y297684D02*
X56412Y297671D01*
X56342Y297689D02*
X56372Y297684D01*
X56311Y297691D02*
X56342Y297689D01*
X54659Y295539D02*
X56366Y295538D01*
X54657Y315223D02*
X56365Y315222D01*
X54713Y297691D02*
Y313071D01*
X51563Y298294D02*
Y312467D01*
X59460Y298294D02*
Y312467D01*
X56311Y297691D02*
Y313071D01*
X54713Y312542D02*
X56311D01*
X54713Y298219D02*
X56311D01*
X54713Y297691D02*
X56311D01*
X54713Y313071D02*
X56311D01*
X53335Y314239D02*
X57689D01*
X53335Y296522D02*
X57689D01*
X58356Y339638D02*
X58375Y339665D01*
X58434Y339745D01*
X52595Y339740D02*
X52662Y339646D01*
X52667Y339640D01*
X52649Y357185D02*
X52666Y357213D01*
X52590Y357105D02*
X52649Y357185D01*
X58361Y357204D02*
X58429Y357110D01*
X58357Y357211D02*
X58361Y357204D01*
X56311Y356115D02*
X56388Y356127D01*
X56480Y356168D01*
X56580Y356243D01*
X56664Y356325D01*
X56886Y356588D01*
X57073Y356829D01*
X57242Y357034D01*
X57389Y357184D01*
X57490Y357258D01*
X57572Y357283D01*
X53451D02*
X53556Y357244D01*
X53696Y357126D01*
X53880Y356917D01*
X54107Y356627D01*
X54225Y356478D01*
X54360Y356324D01*
X54456Y356233D01*
X54575Y356151D01*
X54652Y356122D01*
X54713Y356115D01*
X57524Y339577D02*
X57572Y339567D01*
X57467Y339606D02*
X57524Y339577D01*
X57402Y339656D02*
X57467Y339606D01*
X57328Y339725D02*
X57402Y339656D01*
X57241Y339819D02*
X57328Y339725D01*
X57144Y339933D02*
X57241Y339819D01*
X57036Y340069D02*
X57144Y339933D01*
X56916Y340223D02*
X57036Y340069D01*
X56799Y340371D02*
X56916Y340223D01*
X56663Y340526D02*
X56799Y340371D01*
X56617Y340572D02*
X56663Y340526D01*
X56568Y340618D02*
X56617Y340572D01*
X56512Y340661D02*
X56568Y340618D01*
X56449Y340700D02*
X56512Y340661D01*
X56412Y340716D02*
X56449Y340700D01*
X56372Y340728D02*
X56412Y340716D01*
X56342Y340733D02*
X56372Y340728D01*
X56311Y340735D02*
X56342Y340733D01*
X54659Y338584D02*
X56366Y338583D01*
X54657Y358268D02*
X56365Y358266D01*
X54713Y340735D02*
Y356115D01*
X51563Y341339D02*
Y355512D01*
X59460Y341339D02*
Y355512D01*
X56311Y340735D02*
Y356115D01*
X54713Y355587D02*
X56311D01*
X54713Y341264D02*
X56311D01*
X54713Y340735D02*
X56311D01*
X54713Y356115D02*
X56311D01*
X53335Y357283D02*
X57689D01*
X53335Y339567D02*
X57689D01*
X58356Y253549D02*
X58375Y253576D01*
X58434Y253656D01*
X52595Y253651D02*
X52662Y253557D01*
X52667Y253550D01*
X52649Y271096D02*
X52666Y271124D01*
X52590Y271016D02*
X52649Y271096D01*
X58361Y271115D02*
X58429Y271021D01*
X58357Y271122D02*
X58361Y271115D01*
X56311Y270026D02*
X56388Y270037D01*
X56480Y270079D01*
X56580Y270154D01*
X56664Y270236D01*
X56886Y270499D01*
X57073Y270739D01*
X57242Y270944D01*
X57389Y271095D01*
X57490Y271169D01*
X57572Y271194D01*
X53451D02*
X53556Y271155D01*
X53696Y271037D01*
X53880Y270828D01*
X54107Y270538D01*
X54225Y270389D01*
X54360Y270235D01*
X54456Y270144D01*
X54575Y270062D01*
X54652Y270033D01*
X54713Y270026D01*
X57524Y253487D02*
X57572Y253478D01*
X57467Y253517D02*
X57524Y253487D01*
X57402Y253566D02*
X57467Y253517D01*
X57328Y253635D02*
X57402Y253566D01*
X57241Y253729D02*
X57328Y253635D01*
X57144Y253844D02*
X57241Y253729D01*
X57036Y253980D02*
X57144Y253844D01*
X56916Y254134D02*
X57036Y253980D01*
X56799Y254282D02*
X56916Y254134D01*
X56663Y254437D02*
X56799Y254282D01*
X56617Y254483D02*
X56663Y254437D01*
X56568Y254528D02*
X56617Y254483D01*
X56512Y254572D02*
X56568Y254528D01*
X56449Y254610D02*
X56512Y254572D01*
X56412Y254627D02*
X56449Y254610D01*
X56372Y254639D02*
X56412Y254627D01*
X56342Y254644D02*
X56372Y254639D01*
X56311Y254646D02*
X56342Y254644D01*
X54659Y252495D02*
X56366Y252493D01*
X54657Y272178D02*
X56365Y272177D01*
X54713Y254646D02*
Y270026D01*
X51563Y255249D02*
Y269423D01*
X59460Y255249D02*
Y269423D01*
X56311Y254646D02*
Y270026D01*
X54713Y269497D02*
X56311D01*
X54713Y255175D02*
X56311D01*
X54713Y254646D02*
X56311D01*
X54713Y270026D02*
X56311D01*
X53335Y271194D02*
X57689D01*
X53335Y253478D02*
X57689D01*
X58356Y210505D02*
X58375Y210531D01*
X58434Y210612D01*
X52595Y210606D02*
X52662Y210512D01*
X52667Y210506D01*
X52649Y228051D02*
X52666Y228079D01*
X52590Y227971D02*
X52649Y228051D01*
X58361Y228070D02*
X58429Y227977D01*
X58357Y228077D02*
X58361Y228070D01*
X56311Y226981D02*
X56388Y226993D01*
X56480Y227035D01*
X56580Y227109D01*
X56664Y227191D01*
X56886Y227454D01*
X57073Y227695D01*
X57242Y227900D01*
X57389Y228050D01*
X57490Y228124D01*
X57572Y228150D01*
X53451D02*
X53556Y228110D01*
X53696Y227992D01*
X53880Y227783D01*
X54107Y227493D01*
X54225Y227345D01*
X54360Y227190D01*
X54456Y227099D01*
X54575Y227017D01*
X54652Y226988D01*
X54713Y226981D01*
X57524Y210443D02*
X57572Y210433D01*
X57467Y210472D02*
X57524Y210443D01*
X57402Y210522D02*
X57467Y210472D01*
X57328Y210591D02*
X57402Y210522D01*
X57241Y210685D02*
X57328Y210591D01*
X57144Y210799D02*
X57241Y210685D01*
X57036Y210935D02*
X57144Y210799D01*
X56916Y211089D02*
X57036Y210935D01*
X56799Y211237D02*
X56916Y211089D01*
X56663Y211392D02*
X56799Y211237D01*
X56617Y211439D02*
X56663Y211392D01*
X56568Y211484D02*
X56617Y211439D01*
X56512Y211527D02*
X56568Y211484D01*
X56449Y211566D02*
X56512Y211527D01*
X56412Y211582D02*
X56449Y211566D01*
X56372Y211594D02*
X56412Y211582D01*
X56342Y211599D02*
X56372Y211594D01*
X56311Y211601D02*
X56342Y211599D01*
X54659Y209450D02*
X56366Y209449D01*
X54657Y229134D02*
X56365Y229133D01*
X54713Y211601D02*
Y226981D01*
X51563Y212205D02*
Y226378D01*
X59460Y212205D02*
Y226378D01*
X56311Y211601D02*
Y226981D01*
X54713Y226453D02*
X56311D01*
X54713Y212130D02*
X56311D01*
X54713Y211601D02*
X56311D01*
X54713Y226981D02*
X56311D01*
X53335Y228150D02*
X57689D01*
X53335Y210433D02*
X57689D01*
X141634Y57981D02*
X141661Y57963D01*
X141554Y58040D02*
X141634Y57981D01*
X141559Y52201D02*
X141653Y52269D01*
X141660Y52273D01*
X124086Y52272D02*
X124114Y52255D01*
X124194Y52196D01*
X124095Y57967D02*
X124189Y58035D01*
X124088Y57963D02*
X124095Y57967D01*
X125172Y55995D02*
X125184Y55917D01*
X125131Y56087D02*
X125172Y55995D01*
X125056Y56186D02*
X125131Y56087D01*
X124974Y56271D02*
X125056Y56186D01*
X124711Y56492D02*
X124974Y56271D01*
X124471Y56679D02*
X124711Y56492D01*
X124266Y56848D02*
X124471Y56679D01*
X124115Y56995D02*
X124266Y56848D01*
X124041Y57096D02*
X124115Y56995D01*
X124016Y57179D02*
X124041Y57096D01*
X124016Y53058D02*
X124055Y53163D01*
X124173Y53302D01*
X124382Y53486D01*
X124672Y53714D01*
X124821Y53831D01*
X124975Y53967D01*
X125066Y54062D01*
X125148Y54181D01*
X125177Y54258D01*
X125184Y54319D01*
X141722Y57130D02*
X141732Y57179D01*
X141693Y57073D02*
X141722Y57130D01*
X141644Y57008D02*
X141693Y57073D01*
X141575Y56934D02*
X141644Y57008D01*
X141480Y56847D02*
X141575Y56934D01*
X141366Y56750D02*
X141480Y56847D01*
X141230Y56642D02*
X141366Y56750D01*
X141076Y56523D02*
X141230Y56642D01*
X140928Y56405D02*
X141076Y56523D01*
X140773Y56269D02*
X140928Y56405D01*
X140727Y56224D02*
X140773Y56269D01*
X140682Y56174D02*
X140727Y56224D01*
X140638Y56119D02*
X140682Y56174D01*
X140599Y56055D02*
X140638Y56119D01*
X140583Y56018D02*
X140599Y56055D01*
X140571Y55978D02*
X140583Y56018D01*
X140566Y55948D02*
X140571Y55978D01*
X140564Y55917D02*
X140566Y55948D01*
X142715Y54265D02*
X142716Y55972D01*
X123031Y54264D02*
X123033Y55971D01*
X125184Y54319D02*
X140564D01*
X125787Y51170D02*
X139960D01*
X125787Y59067D02*
X139960D01*
X125184Y55917D02*
X140564D01*
X125712Y54319D02*
Y55917D01*
X140035Y54319D02*
Y55917D01*
X140564Y54319D02*
Y55917D01*
X125184Y54319D02*
Y55917D01*
X124016Y52941D02*
Y57295D01*
X141732Y52941D02*
Y57295D01*
X43772Y52274D02*
X43799Y52255D01*
X43879Y52196D01*
X43780Y57967D02*
X43874Y58035D01*
X43773Y57963D02*
X43780Y57967D01*
X61319Y57981D02*
X61347Y57964D01*
X61239Y58040D02*
X61319Y57981D01*
X61244Y52201D02*
X61338Y52269D01*
X61345Y52273D01*
X60249Y54319D02*
X60261Y54241D01*
X60302Y54150D01*
X60377Y54050D01*
X60459Y53966D01*
X60722Y53744D01*
X60962Y53557D01*
X61167Y53388D01*
X61318Y53241D01*
X61392Y53140D01*
X61417Y53058D01*
X61378Y57073D02*
X61417Y57179D01*
X61260Y56934D02*
X61378Y57073D01*
X61051Y56750D02*
X61260Y56934D01*
X60761Y56523D02*
X61051Y56750D01*
X60612Y56405D02*
X60761Y56523D01*
X60458Y56269D02*
X60612Y56405D01*
X60367Y56174D02*
X60458Y56269D01*
X60285Y56055D02*
X60367Y56174D01*
X60256Y55978D02*
X60285Y56055D01*
X60249Y55917D02*
X60256Y55978D01*
X43701Y53058D02*
X43711Y53106D01*
X43740Y53163D01*
X43789Y53228D01*
X43858Y53302D01*
X43953Y53389D01*
X44067Y53486D01*
X44203Y53594D01*
X44357Y53714D01*
X44505Y53831D01*
X44660Y53967D01*
X44706Y54012D01*
X44751Y54062D01*
X44795Y54118D01*
X44834Y54181D01*
X44850Y54218D01*
X44862Y54258D01*
X44867Y54288D01*
X44869Y54319D01*
X42717Y54264D02*
X42718Y55971D01*
X62400Y54265D02*
X62402Y55972D01*
X44869Y55917D02*
X60249D01*
X45473Y59067D02*
X59646D01*
X45473Y51170D02*
X59646D01*
X44869Y54319D02*
X60249D01*
X59721D02*
Y55917D01*
X45398Y54319D02*
Y55917D01*
X44869Y54319D02*
Y55917D01*
X60249Y54319D02*
Y55917D01*
X61417Y52941D02*
Y57295D01*
X43701Y52941D02*
Y57295D01*
X120561Y257355D02*
X120579Y257382D01*
X120638Y257462D01*
X114799Y257456D02*
X114867Y257363D01*
X114872Y257356D01*
X114854Y274902D02*
X114871Y274929D01*
X114795Y274821D02*
X114854Y274902D01*
X120566Y274921D02*
X120634Y274827D01*
X120561Y274927D02*
X120566Y274921D01*
X118516Y273832D02*
X118593Y273843D01*
X118685Y273885D01*
X118785Y273959D01*
X118869Y274042D01*
X119090Y274304D01*
X119278Y274545D01*
X119447Y274750D01*
X119594Y274901D01*
X119694Y274974D01*
X119777Y275000D01*
X115656D02*
X115761Y274961D01*
X115900Y274842D01*
X116084Y274634D01*
X116312Y274344D01*
X116430Y274195D01*
X116565Y274041D01*
X116660Y273949D01*
X116780Y273867D01*
X116857Y273839D01*
X116918Y273832D01*
X119729Y257293D02*
X119777Y257283D01*
X119672Y257323D02*
X119729Y257293D01*
X119606Y257372D02*
X119672Y257323D01*
X119533Y257441D02*
X119606Y257372D01*
X119445Y257535D02*
X119533Y257441D01*
X119349Y257650D02*
X119445Y257535D01*
X119241Y257786D02*
X119349Y257650D01*
X119121Y257940D02*
X119241Y257786D01*
X119003Y258088D02*
X119121Y257940D01*
X118868Y258243D02*
X119003Y258088D01*
X118822Y258289D02*
X118868Y258243D01*
X118773Y258334D02*
X118822Y258289D01*
X118717Y258377D02*
X118773Y258334D01*
X118653Y258416D02*
X118717Y258377D01*
X118617Y258432D02*
X118653Y258416D01*
X118576Y258445D02*
X118617Y258432D01*
X118547Y258450D02*
X118576Y258445D01*
X118516Y258452D02*
X118547Y258450D01*
X116863Y256300D02*
X118571Y256299D01*
X116862Y275984D02*
X118570Y275983D01*
X116918Y258452D02*
Y273832D01*
X113768Y259055D02*
Y273228D01*
X121665Y259055D02*
Y273228D01*
X118516Y258452D02*
Y273832D01*
X116918Y273303D02*
X118516D01*
X116918Y258980D02*
X118516D01*
X116918Y258452D02*
X118516D01*
X116918Y273832D02*
X118516D01*
X115540Y275000D02*
X119893D01*
X115540Y257283D02*
X119893D01*
X120561Y210505D02*
X120579Y210531D01*
X120638Y210612D01*
X114799Y210606D02*
X114867Y210512D01*
X114872Y210506D01*
X114854Y228051D02*
X114871Y228079D01*
X114795Y227971D02*
X114854Y228051D01*
X120566Y228070D02*
X120634Y227977D01*
X120561Y228077D02*
X120566Y228070D01*
X118516Y226981D02*
X118593Y226993D01*
X118685Y227035D01*
X118785Y227109D01*
X118869Y227191D01*
X119090Y227454D01*
X119278Y227695D01*
X119447Y227900D01*
X119594Y228050D01*
X119694Y228124D01*
X119777Y228150D01*
X115656D02*
X115761Y228110D01*
X115900Y227992D01*
X116084Y227783D01*
X116312Y227493D01*
X116430Y227345D01*
X116565Y227190D01*
X116660Y227099D01*
X116780Y227017D01*
X116857Y226988D01*
X116918Y226981D01*
X119729Y210443D02*
X119777Y210433D01*
X119672Y210472D02*
X119729Y210443D01*
X119606Y210522D02*
X119672Y210472D01*
X119533Y210591D02*
X119606Y210522D01*
X119445Y210685D02*
X119533Y210591D01*
X119349Y210799D02*
X119445Y210685D01*
X119241Y210935D02*
X119349Y210799D01*
X119121Y211089D02*
X119241Y210935D01*
X119003Y211237D02*
X119121Y211089D01*
X118868Y211392D02*
X119003Y211237D01*
X118822Y211439D02*
X118868Y211392D01*
X118773Y211484D02*
X118822Y211439D01*
X118717Y211527D02*
X118773Y211484D01*
X118653Y211566D02*
X118717Y211527D01*
X118617Y211582D02*
X118653Y211566D01*
X118576Y211594D02*
X118617Y211582D01*
X118547Y211599D02*
X118576Y211594D01*
X118516Y211601D02*
X118547Y211599D01*
X116863Y209450D02*
X118571Y209449D01*
X116862Y229134D02*
X118570Y229133D01*
X116918Y211601D02*
Y226981D01*
X113768Y212205D02*
Y226378D01*
X121665Y212205D02*
Y226378D01*
X118516Y211601D02*
Y226981D01*
X116918Y226453D02*
X118516D01*
X116918Y212130D02*
X118516D01*
X116918Y211601D02*
X118516D01*
X116918Y226981D02*
X118516D01*
X115540Y228150D02*
X119893D01*
X115540Y210433D02*
X119893D01*
D13*
X270735Y55200D02*
X279218D01*
X152559Y107874D02*
X178543Y81890D01*
X243963D01*
X270735Y55118D01*
X62700Y239600D02*
X65183Y237117D01*
X270735Y55200D02*
Y83865D01*
X322142Y176000D02*
X351346D01*
X318000D02*
X322142D01*
X367795Y221654D01*
X316000Y169858D02*
X322142Y176000D01*
X372300Y219005D02*
X374949Y221654D01*
X367795Y214500D02*
X372300Y219005D01*
X300000Y56300D02*
X318700Y75000D01*
X277795Y34095D02*
X300000Y56300D01*
X293264Y22441D02*
X372283D01*
X291338Y20516D02*
X293264Y22441D01*
X246925Y20516D02*
X291338D01*
X243675Y23766D02*
X246925Y20516D01*
X243675Y23766D02*
Y27953D01*
X236614Y48000D02*
Y55118D01*
Y48000D02*
X240914Y43700D01*
X253142D01*
X274327Y22516D01*
X280711D01*
X282795Y24600D01*
Y27953D01*
X304366Y33500D02*
X341339Y70472D01*
X289000Y33500D02*
X304366D01*
X287795Y32295D02*
X289000Y33500D01*
X287795Y27953D02*
Y32295D01*
X277795Y27953D02*
Y34095D01*
X300000Y56300D02*
Y82913D01*
X287795Y95118D02*
X300000Y82913D01*
X363356Y89400D02*
X382283Y70472D01*
X307495Y89400D02*
X363356D01*
X287795Y109100D02*
X307495Y89400D01*
X287795Y109100D02*
Y117717D01*
X406377Y33700D02*
X417953Y45276D01*
X379900Y33700D02*
X406377D01*
X377600Y36000D02*
X379900Y33700D01*
X377600Y36000D02*
Y66900D01*
X369500Y75000D02*
X377600Y66900D01*
X318700Y75000D02*
X369500D01*
X430794Y39600D02*
X447953Y22441D01*
X423628Y39600D02*
X430794D01*
X417953Y45276D02*
X423628Y39600D01*
X409531Y186854D02*
X417953Y195276D01*
X371654Y186854D02*
X409531D01*
X352800Y168000D02*
X371654Y186854D01*
X320000Y168000D02*
X352800D01*
X364575Y163000D02*
X382283Y180709D01*
X316629Y163000D02*
X364575D01*
X316000Y163629D02*
X316629Y163000D01*
X316000Y163629D02*
Y169858D01*
X306300Y179500D02*
X353000Y226200D01*
X370100D01*
X372300Y224000D01*
Y219005D02*
Y224000D01*
X367795Y195276D02*
Y214500D01*
X374949Y221654D02*
X397795D01*
X190945Y194055D02*
Y220079D01*
Y194055D02*
X215900Y169100D01*
X241374D01*
X246684Y163791D01*
X254409D01*
X287795Y130405D01*
Y117717D02*
Y130405D01*
X250700Y168000D02*
X255300D01*
X286900Y136400D01*
X300000D01*
X304300Y140700D01*
Y162300D01*
X318000Y176000D01*
X351346D02*
X364200Y188854D01*
X381374D01*
X387795Y195276D01*
X291207Y140709D02*
Y173885D01*
X337402Y220079D01*
X344400Y274715D02*
X376772Y307087D01*
X344400Y227077D02*
Y274715D01*
X337402Y220079D02*
X344400Y227077D01*
X264487Y211600D02*
X313200D01*
X233596Y180709D02*
X264487Y211600D01*
X270735Y55118D02*
Y55200D01*
X279218D02*
X279300Y55118D01*
X287795D01*
X266400Y88200D02*
X270735Y83865D01*
X266400Y88200D02*
Y136374D01*
X270735Y140709D01*
X149681Y198500D02*
X152559Y195622D01*
X88000Y202500D02*
X92000Y198500D01*
X529228Y349858D02*
Y360630D01*
X444685Y333465D02*
X469024D01*
X487559Y352000D01*
X512835Y333465D02*
X529228Y349858D01*
X487559Y352000D02*
Y360630D01*
X75920Y366070D02*
X101120D01*
Y290168D02*
Y366070D01*
X75920Y290168D02*
X101120D01*
X75920D02*
Y365670D01*
D20*
X107744Y243701D02*
G03*
X107744Y243701I-19555J0D01*
G01*
D21*
X290862Y21651D02*
G03*
X274729Y21651I-8066J6302D01*
G01*
X256741D02*
G03*
X240608Y21651I-8066J6302D01*
G01*
X256741Y111415D02*
G03*
X240608Y111415I-8066J6302D01*
G01*
X290862D02*
G03*
X274729Y111415I-8066J6302D01*
G01*
X274729Y21654D02*
X290862D01*
X240608D02*
X256741D01*
X240608Y111417D02*
X256741D01*
X274729D02*
X290862D01*
X402282Y38526D02*
Y51526D01*
X362282Y38526D02*
X402282D01*
X362282D02*
Y51526D01*
Y56526D02*
X402282D01*
X362282Y51526D02*
Y56526D01*
Y51526D02*
X402282D01*
Y56526D01*
X447951Y188526D02*
Y201526D01*
X407951Y188526D02*
X447951D01*
X407951D02*
Y201526D01*
Y206526D02*
X447951D01*
X407951Y201526D02*
Y206526D01*
Y201526D02*
X447951D01*
Y206526D01*
Y38526D02*
Y51526D01*
X407951Y38526D02*
X447951D01*
X407951D02*
Y51526D01*
Y56526D02*
X447951D01*
X407951Y51526D02*
Y56526D01*
Y51526D02*
X447951D01*
Y56526D01*
X397794Y188526D02*
Y201526D01*
X357794Y188526D02*
X397794D01*
X357794D02*
Y201526D01*
Y206526D02*
X397794D01*
X357794Y201526D02*
Y206526D01*
Y201526D02*
X397794D01*
Y206526D01*
X280827Y27953D02*
X284764D01*
X282795Y25984D02*
Y29921D01*
X246706Y27953D02*
X250643D01*
X248675Y25984D02*
Y29921D01*
X246706Y117717D02*
X250643D01*
X248675Y115748D02*
Y119685D01*
X280827Y117717D02*
X284764D01*
X282795Y115748D02*
Y119685D01*
D22*
X480553Y22638D02*
G03*
X480553Y22638I-2994J0D01*
G01*
X525041Y306299D02*
G03*
X525041Y306299I-2994J0D01*
G01*
X480553Y163779D02*
G03*
X480553Y163779I-2994J0D01*
G01*
X480553Y306299D02*
G03*
X480553Y306299I-2994J0D01*
G01*
X527222Y22638D02*
G03*
X527222Y22638I-2994J0D01*
G01*
D46*
X171260Y287402D02*
X190945Y307087D01*
X171260Y220079D02*
Y287402D01*
X42467Y239600D02*
X62700D01*
X18110Y263957D02*
X42467Y239600D01*
X92000Y198500D02*
X149681D01*
X171260Y220079D01*
X152559Y107874D02*
Y195622D01*
D47*
X427953Y52739D02*
X432300Y57087D01*
X427953Y45276D02*
Y52739D01*
D48*
X55512Y175394D02*
Y209449D01*
Y175394D02*
X123031Y107874D01*
X553150Y55118D02*
X572835Y74803D01*
X73281Y248456D02*
X77165Y232677D01*
X55512Y252493D02*
X60561D01*
X77165Y232677D02*
X85425Y224417D01*
X113000D01*
X117717Y229134D01*
X18110Y244272D02*
X33248Y229134D01*
X55512Y272178D02*
X59711D01*
X77165Y254724D01*
X18110Y283642D02*
X90374D01*
X327794Y137400D02*
X358900D01*
X384283Y38173D02*
X398673D01*
X410900Y50400D02*
Y71136D01*
X477559Y137795D01*
X524228Y55118D02*
X553150D01*
X60561Y252493D02*
X73281Y248456D01*
X33248Y229134D02*
X55512D01*
X90374Y283642D02*
X117717Y256299D01*
X320866Y130472D02*
X327794Y137400D01*
X358900D02*
X392283Y104017D01*
Y45276D02*
Y104017D01*
X432300Y57087D02*
X443520D01*
X524228Y137795D01*
X382283Y40173D02*
Y45276D01*
Y40173D02*
X384283Y38173D01*
X398673D02*
X410900Y50400D01*
D49*
X152559Y64961D02*
Y107874D01*
X142716Y55118D02*
X152559Y64961D01*
X111298Y23700D02*
X142716Y55118D01*
X59765Y23700D02*
X111298D01*
X42717Y40748D02*
X59765Y23700D01*
X42717Y40748D02*
Y55118D01*
Y107874D01*
X82683Y198500D02*
X92000D01*
X111600Y318268D02*
X114501Y321169D01*
X522047Y306299D02*
X543228D01*
X572835Y276693D01*
X498800Y306299D02*
X525965Y333465D01*
X572835D01*
X55512Y358268D02*
X92520D01*
X102000D01*
X105100Y361368D01*
Y372000D02*
X109100Y376000D01*
X131200Y319400D02*
Y372000D01*
Y319400D02*
X218002D01*
X131200Y311751D02*
Y319400D01*
X218002D02*
X230315Y307087D01*
X7194Y274872D02*
Y313100D01*
X18110Y324016D01*
X190945Y307087D02*
X213513D01*
X225340Y295260D02*
X242700D01*
X267240Y319800D01*
X364058D02*
X376772Y307087D01*
X396258Y287600D02*
X542242D01*
X572835Y257008D01*
Y216630D02*
X582900Y226695D01*
X572835Y176252D02*
X582900Y166187D01*
X572835Y135874D02*
X582900Y145939D01*
Y105561D02*
Y125809D01*
X572835Y95496D02*
X582900Y85431D01*
Y65184D02*
Y85431D01*
X572835Y55118D02*
X582900Y65184D01*
X92520Y318268D02*
X111600D01*
X18110Y343701D02*
X23228Y338583D01*
X55512D01*
X73800D01*
X74115Y338268D01*
X92520D01*
X438510Y208661D02*
X456197D01*
X377795Y200000D02*
X383810Y206015D01*
X415515D01*
X477559Y268059D01*
Y276693D01*
X377795Y195276D02*
Y200000D01*
X72467Y298268D02*
X92520D01*
X55512Y315223D02*
X72467Y298268D01*
X477559Y306299D02*
X498800D01*
X105100Y361368D02*
Y372000D01*
X109100Y376000D02*
X127200D01*
X131200Y372000D01*
X117717Y298268D02*
X131200Y311751D01*
X65183Y216000D02*
X82683Y198500D01*
X65183Y216000D02*
Y237117D01*
X7194Y274872D02*
X18110Y263957D01*
X213513Y307087D02*
X225340Y295260D01*
X267240Y319800D02*
X364058D01*
X376772Y307087D02*
X396258Y287600D01*
X572835Y257008D02*
X582900Y246942D01*
Y226695D02*
Y246942D01*
X572835Y216630D02*
X582900Y206565D01*
Y186317D02*
Y206565D01*
X572835Y176252D02*
X582900Y186317D01*
X490031Y176252D02*
X572835D01*
X477559Y163780D02*
X490031Y176252D01*
X582900Y145939D02*
Y166187D01*
X572835Y135874D02*
X582900Y125809D01*
X572835Y95496D02*
X582900Y105561D01*
X18110Y304331D02*
X39845Y326066D01*
X69702D01*
X77500Y318268D01*
X92520D01*
X114501Y321169D02*
X117717Y317953D01*
X456197Y208661D02*
X524228Y276693D01*
D50*
X427953Y195276D02*
Y198104D01*
X438510Y208661D01*
D51*
X444685Y333465D02*
D03*
X494685D02*
D03*
X572835D02*
D03*
X512835D02*
D03*
X320866Y70472D02*
D03*
Y130472D02*
D03*
X372283Y22441D02*
D03*
X417953Y221654D02*
D03*
Y22441D02*
D03*
X367795Y221654D02*
D03*
X341339Y70472D02*
D03*
Y130472D02*
D03*
D52*
X287795Y27953D02*
D03*
X282795D02*
D03*
X253675D02*
D03*
X248675D02*
D03*
X253675Y117717D02*
D03*
X248675D02*
D03*
X287795D02*
D03*
X282795D02*
D03*
D53*
X277795Y27953D02*
D03*
X243675D02*
D03*
Y117717D02*
D03*
X277795D02*
D03*
D54*
X427953Y70472D02*
D03*
Y180709D02*
D03*
X382283Y70472D02*
D03*
Y180709D02*
D03*
D55*
X99213Y254724D02*
D03*
Y232579D02*
D03*
X77165Y254724D02*
D03*
Y232677D02*
D03*
D56*
X92520Y298268D02*
D03*
Y318268D02*
D03*
Y358268D02*
D03*
Y338268D02*
D03*
D57*
X572835Y276693D02*
D03*
Y236315D02*
D03*
Y74803D02*
D03*
Y115181D02*
D03*
Y195937D02*
D03*
Y155559D02*
D03*
X18110Y244272D02*
D03*
Y304331D02*
D03*
D58*
X572835Y257008D02*
D03*
Y216630D02*
D03*
Y55118D02*
D03*
Y95496D02*
D03*
Y176252D02*
D03*
Y135874D02*
D03*
X18110Y283642D02*
D03*
Y263957D02*
D03*
Y343701D02*
D03*
Y324016D02*
D03*
D59*
X567913Y371063D02*
D03*
Y22638D02*
D03*
X22638D02*
D03*
Y371063D02*
D03*
D60*
X117717Y317953D02*
D03*
Y338583D02*
D03*
X317717Y220079D02*
D03*
X190945D02*
D03*
X55512Y315223D02*
D03*
Y358268D02*
D03*
Y272178D02*
D03*
Y229134D02*
D03*
X123031Y55118D02*
D03*
X62402D02*
D03*
X117717Y275984D02*
D03*
Y229134D02*
D03*
D61*
Y298268D02*
D03*
Y358268D02*
D03*
X55512Y295538D02*
D03*
Y338583D02*
D03*
Y252493D02*
D03*
Y209449D02*
D03*
X117717Y256299D02*
D03*
Y209449D02*
D03*
D62*
X337402Y220079D02*
D03*
X171260D02*
D03*
X142716Y55118D02*
D03*
X42717D02*
D03*
D63*
X376772Y307087D02*
D03*
X337402D02*
D03*
X230315D02*
D03*
X190945D02*
D03*
X477559Y22638D02*
D03*
X522047Y306299D02*
D03*
X477559Y163780D02*
D03*
Y306299D02*
D03*
X524228Y22638D02*
D03*
D65*
X477559Y360630D02*
D03*
X519228D02*
D03*
D66*
X487559D02*
D03*
X529228D02*
D03*
D67*
X152559Y107874D02*
D03*
X72244D02*
D03*
D68*
X123031D02*
D03*
X42717D02*
D03*
D69*
X392283Y45276D02*
D03*
X382283D02*
D03*
X437953Y195276D02*
D03*
X427953D02*
D03*
X437953Y45276D02*
D03*
X427953D02*
D03*
X387795Y195276D02*
D03*
X377795D02*
D03*
D70*
X372283Y45276D02*
D03*
X417953Y195276D02*
D03*
Y45276D02*
D03*
X367795Y195276D02*
D03*
D71*
X477559Y137795D02*
D03*
Y55118D02*
D03*
X524228Y276693D02*
D03*
Y194016D02*
D03*
Y137795D02*
D03*
Y55118D02*
D03*
X477559Y276693D02*
D03*
Y194016D02*
D03*
D72*
X253675Y95118D02*
D03*
Y55118D02*
D03*
X233596Y180709D02*
D03*
Y140709D02*
D03*
X270735Y95118D02*
D03*
Y55118D02*
D03*
X270735Y180709D02*
D03*
Y140709D02*
D03*
X287795Y95118D02*
D03*
Y55118D02*
D03*
X291207Y180709D02*
D03*
Y140709D02*
D03*
X236614Y95118D02*
D03*
Y55118D02*
D03*
X250656Y180709D02*
D03*
Y140709D02*
D03*
D73*
X402283Y22441D02*
D03*
X447953Y221654D02*
D03*
Y22441D02*
D03*
X397795Y221654D02*
D03*
D74*
X320000Y168000D02*
D03*
X306300Y179500D02*
D03*
X250700Y168000D02*
D03*
X313200Y211600D02*
D03*
M02*
