G04 #@! TF.GenerationSoftware,KiCad,Pcbnew,(5.1.2)-2*
G04 #@! TF.CreationDate,2019-06-25T22:59:13-03:00*
G04 #@! TF.ProjectId,kicad_fuente,6b696361-645f-4667-9565-6e74652e6b69,rev?*
G04 #@! TF.SameCoordinates,Original*
G04 #@! TF.FileFunction,Copper,L1,Top*
G04 #@! TF.FilePolarity,Positive*
%FSLAX46Y46*%
G04 Gerber Fmt 4.6, Leading zero omitted, Abs format (unit mm)*
G04 Created by KiCad (PCBNEW (5.1.2)-2) date 2019-06-25 22:59:13*
%MOMM*%
%LPD*%
G04 APERTURE LIST*
%ADD10C,0.300000*%
%ADD11C,0.100000*%
%ADD12C,2.500000*%
%ADD13O,1.600000X1.600000*%
%ADD14R,1.600000X1.600000*%
%ADD15C,1.425000*%
%ADD16C,1.525000*%
%ADD17C,1.440000*%
%ADD18C,3.500000*%
%ADD19C,3.000000*%
%ADD20R,3.500000X3.500000*%
%ADD21R,9.400000X10.800000*%
%ADD22R,4.600000X1.100000*%
%ADD23R,2.900000X5.400000*%
%ADD24C,2.400000*%
%ADD25R,2.400000X2.400000*%
%ADD26C,1.250000*%
%ADD27O,1.800000X1.275000*%
%ADD28R,1.800000X1.275000*%
%ADD29R,1.500000X1.050000*%
%ADD30O,1.500000X1.050000*%
%ADD31C,1.600000*%
%ADD32O,3.200000X3.200000*%
%ADD33R,3.200000X3.200000*%
%ADD34C,1.000000*%
%ADD35C,1.500000*%
%ADD36C,3.000000*%
%ADD37C,1.250000*%
%ADD38C,2.000000*%
%ADD39C,5.000000*%
%ADD40C,0.254000*%
G04 APERTURE END LIST*
D10*
X154414285Y-83558571D02*
X154342857Y-83487142D01*
X154271428Y-83272857D01*
X154271428Y-83130000D01*
X154342857Y-82915714D01*
X154485714Y-82772857D01*
X154628571Y-82701428D01*
X154914285Y-82630000D01*
X155128571Y-82630000D01*
X155414285Y-82701428D01*
X155557142Y-82772857D01*
X155700000Y-82915714D01*
X155771428Y-83130000D01*
X155771428Y-83272857D01*
X155700000Y-83487142D01*
X155628571Y-83558571D01*
X154271428Y-84844285D02*
X155057142Y-84844285D01*
X155200000Y-84772857D01*
X155271428Y-84630000D01*
X155271428Y-84344285D01*
X155200000Y-84201428D01*
X154342857Y-84844285D02*
X154271428Y-84701428D01*
X154271428Y-84344285D01*
X154342857Y-84201428D01*
X154485714Y-84130000D01*
X154628571Y-84130000D01*
X154771428Y-84201428D01*
X154842857Y-84344285D01*
X154842857Y-84701428D01*
X154914285Y-84844285D01*
X154271428Y-85558571D02*
X155271428Y-85558571D01*
X154985714Y-85558571D02*
X155128571Y-85630000D01*
X155200000Y-85701428D01*
X155271428Y-85844285D01*
X155271428Y-85987142D01*
X154271428Y-86701428D02*
X154342857Y-86558571D01*
X154414285Y-86487142D01*
X154557142Y-86415714D01*
X154985714Y-86415714D01*
X155128571Y-86487142D01*
X155200000Y-86558571D01*
X155271428Y-86701428D01*
X155271428Y-86915714D01*
X155200000Y-87058571D01*
X155128571Y-87130000D01*
X154985714Y-87201428D01*
X154557142Y-87201428D01*
X154414285Y-87130000D01*
X154342857Y-87058571D01*
X154271428Y-86915714D01*
X154271428Y-86701428D01*
X154342857Y-87772857D02*
X154271428Y-87915714D01*
X154271428Y-88201428D01*
X154342857Y-88344285D01*
X154485714Y-88415714D01*
X154557142Y-88415714D01*
X154700000Y-88344285D01*
X154771428Y-88201428D01*
X154771428Y-87987142D01*
X154842857Y-87844285D01*
X154985714Y-87772857D01*
X155057142Y-87772857D01*
X155200000Y-87844285D01*
X155271428Y-87987142D01*
X155271428Y-88201428D01*
X155200000Y-88344285D01*
X154342857Y-89630000D02*
X154271428Y-89487142D01*
X154271428Y-89201428D01*
X154342857Y-89058571D01*
X154485714Y-88987142D01*
X155057142Y-88987142D01*
X155200000Y-89058571D01*
X155271428Y-89201428D01*
X155271428Y-89487142D01*
X155200000Y-89630000D01*
X155057142Y-89701428D01*
X154914285Y-89701428D01*
X154771428Y-88987142D01*
X154271428Y-90558571D02*
X154342857Y-90415714D01*
X154485714Y-90344285D01*
X155771428Y-90344285D01*
X154271428Y-91344285D02*
X154342857Y-91201428D01*
X154485714Y-91130000D01*
X155771428Y-91130000D01*
X154271428Y-92558571D02*
X155057142Y-92558571D01*
X155200000Y-92487142D01*
X155271428Y-92344285D01*
X155271428Y-92058571D01*
X155200000Y-91915714D01*
X154342857Y-92558571D02*
X154271428Y-92415714D01*
X154271428Y-92058571D01*
X154342857Y-91915714D01*
X154485714Y-91844285D01*
X154628571Y-91844285D01*
X154771428Y-91915714D01*
X154842857Y-92058571D01*
X154842857Y-92415714D01*
X154914285Y-92558571D01*
X151721428Y-82701428D02*
X153221428Y-82701428D01*
X151721428Y-83558571D01*
X153221428Y-83558571D01*
X151792857Y-84844285D02*
X151721428Y-84701428D01*
X151721428Y-84415714D01*
X151792857Y-84272857D01*
X151935714Y-84201428D01*
X152507142Y-84201428D01*
X152650000Y-84272857D01*
X152721428Y-84415714D01*
X152721428Y-84701428D01*
X152650000Y-84844285D01*
X152507142Y-84915714D01*
X152364285Y-84915714D01*
X152221428Y-84201428D01*
X152721428Y-86201428D02*
X151721428Y-86201428D01*
X152721428Y-85558571D02*
X151935714Y-85558571D01*
X151792857Y-85630000D01*
X151721428Y-85772857D01*
X151721428Y-85987142D01*
X151792857Y-86130000D01*
X151864285Y-86201428D01*
X151721428Y-86915714D02*
X152721428Y-86915714D01*
X152578571Y-86915714D02*
X152650000Y-86987142D01*
X152721428Y-87130000D01*
X152721428Y-87344285D01*
X152650000Y-87487142D01*
X152507142Y-87558571D01*
X151721428Y-87558571D01*
X152507142Y-87558571D02*
X152650000Y-87630000D01*
X152721428Y-87772857D01*
X152721428Y-87987142D01*
X152650000Y-88130000D01*
X152507142Y-88201428D01*
X151721428Y-88201428D01*
X151721428Y-89558571D02*
X152507142Y-89558571D01*
X152650000Y-89487142D01*
X152721428Y-89344285D01*
X152721428Y-89058571D01*
X152650000Y-88915714D01*
X151792857Y-89558571D02*
X151721428Y-89415714D01*
X151721428Y-89058571D01*
X151792857Y-88915714D01*
X151935714Y-88844285D01*
X152078571Y-88844285D01*
X152221428Y-88915714D01*
X152292857Y-89058571D01*
X152292857Y-89415714D01*
X152364285Y-89558571D01*
X151721428Y-90272857D02*
X152721428Y-90272857D01*
X152435714Y-90272857D02*
X152578571Y-90344285D01*
X152650000Y-90415714D01*
X152721428Y-90558571D01*
X152721428Y-90701428D01*
X151721428Y-91201428D02*
X153221428Y-91201428D01*
X152292857Y-91344285D02*
X151721428Y-91772857D01*
X152721428Y-91772857D02*
X152150000Y-91201428D01*
X152721428Y-92201428D02*
X152721428Y-92772857D01*
X153221428Y-92415714D02*
X151935714Y-92415714D01*
X151792857Y-92487142D01*
X151721428Y-92630000D01*
X151721428Y-92772857D01*
X149171428Y-85844285D02*
X149885714Y-85344285D01*
X149171428Y-84987142D02*
X150671428Y-84987142D01*
X150671428Y-85558571D01*
X150600000Y-85701428D01*
X150528571Y-85772857D01*
X150385714Y-85844285D01*
X150171428Y-85844285D01*
X150028571Y-85772857D01*
X149957142Y-85701428D01*
X149885714Y-85558571D01*
X149885714Y-84987142D01*
X149171428Y-86487142D02*
X150171428Y-86487142D01*
X150671428Y-86487142D02*
X150600000Y-86415714D01*
X150528571Y-86487142D01*
X150600000Y-86558571D01*
X150671428Y-86487142D01*
X150528571Y-86487142D01*
X150171428Y-87058571D02*
X150171428Y-87844285D01*
X149171428Y-87058571D01*
X149171428Y-87844285D01*
X150171428Y-88272857D02*
X150171428Y-89058571D01*
X149171428Y-88272857D01*
X149171428Y-89058571D01*
X149171428Y-89844285D02*
X149242857Y-89701428D01*
X149314285Y-89630000D01*
X149457142Y-89558571D01*
X149885714Y-89558571D01*
X150028571Y-89630000D01*
X150100000Y-89701428D01*
X150171428Y-89844285D01*
X150171428Y-90058571D01*
X150100000Y-90201428D01*
X150028571Y-90272857D01*
X149885714Y-90344285D01*
X149457142Y-90344285D01*
X149314285Y-90272857D01*
X149242857Y-90201428D01*
X149171428Y-90058571D01*
X149171428Y-89844285D01*
X69742857Y-58317142D02*
X69742857Y-59460000D01*
X70671428Y-60031428D02*
X70671428Y-60960000D01*
X70100000Y-60460000D01*
X70100000Y-60674285D01*
X70028571Y-60817142D01*
X69957142Y-60888571D01*
X69814285Y-60960000D01*
X69457142Y-60960000D01*
X69314285Y-60888571D01*
X69242857Y-60817142D01*
X69171428Y-60674285D01*
X69171428Y-60245714D01*
X69242857Y-60102857D01*
X69314285Y-60031428D01*
X70671428Y-61888571D02*
X70671428Y-62031428D01*
X70600000Y-62174285D01*
X70528571Y-62245714D01*
X70385714Y-62317142D01*
X70100000Y-62388571D01*
X69742857Y-62388571D01*
X69457142Y-62317142D01*
X69314285Y-62245714D01*
X69242857Y-62174285D01*
X69171428Y-62031428D01*
X69171428Y-61888571D01*
X69242857Y-61745714D01*
X69314285Y-61674285D01*
X69457142Y-61602857D01*
X69742857Y-61531428D01*
X70100000Y-61531428D01*
X70385714Y-61602857D01*
X70528571Y-61674285D01*
X70600000Y-61745714D01*
X70671428Y-61888571D01*
X70671428Y-62817142D02*
X69171428Y-63317142D01*
X70671428Y-63817142D01*
X69742857Y-101497142D02*
X69742857Y-102640000D01*
X69171428Y-102068571D02*
X70314285Y-102068571D01*
X70671428Y-103211428D02*
X70671428Y-104140000D01*
X70100000Y-103640000D01*
X70100000Y-103854285D01*
X70028571Y-103997142D01*
X69957142Y-104068571D01*
X69814285Y-104140000D01*
X69457142Y-104140000D01*
X69314285Y-104068571D01*
X69242857Y-103997142D01*
X69171428Y-103854285D01*
X69171428Y-103425714D01*
X69242857Y-103282857D01*
X69314285Y-103211428D01*
X70671428Y-105068571D02*
X70671428Y-105211428D01*
X70600000Y-105354285D01*
X70528571Y-105425714D01*
X70385714Y-105497142D01*
X70100000Y-105568571D01*
X69742857Y-105568571D01*
X69457142Y-105497142D01*
X69314285Y-105425714D01*
X69242857Y-105354285D01*
X69171428Y-105211428D01*
X69171428Y-105068571D01*
X69242857Y-104925714D01*
X69314285Y-104854285D01*
X69457142Y-104782857D01*
X69742857Y-104711428D01*
X70100000Y-104711428D01*
X70385714Y-104782857D01*
X70528571Y-104854285D01*
X70600000Y-104925714D01*
X70671428Y-105068571D01*
X70671428Y-105997142D02*
X69171428Y-106497142D01*
X70671428Y-106997142D01*
X154832857Y-45617142D02*
X154832857Y-46760000D01*
X154261428Y-48260000D02*
X154261428Y-47402857D01*
X154261428Y-47831428D02*
X155761428Y-47831428D01*
X155547142Y-47688571D01*
X155404285Y-47545714D01*
X155332857Y-47402857D01*
X155761428Y-49617142D02*
X155761428Y-48902857D01*
X155047142Y-48831428D01*
X155118571Y-48902857D01*
X155190000Y-49045714D01*
X155190000Y-49402857D01*
X155118571Y-49545714D01*
X155047142Y-49617142D01*
X154904285Y-49688571D01*
X154547142Y-49688571D01*
X154404285Y-49617142D01*
X154332857Y-49545714D01*
X154261428Y-49402857D01*
X154261428Y-49045714D01*
X154332857Y-48902857D01*
X154404285Y-48831428D01*
X155761428Y-50117142D02*
X154261428Y-50617142D01*
X155761428Y-51117142D01*
X154832857Y-126897142D02*
X154832857Y-128040000D01*
X154261428Y-127468571D02*
X155404285Y-127468571D01*
X154261428Y-129540000D02*
X154261428Y-128682857D01*
X154261428Y-129111428D02*
X155761428Y-129111428D01*
X155547142Y-128968571D01*
X155404285Y-128825714D01*
X155332857Y-128682857D01*
X155761428Y-130897142D02*
X155761428Y-130182857D01*
X155047142Y-130111428D01*
X155118571Y-130182857D01*
X155190000Y-130325714D01*
X155190000Y-130682857D01*
X155118571Y-130825714D01*
X155047142Y-130897142D01*
X154904285Y-130968571D01*
X154547142Y-130968571D01*
X154404285Y-130897142D01*
X154332857Y-130825714D01*
X154261428Y-130682857D01*
X154261428Y-130325714D01*
X154332857Y-130182857D01*
X154404285Y-130111428D01*
X155761428Y-131397142D02*
X154261428Y-131897142D01*
X155761428Y-132397142D01*
D11*
G36*
X117864504Y-111841204D02*
G01*
X117888773Y-111844804D01*
X117912571Y-111850765D01*
X117935671Y-111859030D01*
X117957849Y-111869520D01*
X117978893Y-111882133D01*
X117998598Y-111896747D01*
X118016777Y-111913223D01*
X118033253Y-111931402D01*
X118047867Y-111951107D01*
X118060480Y-111972151D01*
X118070970Y-111994329D01*
X118079235Y-112017429D01*
X118085196Y-112041227D01*
X118088796Y-112065496D01*
X118090000Y-112090000D01*
X118090000Y-115090000D01*
X118088796Y-115114504D01*
X118085196Y-115138773D01*
X118079235Y-115162571D01*
X118070970Y-115185671D01*
X118060480Y-115207849D01*
X118047867Y-115228893D01*
X118033253Y-115248598D01*
X118016777Y-115266777D01*
X117998598Y-115283253D01*
X117978893Y-115297867D01*
X117957849Y-115310480D01*
X117935671Y-115320970D01*
X117912571Y-115329235D01*
X117888773Y-115335196D01*
X117864504Y-115338796D01*
X117840000Y-115340000D01*
X115840000Y-115340000D01*
X115815496Y-115338796D01*
X115791227Y-115335196D01*
X115767429Y-115329235D01*
X115744329Y-115320970D01*
X115722151Y-115310480D01*
X115701107Y-115297867D01*
X115681402Y-115283253D01*
X115663223Y-115266777D01*
X115646747Y-115248598D01*
X115632133Y-115228893D01*
X115619520Y-115207849D01*
X115609030Y-115185671D01*
X115600765Y-115162571D01*
X115594804Y-115138773D01*
X115591204Y-115114504D01*
X115590000Y-115090000D01*
X115590000Y-112090000D01*
X115591204Y-112065496D01*
X115594804Y-112041227D01*
X115600765Y-112017429D01*
X115609030Y-111994329D01*
X115619520Y-111972151D01*
X115632133Y-111951107D01*
X115646747Y-111931402D01*
X115663223Y-111913223D01*
X115681402Y-111896747D01*
X115701107Y-111882133D01*
X115722151Y-111869520D01*
X115744329Y-111859030D01*
X115767429Y-111850765D01*
X115791227Y-111844804D01*
X115815496Y-111841204D01*
X115840000Y-111840000D01*
X117840000Y-111840000D01*
X117864504Y-111841204D01*
X117864504Y-111841204D01*
G37*
D12*
X116840000Y-113590000D03*
D11*
G36*
X117864504Y-118341204D02*
G01*
X117888773Y-118344804D01*
X117912571Y-118350765D01*
X117935671Y-118359030D01*
X117957849Y-118369520D01*
X117978893Y-118382133D01*
X117998598Y-118396747D01*
X118016777Y-118413223D01*
X118033253Y-118431402D01*
X118047867Y-118451107D01*
X118060480Y-118472151D01*
X118070970Y-118494329D01*
X118079235Y-118517429D01*
X118085196Y-118541227D01*
X118088796Y-118565496D01*
X118090000Y-118590000D01*
X118090000Y-121590000D01*
X118088796Y-121614504D01*
X118085196Y-121638773D01*
X118079235Y-121662571D01*
X118070970Y-121685671D01*
X118060480Y-121707849D01*
X118047867Y-121728893D01*
X118033253Y-121748598D01*
X118016777Y-121766777D01*
X117998598Y-121783253D01*
X117978893Y-121797867D01*
X117957849Y-121810480D01*
X117935671Y-121820970D01*
X117912571Y-121829235D01*
X117888773Y-121835196D01*
X117864504Y-121838796D01*
X117840000Y-121840000D01*
X115840000Y-121840000D01*
X115815496Y-121838796D01*
X115791227Y-121835196D01*
X115767429Y-121829235D01*
X115744329Y-121820970D01*
X115722151Y-121810480D01*
X115701107Y-121797867D01*
X115681402Y-121783253D01*
X115663223Y-121766777D01*
X115646747Y-121748598D01*
X115632133Y-121728893D01*
X115619520Y-121707849D01*
X115609030Y-121685671D01*
X115600765Y-121662571D01*
X115594804Y-121638773D01*
X115591204Y-121614504D01*
X115590000Y-121590000D01*
X115590000Y-118590000D01*
X115591204Y-118565496D01*
X115594804Y-118541227D01*
X115600765Y-118517429D01*
X115609030Y-118494329D01*
X115619520Y-118472151D01*
X115632133Y-118451107D01*
X115646747Y-118431402D01*
X115663223Y-118413223D01*
X115681402Y-118396747D01*
X115701107Y-118382133D01*
X115722151Y-118369520D01*
X115744329Y-118359030D01*
X115767429Y-118350765D01*
X115791227Y-118344804D01*
X115815496Y-118341204D01*
X115840000Y-118340000D01*
X117840000Y-118340000D01*
X117864504Y-118341204D01*
X117864504Y-118341204D01*
G37*
D12*
X116840000Y-120090000D03*
D11*
G36*
X138124504Y-87651204D02*
G01*
X138148773Y-87654804D01*
X138172571Y-87660765D01*
X138195671Y-87669030D01*
X138217849Y-87679520D01*
X138238893Y-87692133D01*
X138258598Y-87706747D01*
X138276777Y-87723223D01*
X138293253Y-87741402D01*
X138307867Y-87761107D01*
X138320480Y-87782151D01*
X138330970Y-87804329D01*
X138339235Y-87827429D01*
X138345196Y-87851227D01*
X138348796Y-87875496D01*
X138350000Y-87900000D01*
X138350000Y-89900000D01*
X138348796Y-89924504D01*
X138345196Y-89948773D01*
X138339235Y-89972571D01*
X138330970Y-89995671D01*
X138320480Y-90017849D01*
X138307867Y-90038893D01*
X138293253Y-90058598D01*
X138276777Y-90076777D01*
X138258598Y-90093253D01*
X138238893Y-90107867D01*
X138217849Y-90120480D01*
X138195671Y-90130970D01*
X138172571Y-90139235D01*
X138148773Y-90145196D01*
X138124504Y-90148796D01*
X138100000Y-90150000D01*
X135100000Y-90150000D01*
X135075496Y-90148796D01*
X135051227Y-90145196D01*
X135027429Y-90139235D01*
X135004329Y-90130970D01*
X134982151Y-90120480D01*
X134961107Y-90107867D01*
X134941402Y-90093253D01*
X134923223Y-90076777D01*
X134906747Y-90058598D01*
X134892133Y-90038893D01*
X134879520Y-90017849D01*
X134869030Y-89995671D01*
X134860765Y-89972571D01*
X134854804Y-89948773D01*
X134851204Y-89924504D01*
X134850000Y-89900000D01*
X134850000Y-87900000D01*
X134851204Y-87875496D01*
X134854804Y-87851227D01*
X134860765Y-87827429D01*
X134869030Y-87804329D01*
X134879520Y-87782151D01*
X134892133Y-87761107D01*
X134906747Y-87741402D01*
X134923223Y-87723223D01*
X134941402Y-87706747D01*
X134961107Y-87692133D01*
X134982151Y-87679520D01*
X135004329Y-87669030D01*
X135027429Y-87660765D01*
X135051227Y-87654804D01*
X135075496Y-87651204D01*
X135100000Y-87650000D01*
X138100000Y-87650000D01*
X138124504Y-87651204D01*
X138124504Y-87651204D01*
G37*
D12*
X136600000Y-88900000D03*
D11*
G36*
X131624504Y-87651204D02*
G01*
X131648773Y-87654804D01*
X131672571Y-87660765D01*
X131695671Y-87669030D01*
X131717849Y-87679520D01*
X131738893Y-87692133D01*
X131758598Y-87706747D01*
X131776777Y-87723223D01*
X131793253Y-87741402D01*
X131807867Y-87761107D01*
X131820480Y-87782151D01*
X131830970Y-87804329D01*
X131839235Y-87827429D01*
X131845196Y-87851227D01*
X131848796Y-87875496D01*
X131850000Y-87900000D01*
X131850000Y-89900000D01*
X131848796Y-89924504D01*
X131845196Y-89948773D01*
X131839235Y-89972571D01*
X131830970Y-89995671D01*
X131820480Y-90017849D01*
X131807867Y-90038893D01*
X131793253Y-90058598D01*
X131776777Y-90076777D01*
X131758598Y-90093253D01*
X131738893Y-90107867D01*
X131717849Y-90120480D01*
X131695671Y-90130970D01*
X131672571Y-90139235D01*
X131648773Y-90145196D01*
X131624504Y-90148796D01*
X131600000Y-90150000D01*
X128600000Y-90150000D01*
X128575496Y-90148796D01*
X128551227Y-90145196D01*
X128527429Y-90139235D01*
X128504329Y-90130970D01*
X128482151Y-90120480D01*
X128461107Y-90107867D01*
X128441402Y-90093253D01*
X128423223Y-90076777D01*
X128406747Y-90058598D01*
X128392133Y-90038893D01*
X128379520Y-90017849D01*
X128369030Y-89995671D01*
X128360765Y-89972571D01*
X128354804Y-89948773D01*
X128351204Y-89924504D01*
X128350000Y-89900000D01*
X128350000Y-87900000D01*
X128351204Y-87875496D01*
X128354804Y-87851227D01*
X128360765Y-87827429D01*
X128369030Y-87804329D01*
X128379520Y-87782151D01*
X128392133Y-87761107D01*
X128406747Y-87741402D01*
X128423223Y-87723223D01*
X128441402Y-87706747D01*
X128461107Y-87692133D01*
X128482151Y-87679520D01*
X128504329Y-87669030D01*
X128527429Y-87660765D01*
X128551227Y-87654804D01*
X128575496Y-87651204D01*
X128600000Y-87650000D01*
X131600000Y-87650000D01*
X131624504Y-87651204D01*
X131624504Y-87651204D01*
G37*
D12*
X130100000Y-88900000D03*
D13*
X123190000Y-58420000D03*
D14*
X123190000Y-66040000D03*
D11*
G36*
X127649504Y-94756204D02*
G01*
X127673773Y-94759804D01*
X127697571Y-94765765D01*
X127720671Y-94774030D01*
X127742849Y-94784520D01*
X127763893Y-94797133D01*
X127783598Y-94811747D01*
X127801777Y-94828223D01*
X127818253Y-94846402D01*
X127832867Y-94866107D01*
X127845480Y-94887151D01*
X127855970Y-94909329D01*
X127864235Y-94932429D01*
X127870196Y-94956227D01*
X127873796Y-94980496D01*
X127875000Y-95005000D01*
X127875000Y-95930000D01*
X127873796Y-95954504D01*
X127870196Y-95978773D01*
X127864235Y-96002571D01*
X127855970Y-96025671D01*
X127845480Y-96047849D01*
X127832867Y-96068893D01*
X127818253Y-96088598D01*
X127801777Y-96106777D01*
X127783598Y-96123253D01*
X127763893Y-96137867D01*
X127742849Y-96150480D01*
X127720671Y-96160970D01*
X127697571Y-96169235D01*
X127673773Y-96175196D01*
X127649504Y-96178796D01*
X127625000Y-96180000D01*
X126375000Y-96180000D01*
X126350496Y-96178796D01*
X126326227Y-96175196D01*
X126302429Y-96169235D01*
X126279329Y-96160970D01*
X126257151Y-96150480D01*
X126236107Y-96137867D01*
X126216402Y-96123253D01*
X126198223Y-96106777D01*
X126181747Y-96088598D01*
X126167133Y-96068893D01*
X126154520Y-96047849D01*
X126144030Y-96025671D01*
X126135765Y-96002571D01*
X126129804Y-95978773D01*
X126126204Y-95954504D01*
X126125000Y-95930000D01*
X126125000Y-95005000D01*
X126126204Y-94980496D01*
X126129804Y-94956227D01*
X126135765Y-94932429D01*
X126144030Y-94909329D01*
X126154520Y-94887151D01*
X126167133Y-94866107D01*
X126181747Y-94846402D01*
X126198223Y-94828223D01*
X126216402Y-94811747D01*
X126236107Y-94797133D01*
X126257151Y-94784520D01*
X126279329Y-94774030D01*
X126302429Y-94765765D01*
X126326227Y-94759804D01*
X126350496Y-94756204D01*
X126375000Y-94755000D01*
X127625000Y-94755000D01*
X127649504Y-94756204D01*
X127649504Y-94756204D01*
G37*
D15*
X127000000Y-95467500D03*
D11*
G36*
X127649504Y-91781204D02*
G01*
X127673773Y-91784804D01*
X127697571Y-91790765D01*
X127720671Y-91799030D01*
X127742849Y-91809520D01*
X127763893Y-91822133D01*
X127783598Y-91836747D01*
X127801777Y-91853223D01*
X127818253Y-91871402D01*
X127832867Y-91891107D01*
X127845480Y-91912151D01*
X127855970Y-91934329D01*
X127864235Y-91957429D01*
X127870196Y-91981227D01*
X127873796Y-92005496D01*
X127875000Y-92030000D01*
X127875000Y-92955000D01*
X127873796Y-92979504D01*
X127870196Y-93003773D01*
X127864235Y-93027571D01*
X127855970Y-93050671D01*
X127845480Y-93072849D01*
X127832867Y-93093893D01*
X127818253Y-93113598D01*
X127801777Y-93131777D01*
X127783598Y-93148253D01*
X127763893Y-93162867D01*
X127742849Y-93175480D01*
X127720671Y-93185970D01*
X127697571Y-93194235D01*
X127673773Y-93200196D01*
X127649504Y-93203796D01*
X127625000Y-93205000D01*
X126375000Y-93205000D01*
X126350496Y-93203796D01*
X126326227Y-93200196D01*
X126302429Y-93194235D01*
X126279329Y-93185970D01*
X126257151Y-93175480D01*
X126236107Y-93162867D01*
X126216402Y-93148253D01*
X126198223Y-93131777D01*
X126181747Y-93113598D01*
X126167133Y-93093893D01*
X126154520Y-93072849D01*
X126144030Y-93050671D01*
X126135765Y-93027571D01*
X126129804Y-93003773D01*
X126126204Y-92979504D01*
X126125000Y-92955000D01*
X126125000Y-92030000D01*
X126126204Y-92005496D01*
X126129804Y-91981227D01*
X126135765Y-91957429D01*
X126144030Y-91934329D01*
X126154520Y-91912151D01*
X126167133Y-91891107D01*
X126181747Y-91871402D01*
X126198223Y-91853223D01*
X126216402Y-91836747D01*
X126236107Y-91822133D01*
X126257151Y-91809520D01*
X126279329Y-91799030D01*
X126302429Y-91790765D01*
X126326227Y-91784804D01*
X126350496Y-91781204D01*
X126375000Y-91780000D01*
X127625000Y-91780000D01*
X127649504Y-91781204D01*
X127649504Y-91781204D01*
G37*
D15*
X127000000Y-92492500D03*
D11*
G36*
X84559505Y-110436204D02*
G01*
X84583773Y-110439804D01*
X84607572Y-110445765D01*
X84630671Y-110454030D01*
X84652850Y-110464520D01*
X84673893Y-110477132D01*
X84693599Y-110491747D01*
X84711777Y-110508223D01*
X84728253Y-110526401D01*
X84742868Y-110546107D01*
X84755480Y-110567150D01*
X84765970Y-110589329D01*
X84774235Y-110612428D01*
X84780196Y-110636227D01*
X84783796Y-110660495D01*
X84785000Y-110684999D01*
X84785000Y-112835001D01*
X84783796Y-112859505D01*
X84780196Y-112883773D01*
X84774235Y-112907572D01*
X84765970Y-112930671D01*
X84755480Y-112952850D01*
X84742868Y-112973893D01*
X84728253Y-112993599D01*
X84711777Y-113011777D01*
X84693599Y-113028253D01*
X84673893Y-113042868D01*
X84652850Y-113055480D01*
X84630671Y-113065970D01*
X84607572Y-113074235D01*
X84583773Y-113080196D01*
X84559505Y-113083796D01*
X84535001Y-113085000D01*
X83509999Y-113085000D01*
X83485495Y-113083796D01*
X83461227Y-113080196D01*
X83437428Y-113074235D01*
X83414329Y-113065970D01*
X83392150Y-113055480D01*
X83371107Y-113042868D01*
X83351401Y-113028253D01*
X83333223Y-113011777D01*
X83316747Y-112993599D01*
X83302132Y-112973893D01*
X83289520Y-112952850D01*
X83279030Y-112930671D01*
X83270765Y-112907572D01*
X83264804Y-112883773D01*
X83261204Y-112859505D01*
X83260000Y-112835001D01*
X83260000Y-110684999D01*
X83261204Y-110660495D01*
X83264804Y-110636227D01*
X83270765Y-110612428D01*
X83279030Y-110589329D01*
X83289520Y-110567150D01*
X83302132Y-110546107D01*
X83316747Y-110526401D01*
X83333223Y-110508223D01*
X83351401Y-110491747D01*
X83371107Y-110477132D01*
X83392150Y-110464520D01*
X83414329Y-110454030D01*
X83437428Y-110445765D01*
X83461227Y-110439804D01*
X83485495Y-110436204D01*
X83509999Y-110435000D01*
X84535001Y-110435000D01*
X84559505Y-110436204D01*
X84559505Y-110436204D01*
G37*
D16*
X84022500Y-111760000D03*
D11*
G36*
X89234505Y-110436204D02*
G01*
X89258773Y-110439804D01*
X89282572Y-110445765D01*
X89305671Y-110454030D01*
X89327850Y-110464520D01*
X89348893Y-110477132D01*
X89368599Y-110491747D01*
X89386777Y-110508223D01*
X89403253Y-110526401D01*
X89417868Y-110546107D01*
X89430480Y-110567150D01*
X89440970Y-110589329D01*
X89449235Y-110612428D01*
X89455196Y-110636227D01*
X89458796Y-110660495D01*
X89460000Y-110684999D01*
X89460000Y-112835001D01*
X89458796Y-112859505D01*
X89455196Y-112883773D01*
X89449235Y-112907572D01*
X89440970Y-112930671D01*
X89430480Y-112952850D01*
X89417868Y-112973893D01*
X89403253Y-112993599D01*
X89386777Y-113011777D01*
X89368599Y-113028253D01*
X89348893Y-113042868D01*
X89327850Y-113055480D01*
X89305671Y-113065970D01*
X89282572Y-113074235D01*
X89258773Y-113080196D01*
X89234505Y-113083796D01*
X89210001Y-113085000D01*
X88184999Y-113085000D01*
X88160495Y-113083796D01*
X88136227Y-113080196D01*
X88112428Y-113074235D01*
X88089329Y-113065970D01*
X88067150Y-113055480D01*
X88046107Y-113042868D01*
X88026401Y-113028253D01*
X88008223Y-113011777D01*
X87991747Y-112993599D01*
X87977132Y-112973893D01*
X87964520Y-112952850D01*
X87954030Y-112930671D01*
X87945765Y-112907572D01*
X87939804Y-112883773D01*
X87936204Y-112859505D01*
X87935000Y-112835001D01*
X87935000Y-110684999D01*
X87936204Y-110660495D01*
X87939804Y-110636227D01*
X87945765Y-110612428D01*
X87954030Y-110589329D01*
X87964520Y-110567150D01*
X87977132Y-110546107D01*
X87991747Y-110526401D01*
X88008223Y-110508223D01*
X88026401Y-110491747D01*
X88046107Y-110477132D01*
X88067150Y-110464520D01*
X88089329Y-110454030D01*
X88112428Y-110445765D01*
X88136227Y-110439804D01*
X88160495Y-110436204D01*
X88184999Y-110435000D01*
X89210001Y-110435000D01*
X89234505Y-110436204D01*
X89234505Y-110436204D01*
G37*
D16*
X88697500Y-111760000D03*
D17*
X101600000Y-109220000D03*
X104140000Y-109220000D03*
X106680000Y-109220000D03*
D11*
G36*
X80510765Y-88804213D02*
G01*
X80595704Y-88816813D01*
X80678999Y-88837677D01*
X80759848Y-88866605D01*
X80837472Y-88903319D01*
X80911124Y-88947464D01*
X80980094Y-88998616D01*
X81043718Y-89056282D01*
X81101384Y-89119906D01*
X81152536Y-89188876D01*
X81196681Y-89262528D01*
X81233395Y-89340152D01*
X81262323Y-89421001D01*
X81283187Y-89504296D01*
X81295787Y-89589235D01*
X81300000Y-89675000D01*
X81300000Y-91425000D01*
X81295787Y-91510765D01*
X81283187Y-91595704D01*
X81262323Y-91678999D01*
X81233395Y-91759848D01*
X81196681Y-91837472D01*
X81152536Y-91911124D01*
X81101384Y-91980094D01*
X81043718Y-92043718D01*
X80980094Y-92101384D01*
X80911124Y-92152536D01*
X80837472Y-92196681D01*
X80759848Y-92233395D01*
X80678999Y-92262323D01*
X80595704Y-92283187D01*
X80510765Y-92295787D01*
X80425000Y-92300000D01*
X78675000Y-92300000D01*
X78589235Y-92295787D01*
X78504296Y-92283187D01*
X78421001Y-92262323D01*
X78340152Y-92233395D01*
X78262528Y-92196681D01*
X78188876Y-92152536D01*
X78119906Y-92101384D01*
X78056282Y-92043718D01*
X77998616Y-91980094D01*
X77947464Y-91911124D01*
X77903319Y-91837472D01*
X77866605Y-91759848D01*
X77837677Y-91678999D01*
X77816813Y-91595704D01*
X77804213Y-91510765D01*
X77800000Y-91425000D01*
X77800000Y-89675000D01*
X77804213Y-89589235D01*
X77816813Y-89504296D01*
X77837677Y-89421001D01*
X77866605Y-89340152D01*
X77903319Y-89262528D01*
X77947464Y-89188876D01*
X77998616Y-89119906D01*
X78056282Y-89056282D01*
X78119906Y-88998616D01*
X78188876Y-88947464D01*
X78262528Y-88903319D01*
X78340152Y-88866605D01*
X78421001Y-88837677D01*
X78504296Y-88816813D01*
X78589235Y-88804213D01*
X78675000Y-88800000D01*
X80425000Y-88800000D01*
X80510765Y-88804213D01*
X80510765Y-88804213D01*
G37*
D18*
X79550000Y-90550000D03*
D11*
G36*
X77373513Y-93503611D02*
G01*
X77446318Y-93514411D01*
X77517714Y-93532295D01*
X77587013Y-93557090D01*
X77653548Y-93588559D01*
X77716678Y-93626398D01*
X77775795Y-93670242D01*
X77830330Y-93719670D01*
X77879758Y-93774205D01*
X77923602Y-93833322D01*
X77961441Y-93896452D01*
X77992910Y-93962987D01*
X78017705Y-94032286D01*
X78035589Y-94103682D01*
X78046389Y-94176487D01*
X78050000Y-94250000D01*
X78050000Y-96250000D01*
X78046389Y-96323513D01*
X78035589Y-96396318D01*
X78017705Y-96467714D01*
X77992910Y-96537013D01*
X77961441Y-96603548D01*
X77923602Y-96666678D01*
X77879758Y-96725795D01*
X77830330Y-96780330D01*
X77775795Y-96829758D01*
X77716678Y-96873602D01*
X77653548Y-96911441D01*
X77587013Y-96942910D01*
X77517714Y-96967705D01*
X77446318Y-96985589D01*
X77373513Y-96996389D01*
X77300000Y-97000000D01*
X75800000Y-97000000D01*
X75726487Y-96996389D01*
X75653682Y-96985589D01*
X75582286Y-96967705D01*
X75512987Y-96942910D01*
X75446452Y-96911441D01*
X75383322Y-96873602D01*
X75324205Y-96829758D01*
X75269670Y-96780330D01*
X75220242Y-96725795D01*
X75176398Y-96666678D01*
X75138559Y-96603548D01*
X75107090Y-96537013D01*
X75082295Y-96467714D01*
X75064411Y-96396318D01*
X75053611Y-96323513D01*
X75050000Y-96250000D01*
X75050000Y-94250000D01*
X75053611Y-94176487D01*
X75064411Y-94103682D01*
X75082295Y-94032286D01*
X75107090Y-93962987D01*
X75138559Y-93896452D01*
X75176398Y-93833322D01*
X75220242Y-93774205D01*
X75269670Y-93719670D01*
X75324205Y-93670242D01*
X75383322Y-93626398D01*
X75446452Y-93588559D01*
X75512987Y-93557090D01*
X75582286Y-93532295D01*
X75653682Y-93514411D01*
X75726487Y-93503611D01*
X75800000Y-93500000D01*
X77300000Y-93500000D01*
X77373513Y-93503611D01*
X77373513Y-93503611D01*
G37*
D19*
X76550000Y-95250000D03*
D20*
X82550000Y-95250000D03*
D21*
X116405000Y-99060000D03*
D22*
X107255000Y-102460000D03*
X107255000Y-100760000D03*
X107255000Y-99060000D03*
X107255000Y-97360000D03*
X107255000Y-95660000D03*
D11*
G36*
X95519504Y-115966204D02*
G01*
X95543773Y-115969804D01*
X95567571Y-115975765D01*
X95590671Y-115984030D01*
X95612849Y-115994520D01*
X95633893Y-116007133D01*
X95653598Y-116021747D01*
X95671777Y-116038223D01*
X95688253Y-116056402D01*
X95702867Y-116076107D01*
X95715480Y-116097151D01*
X95725970Y-116119329D01*
X95734235Y-116142429D01*
X95740196Y-116166227D01*
X95743796Y-116190496D01*
X95745000Y-116215000D01*
X95745000Y-117465000D01*
X95743796Y-117489504D01*
X95740196Y-117513773D01*
X95734235Y-117537571D01*
X95725970Y-117560671D01*
X95715480Y-117582849D01*
X95702867Y-117603893D01*
X95688253Y-117623598D01*
X95671777Y-117641777D01*
X95653598Y-117658253D01*
X95633893Y-117672867D01*
X95612849Y-117685480D01*
X95590671Y-117695970D01*
X95567571Y-117704235D01*
X95543773Y-117710196D01*
X95519504Y-117713796D01*
X95495000Y-117715000D01*
X94570000Y-117715000D01*
X94545496Y-117713796D01*
X94521227Y-117710196D01*
X94497429Y-117704235D01*
X94474329Y-117695970D01*
X94452151Y-117685480D01*
X94431107Y-117672867D01*
X94411402Y-117658253D01*
X94393223Y-117641777D01*
X94376747Y-117623598D01*
X94362133Y-117603893D01*
X94349520Y-117582849D01*
X94339030Y-117560671D01*
X94330765Y-117537571D01*
X94324804Y-117513773D01*
X94321204Y-117489504D01*
X94320000Y-117465000D01*
X94320000Y-116215000D01*
X94321204Y-116190496D01*
X94324804Y-116166227D01*
X94330765Y-116142429D01*
X94339030Y-116119329D01*
X94349520Y-116097151D01*
X94362133Y-116076107D01*
X94376747Y-116056402D01*
X94393223Y-116038223D01*
X94411402Y-116021747D01*
X94431107Y-116007133D01*
X94452151Y-115994520D01*
X94474329Y-115984030D01*
X94497429Y-115975765D01*
X94521227Y-115969804D01*
X94545496Y-115966204D01*
X94570000Y-115965000D01*
X95495000Y-115965000D01*
X95519504Y-115966204D01*
X95519504Y-115966204D01*
G37*
D15*
X95032500Y-116840000D03*
D11*
G36*
X98494504Y-115966204D02*
G01*
X98518773Y-115969804D01*
X98542571Y-115975765D01*
X98565671Y-115984030D01*
X98587849Y-115994520D01*
X98608893Y-116007133D01*
X98628598Y-116021747D01*
X98646777Y-116038223D01*
X98663253Y-116056402D01*
X98677867Y-116076107D01*
X98690480Y-116097151D01*
X98700970Y-116119329D01*
X98709235Y-116142429D01*
X98715196Y-116166227D01*
X98718796Y-116190496D01*
X98720000Y-116215000D01*
X98720000Y-117465000D01*
X98718796Y-117489504D01*
X98715196Y-117513773D01*
X98709235Y-117537571D01*
X98700970Y-117560671D01*
X98690480Y-117582849D01*
X98677867Y-117603893D01*
X98663253Y-117623598D01*
X98646777Y-117641777D01*
X98628598Y-117658253D01*
X98608893Y-117672867D01*
X98587849Y-117685480D01*
X98565671Y-117695970D01*
X98542571Y-117704235D01*
X98518773Y-117710196D01*
X98494504Y-117713796D01*
X98470000Y-117715000D01*
X97545000Y-117715000D01*
X97520496Y-117713796D01*
X97496227Y-117710196D01*
X97472429Y-117704235D01*
X97449329Y-117695970D01*
X97427151Y-117685480D01*
X97406107Y-117672867D01*
X97386402Y-117658253D01*
X97368223Y-117641777D01*
X97351747Y-117623598D01*
X97337133Y-117603893D01*
X97324520Y-117582849D01*
X97314030Y-117560671D01*
X97305765Y-117537571D01*
X97299804Y-117513773D01*
X97296204Y-117489504D01*
X97295000Y-117465000D01*
X97295000Y-116215000D01*
X97296204Y-116190496D01*
X97299804Y-116166227D01*
X97305765Y-116142429D01*
X97314030Y-116119329D01*
X97324520Y-116097151D01*
X97337133Y-116076107D01*
X97351747Y-116056402D01*
X97368223Y-116038223D01*
X97386402Y-116021747D01*
X97406107Y-116007133D01*
X97427151Y-115994520D01*
X97449329Y-115984030D01*
X97472429Y-115975765D01*
X97496227Y-115969804D01*
X97520496Y-115966204D01*
X97545000Y-115965000D01*
X98470000Y-115965000D01*
X98494504Y-115966204D01*
X98494504Y-115966204D01*
G37*
D15*
X98007500Y-116840000D03*
D11*
G36*
X105062004Y-115966204D02*
G01*
X105086273Y-115969804D01*
X105110071Y-115975765D01*
X105133171Y-115984030D01*
X105155349Y-115994520D01*
X105176393Y-116007133D01*
X105196098Y-116021747D01*
X105214277Y-116038223D01*
X105230753Y-116056402D01*
X105245367Y-116076107D01*
X105257980Y-116097151D01*
X105268470Y-116119329D01*
X105276735Y-116142429D01*
X105282696Y-116166227D01*
X105286296Y-116190496D01*
X105287500Y-116215000D01*
X105287500Y-117465000D01*
X105286296Y-117489504D01*
X105282696Y-117513773D01*
X105276735Y-117537571D01*
X105268470Y-117560671D01*
X105257980Y-117582849D01*
X105245367Y-117603893D01*
X105230753Y-117623598D01*
X105214277Y-117641777D01*
X105196098Y-117658253D01*
X105176393Y-117672867D01*
X105155349Y-117685480D01*
X105133171Y-117695970D01*
X105110071Y-117704235D01*
X105086273Y-117710196D01*
X105062004Y-117713796D01*
X105037500Y-117715000D01*
X104112500Y-117715000D01*
X104087996Y-117713796D01*
X104063727Y-117710196D01*
X104039929Y-117704235D01*
X104016829Y-117695970D01*
X103994651Y-117685480D01*
X103973607Y-117672867D01*
X103953902Y-117658253D01*
X103935723Y-117641777D01*
X103919247Y-117623598D01*
X103904633Y-117603893D01*
X103892020Y-117582849D01*
X103881530Y-117560671D01*
X103873265Y-117537571D01*
X103867304Y-117513773D01*
X103863704Y-117489504D01*
X103862500Y-117465000D01*
X103862500Y-116215000D01*
X103863704Y-116190496D01*
X103867304Y-116166227D01*
X103873265Y-116142429D01*
X103881530Y-116119329D01*
X103892020Y-116097151D01*
X103904633Y-116076107D01*
X103919247Y-116056402D01*
X103935723Y-116038223D01*
X103953902Y-116021747D01*
X103973607Y-116007133D01*
X103994651Y-115994520D01*
X104016829Y-115984030D01*
X104039929Y-115975765D01*
X104063727Y-115969804D01*
X104087996Y-115966204D01*
X104112500Y-115965000D01*
X105037500Y-115965000D01*
X105062004Y-115966204D01*
X105062004Y-115966204D01*
G37*
D15*
X104575000Y-116840000D03*
D11*
G36*
X102087004Y-115966204D02*
G01*
X102111273Y-115969804D01*
X102135071Y-115975765D01*
X102158171Y-115984030D01*
X102180349Y-115994520D01*
X102201393Y-116007133D01*
X102221098Y-116021747D01*
X102239277Y-116038223D01*
X102255753Y-116056402D01*
X102270367Y-116076107D01*
X102282980Y-116097151D01*
X102293470Y-116119329D01*
X102301735Y-116142429D01*
X102307696Y-116166227D01*
X102311296Y-116190496D01*
X102312500Y-116215000D01*
X102312500Y-117465000D01*
X102311296Y-117489504D01*
X102307696Y-117513773D01*
X102301735Y-117537571D01*
X102293470Y-117560671D01*
X102282980Y-117582849D01*
X102270367Y-117603893D01*
X102255753Y-117623598D01*
X102239277Y-117641777D01*
X102221098Y-117658253D01*
X102201393Y-117672867D01*
X102180349Y-117685480D01*
X102158171Y-117695970D01*
X102135071Y-117704235D01*
X102111273Y-117710196D01*
X102087004Y-117713796D01*
X102062500Y-117715000D01*
X101137500Y-117715000D01*
X101112996Y-117713796D01*
X101088727Y-117710196D01*
X101064929Y-117704235D01*
X101041829Y-117695970D01*
X101019651Y-117685480D01*
X100998607Y-117672867D01*
X100978902Y-117658253D01*
X100960723Y-117641777D01*
X100944247Y-117623598D01*
X100929633Y-117603893D01*
X100917020Y-117582849D01*
X100906530Y-117560671D01*
X100898265Y-117537571D01*
X100892304Y-117513773D01*
X100888704Y-117489504D01*
X100887500Y-117465000D01*
X100887500Y-116215000D01*
X100888704Y-116190496D01*
X100892304Y-116166227D01*
X100898265Y-116142429D01*
X100906530Y-116119329D01*
X100917020Y-116097151D01*
X100929633Y-116076107D01*
X100944247Y-116056402D01*
X100960723Y-116038223D01*
X100978902Y-116021747D01*
X100998607Y-116007133D01*
X101019651Y-115994520D01*
X101041829Y-115984030D01*
X101064929Y-115975765D01*
X101088727Y-115969804D01*
X101112996Y-115966204D01*
X101137500Y-115965000D01*
X102062500Y-115965000D01*
X102087004Y-115966204D01*
X102087004Y-115966204D01*
G37*
D15*
X101600000Y-116840000D03*
D23*
X97660000Y-127000000D03*
X87760000Y-127000000D03*
D11*
G36*
X147470765Y-113444213D02*
G01*
X147555704Y-113456813D01*
X147638999Y-113477677D01*
X147719848Y-113506605D01*
X147797472Y-113543319D01*
X147871124Y-113587464D01*
X147940094Y-113638616D01*
X148003718Y-113696282D01*
X148061384Y-113759906D01*
X148112536Y-113828876D01*
X148156681Y-113902528D01*
X148193395Y-113980152D01*
X148222323Y-114061001D01*
X148243187Y-114144296D01*
X148255787Y-114229235D01*
X148260000Y-114315000D01*
X148260000Y-116065000D01*
X148255787Y-116150765D01*
X148243187Y-116235704D01*
X148222323Y-116318999D01*
X148193395Y-116399848D01*
X148156681Y-116477472D01*
X148112536Y-116551124D01*
X148061384Y-116620094D01*
X148003718Y-116683718D01*
X147940094Y-116741384D01*
X147871124Y-116792536D01*
X147797472Y-116836681D01*
X147719848Y-116873395D01*
X147638999Y-116902323D01*
X147555704Y-116923187D01*
X147470765Y-116935787D01*
X147385000Y-116940000D01*
X145635000Y-116940000D01*
X145549235Y-116935787D01*
X145464296Y-116923187D01*
X145381001Y-116902323D01*
X145300152Y-116873395D01*
X145222528Y-116836681D01*
X145148876Y-116792536D01*
X145079906Y-116741384D01*
X145016282Y-116683718D01*
X144958616Y-116620094D01*
X144907464Y-116551124D01*
X144863319Y-116477472D01*
X144826605Y-116399848D01*
X144797677Y-116318999D01*
X144776813Y-116235704D01*
X144764213Y-116150765D01*
X144760000Y-116065000D01*
X144760000Y-114315000D01*
X144764213Y-114229235D01*
X144776813Y-114144296D01*
X144797677Y-114061001D01*
X144826605Y-113980152D01*
X144863319Y-113902528D01*
X144907464Y-113828876D01*
X144958616Y-113759906D01*
X145016282Y-113696282D01*
X145079906Y-113638616D01*
X145148876Y-113587464D01*
X145222528Y-113543319D01*
X145300152Y-113506605D01*
X145381001Y-113477677D01*
X145464296Y-113456813D01*
X145549235Y-113444213D01*
X145635000Y-113440000D01*
X147385000Y-113440000D01*
X147470765Y-113444213D01*
X147470765Y-113444213D01*
G37*
D18*
X146510000Y-115190000D03*
D11*
G36*
X150333513Y-108743611D02*
G01*
X150406318Y-108754411D01*
X150477714Y-108772295D01*
X150547013Y-108797090D01*
X150613548Y-108828559D01*
X150676678Y-108866398D01*
X150735795Y-108910242D01*
X150790330Y-108959670D01*
X150839758Y-109014205D01*
X150883602Y-109073322D01*
X150921441Y-109136452D01*
X150952910Y-109202987D01*
X150977705Y-109272286D01*
X150995589Y-109343682D01*
X151006389Y-109416487D01*
X151010000Y-109490000D01*
X151010000Y-111490000D01*
X151006389Y-111563513D01*
X150995589Y-111636318D01*
X150977705Y-111707714D01*
X150952910Y-111777013D01*
X150921441Y-111843548D01*
X150883602Y-111906678D01*
X150839758Y-111965795D01*
X150790330Y-112020330D01*
X150735795Y-112069758D01*
X150676678Y-112113602D01*
X150613548Y-112151441D01*
X150547013Y-112182910D01*
X150477714Y-112207705D01*
X150406318Y-112225589D01*
X150333513Y-112236389D01*
X150260000Y-112240000D01*
X148760000Y-112240000D01*
X148686487Y-112236389D01*
X148613682Y-112225589D01*
X148542286Y-112207705D01*
X148472987Y-112182910D01*
X148406452Y-112151441D01*
X148343322Y-112113602D01*
X148284205Y-112069758D01*
X148229670Y-112020330D01*
X148180242Y-111965795D01*
X148136398Y-111906678D01*
X148098559Y-111843548D01*
X148067090Y-111777013D01*
X148042295Y-111707714D01*
X148024411Y-111636318D01*
X148013611Y-111563513D01*
X148010000Y-111490000D01*
X148010000Y-109490000D01*
X148013611Y-109416487D01*
X148024411Y-109343682D01*
X148042295Y-109272286D01*
X148067090Y-109202987D01*
X148098559Y-109136452D01*
X148136398Y-109073322D01*
X148180242Y-109014205D01*
X148229670Y-108959670D01*
X148284205Y-108910242D01*
X148343322Y-108866398D01*
X148406452Y-108828559D01*
X148472987Y-108797090D01*
X148542286Y-108772295D01*
X148613682Y-108754411D01*
X148686487Y-108743611D01*
X148760000Y-108740000D01*
X150260000Y-108740000D01*
X150333513Y-108743611D01*
X150333513Y-108743611D01*
G37*
D19*
X149510000Y-110490000D03*
D20*
X143510000Y-110490000D03*
D11*
G36*
X133999504Y-117181204D02*
G01*
X134023773Y-117184804D01*
X134047571Y-117190765D01*
X134070671Y-117199030D01*
X134092849Y-117209520D01*
X134113893Y-117222133D01*
X134133598Y-117236747D01*
X134151777Y-117253223D01*
X134168253Y-117271402D01*
X134182867Y-117291107D01*
X134195480Y-117312151D01*
X134205970Y-117334329D01*
X134214235Y-117357429D01*
X134220196Y-117381227D01*
X134223796Y-117405496D01*
X134225000Y-117430000D01*
X134225000Y-118355000D01*
X134223796Y-118379504D01*
X134220196Y-118403773D01*
X134214235Y-118427571D01*
X134205970Y-118450671D01*
X134195480Y-118472849D01*
X134182867Y-118493893D01*
X134168253Y-118513598D01*
X134151777Y-118531777D01*
X134133598Y-118548253D01*
X134113893Y-118562867D01*
X134092849Y-118575480D01*
X134070671Y-118585970D01*
X134047571Y-118594235D01*
X134023773Y-118600196D01*
X133999504Y-118603796D01*
X133975000Y-118605000D01*
X132725000Y-118605000D01*
X132700496Y-118603796D01*
X132676227Y-118600196D01*
X132652429Y-118594235D01*
X132629329Y-118585970D01*
X132607151Y-118575480D01*
X132586107Y-118562867D01*
X132566402Y-118548253D01*
X132548223Y-118531777D01*
X132531747Y-118513598D01*
X132517133Y-118493893D01*
X132504520Y-118472849D01*
X132494030Y-118450671D01*
X132485765Y-118427571D01*
X132479804Y-118403773D01*
X132476204Y-118379504D01*
X132475000Y-118355000D01*
X132475000Y-117430000D01*
X132476204Y-117405496D01*
X132479804Y-117381227D01*
X132485765Y-117357429D01*
X132494030Y-117334329D01*
X132504520Y-117312151D01*
X132517133Y-117291107D01*
X132531747Y-117271402D01*
X132548223Y-117253223D01*
X132566402Y-117236747D01*
X132586107Y-117222133D01*
X132607151Y-117209520D01*
X132629329Y-117199030D01*
X132652429Y-117190765D01*
X132676227Y-117184804D01*
X132700496Y-117181204D01*
X132725000Y-117180000D01*
X133975000Y-117180000D01*
X133999504Y-117181204D01*
X133999504Y-117181204D01*
G37*
D15*
X133350000Y-117892500D03*
D11*
G36*
X133999504Y-120156204D02*
G01*
X134023773Y-120159804D01*
X134047571Y-120165765D01*
X134070671Y-120174030D01*
X134092849Y-120184520D01*
X134113893Y-120197133D01*
X134133598Y-120211747D01*
X134151777Y-120228223D01*
X134168253Y-120246402D01*
X134182867Y-120266107D01*
X134195480Y-120287151D01*
X134205970Y-120309329D01*
X134214235Y-120332429D01*
X134220196Y-120356227D01*
X134223796Y-120380496D01*
X134225000Y-120405000D01*
X134225000Y-121330000D01*
X134223796Y-121354504D01*
X134220196Y-121378773D01*
X134214235Y-121402571D01*
X134205970Y-121425671D01*
X134195480Y-121447849D01*
X134182867Y-121468893D01*
X134168253Y-121488598D01*
X134151777Y-121506777D01*
X134133598Y-121523253D01*
X134113893Y-121537867D01*
X134092849Y-121550480D01*
X134070671Y-121560970D01*
X134047571Y-121569235D01*
X134023773Y-121575196D01*
X133999504Y-121578796D01*
X133975000Y-121580000D01*
X132725000Y-121580000D01*
X132700496Y-121578796D01*
X132676227Y-121575196D01*
X132652429Y-121569235D01*
X132629329Y-121560970D01*
X132607151Y-121550480D01*
X132586107Y-121537867D01*
X132566402Y-121523253D01*
X132548223Y-121506777D01*
X132531747Y-121488598D01*
X132517133Y-121468893D01*
X132504520Y-121447849D01*
X132494030Y-121425671D01*
X132485765Y-121402571D01*
X132479804Y-121378773D01*
X132476204Y-121354504D01*
X132475000Y-121330000D01*
X132475000Y-120405000D01*
X132476204Y-120380496D01*
X132479804Y-120356227D01*
X132485765Y-120332429D01*
X132494030Y-120309329D01*
X132504520Y-120287151D01*
X132517133Y-120266107D01*
X132531747Y-120246402D01*
X132548223Y-120228223D01*
X132566402Y-120211747D01*
X132586107Y-120197133D01*
X132607151Y-120184520D01*
X132629329Y-120174030D01*
X132652429Y-120165765D01*
X132676227Y-120159804D01*
X132700496Y-120156204D01*
X132725000Y-120155000D01*
X133975000Y-120155000D01*
X133999504Y-120156204D01*
X133999504Y-120156204D01*
G37*
D15*
X133350000Y-120867500D03*
D11*
G36*
X128919504Y-116963704D02*
G01*
X128943773Y-116967304D01*
X128967571Y-116973265D01*
X128990671Y-116981530D01*
X129012849Y-116992020D01*
X129033893Y-117004633D01*
X129053598Y-117019247D01*
X129071777Y-117035723D01*
X129088253Y-117053902D01*
X129102867Y-117073607D01*
X129115480Y-117094651D01*
X129125970Y-117116829D01*
X129134235Y-117139929D01*
X129140196Y-117163727D01*
X129143796Y-117187996D01*
X129145000Y-117212500D01*
X129145000Y-118137500D01*
X129143796Y-118162004D01*
X129140196Y-118186273D01*
X129134235Y-118210071D01*
X129125970Y-118233171D01*
X129115480Y-118255349D01*
X129102867Y-118276393D01*
X129088253Y-118296098D01*
X129071777Y-118314277D01*
X129053598Y-118330753D01*
X129033893Y-118345367D01*
X129012849Y-118357980D01*
X128990671Y-118368470D01*
X128967571Y-118376735D01*
X128943773Y-118382696D01*
X128919504Y-118386296D01*
X128895000Y-118387500D01*
X127645000Y-118387500D01*
X127620496Y-118386296D01*
X127596227Y-118382696D01*
X127572429Y-118376735D01*
X127549329Y-118368470D01*
X127527151Y-118357980D01*
X127506107Y-118345367D01*
X127486402Y-118330753D01*
X127468223Y-118314277D01*
X127451747Y-118296098D01*
X127437133Y-118276393D01*
X127424520Y-118255349D01*
X127414030Y-118233171D01*
X127405765Y-118210071D01*
X127399804Y-118186273D01*
X127396204Y-118162004D01*
X127395000Y-118137500D01*
X127395000Y-117212500D01*
X127396204Y-117187996D01*
X127399804Y-117163727D01*
X127405765Y-117139929D01*
X127414030Y-117116829D01*
X127424520Y-117094651D01*
X127437133Y-117073607D01*
X127451747Y-117053902D01*
X127468223Y-117035723D01*
X127486402Y-117019247D01*
X127506107Y-117004633D01*
X127527151Y-116992020D01*
X127549329Y-116981530D01*
X127572429Y-116973265D01*
X127596227Y-116967304D01*
X127620496Y-116963704D01*
X127645000Y-116962500D01*
X128895000Y-116962500D01*
X128919504Y-116963704D01*
X128919504Y-116963704D01*
G37*
D15*
X128270000Y-117675000D03*
D11*
G36*
X128919504Y-119938704D02*
G01*
X128943773Y-119942304D01*
X128967571Y-119948265D01*
X128990671Y-119956530D01*
X129012849Y-119967020D01*
X129033893Y-119979633D01*
X129053598Y-119994247D01*
X129071777Y-120010723D01*
X129088253Y-120028902D01*
X129102867Y-120048607D01*
X129115480Y-120069651D01*
X129125970Y-120091829D01*
X129134235Y-120114929D01*
X129140196Y-120138727D01*
X129143796Y-120162996D01*
X129145000Y-120187500D01*
X129145000Y-121112500D01*
X129143796Y-121137004D01*
X129140196Y-121161273D01*
X129134235Y-121185071D01*
X129125970Y-121208171D01*
X129115480Y-121230349D01*
X129102867Y-121251393D01*
X129088253Y-121271098D01*
X129071777Y-121289277D01*
X129053598Y-121305753D01*
X129033893Y-121320367D01*
X129012849Y-121332980D01*
X128990671Y-121343470D01*
X128967571Y-121351735D01*
X128943773Y-121357696D01*
X128919504Y-121361296D01*
X128895000Y-121362500D01*
X127645000Y-121362500D01*
X127620496Y-121361296D01*
X127596227Y-121357696D01*
X127572429Y-121351735D01*
X127549329Y-121343470D01*
X127527151Y-121332980D01*
X127506107Y-121320367D01*
X127486402Y-121305753D01*
X127468223Y-121289277D01*
X127451747Y-121271098D01*
X127437133Y-121251393D01*
X127424520Y-121230349D01*
X127414030Y-121208171D01*
X127405765Y-121185071D01*
X127399804Y-121161273D01*
X127396204Y-121137004D01*
X127395000Y-121112500D01*
X127395000Y-120187500D01*
X127396204Y-120162996D01*
X127399804Y-120138727D01*
X127405765Y-120114929D01*
X127414030Y-120091829D01*
X127424520Y-120069651D01*
X127437133Y-120048607D01*
X127451747Y-120028902D01*
X127468223Y-120010723D01*
X127486402Y-119994247D01*
X127506107Y-119979633D01*
X127527151Y-119967020D01*
X127549329Y-119956530D01*
X127572429Y-119948265D01*
X127596227Y-119942304D01*
X127620496Y-119938704D01*
X127645000Y-119937500D01*
X128895000Y-119937500D01*
X128919504Y-119938704D01*
X128919504Y-119938704D01*
G37*
D15*
X128270000Y-120650000D03*
D24*
X129540000Y-53260000D03*
D25*
X129540000Y-48260000D03*
D11*
G36*
X114699504Y-72786204D02*
G01*
X114723773Y-72789804D01*
X114747571Y-72795765D01*
X114770671Y-72804030D01*
X114792849Y-72814520D01*
X114813893Y-72827133D01*
X114833598Y-72841747D01*
X114851777Y-72858223D01*
X114868253Y-72876402D01*
X114882867Y-72896107D01*
X114895480Y-72917151D01*
X114905970Y-72939329D01*
X114914235Y-72962429D01*
X114920196Y-72986227D01*
X114923796Y-73010496D01*
X114925000Y-73035000D01*
X114925000Y-74285000D01*
X114923796Y-74309504D01*
X114920196Y-74333773D01*
X114914235Y-74357571D01*
X114905970Y-74380671D01*
X114895480Y-74402849D01*
X114882867Y-74423893D01*
X114868253Y-74443598D01*
X114851777Y-74461777D01*
X114833598Y-74478253D01*
X114813893Y-74492867D01*
X114792849Y-74505480D01*
X114770671Y-74515970D01*
X114747571Y-74524235D01*
X114723773Y-74530196D01*
X114699504Y-74533796D01*
X114675000Y-74535000D01*
X113925000Y-74535000D01*
X113900496Y-74533796D01*
X113876227Y-74530196D01*
X113852429Y-74524235D01*
X113829329Y-74515970D01*
X113807151Y-74505480D01*
X113786107Y-74492867D01*
X113766402Y-74478253D01*
X113748223Y-74461777D01*
X113731747Y-74443598D01*
X113717133Y-74423893D01*
X113704520Y-74402849D01*
X113694030Y-74380671D01*
X113685765Y-74357571D01*
X113679804Y-74333773D01*
X113676204Y-74309504D01*
X113675000Y-74285000D01*
X113675000Y-73035000D01*
X113676204Y-73010496D01*
X113679804Y-72986227D01*
X113685765Y-72962429D01*
X113694030Y-72939329D01*
X113704520Y-72917151D01*
X113717133Y-72896107D01*
X113731747Y-72876402D01*
X113748223Y-72858223D01*
X113766402Y-72841747D01*
X113786107Y-72827133D01*
X113807151Y-72814520D01*
X113829329Y-72804030D01*
X113852429Y-72795765D01*
X113876227Y-72789804D01*
X113900496Y-72786204D01*
X113925000Y-72785000D01*
X114675000Y-72785000D01*
X114699504Y-72786204D01*
X114699504Y-72786204D01*
G37*
D26*
X114300000Y-73660000D03*
D11*
G36*
X111899504Y-72786204D02*
G01*
X111923773Y-72789804D01*
X111947571Y-72795765D01*
X111970671Y-72804030D01*
X111992849Y-72814520D01*
X112013893Y-72827133D01*
X112033598Y-72841747D01*
X112051777Y-72858223D01*
X112068253Y-72876402D01*
X112082867Y-72896107D01*
X112095480Y-72917151D01*
X112105970Y-72939329D01*
X112114235Y-72962429D01*
X112120196Y-72986227D01*
X112123796Y-73010496D01*
X112125000Y-73035000D01*
X112125000Y-74285000D01*
X112123796Y-74309504D01*
X112120196Y-74333773D01*
X112114235Y-74357571D01*
X112105970Y-74380671D01*
X112095480Y-74402849D01*
X112082867Y-74423893D01*
X112068253Y-74443598D01*
X112051777Y-74461777D01*
X112033598Y-74478253D01*
X112013893Y-74492867D01*
X111992849Y-74505480D01*
X111970671Y-74515970D01*
X111947571Y-74524235D01*
X111923773Y-74530196D01*
X111899504Y-74533796D01*
X111875000Y-74535000D01*
X111125000Y-74535000D01*
X111100496Y-74533796D01*
X111076227Y-74530196D01*
X111052429Y-74524235D01*
X111029329Y-74515970D01*
X111007151Y-74505480D01*
X110986107Y-74492867D01*
X110966402Y-74478253D01*
X110948223Y-74461777D01*
X110931747Y-74443598D01*
X110917133Y-74423893D01*
X110904520Y-74402849D01*
X110894030Y-74380671D01*
X110885765Y-74357571D01*
X110879804Y-74333773D01*
X110876204Y-74309504D01*
X110875000Y-74285000D01*
X110875000Y-73035000D01*
X110876204Y-73010496D01*
X110879804Y-72986227D01*
X110885765Y-72962429D01*
X110894030Y-72939329D01*
X110904520Y-72917151D01*
X110917133Y-72896107D01*
X110931747Y-72876402D01*
X110948223Y-72858223D01*
X110966402Y-72841747D01*
X110986107Y-72827133D01*
X111007151Y-72814520D01*
X111029329Y-72804030D01*
X111052429Y-72795765D01*
X111076227Y-72789804D01*
X111100496Y-72786204D01*
X111125000Y-72785000D01*
X111875000Y-72785000D01*
X111899504Y-72786204D01*
X111899504Y-72786204D01*
G37*
D26*
X111500000Y-73660000D03*
D11*
G36*
X147470765Y-62644213D02*
G01*
X147555704Y-62656813D01*
X147638999Y-62677677D01*
X147719848Y-62706605D01*
X147797472Y-62743319D01*
X147871124Y-62787464D01*
X147940094Y-62838616D01*
X148003718Y-62896282D01*
X148061384Y-62959906D01*
X148112536Y-63028876D01*
X148156681Y-63102528D01*
X148193395Y-63180152D01*
X148222323Y-63261001D01*
X148243187Y-63344296D01*
X148255787Y-63429235D01*
X148260000Y-63515000D01*
X148260000Y-65265000D01*
X148255787Y-65350765D01*
X148243187Y-65435704D01*
X148222323Y-65518999D01*
X148193395Y-65599848D01*
X148156681Y-65677472D01*
X148112536Y-65751124D01*
X148061384Y-65820094D01*
X148003718Y-65883718D01*
X147940094Y-65941384D01*
X147871124Y-65992536D01*
X147797472Y-66036681D01*
X147719848Y-66073395D01*
X147638999Y-66102323D01*
X147555704Y-66123187D01*
X147470765Y-66135787D01*
X147385000Y-66140000D01*
X145635000Y-66140000D01*
X145549235Y-66135787D01*
X145464296Y-66123187D01*
X145381001Y-66102323D01*
X145300152Y-66073395D01*
X145222528Y-66036681D01*
X145148876Y-65992536D01*
X145079906Y-65941384D01*
X145016282Y-65883718D01*
X144958616Y-65820094D01*
X144907464Y-65751124D01*
X144863319Y-65677472D01*
X144826605Y-65599848D01*
X144797677Y-65518999D01*
X144776813Y-65435704D01*
X144764213Y-65350765D01*
X144760000Y-65265000D01*
X144760000Y-63515000D01*
X144764213Y-63429235D01*
X144776813Y-63344296D01*
X144797677Y-63261001D01*
X144826605Y-63180152D01*
X144863319Y-63102528D01*
X144907464Y-63028876D01*
X144958616Y-62959906D01*
X145016282Y-62896282D01*
X145079906Y-62838616D01*
X145148876Y-62787464D01*
X145222528Y-62743319D01*
X145300152Y-62706605D01*
X145381001Y-62677677D01*
X145464296Y-62656813D01*
X145549235Y-62644213D01*
X145635000Y-62640000D01*
X147385000Y-62640000D01*
X147470765Y-62644213D01*
X147470765Y-62644213D01*
G37*
D18*
X146510000Y-64390000D03*
D11*
G36*
X150333513Y-57943611D02*
G01*
X150406318Y-57954411D01*
X150477714Y-57972295D01*
X150547013Y-57997090D01*
X150613548Y-58028559D01*
X150676678Y-58066398D01*
X150735795Y-58110242D01*
X150790330Y-58159670D01*
X150839758Y-58214205D01*
X150883602Y-58273322D01*
X150921441Y-58336452D01*
X150952910Y-58402987D01*
X150977705Y-58472286D01*
X150995589Y-58543682D01*
X151006389Y-58616487D01*
X151010000Y-58690000D01*
X151010000Y-60690000D01*
X151006389Y-60763513D01*
X150995589Y-60836318D01*
X150977705Y-60907714D01*
X150952910Y-60977013D01*
X150921441Y-61043548D01*
X150883602Y-61106678D01*
X150839758Y-61165795D01*
X150790330Y-61220330D01*
X150735795Y-61269758D01*
X150676678Y-61313602D01*
X150613548Y-61351441D01*
X150547013Y-61382910D01*
X150477714Y-61407705D01*
X150406318Y-61425589D01*
X150333513Y-61436389D01*
X150260000Y-61440000D01*
X148760000Y-61440000D01*
X148686487Y-61436389D01*
X148613682Y-61425589D01*
X148542286Y-61407705D01*
X148472987Y-61382910D01*
X148406452Y-61351441D01*
X148343322Y-61313602D01*
X148284205Y-61269758D01*
X148229670Y-61220330D01*
X148180242Y-61165795D01*
X148136398Y-61106678D01*
X148098559Y-61043548D01*
X148067090Y-60977013D01*
X148042295Y-60907714D01*
X148024411Y-60836318D01*
X148013611Y-60763513D01*
X148010000Y-60690000D01*
X148010000Y-58690000D01*
X148013611Y-58616487D01*
X148024411Y-58543682D01*
X148042295Y-58472286D01*
X148067090Y-58402987D01*
X148098559Y-58336452D01*
X148136398Y-58273322D01*
X148180242Y-58214205D01*
X148229670Y-58159670D01*
X148284205Y-58110242D01*
X148343322Y-58066398D01*
X148406452Y-58028559D01*
X148472987Y-57997090D01*
X148542286Y-57972295D01*
X148613682Y-57954411D01*
X148686487Y-57943611D01*
X148760000Y-57940000D01*
X150260000Y-57940000D01*
X150333513Y-57943611D01*
X150333513Y-57943611D01*
G37*
D19*
X149510000Y-59690000D03*
D20*
X143510000Y-59690000D03*
D11*
G36*
X80510765Y-71024213D02*
G01*
X80595704Y-71036813D01*
X80678999Y-71057677D01*
X80759848Y-71086605D01*
X80837472Y-71123319D01*
X80911124Y-71167464D01*
X80980094Y-71218616D01*
X81043718Y-71276282D01*
X81101384Y-71339906D01*
X81152536Y-71408876D01*
X81196681Y-71482528D01*
X81233395Y-71560152D01*
X81262323Y-71641001D01*
X81283187Y-71724296D01*
X81295787Y-71809235D01*
X81300000Y-71895000D01*
X81300000Y-73645000D01*
X81295787Y-73730765D01*
X81283187Y-73815704D01*
X81262323Y-73898999D01*
X81233395Y-73979848D01*
X81196681Y-74057472D01*
X81152536Y-74131124D01*
X81101384Y-74200094D01*
X81043718Y-74263718D01*
X80980094Y-74321384D01*
X80911124Y-74372536D01*
X80837472Y-74416681D01*
X80759848Y-74453395D01*
X80678999Y-74482323D01*
X80595704Y-74503187D01*
X80510765Y-74515787D01*
X80425000Y-74520000D01*
X78675000Y-74520000D01*
X78589235Y-74515787D01*
X78504296Y-74503187D01*
X78421001Y-74482323D01*
X78340152Y-74453395D01*
X78262528Y-74416681D01*
X78188876Y-74372536D01*
X78119906Y-74321384D01*
X78056282Y-74263718D01*
X77998616Y-74200094D01*
X77947464Y-74131124D01*
X77903319Y-74057472D01*
X77866605Y-73979848D01*
X77837677Y-73898999D01*
X77816813Y-73815704D01*
X77804213Y-73730765D01*
X77800000Y-73645000D01*
X77800000Y-71895000D01*
X77804213Y-71809235D01*
X77816813Y-71724296D01*
X77837677Y-71641001D01*
X77866605Y-71560152D01*
X77903319Y-71482528D01*
X77947464Y-71408876D01*
X77998616Y-71339906D01*
X78056282Y-71276282D01*
X78119906Y-71218616D01*
X78188876Y-71167464D01*
X78262528Y-71123319D01*
X78340152Y-71086605D01*
X78421001Y-71057677D01*
X78504296Y-71036813D01*
X78589235Y-71024213D01*
X78675000Y-71020000D01*
X80425000Y-71020000D01*
X80510765Y-71024213D01*
X80510765Y-71024213D01*
G37*
D18*
X79550000Y-72770000D03*
D11*
G36*
X77373513Y-75723611D02*
G01*
X77446318Y-75734411D01*
X77517714Y-75752295D01*
X77587013Y-75777090D01*
X77653548Y-75808559D01*
X77716678Y-75846398D01*
X77775795Y-75890242D01*
X77830330Y-75939670D01*
X77879758Y-75994205D01*
X77923602Y-76053322D01*
X77961441Y-76116452D01*
X77992910Y-76182987D01*
X78017705Y-76252286D01*
X78035589Y-76323682D01*
X78046389Y-76396487D01*
X78050000Y-76470000D01*
X78050000Y-78470000D01*
X78046389Y-78543513D01*
X78035589Y-78616318D01*
X78017705Y-78687714D01*
X77992910Y-78757013D01*
X77961441Y-78823548D01*
X77923602Y-78886678D01*
X77879758Y-78945795D01*
X77830330Y-79000330D01*
X77775795Y-79049758D01*
X77716678Y-79093602D01*
X77653548Y-79131441D01*
X77587013Y-79162910D01*
X77517714Y-79187705D01*
X77446318Y-79205589D01*
X77373513Y-79216389D01*
X77300000Y-79220000D01*
X75800000Y-79220000D01*
X75726487Y-79216389D01*
X75653682Y-79205589D01*
X75582286Y-79187705D01*
X75512987Y-79162910D01*
X75446452Y-79131441D01*
X75383322Y-79093602D01*
X75324205Y-79049758D01*
X75269670Y-79000330D01*
X75220242Y-78945795D01*
X75176398Y-78886678D01*
X75138559Y-78823548D01*
X75107090Y-78757013D01*
X75082295Y-78687714D01*
X75064411Y-78616318D01*
X75053611Y-78543513D01*
X75050000Y-78470000D01*
X75050000Y-76470000D01*
X75053611Y-76396487D01*
X75064411Y-76323682D01*
X75082295Y-76252286D01*
X75107090Y-76182987D01*
X75138559Y-76116452D01*
X75176398Y-76053322D01*
X75220242Y-75994205D01*
X75269670Y-75939670D01*
X75324205Y-75890242D01*
X75383322Y-75846398D01*
X75446452Y-75808559D01*
X75512987Y-75777090D01*
X75582286Y-75752295D01*
X75653682Y-75734411D01*
X75726487Y-75723611D01*
X75800000Y-75720000D01*
X77300000Y-75720000D01*
X77373513Y-75723611D01*
X77373513Y-75723611D01*
G37*
D19*
X76550000Y-77470000D03*
D20*
X82550000Y-77470000D03*
D27*
X104140000Y-70670000D03*
X104140000Y-72370000D03*
X104140000Y-74070000D03*
X104140000Y-75770000D03*
D28*
X104140000Y-77470000D03*
D11*
G36*
X92089504Y-75271204D02*
G01*
X92113773Y-75274804D01*
X92137571Y-75280765D01*
X92160671Y-75289030D01*
X92182849Y-75299520D01*
X92203893Y-75312133D01*
X92223598Y-75326747D01*
X92241777Y-75343223D01*
X92258253Y-75361402D01*
X92272867Y-75381107D01*
X92285480Y-75402151D01*
X92295970Y-75424329D01*
X92304235Y-75447429D01*
X92310196Y-75471227D01*
X92313796Y-75495496D01*
X92315000Y-75520000D01*
X92315000Y-76445000D01*
X92313796Y-76469504D01*
X92310196Y-76493773D01*
X92304235Y-76517571D01*
X92295970Y-76540671D01*
X92285480Y-76562849D01*
X92272867Y-76583893D01*
X92258253Y-76603598D01*
X92241777Y-76621777D01*
X92223598Y-76638253D01*
X92203893Y-76652867D01*
X92182849Y-76665480D01*
X92160671Y-76675970D01*
X92137571Y-76684235D01*
X92113773Y-76690196D01*
X92089504Y-76693796D01*
X92065000Y-76695000D01*
X90815000Y-76695000D01*
X90790496Y-76693796D01*
X90766227Y-76690196D01*
X90742429Y-76684235D01*
X90719329Y-76675970D01*
X90697151Y-76665480D01*
X90676107Y-76652867D01*
X90656402Y-76638253D01*
X90638223Y-76621777D01*
X90621747Y-76603598D01*
X90607133Y-76583893D01*
X90594520Y-76562849D01*
X90584030Y-76540671D01*
X90575765Y-76517571D01*
X90569804Y-76493773D01*
X90566204Y-76469504D01*
X90565000Y-76445000D01*
X90565000Y-75520000D01*
X90566204Y-75495496D01*
X90569804Y-75471227D01*
X90575765Y-75447429D01*
X90584030Y-75424329D01*
X90594520Y-75402151D01*
X90607133Y-75381107D01*
X90621747Y-75361402D01*
X90638223Y-75343223D01*
X90656402Y-75326747D01*
X90676107Y-75312133D01*
X90697151Y-75299520D01*
X90719329Y-75289030D01*
X90742429Y-75280765D01*
X90766227Y-75274804D01*
X90790496Y-75271204D01*
X90815000Y-75270000D01*
X92065000Y-75270000D01*
X92089504Y-75271204D01*
X92089504Y-75271204D01*
G37*
D15*
X91440000Y-75982500D03*
D11*
G36*
X92089504Y-78246204D02*
G01*
X92113773Y-78249804D01*
X92137571Y-78255765D01*
X92160671Y-78264030D01*
X92182849Y-78274520D01*
X92203893Y-78287133D01*
X92223598Y-78301747D01*
X92241777Y-78318223D01*
X92258253Y-78336402D01*
X92272867Y-78356107D01*
X92285480Y-78377151D01*
X92295970Y-78399329D01*
X92304235Y-78422429D01*
X92310196Y-78446227D01*
X92313796Y-78470496D01*
X92315000Y-78495000D01*
X92315000Y-79420000D01*
X92313796Y-79444504D01*
X92310196Y-79468773D01*
X92304235Y-79492571D01*
X92295970Y-79515671D01*
X92285480Y-79537849D01*
X92272867Y-79558893D01*
X92258253Y-79578598D01*
X92241777Y-79596777D01*
X92223598Y-79613253D01*
X92203893Y-79627867D01*
X92182849Y-79640480D01*
X92160671Y-79650970D01*
X92137571Y-79659235D01*
X92113773Y-79665196D01*
X92089504Y-79668796D01*
X92065000Y-79670000D01*
X90815000Y-79670000D01*
X90790496Y-79668796D01*
X90766227Y-79665196D01*
X90742429Y-79659235D01*
X90719329Y-79650970D01*
X90697151Y-79640480D01*
X90676107Y-79627867D01*
X90656402Y-79613253D01*
X90638223Y-79596777D01*
X90621747Y-79578598D01*
X90607133Y-79558893D01*
X90594520Y-79537849D01*
X90584030Y-79515671D01*
X90575765Y-79492571D01*
X90569804Y-79468773D01*
X90566204Y-79444504D01*
X90565000Y-79420000D01*
X90565000Y-78495000D01*
X90566204Y-78470496D01*
X90569804Y-78446227D01*
X90575765Y-78422429D01*
X90584030Y-78399329D01*
X90594520Y-78377151D01*
X90607133Y-78356107D01*
X90621747Y-78336402D01*
X90638223Y-78318223D01*
X90656402Y-78301747D01*
X90676107Y-78287133D01*
X90697151Y-78274520D01*
X90719329Y-78264030D01*
X90742429Y-78255765D01*
X90766227Y-78249804D01*
X90790496Y-78246204D01*
X90815000Y-78245000D01*
X92065000Y-78245000D01*
X92089504Y-78246204D01*
X92089504Y-78246204D01*
G37*
D15*
X91440000Y-78957500D03*
D11*
G36*
X97169504Y-75271204D02*
G01*
X97193773Y-75274804D01*
X97217571Y-75280765D01*
X97240671Y-75289030D01*
X97262849Y-75299520D01*
X97283893Y-75312133D01*
X97303598Y-75326747D01*
X97321777Y-75343223D01*
X97338253Y-75361402D01*
X97352867Y-75381107D01*
X97365480Y-75402151D01*
X97375970Y-75424329D01*
X97384235Y-75447429D01*
X97390196Y-75471227D01*
X97393796Y-75495496D01*
X97395000Y-75520000D01*
X97395000Y-76445000D01*
X97393796Y-76469504D01*
X97390196Y-76493773D01*
X97384235Y-76517571D01*
X97375970Y-76540671D01*
X97365480Y-76562849D01*
X97352867Y-76583893D01*
X97338253Y-76603598D01*
X97321777Y-76621777D01*
X97303598Y-76638253D01*
X97283893Y-76652867D01*
X97262849Y-76665480D01*
X97240671Y-76675970D01*
X97217571Y-76684235D01*
X97193773Y-76690196D01*
X97169504Y-76693796D01*
X97145000Y-76695000D01*
X95895000Y-76695000D01*
X95870496Y-76693796D01*
X95846227Y-76690196D01*
X95822429Y-76684235D01*
X95799329Y-76675970D01*
X95777151Y-76665480D01*
X95756107Y-76652867D01*
X95736402Y-76638253D01*
X95718223Y-76621777D01*
X95701747Y-76603598D01*
X95687133Y-76583893D01*
X95674520Y-76562849D01*
X95664030Y-76540671D01*
X95655765Y-76517571D01*
X95649804Y-76493773D01*
X95646204Y-76469504D01*
X95645000Y-76445000D01*
X95645000Y-75520000D01*
X95646204Y-75495496D01*
X95649804Y-75471227D01*
X95655765Y-75447429D01*
X95664030Y-75424329D01*
X95674520Y-75402151D01*
X95687133Y-75381107D01*
X95701747Y-75361402D01*
X95718223Y-75343223D01*
X95736402Y-75326747D01*
X95756107Y-75312133D01*
X95777151Y-75299520D01*
X95799329Y-75289030D01*
X95822429Y-75280765D01*
X95846227Y-75274804D01*
X95870496Y-75271204D01*
X95895000Y-75270000D01*
X97145000Y-75270000D01*
X97169504Y-75271204D01*
X97169504Y-75271204D01*
G37*
D15*
X96520000Y-75982500D03*
D11*
G36*
X97169504Y-78246204D02*
G01*
X97193773Y-78249804D01*
X97217571Y-78255765D01*
X97240671Y-78264030D01*
X97262849Y-78274520D01*
X97283893Y-78287133D01*
X97303598Y-78301747D01*
X97321777Y-78318223D01*
X97338253Y-78336402D01*
X97352867Y-78356107D01*
X97365480Y-78377151D01*
X97375970Y-78399329D01*
X97384235Y-78422429D01*
X97390196Y-78446227D01*
X97393796Y-78470496D01*
X97395000Y-78495000D01*
X97395000Y-79420000D01*
X97393796Y-79444504D01*
X97390196Y-79468773D01*
X97384235Y-79492571D01*
X97375970Y-79515671D01*
X97365480Y-79537849D01*
X97352867Y-79558893D01*
X97338253Y-79578598D01*
X97321777Y-79596777D01*
X97303598Y-79613253D01*
X97283893Y-79627867D01*
X97262849Y-79640480D01*
X97240671Y-79650970D01*
X97217571Y-79659235D01*
X97193773Y-79665196D01*
X97169504Y-79668796D01*
X97145000Y-79670000D01*
X95895000Y-79670000D01*
X95870496Y-79668796D01*
X95846227Y-79665196D01*
X95822429Y-79659235D01*
X95799329Y-79650970D01*
X95777151Y-79640480D01*
X95756107Y-79627867D01*
X95736402Y-79613253D01*
X95718223Y-79596777D01*
X95701747Y-79578598D01*
X95687133Y-79558893D01*
X95674520Y-79537849D01*
X95664030Y-79515671D01*
X95655765Y-79492571D01*
X95649804Y-79468773D01*
X95646204Y-79444504D01*
X95645000Y-79420000D01*
X95645000Y-78495000D01*
X95646204Y-78470496D01*
X95649804Y-78446227D01*
X95655765Y-78422429D01*
X95664030Y-78399329D01*
X95674520Y-78377151D01*
X95687133Y-78356107D01*
X95701747Y-78336402D01*
X95718223Y-78318223D01*
X95736402Y-78301747D01*
X95756107Y-78287133D01*
X95777151Y-78274520D01*
X95799329Y-78264030D01*
X95822429Y-78255765D01*
X95846227Y-78249804D01*
X95870496Y-78246204D01*
X95895000Y-78245000D01*
X97145000Y-78245000D01*
X97169504Y-78246204D01*
X97169504Y-78246204D01*
G37*
D15*
X96520000Y-78957500D03*
D11*
G36*
X132567004Y-65166204D02*
G01*
X132591273Y-65169804D01*
X132615071Y-65175765D01*
X132638171Y-65184030D01*
X132660349Y-65194520D01*
X132681393Y-65207133D01*
X132701098Y-65221747D01*
X132719277Y-65238223D01*
X132735753Y-65256402D01*
X132750367Y-65276107D01*
X132762980Y-65297151D01*
X132773470Y-65319329D01*
X132781735Y-65342429D01*
X132787696Y-65366227D01*
X132791296Y-65390496D01*
X132792500Y-65415000D01*
X132792500Y-66665000D01*
X132791296Y-66689504D01*
X132787696Y-66713773D01*
X132781735Y-66737571D01*
X132773470Y-66760671D01*
X132762980Y-66782849D01*
X132750367Y-66803893D01*
X132735753Y-66823598D01*
X132719277Y-66841777D01*
X132701098Y-66858253D01*
X132681393Y-66872867D01*
X132660349Y-66885480D01*
X132638171Y-66895970D01*
X132615071Y-66904235D01*
X132591273Y-66910196D01*
X132567004Y-66913796D01*
X132542500Y-66915000D01*
X131617500Y-66915000D01*
X131592996Y-66913796D01*
X131568727Y-66910196D01*
X131544929Y-66904235D01*
X131521829Y-66895970D01*
X131499651Y-66885480D01*
X131478607Y-66872867D01*
X131458902Y-66858253D01*
X131440723Y-66841777D01*
X131424247Y-66823598D01*
X131409633Y-66803893D01*
X131397020Y-66782849D01*
X131386530Y-66760671D01*
X131378265Y-66737571D01*
X131372304Y-66713773D01*
X131368704Y-66689504D01*
X131367500Y-66665000D01*
X131367500Y-65415000D01*
X131368704Y-65390496D01*
X131372304Y-65366227D01*
X131378265Y-65342429D01*
X131386530Y-65319329D01*
X131397020Y-65297151D01*
X131409633Y-65276107D01*
X131424247Y-65256402D01*
X131440723Y-65238223D01*
X131458902Y-65221747D01*
X131478607Y-65207133D01*
X131499651Y-65194520D01*
X131521829Y-65184030D01*
X131544929Y-65175765D01*
X131568727Y-65169804D01*
X131592996Y-65166204D01*
X131617500Y-65165000D01*
X132542500Y-65165000D01*
X132567004Y-65166204D01*
X132567004Y-65166204D01*
G37*
D15*
X132080000Y-66040000D03*
D11*
G36*
X129592004Y-65166204D02*
G01*
X129616273Y-65169804D01*
X129640071Y-65175765D01*
X129663171Y-65184030D01*
X129685349Y-65194520D01*
X129706393Y-65207133D01*
X129726098Y-65221747D01*
X129744277Y-65238223D01*
X129760753Y-65256402D01*
X129775367Y-65276107D01*
X129787980Y-65297151D01*
X129798470Y-65319329D01*
X129806735Y-65342429D01*
X129812696Y-65366227D01*
X129816296Y-65390496D01*
X129817500Y-65415000D01*
X129817500Y-66665000D01*
X129816296Y-66689504D01*
X129812696Y-66713773D01*
X129806735Y-66737571D01*
X129798470Y-66760671D01*
X129787980Y-66782849D01*
X129775367Y-66803893D01*
X129760753Y-66823598D01*
X129744277Y-66841777D01*
X129726098Y-66858253D01*
X129706393Y-66872867D01*
X129685349Y-66885480D01*
X129663171Y-66895970D01*
X129640071Y-66904235D01*
X129616273Y-66910196D01*
X129592004Y-66913796D01*
X129567500Y-66915000D01*
X128642500Y-66915000D01*
X128617996Y-66913796D01*
X128593727Y-66910196D01*
X128569929Y-66904235D01*
X128546829Y-66895970D01*
X128524651Y-66885480D01*
X128503607Y-66872867D01*
X128483902Y-66858253D01*
X128465723Y-66841777D01*
X128449247Y-66823598D01*
X128434633Y-66803893D01*
X128422020Y-66782849D01*
X128411530Y-66760671D01*
X128403265Y-66737571D01*
X128397304Y-66713773D01*
X128393704Y-66689504D01*
X128392500Y-66665000D01*
X128392500Y-65415000D01*
X128393704Y-65390496D01*
X128397304Y-65366227D01*
X128403265Y-65342429D01*
X128411530Y-65319329D01*
X128422020Y-65297151D01*
X128434633Y-65276107D01*
X128449247Y-65256402D01*
X128465723Y-65238223D01*
X128483902Y-65221747D01*
X128503607Y-65207133D01*
X128524651Y-65194520D01*
X128546829Y-65184030D01*
X128569929Y-65175765D01*
X128593727Y-65169804D01*
X128617996Y-65166204D01*
X128642500Y-65165000D01*
X129567500Y-65165000D01*
X129592004Y-65166204D01*
X129592004Y-65166204D01*
G37*
D15*
X129105000Y-66040000D03*
D11*
G36*
X132567004Y-70246204D02*
G01*
X132591273Y-70249804D01*
X132615071Y-70255765D01*
X132638171Y-70264030D01*
X132660349Y-70274520D01*
X132681393Y-70287133D01*
X132701098Y-70301747D01*
X132719277Y-70318223D01*
X132735753Y-70336402D01*
X132750367Y-70356107D01*
X132762980Y-70377151D01*
X132773470Y-70399329D01*
X132781735Y-70422429D01*
X132787696Y-70446227D01*
X132791296Y-70470496D01*
X132792500Y-70495000D01*
X132792500Y-71745000D01*
X132791296Y-71769504D01*
X132787696Y-71793773D01*
X132781735Y-71817571D01*
X132773470Y-71840671D01*
X132762980Y-71862849D01*
X132750367Y-71883893D01*
X132735753Y-71903598D01*
X132719277Y-71921777D01*
X132701098Y-71938253D01*
X132681393Y-71952867D01*
X132660349Y-71965480D01*
X132638171Y-71975970D01*
X132615071Y-71984235D01*
X132591273Y-71990196D01*
X132567004Y-71993796D01*
X132542500Y-71995000D01*
X131617500Y-71995000D01*
X131592996Y-71993796D01*
X131568727Y-71990196D01*
X131544929Y-71984235D01*
X131521829Y-71975970D01*
X131499651Y-71965480D01*
X131478607Y-71952867D01*
X131458902Y-71938253D01*
X131440723Y-71921777D01*
X131424247Y-71903598D01*
X131409633Y-71883893D01*
X131397020Y-71862849D01*
X131386530Y-71840671D01*
X131378265Y-71817571D01*
X131372304Y-71793773D01*
X131368704Y-71769504D01*
X131367500Y-71745000D01*
X131367500Y-70495000D01*
X131368704Y-70470496D01*
X131372304Y-70446227D01*
X131378265Y-70422429D01*
X131386530Y-70399329D01*
X131397020Y-70377151D01*
X131409633Y-70356107D01*
X131424247Y-70336402D01*
X131440723Y-70318223D01*
X131458902Y-70301747D01*
X131478607Y-70287133D01*
X131499651Y-70274520D01*
X131521829Y-70264030D01*
X131544929Y-70255765D01*
X131568727Y-70249804D01*
X131592996Y-70246204D01*
X131617500Y-70245000D01*
X132542500Y-70245000D01*
X132567004Y-70246204D01*
X132567004Y-70246204D01*
G37*
D15*
X132080000Y-71120000D03*
D11*
G36*
X129592004Y-70246204D02*
G01*
X129616273Y-70249804D01*
X129640071Y-70255765D01*
X129663171Y-70264030D01*
X129685349Y-70274520D01*
X129706393Y-70287133D01*
X129726098Y-70301747D01*
X129744277Y-70318223D01*
X129760753Y-70336402D01*
X129775367Y-70356107D01*
X129787980Y-70377151D01*
X129798470Y-70399329D01*
X129806735Y-70422429D01*
X129812696Y-70446227D01*
X129816296Y-70470496D01*
X129817500Y-70495000D01*
X129817500Y-71745000D01*
X129816296Y-71769504D01*
X129812696Y-71793773D01*
X129806735Y-71817571D01*
X129798470Y-71840671D01*
X129787980Y-71862849D01*
X129775367Y-71883893D01*
X129760753Y-71903598D01*
X129744277Y-71921777D01*
X129726098Y-71938253D01*
X129706393Y-71952867D01*
X129685349Y-71965480D01*
X129663171Y-71975970D01*
X129640071Y-71984235D01*
X129616273Y-71990196D01*
X129592004Y-71993796D01*
X129567500Y-71995000D01*
X128642500Y-71995000D01*
X128617996Y-71993796D01*
X128593727Y-71990196D01*
X128569929Y-71984235D01*
X128546829Y-71975970D01*
X128524651Y-71965480D01*
X128503607Y-71952867D01*
X128483902Y-71938253D01*
X128465723Y-71921777D01*
X128449247Y-71903598D01*
X128434633Y-71883893D01*
X128422020Y-71862849D01*
X128411530Y-71840671D01*
X128403265Y-71817571D01*
X128397304Y-71793773D01*
X128393704Y-71769504D01*
X128392500Y-71745000D01*
X128392500Y-70495000D01*
X128393704Y-70470496D01*
X128397304Y-70446227D01*
X128403265Y-70422429D01*
X128411530Y-70399329D01*
X128422020Y-70377151D01*
X128434633Y-70356107D01*
X128449247Y-70336402D01*
X128465723Y-70318223D01*
X128483902Y-70301747D01*
X128503607Y-70287133D01*
X128524651Y-70274520D01*
X128546829Y-70264030D01*
X128569929Y-70255765D01*
X128593727Y-70249804D01*
X128617996Y-70246204D01*
X128642500Y-70245000D01*
X129567500Y-70245000D01*
X129592004Y-70246204D01*
X129592004Y-70246204D01*
G37*
D15*
X129105000Y-71120000D03*
D11*
G36*
X112247004Y-67706204D02*
G01*
X112271273Y-67709804D01*
X112295071Y-67715765D01*
X112318171Y-67724030D01*
X112340349Y-67734520D01*
X112361393Y-67747133D01*
X112381098Y-67761747D01*
X112399277Y-67778223D01*
X112415753Y-67796402D01*
X112430367Y-67816107D01*
X112442980Y-67837151D01*
X112453470Y-67859329D01*
X112461735Y-67882429D01*
X112467696Y-67906227D01*
X112471296Y-67930496D01*
X112472500Y-67955000D01*
X112472500Y-69205000D01*
X112471296Y-69229504D01*
X112467696Y-69253773D01*
X112461735Y-69277571D01*
X112453470Y-69300671D01*
X112442980Y-69322849D01*
X112430367Y-69343893D01*
X112415753Y-69363598D01*
X112399277Y-69381777D01*
X112381098Y-69398253D01*
X112361393Y-69412867D01*
X112340349Y-69425480D01*
X112318171Y-69435970D01*
X112295071Y-69444235D01*
X112271273Y-69450196D01*
X112247004Y-69453796D01*
X112222500Y-69455000D01*
X111297500Y-69455000D01*
X111272996Y-69453796D01*
X111248727Y-69450196D01*
X111224929Y-69444235D01*
X111201829Y-69435970D01*
X111179651Y-69425480D01*
X111158607Y-69412867D01*
X111138902Y-69398253D01*
X111120723Y-69381777D01*
X111104247Y-69363598D01*
X111089633Y-69343893D01*
X111077020Y-69322849D01*
X111066530Y-69300671D01*
X111058265Y-69277571D01*
X111052304Y-69253773D01*
X111048704Y-69229504D01*
X111047500Y-69205000D01*
X111047500Y-67955000D01*
X111048704Y-67930496D01*
X111052304Y-67906227D01*
X111058265Y-67882429D01*
X111066530Y-67859329D01*
X111077020Y-67837151D01*
X111089633Y-67816107D01*
X111104247Y-67796402D01*
X111120723Y-67778223D01*
X111138902Y-67761747D01*
X111158607Y-67747133D01*
X111179651Y-67734520D01*
X111201829Y-67724030D01*
X111224929Y-67715765D01*
X111248727Y-67709804D01*
X111272996Y-67706204D01*
X111297500Y-67705000D01*
X112222500Y-67705000D01*
X112247004Y-67706204D01*
X112247004Y-67706204D01*
G37*
D15*
X111760000Y-68580000D03*
D11*
G36*
X115222004Y-67706204D02*
G01*
X115246273Y-67709804D01*
X115270071Y-67715765D01*
X115293171Y-67724030D01*
X115315349Y-67734520D01*
X115336393Y-67747133D01*
X115356098Y-67761747D01*
X115374277Y-67778223D01*
X115390753Y-67796402D01*
X115405367Y-67816107D01*
X115417980Y-67837151D01*
X115428470Y-67859329D01*
X115436735Y-67882429D01*
X115442696Y-67906227D01*
X115446296Y-67930496D01*
X115447500Y-67955000D01*
X115447500Y-69205000D01*
X115446296Y-69229504D01*
X115442696Y-69253773D01*
X115436735Y-69277571D01*
X115428470Y-69300671D01*
X115417980Y-69322849D01*
X115405367Y-69343893D01*
X115390753Y-69363598D01*
X115374277Y-69381777D01*
X115356098Y-69398253D01*
X115336393Y-69412867D01*
X115315349Y-69425480D01*
X115293171Y-69435970D01*
X115270071Y-69444235D01*
X115246273Y-69450196D01*
X115222004Y-69453796D01*
X115197500Y-69455000D01*
X114272500Y-69455000D01*
X114247996Y-69453796D01*
X114223727Y-69450196D01*
X114199929Y-69444235D01*
X114176829Y-69435970D01*
X114154651Y-69425480D01*
X114133607Y-69412867D01*
X114113902Y-69398253D01*
X114095723Y-69381777D01*
X114079247Y-69363598D01*
X114064633Y-69343893D01*
X114052020Y-69322849D01*
X114041530Y-69300671D01*
X114033265Y-69277571D01*
X114027304Y-69253773D01*
X114023704Y-69229504D01*
X114022500Y-69205000D01*
X114022500Y-67955000D01*
X114023704Y-67930496D01*
X114027304Y-67906227D01*
X114033265Y-67882429D01*
X114041530Y-67859329D01*
X114052020Y-67837151D01*
X114064633Y-67816107D01*
X114079247Y-67796402D01*
X114095723Y-67778223D01*
X114113902Y-67761747D01*
X114133607Y-67747133D01*
X114154651Y-67734520D01*
X114176829Y-67724030D01*
X114199929Y-67715765D01*
X114223727Y-67709804D01*
X114247996Y-67706204D01*
X114272500Y-67705000D01*
X115197500Y-67705000D01*
X115222004Y-67706204D01*
X115222004Y-67706204D01*
G37*
D15*
X114735000Y-68580000D03*
D11*
G36*
X115004504Y-76596204D02*
G01*
X115028773Y-76599804D01*
X115052571Y-76605765D01*
X115075671Y-76614030D01*
X115097849Y-76624520D01*
X115118893Y-76637133D01*
X115138598Y-76651747D01*
X115156777Y-76668223D01*
X115173253Y-76686402D01*
X115187867Y-76706107D01*
X115200480Y-76727151D01*
X115210970Y-76749329D01*
X115219235Y-76772429D01*
X115225196Y-76796227D01*
X115228796Y-76820496D01*
X115230000Y-76845000D01*
X115230000Y-78095000D01*
X115228796Y-78119504D01*
X115225196Y-78143773D01*
X115219235Y-78167571D01*
X115210970Y-78190671D01*
X115200480Y-78212849D01*
X115187867Y-78233893D01*
X115173253Y-78253598D01*
X115156777Y-78271777D01*
X115138598Y-78288253D01*
X115118893Y-78302867D01*
X115097849Y-78315480D01*
X115075671Y-78325970D01*
X115052571Y-78334235D01*
X115028773Y-78340196D01*
X115004504Y-78343796D01*
X114980000Y-78345000D01*
X114055000Y-78345000D01*
X114030496Y-78343796D01*
X114006227Y-78340196D01*
X113982429Y-78334235D01*
X113959329Y-78325970D01*
X113937151Y-78315480D01*
X113916107Y-78302867D01*
X113896402Y-78288253D01*
X113878223Y-78271777D01*
X113861747Y-78253598D01*
X113847133Y-78233893D01*
X113834520Y-78212849D01*
X113824030Y-78190671D01*
X113815765Y-78167571D01*
X113809804Y-78143773D01*
X113806204Y-78119504D01*
X113805000Y-78095000D01*
X113805000Y-76845000D01*
X113806204Y-76820496D01*
X113809804Y-76796227D01*
X113815765Y-76772429D01*
X113824030Y-76749329D01*
X113834520Y-76727151D01*
X113847133Y-76706107D01*
X113861747Y-76686402D01*
X113878223Y-76668223D01*
X113896402Y-76651747D01*
X113916107Y-76637133D01*
X113937151Y-76624520D01*
X113959329Y-76614030D01*
X113982429Y-76605765D01*
X114006227Y-76599804D01*
X114030496Y-76596204D01*
X114055000Y-76595000D01*
X114980000Y-76595000D01*
X115004504Y-76596204D01*
X115004504Y-76596204D01*
G37*
D15*
X114517500Y-77470000D03*
D11*
G36*
X112029504Y-76596204D02*
G01*
X112053773Y-76599804D01*
X112077571Y-76605765D01*
X112100671Y-76614030D01*
X112122849Y-76624520D01*
X112143893Y-76637133D01*
X112163598Y-76651747D01*
X112181777Y-76668223D01*
X112198253Y-76686402D01*
X112212867Y-76706107D01*
X112225480Y-76727151D01*
X112235970Y-76749329D01*
X112244235Y-76772429D01*
X112250196Y-76796227D01*
X112253796Y-76820496D01*
X112255000Y-76845000D01*
X112255000Y-78095000D01*
X112253796Y-78119504D01*
X112250196Y-78143773D01*
X112244235Y-78167571D01*
X112235970Y-78190671D01*
X112225480Y-78212849D01*
X112212867Y-78233893D01*
X112198253Y-78253598D01*
X112181777Y-78271777D01*
X112163598Y-78288253D01*
X112143893Y-78302867D01*
X112122849Y-78315480D01*
X112100671Y-78325970D01*
X112077571Y-78334235D01*
X112053773Y-78340196D01*
X112029504Y-78343796D01*
X112005000Y-78345000D01*
X111080000Y-78345000D01*
X111055496Y-78343796D01*
X111031227Y-78340196D01*
X111007429Y-78334235D01*
X110984329Y-78325970D01*
X110962151Y-78315480D01*
X110941107Y-78302867D01*
X110921402Y-78288253D01*
X110903223Y-78271777D01*
X110886747Y-78253598D01*
X110872133Y-78233893D01*
X110859520Y-78212849D01*
X110849030Y-78190671D01*
X110840765Y-78167571D01*
X110834804Y-78143773D01*
X110831204Y-78119504D01*
X110830000Y-78095000D01*
X110830000Y-76845000D01*
X110831204Y-76820496D01*
X110834804Y-76796227D01*
X110840765Y-76772429D01*
X110849030Y-76749329D01*
X110859520Y-76727151D01*
X110872133Y-76706107D01*
X110886747Y-76686402D01*
X110903223Y-76668223D01*
X110921402Y-76651747D01*
X110941107Y-76637133D01*
X110962151Y-76624520D01*
X110984329Y-76614030D01*
X111007429Y-76605765D01*
X111031227Y-76599804D01*
X111055496Y-76596204D01*
X111080000Y-76595000D01*
X112005000Y-76595000D01*
X112029504Y-76596204D01*
X112029504Y-76596204D01*
G37*
D15*
X111542500Y-77470000D03*
D29*
X127000000Y-78740000D03*
D30*
X127000000Y-81280000D03*
X127000000Y-80010000D03*
D31*
X116320000Y-53340000D03*
X109220000Y-53340000D03*
D32*
X100330000Y-46990000D03*
D33*
X85090000Y-46990000D03*
D31*
X93980000Y-59650000D03*
D14*
X93980000Y-57150000D03*
D34*
X107255000Y-99060000D02*
X101600000Y-99060000D01*
X101600000Y-99060000D02*
X100330000Y-100330000D01*
D35*
X115570000Y-76417500D02*
X114517500Y-77470000D01*
X114300000Y-73660000D02*
X115570000Y-74930000D01*
X115570000Y-74930000D02*
X115570000Y-76417500D01*
D36*
X129460000Y-53340000D02*
X129540000Y-53260000D01*
D35*
X121400000Y-58420000D02*
X116320000Y-53340000D01*
X123190000Y-58420000D02*
X121400000Y-58420000D01*
D36*
X116320000Y-53340000D02*
X129460000Y-53340000D01*
X149510000Y-55530000D02*
X149510000Y-59690000D01*
X129540000Y-53260000D02*
X147240000Y-53260000D01*
X147240000Y-53260000D02*
X149510000Y-55530000D01*
D37*
X125589999Y-80090001D02*
X126055797Y-80090001D01*
X123270001Y-80090001D02*
X125589999Y-80090001D01*
X121920000Y-78740000D02*
X123270001Y-80090001D01*
D35*
X117275000Y-66040000D02*
X114735000Y-68580000D01*
X123190000Y-66040000D02*
X117275000Y-66040000D01*
X123190000Y-69850000D02*
X123190000Y-66040000D01*
X120650000Y-72390000D02*
X123190000Y-69850000D01*
X121920000Y-78740000D02*
X120650000Y-77470000D01*
X120650000Y-77470000D02*
X120650000Y-72390000D01*
D34*
X125670000Y-80010000D02*
X125589999Y-80090001D01*
X127000000Y-80010000D02*
X125670000Y-80010000D01*
D35*
X109220000Y-53340000D02*
X109220000Y-58420000D01*
D36*
X102870000Y-46990000D02*
X109220000Y-53340000D01*
X100330000Y-46990000D02*
X102870000Y-46990000D01*
D37*
X109220000Y-69440000D02*
X109220000Y-58420000D01*
X106290000Y-72370000D02*
X109220000Y-69440000D01*
X104140000Y-72370000D02*
X106290000Y-72370000D01*
D35*
X132080000Y-71120000D02*
X132080000Y-66040000D01*
D37*
X132080000Y-73579990D02*
X127000000Y-78659990D01*
X132080000Y-71120000D02*
X132080000Y-73579990D01*
X96520000Y-78957500D02*
X91440000Y-78957500D01*
X126919990Y-81360010D02*
X127000000Y-81360010D01*
X125947500Y-82332500D02*
X126919990Y-81360010D01*
D35*
X126708187Y-81665011D02*
X126888188Y-81485010D01*
X100330000Y-82332500D02*
X126040698Y-82332500D01*
X126040698Y-82332500D02*
X126708187Y-81665011D01*
D37*
X101990000Y-75770000D02*
X97681250Y-80078750D01*
X104140000Y-75770000D02*
X101990000Y-75770000D01*
D35*
X99895000Y-82332500D02*
X100330000Y-82332500D01*
X96520000Y-78957500D02*
X99895000Y-82332500D01*
X104140000Y-77470000D02*
X105410000Y-78740000D01*
X110272500Y-78740000D02*
X111542500Y-77470000D01*
X105410000Y-78740000D02*
X110272500Y-78740000D01*
D34*
X97660000Y-128250000D02*
X97660000Y-127000000D01*
D37*
X104975000Y-122385000D02*
X100360000Y-127000000D01*
D35*
X104975000Y-122635000D02*
X104975000Y-122385000D01*
D37*
X104975000Y-110055000D02*
X104140000Y-109220000D01*
X104140000Y-109220000D02*
X106680000Y-109220000D01*
D38*
X133132500Y-120650000D02*
X133350000Y-120867500D01*
X128270000Y-120650000D02*
X133132500Y-120650000D01*
X104975000Y-123135000D02*
X104975000Y-122635000D01*
X101110000Y-127000000D02*
X104975000Y-123135000D01*
X97660000Y-127000000D02*
X101110000Y-127000000D01*
X151130000Y-112110000D02*
X149510000Y-110490000D01*
X151130000Y-118110000D02*
X151130000Y-112110000D01*
X133350000Y-120867500D02*
X148372500Y-120867500D01*
X148372500Y-120867500D02*
X151130000Y-118110000D01*
D37*
X104575000Y-110455000D02*
X104575000Y-116840000D01*
X104975000Y-110055000D02*
X104575000Y-110455000D01*
X104575000Y-122235000D02*
X104575000Y-116840000D01*
X104975000Y-122635000D02*
X104575000Y-122235000D01*
D35*
X114295000Y-122635000D02*
X116840000Y-120090000D01*
X104975000Y-122635000D02*
X114295000Y-122635000D01*
X116840000Y-120090000D02*
X123900000Y-120090000D01*
X123900000Y-120090000D02*
X124460000Y-120650000D01*
X124460000Y-120650000D02*
X128270000Y-120650000D01*
D37*
X98220000Y-97360000D02*
X107255000Y-97360000D01*
D35*
X88960000Y-106620000D02*
X90518210Y-105061790D01*
X88960000Y-111760000D02*
X88960000Y-106620000D01*
X90518210Y-105061790D02*
X98220000Y-97360000D01*
D38*
X87760000Y-127000000D02*
X87760000Y-117980000D01*
X88960000Y-116780000D02*
X87760000Y-117980000D01*
X88960000Y-116780000D02*
X88960000Y-111760000D01*
D37*
X93980000Y-60781370D02*
X93980000Y-59650000D01*
X93980000Y-66060000D02*
X93980000Y-60781370D01*
X104140000Y-74070000D02*
X101990000Y-74070000D01*
X111090000Y-74070000D02*
X111500000Y-73660000D01*
X104140000Y-74070000D02*
X111090000Y-74070000D01*
X111500000Y-68840000D02*
X111760000Y-68580000D01*
X111500000Y-73660000D02*
X111500000Y-68840000D01*
D35*
X100102500Y-72400000D02*
X100320000Y-72400000D01*
X96520000Y-75982500D02*
X100102500Y-72400000D01*
D37*
X101990000Y-74070000D02*
X100320000Y-72400000D01*
X100320000Y-72400000D02*
X93980000Y-66060000D01*
D39*
X74950000Y-77470000D02*
X72390000Y-74910000D01*
X76550000Y-77470000D02*
X74950000Y-77470000D01*
X72390000Y-74910000D02*
X72390000Y-71120000D01*
X72390000Y-71120000D02*
X82550000Y-60960000D01*
X82550000Y-60960000D02*
X92710000Y-60960000D01*
D38*
X91440000Y-75982500D02*
X96520000Y-75982500D01*
D37*
X104550000Y-95660000D02*
X107255000Y-95660000D01*
X97790000Y-88900000D02*
X104550000Y-95660000D01*
D36*
X101600000Y-88900000D02*
X129540000Y-88900000D01*
X76550000Y-99410000D02*
X76550000Y-95250000D01*
X77470000Y-100330000D02*
X76550000Y-99410000D01*
X97790000Y-88900000D02*
X86360000Y-100330000D01*
X86360000Y-100330000D02*
X77470000Y-100330000D01*
X101600000Y-88900000D02*
X97790000Y-88900000D01*
X129540000Y-88900000D02*
X132080000Y-88900000D01*
D35*
X127000000Y-92492500D02*
X127000000Y-90170000D01*
D37*
X103705000Y-100760000D02*
X107255000Y-100760000D01*
X101600000Y-102865000D02*
X103705000Y-100760000D01*
X101600000Y-109220000D02*
X101600000Y-102865000D01*
X101600000Y-116840000D02*
X98007500Y-116840000D01*
X101600000Y-116840000D02*
X101600000Y-109220000D01*
D40*
G36*
X160138001Y-137278000D02*
G01*
X65922000Y-137278000D01*
X65922000Y-113085000D01*
X82621928Y-113085000D01*
X82634188Y-113209482D01*
X82670498Y-113329180D01*
X82729463Y-113439494D01*
X82808815Y-113536185D01*
X82905506Y-113615537D01*
X83015820Y-113674502D01*
X83135518Y-113710812D01*
X83260000Y-113723072D01*
X83736750Y-113720000D01*
X83895500Y-113561250D01*
X83895500Y-111887000D01*
X84149500Y-111887000D01*
X84149500Y-113561250D01*
X84308250Y-113720000D01*
X84785000Y-113723072D01*
X84909482Y-113710812D01*
X85029180Y-113674502D01*
X85139494Y-113615537D01*
X85236185Y-113536185D01*
X85315537Y-113439494D01*
X85374502Y-113329180D01*
X85410812Y-113209482D01*
X85423072Y-113085000D01*
X85420000Y-112045750D01*
X85261250Y-111887000D01*
X84149500Y-111887000D01*
X83895500Y-111887000D01*
X82783750Y-111887000D01*
X82625000Y-112045750D01*
X82621928Y-113085000D01*
X65922000Y-113085000D01*
X65922000Y-110435000D01*
X82621928Y-110435000D01*
X82625000Y-111474250D01*
X82783750Y-111633000D01*
X83895500Y-111633000D01*
X83895500Y-109958750D01*
X84149500Y-109958750D01*
X84149500Y-111633000D01*
X85261250Y-111633000D01*
X85420000Y-111474250D01*
X85423072Y-110435000D01*
X85410812Y-110310518D01*
X85374502Y-110190820D01*
X85315537Y-110080506D01*
X85236185Y-109983815D01*
X85139494Y-109904463D01*
X85029180Y-109845498D01*
X84909482Y-109809188D01*
X84785000Y-109796928D01*
X84308250Y-109800000D01*
X84149500Y-109958750D01*
X83895500Y-109958750D01*
X83736750Y-109800000D01*
X83260000Y-109796928D01*
X83135518Y-109809188D01*
X83015820Y-109845498D01*
X82905506Y-109904463D01*
X82808815Y-109983815D01*
X82729463Y-110080506D01*
X82670498Y-110190820D01*
X82634188Y-110310518D01*
X82621928Y-110435000D01*
X65922000Y-110435000D01*
X65922000Y-99863000D01*
X67328000Y-99863000D01*
X67328000Y-108417000D01*
X72132000Y-108417000D01*
X72132000Y-99863000D01*
X67328000Y-99863000D01*
X65922000Y-99863000D01*
X65922000Y-99410000D01*
X73910290Y-99410000D01*
X73923000Y-99539045D01*
X73923000Y-99539047D01*
X73961011Y-99924981D01*
X74111226Y-100420172D01*
X74355161Y-100876543D01*
X74683443Y-101276557D01*
X74783687Y-101358825D01*
X75521175Y-102096313D01*
X75603443Y-102196557D01*
X76003456Y-102524839D01*
X76459827Y-102768774D01*
X76955018Y-102918989D01*
X77340952Y-102957000D01*
X77340962Y-102957000D01*
X77469999Y-102969709D01*
X77599036Y-102957000D01*
X86230955Y-102957000D01*
X86360000Y-102969710D01*
X86489045Y-102957000D01*
X86489048Y-102957000D01*
X86874982Y-102918989D01*
X87370173Y-102768774D01*
X87826544Y-102524839D01*
X88226557Y-102196557D01*
X88308825Y-102096313D01*
X98408718Y-91996420D01*
X102020298Y-95608000D01*
X98910494Y-95608000D01*
X98587956Y-95510159D01*
X98220000Y-95473919D01*
X97852043Y-95510159D01*
X97498227Y-95617488D01*
X97172149Y-95791781D01*
X96957962Y-95967559D01*
X89256173Y-103669349D01*
X87697961Y-105227561D01*
X87626340Y-105286339D01*
X87567562Y-105357960D01*
X87567559Y-105357963D01*
X87508648Y-105429747D01*
X87391781Y-105572149D01*
X87278778Y-105783562D01*
X87217488Y-105898228D01*
X87110159Y-106252044D01*
X87073919Y-106620000D01*
X87083001Y-106712212D01*
X87083000Y-109859110D01*
X87035532Y-109916950D01*
X86907780Y-110155958D01*
X86829110Y-110415296D01*
X86802547Y-110684999D01*
X86802547Y-112835001D01*
X86829110Y-113104704D01*
X86833001Y-113117530D01*
X86833000Y-115898969D01*
X86329870Y-116402099D01*
X86248708Y-116468707D01*
X86182101Y-116549868D01*
X85982908Y-116792585D01*
X85785401Y-117162095D01*
X85663777Y-117563035D01*
X85622709Y-117980000D01*
X85633001Y-118084495D01*
X85633000Y-123397663D01*
X85509235Y-123499235D01*
X85368400Y-123670843D01*
X85263750Y-123866629D01*
X85199307Y-124079069D01*
X85177547Y-124300000D01*
X85177547Y-129700000D01*
X85199307Y-129920931D01*
X85263750Y-130133371D01*
X85368400Y-130329157D01*
X85509235Y-130500765D01*
X85680843Y-130641600D01*
X85876629Y-130746250D01*
X86089069Y-130810693D01*
X86310000Y-130832453D01*
X89210000Y-130832453D01*
X89430931Y-130810693D01*
X89643371Y-130746250D01*
X89839157Y-130641600D01*
X90010765Y-130500765D01*
X90151600Y-130329157D01*
X90256250Y-130133371D01*
X90320693Y-129920931D01*
X90342453Y-129700000D01*
X90342453Y-124300000D01*
X90320693Y-124079069D01*
X90256250Y-123866629D01*
X90151600Y-123670843D01*
X90010765Y-123499235D01*
X89887000Y-123397664D01*
X89887000Y-118861031D01*
X90390126Y-118357905D01*
X90471293Y-118291293D01*
X90737093Y-117967415D01*
X90872011Y-117715000D01*
X93681928Y-117715000D01*
X93694188Y-117839482D01*
X93730498Y-117959180D01*
X93789463Y-118069494D01*
X93868815Y-118166185D01*
X93965506Y-118245537D01*
X94075820Y-118304502D01*
X94195518Y-118340812D01*
X94320000Y-118353072D01*
X94746750Y-118350000D01*
X94905500Y-118191250D01*
X94905500Y-116967000D01*
X93843750Y-116967000D01*
X93685000Y-117125750D01*
X93681928Y-117715000D01*
X90872011Y-117715000D01*
X90934599Y-117597906D01*
X91056224Y-117196965D01*
X91087000Y-116884487D01*
X91087000Y-116884478D01*
X91097290Y-116780001D01*
X91087000Y-116675523D01*
X91087000Y-115965000D01*
X93681928Y-115965000D01*
X93685000Y-116554250D01*
X93843750Y-116713000D01*
X94905500Y-116713000D01*
X94905500Y-115488750D01*
X94746750Y-115330000D01*
X94320000Y-115326928D01*
X94195518Y-115339188D01*
X94075820Y-115375498D01*
X93965506Y-115434463D01*
X93868815Y-115513815D01*
X93789463Y-115610506D01*
X93730498Y-115720820D01*
X93694188Y-115840518D01*
X93681928Y-115965000D01*
X91087000Y-115965000D01*
X91087000Y-111655513D01*
X91056224Y-111343035D01*
X90934599Y-110942094D01*
X90837000Y-110759498D01*
X90837000Y-107397478D01*
X91910651Y-106323827D01*
X99122479Y-99112000D01*
X103102273Y-99112000D01*
X103031295Y-99133531D01*
X102931262Y-99187000D01*
X102726931Y-99296217D01*
X102589219Y-99409235D01*
X102460155Y-99515155D01*
X102405290Y-99582008D01*
X100422003Y-101565295D01*
X100355156Y-101620155D01*
X100300296Y-101687002D01*
X100300289Y-101687009D01*
X100136217Y-101886932D01*
X99973532Y-102191295D01*
X99873350Y-102521549D01*
X99839524Y-102865000D01*
X99848001Y-102951071D01*
X99848000Y-108623258D01*
X99823979Y-108681250D01*
X99753000Y-109038086D01*
X99753000Y-109401914D01*
X99823979Y-109758750D01*
X99848001Y-109816744D01*
X99848000Y-115088000D01*
X99265427Y-115088000D01*
X99238050Y-115065532D01*
X98999042Y-114937780D01*
X98739703Y-114859110D01*
X98470000Y-114832547D01*
X97545000Y-114832547D01*
X97275297Y-114859110D01*
X97015958Y-114937780D01*
X96776950Y-115065532D01*
X96567458Y-115237458D01*
X96395532Y-115446950D01*
X96291824Y-115640976D01*
X96275537Y-115610506D01*
X96196185Y-115513815D01*
X96099494Y-115434463D01*
X95989180Y-115375498D01*
X95869482Y-115339188D01*
X95745000Y-115326928D01*
X95318250Y-115330000D01*
X95159500Y-115488750D01*
X95159500Y-116713000D01*
X95179500Y-116713000D01*
X95179500Y-116967000D01*
X95159500Y-116967000D01*
X95159500Y-118191250D01*
X95318250Y-118350000D01*
X95745000Y-118353072D01*
X95869482Y-118340812D01*
X95989180Y-118304502D01*
X96099494Y-118245537D01*
X96196185Y-118166185D01*
X96275537Y-118069494D01*
X96291824Y-118039024D01*
X96395532Y-118233050D01*
X96567458Y-118442542D01*
X96776950Y-118614468D01*
X97015958Y-118742220D01*
X97275297Y-118820890D01*
X97545000Y-118847453D01*
X98470000Y-118847453D01*
X98739703Y-118820890D01*
X98999042Y-118742220D01*
X99238050Y-118614468D01*
X99265427Y-118592000D01*
X100342073Y-118592000D01*
X100369450Y-118614468D01*
X100608458Y-118742220D01*
X100867797Y-118820890D01*
X101137500Y-118847453D01*
X102062500Y-118847453D01*
X102332203Y-118820890D01*
X102591542Y-118742220D01*
X102823001Y-118618503D01*
X102823000Y-122059298D01*
X100242453Y-124639845D01*
X100242453Y-124300000D01*
X100220693Y-124079069D01*
X100156250Y-123866629D01*
X100051600Y-123670843D01*
X99910765Y-123499235D01*
X99739157Y-123358400D01*
X99543371Y-123253750D01*
X99330931Y-123189307D01*
X99110000Y-123167547D01*
X96210000Y-123167547D01*
X95989069Y-123189307D01*
X95776629Y-123253750D01*
X95580843Y-123358400D01*
X95409235Y-123499235D01*
X95268400Y-123670843D01*
X95163750Y-123866629D01*
X95099307Y-124079069D01*
X95077547Y-124300000D01*
X95077547Y-129700000D01*
X95099307Y-129920931D01*
X95163750Y-130133371D01*
X95268400Y-130329157D01*
X95409235Y-130500765D01*
X95580843Y-130641600D01*
X95776629Y-130746250D01*
X95989069Y-130810693D01*
X96210000Y-130832453D01*
X99110000Y-130832453D01*
X99330931Y-130810693D01*
X99543371Y-130746250D01*
X99739157Y-130641600D01*
X99910765Y-130500765D01*
X100051600Y-130329157D01*
X100156250Y-130133371D01*
X100220693Y-129920931D01*
X100242453Y-129700000D01*
X100242453Y-129127000D01*
X101005515Y-129127000D01*
X101110000Y-129137291D01*
X101214485Y-129127000D01*
X101214487Y-129127000D01*
X101526965Y-129096224D01*
X101927906Y-128974599D01*
X102297415Y-128777093D01*
X102621293Y-128511293D01*
X102687905Y-128430126D01*
X105855031Y-125263000D01*
X152418000Y-125263000D01*
X152418000Y-133817000D01*
X157222000Y-133817000D01*
X157222000Y-125263000D01*
X152418000Y-125263000D01*
X105855031Y-125263000D01*
X106405131Y-124712901D01*
X106486293Y-124646293D01*
X106596504Y-124512000D01*
X114202798Y-124512000D01*
X114295000Y-124521081D01*
X114387202Y-124512000D01*
X114387210Y-124512000D01*
X114662956Y-124484841D01*
X115016772Y-124377513D01*
X115342851Y-124203220D01*
X115628661Y-123968661D01*
X115687444Y-123897035D01*
X116612025Y-122972453D01*
X117840000Y-122972453D01*
X118109703Y-122945890D01*
X118369042Y-122867220D01*
X118608050Y-122739468D01*
X118817542Y-122567542D01*
X118989468Y-122358050D01*
X119117220Y-122119042D01*
X119163342Y-121967000D01*
X123112666Y-121967000D01*
X123126339Y-121983661D01*
X123412149Y-122218220D01*
X123738228Y-122392513D01*
X123988363Y-122468390D01*
X124092043Y-122499841D01*
X124124371Y-122503025D01*
X124367790Y-122527000D01*
X124367798Y-122527000D01*
X124460000Y-122536081D01*
X124552202Y-122527000D01*
X127269498Y-122527000D01*
X127452094Y-122624599D01*
X127853035Y-122746224D01*
X128165513Y-122777000D01*
X132410302Y-122777000D01*
X132532094Y-122842099D01*
X132933035Y-122963724D01*
X133245513Y-122994500D01*
X133245522Y-122994500D01*
X133349999Y-123004790D01*
X133454476Y-122994500D01*
X148268015Y-122994500D01*
X148372500Y-123004791D01*
X148476985Y-122994500D01*
X148476987Y-122994500D01*
X148789465Y-122963724D01*
X149190406Y-122842099D01*
X149559915Y-122644593D01*
X149883793Y-122378793D01*
X149950405Y-122297626D01*
X152560131Y-119687901D01*
X152641293Y-119621293D01*
X152771541Y-119462585D01*
X152907093Y-119297416D01*
X153104599Y-118927906D01*
X153120277Y-118876224D01*
X153226224Y-118526965D01*
X153257000Y-118214487D01*
X153257000Y-118214485D01*
X153267291Y-118110000D01*
X153257000Y-118005515D01*
X153257000Y-112214485D01*
X153267291Y-112110000D01*
X153257000Y-112005513D01*
X153226224Y-111693035D01*
X153104599Y-111292094D01*
X153062958Y-111214188D01*
X152907093Y-110922584D01*
X152766179Y-110750881D01*
X152641293Y-110598707D01*
X152560131Y-110532099D01*
X152142453Y-110114421D01*
X152142453Y-109490000D01*
X152106282Y-109122752D01*
X151999160Y-108769616D01*
X151825202Y-108444165D01*
X151591095Y-108158905D01*
X151305835Y-107924798D01*
X150980384Y-107750840D01*
X150627248Y-107643718D01*
X150260000Y-107607547D01*
X148760000Y-107607547D01*
X148392752Y-107643718D01*
X148039616Y-107750840D01*
X147714165Y-107924798D01*
X147428905Y-108158905D01*
X147194798Y-108444165D01*
X147020840Y-108769616D01*
X146913718Y-109122752D01*
X146877547Y-109490000D01*
X146877547Y-111490000D01*
X146913718Y-111857248D01*
X147020840Y-112210384D01*
X147072775Y-112307547D01*
X145891419Y-112307547D01*
X145898072Y-112240000D01*
X145895000Y-110775750D01*
X145736250Y-110617000D01*
X143637000Y-110617000D01*
X143637000Y-112716250D01*
X143795750Y-112875000D01*
X144239381Y-112875931D01*
X144215516Y-112895516D01*
X143965864Y-113199719D01*
X143780355Y-113546781D01*
X143666120Y-113923365D01*
X143627547Y-114315000D01*
X143627547Y-116065000D01*
X143666120Y-116456635D01*
X143780355Y-116833219D01*
X143965864Y-117180281D01*
X144215516Y-117484484D01*
X144519719Y-117734136D01*
X144866781Y-117919645D01*
X145243365Y-118033880D01*
X145635000Y-118072453D01*
X147385000Y-118072453D01*
X147776635Y-118033880D01*
X148153219Y-117919645D01*
X148495021Y-117736948D01*
X147491469Y-118740500D01*
X134847470Y-118740500D01*
X134850812Y-118729482D01*
X134863072Y-118605000D01*
X134860000Y-118178250D01*
X134701250Y-118019500D01*
X133477000Y-118019500D01*
X133477000Y-118039500D01*
X133223000Y-118039500D01*
X133223000Y-118019500D01*
X131998750Y-118019500D01*
X131840000Y-118178250D01*
X131837518Y-118523000D01*
X129767470Y-118523000D01*
X129770812Y-118511982D01*
X129783072Y-118387500D01*
X129780000Y-117960750D01*
X129621250Y-117802000D01*
X128397000Y-117802000D01*
X128397000Y-117822000D01*
X128143000Y-117822000D01*
X128143000Y-117802000D01*
X126918750Y-117802000D01*
X126760000Y-117960750D01*
X126756928Y-118387500D01*
X126769188Y-118511982D01*
X126805498Y-118631680D01*
X126864463Y-118741994D01*
X126889909Y-118773000D01*
X125247334Y-118773000D01*
X125233661Y-118756339D01*
X124947851Y-118521780D01*
X124621772Y-118347487D01*
X124267956Y-118240159D01*
X123992210Y-118213000D01*
X123992202Y-118213000D01*
X123900000Y-118203919D01*
X123807798Y-118213000D01*
X119163342Y-118213000D01*
X119117220Y-118060958D01*
X118989468Y-117821950D01*
X118817542Y-117612458D01*
X118608050Y-117440532D01*
X118369042Y-117312780D01*
X118109703Y-117234110D01*
X117840000Y-117207547D01*
X115840000Y-117207547D01*
X115570297Y-117234110D01*
X115310958Y-117312780D01*
X115071950Y-117440532D01*
X114862458Y-117612458D01*
X114690532Y-117821950D01*
X114562780Y-118060958D01*
X114484110Y-118320297D01*
X114457547Y-118590000D01*
X114457547Y-119817974D01*
X113517522Y-120758000D01*
X106327000Y-120758000D01*
X106327000Y-117953560D01*
X106393390Y-117734703D01*
X106419953Y-117465000D01*
X106419953Y-116962500D01*
X126756928Y-116962500D01*
X126760000Y-117389250D01*
X126918750Y-117548000D01*
X128143000Y-117548000D01*
X128143000Y-116486250D01*
X128397000Y-116486250D01*
X128397000Y-117548000D01*
X129621250Y-117548000D01*
X129780000Y-117389250D01*
X129781506Y-117180000D01*
X131836928Y-117180000D01*
X131840000Y-117606750D01*
X131998750Y-117765500D01*
X133223000Y-117765500D01*
X133223000Y-116703750D01*
X133477000Y-116703750D01*
X133477000Y-117765500D01*
X134701250Y-117765500D01*
X134860000Y-117606750D01*
X134863072Y-117180000D01*
X134850812Y-117055518D01*
X134814502Y-116935820D01*
X134755537Y-116825506D01*
X134676185Y-116728815D01*
X134579494Y-116649463D01*
X134469180Y-116590498D01*
X134349482Y-116554188D01*
X134225000Y-116541928D01*
X133635750Y-116545000D01*
X133477000Y-116703750D01*
X133223000Y-116703750D01*
X133064250Y-116545000D01*
X132475000Y-116541928D01*
X132350518Y-116554188D01*
X132230820Y-116590498D01*
X132120506Y-116649463D01*
X132023815Y-116728815D01*
X131944463Y-116825506D01*
X131885498Y-116935820D01*
X131849188Y-117055518D01*
X131836928Y-117180000D01*
X129781506Y-117180000D01*
X129783072Y-116962500D01*
X129770812Y-116838018D01*
X129734502Y-116718320D01*
X129675537Y-116608006D01*
X129596185Y-116511315D01*
X129499494Y-116431963D01*
X129389180Y-116372998D01*
X129269482Y-116336688D01*
X129145000Y-116324428D01*
X128555750Y-116327500D01*
X128397000Y-116486250D01*
X128143000Y-116486250D01*
X127984250Y-116327500D01*
X127395000Y-116324428D01*
X127270518Y-116336688D01*
X127150820Y-116372998D01*
X127040506Y-116431963D01*
X126943815Y-116511315D01*
X126864463Y-116608006D01*
X126805498Y-116718320D01*
X126769188Y-116838018D01*
X126756928Y-116962500D01*
X106419953Y-116962500D01*
X106419953Y-116215000D01*
X106393390Y-115945297D01*
X106327000Y-115726440D01*
X106327000Y-115340000D01*
X114951928Y-115340000D01*
X114964188Y-115464482D01*
X115000498Y-115584180D01*
X115059463Y-115694494D01*
X115138815Y-115791185D01*
X115235506Y-115870537D01*
X115345820Y-115929502D01*
X115465518Y-115965812D01*
X115590000Y-115978072D01*
X116554250Y-115975000D01*
X116713000Y-115816250D01*
X116713000Y-113717000D01*
X116967000Y-113717000D01*
X116967000Y-115816250D01*
X117125750Y-115975000D01*
X118090000Y-115978072D01*
X118214482Y-115965812D01*
X118334180Y-115929502D01*
X118444494Y-115870537D01*
X118541185Y-115791185D01*
X118620537Y-115694494D01*
X118679502Y-115584180D01*
X118715812Y-115464482D01*
X118728072Y-115340000D01*
X118725000Y-113875750D01*
X118566250Y-113717000D01*
X116967000Y-113717000D01*
X116713000Y-113717000D01*
X115113750Y-113717000D01*
X114955000Y-113875750D01*
X114951928Y-115340000D01*
X106327000Y-115340000D01*
X106327000Y-111840000D01*
X114951928Y-111840000D01*
X114955000Y-113304250D01*
X115113750Y-113463000D01*
X116713000Y-113463000D01*
X116713000Y-111363750D01*
X116967000Y-111363750D01*
X116967000Y-113463000D01*
X118566250Y-113463000D01*
X118725000Y-113304250D01*
X118727232Y-112240000D01*
X141121928Y-112240000D01*
X141134188Y-112364482D01*
X141170498Y-112484180D01*
X141229463Y-112594494D01*
X141308815Y-112691185D01*
X141405506Y-112770537D01*
X141515820Y-112829502D01*
X141635518Y-112865812D01*
X141760000Y-112878072D01*
X143224250Y-112875000D01*
X143383000Y-112716250D01*
X143383000Y-110617000D01*
X141283750Y-110617000D01*
X141125000Y-110775750D01*
X141121928Y-112240000D01*
X118727232Y-112240000D01*
X118728072Y-111840000D01*
X118715812Y-111715518D01*
X118679502Y-111595820D01*
X118620537Y-111485506D01*
X118541185Y-111388815D01*
X118444494Y-111309463D01*
X118334180Y-111250498D01*
X118214482Y-111214188D01*
X118090000Y-111201928D01*
X117125750Y-111205000D01*
X116967000Y-111363750D01*
X116713000Y-111363750D01*
X116554250Y-111205000D01*
X115590000Y-111201928D01*
X115465518Y-111214188D01*
X115345820Y-111250498D01*
X115235506Y-111309463D01*
X115138815Y-111388815D01*
X115059463Y-111485506D01*
X115000498Y-111595820D01*
X114964188Y-111715518D01*
X114951928Y-111840000D01*
X106327000Y-111840000D01*
X106327000Y-111169275D01*
X106423165Y-111052097D01*
X106498086Y-111067000D01*
X106861914Y-111067000D01*
X107218750Y-110996021D01*
X107554883Y-110856790D01*
X107857394Y-110654659D01*
X108114659Y-110397394D01*
X108316790Y-110094883D01*
X108456021Y-109758750D01*
X108527000Y-109401914D01*
X108527000Y-109038086D01*
X108467708Y-108740000D01*
X141121928Y-108740000D01*
X141125000Y-110204250D01*
X141283750Y-110363000D01*
X143383000Y-110363000D01*
X143383000Y-108263750D01*
X143637000Y-108263750D01*
X143637000Y-110363000D01*
X145736250Y-110363000D01*
X145895000Y-110204250D01*
X145898072Y-108740000D01*
X145885812Y-108615518D01*
X145849502Y-108495820D01*
X145790537Y-108385506D01*
X145711185Y-108288815D01*
X145614494Y-108209463D01*
X145504180Y-108150498D01*
X145384482Y-108114188D01*
X145260000Y-108101928D01*
X143795750Y-108105000D01*
X143637000Y-108263750D01*
X143383000Y-108263750D01*
X143224250Y-108105000D01*
X141760000Y-108101928D01*
X141635518Y-108114188D01*
X141515820Y-108150498D01*
X141405506Y-108209463D01*
X141308815Y-108288815D01*
X141229463Y-108385506D01*
X141170498Y-108495820D01*
X141134188Y-108615518D01*
X141121928Y-108740000D01*
X108467708Y-108740000D01*
X108456021Y-108681250D01*
X108316790Y-108345117D01*
X108114659Y-108042606D01*
X107857394Y-107785341D01*
X107554883Y-107583210D01*
X107218750Y-107443979D01*
X106861914Y-107373000D01*
X106498086Y-107373000D01*
X106141250Y-107443979D01*
X106083258Y-107468000D01*
X104736742Y-107468000D01*
X104678750Y-107443979D01*
X104321914Y-107373000D01*
X103958086Y-107373000D01*
X103601250Y-107443979D01*
X103352000Y-107547222D01*
X103352000Y-104460000D01*
X111066928Y-104460000D01*
X111079188Y-104584482D01*
X111115498Y-104704180D01*
X111174463Y-104814494D01*
X111253815Y-104911185D01*
X111350506Y-104990537D01*
X111460820Y-105049502D01*
X111580518Y-105085812D01*
X111705000Y-105098072D01*
X116119250Y-105095000D01*
X116278000Y-104936250D01*
X116278000Y-99187000D01*
X116532000Y-99187000D01*
X116532000Y-104936250D01*
X116690750Y-105095000D01*
X121105000Y-105098072D01*
X121229482Y-105085812D01*
X121349180Y-105049502D01*
X121459494Y-104990537D01*
X121556185Y-104911185D01*
X121635537Y-104814494D01*
X121694502Y-104704180D01*
X121730812Y-104584482D01*
X121743072Y-104460000D01*
X121740000Y-99345750D01*
X121581250Y-99187000D01*
X116532000Y-99187000D01*
X116278000Y-99187000D01*
X111228750Y-99187000D01*
X111070000Y-99345750D01*
X111066928Y-104460000D01*
X103352000Y-104460000D01*
X103352000Y-103590702D01*
X104355700Y-102587002D01*
X104478748Y-102587002D01*
X104320000Y-102745750D01*
X104316928Y-103010000D01*
X104329188Y-103134482D01*
X104365498Y-103254180D01*
X104424463Y-103364494D01*
X104503815Y-103461185D01*
X104600506Y-103540537D01*
X104710820Y-103599502D01*
X104830518Y-103635812D01*
X104955000Y-103648072D01*
X106969250Y-103645000D01*
X107128000Y-103486250D01*
X107128000Y-102587000D01*
X107382000Y-102587000D01*
X107382000Y-103486250D01*
X107540750Y-103645000D01*
X109555000Y-103648072D01*
X109679482Y-103635812D01*
X109799180Y-103599502D01*
X109909494Y-103540537D01*
X110006185Y-103461185D01*
X110085537Y-103364494D01*
X110144502Y-103254180D01*
X110180812Y-103134482D01*
X110193072Y-103010000D01*
X110190000Y-102745750D01*
X110031250Y-102587000D01*
X107382000Y-102587000D01*
X107128000Y-102587000D01*
X107108000Y-102587000D01*
X107108000Y-102512000D01*
X107341069Y-102512000D01*
X107598452Y-102486650D01*
X107744150Y-102442453D01*
X109555000Y-102442453D01*
X109775931Y-102420693D01*
X109988371Y-102356250D01*
X110184157Y-102251600D01*
X110355765Y-102110765D01*
X110496600Y-101939157D01*
X110601250Y-101743371D01*
X110665693Y-101530931D01*
X110687453Y-101310000D01*
X110687453Y-100210000D01*
X110665693Y-99989069D01*
X110601250Y-99776629D01*
X110496600Y-99580843D01*
X110355765Y-99409235D01*
X110184157Y-99268400D01*
X109988371Y-99163750D01*
X109775931Y-99099307D01*
X109555000Y-99077547D01*
X107744150Y-99077547D01*
X107686305Y-99060000D01*
X107744150Y-99042453D01*
X109555000Y-99042453D01*
X109775931Y-99020693D01*
X109988371Y-98956250D01*
X110184157Y-98851600D01*
X110355765Y-98710765D01*
X110496600Y-98539157D01*
X110601250Y-98343371D01*
X110665693Y-98130931D01*
X110687453Y-97910000D01*
X110687453Y-96810000D01*
X110665693Y-96589069D01*
X110641708Y-96510000D01*
X110665693Y-96430931D01*
X110687453Y-96210000D01*
X110687453Y-95110000D01*
X110665693Y-94889069D01*
X110601250Y-94676629D01*
X110496600Y-94480843D01*
X110355765Y-94309235D01*
X110184157Y-94168400D01*
X109988371Y-94063750D01*
X109775931Y-93999307D01*
X109555000Y-93977547D01*
X107744150Y-93977547D01*
X107598452Y-93933350D01*
X107341069Y-93908000D01*
X105275702Y-93908000D01*
X105027702Y-93660000D01*
X111066928Y-93660000D01*
X111070000Y-98774250D01*
X111228750Y-98933000D01*
X116278000Y-98933000D01*
X116278000Y-93183750D01*
X116532000Y-93183750D01*
X116532000Y-98933000D01*
X121581250Y-98933000D01*
X121740000Y-98774250D01*
X121741558Y-96180000D01*
X125486928Y-96180000D01*
X125499188Y-96304482D01*
X125535498Y-96424180D01*
X125594463Y-96534494D01*
X125673815Y-96631185D01*
X125770506Y-96710537D01*
X125880820Y-96769502D01*
X126000518Y-96805812D01*
X126125000Y-96818072D01*
X126714250Y-96815000D01*
X126873000Y-96656250D01*
X126873000Y-95594500D01*
X127127000Y-95594500D01*
X127127000Y-96656250D01*
X127285750Y-96815000D01*
X127875000Y-96818072D01*
X127999482Y-96805812D01*
X128119180Y-96769502D01*
X128229494Y-96710537D01*
X128326185Y-96631185D01*
X128405537Y-96534494D01*
X128464502Y-96424180D01*
X128500812Y-96304482D01*
X128513072Y-96180000D01*
X128510000Y-95753250D01*
X128351250Y-95594500D01*
X127127000Y-95594500D01*
X126873000Y-95594500D01*
X125648750Y-95594500D01*
X125490000Y-95753250D01*
X125486928Y-96180000D01*
X121741558Y-96180000D01*
X121743072Y-93660000D01*
X121730812Y-93535518D01*
X121694502Y-93415820D01*
X121635537Y-93305506D01*
X121556185Y-93208815D01*
X121459494Y-93129463D01*
X121349180Y-93070498D01*
X121229482Y-93034188D01*
X121105000Y-93021928D01*
X116690750Y-93025000D01*
X116532000Y-93183750D01*
X116278000Y-93183750D01*
X116119250Y-93025000D01*
X111705000Y-93021928D01*
X111580518Y-93034188D01*
X111460820Y-93070498D01*
X111350506Y-93129463D01*
X111253815Y-93208815D01*
X111174463Y-93305506D01*
X111115498Y-93415820D01*
X111079188Y-93535518D01*
X111066928Y-93660000D01*
X105027702Y-93660000D01*
X102894702Y-91527000D01*
X125089880Y-91527000D01*
X125019110Y-91760297D01*
X124992547Y-92030000D01*
X124992547Y-92955000D01*
X125019110Y-93224703D01*
X125097780Y-93484042D01*
X125225532Y-93723050D01*
X125397458Y-93932542D01*
X125606950Y-94104468D01*
X125800976Y-94208176D01*
X125770506Y-94224463D01*
X125673815Y-94303815D01*
X125594463Y-94400506D01*
X125535498Y-94510820D01*
X125499188Y-94630518D01*
X125486928Y-94755000D01*
X125490000Y-95181750D01*
X125648750Y-95340500D01*
X126873000Y-95340500D01*
X126873000Y-95320500D01*
X127127000Y-95320500D01*
X127127000Y-95340500D01*
X128351250Y-95340500D01*
X128510000Y-95181750D01*
X128513072Y-94755000D01*
X128500812Y-94630518D01*
X128464502Y-94510820D01*
X128405537Y-94400506D01*
X128326185Y-94303815D01*
X128229494Y-94224463D01*
X128199024Y-94208176D01*
X128393050Y-94104468D01*
X128602542Y-93932542D01*
X128774468Y-93723050D01*
X128902220Y-93484042D01*
X128980890Y-93224703D01*
X129007453Y-92955000D01*
X129007453Y-92030000D01*
X128980890Y-91760297D01*
X128910120Y-91527000D01*
X132209048Y-91527000D01*
X132594982Y-91488989D01*
X133090173Y-91338774D01*
X133546544Y-91094839D01*
X133946557Y-90766557D01*
X134258247Y-90386761D01*
X134260498Y-90394180D01*
X134319463Y-90504494D01*
X134398815Y-90601185D01*
X134495506Y-90680537D01*
X134605820Y-90739502D01*
X134725518Y-90775812D01*
X134850000Y-90788072D01*
X136314250Y-90785000D01*
X136473000Y-90626250D01*
X136473000Y-89027000D01*
X136727000Y-89027000D01*
X136727000Y-90626250D01*
X136885750Y-90785000D01*
X138350000Y-90788072D01*
X138474482Y-90775812D01*
X138594180Y-90739502D01*
X138704494Y-90680537D01*
X138801185Y-90601185D01*
X138880537Y-90504494D01*
X138939502Y-90394180D01*
X138975812Y-90274482D01*
X138988072Y-90150000D01*
X138985000Y-89185750D01*
X138826250Y-89027000D01*
X136727000Y-89027000D01*
X136473000Y-89027000D01*
X136453000Y-89027000D01*
X136453000Y-88773000D01*
X136473000Y-88773000D01*
X136473000Y-87173750D01*
X136727000Y-87173750D01*
X136727000Y-88773000D01*
X138826250Y-88773000D01*
X138985000Y-88614250D01*
X138988072Y-87650000D01*
X138975812Y-87525518D01*
X138939502Y-87405820D01*
X138880537Y-87295506D01*
X138801185Y-87198815D01*
X138704494Y-87119463D01*
X138594180Y-87060498D01*
X138474482Y-87024188D01*
X138350000Y-87011928D01*
X136885750Y-87015000D01*
X136727000Y-87173750D01*
X136473000Y-87173750D01*
X136314250Y-87015000D01*
X134850000Y-87011928D01*
X134725518Y-87024188D01*
X134605820Y-87060498D01*
X134495506Y-87119463D01*
X134398815Y-87198815D01*
X134319463Y-87295506D01*
X134260498Y-87405820D01*
X134258247Y-87413239D01*
X133946557Y-87033443D01*
X133546544Y-86705161D01*
X133090173Y-86461226D01*
X132594982Y-86311011D01*
X132209048Y-86273000D01*
X97919044Y-86273000D01*
X97789999Y-86260290D01*
X97660954Y-86273000D01*
X97660952Y-86273000D01*
X97275018Y-86311011D01*
X96779827Y-86461226D01*
X96323456Y-86705161D01*
X95923443Y-87033443D01*
X95841179Y-87133682D01*
X85271862Y-97703000D01*
X79177000Y-97703000D01*
X79177000Y-97000000D01*
X80161928Y-97000000D01*
X80174188Y-97124482D01*
X80210498Y-97244180D01*
X80269463Y-97354494D01*
X80348815Y-97451185D01*
X80445506Y-97530537D01*
X80555820Y-97589502D01*
X80675518Y-97625812D01*
X80800000Y-97638072D01*
X82264250Y-97635000D01*
X82423000Y-97476250D01*
X82423000Y-95377000D01*
X82677000Y-95377000D01*
X82677000Y-97476250D01*
X82835750Y-97635000D01*
X84300000Y-97638072D01*
X84424482Y-97625812D01*
X84544180Y-97589502D01*
X84654494Y-97530537D01*
X84751185Y-97451185D01*
X84830537Y-97354494D01*
X84889502Y-97244180D01*
X84925812Y-97124482D01*
X84938072Y-97000000D01*
X84935000Y-95535750D01*
X84776250Y-95377000D01*
X82677000Y-95377000D01*
X82423000Y-95377000D01*
X80323750Y-95377000D01*
X80165000Y-95535750D01*
X80161928Y-97000000D01*
X79177000Y-97000000D01*
X79177000Y-96305365D01*
X79182453Y-96250000D01*
X79182453Y-94250000D01*
X79146282Y-93882752D01*
X79039160Y-93529616D01*
X78987225Y-93432453D01*
X80168581Y-93432453D01*
X80161928Y-93500000D01*
X80165000Y-94964250D01*
X80323750Y-95123000D01*
X82423000Y-95123000D01*
X82423000Y-93023750D01*
X82677000Y-93023750D01*
X82677000Y-95123000D01*
X84776250Y-95123000D01*
X84935000Y-94964250D01*
X84938072Y-93500000D01*
X84925812Y-93375518D01*
X84889502Y-93255820D01*
X84830537Y-93145506D01*
X84751185Y-93048815D01*
X84654494Y-92969463D01*
X84544180Y-92910498D01*
X84424482Y-92874188D01*
X84300000Y-92861928D01*
X82835750Y-92865000D01*
X82677000Y-93023750D01*
X82423000Y-93023750D01*
X82264250Y-92865000D01*
X81820619Y-92864069D01*
X81844484Y-92844484D01*
X82094136Y-92540281D01*
X82279645Y-92193219D01*
X82393880Y-91816635D01*
X82432453Y-91425000D01*
X82432453Y-89675000D01*
X82393880Y-89283365D01*
X82279645Y-88906781D01*
X82094136Y-88559719D01*
X81844484Y-88255516D01*
X81540281Y-88005864D01*
X81193219Y-87820355D01*
X80816635Y-87706120D01*
X80425000Y-87667547D01*
X78675000Y-87667547D01*
X78283365Y-87706120D01*
X77906781Y-87820355D01*
X77559719Y-88005864D01*
X77255516Y-88255516D01*
X77005864Y-88559719D01*
X76820355Y-88906781D01*
X76706120Y-89283365D01*
X76667547Y-89675000D01*
X76667547Y-91425000D01*
X76706120Y-91816635D01*
X76820355Y-92193219D01*
X76913536Y-92367547D01*
X75800000Y-92367547D01*
X75432752Y-92403718D01*
X75079616Y-92510840D01*
X74754165Y-92684798D01*
X74468905Y-92918905D01*
X74234798Y-93204165D01*
X74060840Y-93529616D01*
X73953718Y-93882752D01*
X73917547Y-94250000D01*
X73917547Y-96250000D01*
X73923001Y-96305372D01*
X73923000Y-99280954D01*
X73910290Y-99410000D01*
X65922000Y-99410000D01*
X65922000Y-71120000D01*
X68745452Y-71120000D01*
X68763001Y-71298180D01*
X68763000Y-74731829D01*
X68745452Y-74910000D01*
X68763000Y-75088170D01*
X68763000Y-75088177D01*
X68803526Y-75499645D01*
X68815480Y-75621016D01*
X68945473Y-76049544D01*
X69022876Y-76304708D01*
X69359668Y-76934802D01*
X69812915Y-77487085D01*
X69951315Y-77600668D01*
X72259336Y-79908689D01*
X72372915Y-80047085D01*
X72511310Y-80160663D01*
X72511314Y-80160667D01*
X72583048Y-80219537D01*
X72925197Y-80500332D01*
X73555291Y-80837124D01*
X73822846Y-80918286D01*
X74238983Y-81044520D01*
X74301940Y-81050721D01*
X74771822Y-81097000D01*
X74771829Y-81097000D01*
X74950000Y-81114548D01*
X75128170Y-81097000D01*
X76728178Y-81097000D01*
X77261016Y-81044520D01*
X77944709Y-80837124D01*
X78574803Y-80500332D01*
X79127085Y-80047085D01*
X79580332Y-79494803D01*
X79917124Y-78864709D01*
X80124520Y-78181016D01*
X80164969Y-77770326D01*
X80161928Y-79220000D01*
X80174188Y-79344482D01*
X80210498Y-79464180D01*
X80269463Y-79574494D01*
X80348815Y-79671185D01*
X80445506Y-79750537D01*
X80555820Y-79809502D01*
X80675518Y-79845812D01*
X80800000Y-79858072D01*
X82264250Y-79855000D01*
X82423000Y-79696250D01*
X82423000Y-77597000D01*
X82677000Y-77597000D01*
X82677000Y-79696250D01*
X82835750Y-79855000D01*
X84300000Y-79858072D01*
X84424482Y-79845812D01*
X84544180Y-79809502D01*
X84654494Y-79750537D01*
X84751185Y-79671185D01*
X84830537Y-79574494D01*
X84889502Y-79464180D01*
X84925812Y-79344482D01*
X84938072Y-79220000D01*
X84935000Y-77755750D01*
X84776250Y-77597000D01*
X82677000Y-77597000D01*
X82423000Y-77597000D01*
X82403000Y-77597000D01*
X82403000Y-77343000D01*
X82423000Y-77343000D01*
X82423000Y-75243750D01*
X82677000Y-75243750D01*
X82677000Y-77343000D01*
X84776250Y-77343000D01*
X84935000Y-77184250D01*
X84938072Y-75720000D01*
X84925812Y-75595518D01*
X84889502Y-75475820D01*
X84830537Y-75365506D01*
X84751185Y-75268815D01*
X84654494Y-75189463D01*
X84544180Y-75130498D01*
X84424482Y-75094188D01*
X84300000Y-75081928D01*
X82835750Y-75085000D01*
X82677000Y-75243750D01*
X82423000Y-75243750D01*
X82264250Y-75085000D01*
X81820619Y-75084069D01*
X81844484Y-75064484D01*
X82094136Y-74760281D01*
X82279645Y-74413219D01*
X82393880Y-74036635D01*
X82432453Y-73645000D01*
X82432453Y-71895000D01*
X82393880Y-71503365D01*
X82279645Y-71126781D01*
X82094136Y-70779719D01*
X81844484Y-70475516D01*
X81540281Y-70225864D01*
X81193219Y-70040355D01*
X80816635Y-69926120D01*
X80425000Y-69887547D01*
X78751805Y-69887547D01*
X84052353Y-64587000D01*
X92228000Y-64587000D01*
X92228000Y-65973939D01*
X92219524Y-66060000D01*
X92228000Y-66146061D01*
X92228000Y-66146068D01*
X92253350Y-66403451D01*
X92353531Y-66733704D01*
X92417483Y-66853350D01*
X92516217Y-67038068D01*
X92676916Y-67233880D01*
X92735155Y-67304845D01*
X92802008Y-67359710D01*
X97645159Y-72202862D01*
X95992522Y-73855500D01*
X91335513Y-73855500D01*
X91023035Y-73886276D01*
X90622094Y-74007901D01*
X90252585Y-74205407D01*
X90059654Y-74363742D01*
X90046950Y-74370532D01*
X89837458Y-74542458D01*
X89665532Y-74751950D01*
X89537780Y-74990958D01*
X89510969Y-75079342D01*
X89465401Y-75164594D01*
X89343776Y-75565535D01*
X89302709Y-75982500D01*
X89343776Y-76399465D01*
X89465401Y-76800406D01*
X89510969Y-76885658D01*
X89537780Y-76974042D01*
X89665532Y-77213050D01*
X89837458Y-77422542D01*
X89895286Y-77470000D01*
X89837458Y-77517458D01*
X89665532Y-77726950D01*
X89537780Y-77965958D01*
X89459110Y-78225297D01*
X89432547Y-78495000D01*
X89432547Y-79420000D01*
X89459110Y-79689703D01*
X89537780Y-79949042D01*
X89665532Y-80188050D01*
X89837458Y-80397542D01*
X90046950Y-80569468D01*
X90285958Y-80697220D01*
X90545297Y-80775890D01*
X90815000Y-80802453D01*
X92065000Y-80802453D01*
X92334703Y-80775890D01*
X92553560Y-80709500D01*
X95406440Y-80709500D01*
X95625297Y-80775890D01*
X95690316Y-80782294D01*
X98502556Y-83594534D01*
X98561339Y-83666161D01*
X98847149Y-83900720D01*
X99173228Y-84075013D01*
X99419715Y-84149783D01*
X99527043Y-84182341D01*
X99559371Y-84185525D01*
X99802790Y-84209500D01*
X99802798Y-84209500D01*
X99895000Y-84218581D01*
X99987202Y-84209500D01*
X125948496Y-84209500D01*
X126040698Y-84218581D01*
X126132900Y-84209500D01*
X126132908Y-84209500D01*
X126408654Y-84182341D01*
X126762470Y-84075013D01*
X127088549Y-83900720D01*
X127374359Y-83666161D01*
X127433142Y-83594534D01*
X128280629Y-82747047D01*
X128456407Y-82532860D01*
X128630700Y-82206782D01*
X128667302Y-82086123D01*
X128758634Y-81915252D01*
X128853097Y-81603849D01*
X128884993Y-81280000D01*
X128864043Y-81067286D01*
X147328000Y-81067286D01*
X147328000Y-94192715D01*
X157232000Y-94192715D01*
X157232000Y-81067286D01*
X147328000Y-81067286D01*
X128864043Y-81067286D01*
X128853097Y-80956151D01*
X128758710Y-80645000D01*
X128853097Y-80333849D01*
X128884993Y-80010000D01*
X128853097Y-79686151D01*
X128826527Y-79598561D01*
X128860693Y-79485931D01*
X128882453Y-79265000D01*
X128882453Y-79255239D01*
X133257998Y-74879695D01*
X133324845Y-74824835D01*
X133379705Y-74757988D01*
X133379711Y-74757982D01*
X133543783Y-74558059D01*
X133561371Y-74525155D01*
X133706469Y-74253695D01*
X133806650Y-73923442D01*
X133832000Y-73666059D01*
X133832000Y-73666051D01*
X133840476Y-73579990D01*
X133832000Y-73493929D01*
X133832000Y-72233560D01*
X133898390Y-72014703D01*
X133924953Y-71745000D01*
X133924953Y-71504070D01*
X133929841Y-71487956D01*
X133957000Y-71212210D01*
X133957000Y-65947790D01*
X133929841Y-65672044D01*
X133924953Y-65655930D01*
X133924953Y-65415000D01*
X133898390Y-65145297D01*
X133819720Y-64885958D01*
X133691968Y-64646950D01*
X133520042Y-64437458D01*
X133310550Y-64265532D01*
X133071542Y-64137780D01*
X132812203Y-64059110D01*
X132542500Y-64032547D01*
X131617500Y-64032547D01*
X131347797Y-64059110D01*
X131088458Y-64137780D01*
X130849450Y-64265532D01*
X130639958Y-64437458D01*
X130468032Y-64646950D01*
X130364324Y-64840976D01*
X130348037Y-64810506D01*
X130268685Y-64713815D01*
X130171994Y-64634463D01*
X130061680Y-64575498D01*
X129941982Y-64539188D01*
X129817500Y-64526928D01*
X129390750Y-64530000D01*
X129232000Y-64688750D01*
X129232000Y-65913000D01*
X129252000Y-65913000D01*
X129252000Y-66167000D01*
X129232000Y-66167000D01*
X129232000Y-67391250D01*
X129390750Y-67550000D01*
X129817500Y-67553072D01*
X129941982Y-67540812D01*
X130061680Y-67504502D01*
X130171994Y-67445537D01*
X130203001Y-67420091D01*
X130203000Y-69739909D01*
X130171994Y-69714463D01*
X130061680Y-69655498D01*
X129941982Y-69619188D01*
X129817500Y-69606928D01*
X129390750Y-69610000D01*
X129232000Y-69768750D01*
X129232000Y-70993000D01*
X129252000Y-70993000D01*
X129252000Y-71247000D01*
X129232000Y-71247000D01*
X129232000Y-72471250D01*
X129390750Y-72630000D01*
X129817500Y-72633072D01*
X129941982Y-72620812D01*
X130061680Y-72584502D01*
X130171994Y-72525537D01*
X130268685Y-72446185D01*
X130328001Y-72373909D01*
X130328001Y-72854286D01*
X126083325Y-77098963D01*
X126029069Y-77104307D01*
X125816629Y-77168750D01*
X125620843Y-77273400D01*
X125449235Y-77414235D01*
X125308400Y-77585843D01*
X125203750Y-77781629D01*
X125139307Y-77994069D01*
X125117547Y-78215000D01*
X125117547Y-78338001D01*
X123995703Y-78338001D01*
X123647107Y-77989405D01*
X123488219Y-77692148D01*
X123312441Y-77477962D01*
X122527000Y-76692522D01*
X122527000Y-73167478D01*
X123699478Y-71995000D01*
X127754428Y-71995000D01*
X127766688Y-72119482D01*
X127802998Y-72239180D01*
X127861963Y-72349494D01*
X127941315Y-72446185D01*
X128038006Y-72525537D01*
X128148320Y-72584502D01*
X128268018Y-72620812D01*
X128392500Y-72633072D01*
X128819250Y-72630000D01*
X128978000Y-72471250D01*
X128978000Y-71247000D01*
X127916250Y-71247000D01*
X127757500Y-71405750D01*
X127754428Y-71995000D01*
X123699478Y-71995000D01*
X124452041Y-71242438D01*
X124523661Y-71183661D01*
X124758220Y-70897851D01*
X124932513Y-70571772D01*
X124998431Y-70354468D01*
X125031637Y-70245000D01*
X127754428Y-70245000D01*
X127757500Y-70834250D01*
X127916250Y-70993000D01*
X128978000Y-70993000D01*
X128978000Y-69768750D01*
X128819250Y-69610000D01*
X128392500Y-69606928D01*
X128268018Y-69619188D01*
X128148320Y-69655498D01*
X128038006Y-69714463D01*
X127941315Y-69793815D01*
X127861963Y-69890506D01*
X127802998Y-70000820D01*
X127766688Y-70120518D01*
X127754428Y-70245000D01*
X125031637Y-70245000D01*
X125039841Y-70217957D01*
X125043332Y-70182515D01*
X125067000Y-69942210D01*
X125067000Y-69942203D01*
X125076081Y-69850001D01*
X125067000Y-69757799D01*
X125067000Y-67172002D01*
X125100693Y-67060931D01*
X125115066Y-66915000D01*
X127754428Y-66915000D01*
X127766688Y-67039482D01*
X127802998Y-67159180D01*
X127861963Y-67269494D01*
X127941315Y-67366185D01*
X128038006Y-67445537D01*
X128148320Y-67504502D01*
X128268018Y-67540812D01*
X128392500Y-67553072D01*
X128819250Y-67550000D01*
X128978000Y-67391250D01*
X128978000Y-66167000D01*
X127916250Y-66167000D01*
X127757500Y-66325750D01*
X127754428Y-66915000D01*
X125115066Y-66915000D01*
X125122453Y-66840000D01*
X125122453Y-65240000D01*
X125115067Y-65165000D01*
X127754428Y-65165000D01*
X127757500Y-65754250D01*
X127916250Y-65913000D01*
X128978000Y-65913000D01*
X128978000Y-64688750D01*
X128819250Y-64530000D01*
X128392500Y-64526928D01*
X128268018Y-64539188D01*
X128148320Y-64575498D01*
X128038006Y-64634463D01*
X127941315Y-64713815D01*
X127861963Y-64810506D01*
X127802998Y-64920820D01*
X127766688Y-65040518D01*
X127754428Y-65165000D01*
X125115067Y-65165000D01*
X125100693Y-65019069D01*
X125036250Y-64806629D01*
X124931600Y-64610843D01*
X124790765Y-64439235D01*
X124619157Y-64298400D01*
X124423371Y-64193750D01*
X124210931Y-64129307D01*
X123990000Y-64107547D01*
X122390000Y-64107547D01*
X122169069Y-64129307D01*
X122057998Y-64163000D01*
X117367201Y-64163000D01*
X117274999Y-64153919D01*
X117182797Y-64163000D01*
X117182790Y-64163000D01*
X116942485Y-64186668D01*
X116907043Y-64190159D01*
X116752981Y-64236893D01*
X116553228Y-64297487D01*
X116227149Y-64471780D01*
X115941339Y-64706339D01*
X115882561Y-64777960D01*
X114067815Y-66592706D01*
X114002797Y-66599110D01*
X113743458Y-66677780D01*
X113504450Y-66805532D01*
X113294958Y-66977458D01*
X113247500Y-67035286D01*
X113200042Y-66977458D01*
X112990550Y-66805532D01*
X112751542Y-66677780D01*
X112492203Y-66599110D01*
X112222500Y-66572547D01*
X111297500Y-66572547D01*
X111027797Y-66599110D01*
X110972000Y-66616036D01*
X110972000Y-61440000D01*
X141121928Y-61440000D01*
X141134188Y-61564482D01*
X141170498Y-61684180D01*
X141229463Y-61794494D01*
X141308815Y-61891185D01*
X141405506Y-61970537D01*
X141515820Y-62029502D01*
X141635518Y-62065812D01*
X141760000Y-62078072D01*
X143224250Y-62075000D01*
X143383000Y-61916250D01*
X143383000Y-59817000D01*
X141283750Y-59817000D01*
X141125000Y-59975750D01*
X141121928Y-61440000D01*
X110972000Y-61440000D01*
X110972000Y-59110497D01*
X111069841Y-58787956D01*
X111097000Y-58512210D01*
X111097000Y-55193830D01*
X111414838Y-54806544D01*
X111658773Y-54350173D01*
X111808988Y-53854982D01*
X111859709Y-53340000D01*
X113680290Y-53340000D01*
X113731011Y-53854982D01*
X113881226Y-54350173D01*
X114125161Y-54806544D01*
X114453443Y-55206557D01*
X114853456Y-55534839D01*
X115309827Y-55778774D01*
X115805018Y-55928989D01*
X116190952Y-55967000D01*
X116292522Y-55967000D01*
X120007561Y-59682040D01*
X120066339Y-59753661D01*
X120137960Y-59812439D01*
X120137962Y-59812441D01*
X120146013Y-59819048D01*
X120352149Y-59988220D01*
X120678228Y-60162513D01*
X120924715Y-60237283D01*
X121032043Y-60269841D01*
X121064371Y-60273025D01*
X121307790Y-60297000D01*
X121307798Y-60297000D01*
X121400000Y-60306081D01*
X121492202Y-60297000D01*
X122739332Y-60297000D01*
X122812242Y-60319117D01*
X123095342Y-60347000D01*
X123284658Y-60347000D01*
X123567758Y-60319117D01*
X123930999Y-60208929D01*
X124265763Y-60029994D01*
X124559187Y-59789187D01*
X124799994Y-59495763D01*
X124978929Y-59160999D01*
X125089117Y-58797758D01*
X125126323Y-58420000D01*
X125089117Y-58042242D01*
X125058103Y-57940000D01*
X141121928Y-57940000D01*
X141125000Y-59404250D01*
X141283750Y-59563000D01*
X143383000Y-59563000D01*
X143383000Y-57463750D01*
X143637000Y-57463750D01*
X143637000Y-59563000D01*
X145736250Y-59563000D01*
X145895000Y-59404250D01*
X145898072Y-57940000D01*
X145885812Y-57815518D01*
X145849502Y-57695820D01*
X145790537Y-57585506D01*
X145711185Y-57488815D01*
X145614494Y-57409463D01*
X145504180Y-57350498D01*
X145384482Y-57314188D01*
X145260000Y-57301928D01*
X143795750Y-57305000D01*
X143637000Y-57463750D01*
X143383000Y-57463750D01*
X143224250Y-57305000D01*
X141760000Y-57301928D01*
X141635518Y-57314188D01*
X141515820Y-57350498D01*
X141405506Y-57409463D01*
X141308815Y-57488815D01*
X141229463Y-57585506D01*
X141170498Y-57695820D01*
X141134188Y-57815518D01*
X141121928Y-57940000D01*
X125058103Y-57940000D01*
X124978929Y-57679001D01*
X124799994Y-57344237D01*
X124559187Y-57050813D01*
X124265763Y-56810006D01*
X123930999Y-56631071D01*
X123567758Y-56520883D01*
X123284658Y-56493000D01*
X123095342Y-56493000D01*
X122812242Y-56520883D01*
X122739332Y-56543000D01*
X122177479Y-56543000D01*
X121601479Y-55967000D01*
X129330955Y-55967000D01*
X129460000Y-55979710D01*
X129589045Y-55967000D01*
X129589048Y-55967000D01*
X129974982Y-55928989D01*
X130113401Y-55887000D01*
X146151862Y-55887000D01*
X146883000Y-56618139D01*
X146883001Y-58634628D01*
X146877547Y-58690000D01*
X146877547Y-60690000D01*
X146913718Y-61057248D01*
X147020840Y-61410384D01*
X147072775Y-61507547D01*
X145891419Y-61507547D01*
X145898072Y-61440000D01*
X145895000Y-59975750D01*
X145736250Y-59817000D01*
X143637000Y-59817000D01*
X143637000Y-61916250D01*
X143795750Y-62075000D01*
X144239381Y-62075931D01*
X144215516Y-62095516D01*
X143965864Y-62399719D01*
X143780355Y-62746781D01*
X143666120Y-63123365D01*
X143627547Y-63515000D01*
X143627547Y-65265000D01*
X143666120Y-65656635D01*
X143780355Y-66033219D01*
X143965864Y-66380281D01*
X144215516Y-66684484D01*
X144519719Y-66934136D01*
X144866781Y-67119645D01*
X145243365Y-67233880D01*
X145635000Y-67272453D01*
X147385000Y-67272453D01*
X147776635Y-67233880D01*
X148153219Y-67119645D01*
X148500281Y-66934136D01*
X148804484Y-66684484D01*
X149054136Y-66380281D01*
X149239645Y-66033219D01*
X149353880Y-65656635D01*
X149392453Y-65265000D01*
X149392453Y-63515000D01*
X149353880Y-63123365D01*
X149239645Y-62746781D01*
X149146464Y-62572453D01*
X150260000Y-62572453D01*
X150627248Y-62536282D01*
X150980384Y-62429160D01*
X151305835Y-62255202D01*
X151591095Y-62021095D01*
X151825202Y-61735835D01*
X151999160Y-61410384D01*
X152106282Y-61057248D01*
X152142453Y-60690000D01*
X152142453Y-58690000D01*
X152137000Y-58634635D01*
X152137000Y-55659045D01*
X152149710Y-55530000D01*
X152137000Y-55400952D01*
X152098989Y-55015018D01*
X151948774Y-54519827D01*
X151704840Y-54063457D01*
X151704839Y-54063455D01*
X151458820Y-53763681D01*
X151376557Y-53663443D01*
X151276319Y-53581180D01*
X149188825Y-51493687D01*
X149106557Y-51393443D01*
X148706544Y-51065161D01*
X148250173Y-50821226D01*
X147754982Y-50671011D01*
X147369048Y-50633000D01*
X147369045Y-50633000D01*
X147240000Y-50620290D01*
X147110955Y-50633000D01*
X129669044Y-50633000D01*
X129539999Y-50620290D01*
X129410954Y-50633000D01*
X129410952Y-50633000D01*
X129025018Y-50671011D01*
X128886599Y-50713000D01*
X116190952Y-50713000D01*
X115805018Y-50751011D01*
X115309827Y-50901226D01*
X114853456Y-51145161D01*
X114453443Y-51473443D01*
X114125161Y-51873456D01*
X113881226Y-52329827D01*
X113731011Y-52825018D01*
X113680290Y-53340000D01*
X111859709Y-53340000D01*
X111859710Y-53339999D01*
X111808988Y-52825017D01*
X111658773Y-52329826D01*
X111414838Y-51873455D01*
X111168820Y-51573681D01*
X109055139Y-49460000D01*
X127701928Y-49460000D01*
X127714188Y-49584482D01*
X127750498Y-49704180D01*
X127809463Y-49814494D01*
X127888815Y-49911185D01*
X127985506Y-49990537D01*
X128095820Y-50049502D01*
X128215518Y-50085812D01*
X128340000Y-50098072D01*
X129254250Y-50095000D01*
X129413000Y-49936250D01*
X129413000Y-48387000D01*
X129667000Y-48387000D01*
X129667000Y-49936250D01*
X129825750Y-50095000D01*
X130740000Y-50098072D01*
X130864482Y-50085812D01*
X130984180Y-50049502D01*
X131094494Y-49990537D01*
X131191185Y-49911185D01*
X131270537Y-49814494D01*
X131329502Y-49704180D01*
X131365812Y-49584482D01*
X131378072Y-49460000D01*
X131375000Y-48545750D01*
X131216250Y-48387000D01*
X129667000Y-48387000D01*
X129413000Y-48387000D01*
X127863750Y-48387000D01*
X127705000Y-48545750D01*
X127701928Y-49460000D01*
X109055139Y-49460000D01*
X106655139Y-47060000D01*
X127701928Y-47060000D01*
X127705000Y-47974250D01*
X127863750Y-48133000D01*
X129413000Y-48133000D01*
X129413000Y-46583750D01*
X129667000Y-46583750D01*
X129667000Y-48133000D01*
X131216250Y-48133000D01*
X131375000Y-47974250D01*
X131378072Y-47060000D01*
X131365812Y-46935518D01*
X131329502Y-46815820D01*
X131270537Y-46705506D01*
X131191185Y-46608815D01*
X131094494Y-46529463D01*
X130984180Y-46470498D01*
X130864482Y-46434188D01*
X130740000Y-46421928D01*
X129825750Y-46425000D01*
X129667000Y-46583750D01*
X129413000Y-46583750D01*
X129254250Y-46425000D01*
X128340000Y-46421928D01*
X128215518Y-46434188D01*
X128095820Y-46470498D01*
X127985506Y-46529463D01*
X127888815Y-46608815D01*
X127809463Y-46705506D01*
X127750498Y-46815820D01*
X127714188Y-46935518D01*
X127701928Y-47060000D01*
X106655139Y-47060000D01*
X104818825Y-45223687D01*
X104736557Y-45123443D01*
X104336544Y-44795161D01*
X103880173Y-44551226D01*
X103384982Y-44401011D01*
X102999048Y-44363000D01*
X102999045Y-44363000D01*
X102870000Y-44350290D01*
X102740955Y-44363000D01*
X101064165Y-44363000D01*
X100864585Y-44302458D01*
X100463961Y-44263000D01*
X100196039Y-44263000D01*
X99795415Y-44302458D01*
X99281373Y-44458391D01*
X98807630Y-44711612D01*
X98392390Y-45052390D01*
X98051612Y-45467630D01*
X97798391Y-45941373D01*
X97642458Y-46455415D01*
X97589806Y-46990000D01*
X97642458Y-47524585D01*
X97798391Y-48038627D01*
X98051612Y-48512370D01*
X98392390Y-48927610D01*
X98807630Y-49268388D01*
X99281373Y-49521609D01*
X99795415Y-49677542D01*
X100196039Y-49717000D01*
X100463961Y-49717000D01*
X100864585Y-49677542D01*
X101064165Y-49617000D01*
X101781862Y-49617000D01*
X107343000Y-55178139D01*
X107343001Y-58512210D01*
X107370160Y-58787956D01*
X107468001Y-59110497D01*
X107468000Y-68714298D01*
X105639300Y-70542998D01*
X105508986Y-70542998D01*
X105633191Y-70346495D01*
X105626737Y-70300367D01*
X105531102Y-70068633D01*
X105392095Y-69860009D01*
X105215059Y-69682512D01*
X105006797Y-69542964D01*
X104775312Y-69446727D01*
X104529500Y-69397500D01*
X104267000Y-69397500D01*
X104267000Y-70543000D01*
X104287000Y-70543000D01*
X104287000Y-70605500D01*
X103790821Y-70605500D01*
X103531598Y-70631031D01*
X103198988Y-70731927D01*
X103077245Y-70797000D01*
X102771015Y-70797000D01*
X102646809Y-70993505D01*
X102653263Y-71039633D01*
X102669429Y-71078806D01*
X102623774Y-71116274D01*
X102403274Y-71384953D01*
X102239427Y-71691488D01*
X102204460Y-71806758D01*
X102047107Y-71649405D01*
X101888220Y-71352149D01*
X101653661Y-71066339D01*
X101367851Y-70831780D01*
X101070597Y-70672895D01*
X100744197Y-70346495D01*
X102646809Y-70346495D01*
X102771015Y-70543000D01*
X104013000Y-70543000D01*
X104013000Y-69397500D01*
X103750500Y-69397500D01*
X103504688Y-69446727D01*
X103273203Y-69542964D01*
X103064941Y-69682512D01*
X102887905Y-69860009D01*
X102748898Y-70068633D01*
X102653263Y-70300367D01*
X102646809Y-70346495D01*
X100744197Y-70346495D01*
X95732000Y-65334298D01*
X95732000Y-62994956D01*
X95740332Y-62984803D01*
X96077124Y-62354709D01*
X96284520Y-61671016D01*
X96354549Y-60960000D01*
X96284520Y-60248984D01*
X96077124Y-59565291D01*
X95839458Y-59120649D01*
X95832947Y-59087915D01*
X95687685Y-58737223D01*
X95476799Y-58421609D01*
X95327656Y-58272466D01*
X95369502Y-58194180D01*
X95405812Y-58074482D01*
X95418072Y-57950000D01*
X95415000Y-57435750D01*
X95256250Y-57277000D01*
X94107000Y-57277000D01*
X94107000Y-57297000D01*
X93853000Y-57297000D01*
X93853000Y-57277000D01*
X92703750Y-57277000D01*
X92647750Y-57333000D01*
X82728170Y-57333000D01*
X82550000Y-57315452D01*
X82371829Y-57333000D01*
X82371822Y-57333000D01*
X81901940Y-57379279D01*
X81838983Y-57385480D01*
X81673266Y-57435750D01*
X81155291Y-57592876D01*
X80525197Y-57929668D01*
X80376083Y-58052043D01*
X80111314Y-58269333D01*
X80111310Y-58269337D01*
X79972915Y-58382915D01*
X79859337Y-58521310D01*
X69951311Y-68429337D01*
X69812916Y-68542915D01*
X69699338Y-68681310D01*
X69699333Y-68681315D01*
X69359669Y-69095197D01*
X69022876Y-69725292D01*
X68815480Y-70408984D01*
X68745452Y-71120000D01*
X65922000Y-71120000D01*
X65922000Y-56683000D01*
X67328000Y-56683000D01*
X67328000Y-65237000D01*
X72132000Y-65237000D01*
X72132000Y-56683000D01*
X67328000Y-56683000D01*
X65922000Y-56683000D01*
X65922000Y-56350000D01*
X92541928Y-56350000D01*
X92545000Y-56864250D01*
X92703750Y-57023000D01*
X93853000Y-57023000D01*
X93853000Y-55873750D01*
X94107000Y-55873750D01*
X94107000Y-57023000D01*
X95256250Y-57023000D01*
X95415000Y-56864250D01*
X95418072Y-56350000D01*
X95405812Y-56225518D01*
X95369502Y-56105820D01*
X95310537Y-55995506D01*
X95231185Y-55898815D01*
X95134494Y-55819463D01*
X95024180Y-55760498D01*
X94904482Y-55724188D01*
X94780000Y-55711928D01*
X94265750Y-55715000D01*
X94107000Y-55873750D01*
X93853000Y-55873750D01*
X93694250Y-55715000D01*
X93180000Y-55711928D01*
X93055518Y-55724188D01*
X92935820Y-55760498D01*
X92825506Y-55819463D01*
X92728815Y-55898815D01*
X92649463Y-55995506D01*
X92590498Y-56105820D01*
X92554188Y-56225518D01*
X92541928Y-56350000D01*
X65922000Y-56350000D01*
X65922000Y-48590000D01*
X82851928Y-48590000D01*
X82864188Y-48714482D01*
X82900498Y-48834180D01*
X82959463Y-48944494D01*
X83038815Y-49041185D01*
X83135506Y-49120537D01*
X83245820Y-49179502D01*
X83365518Y-49215812D01*
X83490000Y-49228072D01*
X84804250Y-49225000D01*
X84963000Y-49066250D01*
X84963000Y-47117000D01*
X85217000Y-47117000D01*
X85217000Y-49066250D01*
X85375750Y-49225000D01*
X86690000Y-49228072D01*
X86814482Y-49215812D01*
X86934180Y-49179502D01*
X87044494Y-49120537D01*
X87141185Y-49041185D01*
X87220537Y-48944494D01*
X87279502Y-48834180D01*
X87315812Y-48714482D01*
X87328072Y-48590000D01*
X87325000Y-47275750D01*
X87166250Y-47117000D01*
X85217000Y-47117000D01*
X84963000Y-47117000D01*
X83013750Y-47117000D01*
X82855000Y-47275750D01*
X82851928Y-48590000D01*
X65922000Y-48590000D01*
X65922000Y-45390000D01*
X82851928Y-45390000D01*
X82855000Y-46704250D01*
X83013750Y-46863000D01*
X84963000Y-46863000D01*
X84963000Y-44913750D01*
X85217000Y-44913750D01*
X85217000Y-46863000D01*
X87166250Y-46863000D01*
X87325000Y-46704250D01*
X87328072Y-45390000D01*
X87315812Y-45265518D01*
X87279502Y-45145820D01*
X87220537Y-45035506D01*
X87141185Y-44938815D01*
X87044494Y-44859463D01*
X86934180Y-44800498D01*
X86814482Y-44764188D01*
X86690000Y-44751928D01*
X85375750Y-44755000D01*
X85217000Y-44913750D01*
X84963000Y-44913750D01*
X84804250Y-44755000D01*
X83490000Y-44751928D01*
X83365518Y-44764188D01*
X83245820Y-44800498D01*
X83135506Y-44859463D01*
X83038815Y-44938815D01*
X82959463Y-45035506D01*
X82900498Y-45145820D01*
X82864188Y-45265518D01*
X82851928Y-45390000D01*
X65922000Y-45390000D01*
X65922000Y-43983000D01*
X152418000Y-43983000D01*
X152418000Y-52537000D01*
X157222000Y-52537000D01*
X157222000Y-43983000D01*
X152418000Y-43983000D01*
X65922000Y-43983000D01*
X65922000Y-41792000D01*
X160138000Y-41792000D01*
X160138001Y-137278000D01*
X160138001Y-137278000D01*
G37*
X160138001Y-137278000D02*
X65922000Y-137278000D01*
X65922000Y-113085000D01*
X82621928Y-113085000D01*
X82634188Y-113209482D01*
X82670498Y-113329180D01*
X82729463Y-113439494D01*
X82808815Y-113536185D01*
X82905506Y-113615537D01*
X83015820Y-113674502D01*
X83135518Y-113710812D01*
X83260000Y-113723072D01*
X83736750Y-113720000D01*
X83895500Y-113561250D01*
X83895500Y-111887000D01*
X84149500Y-111887000D01*
X84149500Y-113561250D01*
X84308250Y-113720000D01*
X84785000Y-113723072D01*
X84909482Y-113710812D01*
X85029180Y-113674502D01*
X85139494Y-113615537D01*
X85236185Y-113536185D01*
X85315537Y-113439494D01*
X85374502Y-113329180D01*
X85410812Y-113209482D01*
X85423072Y-113085000D01*
X85420000Y-112045750D01*
X85261250Y-111887000D01*
X84149500Y-111887000D01*
X83895500Y-111887000D01*
X82783750Y-111887000D01*
X82625000Y-112045750D01*
X82621928Y-113085000D01*
X65922000Y-113085000D01*
X65922000Y-110435000D01*
X82621928Y-110435000D01*
X82625000Y-111474250D01*
X82783750Y-111633000D01*
X83895500Y-111633000D01*
X83895500Y-109958750D01*
X84149500Y-109958750D01*
X84149500Y-111633000D01*
X85261250Y-111633000D01*
X85420000Y-111474250D01*
X85423072Y-110435000D01*
X85410812Y-110310518D01*
X85374502Y-110190820D01*
X85315537Y-110080506D01*
X85236185Y-109983815D01*
X85139494Y-109904463D01*
X85029180Y-109845498D01*
X84909482Y-109809188D01*
X84785000Y-109796928D01*
X84308250Y-109800000D01*
X84149500Y-109958750D01*
X83895500Y-109958750D01*
X83736750Y-109800000D01*
X83260000Y-109796928D01*
X83135518Y-109809188D01*
X83015820Y-109845498D01*
X82905506Y-109904463D01*
X82808815Y-109983815D01*
X82729463Y-110080506D01*
X82670498Y-110190820D01*
X82634188Y-110310518D01*
X82621928Y-110435000D01*
X65922000Y-110435000D01*
X65922000Y-99863000D01*
X67328000Y-99863000D01*
X67328000Y-108417000D01*
X72132000Y-108417000D01*
X72132000Y-99863000D01*
X67328000Y-99863000D01*
X65922000Y-99863000D01*
X65922000Y-99410000D01*
X73910290Y-99410000D01*
X73923000Y-99539045D01*
X73923000Y-99539047D01*
X73961011Y-99924981D01*
X74111226Y-100420172D01*
X74355161Y-100876543D01*
X74683443Y-101276557D01*
X74783687Y-101358825D01*
X75521175Y-102096313D01*
X75603443Y-102196557D01*
X76003456Y-102524839D01*
X76459827Y-102768774D01*
X76955018Y-102918989D01*
X77340952Y-102957000D01*
X77340962Y-102957000D01*
X77469999Y-102969709D01*
X77599036Y-102957000D01*
X86230955Y-102957000D01*
X86360000Y-102969710D01*
X86489045Y-102957000D01*
X86489048Y-102957000D01*
X86874982Y-102918989D01*
X87370173Y-102768774D01*
X87826544Y-102524839D01*
X88226557Y-102196557D01*
X88308825Y-102096313D01*
X98408718Y-91996420D01*
X102020298Y-95608000D01*
X98910494Y-95608000D01*
X98587956Y-95510159D01*
X98220000Y-95473919D01*
X97852043Y-95510159D01*
X97498227Y-95617488D01*
X97172149Y-95791781D01*
X96957962Y-95967559D01*
X89256173Y-103669349D01*
X87697961Y-105227561D01*
X87626340Y-105286339D01*
X87567562Y-105357960D01*
X87567559Y-105357963D01*
X87508648Y-105429747D01*
X87391781Y-105572149D01*
X87278778Y-105783562D01*
X87217488Y-105898228D01*
X87110159Y-106252044D01*
X87073919Y-106620000D01*
X87083001Y-106712212D01*
X87083000Y-109859110D01*
X87035532Y-109916950D01*
X86907780Y-110155958D01*
X86829110Y-110415296D01*
X86802547Y-110684999D01*
X86802547Y-112835001D01*
X86829110Y-113104704D01*
X86833001Y-113117530D01*
X86833000Y-115898969D01*
X86329870Y-116402099D01*
X86248708Y-116468707D01*
X86182101Y-116549868D01*
X85982908Y-116792585D01*
X85785401Y-117162095D01*
X85663777Y-117563035D01*
X85622709Y-117980000D01*
X85633001Y-118084495D01*
X85633000Y-123397663D01*
X85509235Y-123499235D01*
X85368400Y-123670843D01*
X85263750Y-123866629D01*
X85199307Y-124079069D01*
X85177547Y-124300000D01*
X85177547Y-129700000D01*
X85199307Y-129920931D01*
X85263750Y-130133371D01*
X85368400Y-130329157D01*
X85509235Y-130500765D01*
X85680843Y-130641600D01*
X85876629Y-130746250D01*
X86089069Y-130810693D01*
X86310000Y-130832453D01*
X89210000Y-130832453D01*
X89430931Y-130810693D01*
X89643371Y-130746250D01*
X89839157Y-130641600D01*
X90010765Y-130500765D01*
X90151600Y-130329157D01*
X90256250Y-130133371D01*
X90320693Y-129920931D01*
X90342453Y-129700000D01*
X90342453Y-124300000D01*
X90320693Y-124079069D01*
X90256250Y-123866629D01*
X90151600Y-123670843D01*
X90010765Y-123499235D01*
X89887000Y-123397664D01*
X89887000Y-118861031D01*
X90390126Y-118357905D01*
X90471293Y-118291293D01*
X90737093Y-117967415D01*
X90872011Y-117715000D01*
X93681928Y-117715000D01*
X93694188Y-117839482D01*
X93730498Y-117959180D01*
X93789463Y-118069494D01*
X93868815Y-118166185D01*
X93965506Y-118245537D01*
X94075820Y-118304502D01*
X94195518Y-118340812D01*
X94320000Y-118353072D01*
X94746750Y-118350000D01*
X94905500Y-118191250D01*
X94905500Y-116967000D01*
X93843750Y-116967000D01*
X93685000Y-117125750D01*
X93681928Y-117715000D01*
X90872011Y-117715000D01*
X90934599Y-117597906D01*
X91056224Y-117196965D01*
X91087000Y-116884487D01*
X91087000Y-116884478D01*
X91097290Y-116780001D01*
X91087000Y-116675523D01*
X91087000Y-115965000D01*
X93681928Y-115965000D01*
X93685000Y-116554250D01*
X93843750Y-116713000D01*
X94905500Y-116713000D01*
X94905500Y-115488750D01*
X94746750Y-115330000D01*
X94320000Y-115326928D01*
X94195518Y-115339188D01*
X94075820Y-115375498D01*
X93965506Y-115434463D01*
X93868815Y-115513815D01*
X93789463Y-115610506D01*
X93730498Y-115720820D01*
X93694188Y-115840518D01*
X93681928Y-115965000D01*
X91087000Y-115965000D01*
X91087000Y-111655513D01*
X91056224Y-111343035D01*
X90934599Y-110942094D01*
X90837000Y-110759498D01*
X90837000Y-107397478D01*
X91910651Y-106323827D01*
X99122479Y-99112000D01*
X103102273Y-99112000D01*
X103031295Y-99133531D01*
X102931262Y-99187000D01*
X102726931Y-99296217D01*
X102589219Y-99409235D01*
X102460155Y-99515155D01*
X102405290Y-99582008D01*
X100422003Y-101565295D01*
X100355156Y-101620155D01*
X100300296Y-101687002D01*
X100300289Y-101687009D01*
X100136217Y-101886932D01*
X99973532Y-102191295D01*
X99873350Y-102521549D01*
X99839524Y-102865000D01*
X99848001Y-102951071D01*
X99848000Y-108623258D01*
X99823979Y-108681250D01*
X99753000Y-109038086D01*
X99753000Y-109401914D01*
X99823979Y-109758750D01*
X99848001Y-109816744D01*
X99848000Y-115088000D01*
X99265427Y-115088000D01*
X99238050Y-115065532D01*
X98999042Y-114937780D01*
X98739703Y-114859110D01*
X98470000Y-114832547D01*
X97545000Y-114832547D01*
X97275297Y-114859110D01*
X97015958Y-114937780D01*
X96776950Y-115065532D01*
X96567458Y-115237458D01*
X96395532Y-115446950D01*
X96291824Y-115640976D01*
X96275537Y-115610506D01*
X96196185Y-115513815D01*
X96099494Y-115434463D01*
X95989180Y-115375498D01*
X95869482Y-115339188D01*
X95745000Y-115326928D01*
X95318250Y-115330000D01*
X95159500Y-115488750D01*
X95159500Y-116713000D01*
X95179500Y-116713000D01*
X95179500Y-116967000D01*
X95159500Y-116967000D01*
X95159500Y-118191250D01*
X95318250Y-118350000D01*
X95745000Y-118353072D01*
X95869482Y-118340812D01*
X95989180Y-118304502D01*
X96099494Y-118245537D01*
X96196185Y-118166185D01*
X96275537Y-118069494D01*
X96291824Y-118039024D01*
X96395532Y-118233050D01*
X96567458Y-118442542D01*
X96776950Y-118614468D01*
X97015958Y-118742220D01*
X97275297Y-118820890D01*
X97545000Y-118847453D01*
X98470000Y-118847453D01*
X98739703Y-118820890D01*
X98999042Y-118742220D01*
X99238050Y-118614468D01*
X99265427Y-118592000D01*
X100342073Y-118592000D01*
X100369450Y-118614468D01*
X100608458Y-118742220D01*
X100867797Y-118820890D01*
X101137500Y-118847453D01*
X102062500Y-118847453D01*
X102332203Y-118820890D01*
X102591542Y-118742220D01*
X102823001Y-118618503D01*
X102823000Y-122059298D01*
X100242453Y-124639845D01*
X100242453Y-124300000D01*
X100220693Y-124079069D01*
X100156250Y-123866629D01*
X100051600Y-123670843D01*
X99910765Y-123499235D01*
X99739157Y-123358400D01*
X99543371Y-123253750D01*
X99330931Y-123189307D01*
X99110000Y-123167547D01*
X96210000Y-123167547D01*
X95989069Y-123189307D01*
X95776629Y-123253750D01*
X95580843Y-123358400D01*
X95409235Y-123499235D01*
X95268400Y-123670843D01*
X95163750Y-123866629D01*
X95099307Y-124079069D01*
X95077547Y-124300000D01*
X95077547Y-129700000D01*
X95099307Y-129920931D01*
X95163750Y-130133371D01*
X95268400Y-130329157D01*
X95409235Y-130500765D01*
X95580843Y-130641600D01*
X95776629Y-130746250D01*
X95989069Y-130810693D01*
X96210000Y-130832453D01*
X99110000Y-130832453D01*
X99330931Y-130810693D01*
X99543371Y-130746250D01*
X99739157Y-130641600D01*
X99910765Y-130500765D01*
X100051600Y-130329157D01*
X100156250Y-130133371D01*
X100220693Y-129920931D01*
X100242453Y-129700000D01*
X100242453Y-129127000D01*
X101005515Y-129127000D01*
X101110000Y-129137291D01*
X101214485Y-129127000D01*
X101214487Y-129127000D01*
X101526965Y-129096224D01*
X101927906Y-128974599D01*
X102297415Y-128777093D01*
X102621293Y-128511293D01*
X102687905Y-128430126D01*
X105855031Y-125263000D01*
X152418000Y-125263000D01*
X152418000Y-133817000D01*
X157222000Y-133817000D01*
X157222000Y-125263000D01*
X152418000Y-125263000D01*
X105855031Y-125263000D01*
X106405131Y-124712901D01*
X106486293Y-124646293D01*
X106596504Y-124512000D01*
X114202798Y-124512000D01*
X114295000Y-124521081D01*
X114387202Y-124512000D01*
X114387210Y-124512000D01*
X114662956Y-124484841D01*
X115016772Y-124377513D01*
X115342851Y-124203220D01*
X115628661Y-123968661D01*
X115687444Y-123897035D01*
X116612025Y-122972453D01*
X117840000Y-122972453D01*
X118109703Y-122945890D01*
X118369042Y-122867220D01*
X118608050Y-122739468D01*
X118817542Y-122567542D01*
X118989468Y-122358050D01*
X119117220Y-122119042D01*
X119163342Y-121967000D01*
X123112666Y-121967000D01*
X123126339Y-121983661D01*
X123412149Y-122218220D01*
X123738228Y-122392513D01*
X123988363Y-122468390D01*
X124092043Y-122499841D01*
X124124371Y-122503025D01*
X124367790Y-122527000D01*
X124367798Y-122527000D01*
X124460000Y-122536081D01*
X124552202Y-122527000D01*
X127269498Y-122527000D01*
X127452094Y-122624599D01*
X127853035Y-122746224D01*
X128165513Y-122777000D01*
X132410302Y-122777000D01*
X132532094Y-122842099D01*
X132933035Y-122963724D01*
X133245513Y-122994500D01*
X133245522Y-122994500D01*
X133349999Y-123004790D01*
X133454476Y-122994500D01*
X148268015Y-122994500D01*
X148372500Y-123004791D01*
X148476985Y-122994500D01*
X148476987Y-122994500D01*
X148789465Y-122963724D01*
X149190406Y-122842099D01*
X149559915Y-122644593D01*
X149883793Y-122378793D01*
X149950405Y-122297626D01*
X152560131Y-119687901D01*
X152641293Y-119621293D01*
X152771541Y-119462585D01*
X152907093Y-119297416D01*
X153104599Y-118927906D01*
X153120277Y-118876224D01*
X153226224Y-118526965D01*
X153257000Y-118214487D01*
X153257000Y-118214485D01*
X153267291Y-118110000D01*
X153257000Y-118005515D01*
X153257000Y-112214485D01*
X153267291Y-112110000D01*
X153257000Y-112005513D01*
X153226224Y-111693035D01*
X153104599Y-111292094D01*
X153062958Y-111214188D01*
X152907093Y-110922584D01*
X152766179Y-110750881D01*
X152641293Y-110598707D01*
X152560131Y-110532099D01*
X152142453Y-110114421D01*
X152142453Y-109490000D01*
X152106282Y-109122752D01*
X151999160Y-108769616D01*
X151825202Y-108444165D01*
X151591095Y-108158905D01*
X151305835Y-107924798D01*
X150980384Y-107750840D01*
X150627248Y-107643718D01*
X150260000Y-107607547D01*
X148760000Y-107607547D01*
X148392752Y-107643718D01*
X148039616Y-107750840D01*
X147714165Y-107924798D01*
X147428905Y-108158905D01*
X147194798Y-108444165D01*
X147020840Y-108769616D01*
X146913718Y-109122752D01*
X146877547Y-109490000D01*
X146877547Y-111490000D01*
X146913718Y-111857248D01*
X147020840Y-112210384D01*
X147072775Y-112307547D01*
X145891419Y-112307547D01*
X145898072Y-112240000D01*
X145895000Y-110775750D01*
X145736250Y-110617000D01*
X143637000Y-110617000D01*
X143637000Y-112716250D01*
X143795750Y-112875000D01*
X144239381Y-112875931D01*
X144215516Y-112895516D01*
X143965864Y-113199719D01*
X143780355Y-113546781D01*
X143666120Y-113923365D01*
X143627547Y-114315000D01*
X143627547Y-116065000D01*
X143666120Y-116456635D01*
X143780355Y-116833219D01*
X143965864Y-117180281D01*
X144215516Y-117484484D01*
X144519719Y-117734136D01*
X144866781Y-117919645D01*
X145243365Y-118033880D01*
X145635000Y-118072453D01*
X147385000Y-118072453D01*
X147776635Y-118033880D01*
X148153219Y-117919645D01*
X148495021Y-117736948D01*
X147491469Y-118740500D01*
X134847470Y-118740500D01*
X134850812Y-118729482D01*
X134863072Y-118605000D01*
X134860000Y-118178250D01*
X134701250Y-118019500D01*
X133477000Y-118019500D01*
X133477000Y-118039500D01*
X133223000Y-118039500D01*
X133223000Y-118019500D01*
X131998750Y-118019500D01*
X131840000Y-118178250D01*
X131837518Y-118523000D01*
X129767470Y-118523000D01*
X129770812Y-118511982D01*
X129783072Y-118387500D01*
X129780000Y-117960750D01*
X129621250Y-117802000D01*
X128397000Y-117802000D01*
X128397000Y-117822000D01*
X128143000Y-117822000D01*
X128143000Y-117802000D01*
X126918750Y-117802000D01*
X126760000Y-117960750D01*
X126756928Y-118387500D01*
X126769188Y-118511982D01*
X126805498Y-118631680D01*
X126864463Y-118741994D01*
X126889909Y-118773000D01*
X125247334Y-118773000D01*
X125233661Y-118756339D01*
X124947851Y-118521780D01*
X124621772Y-118347487D01*
X124267956Y-118240159D01*
X123992210Y-118213000D01*
X123992202Y-118213000D01*
X123900000Y-118203919D01*
X123807798Y-118213000D01*
X119163342Y-118213000D01*
X119117220Y-118060958D01*
X118989468Y-117821950D01*
X118817542Y-117612458D01*
X118608050Y-117440532D01*
X118369042Y-117312780D01*
X118109703Y-117234110D01*
X117840000Y-117207547D01*
X115840000Y-117207547D01*
X115570297Y-117234110D01*
X115310958Y-117312780D01*
X115071950Y-117440532D01*
X114862458Y-117612458D01*
X114690532Y-117821950D01*
X114562780Y-118060958D01*
X114484110Y-118320297D01*
X114457547Y-118590000D01*
X114457547Y-119817974D01*
X113517522Y-120758000D01*
X106327000Y-120758000D01*
X106327000Y-117953560D01*
X106393390Y-117734703D01*
X106419953Y-117465000D01*
X106419953Y-116962500D01*
X126756928Y-116962500D01*
X126760000Y-117389250D01*
X126918750Y-117548000D01*
X128143000Y-117548000D01*
X128143000Y-116486250D01*
X128397000Y-116486250D01*
X128397000Y-117548000D01*
X129621250Y-117548000D01*
X129780000Y-117389250D01*
X129781506Y-117180000D01*
X131836928Y-117180000D01*
X131840000Y-117606750D01*
X131998750Y-117765500D01*
X133223000Y-117765500D01*
X133223000Y-116703750D01*
X133477000Y-116703750D01*
X133477000Y-117765500D01*
X134701250Y-117765500D01*
X134860000Y-117606750D01*
X134863072Y-117180000D01*
X134850812Y-117055518D01*
X134814502Y-116935820D01*
X134755537Y-116825506D01*
X134676185Y-116728815D01*
X134579494Y-116649463D01*
X134469180Y-116590498D01*
X134349482Y-116554188D01*
X134225000Y-116541928D01*
X133635750Y-116545000D01*
X133477000Y-116703750D01*
X133223000Y-116703750D01*
X133064250Y-116545000D01*
X132475000Y-116541928D01*
X132350518Y-116554188D01*
X132230820Y-116590498D01*
X132120506Y-116649463D01*
X132023815Y-116728815D01*
X131944463Y-116825506D01*
X131885498Y-116935820D01*
X131849188Y-117055518D01*
X131836928Y-117180000D01*
X129781506Y-117180000D01*
X129783072Y-116962500D01*
X129770812Y-116838018D01*
X129734502Y-116718320D01*
X129675537Y-116608006D01*
X129596185Y-116511315D01*
X129499494Y-116431963D01*
X129389180Y-116372998D01*
X129269482Y-116336688D01*
X129145000Y-116324428D01*
X128555750Y-116327500D01*
X128397000Y-116486250D01*
X128143000Y-116486250D01*
X127984250Y-116327500D01*
X127395000Y-116324428D01*
X127270518Y-116336688D01*
X127150820Y-116372998D01*
X127040506Y-116431963D01*
X126943815Y-116511315D01*
X126864463Y-116608006D01*
X126805498Y-116718320D01*
X126769188Y-116838018D01*
X126756928Y-116962500D01*
X106419953Y-116962500D01*
X106419953Y-116215000D01*
X106393390Y-115945297D01*
X106327000Y-115726440D01*
X106327000Y-115340000D01*
X114951928Y-115340000D01*
X114964188Y-115464482D01*
X115000498Y-115584180D01*
X115059463Y-115694494D01*
X115138815Y-115791185D01*
X115235506Y-115870537D01*
X115345820Y-115929502D01*
X115465518Y-115965812D01*
X115590000Y-115978072D01*
X116554250Y-115975000D01*
X116713000Y-115816250D01*
X116713000Y-113717000D01*
X116967000Y-113717000D01*
X116967000Y-115816250D01*
X117125750Y-115975000D01*
X118090000Y-115978072D01*
X118214482Y-115965812D01*
X118334180Y-115929502D01*
X118444494Y-115870537D01*
X118541185Y-115791185D01*
X118620537Y-115694494D01*
X118679502Y-115584180D01*
X118715812Y-115464482D01*
X118728072Y-115340000D01*
X118725000Y-113875750D01*
X118566250Y-113717000D01*
X116967000Y-113717000D01*
X116713000Y-113717000D01*
X115113750Y-113717000D01*
X114955000Y-113875750D01*
X114951928Y-115340000D01*
X106327000Y-115340000D01*
X106327000Y-111840000D01*
X114951928Y-111840000D01*
X114955000Y-113304250D01*
X115113750Y-113463000D01*
X116713000Y-113463000D01*
X116713000Y-111363750D01*
X116967000Y-111363750D01*
X116967000Y-113463000D01*
X118566250Y-113463000D01*
X118725000Y-113304250D01*
X118727232Y-112240000D01*
X141121928Y-112240000D01*
X141134188Y-112364482D01*
X141170498Y-112484180D01*
X141229463Y-112594494D01*
X141308815Y-112691185D01*
X141405506Y-112770537D01*
X141515820Y-112829502D01*
X141635518Y-112865812D01*
X141760000Y-112878072D01*
X143224250Y-112875000D01*
X143383000Y-112716250D01*
X143383000Y-110617000D01*
X141283750Y-110617000D01*
X141125000Y-110775750D01*
X141121928Y-112240000D01*
X118727232Y-112240000D01*
X118728072Y-111840000D01*
X118715812Y-111715518D01*
X118679502Y-111595820D01*
X118620537Y-111485506D01*
X118541185Y-111388815D01*
X118444494Y-111309463D01*
X118334180Y-111250498D01*
X118214482Y-111214188D01*
X118090000Y-111201928D01*
X117125750Y-111205000D01*
X116967000Y-111363750D01*
X116713000Y-111363750D01*
X116554250Y-111205000D01*
X115590000Y-111201928D01*
X115465518Y-111214188D01*
X115345820Y-111250498D01*
X115235506Y-111309463D01*
X115138815Y-111388815D01*
X115059463Y-111485506D01*
X115000498Y-111595820D01*
X114964188Y-111715518D01*
X114951928Y-111840000D01*
X106327000Y-111840000D01*
X106327000Y-111169275D01*
X106423165Y-111052097D01*
X106498086Y-111067000D01*
X106861914Y-111067000D01*
X107218750Y-110996021D01*
X107554883Y-110856790D01*
X107857394Y-110654659D01*
X108114659Y-110397394D01*
X108316790Y-110094883D01*
X108456021Y-109758750D01*
X108527000Y-109401914D01*
X108527000Y-109038086D01*
X108467708Y-108740000D01*
X141121928Y-108740000D01*
X141125000Y-110204250D01*
X141283750Y-110363000D01*
X143383000Y-110363000D01*
X143383000Y-108263750D01*
X143637000Y-108263750D01*
X143637000Y-110363000D01*
X145736250Y-110363000D01*
X145895000Y-110204250D01*
X145898072Y-108740000D01*
X145885812Y-108615518D01*
X145849502Y-108495820D01*
X145790537Y-108385506D01*
X145711185Y-108288815D01*
X145614494Y-108209463D01*
X145504180Y-108150498D01*
X145384482Y-108114188D01*
X145260000Y-108101928D01*
X143795750Y-108105000D01*
X143637000Y-108263750D01*
X143383000Y-108263750D01*
X143224250Y-108105000D01*
X141760000Y-108101928D01*
X141635518Y-108114188D01*
X141515820Y-108150498D01*
X141405506Y-108209463D01*
X141308815Y-108288815D01*
X141229463Y-108385506D01*
X141170498Y-108495820D01*
X141134188Y-108615518D01*
X141121928Y-108740000D01*
X108467708Y-108740000D01*
X108456021Y-108681250D01*
X108316790Y-108345117D01*
X108114659Y-108042606D01*
X107857394Y-107785341D01*
X107554883Y-107583210D01*
X107218750Y-107443979D01*
X106861914Y-107373000D01*
X106498086Y-107373000D01*
X106141250Y-107443979D01*
X106083258Y-107468000D01*
X104736742Y-107468000D01*
X104678750Y-107443979D01*
X104321914Y-107373000D01*
X103958086Y-107373000D01*
X103601250Y-107443979D01*
X103352000Y-107547222D01*
X103352000Y-104460000D01*
X111066928Y-104460000D01*
X111079188Y-104584482D01*
X111115498Y-104704180D01*
X111174463Y-104814494D01*
X111253815Y-104911185D01*
X111350506Y-104990537D01*
X111460820Y-105049502D01*
X111580518Y-105085812D01*
X111705000Y-105098072D01*
X116119250Y-105095000D01*
X116278000Y-104936250D01*
X116278000Y-99187000D01*
X116532000Y-99187000D01*
X116532000Y-104936250D01*
X116690750Y-105095000D01*
X121105000Y-105098072D01*
X121229482Y-105085812D01*
X121349180Y-105049502D01*
X121459494Y-104990537D01*
X121556185Y-104911185D01*
X121635537Y-104814494D01*
X121694502Y-104704180D01*
X121730812Y-104584482D01*
X121743072Y-104460000D01*
X121740000Y-99345750D01*
X121581250Y-99187000D01*
X116532000Y-99187000D01*
X116278000Y-99187000D01*
X111228750Y-99187000D01*
X111070000Y-99345750D01*
X111066928Y-104460000D01*
X103352000Y-104460000D01*
X103352000Y-103590702D01*
X104355700Y-102587002D01*
X104478748Y-102587002D01*
X104320000Y-102745750D01*
X104316928Y-103010000D01*
X104329188Y-103134482D01*
X104365498Y-103254180D01*
X104424463Y-103364494D01*
X104503815Y-103461185D01*
X104600506Y-103540537D01*
X104710820Y-103599502D01*
X104830518Y-103635812D01*
X104955000Y-103648072D01*
X106969250Y-103645000D01*
X107128000Y-103486250D01*
X107128000Y-102587000D01*
X107382000Y-102587000D01*
X107382000Y-103486250D01*
X107540750Y-103645000D01*
X109555000Y-103648072D01*
X109679482Y-103635812D01*
X109799180Y-103599502D01*
X109909494Y-103540537D01*
X110006185Y-103461185D01*
X110085537Y-103364494D01*
X110144502Y-103254180D01*
X110180812Y-103134482D01*
X110193072Y-103010000D01*
X110190000Y-102745750D01*
X110031250Y-102587000D01*
X107382000Y-102587000D01*
X107128000Y-102587000D01*
X107108000Y-102587000D01*
X107108000Y-102512000D01*
X107341069Y-102512000D01*
X107598452Y-102486650D01*
X107744150Y-102442453D01*
X109555000Y-102442453D01*
X109775931Y-102420693D01*
X109988371Y-102356250D01*
X110184157Y-102251600D01*
X110355765Y-102110765D01*
X110496600Y-101939157D01*
X110601250Y-101743371D01*
X110665693Y-101530931D01*
X110687453Y-101310000D01*
X110687453Y-100210000D01*
X110665693Y-99989069D01*
X110601250Y-99776629D01*
X110496600Y-99580843D01*
X110355765Y-99409235D01*
X110184157Y-99268400D01*
X109988371Y-99163750D01*
X109775931Y-99099307D01*
X109555000Y-99077547D01*
X107744150Y-99077547D01*
X107686305Y-99060000D01*
X107744150Y-99042453D01*
X109555000Y-99042453D01*
X109775931Y-99020693D01*
X109988371Y-98956250D01*
X110184157Y-98851600D01*
X110355765Y-98710765D01*
X110496600Y-98539157D01*
X110601250Y-98343371D01*
X110665693Y-98130931D01*
X110687453Y-97910000D01*
X110687453Y-96810000D01*
X110665693Y-96589069D01*
X110641708Y-96510000D01*
X110665693Y-96430931D01*
X110687453Y-96210000D01*
X110687453Y-95110000D01*
X110665693Y-94889069D01*
X110601250Y-94676629D01*
X110496600Y-94480843D01*
X110355765Y-94309235D01*
X110184157Y-94168400D01*
X109988371Y-94063750D01*
X109775931Y-93999307D01*
X109555000Y-93977547D01*
X107744150Y-93977547D01*
X107598452Y-93933350D01*
X107341069Y-93908000D01*
X105275702Y-93908000D01*
X105027702Y-93660000D01*
X111066928Y-93660000D01*
X111070000Y-98774250D01*
X111228750Y-98933000D01*
X116278000Y-98933000D01*
X116278000Y-93183750D01*
X116532000Y-93183750D01*
X116532000Y-98933000D01*
X121581250Y-98933000D01*
X121740000Y-98774250D01*
X121741558Y-96180000D01*
X125486928Y-96180000D01*
X125499188Y-96304482D01*
X125535498Y-96424180D01*
X125594463Y-96534494D01*
X125673815Y-96631185D01*
X125770506Y-96710537D01*
X125880820Y-96769502D01*
X126000518Y-96805812D01*
X126125000Y-96818072D01*
X126714250Y-96815000D01*
X126873000Y-96656250D01*
X126873000Y-95594500D01*
X127127000Y-95594500D01*
X127127000Y-96656250D01*
X127285750Y-96815000D01*
X127875000Y-96818072D01*
X127999482Y-96805812D01*
X128119180Y-96769502D01*
X128229494Y-96710537D01*
X128326185Y-96631185D01*
X128405537Y-96534494D01*
X128464502Y-96424180D01*
X128500812Y-96304482D01*
X128513072Y-96180000D01*
X128510000Y-95753250D01*
X128351250Y-95594500D01*
X127127000Y-95594500D01*
X126873000Y-95594500D01*
X125648750Y-95594500D01*
X125490000Y-95753250D01*
X125486928Y-96180000D01*
X121741558Y-96180000D01*
X121743072Y-93660000D01*
X121730812Y-93535518D01*
X121694502Y-93415820D01*
X121635537Y-93305506D01*
X121556185Y-93208815D01*
X121459494Y-93129463D01*
X121349180Y-93070498D01*
X121229482Y-93034188D01*
X121105000Y-93021928D01*
X116690750Y-93025000D01*
X116532000Y-93183750D01*
X116278000Y-93183750D01*
X116119250Y-93025000D01*
X111705000Y-93021928D01*
X111580518Y-93034188D01*
X111460820Y-93070498D01*
X111350506Y-93129463D01*
X111253815Y-93208815D01*
X111174463Y-93305506D01*
X111115498Y-93415820D01*
X111079188Y-93535518D01*
X111066928Y-93660000D01*
X105027702Y-93660000D01*
X102894702Y-91527000D01*
X125089880Y-91527000D01*
X125019110Y-91760297D01*
X124992547Y-92030000D01*
X124992547Y-92955000D01*
X125019110Y-93224703D01*
X125097780Y-93484042D01*
X125225532Y-93723050D01*
X125397458Y-93932542D01*
X125606950Y-94104468D01*
X125800976Y-94208176D01*
X125770506Y-94224463D01*
X125673815Y-94303815D01*
X125594463Y-94400506D01*
X125535498Y-94510820D01*
X125499188Y-94630518D01*
X125486928Y-94755000D01*
X125490000Y-95181750D01*
X125648750Y-95340500D01*
X126873000Y-95340500D01*
X126873000Y-95320500D01*
X127127000Y-95320500D01*
X127127000Y-95340500D01*
X128351250Y-95340500D01*
X128510000Y-95181750D01*
X128513072Y-94755000D01*
X128500812Y-94630518D01*
X128464502Y-94510820D01*
X128405537Y-94400506D01*
X128326185Y-94303815D01*
X128229494Y-94224463D01*
X128199024Y-94208176D01*
X128393050Y-94104468D01*
X128602542Y-93932542D01*
X128774468Y-93723050D01*
X128902220Y-93484042D01*
X128980890Y-93224703D01*
X129007453Y-92955000D01*
X129007453Y-92030000D01*
X128980890Y-91760297D01*
X128910120Y-91527000D01*
X132209048Y-91527000D01*
X132594982Y-91488989D01*
X133090173Y-91338774D01*
X133546544Y-91094839D01*
X133946557Y-90766557D01*
X134258247Y-90386761D01*
X134260498Y-90394180D01*
X134319463Y-90504494D01*
X134398815Y-90601185D01*
X134495506Y-90680537D01*
X134605820Y-90739502D01*
X134725518Y-90775812D01*
X134850000Y-90788072D01*
X136314250Y-90785000D01*
X136473000Y-90626250D01*
X136473000Y-89027000D01*
X136727000Y-89027000D01*
X136727000Y-90626250D01*
X136885750Y-90785000D01*
X138350000Y-90788072D01*
X138474482Y-90775812D01*
X138594180Y-90739502D01*
X138704494Y-90680537D01*
X138801185Y-90601185D01*
X138880537Y-90504494D01*
X138939502Y-90394180D01*
X138975812Y-90274482D01*
X138988072Y-90150000D01*
X138985000Y-89185750D01*
X138826250Y-89027000D01*
X136727000Y-89027000D01*
X136473000Y-89027000D01*
X136453000Y-89027000D01*
X136453000Y-88773000D01*
X136473000Y-88773000D01*
X136473000Y-87173750D01*
X136727000Y-87173750D01*
X136727000Y-88773000D01*
X138826250Y-88773000D01*
X138985000Y-88614250D01*
X138988072Y-87650000D01*
X138975812Y-87525518D01*
X138939502Y-87405820D01*
X138880537Y-87295506D01*
X138801185Y-87198815D01*
X138704494Y-87119463D01*
X138594180Y-87060498D01*
X138474482Y-87024188D01*
X138350000Y-87011928D01*
X136885750Y-87015000D01*
X136727000Y-87173750D01*
X136473000Y-87173750D01*
X136314250Y-87015000D01*
X134850000Y-87011928D01*
X134725518Y-87024188D01*
X134605820Y-87060498D01*
X134495506Y-87119463D01*
X134398815Y-87198815D01*
X134319463Y-87295506D01*
X134260498Y-87405820D01*
X134258247Y-87413239D01*
X133946557Y-87033443D01*
X133546544Y-86705161D01*
X133090173Y-86461226D01*
X132594982Y-86311011D01*
X132209048Y-86273000D01*
X97919044Y-86273000D01*
X97789999Y-86260290D01*
X97660954Y-86273000D01*
X97660952Y-86273000D01*
X97275018Y-86311011D01*
X96779827Y-86461226D01*
X96323456Y-86705161D01*
X95923443Y-87033443D01*
X95841179Y-87133682D01*
X85271862Y-97703000D01*
X79177000Y-97703000D01*
X79177000Y-97000000D01*
X80161928Y-97000000D01*
X80174188Y-97124482D01*
X80210498Y-97244180D01*
X80269463Y-97354494D01*
X80348815Y-97451185D01*
X80445506Y-97530537D01*
X80555820Y-97589502D01*
X80675518Y-97625812D01*
X80800000Y-97638072D01*
X82264250Y-97635000D01*
X82423000Y-97476250D01*
X82423000Y-95377000D01*
X82677000Y-95377000D01*
X82677000Y-97476250D01*
X82835750Y-97635000D01*
X84300000Y-97638072D01*
X84424482Y-97625812D01*
X84544180Y-97589502D01*
X84654494Y-97530537D01*
X84751185Y-97451185D01*
X84830537Y-97354494D01*
X84889502Y-97244180D01*
X84925812Y-97124482D01*
X84938072Y-97000000D01*
X84935000Y-95535750D01*
X84776250Y-95377000D01*
X82677000Y-95377000D01*
X82423000Y-95377000D01*
X80323750Y-95377000D01*
X80165000Y-95535750D01*
X80161928Y-97000000D01*
X79177000Y-97000000D01*
X79177000Y-96305365D01*
X79182453Y-96250000D01*
X79182453Y-94250000D01*
X79146282Y-93882752D01*
X79039160Y-93529616D01*
X78987225Y-93432453D01*
X80168581Y-93432453D01*
X80161928Y-93500000D01*
X80165000Y-94964250D01*
X80323750Y-95123000D01*
X82423000Y-95123000D01*
X82423000Y-93023750D01*
X82677000Y-93023750D01*
X82677000Y-95123000D01*
X84776250Y-95123000D01*
X84935000Y-94964250D01*
X84938072Y-93500000D01*
X84925812Y-93375518D01*
X84889502Y-93255820D01*
X84830537Y-93145506D01*
X84751185Y-93048815D01*
X84654494Y-92969463D01*
X84544180Y-92910498D01*
X84424482Y-92874188D01*
X84300000Y-92861928D01*
X82835750Y-92865000D01*
X82677000Y-93023750D01*
X82423000Y-93023750D01*
X82264250Y-92865000D01*
X81820619Y-92864069D01*
X81844484Y-92844484D01*
X82094136Y-92540281D01*
X82279645Y-92193219D01*
X82393880Y-91816635D01*
X82432453Y-91425000D01*
X82432453Y-89675000D01*
X82393880Y-89283365D01*
X82279645Y-88906781D01*
X82094136Y-88559719D01*
X81844484Y-88255516D01*
X81540281Y-88005864D01*
X81193219Y-87820355D01*
X80816635Y-87706120D01*
X80425000Y-87667547D01*
X78675000Y-87667547D01*
X78283365Y-87706120D01*
X77906781Y-87820355D01*
X77559719Y-88005864D01*
X77255516Y-88255516D01*
X77005864Y-88559719D01*
X76820355Y-88906781D01*
X76706120Y-89283365D01*
X76667547Y-89675000D01*
X76667547Y-91425000D01*
X76706120Y-91816635D01*
X76820355Y-92193219D01*
X76913536Y-92367547D01*
X75800000Y-92367547D01*
X75432752Y-92403718D01*
X75079616Y-92510840D01*
X74754165Y-92684798D01*
X74468905Y-92918905D01*
X74234798Y-93204165D01*
X74060840Y-93529616D01*
X73953718Y-93882752D01*
X73917547Y-94250000D01*
X73917547Y-96250000D01*
X73923001Y-96305372D01*
X73923000Y-99280954D01*
X73910290Y-99410000D01*
X65922000Y-99410000D01*
X65922000Y-71120000D01*
X68745452Y-71120000D01*
X68763001Y-71298180D01*
X68763000Y-74731829D01*
X68745452Y-74910000D01*
X68763000Y-75088170D01*
X68763000Y-75088177D01*
X68803526Y-75499645D01*
X68815480Y-75621016D01*
X68945473Y-76049544D01*
X69022876Y-76304708D01*
X69359668Y-76934802D01*
X69812915Y-77487085D01*
X69951315Y-77600668D01*
X72259336Y-79908689D01*
X72372915Y-80047085D01*
X72511310Y-80160663D01*
X72511314Y-80160667D01*
X72583048Y-80219537D01*
X72925197Y-80500332D01*
X73555291Y-80837124D01*
X73822846Y-80918286D01*
X74238983Y-81044520D01*
X74301940Y-81050721D01*
X74771822Y-81097000D01*
X74771829Y-81097000D01*
X74950000Y-81114548D01*
X75128170Y-81097000D01*
X76728178Y-81097000D01*
X77261016Y-81044520D01*
X77944709Y-80837124D01*
X78574803Y-80500332D01*
X79127085Y-80047085D01*
X79580332Y-79494803D01*
X79917124Y-78864709D01*
X80124520Y-78181016D01*
X80164969Y-77770326D01*
X80161928Y-79220000D01*
X80174188Y-79344482D01*
X80210498Y-79464180D01*
X80269463Y-79574494D01*
X80348815Y-79671185D01*
X80445506Y-79750537D01*
X80555820Y-79809502D01*
X80675518Y-79845812D01*
X80800000Y-79858072D01*
X82264250Y-79855000D01*
X82423000Y-79696250D01*
X82423000Y-77597000D01*
X82677000Y-77597000D01*
X82677000Y-79696250D01*
X82835750Y-79855000D01*
X84300000Y-79858072D01*
X84424482Y-79845812D01*
X84544180Y-79809502D01*
X84654494Y-79750537D01*
X84751185Y-79671185D01*
X84830537Y-79574494D01*
X84889502Y-79464180D01*
X84925812Y-79344482D01*
X84938072Y-79220000D01*
X84935000Y-77755750D01*
X84776250Y-77597000D01*
X82677000Y-77597000D01*
X82423000Y-77597000D01*
X82403000Y-77597000D01*
X82403000Y-77343000D01*
X82423000Y-77343000D01*
X82423000Y-75243750D01*
X82677000Y-75243750D01*
X82677000Y-77343000D01*
X84776250Y-77343000D01*
X84935000Y-77184250D01*
X84938072Y-75720000D01*
X84925812Y-75595518D01*
X84889502Y-75475820D01*
X84830537Y-75365506D01*
X84751185Y-75268815D01*
X84654494Y-75189463D01*
X84544180Y-75130498D01*
X84424482Y-75094188D01*
X84300000Y-75081928D01*
X82835750Y-75085000D01*
X82677000Y-75243750D01*
X82423000Y-75243750D01*
X82264250Y-75085000D01*
X81820619Y-75084069D01*
X81844484Y-75064484D01*
X82094136Y-74760281D01*
X82279645Y-74413219D01*
X82393880Y-74036635D01*
X82432453Y-73645000D01*
X82432453Y-71895000D01*
X82393880Y-71503365D01*
X82279645Y-71126781D01*
X82094136Y-70779719D01*
X81844484Y-70475516D01*
X81540281Y-70225864D01*
X81193219Y-70040355D01*
X80816635Y-69926120D01*
X80425000Y-69887547D01*
X78751805Y-69887547D01*
X84052353Y-64587000D01*
X92228000Y-64587000D01*
X92228000Y-65973939D01*
X92219524Y-66060000D01*
X92228000Y-66146061D01*
X92228000Y-66146068D01*
X92253350Y-66403451D01*
X92353531Y-66733704D01*
X92417483Y-66853350D01*
X92516217Y-67038068D01*
X92676916Y-67233880D01*
X92735155Y-67304845D01*
X92802008Y-67359710D01*
X97645159Y-72202862D01*
X95992522Y-73855500D01*
X91335513Y-73855500D01*
X91023035Y-73886276D01*
X90622094Y-74007901D01*
X90252585Y-74205407D01*
X90059654Y-74363742D01*
X90046950Y-74370532D01*
X89837458Y-74542458D01*
X89665532Y-74751950D01*
X89537780Y-74990958D01*
X89510969Y-75079342D01*
X89465401Y-75164594D01*
X89343776Y-75565535D01*
X89302709Y-75982500D01*
X89343776Y-76399465D01*
X89465401Y-76800406D01*
X89510969Y-76885658D01*
X89537780Y-76974042D01*
X89665532Y-77213050D01*
X89837458Y-77422542D01*
X89895286Y-77470000D01*
X89837458Y-77517458D01*
X89665532Y-77726950D01*
X89537780Y-77965958D01*
X89459110Y-78225297D01*
X89432547Y-78495000D01*
X89432547Y-79420000D01*
X89459110Y-79689703D01*
X89537780Y-79949042D01*
X89665532Y-80188050D01*
X89837458Y-80397542D01*
X90046950Y-80569468D01*
X90285958Y-80697220D01*
X90545297Y-80775890D01*
X90815000Y-80802453D01*
X92065000Y-80802453D01*
X92334703Y-80775890D01*
X92553560Y-80709500D01*
X95406440Y-80709500D01*
X95625297Y-80775890D01*
X95690316Y-80782294D01*
X98502556Y-83594534D01*
X98561339Y-83666161D01*
X98847149Y-83900720D01*
X99173228Y-84075013D01*
X99419715Y-84149783D01*
X99527043Y-84182341D01*
X99559371Y-84185525D01*
X99802790Y-84209500D01*
X99802798Y-84209500D01*
X99895000Y-84218581D01*
X99987202Y-84209500D01*
X125948496Y-84209500D01*
X126040698Y-84218581D01*
X126132900Y-84209500D01*
X126132908Y-84209500D01*
X126408654Y-84182341D01*
X126762470Y-84075013D01*
X127088549Y-83900720D01*
X127374359Y-83666161D01*
X127433142Y-83594534D01*
X128280629Y-82747047D01*
X128456407Y-82532860D01*
X128630700Y-82206782D01*
X128667302Y-82086123D01*
X128758634Y-81915252D01*
X128853097Y-81603849D01*
X128884993Y-81280000D01*
X128864043Y-81067286D01*
X147328000Y-81067286D01*
X147328000Y-94192715D01*
X157232000Y-94192715D01*
X157232000Y-81067286D01*
X147328000Y-81067286D01*
X128864043Y-81067286D01*
X128853097Y-80956151D01*
X128758710Y-80645000D01*
X128853097Y-80333849D01*
X128884993Y-80010000D01*
X128853097Y-79686151D01*
X128826527Y-79598561D01*
X128860693Y-79485931D01*
X128882453Y-79265000D01*
X128882453Y-79255239D01*
X133257998Y-74879695D01*
X133324845Y-74824835D01*
X133379705Y-74757988D01*
X133379711Y-74757982D01*
X133543783Y-74558059D01*
X133561371Y-74525155D01*
X133706469Y-74253695D01*
X133806650Y-73923442D01*
X133832000Y-73666059D01*
X133832000Y-73666051D01*
X133840476Y-73579990D01*
X133832000Y-73493929D01*
X133832000Y-72233560D01*
X133898390Y-72014703D01*
X133924953Y-71745000D01*
X133924953Y-71504070D01*
X133929841Y-71487956D01*
X133957000Y-71212210D01*
X133957000Y-65947790D01*
X133929841Y-65672044D01*
X133924953Y-65655930D01*
X133924953Y-65415000D01*
X133898390Y-65145297D01*
X133819720Y-64885958D01*
X133691968Y-64646950D01*
X133520042Y-64437458D01*
X133310550Y-64265532D01*
X133071542Y-64137780D01*
X132812203Y-64059110D01*
X132542500Y-64032547D01*
X131617500Y-64032547D01*
X131347797Y-64059110D01*
X131088458Y-64137780D01*
X130849450Y-64265532D01*
X130639958Y-64437458D01*
X130468032Y-64646950D01*
X130364324Y-64840976D01*
X130348037Y-64810506D01*
X130268685Y-64713815D01*
X130171994Y-64634463D01*
X130061680Y-64575498D01*
X129941982Y-64539188D01*
X129817500Y-64526928D01*
X129390750Y-64530000D01*
X129232000Y-64688750D01*
X129232000Y-65913000D01*
X129252000Y-65913000D01*
X129252000Y-66167000D01*
X129232000Y-66167000D01*
X129232000Y-67391250D01*
X129390750Y-67550000D01*
X129817500Y-67553072D01*
X129941982Y-67540812D01*
X130061680Y-67504502D01*
X130171994Y-67445537D01*
X130203001Y-67420091D01*
X130203000Y-69739909D01*
X130171994Y-69714463D01*
X130061680Y-69655498D01*
X129941982Y-69619188D01*
X129817500Y-69606928D01*
X129390750Y-69610000D01*
X129232000Y-69768750D01*
X129232000Y-70993000D01*
X129252000Y-70993000D01*
X129252000Y-71247000D01*
X129232000Y-71247000D01*
X129232000Y-72471250D01*
X129390750Y-72630000D01*
X129817500Y-72633072D01*
X129941982Y-72620812D01*
X130061680Y-72584502D01*
X130171994Y-72525537D01*
X130268685Y-72446185D01*
X130328001Y-72373909D01*
X130328001Y-72854286D01*
X126083325Y-77098963D01*
X126029069Y-77104307D01*
X125816629Y-77168750D01*
X125620843Y-77273400D01*
X125449235Y-77414235D01*
X125308400Y-77585843D01*
X125203750Y-77781629D01*
X125139307Y-77994069D01*
X125117547Y-78215000D01*
X125117547Y-78338001D01*
X123995703Y-78338001D01*
X123647107Y-77989405D01*
X123488219Y-77692148D01*
X123312441Y-77477962D01*
X122527000Y-76692522D01*
X122527000Y-73167478D01*
X123699478Y-71995000D01*
X127754428Y-71995000D01*
X127766688Y-72119482D01*
X127802998Y-72239180D01*
X127861963Y-72349494D01*
X127941315Y-72446185D01*
X128038006Y-72525537D01*
X128148320Y-72584502D01*
X128268018Y-72620812D01*
X128392500Y-72633072D01*
X128819250Y-72630000D01*
X128978000Y-72471250D01*
X128978000Y-71247000D01*
X127916250Y-71247000D01*
X127757500Y-71405750D01*
X127754428Y-71995000D01*
X123699478Y-71995000D01*
X124452041Y-71242438D01*
X124523661Y-71183661D01*
X124758220Y-70897851D01*
X124932513Y-70571772D01*
X124998431Y-70354468D01*
X125031637Y-70245000D01*
X127754428Y-70245000D01*
X127757500Y-70834250D01*
X127916250Y-70993000D01*
X128978000Y-70993000D01*
X128978000Y-69768750D01*
X128819250Y-69610000D01*
X128392500Y-69606928D01*
X128268018Y-69619188D01*
X128148320Y-69655498D01*
X128038006Y-69714463D01*
X127941315Y-69793815D01*
X127861963Y-69890506D01*
X127802998Y-70000820D01*
X127766688Y-70120518D01*
X127754428Y-70245000D01*
X125031637Y-70245000D01*
X125039841Y-70217957D01*
X125043332Y-70182515D01*
X125067000Y-69942210D01*
X125067000Y-69942203D01*
X125076081Y-69850001D01*
X125067000Y-69757799D01*
X125067000Y-67172002D01*
X125100693Y-67060931D01*
X125115066Y-66915000D01*
X127754428Y-66915000D01*
X127766688Y-67039482D01*
X127802998Y-67159180D01*
X127861963Y-67269494D01*
X127941315Y-67366185D01*
X128038006Y-67445537D01*
X128148320Y-67504502D01*
X128268018Y-67540812D01*
X128392500Y-67553072D01*
X128819250Y-67550000D01*
X128978000Y-67391250D01*
X128978000Y-66167000D01*
X127916250Y-66167000D01*
X127757500Y-66325750D01*
X127754428Y-66915000D01*
X125115066Y-66915000D01*
X125122453Y-66840000D01*
X125122453Y-65240000D01*
X125115067Y-65165000D01*
X127754428Y-65165000D01*
X127757500Y-65754250D01*
X127916250Y-65913000D01*
X128978000Y-65913000D01*
X128978000Y-64688750D01*
X128819250Y-64530000D01*
X128392500Y-64526928D01*
X128268018Y-64539188D01*
X128148320Y-64575498D01*
X128038006Y-64634463D01*
X127941315Y-64713815D01*
X127861963Y-64810506D01*
X127802998Y-64920820D01*
X127766688Y-65040518D01*
X127754428Y-65165000D01*
X125115067Y-65165000D01*
X125100693Y-65019069D01*
X125036250Y-64806629D01*
X124931600Y-64610843D01*
X124790765Y-64439235D01*
X124619157Y-64298400D01*
X124423371Y-64193750D01*
X124210931Y-64129307D01*
X123990000Y-64107547D01*
X122390000Y-64107547D01*
X122169069Y-64129307D01*
X122057998Y-64163000D01*
X117367201Y-64163000D01*
X117274999Y-64153919D01*
X117182797Y-64163000D01*
X117182790Y-64163000D01*
X116942485Y-64186668D01*
X116907043Y-64190159D01*
X116752981Y-64236893D01*
X116553228Y-64297487D01*
X116227149Y-64471780D01*
X115941339Y-64706339D01*
X115882561Y-64777960D01*
X114067815Y-66592706D01*
X114002797Y-66599110D01*
X113743458Y-66677780D01*
X113504450Y-66805532D01*
X113294958Y-66977458D01*
X113247500Y-67035286D01*
X113200042Y-66977458D01*
X112990550Y-66805532D01*
X112751542Y-66677780D01*
X112492203Y-66599110D01*
X112222500Y-66572547D01*
X111297500Y-66572547D01*
X111027797Y-66599110D01*
X110972000Y-66616036D01*
X110972000Y-61440000D01*
X141121928Y-61440000D01*
X141134188Y-61564482D01*
X141170498Y-61684180D01*
X141229463Y-61794494D01*
X141308815Y-61891185D01*
X141405506Y-61970537D01*
X141515820Y-62029502D01*
X141635518Y-62065812D01*
X141760000Y-62078072D01*
X143224250Y-62075000D01*
X143383000Y-61916250D01*
X143383000Y-59817000D01*
X141283750Y-59817000D01*
X141125000Y-59975750D01*
X141121928Y-61440000D01*
X110972000Y-61440000D01*
X110972000Y-59110497D01*
X111069841Y-58787956D01*
X111097000Y-58512210D01*
X111097000Y-55193830D01*
X111414838Y-54806544D01*
X111658773Y-54350173D01*
X111808988Y-53854982D01*
X111859709Y-53340000D01*
X113680290Y-53340000D01*
X113731011Y-53854982D01*
X113881226Y-54350173D01*
X114125161Y-54806544D01*
X114453443Y-55206557D01*
X114853456Y-55534839D01*
X115309827Y-55778774D01*
X115805018Y-55928989D01*
X116190952Y-55967000D01*
X116292522Y-55967000D01*
X120007561Y-59682040D01*
X120066339Y-59753661D01*
X120137960Y-59812439D01*
X120137962Y-59812441D01*
X120146013Y-59819048D01*
X120352149Y-59988220D01*
X120678228Y-60162513D01*
X120924715Y-60237283D01*
X121032043Y-60269841D01*
X121064371Y-60273025D01*
X121307790Y-60297000D01*
X121307798Y-60297000D01*
X121400000Y-60306081D01*
X121492202Y-60297000D01*
X122739332Y-60297000D01*
X122812242Y-60319117D01*
X123095342Y-60347000D01*
X123284658Y-60347000D01*
X123567758Y-60319117D01*
X123930999Y-60208929D01*
X124265763Y-60029994D01*
X124559187Y-59789187D01*
X124799994Y-59495763D01*
X124978929Y-59160999D01*
X125089117Y-58797758D01*
X125126323Y-58420000D01*
X125089117Y-58042242D01*
X125058103Y-57940000D01*
X141121928Y-57940000D01*
X141125000Y-59404250D01*
X141283750Y-59563000D01*
X143383000Y-59563000D01*
X143383000Y-57463750D01*
X143637000Y-57463750D01*
X143637000Y-59563000D01*
X145736250Y-59563000D01*
X145895000Y-59404250D01*
X145898072Y-57940000D01*
X145885812Y-57815518D01*
X145849502Y-57695820D01*
X145790537Y-57585506D01*
X145711185Y-57488815D01*
X145614494Y-57409463D01*
X145504180Y-57350498D01*
X145384482Y-57314188D01*
X145260000Y-57301928D01*
X143795750Y-57305000D01*
X143637000Y-57463750D01*
X143383000Y-57463750D01*
X143224250Y-57305000D01*
X141760000Y-57301928D01*
X141635518Y-57314188D01*
X141515820Y-57350498D01*
X141405506Y-57409463D01*
X141308815Y-57488815D01*
X141229463Y-57585506D01*
X141170498Y-57695820D01*
X141134188Y-57815518D01*
X141121928Y-57940000D01*
X125058103Y-57940000D01*
X124978929Y-57679001D01*
X124799994Y-57344237D01*
X124559187Y-57050813D01*
X124265763Y-56810006D01*
X123930999Y-56631071D01*
X123567758Y-56520883D01*
X123284658Y-56493000D01*
X123095342Y-56493000D01*
X122812242Y-56520883D01*
X122739332Y-56543000D01*
X122177479Y-56543000D01*
X121601479Y-55967000D01*
X129330955Y-55967000D01*
X129460000Y-55979710D01*
X129589045Y-55967000D01*
X129589048Y-55967000D01*
X129974982Y-55928989D01*
X130113401Y-55887000D01*
X146151862Y-55887000D01*
X146883000Y-56618139D01*
X146883001Y-58634628D01*
X146877547Y-58690000D01*
X146877547Y-60690000D01*
X146913718Y-61057248D01*
X147020840Y-61410384D01*
X147072775Y-61507547D01*
X145891419Y-61507547D01*
X145898072Y-61440000D01*
X145895000Y-59975750D01*
X145736250Y-59817000D01*
X143637000Y-59817000D01*
X143637000Y-61916250D01*
X143795750Y-62075000D01*
X144239381Y-62075931D01*
X144215516Y-62095516D01*
X143965864Y-62399719D01*
X143780355Y-62746781D01*
X143666120Y-63123365D01*
X143627547Y-63515000D01*
X143627547Y-65265000D01*
X143666120Y-65656635D01*
X143780355Y-66033219D01*
X143965864Y-66380281D01*
X144215516Y-66684484D01*
X144519719Y-66934136D01*
X144866781Y-67119645D01*
X145243365Y-67233880D01*
X145635000Y-67272453D01*
X147385000Y-67272453D01*
X147776635Y-67233880D01*
X148153219Y-67119645D01*
X148500281Y-66934136D01*
X148804484Y-66684484D01*
X149054136Y-66380281D01*
X149239645Y-66033219D01*
X149353880Y-65656635D01*
X149392453Y-65265000D01*
X149392453Y-63515000D01*
X149353880Y-63123365D01*
X149239645Y-62746781D01*
X149146464Y-62572453D01*
X150260000Y-62572453D01*
X150627248Y-62536282D01*
X150980384Y-62429160D01*
X151305835Y-62255202D01*
X151591095Y-62021095D01*
X151825202Y-61735835D01*
X151999160Y-61410384D01*
X152106282Y-61057248D01*
X152142453Y-60690000D01*
X152142453Y-58690000D01*
X152137000Y-58634635D01*
X152137000Y-55659045D01*
X152149710Y-55530000D01*
X152137000Y-55400952D01*
X152098989Y-55015018D01*
X151948774Y-54519827D01*
X151704840Y-54063457D01*
X151704839Y-54063455D01*
X151458820Y-53763681D01*
X151376557Y-53663443D01*
X151276319Y-53581180D01*
X149188825Y-51493687D01*
X149106557Y-51393443D01*
X148706544Y-51065161D01*
X148250173Y-50821226D01*
X147754982Y-50671011D01*
X147369048Y-50633000D01*
X147369045Y-50633000D01*
X147240000Y-50620290D01*
X147110955Y-50633000D01*
X129669044Y-50633000D01*
X129539999Y-50620290D01*
X129410954Y-50633000D01*
X129410952Y-50633000D01*
X129025018Y-50671011D01*
X128886599Y-50713000D01*
X116190952Y-50713000D01*
X115805018Y-50751011D01*
X115309827Y-50901226D01*
X114853456Y-51145161D01*
X114453443Y-51473443D01*
X114125161Y-51873456D01*
X113881226Y-52329827D01*
X113731011Y-52825018D01*
X113680290Y-53340000D01*
X111859709Y-53340000D01*
X111859710Y-53339999D01*
X111808988Y-52825017D01*
X111658773Y-52329826D01*
X111414838Y-51873455D01*
X111168820Y-51573681D01*
X109055139Y-49460000D01*
X127701928Y-49460000D01*
X127714188Y-49584482D01*
X127750498Y-49704180D01*
X127809463Y-49814494D01*
X127888815Y-49911185D01*
X127985506Y-49990537D01*
X128095820Y-50049502D01*
X128215518Y-50085812D01*
X128340000Y-50098072D01*
X129254250Y-50095000D01*
X129413000Y-49936250D01*
X129413000Y-48387000D01*
X129667000Y-48387000D01*
X129667000Y-49936250D01*
X129825750Y-50095000D01*
X130740000Y-50098072D01*
X130864482Y-50085812D01*
X130984180Y-50049502D01*
X131094494Y-49990537D01*
X131191185Y-49911185D01*
X131270537Y-49814494D01*
X131329502Y-49704180D01*
X131365812Y-49584482D01*
X131378072Y-49460000D01*
X131375000Y-48545750D01*
X131216250Y-48387000D01*
X129667000Y-48387000D01*
X129413000Y-48387000D01*
X127863750Y-48387000D01*
X127705000Y-48545750D01*
X127701928Y-49460000D01*
X109055139Y-49460000D01*
X106655139Y-47060000D01*
X127701928Y-47060000D01*
X127705000Y-47974250D01*
X127863750Y-48133000D01*
X129413000Y-48133000D01*
X129413000Y-46583750D01*
X129667000Y-46583750D01*
X129667000Y-48133000D01*
X131216250Y-48133000D01*
X131375000Y-47974250D01*
X131378072Y-47060000D01*
X131365812Y-46935518D01*
X131329502Y-46815820D01*
X131270537Y-46705506D01*
X131191185Y-46608815D01*
X131094494Y-46529463D01*
X130984180Y-46470498D01*
X130864482Y-46434188D01*
X130740000Y-46421928D01*
X129825750Y-46425000D01*
X129667000Y-46583750D01*
X129413000Y-46583750D01*
X129254250Y-46425000D01*
X128340000Y-46421928D01*
X128215518Y-46434188D01*
X128095820Y-46470498D01*
X127985506Y-46529463D01*
X127888815Y-46608815D01*
X127809463Y-46705506D01*
X127750498Y-46815820D01*
X127714188Y-46935518D01*
X127701928Y-47060000D01*
X106655139Y-47060000D01*
X104818825Y-45223687D01*
X104736557Y-45123443D01*
X104336544Y-44795161D01*
X103880173Y-44551226D01*
X103384982Y-44401011D01*
X102999048Y-44363000D01*
X102999045Y-44363000D01*
X102870000Y-44350290D01*
X102740955Y-44363000D01*
X101064165Y-44363000D01*
X100864585Y-44302458D01*
X100463961Y-44263000D01*
X100196039Y-44263000D01*
X99795415Y-44302458D01*
X99281373Y-44458391D01*
X98807630Y-44711612D01*
X98392390Y-45052390D01*
X98051612Y-45467630D01*
X97798391Y-45941373D01*
X97642458Y-46455415D01*
X97589806Y-46990000D01*
X97642458Y-47524585D01*
X97798391Y-48038627D01*
X98051612Y-48512370D01*
X98392390Y-48927610D01*
X98807630Y-49268388D01*
X99281373Y-49521609D01*
X99795415Y-49677542D01*
X100196039Y-49717000D01*
X100463961Y-49717000D01*
X100864585Y-49677542D01*
X101064165Y-49617000D01*
X101781862Y-49617000D01*
X107343000Y-55178139D01*
X107343001Y-58512210D01*
X107370160Y-58787956D01*
X107468001Y-59110497D01*
X107468000Y-68714298D01*
X105639300Y-70542998D01*
X105508986Y-70542998D01*
X105633191Y-70346495D01*
X105626737Y-70300367D01*
X105531102Y-70068633D01*
X105392095Y-69860009D01*
X105215059Y-69682512D01*
X105006797Y-69542964D01*
X104775312Y-69446727D01*
X104529500Y-69397500D01*
X104267000Y-69397500D01*
X104267000Y-70543000D01*
X104287000Y-70543000D01*
X104287000Y-70605500D01*
X103790821Y-70605500D01*
X103531598Y-70631031D01*
X103198988Y-70731927D01*
X103077245Y-70797000D01*
X102771015Y-70797000D01*
X102646809Y-70993505D01*
X102653263Y-71039633D01*
X102669429Y-71078806D01*
X102623774Y-71116274D01*
X102403274Y-71384953D01*
X102239427Y-71691488D01*
X102204460Y-71806758D01*
X102047107Y-71649405D01*
X101888220Y-71352149D01*
X101653661Y-71066339D01*
X101367851Y-70831780D01*
X101070597Y-70672895D01*
X100744197Y-70346495D01*
X102646809Y-70346495D01*
X102771015Y-70543000D01*
X104013000Y-70543000D01*
X104013000Y-69397500D01*
X103750500Y-69397500D01*
X103504688Y-69446727D01*
X103273203Y-69542964D01*
X103064941Y-69682512D01*
X102887905Y-69860009D01*
X102748898Y-70068633D01*
X102653263Y-70300367D01*
X102646809Y-70346495D01*
X100744197Y-70346495D01*
X95732000Y-65334298D01*
X95732000Y-62994956D01*
X95740332Y-62984803D01*
X96077124Y-62354709D01*
X96284520Y-61671016D01*
X96354549Y-60960000D01*
X96284520Y-60248984D01*
X96077124Y-59565291D01*
X95839458Y-59120649D01*
X95832947Y-59087915D01*
X95687685Y-58737223D01*
X95476799Y-58421609D01*
X95327656Y-58272466D01*
X95369502Y-58194180D01*
X95405812Y-58074482D01*
X95418072Y-57950000D01*
X95415000Y-57435750D01*
X95256250Y-57277000D01*
X94107000Y-57277000D01*
X94107000Y-57297000D01*
X93853000Y-57297000D01*
X93853000Y-57277000D01*
X92703750Y-57277000D01*
X92647750Y-57333000D01*
X82728170Y-57333000D01*
X82550000Y-57315452D01*
X82371829Y-57333000D01*
X82371822Y-57333000D01*
X81901940Y-57379279D01*
X81838983Y-57385480D01*
X81673266Y-57435750D01*
X81155291Y-57592876D01*
X80525197Y-57929668D01*
X80376083Y-58052043D01*
X80111314Y-58269333D01*
X80111310Y-58269337D01*
X79972915Y-58382915D01*
X79859337Y-58521310D01*
X69951311Y-68429337D01*
X69812916Y-68542915D01*
X69699338Y-68681310D01*
X69699333Y-68681315D01*
X69359669Y-69095197D01*
X69022876Y-69725292D01*
X68815480Y-70408984D01*
X68745452Y-71120000D01*
X65922000Y-71120000D01*
X65922000Y-56683000D01*
X67328000Y-56683000D01*
X67328000Y-65237000D01*
X72132000Y-65237000D01*
X72132000Y-56683000D01*
X67328000Y-56683000D01*
X65922000Y-56683000D01*
X65922000Y-56350000D01*
X92541928Y-56350000D01*
X92545000Y-56864250D01*
X92703750Y-57023000D01*
X93853000Y-57023000D01*
X93853000Y-55873750D01*
X94107000Y-55873750D01*
X94107000Y-57023000D01*
X95256250Y-57023000D01*
X95415000Y-56864250D01*
X95418072Y-56350000D01*
X95405812Y-56225518D01*
X95369502Y-56105820D01*
X95310537Y-55995506D01*
X95231185Y-55898815D01*
X95134494Y-55819463D01*
X95024180Y-55760498D01*
X94904482Y-55724188D01*
X94780000Y-55711928D01*
X94265750Y-55715000D01*
X94107000Y-55873750D01*
X93853000Y-55873750D01*
X93694250Y-55715000D01*
X93180000Y-55711928D01*
X93055518Y-55724188D01*
X92935820Y-55760498D01*
X92825506Y-55819463D01*
X92728815Y-55898815D01*
X92649463Y-55995506D01*
X92590498Y-56105820D01*
X92554188Y-56225518D01*
X92541928Y-56350000D01*
X65922000Y-56350000D01*
X65922000Y-48590000D01*
X82851928Y-48590000D01*
X82864188Y-48714482D01*
X82900498Y-48834180D01*
X82959463Y-48944494D01*
X83038815Y-49041185D01*
X83135506Y-49120537D01*
X83245820Y-49179502D01*
X83365518Y-49215812D01*
X83490000Y-49228072D01*
X84804250Y-49225000D01*
X84963000Y-49066250D01*
X84963000Y-47117000D01*
X85217000Y-47117000D01*
X85217000Y-49066250D01*
X85375750Y-49225000D01*
X86690000Y-49228072D01*
X86814482Y-49215812D01*
X86934180Y-49179502D01*
X87044494Y-49120537D01*
X87141185Y-49041185D01*
X87220537Y-48944494D01*
X87279502Y-48834180D01*
X87315812Y-48714482D01*
X87328072Y-48590000D01*
X87325000Y-47275750D01*
X87166250Y-47117000D01*
X85217000Y-47117000D01*
X84963000Y-47117000D01*
X83013750Y-47117000D01*
X82855000Y-47275750D01*
X82851928Y-48590000D01*
X65922000Y-48590000D01*
X65922000Y-45390000D01*
X82851928Y-45390000D01*
X82855000Y-46704250D01*
X83013750Y-46863000D01*
X84963000Y-46863000D01*
X84963000Y-44913750D01*
X85217000Y-44913750D01*
X85217000Y-46863000D01*
X87166250Y-46863000D01*
X87325000Y-46704250D01*
X87328072Y-45390000D01*
X87315812Y-45265518D01*
X87279502Y-45145820D01*
X87220537Y-45035506D01*
X87141185Y-44938815D01*
X87044494Y-44859463D01*
X86934180Y-44800498D01*
X86814482Y-44764188D01*
X86690000Y-44751928D01*
X85375750Y-44755000D01*
X85217000Y-44913750D01*
X84963000Y-44913750D01*
X84804250Y-44755000D01*
X83490000Y-44751928D01*
X83365518Y-44764188D01*
X83245820Y-44800498D01*
X83135506Y-44859463D01*
X83038815Y-44938815D01*
X82959463Y-45035506D01*
X82900498Y-45145820D01*
X82864188Y-45265518D01*
X82851928Y-45390000D01*
X65922000Y-45390000D01*
X65922000Y-43983000D01*
X152418000Y-43983000D01*
X152418000Y-52537000D01*
X157222000Y-52537000D01*
X157222000Y-43983000D01*
X152418000Y-43983000D01*
X65922000Y-43983000D01*
X65922000Y-41792000D01*
X160138000Y-41792000D01*
X160138001Y-137278000D01*
M02*
