M48
; DRILL file {KiCad (5.1.2)-2} date 10-Jul-19 6:17:09 PM
; FORMAT={-:-/ absolute / inch / decimal}
; #@! TF.CreationDate,2019-07-10T18:17:09-03:00
; #@! TF.GenerationSoftware,Kicad,Pcbnew,(5.1.2)-2
FMAT,2
INCH
T1C0.0197
T2C0.0236
T3C0.0315
T4C0.0354
T5C0.0394
T6C0.0472
T7C0.0512
T8C0.0551
T9C0.0591
T10C0.0598
T11C0.0630
%
G90
G05
T1
X3.3996Y-1.3563
X4.4409Y-5.3632
X2.2815Y-5.4045
X5.025Y-4.32
X4.499Y-1.3553
X3.78Y-3.95
X2.2864Y-1.3307
X3.295Y-5.3996
T2
X2.95Y-4.0713
X2.95Y-4.15
X3.0Y-1.65
X3.0787Y-1.65
T3
X5.25Y-2.7
X5.25Y-3.0
X4.6Y-2.85
X4.6Y-2.95
X4.6Y-3.05
X4.1014Y-5.1181
X4.2392Y-5.1181
X3.5Y-4.15
X3.5Y-4.25
X3.5Y-4.35
X5.45Y-4.55
X5.75Y-4.55
X3.65Y-2.85
X3.65Y-2.95
X3.65Y-3.05
X4.3Y-2.85
X4.3Y-2.95
X4.3Y-3.05
X3.9Y-2.85
X3.9Y-2.95
X3.9Y-3.05
X3.9Y-3.55
X3.9Y-3.65
X3.9Y-3.75
X5.9Y-2.5
X5.9Y-2.6
X5.9Y-2.7
X4.4Y-3.53
X4.4Y-3.6678
X3.65Y-3.55
X3.65Y-3.65
X3.65Y-3.75
X5.25Y-2.55
X5.55Y-2.55
X5.9Y-4.0
X5.9Y-4.1
X5.9Y-4.2
X5.25Y-4.25
X5.25Y-4.55
X4.75Y-4.2
X4.75Y-4.3
X4.75Y-4.4
X3.56Y-4.62
X3.56Y-4.7578
X4.2Y-1.5
X4.3378Y-1.5
X2.9193Y-5.1427
X3.0571Y-5.1427
X5.25Y-1.3122
X5.25Y-1.45
X2.8Y-2.2
X2.8Y-2.5
X2.9Y-2.2
X2.9Y-2.5
X3.0Y-2.2
X3.0Y-2.5
X3.1Y-2.2
X3.1Y-2.5
T4
X4.4Y-3.98
X4.4984Y-3.8816
X4.5969Y-3.98
X4.15Y-4.2
X4.15Y-4.3
X5.25Y-3.85
X5.25Y-4.0469
X5.3484Y-3.9484
T5
X2.9Y-2.0
X3.175Y-2.6183
X3.3189Y-2.3238
X4.876Y-3.9035
X6.75Y-3.25
X6.75Y-3.35
X6.75Y-3.45
X2.815Y-4.72
X3.0119Y-4.72
X4.85Y-3.05
X4.95Y-3.05
X4.85Y-3.3
X4.95Y-3.3
X6.75Y-3.65
X6.75Y-3.75
X6.75Y-3.85
X6.0Y-4.85
X6.0Y-4.95
X6.0Y-5.05
X2.3996Y-4.7451
X2.4996Y-4.7451
X2.5996Y-4.7451
X2.6535Y-1.5835
X2.6535Y-1.6835
X2.6535Y-1.7835
X6.0Y-1.95
X6.0Y-2.05
X6.0Y-2.15
X3.8791Y-2.2346
X4.076Y-2.2346
X4.5Y-3.3
X4.6Y-3.3
X6.75Y-2.85
X6.75Y-2.95
X6.75Y-3.05
T6
X6.33Y-1.99
X6.33Y-3.19
X6.33Y-3.515
X6.33Y-4.715
T7
X1.95Y-4.55
X1.95Y-4.7469
X1.95Y-4.9437
X1.95Y-2.8
X1.95Y-2.9969
X1.95Y-3.1937
X1.95Y-3.7
X1.95Y-3.8969
X1.95Y-4.0937
T8
X4.55Y-2.15
X5.05Y-2.15
X4.55Y-4.8
X5.05Y-4.8
T9
X6.75Y-4.1854
X6.75Y-4.4
X6.75Y-4.6146
X1.8898Y-1.9776
X1.8898Y-2.2217
X2.1337Y-1.9776
X2.1337Y-2.2217
X6.75Y-1.2709
X6.75Y-1.4854
X6.75Y-1.7
X6.75Y-2.1
X6.75Y-2.3146
X6.75Y-2.5291
X6.75Y-5.05
X6.75Y-5.2646
X6.75Y-5.4791
T10
X5.95Y-3.25
X5.95Y-3.45
T11
X5.35Y-5.3
X5.95Y-5.3
X5.5Y-1.6
X6.1Y-1.6
T5
G00X3.7894Y-1.4638
M15
G01X3.7106Y-1.4638
M16
G05
G00X3.7894Y-1.7
M15
G01X3.7106Y-1.7
M16
G05
G00X3.935Y-1.5425
M15
G01X3.935Y-1.6213
M16
G05
G00X3.565Y-5.2575
M15
G01X3.565Y-5.1787
M16
G05
G00X3.7106Y-5.1
M15
G01X3.7894Y-5.1
M16
G05
G00X3.7106Y-5.3362
M15
G01X3.7894Y-5.3362
M16
G05
G00X4.8394Y-1.4638
M15
G01X4.7606Y-1.4638
M16
G05
G00X4.8394Y-1.7
M15
G01X4.7606Y-1.7
M16
G05
G00X4.985Y-1.5425
M15
G01X4.985Y-1.6213
M16
G05
G00X4.615Y-5.2575
M15
G01X4.615Y-5.1787
M16
G05
G00X4.7606Y-5.1
M15
G01X4.8394Y-5.1
M16
G05
G00X4.7606Y-5.3362
M15
G01X4.8394Y-5.3362
M16
G05
T0
M30
