G04 #@! TF.GenerationSoftware,KiCad,Pcbnew,(5.1.2)-2*
G04 #@! TF.CreationDate,2019-07-10T18:17:04-03:00*
G04 #@! TF.ProjectId,kicad_ampli,6b696361-645f-4616-9d70-6c692e6b6963,rev?*
G04 #@! TF.SameCoordinates,Original*
G04 #@! TF.FileFunction,Copper,L2,Bot*
G04 #@! TF.FilePolarity,Positive*
%FSLAX46Y46*%
G04 Gerber Fmt 4.6, Leading zero omitted, Abs format (unit mm)*
G04 Created by KiCad (PCBNEW (5.1.2)-2) date 2019-07-10 18:17:04*
%MOMM*%
%LPD*%
G04 APERTURE LIST*
%ADD10C,0.300000*%
%ADD11C,0.500000*%
%ADD12R,1.500000X1.500000*%
%ADD13C,1.500000*%
%ADD14O,1.700000X1.700000*%
%ADD15R,1.700000X1.700000*%
%ADD16R,0.850000X0.850000*%
%ADD17C,1.200000*%
%ADD18R,1.200000X1.200000*%
%ADD19C,2.000000*%
%ADD20R,2.000000X2.000000*%
%ADD21O,2.400000X2.400000*%
%ADD22C,2.400000*%
%ADD23C,0.100000*%
%ADD24C,3.500000*%
%ADD25C,3.000000*%
%ADD26R,3.500000X3.500000*%
%ADD27C,2.340000*%
%ADD28C,1.600000*%
%ADD29R,1.600000X1.600000*%
%ADD30C,1.620000*%
%ADD31O,1.600000X1.600000*%
%ADD32R,3.000000X3.000000*%
%ADD33O,3.200000X3.200000*%
%ADD34R,3.200000X3.200000*%
%ADD35O,1.800000X1.800000*%
%ADD36R,1.800000X1.800000*%
%ADD37C,1.425000*%
%ADD38C,1.800000*%
%ADD39C,1.250000*%
%ADD40O,4.500000X2.500000*%
%ADD41R,4.500000X2.500000*%
%ADD42O,2.800000X2.800000*%
%ADD43R,2.800000X2.800000*%
%ADD44C,1.700000*%
%ADD45C,1.500000*%
%ADD46C,2.000000*%
%ADD47C,1.750000*%
%ADD48C,3.000000*%
%ADD49C,6.000000*%
%ADD50C,4.000000*%
%ADD51C,2.300000*%
%ADD52C,2.700000*%
%ADD53C,2.500000*%
G04 APERTURE END LIST*
D10*
X46395238Y-126595238D02*
X44395238Y-125928571D01*
X46395238Y-125261904D01*
X44395238Y-124309523D02*
X44490476Y-124500000D01*
X44585714Y-124595238D01*
X44776190Y-124690476D01*
X45347619Y-124690476D01*
X45538095Y-124595238D01*
X45633333Y-124500000D01*
X45728571Y-124309523D01*
X45728571Y-124023809D01*
X45633333Y-123833333D01*
X45538095Y-123738095D01*
X45347619Y-123642857D01*
X44776190Y-123642857D01*
X44585714Y-123738095D01*
X44490476Y-123833333D01*
X44395238Y-124023809D01*
X44395238Y-124309523D01*
X44395238Y-122500000D02*
X44490476Y-122690476D01*
X44680952Y-122785714D01*
X46395238Y-122785714D01*
X45728571Y-120880952D02*
X44395238Y-120880952D01*
X45728571Y-121738095D02*
X44680952Y-121738095D01*
X44490476Y-121642857D01*
X44395238Y-121452380D01*
X44395238Y-121166666D01*
X44490476Y-120976190D01*
X44585714Y-120880952D01*
X44395238Y-119928571D02*
X45728571Y-119928571D01*
X45538095Y-119928571D02*
X45633333Y-119833333D01*
X45728571Y-119642857D01*
X45728571Y-119357142D01*
X45633333Y-119166666D01*
X45442857Y-119071428D01*
X44395238Y-119071428D01*
X45442857Y-119071428D02*
X45633333Y-118976190D01*
X45728571Y-118785714D01*
X45728571Y-118500000D01*
X45633333Y-118309523D01*
X45442857Y-118214285D01*
X44395238Y-118214285D01*
X44490476Y-116500000D02*
X44395238Y-116690476D01*
X44395238Y-117071428D01*
X44490476Y-117261904D01*
X44680952Y-117357142D01*
X45442857Y-117357142D01*
X45633333Y-117261904D01*
X45728571Y-117071428D01*
X45728571Y-116690476D01*
X45633333Y-116500000D01*
X45442857Y-116404761D01*
X45252380Y-116404761D01*
X45061904Y-117357142D01*
X45728571Y-115547619D02*
X44395238Y-115547619D01*
X45538095Y-115547619D02*
X45633333Y-115452380D01*
X45728571Y-115261904D01*
X45728571Y-114976190D01*
X45633333Y-114785714D01*
X45442857Y-114690476D01*
X44395238Y-114690476D01*
X45242857Y-78952380D02*
X45147619Y-78666666D01*
X45052380Y-78571428D01*
X44861904Y-78476190D01*
X44576190Y-78476190D01*
X44385714Y-78571428D01*
X44290476Y-78666666D01*
X44195238Y-78857142D01*
X44195238Y-79619047D01*
X46195238Y-79619047D01*
X46195238Y-78952380D01*
X46100000Y-78761904D01*
X46004761Y-78666666D01*
X45814285Y-78571428D01*
X45623809Y-78571428D01*
X45433333Y-78666666D01*
X45338095Y-78761904D01*
X45242857Y-78952380D01*
X45242857Y-79619047D01*
X44195238Y-76761904D02*
X45242857Y-76761904D01*
X45433333Y-76857142D01*
X45528571Y-77047619D01*
X45528571Y-77428571D01*
X45433333Y-77619047D01*
X44290476Y-76761904D02*
X44195238Y-76952380D01*
X44195238Y-77428571D01*
X44290476Y-77619047D01*
X44480952Y-77714285D01*
X44671428Y-77714285D01*
X44861904Y-77619047D01*
X44957142Y-77428571D01*
X44957142Y-76952380D01*
X45052380Y-76761904D01*
X45528571Y-75809523D02*
X43814285Y-75809523D01*
X43623809Y-75904761D01*
X43528571Y-76095238D01*
X43528571Y-76190476D01*
X46195238Y-75809523D02*
X46100000Y-75904761D01*
X46004761Y-75809523D01*
X46100000Y-75714285D01*
X46195238Y-75809523D01*
X46004761Y-75809523D01*
X44195238Y-74571428D02*
X44290476Y-74761904D01*
X44385714Y-74857142D01*
X44576190Y-74952380D01*
X45147619Y-74952380D01*
X45338095Y-74857142D01*
X45433333Y-74761904D01*
X45528571Y-74571428D01*
X45528571Y-74285714D01*
X45433333Y-74095238D01*
X45338095Y-74000000D01*
X45147619Y-73904761D01*
X44576190Y-73904761D01*
X44385714Y-74000000D01*
X44290476Y-74095238D01*
X44195238Y-74285714D01*
X44195238Y-74571428D01*
X44290476Y-73142857D02*
X44195238Y-72952380D01*
X44195238Y-72571428D01*
X44290476Y-72380952D01*
X44480952Y-72285714D01*
X44576190Y-72285714D01*
X44766666Y-72380952D01*
X44861904Y-72571428D01*
X44861904Y-72857142D01*
X44957142Y-73047619D01*
X45147619Y-73142857D01*
X45242857Y-73142857D01*
X45433333Y-73047619D01*
X45528571Y-72857142D01*
X45528571Y-72571428D01*
X45433333Y-72380952D01*
X44766666Y-102185714D02*
X44766666Y-101233333D01*
X44195238Y-102376190D02*
X46195238Y-101709523D01*
X44195238Y-101042857D01*
X44195238Y-100090476D02*
X44290476Y-100280952D01*
X44480952Y-100376190D01*
X46195238Y-100376190D01*
X45528571Y-99614285D02*
X45528571Y-98852380D01*
X46195238Y-99328571D02*
X44480952Y-99328571D01*
X44290476Y-99233333D01*
X44195238Y-99042857D01*
X44195238Y-98852380D01*
X44195238Y-97900000D02*
X44290476Y-98090476D01*
X44385714Y-98185714D01*
X44576190Y-98280952D01*
X45147619Y-98280952D01*
X45338095Y-98185714D01*
X45433333Y-98090476D01*
X45528571Y-97900000D01*
X45528571Y-97614285D01*
X45433333Y-97423809D01*
X45338095Y-97328571D01*
X45147619Y-97233333D01*
X44576190Y-97233333D01*
X44385714Y-97328571D01*
X44290476Y-97423809D01*
X44195238Y-97614285D01*
X44195238Y-97900000D01*
X44290476Y-96471428D02*
X44195238Y-96280952D01*
X44195238Y-95900000D01*
X44290476Y-95709523D01*
X44480952Y-95614285D01*
X44576190Y-95614285D01*
X44766666Y-95709523D01*
X44861904Y-95900000D01*
X44861904Y-96185714D01*
X44957142Y-96376190D01*
X45147619Y-96471428D01*
X45242857Y-96471428D01*
X45433333Y-96376190D01*
X45528571Y-96185714D01*
X45528571Y-95900000D01*
X45433333Y-95709523D01*
X107568666Y-139842857D02*
X106044857Y-139842857D01*
X104044857Y-140604761D02*
X105187714Y-140604761D01*
X104616285Y-140604761D02*
X104616285Y-138604761D01*
X104806761Y-138890476D01*
X104997238Y-139080952D01*
X105187714Y-139176190D01*
X102235333Y-138604761D02*
X103187714Y-138604761D01*
X103282952Y-139557142D01*
X103187714Y-139461904D01*
X102997238Y-139366666D01*
X102521047Y-139366666D01*
X102330571Y-139461904D01*
X102235333Y-139557142D01*
X102140095Y-139747619D01*
X102140095Y-140223809D01*
X102235333Y-140414285D01*
X102330571Y-140509523D01*
X102521047Y-140604761D01*
X102997238Y-140604761D01*
X103187714Y-140509523D01*
X103282952Y-140414285D01*
X134492666Y-139842857D02*
X132968857Y-139842857D01*
X132206952Y-138604761D02*
X130968857Y-138604761D01*
X131635523Y-139366666D01*
X131349809Y-139366666D01*
X131159333Y-139461904D01*
X131064095Y-139557142D01*
X130968857Y-139747619D01*
X130968857Y-140223809D01*
X131064095Y-140414285D01*
X131159333Y-140509523D01*
X131349809Y-140604761D01*
X131921238Y-140604761D01*
X132111714Y-140509523D01*
X132206952Y-140414285D01*
X129730761Y-138604761D02*
X129540285Y-138604761D01*
X129349809Y-138700000D01*
X129254571Y-138795238D01*
X129159333Y-138985714D01*
X129064095Y-139366666D01*
X129064095Y-139842857D01*
X129159333Y-140223809D01*
X129254571Y-140414285D01*
X129349809Y-140509523D01*
X129540285Y-140604761D01*
X129730761Y-140604761D01*
X129921238Y-140509523D01*
X130016476Y-140414285D01*
X130111714Y-140223809D01*
X130206952Y-139842857D01*
X130206952Y-139366666D01*
X130111714Y-138985714D01*
X130016476Y-138795238D01*
X129921238Y-138700000D01*
X129730761Y-138604761D01*
X127006666Y-31614285D02*
X128454285Y-31614285D01*
X127730476Y-30890476D02*
X127730476Y-32338095D01*
X129178095Y-32790476D02*
X130354285Y-32790476D01*
X129720952Y-32066666D01*
X129992380Y-32066666D01*
X130173333Y-31976190D01*
X130263809Y-31885714D01*
X130354285Y-31704761D01*
X130354285Y-31252380D01*
X130263809Y-31071428D01*
X130173333Y-30980952D01*
X129992380Y-30890476D01*
X129449523Y-30890476D01*
X129268571Y-30980952D01*
X129178095Y-31071428D01*
X131530476Y-32790476D02*
X131711428Y-32790476D01*
X131892380Y-32700000D01*
X131982857Y-32609523D01*
X132073333Y-32428571D01*
X132163809Y-32066666D01*
X132163809Y-31614285D01*
X132073333Y-31252380D01*
X131982857Y-31071428D01*
X131892380Y-30980952D01*
X131711428Y-30890476D01*
X131530476Y-30890476D01*
X131349523Y-30980952D01*
X131259047Y-31071428D01*
X131168571Y-31252380D01*
X131078095Y-31614285D01*
X131078095Y-32066666D01*
X131168571Y-32428571D01*
X131259047Y-32609523D01*
X131349523Y-32700000D01*
X131530476Y-32790476D01*
X101981333Y-31861142D02*
X103505142Y-31861142D01*
X102743238Y-31099238D02*
X102743238Y-32623047D01*
X105505142Y-31099238D02*
X104362285Y-31099238D01*
X104933714Y-31099238D02*
X104933714Y-33099238D01*
X104743238Y-32813523D01*
X104552761Y-32623047D01*
X104362285Y-32527809D01*
X107314666Y-33099238D02*
X106362285Y-33099238D01*
X106267047Y-32146857D01*
X106362285Y-32242095D01*
X106552761Y-32337333D01*
X107028952Y-32337333D01*
X107219428Y-32242095D01*
X107314666Y-32146857D01*
X107409904Y-31956380D01*
X107409904Y-31480190D01*
X107314666Y-31289714D01*
X107219428Y-31194476D01*
X107028952Y-31099238D01*
X106552761Y-31099238D01*
X106362285Y-31194476D01*
X106267047Y-31289714D01*
D11*
X67762047Y-100740904D02*
X70262047Y-100740904D01*
X67762047Y-99312333D01*
X70262047Y-99312333D01*
X67881095Y-97169476D02*
X67762047Y-97407571D01*
X67762047Y-97883761D01*
X67881095Y-98121857D01*
X68119190Y-98240904D01*
X69071571Y-98240904D01*
X69309666Y-98121857D01*
X69428714Y-97883761D01*
X69428714Y-97407571D01*
X69309666Y-97169476D01*
X69071571Y-97050428D01*
X68833476Y-97050428D01*
X68595380Y-98240904D01*
X69428714Y-94907571D02*
X67762047Y-94907571D01*
X69428714Y-95979000D02*
X68119190Y-95979000D01*
X67881095Y-95859952D01*
X67762047Y-95621857D01*
X67762047Y-95264714D01*
X67881095Y-95026619D01*
X68000142Y-94907571D01*
X67762047Y-93717095D02*
X69428714Y-93717095D01*
X69190619Y-93717095D02*
X69309666Y-93598047D01*
X69428714Y-93359952D01*
X69428714Y-93002809D01*
X69309666Y-92764714D01*
X69071571Y-92645666D01*
X67762047Y-92645666D01*
X69071571Y-92645666D02*
X69309666Y-92526619D01*
X69428714Y-92288523D01*
X69428714Y-91931380D01*
X69309666Y-91693285D01*
X69071571Y-91574238D01*
X67762047Y-91574238D01*
X67762047Y-89312333D02*
X69071571Y-89312333D01*
X69309666Y-89431380D01*
X69428714Y-89669476D01*
X69428714Y-90145666D01*
X69309666Y-90383761D01*
X67881095Y-89312333D02*
X67762047Y-89550428D01*
X67762047Y-90145666D01*
X67881095Y-90383761D01*
X68119190Y-90502809D01*
X68357285Y-90502809D01*
X68595380Y-90383761D01*
X68714428Y-90145666D01*
X68714428Y-89550428D01*
X68833476Y-89312333D01*
X67762047Y-88121857D02*
X69428714Y-88121857D01*
X68952523Y-88121857D02*
X69190619Y-88002809D01*
X69309666Y-87883761D01*
X69428714Y-87645666D01*
X69428714Y-87407571D01*
X67762047Y-86574238D02*
X70262047Y-86574238D01*
X68714428Y-86336142D02*
X67762047Y-85621857D01*
X69428714Y-85621857D02*
X68476333Y-86574238D01*
X69428714Y-84907571D02*
X69428714Y-83955190D01*
X70262047Y-84550428D02*
X68119190Y-84550428D01*
X67881095Y-84431380D01*
X67762047Y-84193285D01*
X67762047Y-83955190D01*
X68714428Y-83121857D02*
X68714428Y-81217095D01*
X67762047Y-78598047D02*
X68952523Y-79431380D01*
X67762047Y-80026619D02*
X70262047Y-80026619D01*
X70262047Y-79074238D01*
X70143000Y-78836142D01*
X70023952Y-78717095D01*
X69785857Y-78598047D01*
X69428714Y-78598047D01*
X69190619Y-78717095D01*
X69071571Y-78836142D01*
X68952523Y-79074238D01*
X68952523Y-80026619D01*
X67762047Y-77526619D02*
X69428714Y-77526619D01*
X70262047Y-77526619D02*
X70143000Y-77645666D01*
X70023952Y-77526619D01*
X70143000Y-77407571D01*
X70262047Y-77526619D01*
X70023952Y-77526619D01*
X69428714Y-76574238D02*
X69428714Y-75264714D01*
X67762047Y-76574238D01*
X67762047Y-75264714D01*
X69428714Y-74550428D02*
X69428714Y-73240904D01*
X67762047Y-74550428D01*
X67762047Y-73240904D01*
X67762047Y-71931380D02*
X67881095Y-72169476D01*
X68000142Y-72288523D01*
X68238238Y-72407571D01*
X68952523Y-72407571D01*
X69190619Y-72288523D01*
X69309666Y-72169476D01*
X69428714Y-71931380D01*
X69428714Y-71574238D01*
X69309666Y-71336142D01*
X69190619Y-71217095D01*
X68952523Y-71098047D01*
X68238238Y-71098047D01*
X68000142Y-71217095D01*
X67881095Y-71336142D01*
X67762047Y-71574238D01*
X67762047Y-71931380D01*
X63512047Y-94729000D02*
X66012047Y-94729000D01*
X66012047Y-94133761D01*
X65893000Y-93776619D01*
X65654904Y-93538523D01*
X65416809Y-93419476D01*
X64940619Y-93300428D01*
X64583476Y-93300428D01*
X64107285Y-93419476D01*
X63869190Y-93538523D01*
X63631095Y-93776619D01*
X63512047Y-94133761D01*
X63512047Y-94729000D01*
X63750142Y-90800428D02*
X63631095Y-90919476D01*
X63512047Y-91276619D01*
X63512047Y-91514714D01*
X63631095Y-91871857D01*
X63869190Y-92109952D01*
X64107285Y-92229000D01*
X64583476Y-92348047D01*
X64940619Y-92348047D01*
X65416809Y-92229000D01*
X65654904Y-92109952D01*
X65893000Y-91871857D01*
X66012047Y-91514714D01*
X66012047Y-91276619D01*
X65893000Y-90919476D01*
X65773952Y-90800428D01*
X64821571Y-89729000D02*
X64821571Y-88895666D01*
X63512047Y-88538523D02*
X63512047Y-89729000D01*
X66012047Y-89729000D01*
X66012047Y-88538523D01*
X65773952Y-85681380D02*
X65893000Y-85562333D01*
X66012047Y-85324238D01*
X66012047Y-84729000D01*
X65893000Y-84490904D01*
X65773952Y-84371857D01*
X65535857Y-84252809D01*
X65297761Y-84252809D01*
X64940619Y-84371857D01*
X63512047Y-85800428D01*
X63512047Y-84252809D01*
X66012047Y-82705190D02*
X66012047Y-82467095D01*
X65893000Y-82229000D01*
X65773952Y-82109952D01*
X65535857Y-81990904D01*
X65059666Y-81871857D01*
X64464428Y-81871857D01*
X63988238Y-81990904D01*
X63750142Y-82109952D01*
X63631095Y-82229000D01*
X63512047Y-82467095D01*
X63512047Y-82705190D01*
X63631095Y-82943285D01*
X63750142Y-83062333D01*
X63988238Y-83181380D01*
X64464428Y-83300428D01*
X65059666Y-83300428D01*
X65535857Y-83181380D01*
X65773952Y-83062333D01*
X65893000Y-82943285D01*
X66012047Y-82705190D01*
X63512047Y-79490904D02*
X63512047Y-80919476D01*
X63512047Y-80205190D02*
X66012047Y-80205190D01*
X65654904Y-80443285D01*
X65416809Y-80681380D01*
X65297761Y-80919476D01*
X63512047Y-78300428D02*
X63512047Y-77824238D01*
X63631095Y-77586142D01*
X63750142Y-77467095D01*
X64107285Y-77229000D01*
X64583476Y-77109952D01*
X65535857Y-77109952D01*
X65773952Y-77229000D01*
X65893000Y-77348047D01*
X66012047Y-77586142D01*
X66012047Y-78062333D01*
X65893000Y-78300428D01*
X65773952Y-78419476D01*
X65535857Y-78538523D01*
X64940619Y-78538523D01*
X64702523Y-78419476D01*
X64583476Y-78300428D01*
X64464428Y-78062333D01*
X64464428Y-77586142D01*
X64583476Y-77348047D01*
X64702523Y-77229000D01*
X64940619Y-77109952D01*
X60571571Y-89848047D02*
X60571571Y-90681380D01*
X59262047Y-90681380D02*
X61762047Y-90681380D01*
X61762047Y-89490904D01*
X59262047Y-88538523D02*
X61762047Y-88538523D01*
X61762047Y-87348047D02*
X59738238Y-87348047D01*
X59500142Y-87229000D01*
X59381095Y-87109952D01*
X59262047Y-86871857D01*
X59262047Y-86395666D01*
X59381095Y-86157571D01*
X59500142Y-86038523D01*
X59738238Y-85919476D01*
X61762047Y-85919476D01*
X60571571Y-83895666D02*
X60452523Y-83538523D01*
X60333476Y-83419476D01*
X60095380Y-83300428D01*
X59738238Y-83300428D01*
X59500142Y-83419476D01*
X59381095Y-83538523D01*
X59262047Y-83776619D01*
X59262047Y-84729000D01*
X61762047Y-84729000D01*
X61762047Y-83895666D01*
X61643000Y-83657571D01*
X61523952Y-83538523D01*
X61285857Y-83419476D01*
X61047761Y-83419476D01*
X60809666Y-83538523D01*
X60690619Y-83657571D01*
X60571571Y-83895666D01*
X60571571Y-84729000D01*
X59976333Y-82348047D02*
X59976333Y-81157571D01*
X59262047Y-82586142D02*
X61762047Y-81752809D01*
X59262047Y-80919476D01*
D12*
X149860000Y-68580000D03*
D13*
X149860000Y-63500000D03*
X149860000Y-66040000D03*
D12*
X149860000Y-101600000D03*
D13*
X149860000Y-106680000D03*
X149860000Y-104140000D03*
D14*
X66030000Y-120525000D03*
X63490000Y-120525000D03*
D15*
X60950000Y-120525000D03*
D14*
X125730000Y-77470000D03*
D15*
X123190000Y-77470000D03*
D14*
X116840000Y-83820000D03*
D15*
X114300000Y-83820000D03*
D14*
X125730000Y-83820000D03*
D15*
X123190000Y-83820000D03*
D14*
X67400000Y-40220000D03*
X67400000Y-42760000D03*
D15*
X67400000Y-45300000D03*
D16*
X127635000Y-109728000D03*
X96012000Y-100330000D03*
D17*
X78200000Y-41910000D03*
D18*
X76200000Y-41910000D03*
D17*
X74930000Y-103410000D03*
D18*
X74930000Y-105410000D03*
D19*
X98530000Y-56760000D03*
D20*
X103530000Y-56760000D03*
D19*
X76501000Y-119888000D03*
D20*
X71501000Y-119888000D03*
D21*
X160782000Y-119761000D03*
D22*
X160782000Y-89281000D03*
D21*
X160782000Y-81026000D03*
D22*
X160782000Y-50546000D03*
D16*
X57950000Y-137275000D03*
X58075000Y-33800000D03*
X112800000Y-136225000D03*
X114275000Y-34425000D03*
X83693000Y-137150000D03*
X86350000Y-34450000D03*
D23*
G36*
X100910765Y-38434213D02*
G01*
X100995704Y-38446813D01*
X101078999Y-38467677D01*
X101159848Y-38496605D01*
X101237472Y-38533319D01*
X101311124Y-38577464D01*
X101380094Y-38628616D01*
X101443718Y-38686282D01*
X101501384Y-38749906D01*
X101552536Y-38818876D01*
X101596681Y-38892528D01*
X101633395Y-38970152D01*
X101662323Y-39051001D01*
X101683187Y-39134296D01*
X101695787Y-39219235D01*
X101700000Y-39305000D01*
X101700000Y-41055000D01*
X101695787Y-41140765D01*
X101683187Y-41225704D01*
X101662323Y-41308999D01*
X101633395Y-41389848D01*
X101596681Y-41467472D01*
X101552536Y-41541124D01*
X101501384Y-41610094D01*
X101443718Y-41673718D01*
X101380094Y-41731384D01*
X101311124Y-41782536D01*
X101237472Y-41826681D01*
X101159848Y-41863395D01*
X101078999Y-41892323D01*
X100995704Y-41913187D01*
X100910765Y-41925787D01*
X100825000Y-41930000D01*
X99075000Y-41930000D01*
X98989235Y-41925787D01*
X98904296Y-41913187D01*
X98821001Y-41892323D01*
X98740152Y-41863395D01*
X98662528Y-41826681D01*
X98588876Y-41782536D01*
X98519906Y-41731384D01*
X98456282Y-41673718D01*
X98398616Y-41610094D01*
X98347464Y-41541124D01*
X98303319Y-41467472D01*
X98266605Y-41389848D01*
X98237677Y-41308999D01*
X98216813Y-41225704D01*
X98204213Y-41140765D01*
X98200000Y-41055000D01*
X98200000Y-39305000D01*
X98204213Y-39219235D01*
X98216813Y-39134296D01*
X98237677Y-39051001D01*
X98266605Y-38970152D01*
X98303319Y-38892528D01*
X98347464Y-38818876D01*
X98398616Y-38749906D01*
X98456282Y-38686282D01*
X98519906Y-38628616D01*
X98588876Y-38577464D01*
X98662528Y-38533319D01*
X98740152Y-38496605D01*
X98821001Y-38467677D01*
X98904296Y-38446813D01*
X98989235Y-38434213D01*
X99075000Y-38430000D01*
X100825000Y-38430000D01*
X100910765Y-38434213D01*
X100910765Y-38434213D01*
G37*
D24*
X99950000Y-40180000D03*
D23*
G36*
X96323513Y-35683611D02*
G01*
X96396318Y-35694411D01*
X96467714Y-35712295D01*
X96537013Y-35737090D01*
X96603548Y-35768559D01*
X96666678Y-35806398D01*
X96725795Y-35850242D01*
X96780330Y-35899670D01*
X96829758Y-35954205D01*
X96873602Y-36013322D01*
X96911441Y-36076452D01*
X96942910Y-36142987D01*
X96967705Y-36212286D01*
X96985589Y-36283682D01*
X96996389Y-36356487D01*
X97000000Y-36430000D01*
X97000000Y-37930000D01*
X96996389Y-38003513D01*
X96985589Y-38076318D01*
X96967705Y-38147714D01*
X96942910Y-38217013D01*
X96911441Y-38283548D01*
X96873602Y-38346678D01*
X96829758Y-38405795D01*
X96780330Y-38460330D01*
X96725795Y-38509758D01*
X96666678Y-38553602D01*
X96603548Y-38591441D01*
X96537013Y-38622910D01*
X96467714Y-38647705D01*
X96396318Y-38665589D01*
X96323513Y-38676389D01*
X96250000Y-38680000D01*
X94250000Y-38680000D01*
X94176487Y-38676389D01*
X94103682Y-38665589D01*
X94032286Y-38647705D01*
X93962987Y-38622910D01*
X93896452Y-38591441D01*
X93833322Y-38553602D01*
X93774205Y-38509758D01*
X93719670Y-38460330D01*
X93670242Y-38405795D01*
X93626398Y-38346678D01*
X93588559Y-38283548D01*
X93557090Y-38217013D01*
X93532295Y-38147714D01*
X93514411Y-38076318D01*
X93503611Y-38003513D01*
X93500000Y-37930000D01*
X93500000Y-36430000D01*
X93503611Y-36356487D01*
X93514411Y-36283682D01*
X93532295Y-36212286D01*
X93557090Y-36142987D01*
X93588559Y-36076452D01*
X93626398Y-36013322D01*
X93670242Y-35954205D01*
X93719670Y-35899670D01*
X93774205Y-35850242D01*
X93833322Y-35806398D01*
X93896452Y-35768559D01*
X93962987Y-35737090D01*
X94032286Y-35712295D01*
X94103682Y-35694411D01*
X94176487Y-35683611D01*
X94250000Y-35680000D01*
X96250000Y-35680000D01*
X96323513Y-35683611D01*
X96323513Y-35683611D01*
G37*
D25*
X95250000Y-37180000D03*
D26*
X95250000Y-43180000D03*
D23*
G36*
X91510765Y-130794213D02*
G01*
X91595704Y-130806813D01*
X91678999Y-130827677D01*
X91759848Y-130856605D01*
X91837472Y-130893319D01*
X91911124Y-130937464D01*
X91980094Y-130988616D01*
X92043718Y-131046282D01*
X92101384Y-131109906D01*
X92152536Y-131178876D01*
X92196681Y-131252528D01*
X92233395Y-131330152D01*
X92262323Y-131411001D01*
X92283187Y-131494296D01*
X92295787Y-131579235D01*
X92300000Y-131665000D01*
X92300000Y-133415000D01*
X92295787Y-133500765D01*
X92283187Y-133585704D01*
X92262323Y-133668999D01*
X92233395Y-133749848D01*
X92196681Y-133827472D01*
X92152536Y-133901124D01*
X92101384Y-133970094D01*
X92043718Y-134033718D01*
X91980094Y-134091384D01*
X91911124Y-134142536D01*
X91837472Y-134186681D01*
X91759848Y-134223395D01*
X91678999Y-134252323D01*
X91595704Y-134273187D01*
X91510765Y-134285787D01*
X91425000Y-134290000D01*
X89675000Y-134290000D01*
X89589235Y-134285787D01*
X89504296Y-134273187D01*
X89421001Y-134252323D01*
X89340152Y-134223395D01*
X89262528Y-134186681D01*
X89188876Y-134142536D01*
X89119906Y-134091384D01*
X89056282Y-134033718D01*
X88998616Y-133970094D01*
X88947464Y-133901124D01*
X88903319Y-133827472D01*
X88866605Y-133749848D01*
X88837677Y-133668999D01*
X88816813Y-133585704D01*
X88804213Y-133500765D01*
X88800000Y-133415000D01*
X88800000Y-131665000D01*
X88804213Y-131579235D01*
X88816813Y-131494296D01*
X88837677Y-131411001D01*
X88866605Y-131330152D01*
X88903319Y-131252528D01*
X88947464Y-131178876D01*
X88998616Y-131109906D01*
X89056282Y-131046282D01*
X89119906Y-130988616D01*
X89188876Y-130937464D01*
X89262528Y-130893319D01*
X89340152Y-130856605D01*
X89421001Y-130827677D01*
X89504296Y-130806813D01*
X89589235Y-130794213D01*
X89675000Y-130790000D01*
X91425000Y-130790000D01*
X91510765Y-130794213D01*
X91510765Y-130794213D01*
G37*
D24*
X90550000Y-132540000D03*
D23*
G36*
X96323513Y-134043611D02*
G01*
X96396318Y-134054411D01*
X96467714Y-134072295D01*
X96537013Y-134097090D01*
X96603548Y-134128559D01*
X96666678Y-134166398D01*
X96725795Y-134210242D01*
X96780330Y-134259670D01*
X96829758Y-134314205D01*
X96873602Y-134373322D01*
X96911441Y-134436452D01*
X96942910Y-134502987D01*
X96967705Y-134572286D01*
X96985589Y-134643682D01*
X96996389Y-134716487D01*
X97000000Y-134790000D01*
X97000000Y-136290000D01*
X96996389Y-136363513D01*
X96985589Y-136436318D01*
X96967705Y-136507714D01*
X96942910Y-136577013D01*
X96911441Y-136643548D01*
X96873602Y-136706678D01*
X96829758Y-136765795D01*
X96780330Y-136820330D01*
X96725795Y-136869758D01*
X96666678Y-136913602D01*
X96603548Y-136951441D01*
X96537013Y-136982910D01*
X96467714Y-137007705D01*
X96396318Y-137025589D01*
X96323513Y-137036389D01*
X96250000Y-137040000D01*
X94250000Y-137040000D01*
X94176487Y-137036389D01*
X94103682Y-137025589D01*
X94032286Y-137007705D01*
X93962987Y-136982910D01*
X93896452Y-136951441D01*
X93833322Y-136913602D01*
X93774205Y-136869758D01*
X93719670Y-136820330D01*
X93670242Y-136765795D01*
X93626398Y-136706678D01*
X93588559Y-136643548D01*
X93557090Y-136577013D01*
X93532295Y-136507714D01*
X93514411Y-136436318D01*
X93503611Y-136363513D01*
X93500000Y-136290000D01*
X93500000Y-134790000D01*
X93503611Y-134716487D01*
X93514411Y-134643682D01*
X93532295Y-134572286D01*
X93557090Y-134502987D01*
X93588559Y-134436452D01*
X93626398Y-134373322D01*
X93670242Y-134314205D01*
X93719670Y-134259670D01*
X93774205Y-134210242D01*
X93833322Y-134166398D01*
X93896452Y-134128559D01*
X93962987Y-134097090D01*
X94032286Y-134072295D01*
X94103682Y-134054411D01*
X94176487Y-134043611D01*
X94250000Y-134040000D01*
X96250000Y-134040000D01*
X96323513Y-134043611D01*
X96323513Y-134043611D01*
G37*
D25*
X95250000Y-135540000D03*
D26*
X95250000Y-129540000D03*
D23*
G36*
X127580765Y-38434213D02*
G01*
X127665704Y-38446813D01*
X127748999Y-38467677D01*
X127829848Y-38496605D01*
X127907472Y-38533319D01*
X127981124Y-38577464D01*
X128050094Y-38628616D01*
X128113718Y-38686282D01*
X128171384Y-38749906D01*
X128222536Y-38818876D01*
X128266681Y-38892528D01*
X128303395Y-38970152D01*
X128332323Y-39051001D01*
X128353187Y-39134296D01*
X128365787Y-39219235D01*
X128370000Y-39305000D01*
X128370000Y-41055000D01*
X128365787Y-41140765D01*
X128353187Y-41225704D01*
X128332323Y-41308999D01*
X128303395Y-41389848D01*
X128266681Y-41467472D01*
X128222536Y-41541124D01*
X128171384Y-41610094D01*
X128113718Y-41673718D01*
X128050094Y-41731384D01*
X127981124Y-41782536D01*
X127907472Y-41826681D01*
X127829848Y-41863395D01*
X127748999Y-41892323D01*
X127665704Y-41913187D01*
X127580765Y-41925787D01*
X127495000Y-41930000D01*
X125745000Y-41930000D01*
X125659235Y-41925787D01*
X125574296Y-41913187D01*
X125491001Y-41892323D01*
X125410152Y-41863395D01*
X125332528Y-41826681D01*
X125258876Y-41782536D01*
X125189906Y-41731384D01*
X125126282Y-41673718D01*
X125068616Y-41610094D01*
X125017464Y-41541124D01*
X124973319Y-41467472D01*
X124936605Y-41389848D01*
X124907677Y-41308999D01*
X124886813Y-41225704D01*
X124874213Y-41140765D01*
X124870000Y-41055000D01*
X124870000Y-39305000D01*
X124874213Y-39219235D01*
X124886813Y-39134296D01*
X124907677Y-39051001D01*
X124936605Y-38970152D01*
X124973319Y-38892528D01*
X125017464Y-38818876D01*
X125068616Y-38749906D01*
X125126282Y-38686282D01*
X125189906Y-38628616D01*
X125258876Y-38577464D01*
X125332528Y-38533319D01*
X125410152Y-38496605D01*
X125491001Y-38467677D01*
X125574296Y-38446813D01*
X125659235Y-38434213D01*
X125745000Y-38430000D01*
X127495000Y-38430000D01*
X127580765Y-38434213D01*
X127580765Y-38434213D01*
G37*
D24*
X126620000Y-40180000D03*
D23*
G36*
X122993513Y-35683611D02*
G01*
X123066318Y-35694411D01*
X123137714Y-35712295D01*
X123207013Y-35737090D01*
X123273548Y-35768559D01*
X123336678Y-35806398D01*
X123395795Y-35850242D01*
X123450330Y-35899670D01*
X123499758Y-35954205D01*
X123543602Y-36013322D01*
X123581441Y-36076452D01*
X123612910Y-36142987D01*
X123637705Y-36212286D01*
X123655589Y-36283682D01*
X123666389Y-36356487D01*
X123670000Y-36430000D01*
X123670000Y-37930000D01*
X123666389Y-38003513D01*
X123655589Y-38076318D01*
X123637705Y-38147714D01*
X123612910Y-38217013D01*
X123581441Y-38283548D01*
X123543602Y-38346678D01*
X123499758Y-38405795D01*
X123450330Y-38460330D01*
X123395795Y-38509758D01*
X123336678Y-38553602D01*
X123273548Y-38591441D01*
X123207013Y-38622910D01*
X123137714Y-38647705D01*
X123066318Y-38665589D01*
X122993513Y-38676389D01*
X122920000Y-38680000D01*
X120920000Y-38680000D01*
X120846487Y-38676389D01*
X120773682Y-38665589D01*
X120702286Y-38647705D01*
X120632987Y-38622910D01*
X120566452Y-38591441D01*
X120503322Y-38553602D01*
X120444205Y-38509758D01*
X120389670Y-38460330D01*
X120340242Y-38405795D01*
X120296398Y-38346678D01*
X120258559Y-38283548D01*
X120227090Y-38217013D01*
X120202295Y-38147714D01*
X120184411Y-38076318D01*
X120173611Y-38003513D01*
X120170000Y-37930000D01*
X120170000Y-36430000D01*
X120173611Y-36356487D01*
X120184411Y-36283682D01*
X120202295Y-36212286D01*
X120227090Y-36142987D01*
X120258559Y-36076452D01*
X120296398Y-36013322D01*
X120340242Y-35954205D01*
X120389670Y-35899670D01*
X120444205Y-35850242D01*
X120503322Y-35806398D01*
X120566452Y-35768559D01*
X120632987Y-35737090D01*
X120702286Y-35712295D01*
X120773682Y-35694411D01*
X120846487Y-35683611D01*
X120920000Y-35680000D01*
X122920000Y-35680000D01*
X122993513Y-35683611D01*
X122993513Y-35683611D01*
G37*
D25*
X121920000Y-37180000D03*
D26*
X121920000Y-43180000D03*
D23*
G36*
X118180765Y-130794213D02*
G01*
X118265704Y-130806813D01*
X118348999Y-130827677D01*
X118429848Y-130856605D01*
X118507472Y-130893319D01*
X118581124Y-130937464D01*
X118650094Y-130988616D01*
X118713718Y-131046282D01*
X118771384Y-131109906D01*
X118822536Y-131178876D01*
X118866681Y-131252528D01*
X118903395Y-131330152D01*
X118932323Y-131411001D01*
X118953187Y-131494296D01*
X118965787Y-131579235D01*
X118970000Y-131665000D01*
X118970000Y-133415000D01*
X118965787Y-133500765D01*
X118953187Y-133585704D01*
X118932323Y-133668999D01*
X118903395Y-133749848D01*
X118866681Y-133827472D01*
X118822536Y-133901124D01*
X118771384Y-133970094D01*
X118713718Y-134033718D01*
X118650094Y-134091384D01*
X118581124Y-134142536D01*
X118507472Y-134186681D01*
X118429848Y-134223395D01*
X118348999Y-134252323D01*
X118265704Y-134273187D01*
X118180765Y-134285787D01*
X118095000Y-134290000D01*
X116345000Y-134290000D01*
X116259235Y-134285787D01*
X116174296Y-134273187D01*
X116091001Y-134252323D01*
X116010152Y-134223395D01*
X115932528Y-134186681D01*
X115858876Y-134142536D01*
X115789906Y-134091384D01*
X115726282Y-134033718D01*
X115668616Y-133970094D01*
X115617464Y-133901124D01*
X115573319Y-133827472D01*
X115536605Y-133749848D01*
X115507677Y-133668999D01*
X115486813Y-133585704D01*
X115474213Y-133500765D01*
X115470000Y-133415000D01*
X115470000Y-131665000D01*
X115474213Y-131579235D01*
X115486813Y-131494296D01*
X115507677Y-131411001D01*
X115536605Y-131330152D01*
X115573319Y-131252528D01*
X115617464Y-131178876D01*
X115668616Y-131109906D01*
X115726282Y-131046282D01*
X115789906Y-130988616D01*
X115858876Y-130937464D01*
X115932528Y-130893319D01*
X116010152Y-130856605D01*
X116091001Y-130827677D01*
X116174296Y-130806813D01*
X116259235Y-130794213D01*
X116345000Y-130790000D01*
X118095000Y-130790000D01*
X118180765Y-130794213D01*
X118180765Y-130794213D01*
G37*
D24*
X117220000Y-132540000D03*
D23*
G36*
X122993513Y-134043611D02*
G01*
X123066318Y-134054411D01*
X123137714Y-134072295D01*
X123207013Y-134097090D01*
X123273548Y-134128559D01*
X123336678Y-134166398D01*
X123395795Y-134210242D01*
X123450330Y-134259670D01*
X123499758Y-134314205D01*
X123543602Y-134373322D01*
X123581441Y-134436452D01*
X123612910Y-134502987D01*
X123637705Y-134572286D01*
X123655589Y-134643682D01*
X123666389Y-134716487D01*
X123670000Y-134790000D01*
X123670000Y-136290000D01*
X123666389Y-136363513D01*
X123655589Y-136436318D01*
X123637705Y-136507714D01*
X123612910Y-136577013D01*
X123581441Y-136643548D01*
X123543602Y-136706678D01*
X123499758Y-136765795D01*
X123450330Y-136820330D01*
X123395795Y-136869758D01*
X123336678Y-136913602D01*
X123273548Y-136951441D01*
X123207013Y-136982910D01*
X123137714Y-137007705D01*
X123066318Y-137025589D01*
X122993513Y-137036389D01*
X122920000Y-137040000D01*
X120920000Y-137040000D01*
X120846487Y-137036389D01*
X120773682Y-137025589D01*
X120702286Y-137007705D01*
X120632987Y-136982910D01*
X120566452Y-136951441D01*
X120503322Y-136913602D01*
X120444205Y-136869758D01*
X120389670Y-136820330D01*
X120340242Y-136765795D01*
X120296398Y-136706678D01*
X120258559Y-136643548D01*
X120227090Y-136577013D01*
X120202295Y-136507714D01*
X120184411Y-136436318D01*
X120173611Y-136363513D01*
X120170000Y-136290000D01*
X120170000Y-134790000D01*
X120173611Y-134716487D01*
X120184411Y-134643682D01*
X120202295Y-134572286D01*
X120227090Y-134502987D01*
X120258559Y-134436452D01*
X120296398Y-134373322D01*
X120340242Y-134314205D01*
X120389670Y-134259670D01*
X120444205Y-134210242D01*
X120503322Y-134166398D01*
X120566452Y-134128559D01*
X120632987Y-134097090D01*
X120702286Y-134072295D01*
X120773682Y-134054411D01*
X120846487Y-134043611D01*
X120920000Y-134040000D01*
X122920000Y-134040000D01*
X122993513Y-134043611D01*
X122993513Y-134043611D01*
G37*
D25*
X121920000Y-135540000D03*
D26*
X121920000Y-129540000D03*
D27*
X49530000Y-93980000D03*
X49530000Y-98980000D03*
X49530000Y-103980000D03*
X49530000Y-115570000D03*
X49530000Y-120570000D03*
X49530000Y-125570000D03*
X49530000Y-71120000D03*
X49530000Y-76120000D03*
X49530000Y-81120000D03*
D28*
X90424000Y-120848000D03*
D29*
X90424000Y-117348000D03*
D30*
X111760000Y-101092000D03*
X114260000Y-98592000D03*
X116760000Y-101092000D03*
D12*
X116840000Y-77470000D03*
D13*
X116840000Y-72390000D03*
X116840000Y-74930000D03*
D12*
X109220000Y-77470000D03*
D13*
X109220000Y-72390000D03*
X109220000Y-74930000D03*
D12*
X120650000Y-106680000D03*
D13*
X120650000Y-111760000D03*
X120650000Y-109220000D03*
D12*
X99060000Y-90170000D03*
D13*
X99060000Y-95250000D03*
X99060000Y-92710000D03*
D12*
X99060000Y-77470000D03*
D13*
X99060000Y-72390000D03*
X99060000Y-74930000D03*
D12*
X88900000Y-105410000D03*
D13*
X88900000Y-110490000D03*
X88900000Y-107950000D03*
D12*
X92710000Y-77470000D03*
D13*
X92710000Y-72390000D03*
X92710000Y-74930000D03*
D12*
X92710000Y-95250000D03*
D13*
X92710000Y-90170000D03*
X92710000Y-92710000D03*
D31*
X71120000Y-55880000D03*
X78740000Y-63500000D03*
X73660000Y-55880000D03*
X76200000Y-63500000D03*
X76200000Y-55880000D03*
X73660000Y-63500000D03*
X78740000Y-55880000D03*
D29*
X71120000Y-63500000D03*
D25*
X54195000Y-50230000D03*
X48000000Y-50230000D03*
X54195000Y-56430000D03*
D32*
X48000000Y-56430000D03*
D33*
X151130000Y-134620000D03*
D34*
X135890000Y-134620000D03*
D33*
X139700000Y-40640000D03*
D34*
X154940000Y-40640000D03*
D35*
X171450000Y-87630000D03*
X171450000Y-85090000D03*
D36*
X171450000Y-82550000D03*
D23*
G36*
X83199504Y-62788704D02*
G01*
X83223773Y-62792304D01*
X83247571Y-62798265D01*
X83270671Y-62806530D01*
X83292849Y-62817020D01*
X83313893Y-62829633D01*
X83333598Y-62844247D01*
X83351777Y-62860723D01*
X83368253Y-62878902D01*
X83382867Y-62898607D01*
X83395480Y-62919651D01*
X83405970Y-62941829D01*
X83414235Y-62964929D01*
X83420196Y-62988727D01*
X83423796Y-63012996D01*
X83425000Y-63037500D01*
X83425000Y-63962500D01*
X83423796Y-63987004D01*
X83420196Y-64011273D01*
X83414235Y-64035071D01*
X83405970Y-64058171D01*
X83395480Y-64080349D01*
X83382867Y-64101393D01*
X83368253Y-64121098D01*
X83351777Y-64139277D01*
X83333598Y-64155753D01*
X83313893Y-64170367D01*
X83292849Y-64182980D01*
X83270671Y-64193470D01*
X83247571Y-64201735D01*
X83223773Y-64207696D01*
X83199504Y-64211296D01*
X83175000Y-64212500D01*
X81925000Y-64212500D01*
X81900496Y-64211296D01*
X81876227Y-64207696D01*
X81852429Y-64201735D01*
X81829329Y-64193470D01*
X81807151Y-64182980D01*
X81786107Y-64170367D01*
X81766402Y-64155753D01*
X81748223Y-64139277D01*
X81731747Y-64121098D01*
X81717133Y-64101393D01*
X81704520Y-64080349D01*
X81694030Y-64058171D01*
X81685765Y-64035071D01*
X81679804Y-64011273D01*
X81676204Y-63987004D01*
X81675000Y-63962500D01*
X81675000Y-63037500D01*
X81676204Y-63012996D01*
X81679804Y-62988727D01*
X81685765Y-62964929D01*
X81694030Y-62941829D01*
X81704520Y-62919651D01*
X81717133Y-62898607D01*
X81731747Y-62878902D01*
X81748223Y-62860723D01*
X81766402Y-62844247D01*
X81786107Y-62829633D01*
X81807151Y-62817020D01*
X81829329Y-62806530D01*
X81852429Y-62798265D01*
X81876227Y-62792304D01*
X81900496Y-62788704D01*
X81925000Y-62787500D01*
X83175000Y-62787500D01*
X83199504Y-62788704D01*
X83199504Y-62788704D01*
G37*
D37*
X82550000Y-63500000D03*
D23*
G36*
X83199504Y-59813704D02*
G01*
X83223773Y-59817304D01*
X83247571Y-59823265D01*
X83270671Y-59831530D01*
X83292849Y-59842020D01*
X83313893Y-59854633D01*
X83333598Y-59869247D01*
X83351777Y-59885723D01*
X83368253Y-59903902D01*
X83382867Y-59923607D01*
X83395480Y-59944651D01*
X83405970Y-59966829D01*
X83414235Y-59989929D01*
X83420196Y-60013727D01*
X83423796Y-60037996D01*
X83425000Y-60062500D01*
X83425000Y-60987500D01*
X83423796Y-61012004D01*
X83420196Y-61036273D01*
X83414235Y-61060071D01*
X83405970Y-61083171D01*
X83395480Y-61105349D01*
X83382867Y-61126393D01*
X83368253Y-61146098D01*
X83351777Y-61164277D01*
X83333598Y-61180753D01*
X83313893Y-61195367D01*
X83292849Y-61207980D01*
X83270671Y-61218470D01*
X83247571Y-61226735D01*
X83223773Y-61232696D01*
X83199504Y-61236296D01*
X83175000Y-61237500D01*
X81925000Y-61237500D01*
X81900496Y-61236296D01*
X81876227Y-61232696D01*
X81852429Y-61226735D01*
X81829329Y-61218470D01*
X81807151Y-61207980D01*
X81786107Y-61195367D01*
X81766402Y-61180753D01*
X81748223Y-61164277D01*
X81731747Y-61146098D01*
X81717133Y-61126393D01*
X81704520Y-61105349D01*
X81694030Y-61083171D01*
X81685765Y-61060071D01*
X81679804Y-61036273D01*
X81676204Y-61012004D01*
X81675000Y-60987500D01*
X81675000Y-60062500D01*
X81676204Y-60037996D01*
X81679804Y-60013727D01*
X81685765Y-59989929D01*
X81694030Y-59966829D01*
X81704520Y-59944651D01*
X81717133Y-59923607D01*
X81731747Y-59903902D01*
X81748223Y-59885723D01*
X81766402Y-59869247D01*
X81786107Y-59854633D01*
X81807151Y-59842020D01*
X81829329Y-59831530D01*
X81852429Y-59823265D01*
X81876227Y-59817304D01*
X81900496Y-59813704D01*
X81925000Y-59812500D01*
X83175000Y-59812500D01*
X83199504Y-59813704D01*
X83199504Y-59813704D01*
G37*
D37*
X82550000Y-60525000D03*
D23*
G36*
X81099504Y-50088704D02*
G01*
X81123773Y-50092304D01*
X81147571Y-50098265D01*
X81170671Y-50106530D01*
X81192849Y-50117020D01*
X81213893Y-50129633D01*
X81233598Y-50144247D01*
X81251777Y-50160723D01*
X81268253Y-50178902D01*
X81282867Y-50198607D01*
X81295480Y-50219651D01*
X81305970Y-50241829D01*
X81314235Y-50264929D01*
X81320196Y-50288727D01*
X81323796Y-50312996D01*
X81325000Y-50337500D01*
X81325000Y-51262500D01*
X81323796Y-51287004D01*
X81320196Y-51311273D01*
X81314235Y-51335071D01*
X81305970Y-51358171D01*
X81295480Y-51380349D01*
X81282867Y-51401393D01*
X81268253Y-51421098D01*
X81251777Y-51439277D01*
X81233598Y-51455753D01*
X81213893Y-51470367D01*
X81192849Y-51482980D01*
X81170671Y-51493470D01*
X81147571Y-51501735D01*
X81123773Y-51507696D01*
X81099504Y-51511296D01*
X81075000Y-51512500D01*
X79825000Y-51512500D01*
X79800496Y-51511296D01*
X79776227Y-51507696D01*
X79752429Y-51501735D01*
X79729329Y-51493470D01*
X79707151Y-51482980D01*
X79686107Y-51470367D01*
X79666402Y-51455753D01*
X79648223Y-51439277D01*
X79631747Y-51421098D01*
X79617133Y-51401393D01*
X79604520Y-51380349D01*
X79594030Y-51358171D01*
X79585765Y-51335071D01*
X79579804Y-51311273D01*
X79576204Y-51287004D01*
X79575000Y-51262500D01*
X79575000Y-50337500D01*
X79576204Y-50312996D01*
X79579804Y-50288727D01*
X79585765Y-50264929D01*
X79594030Y-50241829D01*
X79604520Y-50219651D01*
X79617133Y-50198607D01*
X79631747Y-50178902D01*
X79648223Y-50160723D01*
X79666402Y-50144247D01*
X79686107Y-50129633D01*
X79707151Y-50117020D01*
X79729329Y-50106530D01*
X79752429Y-50098265D01*
X79776227Y-50092304D01*
X79800496Y-50088704D01*
X79825000Y-50087500D01*
X81075000Y-50087500D01*
X81099504Y-50088704D01*
X81099504Y-50088704D01*
G37*
D37*
X80450000Y-50800000D03*
D23*
G36*
X81099504Y-47113704D02*
G01*
X81123773Y-47117304D01*
X81147571Y-47123265D01*
X81170671Y-47131530D01*
X81192849Y-47142020D01*
X81213893Y-47154633D01*
X81233598Y-47169247D01*
X81251777Y-47185723D01*
X81268253Y-47203902D01*
X81282867Y-47223607D01*
X81295480Y-47244651D01*
X81305970Y-47266829D01*
X81314235Y-47289929D01*
X81320196Y-47313727D01*
X81323796Y-47337996D01*
X81325000Y-47362500D01*
X81325000Y-48287500D01*
X81323796Y-48312004D01*
X81320196Y-48336273D01*
X81314235Y-48360071D01*
X81305970Y-48383171D01*
X81295480Y-48405349D01*
X81282867Y-48426393D01*
X81268253Y-48446098D01*
X81251777Y-48464277D01*
X81233598Y-48480753D01*
X81213893Y-48495367D01*
X81192849Y-48507980D01*
X81170671Y-48518470D01*
X81147571Y-48526735D01*
X81123773Y-48532696D01*
X81099504Y-48536296D01*
X81075000Y-48537500D01*
X79825000Y-48537500D01*
X79800496Y-48536296D01*
X79776227Y-48532696D01*
X79752429Y-48526735D01*
X79729329Y-48518470D01*
X79707151Y-48507980D01*
X79686107Y-48495367D01*
X79666402Y-48480753D01*
X79648223Y-48464277D01*
X79631747Y-48446098D01*
X79617133Y-48426393D01*
X79604520Y-48405349D01*
X79594030Y-48383171D01*
X79585765Y-48360071D01*
X79579804Y-48336273D01*
X79576204Y-48312004D01*
X79575000Y-48287500D01*
X79575000Y-47362500D01*
X79576204Y-47337996D01*
X79579804Y-47313727D01*
X79585765Y-47289929D01*
X79594030Y-47266829D01*
X79604520Y-47244651D01*
X79617133Y-47223607D01*
X79631747Y-47203902D01*
X79648223Y-47185723D01*
X79666402Y-47169247D01*
X79686107Y-47154633D01*
X79707151Y-47142020D01*
X79729329Y-47131530D01*
X79752429Y-47123265D01*
X79776227Y-47117304D01*
X79800496Y-47113704D01*
X79825000Y-47112500D01*
X81075000Y-47112500D01*
X81099504Y-47113704D01*
X81099504Y-47113704D01*
G37*
D37*
X80450000Y-47825000D03*
D28*
X77650000Y-130625000D03*
D29*
X74150000Y-130625000D03*
D28*
X110180000Y-38100000D03*
D29*
X106680000Y-38100000D03*
D28*
X107675000Y-130000000D03*
D29*
X104175000Y-130000000D03*
D28*
X133350000Y-33330000D03*
D29*
X133350000Y-36830000D03*
D28*
X111760000Y-93162000D03*
D29*
X111760000Y-89662000D03*
D38*
X105410000Y-106680000D03*
D36*
X105410000Y-109220000D03*
D30*
X133350000Y-97790000D03*
X135850000Y-100290000D03*
X133350000Y-102790000D03*
D23*
G36*
X167527504Y-93610204D02*
G01*
X167551773Y-93613804D01*
X167575571Y-93619765D01*
X167598671Y-93628030D01*
X167620849Y-93638520D01*
X167641893Y-93651133D01*
X167661598Y-93665747D01*
X167679777Y-93682223D01*
X167696253Y-93700402D01*
X167710867Y-93720107D01*
X167723480Y-93741151D01*
X167733970Y-93763329D01*
X167742235Y-93786429D01*
X167748196Y-93810227D01*
X167751796Y-93834496D01*
X167753000Y-93859000D01*
X167753000Y-94609000D01*
X167751796Y-94633504D01*
X167748196Y-94657773D01*
X167742235Y-94681571D01*
X167733970Y-94704671D01*
X167723480Y-94726849D01*
X167710867Y-94747893D01*
X167696253Y-94767598D01*
X167679777Y-94785777D01*
X167661598Y-94802253D01*
X167641893Y-94816867D01*
X167620849Y-94829480D01*
X167598671Y-94839970D01*
X167575571Y-94848235D01*
X167551773Y-94854196D01*
X167527504Y-94857796D01*
X167503000Y-94859000D01*
X166253000Y-94859000D01*
X166228496Y-94857796D01*
X166204227Y-94854196D01*
X166180429Y-94848235D01*
X166157329Y-94839970D01*
X166135151Y-94829480D01*
X166114107Y-94816867D01*
X166094402Y-94802253D01*
X166076223Y-94785777D01*
X166059747Y-94767598D01*
X166045133Y-94747893D01*
X166032520Y-94726849D01*
X166022030Y-94704671D01*
X166013765Y-94681571D01*
X166007804Y-94657773D01*
X166004204Y-94633504D01*
X166003000Y-94609000D01*
X166003000Y-93859000D01*
X166004204Y-93834496D01*
X166007804Y-93810227D01*
X166013765Y-93786429D01*
X166022030Y-93763329D01*
X166032520Y-93741151D01*
X166045133Y-93720107D01*
X166059747Y-93700402D01*
X166076223Y-93682223D01*
X166094402Y-93665747D01*
X166114107Y-93651133D01*
X166135151Y-93638520D01*
X166157329Y-93628030D01*
X166180429Y-93619765D01*
X166204227Y-93613804D01*
X166228496Y-93610204D01*
X166253000Y-93609000D01*
X167503000Y-93609000D01*
X167527504Y-93610204D01*
X167527504Y-93610204D01*
G37*
D39*
X166878000Y-94234000D03*
D23*
G36*
X167527504Y-90810204D02*
G01*
X167551773Y-90813804D01*
X167575571Y-90819765D01*
X167598671Y-90828030D01*
X167620849Y-90838520D01*
X167641893Y-90851133D01*
X167661598Y-90865747D01*
X167679777Y-90882223D01*
X167696253Y-90900402D01*
X167710867Y-90920107D01*
X167723480Y-90941151D01*
X167733970Y-90963329D01*
X167742235Y-90986429D01*
X167748196Y-91010227D01*
X167751796Y-91034496D01*
X167753000Y-91059000D01*
X167753000Y-91809000D01*
X167751796Y-91833504D01*
X167748196Y-91857773D01*
X167742235Y-91881571D01*
X167733970Y-91904671D01*
X167723480Y-91926849D01*
X167710867Y-91947893D01*
X167696253Y-91967598D01*
X167679777Y-91985777D01*
X167661598Y-92002253D01*
X167641893Y-92016867D01*
X167620849Y-92029480D01*
X167598671Y-92039970D01*
X167575571Y-92048235D01*
X167551773Y-92054196D01*
X167527504Y-92057796D01*
X167503000Y-92059000D01*
X166253000Y-92059000D01*
X166228496Y-92057796D01*
X166204227Y-92054196D01*
X166180429Y-92048235D01*
X166157329Y-92039970D01*
X166135151Y-92029480D01*
X166114107Y-92016867D01*
X166094402Y-92002253D01*
X166076223Y-91985777D01*
X166059747Y-91967598D01*
X166045133Y-91947893D01*
X166032520Y-91926849D01*
X166022030Y-91904671D01*
X166013765Y-91881571D01*
X166007804Y-91857773D01*
X166004204Y-91833504D01*
X166003000Y-91809000D01*
X166003000Y-91059000D01*
X166004204Y-91034496D01*
X166007804Y-91010227D01*
X166013765Y-90986429D01*
X166022030Y-90963329D01*
X166032520Y-90941151D01*
X166045133Y-90920107D01*
X166059747Y-90900402D01*
X166076223Y-90882223D01*
X166094402Y-90865747D01*
X166114107Y-90851133D01*
X166135151Y-90838520D01*
X166157329Y-90828030D01*
X166180429Y-90819765D01*
X166204227Y-90813804D01*
X166228496Y-90810204D01*
X166253000Y-90809000D01*
X167503000Y-90809000D01*
X167527504Y-90810204D01*
X167527504Y-90810204D01*
G37*
D39*
X166878000Y-91434000D03*
D23*
G36*
X167527504Y-77995204D02*
G01*
X167551773Y-77998804D01*
X167575571Y-78004765D01*
X167598671Y-78013030D01*
X167620849Y-78023520D01*
X167641893Y-78036133D01*
X167661598Y-78050747D01*
X167679777Y-78067223D01*
X167696253Y-78085402D01*
X167710867Y-78105107D01*
X167723480Y-78126151D01*
X167733970Y-78148329D01*
X167742235Y-78171429D01*
X167748196Y-78195227D01*
X167751796Y-78219496D01*
X167753000Y-78244000D01*
X167753000Y-78994000D01*
X167751796Y-79018504D01*
X167748196Y-79042773D01*
X167742235Y-79066571D01*
X167733970Y-79089671D01*
X167723480Y-79111849D01*
X167710867Y-79132893D01*
X167696253Y-79152598D01*
X167679777Y-79170777D01*
X167661598Y-79187253D01*
X167641893Y-79201867D01*
X167620849Y-79214480D01*
X167598671Y-79224970D01*
X167575571Y-79233235D01*
X167551773Y-79239196D01*
X167527504Y-79242796D01*
X167503000Y-79244000D01*
X166253000Y-79244000D01*
X166228496Y-79242796D01*
X166204227Y-79239196D01*
X166180429Y-79233235D01*
X166157329Y-79224970D01*
X166135151Y-79214480D01*
X166114107Y-79201867D01*
X166094402Y-79187253D01*
X166076223Y-79170777D01*
X166059747Y-79152598D01*
X166045133Y-79132893D01*
X166032520Y-79111849D01*
X166022030Y-79089671D01*
X166013765Y-79066571D01*
X166007804Y-79042773D01*
X166004204Y-79018504D01*
X166003000Y-78994000D01*
X166003000Y-78244000D01*
X166004204Y-78219496D01*
X166007804Y-78195227D01*
X166013765Y-78171429D01*
X166022030Y-78148329D01*
X166032520Y-78126151D01*
X166045133Y-78105107D01*
X166059747Y-78085402D01*
X166076223Y-78067223D01*
X166094402Y-78050747D01*
X166114107Y-78036133D01*
X166135151Y-78023520D01*
X166157329Y-78013030D01*
X166180429Y-78004765D01*
X166204227Y-77998804D01*
X166228496Y-77995204D01*
X166253000Y-77994000D01*
X167503000Y-77994000D01*
X167527504Y-77995204D01*
X167527504Y-77995204D01*
G37*
D39*
X166878000Y-78619000D03*
D23*
G36*
X167527504Y-75195204D02*
G01*
X167551773Y-75198804D01*
X167575571Y-75204765D01*
X167598671Y-75213030D01*
X167620849Y-75223520D01*
X167641893Y-75236133D01*
X167661598Y-75250747D01*
X167679777Y-75267223D01*
X167696253Y-75285402D01*
X167710867Y-75305107D01*
X167723480Y-75326151D01*
X167733970Y-75348329D01*
X167742235Y-75371429D01*
X167748196Y-75395227D01*
X167751796Y-75419496D01*
X167753000Y-75444000D01*
X167753000Y-76194000D01*
X167751796Y-76218504D01*
X167748196Y-76242773D01*
X167742235Y-76266571D01*
X167733970Y-76289671D01*
X167723480Y-76311849D01*
X167710867Y-76332893D01*
X167696253Y-76352598D01*
X167679777Y-76370777D01*
X167661598Y-76387253D01*
X167641893Y-76401867D01*
X167620849Y-76414480D01*
X167598671Y-76424970D01*
X167575571Y-76433235D01*
X167551773Y-76439196D01*
X167527504Y-76442796D01*
X167503000Y-76444000D01*
X166253000Y-76444000D01*
X166228496Y-76442796D01*
X166204227Y-76439196D01*
X166180429Y-76433235D01*
X166157329Y-76424970D01*
X166135151Y-76414480D01*
X166114107Y-76401867D01*
X166094402Y-76387253D01*
X166076223Y-76370777D01*
X166059747Y-76352598D01*
X166045133Y-76332893D01*
X166032520Y-76311849D01*
X166022030Y-76289671D01*
X166013765Y-76266571D01*
X166007804Y-76242773D01*
X166004204Y-76218504D01*
X166003000Y-76194000D01*
X166003000Y-75444000D01*
X166004204Y-75419496D01*
X166007804Y-75395227D01*
X166013765Y-75371429D01*
X166022030Y-75348329D01*
X166032520Y-75326151D01*
X166045133Y-75305107D01*
X166059747Y-75285402D01*
X166076223Y-75267223D01*
X166094402Y-75250747D01*
X166114107Y-75236133D01*
X166135151Y-75223520D01*
X166157329Y-75213030D01*
X166180429Y-75204765D01*
X166204227Y-75198804D01*
X166228496Y-75195204D01*
X166253000Y-75194000D01*
X167503000Y-75194000D01*
X167527504Y-75195204D01*
X167527504Y-75195204D01*
G37*
D39*
X166878000Y-75819000D03*
D23*
G36*
X99709504Y-99712204D02*
G01*
X99733773Y-99715804D01*
X99757571Y-99721765D01*
X99780671Y-99730030D01*
X99802849Y-99740520D01*
X99823893Y-99753133D01*
X99843598Y-99767747D01*
X99861777Y-99784223D01*
X99878253Y-99802402D01*
X99892867Y-99822107D01*
X99905480Y-99843151D01*
X99915970Y-99865329D01*
X99924235Y-99888429D01*
X99930196Y-99912227D01*
X99933796Y-99936496D01*
X99935000Y-99961000D01*
X99935000Y-100711000D01*
X99933796Y-100735504D01*
X99930196Y-100759773D01*
X99924235Y-100783571D01*
X99915970Y-100806671D01*
X99905480Y-100828849D01*
X99892867Y-100849893D01*
X99878253Y-100869598D01*
X99861777Y-100887777D01*
X99843598Y-100904253D01*
X99823893Y-100918867D01*
X99802849Y-100931480D01*
X99780671Y-100941970D01*
X99757571Y-100950235D01*
X99733773Y-100956196D01*
X99709504Y-100959796D01*
X99685000Y-100961000D01*
X98435000Y-100961000D01*
X98410496Y-100959796D01*
X98386227Y-100956196D01*
X98362429Y-100950235D01*
X98339329Y-100941970D01*
X98317151Y-100931480D01*
X98296107Y-100918867D01*
X98276402Y-100904253D01*
X98258223Y-100887777D01*
X98241747Y-100869598D01*
X98227133Y-100849893D01*
X98214520Y-100828849D01*
X98204030Y-100806671D01*
X98195765Y-100783571D01*
X98189804Y-100759773D01*
X98186204Y-100735504D01*
X98185000Y-100711000D01*
X98185000Y-99961000D01*
X98186204Y-99936496D01*
X98189804Y-99912227D01*
X98195765Y-99888429D01*
X98204030Y-99865329D01*
X98214520Y-99843151D01*
X98227133Y-99822107D01*
X98241747Y-99802402D01*
X98258223Y-99784223D01*
X98276402Y-99767747D01*
X98296107Y-99753133D01*
X98317151Y-99740520D01*
X98339329Y-99730030D01*
X98362429Y-99721765D01*
X98386227Y-99715804D01*
X98410496Y-99712204D01*
X98435000Y-99711000D01*
X99685000Y-99711000D01*
X99709504Y-99712204D01*
X99709504Y-99712204D01*
G37*
D39*
X99060000Y-100336000D03*
D23*
G36*
X99709504Y-96912204D02*
G01*
X99733773Y-96915804D01*
X99757571Y-96921765D01*
X99780671Y-96930030D01*
X99802849Y-96940520D01*
X99823893Y-96953133D01*
X99843598Y-96967747D01*
X99861777Y-96984223D01*
X99878253Y-97002402D01*
X99892867Y-97022107D01*
X99905480Y-97043151D01*
X99915970Y-97065329D01*
X99924235Y-97088429D01*
X99930196Y-97112227D01*
X99933796Y-97136496D01*
X99935000Y-97161000D01*
X99935000Y-97911000D01*
X99933796Y-97935504D01*
X99930196Y-97959773D01*
X99924235Y-97983571D01*
X99915970Y-98006671D01*
X99905480Y-98028849D01*
X99892867Y-98049893D01*
X99878253Y-98069598D01*
X99861777Y-98087777D01*
X99843598Y-98104253D01*
X99823893Y-98118867D01*
X99802849Y-98131480D01*
X99780671Y-98141970D01*
X99757571Y-98150235D01*
X99733773Y-98156196D01*
X99709504Y-98159796D01*
X99685000Y-98161000D01*
X98435000Y-98161000D01*
X98410496Y-98159796D01*
X98386227Y-98156196D01*
X98362429Y-98150235D01*
X98339329Y-98141970D01*
X98317151Y-98131480D01*
X98296107Y-98118867D01*
X98276402Y-98104253D01*
X98258223Y-98087777D01*
X98241747Y-98069598D01*
X98227133Y-98049893D01*
X98214520Y-98028849D01*
X98204030Y-98006671D01*
X98195765Y-97983571D01*
X98189804Y-97959773D01*
X98186204Y-97935504D01*
X98185000Y-97911000D01*
X98185000Y-97161000D01*
X98186204Y-97136496D01*
X98189804Y-97112227D01*
X98195765Y-97088429D01*
X98204030Y-97065329D01*
X98214520Y-97043151D01*
X98227133Y-97022107D01*
X98241747Y-97002402D01*
X98258223Y-96984223D01*
X98276402Y-96967747D01*
X98296107Y-96953133D01*
X98317151Y-96940520D01*
X98339329Y-96930030D01*
X98362429Y-96921765D01*
X98386227Y-96915804D01*
X98410496Y-96912204D01*
X98435000Y-96911000D01*
X99685000Y-96911000D01*
X99709504Y-96912204D01*
X99709504Y-96912204D01*
G37*
D39*
X99060000Y-97536000D03*
D23*
G36*
X93359504Y-99706204D02*
G01*
X93383773Y-99709804D01*
X93407571Y-99715765D01*
X93430671Y-99724030D01*
X93452849Y-99734520D01*
X93473893Y-99747133D01*
X93493598Y-99761747D01*
X93511777Y-99778223D01*
X93528253Y-99796402D01*
X93542867Y-99816107D01*
X93555480Y-99837151D01*
X93565970Y-99859329D01*
X93574235Y-99882429D01*
X93580196Y-99906227D01*
X93583796Y-99930496D01*
X93585000Y-99955000D01*
X93585000Y-100705000D01*
X93583796Y-100729504D01*
X93580196Y-100753773D01*
X93574235Y-100777571D01*
X93565970Y-100800671D01*
X93555480Y-100822849D01*
X93542867Y-100843893D01*
X93528253Y-100863598D01*
X93511777Y-100881777D01*
X93493598Y-100898253D01*
X93473893Y-100912867D01*
X93452849Y-100925480D01*
X93430671Y-100935970D01*
X93407571Y-100944235D01*
X93383773Y-100950196D01*
X93359504Y-100953796D01*
X93335000Y-100955000D01*
X92085000Y-100955000D01*
X92060496Y-100953796D01*
X92036227Y-100950196D01*
X92012429Y-100944235D01*
X91989329Y-100935970D01*
X91967151Y-100925480D01*
X91946107Y-100912867D01*
X91926402Y-100898253D01*
X91908223Y-100881777D01*
X91891747Y-100863598D01*
X91877133Y-100843893D01*
X91864520Y-100822849D01*
X91854030Y-100800671D01*
X91845765Y-100777571D01*
X91839804Y-100753773D01*
X91836204Y-100729504D01*
X91835000Y-100705000D01*
X91835000Y-99955000D01*
X91836204Y-99930496D01*
X91839804Y-99906227D01*
X91845765Y-99882429D01*
X91854030Y-99859329D01*
X91864520Y-99837151D01*
X91877133Y-99816107D01*
X91891747Y-99796402D01*
X91908223Y-99778223D01*
X91926402Y-99761747D01*
X91946107Y-99747133D01*
X91967151Y-99734520D01*
X91989329Y-99724030D01*
X92012429Y-99715765D01*
X92036227Y-99709804D01*
X92060496Y-99706204D01*
X92085000Y-99705000D01*
X93335000Y-99705000D01*
X93359504Y-99706204D01*
X93359504Y-99706204D01*
G37*
D39*
X92710000Y-100330000D03*
D23*
G36*
X93359504Y-96906204D02*
G01*
X93383773Y-96909804D01*
X93407571Y-96915765D01*
X93430671Y-96924030D01*
X93452849Y-96934520D01*
X93473893Y-96947133D01*
X93493598Y-96961747D01*
X93511777Y-96978223D01*
X93528253Y-96996402D01*
X93542867Y-97016107D01*
X93555480Y-97037151D01*
X93565970Y-97059329D01*
X93574235Y-97082429D01*
X93580196Y-97106227D01*
X93583796Y-97130496D01*
X93585000Y-97155000D01*
X93585000Y-97905000D01*
X93583796Y-97929504D01*
X93580196Y-97953773D01*
X93574235Y-97977571D01*
X93565970Y-98000671D01*
X93555480Y-98022849D01*
X93542867Y-98043893D01*
X93528253Y-98063598D01*
X93511777Y-98081777D01*
X93493598Y-98098253D01*
X93473893Y-98112867D01*
X93452849Y-98125480D01*
X93430671Y-98135970D01*
X93407571Y-98144235D01*
X93383773Y-98150196D01*
X93359504Y-98153796D01*
X93335000Y-98155000D01*
X92085000Y-98155000D01*
X92060496Y-98153796D01*
X92036227Y-98150196D01*
X92012429Y-98144235D01*
X91989329Y-98135970D01*
X91967151Y-98125480D01*
X91946107Y-98112867D01*
X91926402Y-98098253D01*
X91908223Y-98081777D01*
X91891747Y-98063598D01*
X91877133Y-98043893D01*
X91864520Y-98022849D01*
X91854030Y-98000671D01*
X91845765Y-97977571D01*
X91839804Y-97953773D01*
X91836204Y-97929504D01*
X91835000Y-97905000D01*
X91835000Y-97155000D01*
X91836204Y-97130496D01*
X91839804Y-97106227D01*
X91845765Y-97082429D01*
X91854030Y-97059329D01*
X91864520Y-97037151D01*
X91877133Y-97016107D01*
X91891747Y-96996402D01*
X91908223Y-96978223D01*
X91926402Y-96961747D01*
X91946107Y-96947133D01*
X91967151Y-96934520D01*
X91989329Y-96924030D01*
X92012429Y-96915765D01*
X92036227Y-96909804D01*
X92060496Y-96906204D01*
X92085000Y-96905000D01*
X93335000Y-96905000D01*
X93359504Y-96906204D01*
X93359504Y-96906204D01*
G37*
D39*
X92710000Y-97530000D03*
D40*
X171450000Y-139170000D03*
X171450000Y-133720000D03*
D41*
X171450000Y-128270000D03*
D40*
X171450000Y-117210000D03*
X171450000Y-111760000D03*
D41*
X171450000Y-106310000D03*
D40*
X171450000Y-64240000D03*
X171450000Y-58790000D03*
D41*
X171450000Y-53340000D03*
D40*
X171450000Y-43180000D03*
X171450000Y-37730000D03*
D41*
X171450000Y-32280000D03*
D35*
X171450000Y-77470000D03*
X171450000Y-74930000D03*
D36*
X171450000Y-72390000D03*
D35*
X152400000Y-54610000D03*
X152400000Y-52070000D03*
D36*
X152400000Y-49530000D03*
D35*
X152400000Y-128270000D03*
X152400000Y-125730000D03*
D36*
X152400000Y-123190000D03*
D35*
X171450000Y-97790000D03*
X171450000Y-95250000D03*
D36*
X171450000Y-92710000D03*
D25*
X151130000Y-82550000D03*
D32*
X151130000Y-87630000D03*
D42*
X128270000Y-54610000D03*
D43*
X115570000Y-54610000D03*
D31*
X146050000Y-115570000D03*
D29*
X138430000Y-115570000D03*
D31*
X133350000Y-64770000D03*
D29*
X140970000Y-64770000D03*
D31*
X133350000Y-76200000D03*
D29*
X133350000Y-68580000D03*
D31*
X133350000Y-115570000D03*
D29*
X133350000Y-107950000D03*
D42*
X115570000Y-121920000D03*
D43*
X128270000Y-121920000D03*
D13*
X84300000Y-59025000D03*
D44*
X123850000Y-99150000D03*
D13*
X73660000Y-50800000D03*
X80645000Y-66505000D03*
D45*
X109220000Y-74930000D02*
X109220000Y-74930000D01*
X92710000Y-77470000D02*
X92710000Y-77470000D01*
D46*
X105260002Y-74930000D02*
X100180002Y-80010000D01*
X109220000Y-74930000D02*
X105260002Y-74930000D01*
X92710000Y-80220000D02*
X92710000Y-77470000D01*
X90170000Y-82760000D02*
X92710000Y-80220000D01*
X90170000Y-94234000D02*
X90170000Y-82760000D01*
X91186000Y-95250000D02*
X90170000Y-94234000D01*
X92710000Y-95250000D02*
X91186000Y-95250000D01*
X97790000Y-80220000D02*
X92710000Y-80220000D01*
X98000000Y-80010000D02*
X97790000Y-80220000D01*
X100180002Y-80010000D02*
X98000000Y-80010000D01*
X84037500Y-56097500D02*
X84037500Y-58637500D01*
X84037500Y-59037500D02*
X82550000Y-60525000D01*
D47*
X84037500Y-58637500D02*
X84037500Y-59037500D01*
D48*
X134112000Y-87630000D02*
X151130000Y-87630000D01*
X134112000Y-87630000D02*
X133350000Y-87630000D01*
D46*
X80450000Y-50800000D02*
X82475000Y-50800000D01*
X84037500Y-52362500D02*
X84037500Y-56097500D01*
X82475000Y-50800000D02*
X84037500Y-52362500D01*
D48*
X134112000Y-87630000D02*
X132080000Y-87630000D01*
X121920000Y-124790000D02*
X121920000Y-129540000D01*
X123100001Y-123609999D02*
X121920000Y-124790000D01*
X123725000Y-96300000D02*
X123725000Y-123300000D01*
X123725000Y-95985000D02*
X132080000Y-87630000D01*
D45*
X123725000Y-96300000D02*
X123725000Y-95985000D01*
D11*
X171450000Y-37730000D02*
X172450000Y-37730000D01*
X73660000Y-55880000D02*
X73660000Y-55880000D01*
D48*
X95075000Y-37005000D02*
X95250000Y-37180000D01*
X74459999Y-49925003D02*
X77903002Y-46482000D01*
X77903002Y-46482000D02*
X82296000Y-46482000D01*
X86360000Y-42418000D02*
X86360000Y-34290000D01*
X82296000Y-46482000D02*
X86360000Y-42418000D01*
X73660000Y-50725002D02*
X74459999Y-49925003D01*
X73660000Y-53420000D02*
X73660000Y-50725002D01*
D49*
X83693000Y-135703000D02*
X83693000Y-69088000D01*
D50*
X83228000Y-69088000D02*
X80645000Y-66505000D01*
D48*
X83693000Y-69088000D02*
X83228000Y-69088000D01*
X83693000Y-69088000D02*
X83693000Y-65532000D01*
X83693000Y-64643000D02*
X83439000Y-64389000D01*
X83693000Y-65532000D02*
X83693000Y-64643000D01*
X83439000Y-64389000D02*
X81915000Y-64389000D01*
D46*
X146050000Y-115570000D02*
X146050000Y-115570000D01*
X146050000Y-124460000D02*
X149860000Y-128270000D01*
X149860000Y-128270000D02*
X152400000Y-128270000D01*
X146050000Y-115570000D02*
X146050000Y-124460000D01*
D11*
X172450000Y-43180000D02*
X171450000Y-43180000D01*
D48*
X175450000Y-111760000D02*
X171450000Y-111760000D01*
X176530000Y-112840000D02*
X175450000Y-111760000D01*
X176530000Y-135090000D02*
X176530000Y-112840000D01*
X176530000Y-110930000D02*
X176530000Y-97790000D01*
D51*
X173990000Y-95250000D02*
X171450000Y-95250000D01*
D52*
X176657000Y-97663000D02*
X174117000Y-95123000D01*
D47*
X171450000Y-111760000D02*
X171450000Y-111760000D01*
D48*
X172450000Y-139170000D02*
X176530000Y-135090000D01*
D46*
X171450000Y-139170000D02*
X172450000Y-139170000D01*
D53*
X160782000Y-89662000D02*
X160782000Y-81788000D01*
D48*
X152654000Y-81026000D02*
X151130000Y-82550000D01*
X160782000Y-81026000D02*
X152654000Y-81026000D01*
D53*
X162935000Y-91434000D02*
X160782000Y-89281000D01*
X166630000Y-91313000D02*
X162687000Y-91313000D01*
D46*
X164471000Y-81026000D02*
X166878000Y-78619000D01*
X160782000Y-81026000D02*
X164471000Y-81026000D01*
D53*
X125730000Y-83820000D02*
X149860000Y-83820000D01*
D45*
X149860000Y-81280000D02*
X151130000Y-82550000D01*
D46*
X149860000Y-68580000D02*
X149860000Y-81280000D01*
D45*
X160782000Y-90978056D02*
X160782000Y-89281000D01*
D46*
X160782000Y-94352176D02*
X160782000Y-90978056D01*
X153534176Y-101600000D02*
X160782000Y-94352176D01*
X149860000Y-101600000D02*
X153534176Y-101600000D01*
D53*
X149860000Y-83820000D02*
X151130000Y-82550000D01*
D45*
X92710000Y-90170000D02*
X92710000Y-90170000D01*
D46*
X95250000Y-91649340D02*
X95250000Y-95965000D01*
X93770660Y-90170000D02*
X95250000Y-91649340D01*
X92710000Y-90170000D02*
X93770660Y-90170000D01*
D47*
X92710000Y-97530000D02*
X93685000Y-97530000D01*
X93685000Y-97530000D02*
X95250000Y-95965000D01*
D46*
X99060000Y-97530000D02*
X99060000Y-95250000D01*
X171450000Y-106310000D02*
X170450000Y-106310000D01*
X166878000Y-94234000D02*
X167853000Y-94234000D01*
X169377000Y-92710000D02*
X171450000Y-92710000D01*
X167853000Y-94234000D02*
X169377000Y-92710000D01*
X166878000Y-101738000D02*
X166878000Y-94234000D01*
X171450000Y-106310000D02*
X166878000Y-101738000D01*
X170450000Y-32280000D02*
X171450000Y-32280000D01*
D48*
X155149500Y-47580500D02*
X170450000Y-32280000D01*
D53*
X153200000Y-49530000D02*
X155149500Y-47580500D01*
X152400000Y-49530000D02*
X153200000Y-49530000D01*
D45*
X171450000Y-72390000D02*
X171450000Y-72390000D01*
D46*
X170307000Y-72390000D02*
X171450000Y-72390000D01*
X166878000Y-75819000D02*
X170307000Y-72390000D01*
D48*
X171450000Y-64240000D02*
X171410000Y-64240000D01*
X160655000Y-53445000D02*
X171450000Y-64240000D01*
X160782000Y-50662000D02*
X160782000Y-52926000D01*
D45*
X160782000Y-55118000D02*
X160782000Y-50546000D01*
D47*
X169650000Y-66040000D02*
X171450000Y-64240000D01*
X149860000Y-66040000D02*
X169650000Y-66040000D01*
D46*
X160782000Y-111252000D02*
X160782000Y-119761000D01*
X149860000Y-104140000D02*
X153670000Y-104140000D01*
X153670000Y-104140000D02*
X160782000Y-111252000D01*
X88900000Y-104140000D02*
X92710000Y-100330000D01*
X88900000Y-105410000D02*
X88900000Y-105410000D01*
X92710000Y-100330000D02*
X97790000Y-100330000D01*
X88900000Y-105410000D02*
X88900000Y-104140000D01*
X99054000Y-100330000D02*
X99060000Y-100336000D01*
X92710000Y-100330000D02*
X99054000Y-100330000D01*
M02*
