G04*
G04 #@! TF.GenerationSoftware,Altium Limited,Altium Designer,18.0.7 (293)*
G04*
G04 Layer_Physical_Order=2*
G04 Layer_Color=16711680*
%FSLAX25Y25*%
%MOIN*%
G70*
G01*
G75*
%ADD10C,0.00500*%
%ADD11C,0.00600*%
%ADD12C,0.00787*%
%ADD14C,0.01968*%
%ADD18C,0.00394*%
%ADD24C,0.00000*%
%ADD25C,0.00781*%
%ADD26C,0.00300*%
%ADD27C,0.00197*%
%ADD67C,0.07874*%
%ADD68C,0.01181*%
%ADD69C,0.05000*%
%ADD70C,0.03937*%
%ADD71C,0.05512*%
%ADD72C,0.06693*%
%ADD73R,0.06693X0.06693*%
%ADD74C,0.07500*%
G04:AMPARAMS|DCode=75|XSize=75mil|YSize=75mil|CornerRadius=9.38mil|HoleSize=0mil|Usage=FLASHONLY|Rotation=90.000|XOffset=0mil|YOffset=0mil|HoleType=Round|Shape=RoundedRectangle|*
%AMROUNDEDRECTD75*
21,1,0.07500,0.05625,0,0,90.0*
21,1,0.05625,0.07500,0,0,90.0*
1,1,0.01875,0.02813,0.02813*
1,1,0.01875,0.02813,-0.02813*
1,1,0.01875,-0.02813,-0.02813*
1,1,0.01875,-0.02813,0.02813*
%
%ADD75ROUNDEDRECTD75*%
%ADD76C,0.11811*%
%ADD77C,0.04724*%
%ADD78R,0.05200X0.05200*%
%ADD79C,0.05200*%
%ADD80C,0.05906*%
%ADD81C,0.07087*%
%ADD82C,0.07677*%
%ADD83R,0.07677X0.07677*%
%ADD84O,0.07874X0.03937*%
%ADD85R,0.07874X0.03937*%
%ADD86R,0.09803X0.09803*%
%ADD87C,0.09803*%
%ADD88O,0.07000X0.06000*%
G04:AMPARAMS|DCode=89|XSize=60mil|YSize=70mil|CornerRadius=0mil|HoleSize=0mil|Usage=FLASHONLY|Rotation=90.000|XOffset=0mil|YOffset=0mil|HoleType=Round|Shape=Octagon|*
%AMOCTAGOND89*
4,1,8,-0.03500,-0.01500,-0.03500,0.01500,-0.02000,0.03000,0.02000,0.03000,0.03500,0.01500,0.03500,-0.01500,0.02000,-0.03000,-0.02000,-0.03000,-0.03500,-0.01500,0.0*
%
%ADD89OCTAGOND89*%

%ADD90C,0.15902*%
%ADD91R,0.05906X0.05906*%
%ADD92R,0.06693X0.06693*%
G04:AMPARAMS|DCode=93|XSize=59.06mil|YSize=59.06mil|CornerRadius=7.38mil|HoleSize=0mil|Usage=FLASHONLY|Rotation=90.000|XOffset=0mil|YOffset=0mil|HoleType=Round|Shape=RoundedRectangle|*
%AMROUNDEDRECTD93*
21,1,0.05906,0.04429,0,0,90.0*
21,1,0.04429,0.05906,0,0,90.0*
1,1,0.01476,0.02215,0.02215*
1,1,0.01476,0.02215,-0.02215*
1,1,0.01476,-0.02215,-0.02215*
1,1,0.01476,-0.02215,0.02215*
%
%ADD93ROUNDEDRECTD93*%
%ADD94R,0.05512X0.05512*%
%ADD95O,0.15748X0.19685*%
%ADD96R,0.08268X0.08268*%
%ADD97C,0.08268*%
%ADD98P,0.23438X8X22.5*%
%ADD99C,0.05000*%
%ADD100C,0.01200*%
G36*
X570319Y725000D02*
X570307Y725112D01*
X570271Y725212D01*
X570212Y725301D01*
X570128Y725378D01*
X570021Y725443D01*
X569890Y725496D01*
X569735Y725537D01*
X569556Y725567D01*
X569353Y725585D01*
X569126Y725590D01*
Y726772D01*
X569353Y726778D01*
X569556Y726795D01*
X569735Y726825D01*
X569890Y726866D01*
X570021Y726919D01*
X570128Y726984D01*
X570212Y727061D01*
X570271Y727149D01*
X570307Y727250D01*
X570319Y727362D01*
Y725000D01*
D02*
G37*
G36*
X424475Y669302D02*
X424477Y669244D01*
X424502Y669170D01*
X424551Y669079D01*
X424623Y668971D01*
X424718Y668846D01*
X424978Y668547D01*
X425331Y668181D01*
X424496Y667346D01*
X424304Y667534D01*
X423706Y668054D01*
X423598Y668126D01*
X423507Y668175D01*
X423432Y668200D01*
X423375Y668202D01*
X423334Y668181D01*
X424496Y669343D01*
X424475Y669302D01*
D02*
G37*
G36*
X424511Y662387D02*
X424575Y661374D01*
X424636Y660928D01*
X424715Y660522D01*
X424814Y660157D01*
X424931Y659832D01*
X425068Y659547D01*
X425223Y659303D01*
X425397Y659099D01*
X424562Y658264D01*
X424358Y658438D01*
X424114Y658593D01*
X423829Y658730D01*
X423504Y658847D01*
X423139Y658946D01*
X422733Y659025D01*
X422287Y659086D01*
X421275Y659150D01*
X420708Y659153D01*
X424508Y662953D01*
X424511Y662387D01*
D02*
G37*
G36*
X442204Y651351D02*
X441812Y651738D01*
X441072Y652389D01*
X440723Y652653D01*
X440388Y652877D01*
X440067Y653060D01*
X439761Y653202D01*
X439469Y653304D01*
X439192Y653365D01*
X438929Y653386D01*
Y654567D01*
X439192Y654587D01*
X439469Y654648D01*
X439761Y654750D01*
X440067Y654892D01*
X440388Y655075D01*
X440723Y655299D01*
X441072Y655564D01*
X441812Y656215D01*
X442204Y656601D01*
Y651351D01*
D02*
G37*
G36*
X448635Y653388D02*
X448699Y652404D01*
X448758Y651971D01*
X448837Y651576D01*
X448934Y651220D01*
X449050Y650903D01*
X449184Y650624D01*
X449337Y650385D01*
X449509Y650184D01*
X448674Y649349D01*
X448473Y649521D01*
X448234Y649674D01*
X447955Y649809D01*
X447638Y649924D01*
X447282Y650021D01*
X446887Y650100D01*
X446454Y650159D01*
X445470Y650223D01*
X444919Y650226D01*
X448632Y653939D01*
X448635Y653388D01*
D02*
G37*
G36*
X493714Y633461D02*
X493754Y633240D01*
X493821Y633015D01*
X493915Y632784D01*
X494035Y632549D01*
X494183Y632309D01*
X494357Y632064D01*
X494557Y631814D01*
X495039Y631299D01*
X492295D01*
X490354Y629358D01*
X490350Y629722D01*
X490296Y630382D01*
X490246Y630678D01*
X490180Y630952D01*
X490099Y631204D01*
X490002Y631433D01*
X489890Y631640D01*
X489763Y631824D01*
X489620Y631986D01*
X490455Y632821D01*
X490617Y632678D01*
X490801Y632550D01*
X491008Y632438D01*
X491237Y632342D01*
X491489Y632261D01*
X491763Y632195D01*
X491936Y632165D01*
X492038Y632309D01*
X492185Y632549D01*
X492306Y632784D01*
X492399Y633015D01*
X492466Y633240D01*
X492506Y633461D01*
X492520Y633676D01*
X493701D01*
X493714Y633461D01*
D02*
G37*
G36*
X418613Y632237D02*
X418775Y632120D01*
X418953Y632017D01*
X419147Y631929D01*
X419357Y631854D01*
X419583Y631794D01*
X419824Y631747D01*
X420082Y631715D01*
X420356Y631697D01*
X420646Y631693D01*
X418307Y629354D01*
X418303Y629644D01*
X418253Y630176D01*
X418206Y630417D01*
X418146Y630643D01*
X418071Y630853D01*
X417983Y631047D01*
X417880Y631225D01*
X417763Y631387D01*
X417632Y631533D01*
X418467Y632368D01*
X418613Y632237D01*
D02*
G37*
G36*
X441953Y628346D02*
X441941Y628459D01*
X441905Y628559D01*
X441846Y628648D01*
X441762Y628724D01*
X441655Y628789D01*
X441524Y628843D01*
X441368Y628884D01*
X441189Y628913D01*
X440987Y628931D01*
X440760Y628937D01*
Y630118D01*
X440987Y630124D01*
X441189Y630142D01*
X441368Y630171D01*
X441524Y630213D01*
X441655Y630266D01*
X441762Y630331D01*
X441846Y630407D01*
X441905Y630496D01*
X441941Y630596D01*
X441953Y630709D01*
Y628346D01*
D02*
G37*
G36*
X423706Y621533D02*
X423575Y621387D01*
X423458Y621225D01*
X423356Y621047D01*
X423267Y620853D01*
X423193Y620643D01*
X423132Y620417D01*
X423086Y620176D01*
X423054Y619918D01*
X423035Y619644D01*
X423031Y619354D01*
X420693Y621693D01*
X420983Y621697D01*
X421514Y621747D01*
X421756Y621794D01*
X421982Y621854D01*
X422191Y621929D01*
X422385Y622017D01*
X422563Y622120D01*
X422725Y622237D01*
X422871Y622368D01*
X423706Y621533D01*
D02*
G37*
G36*
X566091Y615374D02*
X566232Y613169D01*
X566339Y612303D01*
X566469Y611594D01*
X566504Y611467D01*
X566620Y611410D01*
X567381Y611125D01*
X568233Y610883D01*
X568773Y610771D01*
X568810Y610789D01*
X569228Y611045D01*
X569671Y611357D01*
X570139Y611726D01*
X571152Y612635D01*
X571696Y613175D01*
Y610695D01*
X571958Y610759D01*
X572425Y610912D01*
X572826Y611089D01*
X573161Y611289D01*
X573430Y611513D01*
Y610342D01*
X573873Y610335D01*
Y609153D01*
X573430Y609146D01*
Y607975D01*
X573161Y608199D01*
X572826Y608399D01*
X572425Y608576D01*
X571958Y608729D01*
X571696Y608793D01*
Y608294D01*
X575148Y604843D01*
X574881Y604826D01*
X574601Y604770D01*
X574308Y604675D01*
X574003Y604541D01*
X573685Y604367D01*
X573354Y604155D01*
X573011Y603904D01*
X572286Y603284D01*
X571904Y602915D01*
X570753Y604066D01*
X570715Y604010D01*
X570429Y603541D01*
X570207Y603103D01*
X570049Y602694D01*
X569953Y602316D01*
X569921Y601967D01*
X567421Y604467D01*
Y601969D01*
X567839Y601551D01*
X567593Y601269D01*
X567421Y601018D01*
Y599470D01*
X567423Y599469D01*
X567421Y599468D01*
X567160Y599390D01*
X566925Y599154D01*
X566719Y598760D01*
X566539Y598209D01*
X566388Y597500D01*
X566057Y593091D01*
X566043Y591595D01*
X562121Y596763D01*
X561751Y597133D01*
X561801Y597184D01*
X558169Y601969D01*
X564889Y608604D01*
Y609796D01*
X562106Y609153D01*
X559324Y609796D01*
Y606958D01*
X558839Y607375D01*
X558262Y607749D01*
X557593Y608078D01*
X556832Y608363D01*
X555979Y608605D01*
X555035Y608802D01*
X553999Y608956D01*
X551651Y609131D01*
X550340Y609153D01*
Y610335D01*
X551651Y610357D01*
X553999Y610532D01*
X555035Y610686D01*
X555979Y610883D01*
X556832Y611125D01*
X557593Y611410D01*
X557709Y611467D01*
X557744Y611594D01*
X557874Y612303D01*
X558158Y616713D01*
X558169Y618209D01*
X566043D01*
X566091Y615374D01*
D02*
G37*
G36*
X385789Y516191D02*
X385239Y516187D01*
X384255Y516124D01*
X383821Y516065D01*
X383426Y515986D01*
X383070Y515889D01*
X382753Y515773D01*
X382475Y515639D01*
X382235Y515486D01*
X382035Y515314D01*
X381200Y516149D01*
X381371Y516350D01*
X381525Y516589D01*
X381659Y516867D01*
X381775Y517184D01*
X381872Y517541D01*
X381950Y517935D01*
X382010Y518369D01*
X382073Y519353D01*
X382077Y519904D01*
X385789Y516191D01*
D02*
G37*
G36*
X358157Y508313D02*
X358193Y508213D01*
X358253Y508124D01*
X358336Y508047D01*
X358444Y507982D01*
X358575Y507929D01*
X358730Y507888D01*
X358909Y507858D01*
X359112Y507840D01*
X359338Y507835D01*
Y506653D01*
X359112Y506647D01*
X358909Y506630D01*
X358730Y506600D01*
X358575Y506559D01*
X358444Y506506D01*
X358336Y506441D01*
X358253Y506364D01*
X358193Y506276D01*
X358157Y506175D01*
X358145Y506063D01*
Y508425D01*
X358157Y508313D01*
D02*
G37*
G36*
X383741Y496197D02*
X383650Y496263D01*
X383543Y496295D01*
X383419Y496295D01*
X383279Y496262D01*
X383122Y496195D01*
X382949Y496096D01*
X382758Y495963D01*
X382552Y495798D01*
X382089Y495368D01*
X381254Y496203D01*
X381485Y496443D01*
X381849Y496873D01*
X381982Y497063D01*
X382081Y497236D01*
X382148Y497393D01*
X382181Y497534D01*
X382181Y497657D01*
X382149Y497765D01*
X382083Y497855D01*
X383741Y496197D01*
D02*
G37*
G36*
X223228Y787402D02*
X352758Y787402D01*
X395650Y787402D01*
Y588366D01*
X297644Y490361D01*
X297146Y490393D01*
X297069Y490494D01*
X296284Y491096D01*
X295370Y491474D01*
X294390Y491603D01*
X293409Y491474D01*
X292496Y491096D01*
X291711Y490494D01*
X291109Y489709D01*
X290731Y488796D01*
X290601Y487815D01*
X290731Y486834D01*
X291109Y485921D01*
X291711Y485136D01*
X291811Y485059D01*
X291844Y484560D01*
X280800Y473516D01*
Y418330D01*
X279886Y418210D01*
X279035Y417857D01*
X278304Y417296D01*
X277743Y416565D01*
X277390Y415714D01*
X277270Y414800D01*
X277390Y413886D01*
X277743Y413035D01*
X278304Y412304D01*
X279035Y411743D01*
X279886Y411390D01*
X280800Y411270D01*
Y284184D01*
X280735Y284157D01*
X280004Y283596D01*
X279443Y282865D01*
X279090Y282014D01*
X278970Y281100D01*
X279090Y280186D01*
X279156Y280028D01*
X278822Y279528D01*
X279363D01*
X279443Y279335D01*
X280004Y278604D01*
X280735Y278043D01*
X281586Y277690D01*
X282500Y277570D01*
X283414Y277690D01*
X283557Y277749D01*
X344500Y216806D01*
X344655Y216703D01*
Y212022D01*
X330600D01*
X329979Y211898D01*
X329453Y211547D01*
X300631Y182724D01*
X253288D01*
X252967Y183498D01*
X252206Y184490D01*
X251214Y185251D01*
X250058Y185730D01*
X248818Y185893D01*
X247578Y185730D01*
X246423Y185251D01*
X245430Y184490D01*
X244669Y183498D01*
X244191Y182342D01*
X244027Y181102D01*
X244191Y179862D01*
X244669Y178707D01*
X245430Y177715D01*
X246423Y176953D01*
X247578Y176475D01*
X248818Y176311D01*
X249310Y176376D01*
X259999Y165687D01*
Y149915D01*
X251464Y141380D01*
X209612D01*
X209530Y141486D01*
X208622Y142182D01*
X207565Y142620D01*
X206430Y142770D01*
X205296Y142620D01*
X204238Y142182D01*
X203330Y141486D01*
X202634Y140578D01*
X202196Y139521D01*
X202046Y138386D01*
X202196Y137251D01*
X202634Y136194D01*
X203330Y135286D01*
X203436Y135205D01*
Y122008D01*
X203538Y121233D01*
X203837Y120511D01*
X204313Y119891D01*
X219896Y104308D01*
X220516Y103832D01*
X221238Y103533D01*
X222013Y103431D01*
X246551D01*
X246925Y103144D01*
X247838Y102766D01*
X248819Y102637D01*
X249799Y102766D01*
X250713Y103144D01*
X251498Y103746D01*
X252100Y104531D01*
X252478Y105445D01*
X252607Y106425D01*
X252478Y107406D01*
X252100Y108319D01*
X251498Y109104D01*
X250713Y109706D01*
X249799Y110084D01*
X248819Y110213D01*
X247838Y110084D01*
X246925Y109706D01*
X246551Y109419D01*
X223253D01*
X209424Y123248D01*
Y135205D01*
X209530Y135286D01*
X209612Y135392D01*
X252704D01*
X253479Y135494D01*
X254202Y135793D01*
X254822Y136269D01*
X265111Y146558D01*
X265586Y147178D01*
X265710Y147477D01*
X265885Y147900D01*
X265987Y148675D01*
Y166927D01*
X265885Y167702D01*
X265710Y168125D01*
X265586Y168424D01*
X265111Y169044D01*
X255136Y179019D01*
X255328Y179481D01*
X300134D01*
X300326Y179019D01*
X292623Y171317D01*
X286238D01*
Y162624D01*
X290696D01*
X327715Y125605D01*
Y107509D01*
X327428Y107136D01*
X327049Y106222D01*
X326920Y105241D01*
X327049Y104261D01*
X327428Y103347D01*
X328030Y102563D01*
X328814Y101961D01*
X329728Y101582D01*
X330709Y101453D01*
X331689Y101582D01*
X332603Y101961D01*
X333387Y102563D01*
X333989Y103347D01*
X334368Y104261D01*
X334497Y105241D01*
X334368Y106222D01*
X333989Y107136D01*
X333703Y107509D01*
Y126845D01*
X333601Y127620D01*
X333302Y128342D01*
X332826Y128962D01*
X294931Y166858D01*
Y169009D01*
X303424Y177503D01*
X326243D01*
X326559Y176739D01*
X327321Y175746D01*
X328313Y174985D01*
X329469Y174506D01*
X330709Y174343D01*
X331949Y174506D01*
X333104Y174985D01*
X334096Y175746D01*
X334858Y176739D01*
X335336Y177894D01*
X335500Y179134D01*
X335336Y180374D01*
X334858Y181529D01*
X334096Y182522D01*
X333104Y183283D01*
X331949Y183762D01*
X330709Y183925D01*
X329469Y183762D01*
X328313Y183283D01*
X327321Y182522D01*
X326559Y181529D01*
X326243Y180765D01*
X303912D01*
X303721Y181227D01*
X325421Y202927D01*
X325921Y202720D01*
Y197740D01*
X326071Y196984D01*
X326499Y196343D01*
X327140Y195915D01*
X327896Y195765D01*
X333521D01*
X334277Y195915D01*
X334918Y196343D01*
X335346Y196984D01*
X335497Y197740D01*
Y203365D01*
X335346Y204121D01*
X334918Y204762D01*
X334277Y205190D01*
X333521Y205341D01*
X328541D01*
X328334Y205841D01*
X331272Y208778D01*
X344655D01*
Y133189D01*
X376190Y101655D01*
X356805Y82270D01*
X350394D01*
X349480Y82150D01*
X348629Y81797D01*
X347898Y81236D01*
X347337Y80505D01*
X346984Y79654D01*
X346864Y78740D01*
X346984Y77826D01*
X347337Y76975D01*
X347898Y76244D01*
X348629Y75683D01*
X349480Y75330D01*
X350394Y75210D01*
X358268D01*
X359181Y75330D01*
X360033Y75683D01*
X360764Y76244D01*
X381182Y96662D01*
X383498Y94346D01*
X339127Y49975D01*
X332677D01*
X331763Y49855D01*
X330912Y49502D01*
X330181Y48941D01*
X329620Y48210D01*
X329267Y47359D01*
X329147Y46445D01*
Y43772D01*
X328685Y43581D01*
X309230Y63035D01*
X308499Y63596D01*
X307648Y63949D01*
X306734Y64069D01*
X294931D01*
Y64886D01*
X291230D01*
X274879Y81236D01*
X274148Y81797D01*
X273297Y82150D01*
X272383Y82270D01*
X221476D01*
X221386Y82307D01*
X220472Y82428D01*
X219559Y82307D01*
X218707Y81955D01*
X217976Y81394D01*
X217415Y80663D01*
X217062Y79811D01*
X216942Y78898D01*
X216953Y78819D01*
X216942Y78740D01*
X217062Y77826D01*
X217415Y76975D01*
X217976Y76244D01*
X218707Y75683D01*
X219559Y75330D01*
X220472Y75210D01*
X270921D01*
X286238Y59893D01*
Y56193D01*
X294931D01*
Y57009D01*
X305272D01*
X328212Y34068D01*
X328943Y33507D01*
X329079Y33451D01*
X329289Y33177D01*
X330282Y32415D01*
X331437Y31937D01*
X332677Y31773D01*
X333917Y31937D01*
X335073Y32415D01*
X336065Y33177D01*
X336826Y34169D01*
X337305Y35324D01*
X337468Y36564D01*
X337305Y37804D01*
X336826Y38960D01*
X336207Y39766D01*
Y42915D01*
X340589D01*
X341503Y43035D01*
X342354Y43388D01*
X343086Y43949D01*
X388490Y89354D01*
X397638Y80206D01*
Y21859D01*
X390813D01*
X378139Y34533D01*
X377108Y35324D01*
X375907Y35822D01*
X374618Y35991D01*
X373329Y35822D01*
X372128Y35324D01*
X371097Y34533D01*
X370306Y33502D01*
X369808Y32301D01*
X369638Y31012D01*
X369808Y29723D01*
X370306Y28522D01*
X371097Y27491D01*
X385229Y13358D01*
X385229Y13358D01*
X386261Y12567D01*
X387462Y12070D01*
X388751Y11900D01*
X397638D01*
Y0D01*
X79134D01*
X78740Y256D01*
X78740Y413D01*
X256Y78898D01*
X0Y79334D01*
Y279272D01*
X256Y279528D01*
X354D01*
X0Y279881D01*
X256Y708406D01*
X0Y708661D01*
X78740Y787402D01*
X223228Y787402D01*
D02*
G37*
G36*
X389317Y470135D02*
X389174Y469974D01*
X389047Y469789D01*
X388935Y469583D01*
X388838Y469353D01*
X388757Y469102D01*
X388691Y468828D01*
X388641Y468532D01*
X388606Y468213D01*
X388583Y467508D01*
X385854Y470236D01*
X386218Y470240D01*
X386878Y470294D01*
X387174Y470345D01*
X387448Y470410D01*
X387700Y470492D01*
X387929Y470588D01*
X388136Y470700D01*
X388320Y470828D01*
X388482Y470971D01*
X389317Y470135D01*
D02*
G37*
G36*
X424512Y467089D02*
X424566Y466429D01*
X424616Y466133D01*
X424682Y465859D01*
X424763Y465607D01*
X424860Y465378D01*
X424972Y465171D01*
X425099Y464987D01*
X425242Y464825D01*
X424407Y463990D01*
X424245Y464133D01*
X424061Y464260D01*
X423854Y464373D01*
X423625Y464469D01*
X423374Y464550D01*
X423100Y464616D01*
X422803Y464666D01*
X422484Y464701D01*
X421780Y464725D01*
X424508Y467453D01*
X424512Y467089D01*
D02*
G37*
G36*
X566092Y470486D02*
X566236Y469814D01*
X566476Y469108D01*
X566813Y468369D01*
X567245Y467595D01*
X567773Y466788D01*
X568397Y465946D01*
X569932Y464162D01*
X570844Y463219D01*
X570009Y462384D01*
X569066Y463296D01*
X567282Y464832D01*
X566441Y465456D01*
X565633Y465984D01*
X564860Y466416D01*
X564120Y466752D01*
X563414Y466992D01*
X562742Y467137D01*
X562104Y467185D01*
X566043Y471125D01*
X566092Y470486D01*
D02*
G37*
G36*
X361201Y460815D02*
X360529Y460112D01*
X359398Y458730D01*
X358938Y458051D01*
X358549Y457380D01*
X358231Y456717D01*
X357983Y456062D01*
X357807Y455415D01*
X357701Y454777D01*
X357665Y454146D01*
X350996Y460815D01*
X351627Y460850D01*
X352266Y460956D01*
X352913Y461133D01*
X353567Y461380D01*
X354230Y461699D01*
X354901Y462088D01*
X355580Y462547D01*
X356267Y463078D01*
X356962Y463679D01*
X357665Y464350D01*
X361201Y460815D01*
D02*
G37*
G36*
X580427Y453669D02*
X580682Y453511D01*
X580966Y453389D01*
X581280Y453301D01*
X581624Y453248D01*
X581998Y453230D01*
X582402Y453247D01*
X582835Y453298D01*
X583299Y453385D01*
X583792Y453506D01*
X581081Y448866D01*
X580918Y449494D01*
X580149Y451853D01*
X580004Y452169D01*
X579863Y452432D01*
X579725Y452644D01*
X579590Y452804D01*
X580202Y453861D01*
X580427Y453669D01*
D02*
G37*
G36*
X327485Y447933D02*
X327473Y448045D01*
X327437Y448146D01*
X327377Y448234D01*
X327294Y448311D01*
X327186Y448376D01*
X327055Y448429D01*
X326900Y448470D01*
X326721Y448500D01*
X326518Y448518D01*
X326292Y448524D01*
Y449705D01*
X326518Y449711D01*
X326721Y449728D01*
X326900Y449758D01*
X327055Y449799D01*
X327186Y449852D01*
X327294Y449917D01*
X327377Y449994D01*
X327437Y450083D01*
X327473Y450183D01*
X327485Y450295D01*
Y447933D01*
D02*
G37*
G36*
X296618Y449490D02*
X297123Y449061D01*
X297368Y448887D01*
X297608Y448740D01*
X297844Y448620D01*
X298074Y448526D01*
X298299Y448459D01*
X298520Y448419D01*
X298735Y448406D01*
Y447224D01*
X298520Y447211D01*
X298299Y447171D01*
X298074Y447104D01*
X297844Y447010D01*
X297608Y446890D01*
X297368Y446743D01*
X297123Y446568D01*
X296873Y446368D01*
X296358Y445886D01*
Y449744D01*
X296618Y449490D01*
D02*
G37*
G36*
X584765Y436949D02*
X584198Y436945D01*
X583185Y436881D01*
X582739Y436821D01*
X582333Y436741D01*
X581968Y436643D01*
X581643Y436525D01*
X581358Y436389D01*
X581114Y436234D01*
X580910Y436059D01*
X580075Y436894D01*
X580249Y437098D01*
X580405Y437343D01*
X580541Y437627D01*
X580659Y437952D01*
X580757Y438318D01*
X580836Y438723D01*
X580897Y439169D01*
X580961Y440182D01*
X580965Y440749D01*
X584765Y436949D01*
D02*
G37*
G36*
X572411Y434730D02*
X572856Y434359D01*
X573074Y434208D01*
X573290Y434080D01*
X573503Y433976D01*
X573713Y433895D01*
X573921Y433837D01*
X574126Y433802D01*
X574329Y433790D01*
Y432610D01*
X574126Y432598D01*
X573921Y432563D01*
X573713Y432505D01*
X573503Y432424D01*
X573290Y432320D01*
X573074Y432192D01*
X572856Y432041D01*
X572635Y431867D01*
X572411Y431670D01*
X572185Y431450D01*
Y434950D01*
X572411Y434730D01*
D02*
G37*
G36*
X441363Y431307D02*
X441348Y431417D01*
X441303Y431517D01*
X441228Y431604D01*
X441122Y431680D01*
X440987Y431744D01*
X440822Y431797D01*
X440626Y431837D01*
X440401Y431867D01*
X440145Y431884D01*
X439859Y431890D01*
Y433071D01*
X440145Y433077D01*
X440626Y433123D01*
X440822Y433164D01*
X440987Y433217D01*
X441122Y433281D01*
X441228Y433357D01*
X441303Y433444D01*
X441348Y433543D01*
X441363Y433654D01*
Y431307D01*
D02*
G37*
G36*
X535328Y433323D02*
X535498Y433203D01*
X535686Y433097D01*
X535892Y433005D01*
X536117Y432928D01*
X536360Y432866D01*
X536621Y432818D01*
X536900Y432785D01*
X537197Y432766D01*
X537513Y432762D01*
X535038Y430287D01*
X535034Y430603D01*
X534982Y431180D01*
X534934Y431440D01*
X534872Y431683D01*
X534795Y431908D01*
X534703Y432114D01*
X534597Y432302D01*
X534477Y432472D01*
X534342Y432623D01*
X535177Y433458D01*
X535328Y433323D01*
D02*
G37*
G36*
X490580Y426653D02*
X490215Y427012D01*
X489524Y427617D01*
X489196Y427863D01*
X488881Y428071D01*
X488579Y428241D01*
X488288Y428373D01*
X488010Y428468D01*
X487744Y428524D01*
X487491Y428543D01*
Y429724D01*
X487744Y429743D01*
X488010Y429800D01*
X488288Y429894D01*
X488579Y430027D01*
X488881Y430197D01*
X489196Y430405D01*
X489524Y430650D01*
X490215Y431255D01*
X490580Y431614D01*
Y426653D01*
D02*
G37*
G36*
X448807Y428549D02*
X448842Y428449D01*
X448902Y428360D01*
X448986Y428284D01*
X449093Y428219D01*
X449224Y428165D01*
X449379Y428124D01*
X449558Y428095D01*
X449761Y428077D01*
X449988Y428071D01*
Y426890D01*
X449761Y426884D01*
X449558Y426866D01*
X449379Y426837D01*
X449224Y426795D01*
X449093Y426742D01*
X448986Y426677D01*
X448902Y426601D01*
X448842Y426512D01*
X448807Y426411D01*
X448795Y426299D01*
Y428661D01*
X448807Y428549D01*
D02*
G37*
G36*
X388586Y427089D02*
X388641Y426429D01*
X388691Y426133D01*
X388757Y425859D01*
X388838Y425607D01*
X388935Y425378D01*
X389047Y425171D01*
X389174Y424987D01*
X389317Y424825D01*
X388482Y423990D01*
X388320Y424133D01*
X388136Y424261D01*
X387929Y424373D01*
X387700Y424469D01*
X387448Y424550D01*
X387174Y424616D01*
X386878Y424666D01*
X386559Y424701D01*
X385854Y424725D01*
X388583Y427453D01*
X388586Y427089D01*
D02*
G37*
G36*
X573104Y425359D02*
X573156Y424783D01*
X573204Y424522D01*
X573266Y424279D01*
X573343Y424055D01*
X573434Y423849D01*
X573540Y423661D01*
X573661Y423491D01*
X573796Y423339D01*
X572961Y422504D01*
X572809Y422639D01*
X572639Y422760D01*
X572451Y422866D01*
X572245Y422957D01*
X572021Y423034D01*
X571778Y423097D01*
X571517Y423144D01*
X571238Y423177D01*
X570941Y423196D01*
X570625Y423200D01*
X573100Y425675D01*
X573104Y425359D01*
D02*
G37*
G36*
X551991Y423661D02*
X552161Y423540D01*
X552349Y423434D01*
X552555Y423343D01*
X552779Y423266D01*
X553022Y423204D01*
X553283Y423156D01*
X553562Y423123D01*
X553859Y423104D01*
X554175Y423100D01*
X551700Y420625D01*
X551696Y420941D01*
X551644Y421517D01*
X551596Y421778D01*
X551534Y422021D01*
X551457Y422245D01*
X551366Y422451D01*
X551260Y422639D01*
X551139Y422809D01*
X551004Y422961D01*
X551839Y423796D01*
X551991Y423661D01*
D02*
G37*
G36*
X580989Y420184D02*
X580977Y420296D01*
X580941Y420396D01*
X580881Y420485D01*
X580798Y420562D01*
X580690Y420627D01*
X580559Y420680D01*
X580404Y420721D01*
X580225Y420751D01*
X580022Y420768D01*
X579796Y420774D01*
Y421955D01*
X580022Y421961D01*
X580225Y421979D01*
X580404Y422009D01*
X580559Y422050D01*
X580690Y422103D01*
X580798Y422168D01*
X580881Y422245D01*
X580941Y422333D01*
X580977Y422434D01*
X580989Y422546D01*
Y420184D01*
D02*
G37*
G36*
X291352Y419914D02*
X291339Y419997D01*
X291298Y420072D01*
X291231Y420138D01*
X291136Y420196D01*
X291014Y420244D01*
X290865Y420284D01*
X290690Y420315D01*
X290487Y420337D01*
X290000Y420354D01*
Y421535D01*
X290257Y421540D01*
X290690Y421575D01*
X290865Y421606D01*
X291014Y421645D01*
X291136Y421694D01*
X291231Y421751D01*
X291298Y421817D01*
X291339Y421892D01*
X291352Y421976D01*
Y419914D01*
D02*
G37*
G36*
X529528Y419436D02*
X529268Y419690D01*
X528763Y420118D01*
X528517Y420292D01*
X528277Y420440D01*
X528042Y420560D01*
X527812Y420654D01*
X527586Y420721D01*
X527366Y420761D01*
X527150Y420774D01*
Y421955D01*
X527366Y421969D01*
X527586Y422009D01*
X527812Y422076D01*
X528042Y422169D01*
X528277Y422290D01*
X528517Y422437D01*
X528763Y422611D01*
X529013Y422812D01*
X529528Y423294D01*
Y419436D01*
D02*
G37*
G36*
X330384Y416162D02*
X329983Y416158D01*
X329259Y416102D01*
X328935Y416049D01*
X328637Y415981D01*
X328365Y415897D01*
X328118Y415796D01*
X327898Y415680D01*
X327702Y415547D01*
X327533Y415398D01*
X326697Y416233D01*
X326846Y416403D01*
X326979Y416598D01*
X327095Y416819D01*
X327196Y417066D01*
X327280Y417338D01*
X327349Y417636D01*
X327401Y417960D01*
X327437Y418309D01*
X327461Y419085D01*
X330384Y416162D01*
D02*
G37*
G36*
X573255Y417759D02*
X573307Y417183D01*
X573354Y416922D01*
X573417Y416679D01*
X573494Y416455D01*
X573585Y416249D01*
X573691Y416061D01*
X573812Y415891D01*
X573947Y415739D01*
X573112Y414904D01*
X572960Y415039D01*
X572790Y415160D01*
X572602Y415266D01*
X572396Y415357D01*
X572172Y415434D01*
X571929Y415496D01*
X571668Y415544D01*
X571389Y415578D01*
X571092Y415596D01*
X570776Y415600D01*
X573251Y418075D01*
X573255Y417759D01*
D02*
G37*
G36*
X298514Y417008D02*
X298559Y416909D01*
X298635Y416821D01*
X298740Y416745D01*
X298875Y416681D01*
X299041Y416629D01*
X299236Y416588D01*
X299462Y416559D01*
X299717Y416541D01*
X300003Y416535D01*
Y415354D01*
X299717Y415348D01*
X299236Y415302D01*
X299041Y415261D01*
X298875Y415208D01*
X298740Y415144D01*
X298635Y415068D01*
X298559Y414981D01*
X298514Y414882D01*
X298499Y414771D01*
Y417119D01*
X298514Y417008D01*
D02*
G37*
G36*
X283304Y414459D02*
X283356Y413883D01*
X283403Y413622D01*
X283466Y413379D01*
X283543Y413155D01*
X283634Y412949D01*
X283740Y412761D01*
X283861Y412591D01*
X283996Y412439D01*
X283161Y411604D01*
X283009Y411739D01*
X282839Y411860D01*
X282651Y411966D01*
X282445Y412057D01*
X282221Y412134D01*
X281978Y412196D01*
X281717Y412244D01*
X281438Y412278D01*
X281141Y412296D01*
X280825Y412300D01*
X283300Y414775D01*
X283304Y414459D01*
D02*
G37*
G36*
X298905Y412014D02*
X298941Y411913D01*
X299001Y411825D01*
X299084Y411748D01*
X299192Y411683D01*
X299323Y411630D01*
X299478Y411588D01*
X299657Y411559D01*
X299860Y411541D01*
X300086Y411535D01*
Y410354D01*
X299860Y410348D01*
X299657Y410331D01*
X299478Y410301D01*
X299323Y410260D01*
X299192Y410207D01*
X299084Y410142D01*
X299001Y410065D01*
X298941Y409976D01*
X298905Y409876D01*
X298893Y409764D01*
Y412126D01*
X298905Y412014D01*
D02*
G37*
G36*
X582062Y409662D02*
X581659Y410060D01*
X580897Y410731D01*
X580539Y411004D01*
X580196Y411234D01*
X579868Y411423D01*
X579555Y411570D01*
X579257Y411675D01*
X578975Y411737D01*
X578707Y411758D01*
Y412940D01*
X578975Y412960D01*
X579257Y413023D01*
X579555Y413128D01*
X579868Y413275D01*
X580196Y413464D01*
X580539Y413694D01*
X580897Y413967D01*
X581659Y414638D01*
X582062Y415036D01*
Y409662D01*
D02*
G37*
G36*
X551715Y408550D02*
X551489Y408770D01*
X551044Y409141D01*
X550826Y409292D01*
X550610Y409420D01*
X550397Y409524D01*
X550187Y409605D01*
X549979Y409663D01*
X549774Y409698D01*
X549571Y409710D01*
Y410890D01*
X549774Y410902D01*
X549979Y410937D01*
X550187Y410995D01*
X550397Y411076D01*
X550610Y411180D01*
X550826Y411308D01*
X551044Y411459D01*
X551265Y411633D01*
X551489Y411830D01*
X551715Y412050D01*
Y408550D01*
D02*
G37*
G36*
X572451Y402916D02*
X572326Y402783D01*
X572217Y402653D01*
X572126Y402526D01*
X572052Y402402D01*
X571994Y402280D01*
X571954Y402161D01*
X571931Y402044D01*
X571925Y401931D01*
X571937Y401820D01*
X571965Y401712D01*
X570411Y403265D01*
X570520Y403236D01*
X570631Y403225D01*
X570744Y403231D01*
X570861Y403254D01*
X570980Y403295D01*
X571102Y403352D01*
X571226Y403426D01*
X571353Y403517D01*
X571483Y403626D01*
X571616Y403751D01*
X572451Y402916D01*
D02*
G37*
G36*
X533648Y401952D02*
X533422Y402173D01*
X532977Y402544D01*
X532759Y402695D01*
X532544Y402822D01*
X532330Y402926D01*
X532120Y403008D01*
X531912Y403065D01*
X531707Y403100D01*
X531504Y403112D01*
Y404293D01*
X531707Y404305D01*
X531912Y404339D01*
X532120Y404397D01*
X532330Y404479D01*
X532544Y404583D01*
X532759Y404710D01*
X532977Y404861D01*
X533198Y405035D01*
X533422Y405232D01*
X533648Y405452D01*
Y401952D01*
D02*
G37*
G36*
X582062Y400646D02*
X581659Y401045D01*
X580897Y401716D01*
X580539Y401988D01*
X580196Y402219D01*
X579868Y402407D01*
X579555Y402554D01*
X579257Y402659D01*
X578975Y402722D01*
X578707Y402743D01*
Y403924D01*
X578975Y403945D01*
X579257Y404008D01*
X579555Y404113D01*
X579868Y404259D01*
X580196Y404448D01*
X580539Y404679D01*
X580897Y404951D01*
X581659Y405622D01*
X582062Y406020D01*
Y400646D01*
D02*
G37*
G36*
X383115Y391967D02*
X383551Y391597D01*
X383743Y391462D01*
X383919Y391361D01*
X384077Y391293D01*
X384219Y391258D01*
X384344Y391257D01*
X384451Y391289D01*
X384542Y391355D01*
X382884Y389697D01*
X382949Y389787D01*
X382982Y389895D01*
X382980Y390020D01*
X382946Y390161D01*
X382878Y390320D01*
X382776Y390495D01*
X382642Y390688D01*
X382473Y390897D01*
X382037Y391367D01*
X382872Y392202D01*
X383115Y391967D01*
D02*
G37*
G36*
X552721Y388360D02*
X552385Y388483D01*
X551004Y388906D01*
X550788Y388951D01*
X550415Y389003D01*
X550258Y389009D01*
X549652Y390191D01*
X549874Y390203D01*
X550082Y390242D01*
X550275Y390307D01*
X550454Y390398D01*
X550619Y390514D01*
X550769Y390657D01*
X550905Y390825D01*
X551026Y391020D01*
X551134Y391240D01*
X551227Y391486D01*
X552721Y388360D01*
D02*
G37*
G36*
X421331Y375374D02*
X420967Y375370D01*
X420307Y375316D01*
X420011Y375266D01*
X419737Y375200D01*
X419485Y375119D01*
X419256Y375022D01*
X419049Y374910D01*
X418865Y374783D01*
X418703Y374640D01*
X417868Y375475D01*
X418011Y375637D01*
X418138Y375821D01*
X418250Y376028D01*
X418347Y376257D01*
X418428Y376508D01*
X418494Y376782D01*
X418544Y377079D01*
X418579Y377398D01*
X418602Y378102D01*
X421331Y375374D01*
D02*
G37*
G36*
X511000Y373902D02*
X489500D01*
Y413402D01*
X511000D01*
Y373902D01*
D02*
G37*
G36*
X529528Y364528D02*
X529268Y364782D01*
X528763Y365210D01*
X528517Y365384D01*
X528277Y365531D01*
X528042Y365652D01*
X527812Y365746D01*
X527586Y365812D01*
X527366Y365853D01*
X527150Y365866D01*
Y367047D01*
X527366Y367060D01*
X527586Y367101D01*
X527812Y367168D01*
X528042Y367261D01*
X528277Y367382D01*
X528517Y367529D01*
X528763Y367703D01*
X529013Y367904D01*
X529528Y368386D01*
Y364528D01*
D02*
G37*
G36*
X301518Y364582D02*
X301437Y364490D01*
X301389Y364407D01*
X301375Y364334D01*
X301394Y364270D01*
X301447Y364216D01*
X301533Y364173D01*
X301652Y364139D01*
X301805Y364114D01*
X301991Y364099D01*
X302211Y364094D01*
X299604Y362913D01*
X298178Y364094D01*
X298411Y364103D01*
X298637Y364128D01*
X298856Y364170D01*
X299068Y364228D01*
X299273Y364303D01*
X299471Y364395D01*
X299662Y364504D01*
X299847Y364629D01*
X300024Y364771D01*
X300195Y364930D01*
X301518Y364582D01*
D02*
G37*
G36*
X389317Y363442D02*
X389174Y363281D01*
X389047Y363096D01*
X388935Y362890D01*
X388838Y362661D01*
X388757Y362409D01*
X388691Y362135D01*
X388662Y361962D01*
X388805Y361860D01*
X389045Y361713D01*
X389281Y361592D01*
X389511Y361498D01*
X389736Y361432D01*
X389957Y361391D01*
X390172Y361378D01*
Y360197D01*
X389957Y360184D01*
X389736Y360143D01*
X389511Y360076D01*
X389281Y359983D01*
X389045Y359862D01*
X388805Y359715D01*
X388560Y359541D01*
X388310Y359340D01*
X387795Y358858D01*
Y361603D01*
X385854Y363543D01*
X386218Y363547D01*
X386878Y363601D01*
X387174Y363652D01*
X387448Y363717D01*
X387700Y363799D01*
X387929Y363895D01*
X388136Y364007D01*
X388320Y364135D01*
X388482Y364278D01*
X389317Y363442D01*
D02*
G37*
G36*
X299397Y359573D02*
X299433Y359472D01*
X299493Y359384D01*
X299576Y359307D01*
X299684Y359242D01*
X299815Y359189D01*
X299970Y359148D01*
X300149Y359118D01*
X300352Y359101D01*
X300578Y359095D01*
Y357913D01*
X300352Y357908D01*
X300149Y357890D01*
X299970Y357860D01*
X299815Y357819D01*
X299684Y357766D01*
X299576Y357701D01*
X299493Y357624D01*
X299433Y357536D01*
X299397Y357435D01*
X299385Y357323D01*
Y359685D01*
X299397Y359573D01*
D02*
G37*
G36*
X441363Y354614D02*
X441348Y354724D01*
X441303Y354824D01*
X441228Y354911D01*
X441122Y354987D01*
X440987Y355051D01*
X440822Y355103D01*
X440626Y355144D01*
X440401Y355173D01*
X440145Y355191D01*
X439859Y355197D01*
Y356378D01*
X440145Y356384D01*
X440626Y356430D01*
X440822Y356471D01*
X440987Y356524D01*
X441122Y356588D01*
X441228Y356664D01*
X441303Y356751D01*
X441348Y356850D01*
X441363Y356961D01*
Y354614D01*
D02*
G37*
G36*
X328208Y356691D02*
X328644Y356321D01*
X328836Y356186D01*
X329012Y356084D01*
X329170Y356016D01*
X329312Y355982D01*
X329437Y355980D01*
X329544Y356013D01*
X329635Y356078D01*
X327977Y354420D01*
X328043Y354511D01*
X328075Y354619D01*
X328074Y354743D01*
X328039Y354885D01*
X327971Y355043D01*
X327869Y355219D01*
X327735Y355411D01*
X327566Y355621D01*
X327130Y356090D01*
X327965Y356926D01*
X328208Y356691D01*
D02*
G37*
G36*
X492913Y351187D02*
X492452Y351202D01*
X491617Y351169D01*
X491242Y351119D01*
X490896Y351049D01*
X490578Y350956D01*
X490288Y350842D01*
X490027Y350706D01*
X489795Y350549D01*
X489591Y350370D01*
X488756Y351205D01*
X488935Y351409D01*
X489092Y351642D01*
X489228Y351903D01*
X489342Y352192D01*
X489434Y352510D01*
X489505Y352856D01*
X489555Y353231D01*
X489582Y353635D01*
X489588Y354066D01*
X489572Y354527D01*
X492913Y351187D01*
D02*
G37*
G36*
X448807Y351856D02*
X448842Y351756D01*
X448902Y351667D01*
X448986Y351590D01*
X449093Y351526D01*
X449224Y351472D01*
X449379Y351431D01*
X449558Y351402D01*
X449761Y351384D01*
X449988Y351378D01*
Y350197D01*
X449761Y350191D01*
X449558Y350173D01*
X449379Y350144D01*
X449224Y350102D01*
X449093Y350049D01*
X448986Y349984D01*
X448902Y349907D01*
X448842Y349819D01*
X448807Y349718D01*
X448795Y349606D01*
Y351969D01*
X448807Y351856D01*
D02*
G37*
G36*
X584765Y333603D02*
X584198Y333599D01*
X583185Y333535D01*
X582739Y333474D01*
X582333Y333395D01*
X581968Y333296D01*
X581643Y333179D01*
X581358Y333043D01*
X581114Y332887D01*
X580910Y332713D01*
X580075Y333548D01*
X580249Y333752D01*
X580405Y333996D01*
X580541Y334281D01*
X580659Y334606D01*
X580757Y334971D01*
X580836Y335377D01*
X580897Y335823D01*
X580961Y336836D01*
X580965Y337403D01*
X584765Y333603D01*
D02*
G37*
G36*
X298134Y330436D02*
X298188Y329776D01*
X298238Y329479D01*
X298304Y329205D01*
X298385Y328954D01*
X298482Y328725D01*
X298594Y328518D01*
X298721Y328334D01*
X298864Y328172D01*
X298029Y327337D01*
X297867Y327480D01*
X297683Y327607D01*
X297476Y327719D01*
X297247Y327816D01*
X296996Y327897D01*
X296722Y327962D01*
X296425Y328013D01*
X296106Y328048D01*
X295402Y328071D01*
X298130Y330799D01*
X298134Y330436D01*
D02*
G37*
G36*
X328797Y321083D02*
X328511Y321363D01*
X327959Y321836D01*
X327693Y322028D01*
X327434Y322190D01*
X327182Y322323D01*
X326937Y322426D01*
X326698Y322500D01*
X326466Y322544D01*
X326241Y322559D01*
Y323740D01*
X326466Y323755D01*
X326698Y323799D01*
X326937Y323873D01*
X327182Y323976D01*
X327434Y324109D01*
X327693Y324272D01*
X327959Y324464D01*
X328232Y324685D01*
X328797Y325217D01*
Y321083D01*
D02*
G37*
G36*
X383149Y281784D02*
X382757Y282171D01*
X382016Y282822D01*
X381667Y283086D01*
X381333Y283310D01*
X381013Y283493D01*
X380706Y283636D01*
X380415Y283737D01*
X380137Y283799D01*
X379874Y283819D01*
Y285000D01*
X380137Y285020D01*
X380415Y285081D01*
X380706Y285183D01*
X381013Y285326D01*
X381333Y285509D01*
X381667Y285732D01*
X382016Y285997D01*
X382757Y286648D01*
X383149Y287034D01*
Y281784D01*
D02*
G37*
G36*
X357475Y276108D02*
X358237Y275437D01*
X358595Y275164D01*
X358938Y274934D01*
X359266Y274745D01*
X359579Y274598D01*
X359877Y274493D01*
X360159Y274430D01*
X360427Y274410D01*
Y273229D01*
X360159Y273207D01*
X359877Y273145D01*
X359579Y273040D01*
X359266Y272893D01*
X358938Y272704D01*
X358595Y272474D01*
X358237Y272201D01*
X357475Y271530D01*
X357072Y271132D01*
Y276506D01*
X357475Y276108D01*
D02*
G37*
G36*
X383140Y268803D02*
X383526Y268483D01*
X383706Y268361D01*
X383877Y268264D01*
X384040Y268192D01*
X384194Y268144D01*
X384340Y268122D01*
X384476Y268125D01*
X384605Y268154D01*
X382105Y267334D01*
X382211Y267385D01*
X382281Y267455D01*
X382314Y267546D01*
X382312Y267656D01*
X382272Y267786D01*
X382196Y267936D01*
X382084Y268107D01*
X381935Y268296D01*
X381750Y268506D01*
X381529Y268736D01*
X382934Y269001D01*
X383140Y268803D01*
D02*
G37*
G36*
X389543Y263059D02*
X389540Y262922D01*
X389562Y262777D01*
X389609Y262623D01*
X389681Y262460D01*
X389778Y262288D01*
X389901Y262109D01*
X390048Y261920D01*
X390221Y261723D01*
X390418Y261517D01*
X390153Y260112D01*
X389924Y260333D01*
X389524Y260667D01*
X389354Y260779D01*
X389204Y260855D01*
X389073Y260894D01*
X388963Y260897D01*
X388873Y260864D01*
X388802Y260794D01*
X388751Y260688D01*
X389571Y263187D01*
X389543Y263059D01*
D02*
G37*
G36*
X447838Y232601D02*
X447894Y231877D01*
X447947Y231554D01*
X448015Y231256D01*
X448099Y230983D01*
X448200Y230737D01*
X448316Y230516D01*
X448449Y230320D01*
X448598Y230151D01*
X447763Y229315D01*
X447593Y229464D01*
X447398Y229597D01*
X447177Y229714D01*
X446930Y229814D01*
X446658Y229899D01*
X446360Y229967D01*
X446036Y230019D01*
X445687Y230055D01*
X444911Y230079D01*
X447834Y233002D01*
X447838Y232601D01*
D02*
G37*
G36*
X352363Y217138D02*
X354303Y215197D01*
X353940Y215193D01*
X353280Y215139D01*
X352983Y215089D01*
X352709Y215023D01*
X352458Y214942D01*
X352228Y214845D01*
X352022Y214733D01*
X351838Y214605D01*
X351676Y214462D01*
X350840Y215298D01*
X350984Y215460D01*
X351111Y215644D01*
X351223Y215850D01*
X351320Y216080D01*
X351401Y216331D01*
X351466Y216605D01*
X351496Y216779D01*
X351353Y216880D01*
X351112Y217028D01*
X350877Y217148D01*
X350647Y217242D01*
X350421Y217309D01*
X350201Y217349D01*
X349985Y217362D01*
Y218543D01*
X350201Y218557D01*
X350421Y218597D01*
X350647Y218664D01*
X350877Y218758D01*
X351112Y218878D01*
X351353Y219025D01*
X351598Y219199D01*
X351848Y219400D01*
X352363Y219882D01*
Y217138D01*
D02*
G37*
G36*
X443611Y208496D02*
X443519Y208563D01*
X443411Y208597D01*
X443286D01*
X443144Y208563D01*
X442985Y208496D01*
X442810Y208396D01*
X442618Y208263D01*
X442409Y208096D01*
X441941Y207661D01*
X441106Y208496D01*
X441340Y208739D01*
X441707Y209173D01*
X441841Y209365D01*
X441941Y209540D01*
X442008Y209699D01*
X442041Y209841D01*
Y209966D01*
X442008Y210075D01*
X441941Y210167D01*
X443611Y208496D01*
D02*
G37*
G36*
X419041Y199551D02*
X419236Y199419D01*
X419457Y199302D01*
X419704Y199202D01*
X419976Y199117D01*
X420274Y199049D01*
X420598Y198997D01*
X420947Y198961D01*
X421723Y198937D01*
X418799Y196014D01*
X418795Y196414D01*
X418739Y197139D01*
X418687Y197462D01*
X418619Y197760D01*
X418535Y198032D01*
X418434Y198279D01*
X418317Y198500D01*
X418185Y198695D01*
X418036Y198865D01*
X418871Y199700D01*
X419041Y199551D01*
D02*
G37*
G36*
X525815Y189550D02*
X525589Y189770D01*
X525144Y190141D01*
X524926Y190292D01*
X524710Y190420D01*
X524497Y190524D01*
X524287Y190605D01*
X524079Y190663D01*
X523874Y190698D01*
X523671Y190709D01*
Y191891D01*
X523874Y191902D01*
X524079Y191937D01*
X524287Y191995D01*
X524497Y192076D01*
X524710Y192180D01*
X524926Y192308D01*
X525144Y192459D01*
X525365Y192633D01*
X525589Y192830D01*
X525815Y193050D01*
Y189550D01*
D02*
G37*
G36*
X444852Y178485D02*
X444452Y178481D01*
X443727Y178425D01*
X443404Y178372D01*
X443106Y178304D01*
X442834Y178220D01*
X442587Y178119D01*
X442366Y178003D01*
X442171Y177870D01*
X442001Y177721D01*
X441166Y178556D01*
X441315Y178726D01*
X441447Y178921D01*
X441564Y179142D01*
X441664Y179389D01*
X441749Y179661D01*
X441817Y179959D01*
X441869Y180283D01*
X441905Y180632D01*
X441929Y181408D01*
X444852Y178485D01*
D02*
G37*
G36*
X420065Y176299D02*
X419857Y176501D01*
X419446Y176841D01*
X419242Y176980D01*
X419040Y177096D01*
X418839Y177192D01*
X418639Y177267D01*
X418440Y177320D01*
X418243Y177352D01*
X418048Y177362D01*
Y178543D01*
X418243Y178554D01*
X418440Y178586D01*
X418639Y178639D01*
X418839Y178713D01*
X419040Y178809D01*
X419242Y178926D01*
X419446Y179064D01*
X419651Y179224D01*
X419857Y179404D01*
X420065Y179606D01*
Y176299D01*
D02*
G37*
G36*
X423647Y169404D02*
X424058Y169064D01*
X424262Y168926D01*
X424464Y168809D01*
X424665Y168713D01*
X424865Y168639D01*
X425064Y168586D01*
X425261Y168554D01*
X425456Y168543D01*
Y167362D01*
X425261Y167352D01*
X425064Y167320D01*
X424865Y167267D01*
X424665Y167192D01*
X424464Y167096D01*
X424262Y166980D01*
X424058Y166841D01*
X423853Y166682D01*
X423647Y166501D01*
X423439Y166299D01*
Y169606D01*
X423647Y169404D01*
D02*
G37*
G36*
X568156Y166577D02*
X568331Y164230D01*
X568485Y163194D01*
X568683Y162249D01*
X568924Y161397D01*
X569209Y160636D01*
X569539Y159967D01*
X569912Y159390D01*
X570329Y158904D01*
X564758D01*
X565175Y159390D01*
X565548Y159967D01*
X565877Y160636D01*
X566163Y161397D01*
X566404Y162249D01*
X566602Y163194D01*
X566755Y164230D01*
X566931Y166577D01*
X566953Y167888D01*
X568134D01*
X568156Y166577D01*
D02*
G37*
G36*
X491142Y154567D02*
X490882Y154821D01*
X490377Y155250D01*
X490132Y155424D01*
X489892Y155571D01*
X489656Y155691D01*
X489426Y155785D01*
X489201Y155852D01*
X488980Y155892D01*
X488765Y155905D01*
Y157087D01*
X488980Y157100D01*
X489201Y157140D01*
X489426Y157207D01*
X489656Y157301D01*
X489892Y157421D01*
X490132Y157568D01*
X490377Y157743D01*
X490627Y157943D01*
X491142Y158425D01*
Y154567D01*
D02*
G37*
G36*
X426414Y131267D02*
X426179Y131024D01*
X425809Y130588D01*
X425674Y130396D01*
X425573Y130220D01*
X425505Y130062D01*
X425470Y129920D01*
X425469Y129796D01*
X425501Y129688D01*
X425567Y129597D01*
X423908Y131255D01*
X423999Y131190D01*
X424107Y131158D01*
X424231Y131159D01*
X424373Y131193D01*
X424532Y131261D01*
X424707Y131363D01*
X424900Y131498D01*
X425109Y131666D01*
X425579Y132103D01*
X426414Y131267D01*
D02*
G37*
G36*
X449292Y120429D02*
X449202Y120495D01*
X449094Y120528D01*
X448971Y120527D01*
X448830Y120494D01*
X448673Y120428D01*
X448500Y120328D01*
X448310Y120196D01*
X448103Y120030D01*
X447640Y119600D01*
X446805Y120435D01*
X447036Y120675D01*
X447400Y121105D01*
X447533Y121295D01*
X447632Y121468D01*
X447699Y121625D01*
X447732Y121766D01*
X447732Y121890D01*
X447700Y121997D01*
X447634Y122087D01*
X449292Y120429D01*
D02*
G37*
G36*
X455056Y121997D02*
X455024Y121890D01*
X455024Y121766D01*
X455057Y121625D01*
X455124Y121468D01*
X455223Y121295D01*
X455356Y121105D01*
X455521Y120898D01*
X455951Y120435D01*
X455116Y119600D01*
X454876Y119832D01*
X454446Y120196D01*
X454256Y120328D01*
X454083Y120428D01*
X453926Y120494D01*
X453785Y120527D01*
X453662Y120528D01*
X453554Y120495D01*
X453464Y120429D01*
X455122Y122087D01*
X455056Y121997D01*
D02*
G37*
G36*
X424897Y120714D02*
X425658Y120043D01*
X426016Y119770D01*
X426360Y119540D01*
X426687Y119351D01*
X427000Y119204D01*
X427298Y119099D01*
X427580Y119036D01*
X427848Y119016D01*
Y117834D01*
X427580Y117814D01*
X427298Y117751D01*
X427000Y117646D01*
X426687Y117499D01*
X426360Y117310D01*
X426016Y117080D01*
X425658Y116807D01*
X424897Y116136D01*
X424493Y115738D01*
Y121112D01*
X424897Y120714D01*
D02*
G37*
G36*
X418063Y113963D02*
X418307Y113808D01*
X418592Y113671D01*
X418917Y113554D01*
X419282Y113455D01*
X419688Y113376D01*
X420134Y113315D01*
X421147Y113251D01*
X421714Y113248D01*
X417914Y109448D01*
X417910Y110015D01*
X417846Y111028D01*
X417785Y111474D01*
X417706Y111879D01*
X417607Y112244D01*
X417490Y112569D01*
X417354Y112854D01*
X417198Y113098D01*
X417024Y113302D01*
X417859Y114137D01*
X418063Y113963D01*
D02*
G37*
G36*
X425594Y108804D02*
X425658Y107791D01*
X425719Y107345D01*
X425798Y106940D01*
X425897Y106574D01*
X426014Y106249D01*
X426150Y105965D01*
X426306Y105720D01*
X426480Y105516D01*
X425645Y104681D01*
X425441Y104856D01*
X425197Y105011D01*
X424912Y105147D01*
X424587Y105265D01*
X424222Y105363D01*
X423816Y105443D01*
X423370Y105503D01*
X422357Y105567D01*
X421790Y105571D01*
X425590Y109371D01*
X425594Y108804D01*
D02*
G37*
G36*
X448700Y101548D02*
X448308Y101935D01*
X447568Y102586D01*
X447219Y102850D01*
X446884Y103074D01*
X446564Y103257D01*
X446258Y103400D01*
X445966Y103501D01*
X445688Y103562D01*
X445425Y103583D01*
Y104764D01*
X445688Y104784D01*
X445966Y104845D01*
X446258Y104947D01*
X446564Y105089D01*
X446884Y105272D01*
X447219Y105496D01*
X447568Y105761D01*
X448308Y106412D01*
X448700Y106798D01*
Y101548D01*
D02*
G37*
G36*
X495371Y56602D02*
X495371D01*
X495371Y56602D01*
X493931Y56546D01*
X492759Y56379D01*
X491856Y56101D01*
X491223Y55711D01*
X490858Y55210D01*
X490761Y54598D01*
X490934Y53874D01*
X491087Y53585D01*
X491375Y53039D01*
X492086Y52092D01*
X493065Y51034D01*
X481929D01*
X480793Y52092D01*
X480556Y52281D01*
X479610Y53039D01*
X478775Y53606D01*
X478381Y53874D01*
X477106Y54598D01*
X476398Y54926D01*
X475785Y55210D01*
X474418Y55711D01*
X474028Y55819D01*
X473004Y56101D01*
X471545Y56379D01*
X470039Y56546D01*
X468488Y56602D01*
X468488Y56602D01*
X468488D01*
X477992Y64476D01*
X495371Y56602D01*
D02*
G37*
G36*
X329640Y41174D02*
X330604Y40323D01*
X330783Y40196D01*
X330937Y40104D01*
X331066Y40046D01*
X331171Y40022D01*
X331251Y40033D01*
X329181Y35208D01*
X325872Y37866D01*
X329337Y41472D01*
X329640Y41174D01*
D02*
G37*
%LPC*%
G36*
X568773Y608717D02*
X568233Y608605D01*
X567381Y608363D01*
X566620Y608078D01*
X566101Y607822D01*
X566167Y607054D01*
X566264Y606368D01*
X566388Y605787D01*
X566539Y605313D01*
X566719Y604943D01*
X566925Y604680D01*
X567160Y604521D01*
X567421Y604469D01*
X567768Y604500D01*
X568147Y604596D01*
X568555Y604754D01*
X568994Y604976D01*
X569463Y605262D01*
X569519Y605301D01*
X568368Y606451D01*
X568737Y606833D01*
X569357Y607558D01*
X569608Y607901D01*
X569725Y608084D01*
X569671Y608131D01*
X569228Y608443D01*
X568810Y608699D01*
X568773Y608717D01*
D02*
G37*
G36*
X370382Y737411D02*
Y727075D01*
X375675D01*
X377601Y729978D01*
X377259Y729264D01*
X377120Y728459D01*
X377184Y727562D01*
X377315Y727075D01*
X378799D01*
Y728543D01*
X378628Y730283D01*
X378120Y731956D01*
X377296Y733497D01*
X376187Y734848D01*
X374836Y735957D01*
X373294Y736782D01*
X371622Y737289D01*
X370382Y737411D01*
D02*
G37*
G36*
X369382D02*
X368142Y737289D01*
X366470Y736782D01*
X364928Y735957D01*
X363577Y734848D01*
X362468Y733497D01*
X361644Y731956D01*
X361136Y730283D01*
X360965Y728543D01*
Y727075D01*
X369382D01*
Y737411D01*
D02*
G37*
G36*
X378799Y726075D02*
X377667D01*
X377920Y725493D01*
X378592Y724321D01*
X378749Y724095D01*
X378799Y724606D01*
Y726075D01*
D02*
G37*
G36*
X375011D02*
X370382D01*
Y719098D01*
X375011Y726075D01*
D02*
G37*
G36*
X370382Y716605D02*
Y715739D01*
X371622Y715861D01*
X372418Y716102D01*
X372114Y716207D01*
X371050Y716485D01*
X370382Y716605D01*
D02*
G37*
G36*
X369382Y726075D02*
X360965D01*
Y724606D01*
X361136Y722867D01*
X361644Y721194D01*
X362468Y719652D01*
X363577Y718301D01*
X364928Y717192D01*
X366470Y716368D01*
X368142Y715861D01*
X369382Y715739D01*
Y716740D01*
X368854Y716795D01*
X369382Y717591D01*
Y726075D01*
D02*
G37*
G36*
X263780Y748671D02*
X262426Y748538D01*
X261124Y748143D01*
X259925Y747502D01*
X258873Y746639D01*
X258010Y745587D01*
X257369Y744388D01*
X256974Y743086D01*
X256841Y741732D01*
X256974Y740379D01*
X257369Y739077D01*
X258010Y737877D01*
X258873Y736826D01*
X259925Y735963D01*
X261124Y735322D01*
X262426Y734927D01*
X263780Y734793D01*
X265133Y734927D01*
X266435Y735322D01*
X267388Y735831D01*
X277790Y725428D01*
X278316Y725076D01*
X278937Y724953D01*
X317225D01*
Y724606D01*
X317396Y722867D01*
X317904Y721194D01*
X318728Y719652D01*
X319837Y718301D01*
X321188Y717192D01*
X322729Y716368D01*
X324402Y715861D01*
X326142Y715689D01*
X327881Y715861D01*
X329554Y716368D01*
X331096Y717192D01*
X332447Y718301D01*
X333556Y719652D01*
X334380Y721194D01*
X334887Y722867D01*
X335059Y724606D01*
Y728543D01*
X334887Y730283D01*
X334380Y731956D01*
X333556Y733497D01*
X332447Y734848D01*
X331096Y735957D01*
X329554Y736782D01*
X327881Y737289D01*
X326142Y737460D01*
X324402Y737289D01*
X322729Y736782D01*
X321188Y735957D01*
X319837Y734848D01*
X318728Y733497D01*
X317904Y731956D01*
X317396Y730283D01*
X317225Y728543D01*
Y728196D01*
X279609D01*
X269681Y738124D01*
X270190Y739077D01*
X270585Y740379D01*
X270719Y741732D01*
X270585Y743086D01*
X270190Y744388D01*
X269549Y745587D01*
X268686Y746639D01*
X267635Y747502D01*
X266435Y748143D01*
X265133Y748538D01*
X263780Y748671D01*
D02*
G37*
G36*
X145926Y696415D02*
X144572Y696281D01*
X143270Y695886D01*
X142070Y695245D01*
X141019Y694382D01*
X140156Y693331D01*
X139515Y692131D01*
X139120Y690829D01*
X138987Y689476D01*
X139120Y688122D01*
X139515Y686820D01*
X140156Y685620D01*
X141019Y684569D01*
X142070Y683706D01*
X143270Y683065D01*
X144572Y682670D01*
X145926Y682537D01*
X147279Y682670D01*
X148581Y683065D01*
X149781Y683706D01*
X150832Y684569D01*
X151695Y685620D01*
X152336Y686820D01*
X152731Y688122D01*
X152865Y689476D01*
X152731Y690829D01*
X152336Y692131D01*
X151695Y693331D01*
X150832Y694382D01*
X149781Y695245D01*
X148581Y695886D01*
X147279Y696281D01*
X145926Y696415D01*
D02*
G37*
G36*
X57776Y696217D02*
X56422Y696084D01*
X55120Y695689D01*
X53921Y695048D01*
X52869Y694185D01*
X52006Y693133D01*
X51365Y691934D01*
X50970Y690632D01*
X50837Y689278D01*
X50970Y687925D01*
X51365Y686623D01*
X52006Y685423D01*
X52869Y684372D01*
X53921Y683509D01*
X55120Y682868D01*
X56422Y682473D01*
X57776Y682339D01*
X59129Y682473D01*
X60431Y682868D01*
X61631Y683509D01*
X62682Y684372D01*
X63545Y685423D01*
X64186Y686623D01*
X64581Y687925D01*
X64714Y689278D01*
X64581Y690632D01*
X64186Y691934D01*
X63545Y693133D01*
X62682Y694185D01*
X61631Y695048D01*
X60431Y695689D01*
X59129Y696084D01*
X57776Y696217D01*
D02*
G37*
G36*
X166988Y654110D02*
X166008Y653981D01*
X165094Y653603D01*
X164310Y653001D01*
X163708Y652216D01*
X163595Y651944D01*
X149319D01*
X149206Y652216D01*
X148604Y653001D01*
X147820Y653603D01*
X146906Y653981D01*
X145926Y654110D01*
X144945Y653981D01*
X144031Y653603D01*
X143247Y653001D01*
X142645Y652216D01*
X142266Y651302D01*
X142137Y650322D01*
X142266Y649341D01*
X142645Y648428D01*
X143247Y647643D01*
X144031Y647041D01*
X144945Y646663D01*
X145926Y646534D01*
X146906Y646663D01*
X147820Y647041D01*
X148604Y647643D01*
X149206Y648428D01*
X149319Y648700D01*
X163595D01*
X163708Y648428D01*
X164310Y647643D01*
X165094Y647041D01*
X166008Y646663D01*
X166988Y646534D01*
X167969Y646663D01*
X168241Y646776D01*
X183378Y631639D01*
Y614331D01*
X183502Y613710D01*
X183853Y613184D01*
X188853Y608184D01*
X189379Y607832D01*
X190000Y607709D01*
X266477D01*
X266699Y607261D01*
X266512Y607018D01*
X266174Y606200D01*
X266058Y605322D01*
X266174Y604444D01*
X266204Y604370D01*
X224976Y563142D01*
X204135D01*
X203815Y563916D01*
X203053Y564909D01*
X202061Y565670D01*
X200906Y566149D01*
X199666Y566312D01*
X198426Y566149D01*
X197270Y565670D01*
X196278Y564909D01*
X195517Y563916D01*
X195196Y563142D01*
X177623D01*
X170535Y570230D01*
X170648Y570503D01*
X170777Y571483D01*
X170648Y572464D01*
X170269Y573378D01*
X169667Y574162D01*
X168883Y574764D01*
X167969Y575143D01*
X166988Y575272D01*
X166008Y575143D01*
X165094Y574764D01*
X164310Y574162D01*
X163708Y573378D01*
X163329Y572464D01*
X163200Y571483D01*
X163329Y570503D01*
X163708Y569589D01*
X164310Y568805D01*
X165094Y568203D01*
X166008Y567824D01*
X166988Y567695D01*
X167969Y567824D01*
X168241Y567937D01*
X175804Y560374D01*
X176330Y560022D01*
X176951Y559899D01*
X195196D01*
X195517Y559125D01*
X196278Y558133D01*
X197270Y557372D01*
X198426Y556893D01*
X199666Y556730D01*
X200906Y556893D01*
X202061Y557372D01*
X203053Y558133D01*
X203815Y559125D01*
X204135Y559899D01*
X225648D01*
X226269Y560022D01*
X226795Y560374D01*
X268498Y602077D01*
X268571Y602046D01*
X269449Y601931D01*
X270327Y602046D01*
X271145Y602385D01*
X271847Y602924D01*
X272386Y603626D01*
X272725Y604444D01*
X272840Y605322D01*
X272725Y606200D01*
X272386Y607018D01*
X272200Y607261D01*
X272421Y607709D01*
X350937D01*
X351050Y607436D01*
X351652Y606652D01*
X352437Y606050D01*
X353350Y605671D01*
X354331Y605542D01*
X355311Y605671D01*
X356225Y606050D01*
X357010Y606652D01*
X357612Y607436D01*
X357990Y608350D01*
X358119Y609331D01*
X357990Y610311D01*
X357612Y611225D01*
X357010Y612009D01*
X356225Y612611D01*
X355311Y612990D01*
X354331Y613119D01*
X353350Y612990D01*
X352437Y612611D01*
X351652Y612009D01*
X351050Y611225D01*
X350937Y610952D01*
X190672D01*
X186622Y615002D01*
Y632310D01*
X186498Y632931D01*
X186147Y633457D01*
X170535Y649069D01*
X170648Y649341D01*
X170777Y650322D01*
X170648Y651302D01*
X170269Y652216D01*
X169667Y653001D01*
X168883Y653603D01*
X167969Y653981D01*
X166988Y654110D01*
D02*
G37*
G36*
X118760Y696217D02*
X117406Y696084D01*
X116105Y695689D01*
X114905Y695048D01*
X113854Y694185D01*
X112991Y693134D01*
X112349Y691934D01*
X111955Y690632D01*
X111821Y689279D01*
X111955Y687925D01*
X112349Y686623D01*
X112991Y685424D01*
X113854Y684372D01*
X114905Y683509D01*
X116105Y682868D01*
X117406Y682473D01*
X118760Y682340D01*
X120114Y682473D01*
X121416Y682868D01*
X122368Y683377D01*
X126992Y678753D01*
X127518Y678402D01*
X128139Y678278D01*
X320628D01*
X347049Y651857D01*
X346990Y651714D01*
X346870Y650800D01*
X346990Y649886D01*
X347343Y649035D01*
X347904Y648304D01*
X348635Y647743D01*
X349486Y647390D01*
X350400Y647270D01*
X351314Y647390D01*
X352165Y647743D01*
X352896Y648304D01*
X353457Y649035D01*
X353810Y649886D01*
X353930Y650800D01*
X353810Y651714D01*
X353457Y652565D01*
X352896Y653296D01*
X352165Y653857D01*
X351314Y654210D01*
X350400Y654330D01*
X349486Y654210D01*
X349343Y654150D01*
X322447Y681047D01*
X321921Y681398D01*
X321300Y681522D01*
X128811D01*
X124662Y685671D01*
X125171Y686623D01*
X125566Y687925D01*
X125699Y689279D01*
X125566Y690632D01*
X125171Y691934D01*
X124530Y693134D01*
X123667Y694185D01*
X122615Y695048D01*
X121416Y695689D01*
X120114Y696084D01*
X118760Y696217D01*
D02*
G37*
G36*
X30768D02*
X29414Y696084D01*
X28113Y695689D01*
X26913Y695048D01*
X25861Y694185D01*
X24998Y693134D01*
X24357Y691934D01*
X23962Y690632D01*
X23829Y689279D01*
X23962Y687925D01*
X24357Y686623D01*
X24998Y685424D01*
X25861Y684372D01*
X26913Y683509D01*
X28113Y682868D01*
X29414Y682473D01*
X30768Y682340D01*
X32122Y682473D01*
X33423Y682868D01*
X34376Y683377D01*
X57476Y660278D01*
X58002Y659926D01*
X58622Y659802D01*
X94695D01*
X104087Y650411D01*
Y643424D01*
X104210Y642803D01*
X104562Y642277D01*
X108260Y638579D01*
Y643165D01*
X107330Y644095D01*
Y651083D01*
X107207Y651703D01*
X106855Y652229D01*
X96514Y662571D01*
X95988Y662922D01*
X95367Y663046D01*
X59294D01*
X36669Y685671D01*
X37179Y686623D01*
X37574Y687925D01*
X37707Y689279D01*
X37574Y690632D01*
X37179Y691934D01*
X36538Y693134D01*
X35675Y694185D01*
X34623Y695048D01*
X33423Y695689D01*
X32122Y696084D01*
X30768Y696217D01*
D02*
G37*
G36*
X199666Y644956D02*
X198426Y644792D01*
X197270Y644314D01*
X196278Y643552D01*
X195517Y642560D01*
X195038Y641405D01*
X194875Y640165D01*
X195038Y638925D01*
X195517Y637769D01*
X196278Y636777D01*
X197270Y636016D01*
X198426Y635537D01*
X199666Y635374D01*
X200906Y635537D01*
X201679Y635857D01*
X206321Y631216D01*
X206847Y630864D01*
X207468Y630741D01*
X233016D01*
Y628410D01*
X240921D01*
Y636315D01*
X233016D01*
Y633984D01*
X208139D01*
X203973Y638151D01*
X204293Y638925D01*
X204457Y640165D01*
X204293Y641405D01*
X203815Y642560D01*
X203053Y643552D01*
X202061Y644314D01*
X200906Y644792D01*
X199666Y644956D01*
D02*
G37*
G36*
X237469Y626441D02*
Y623020D01*
X240890D01*
X240820Y623552D01*
X240422Y624513D01*
X239788Y625339D01*
X238962Y625973D01*
X238001Y626371D01*
X237469Y626441D01*
D02*
G37*
G36*
X236469D02*
X235937Y626371D01*
X234975Y625973D01*
X234150Y625339D01*
X233516Y624513D01*
X233118Y623552D01*
X233082Y623278D01*
X233245Y623347D01*
X233498Y623480D01*
X233756Y623642D01*
X234022Y623834D01*
X234295Y624055D01*
X234860Y624587D01*
Y623020D01*
X236469D01*
Y626441D01*
D02*
G37*
G36*
X354331Y636467D02*
X352977Y636333D01*
X351675Y635938D01*
X350476Y635297D01*
X349424Y634434D01*
X348561Y633383D01*
X347920Y632183D01*
X347525Y630881D01*
X347392Y629528D01*
X347525Y628174D01*
X347920Y626872D01*
X348561Y625672D01*
X349424Y624621D01*
X350476Y623758D01*
X351675Y623117D01*
X352977Y622722D01*
X354331Y622589D01*
X355684Y622722D01*
X356986Y623117D01*
X358186Y623758D01*
X359237Y624621D01*
X360100Y625672D01*
X360741Y626872D01*
X361136Y628174D01*
X361270Y629528D01*
X361136Y630881D01*
X360741Y632183D01*
X360100Y633383D01*
X359237Y634434D01*
X358186Y635297D01*
X356986Y635938D01*
X355684Y636333D01*
X354331Y636467D01*
D02*
G37*
G36*
X202478Y625268D02*
X200166D01*
Y620980D01*
X203410D01*
Y621661D01*
X203422Y621549D01*
X203457Y621448D01*
X203517Y621359D01*
X203601Y621283D01*
X203708Y621218D01*
X203839Y621165D01*
X203994Y621123D01*
X204173Y621094D01*
X204376Y621076D01*
X204454Y621074D01*
Y623292D01*
X204303Y624048D01*
X203875Y624689D01*
X203234Y625117D01*
X202478Y625268D01*
D02*
G37*
G36*
X199166D02*
X196853D01*
X196097Y625117D01*
X195456Y624689D01*
X195028Y624048D01*
X194878Y623292D01*
Y620980D01*
X199166D01*
Y625268D01*
D02*
G37*
G36*
X236469Y622020D02*
X234860D01*
Y620453D01*
X234574Y620734D01*
X234022Y621206D01*
X233756Y621398D01*
X233498Y621560D01*
X233245Y621693D01*
X233082Y621762D01*
X233118Y621488D01*
X233516Y620527D01*
X234150Y619701D01*
X234975Y619067D01*
X235937Y618669D01*
X236469Y618599D01*
Y622020D01*
D02*
G37*
G36*
X240890D02*
X237469D01*
Y618599D01*
X238001Y618669D01*
X238962Y619067D01*
X239788Y619701D01*
X240422Y620527D01*
X240820Y621488D01*
X240890Y622020D01*
D02*
G37*
G36*
X203410Y619980D02*
X200166D01*
Y615692D01*
X202478D01*
X203234Y615842D01*
X203875Y616270D01*
X204303Y616911D01*
X204454Y617667D01*
Y619885D01*
X204376Y619883D01*
X204173Y619865D01*
X203994Y619836D01*
X203839Y619795D01*
X203708Y619741D01*
X203601Y619676D01*
X203517Y619600D01*
X203457Y619511D01*
X203422Y619411D01*
X203410Y619299D01*
Y619980D01*
D02*
G37*
G36*
X199166D02*
X194878D01*
Y617667D01*
X195028Y616911D01*
X195456Y616270D01*
X196097Y615842D01*
X196853Y615692D01*
X199166D01*
Y619980D01*
D02*
G37*
G36*
X170000Y616322D02*
X150304D01*
X149683Y616198D01*
X149157Y615847D01*
X147178Y613868D01*
X146906Y613981D01*
X145926Y614110D01*
X144945Y613981D01*
X144031Y613603D01*
X143247Y613001D01*
X142645Y612216D01*
X142266Y611303D01*
X142137Y610322D01*
X142266Y609341D01*
X142645Y608428D01*
X143247Y607643D01*
X144031Y607041D01*
X144945Y606663D01*
X145926Y606534D01*
X146906Y606663D01*
X147820Y607041D01*
X148604Y607643D01*
X149206Y608428D01*
X149585Y609341D01*
X149714Y610322D01*
X149585Y611303D01*
X149472Y611575D01*
X150975Y613078D01*
X163739D01*
X163986Y612578D01*
X163708Y612216D01*
X163329Y611303D01*
X163200Y610322D01*
X163329Y609341D01*
X163442Y609069D01*
X150995Y596622D01*
X113308D01*
X98264Y611665D01*
Y610572D01*
X94770D01*
X111489Y593853D01*
X112015Y593502D01*
X112636Y593378D01*
X151666D01*
X152287Y593502D01*
X152813Y593853D01*
X165735Y606776D01*
X166008Y606663D01*
X166988Y606534D01*
X167969Y606663D01*
X168883Y607041D01*
X169278Y607345D01*
X169778Y607098D01*
Y604872D01*
X156028Y591122D01*
X74117D01*
X74057Y591265D01*
X73496Y591996D01*
X72765Y592557D01*
X71914Y592910D01*
X71000Y593030D01*
X70086Y592910D01*
X69235Y592557D01*
X68504Y591996D01*
X67943Y591265D01*
X67590Y590414D01*
X67470Y589500D01*
X67590Y588586D01*
X67943Y587735D01*
X68504Y587004D01*
X69235Y586443D01*
X70086Y586090D01*
X71000Y585970D01*
X71914Y586090D01*
X72765Y586443D01*
X73496Y587004D01*
X74057Y587735D01*
X74117Y587878D01*
X156700D01*
X157321Y588002D01*
X157847Y588353D01*
X172547Y603053D01*
X172898Y603579D01*
X173022Y604200D01*
Y613300D01*
X172898Y613921D01*
X172547Y614447D01*
X171147Y615847D01*
X170621Y616198D01*
X170000Y616322D01*
D02*
G37*
G36*
X269449Y598713D02*
X268571Y598598D01*
X267754Y598259D01*
X267051Y597720D01*
X266512Y597018D01*
X266174Y596200D01*
X266058Y595322D01*
X266174Y594444D01*
X266512Y593626D01*
X267051Y592924D01*
X267754Y592385D01*
X268571Y592046D01*
X269449Y591931D01*
X270327Y592046D01*
X271145Y592385D01*
X271847Y592924D01*
X272386Y593626D01*
X272725Y594444D01*
X272840Y595322D01*
X272725Y596200D01*
X272386Y597018D01*
X271847Y597720D01*
X271145Y598259D01*
X270327Y598598D01*
X269449Y598713D01*
D02*
G37*
G36*
X273402Y573196D02*
X269949D01*
Y569743D01*
X273402D01*
Y573196D01*
D02*
G37*
G36*
X268949D02*
X265496D01*
Y569743D01*
X268949D01*
Y573196D01*
D02*
G37*
G36*
X145926Y575272D02*
X144945Y575143D01*
X144031Y574764D01*
X143247Y574162D01*
X142645Y573378D01*
X142266Y572464D01*
X142137Y571483D01*
X142266Y570503D01*
X142645Y569589D01*
X143247Y568805D01*
X144031Y568203D01*
X144945Y567824D01*
X145926Y567695D01*
X146906Y567824D01*
X147820Y568203D01*
X148604Y568805D01*
X149206Y569589D01*
X149585Y570503D01*
X149714Y571483D01*
X149585Y572464D01*
X149206Y573378D01*
X148604Y574162D01*
X147820Y574764D01*
X146906Y575143D01*
X145926Y575272D01*
D02*
G37*
G36*
X354331Y573119D02*
X353350Y572990D01*
X352437Y572611D01*
X351652Y572009D01*
X351050Y571225D01*
X350672Y570311D01*
X350542Y569331D01*
X350672Y568350D01*
X351050Y567436D01*
X351652Y566652D01*
X352437Y566050D01*
X353350Y565671D01*
X354331Y565542D01*
X355311Y565671D01*
X356225Y566050D01*
X357010Y566652D01*
X357612Y567436D01*
X357990Y568350D01*
X358119Y569331D01*
X357990Y570311D01*
X357612Y571225D01*
X357010Y572009D01*
X356225Y572611D01*
X355311Y572990D01*
X354331Y573119D01*
D02*
G37*
G36*
X330414Y573283D02*
X322508D01*
Y565378D01*
X330414D01*
Y573283D01*
D02*
G37*
G36*
X311410D02*
X303504D01*
Y565378D01*
X311410D01*
Y573283D01*
D02*
G37*
G36*
X292406D02*
X284500D01*
Y565378D01*
X292406D01*
Y573283D01*
D02*
G37*
G36*
X273402Y568743D02*
X269949D01*
Y565290D01*
X273402D01*
Y568743D01*
D02*
G37*
G36*
X268949D02*
X265496D01*
Y565290D01*
X268949D01*
Y568743D01*
D02*
G37*
G36*
X240725Y564962D02*
X237469D01*
Y561706D01*
X239701D01*
Y562824D01*
X239717Y562703D01*
X239766Y562596D01*
X239847Y562501D01*
X239962Y562418D01*
X240108Y562349D01*
X240287Y562292D01*
X240499Y562247D01*
X240725Y562218D01*
Y564962D01*
D02*
G37*
G36*
X236469D02*
X233213D01*
Y561706D01*
X236469D01*
Y564962D01*
D02*
G37*
G36*
X239701Y560706D02*
X237469D01*
Y557450D01*
X240725D01*
Y560187D01*
X240499Y560165D01*
X240287Y560120D01*
X240108Y560063D01*
X239962Y559994D01*
X239847Y559911D01*
X239766Y559816D01*
X239717Y559709D01*
X239701Y559588D01*
Y560706D01*
D02*
G37*
G36*
X236469D02*
X233213D01*
Y557450D01*
X236469D01*
Y560706D01*
D02*
G37*
G36*
X326961Y543252D02*
Y539831D01*
X328570D01*
Y541397D01*
X328855Y541117D01*
X329407Y540645D01*
X329673Y540453D01*
X329932Y540290D01*
X330184Y540157D01*
X330348Y540089D01*
X330312Y540363D01*
X329913Y541324D01*
X329280Y542150D01*
X328454Y542783D01*
X327493Y543182D01*
X326961Y543252D01*
D02*
G37*
G36*
X325961D02*
X325429Y543182D01*
X324467Y542783D01*
X323642Y542150D01*
X323008Y541324D01*
X322610Y540363D01*
X322540Y539831D01*
X325961D01*
Y543252D01*
D02*
G37*
G36*
X231090Y549022D02*
X161842D01*
X161222Y548898D01*
X160696Y548547D01*
X147178Y535030D01*
X146906Y535143D01*
X145926Y535272D01*
X144945Y535143D01*
X144031Y534764D01*
X143247Y534162D01*
X142645Y533378D01*
X142266Y532464D01*
X142137Y531483D01*
X142266Y530503D01*
X142645Y529589D01*
X143247Y528805D01*
X144031Y528203D01*
X144945Y527824D01*
X145926Y527695D01*
X146906Y527824D01*
X147820Y528203D01*
X148604Y528805D01*
X149206Y529589D01*
X149585Y530503D01*
X149714Y531483D01*
X149585Y532464D01*
X149472Y532736D01*
X162514Y545778D01*
X194887D01*
X195154Y545278D01*
X195028Y545089D01*
X194878Y544333D01*
Y539026D01*
X188956Y533105D01*
X170382D01*
X170269Y533378D01*
X169667Y534162D01*
X168883Y534764D01*
X167969Y535143D01*
X166988Y535272D01*
X166008Y535143D01*
X165094Y534764D01*
X164310Y534162D01*
X163708Y533378D01*
X163329Y532464D01*
X163200Y531483D01*
X163329Y530503D01*
X163708Y529589D01*
X164310Y528805D01*
X165094Y528203D01*
X166008Y527824D01*
X166988Y527695D01*
X167969Y527824D01*
X168883Y528203D01*
X169667Y528805D01*
X170269Y529589D01*
X170382Y529862D01*
X189628D01*
X190249Y529985D01*
X190775Y530337D01*
X197171Y536733D01*
X202478D01*
X203234Y536883D01*
X203875Y537311D01*
X204303Y537952D01*
X204454Y538708D01*
Y544333D01*
X204303Y545089D01*
X204177Y545278D01*
X204444Y545778D01*
X230418D01*
X233422Y542774D01*
X233310Y542501D01*
X233180Y541521D01*
X233310Y540540D01*
X233688Y539627D01*
X234290Y538842D01*
X235075Y538240D01*
X235988Y537862D01*
X236969Y537733D01*
X237949Y537862D01*
X238863Y538240D01*
X239648Y538842D01*
X240250Y539627D01*
X240628Y540540D01*
X240757Y541521D01*
X240628Y542501D01*
X240250Y543415D01*
X239648Y544200D01*
X238863Y544802D01*
X237949Y545180D01*
X236969Y545309D01*
X235988Y545180D01*
X235716Y545067D01*
X232236Y548547D01*
X231710Y548898D01*
X231090Y549022D01*
D02*
G37*
G36*
X328570Y538831D02*
X326961D01*
Y535410D01*
X327493Y535480D01*
X328454Y535878D01*
X329280Y536512D01*
X329913Y537337D01*
X330312Y538299D01*
X330348Y538573D01*
X330184Y538504D01*
X329932Y538371D01*
X329673Y538209D01*
X329407Y538017D01*
X329135Y537795D01*
X328570Y537264D01*
Y538831D01*
D02*
G37*
G36*
X325961D02*
X322540D01*
X322610Y538299D01*
X323008Y537337D01*
X323642Y536512D01*
X324467Y535878D01*
X325429Y535480D01*
X325961Y535410D01*
Y538831D01*
D02*
G37*
G36*
X307457Y543318D02*
X306425Y543182D01*
X305464Y542783D01*
X304638Y542150D01*
X304004Y541324D01*
X303606Y540363D01*
X303470Y539331D01*
X303606Y538299D01*
X304004Y537337D01*
X304638Y536512D01*
X305464Y535878D01*
X306425Y535480D01*
X307457Y535344D01*
X308489Y535480D01*
X309450Y535878D01*
X310276Y536512D01*
X310910Y537337D01*
X311308Y538299D01*
X311444Y539331D01*
X311308Y540363D01*
X310910Y541324D01*
X310276Y542150D01*
X309450Y542783D01*
X308489Y543182D01*
X307457Y543318D01*
D02*
G37*
G36*
X288453D02*
X287421Y543182D01*
X286460Y542783D01*
X285634Y542150D01*
X285000Y541324D01*
X284602Y540363D01*
X284466Y539331D01*
X284602Y538299D01*
X285000Y537337D01*
X285634Y536512D01*
X286460Y535878D01*
X287421Y535480D01*
X288453Y535344D01*
X289485Y535480D01*
X290446Y535878D01*
X291272Y536512D01*
X291906Y537337D01*
X292304Y538299D01*
X292440Y539331D01*
X292304Y540363D01*
X291906Y541324D01*
X291272Y542150D01*
X290446Y542783D01*
X289485Y543182D01*
X288453Y543318D01*
D02*
G37*
G36*
X269449Y543230D02*
X268417Y543094D01*
X267456Y542696D01*
X266630Y542062D01*
X265996Y541236D01*
X265598Y540275D01*
X265462Y539243D01*
X265598Y538211D01*
X265996Y537249D01*
X266630Y536424D01*
X267456Y535790D01*
X268417Y535392D01*
X269449Y535256D01*
X270481Y535392D01*
X271442Y535790D01*
X272268Y536424D01*
X272902Y537249D01*
X273300Y538211D01*
X273436Y539243D01*
X273300Y540275D01*
X272902Y541236D01*
X272268Y542062D01*
X271442Y542696D01*
X270481Y543094D01*
X269449Y543230D01*
D02*
G37*
G36*
X166988Y496678D02*
X166008Y496549D01*
X165094Y496171D01*
X164310Y495569D01*
X163708Y494784D01*
X163595Y494512D01*
X149319D01*
X149206Y494784D01*
X148604Y495569D01*
X147820Y496171D01*
X146906Y496549D01*
X145926Y496678D01*
X144945Y496549D01*
X144031Y496171D01*
X143247Y495569D01*
X142645Y494784D01*
X142266Y493871D01*
X142137Y492890D01*
X142266Y491910D01*
X142645Y490996D01*
X143247Y490211D01*
X144031Y489609D01*
X144945Y489231D01*
X145926Y489102D01*
X146906Y489231D01*
X147820Y489609D01*
X148604Y490211D01*
X149206Y490996D01*
X149319Y491268D01*
X163595D01*
X163708Y490996D01*
X164310Y490211D01*
X165094Y489609D01*
X166008Y489231D01*
X166988Y489102D01*
X167969Y489231D01*
X168883Y489609D01*
X169667Y490211D01*
X170269Y490996D01*
X170648Y491910D01*
X170777Y492890D01*
X170648Y493871D01*
X170269Y494784D01*
X169667Y495569D01*
X168883Y496171D01*
X167969Y496549D01*
X166988Y496678D01*
D02*
G37*
G36*
X69067Y506943D02*
X68153Y506822D01*
X67301Y506470D01*
X66570Y505909D01*
X66009Y505177D01*
X65657Y504326D01*
X65536Y503412D01*
X65657Y502499D01*
X66009Y501647D01*
X66570Y500916D01*
X67301Y500355D01*
X68153Y500002D01*
X69067Y499882D01*
X69980Y500002D01*
X70832Y500355D01*
X71563Y500916D01*
X72124Y501647D01*
X72183Y501791D01*
X109416D01*
X118566Y492640D01*
X123153D01*
X111234Y504559D01*
X110708Y504911D01*
X110088Y505034D01*
X72183D01*
X72124Y505177D01*
X71563Y505909D01*
X70832Y506470D01*
X69980Y506822D01*
X69067Y506943D01*
D02*
G37*
G36*
X202478Y487521D02*
X200166D01*
Y483233D01*
X204454D01*
Y485545D01*
X204303Y486301D01*
X203875Y486942D01*
X203234Y487370D01*
X202478Y487521D01*
D02*
G37*
G36*
X199166D02*
X196853D01*
X196097Y487370D01*
X195456Y486942D01*
X195028Y486301D01*
X194878Y485545D01*
Y483233D01*
X199166D01*
Y487521D01*
D02*
G37*
G36*
X204454Y482233D02*
X200166D01*
Y477945D01*
X202478D01*
X202944Y478037D01*
X202292Y478590D01*
X201971Y478814D01*
X201679Y478982D01*
X201414Y479095D01*
X201178Y479152D01*
X200970Y479153D01*
X200790Y479099D01*
X200638Y478989D01*
X203410Y481760D01*
X203300Y481608D01*
X203245Y481428D01*
X203246Y481220D01*
X203303Y480984D01*
X203416Y480719D01*
X203584Y480427D01*
X203808Y480106D01*
X204087Y479758D01*
X204362Y479462D01*
X204454Y479920D01*
Y482233D01*
D02*
G37*
G36*
X199166D02*
X194878D01*
Y479920D01*
X195028Y479164D01*
X195456Y478523D01*
X196097Y478095D01*
X196853Y477945D01*
X199166D01*
Y482233D01*
D02*
G37*
G36*
X240921Y478883D02*
X237469D01*
Y475431D01*
X239898D01*
Y476899D01*
X239917Y476712D01*
X239977Y476545D01*
X240076Y476397D01*
X240214Y476269D01*
X240393Y476161D01*
X240611Y476072D01*
X240868Y476003D01*
X240921Y475995D01*
Y478883D01*
D02*
G37*
G36*
X109146Y478822D02*
X99150D01*
Y475578D01*
X109146D01*
Y478822D01*
D02*
G37*
G36*
X236469Y478883D02*
X233016D01*
Y475995D01*
X233070Y476003D01*
X233327Y476072D01*
X233545Y476161D01*
X233723Y476269D01*
X233862Y476397D01*
X233961Y476545D01*
X234020Y476712D01*
X234040Y476899D01*
Y475431D01*
X236469D01*
Y478883D01*
D02*
G37*
G36*
Y474431D02*
X234040D01*
Y472962D01*
X234020Y473149D01*
X233961Y473316D01*
X233862Y473464D01*
X233723Y473592D01*
X233545Y473700D01*
X233327Y473789D01*
X233070Y473858D01*
X233016Y473867D01*
Y470978D01*
X236469D01*
Y474431D01*
D02*
G37*
G36*
X239898D02*
X237469D01*
Y470978D01*
X240921D01*
Y473867D01*
X240868Y473858D01*
X240611Y473789D01*
X240393Y473700D01*
X240214Y473592D01*
X240076Y473464D01*
X239977Y473316D01*
X239917Y473149D01*
X239898Y472962D01*
Y474431D01*
D02*
G37*
G36*
X69100Y519088D02*
X68186Y518968D01*
X67335Y518615D01*
X66604Y518054D01*
X66043Y517323D01*
X65690Y516472D01*
X65570Y515558D01*
X65690Y514644D01*
X66043Y513793D01*
X66604Y513062D01*
X67335Y512501D01*
X68186Y512148D01*
X69100Y512028D01*
X70014Y512148D01*
X70865Y512501D01*
X71596Y513062D01*
X72157Y513793D01*
X72217Y513937D01*
X104870D01*
X126166Y492640D01*
X130646D01*
Y488161D01*
X156906Y461901D01*
X157432Y461549D01*
X158052Y461426D01*
X195196D01*
X195517Y460652D01*
X196278Y459660D01*
X197270Y458898D01*
X198426Y458420D01*
X199666Y458257D01*
X200906Y458420D01*
X202061Y458898D01*
X203053Y459660D01*
X203815Y460652D01*
X204135Y461426D01*
X217200D01*
X217821Y461549D01*
X218347Y461901D01*
X219912Y463466D01*
X233362D01*
X233516Y463095D01*
X234150Y462269D01*
X234975Y461635D01*
X235937Y461237D01*
X236969Y461101D01*
X238001Y461237D01*
X238962Y461635D01*
X239788Y462269D01*
X240422Y463095D01*
X240820Y464056D01*
X240956Y465088D01*
X240820Y466120D01*
X240422Y467081D01*
X239788Y467907D01*
X238962Y468541D01*
X238001Y468939D01*
X236969Y469075D01*
X235937Y468939D01*
X234975Y468541D01*
X234150Y467907D01*
X233516Y467081D01*
X233362Y466710D01*
X219240D01*
X218620Y466586D01*
X218094Y466235D01*
X216528Y464669D01*
X204135D01*
X203815Y465443D01*
X203053Y466435D01*
X202061Y467197D01*
X200906Y467675D01*
X199666Y467839D01*
X198426Y467675D01*
X197270Y467197D01*
X196278Y466435D01*
X195517Y465443D01*
X195196Y464669D01*
X158724D01*
X106688Y516705D01*
X106162Y517057D01*
X105542Y517180D01*
X72217D01*
X72157Y517323D01*
X71596Y518054D01*
X70865Y518615D01*
X70014Y518968D01*
X69100Y519088D01*
D02*
G37*
G36*
X130646Y485147D02*
Y480561D01*
X144304Y466903D01*
Y456284D01*
X144031Y456171D01*
X143247Y455569D01*
X142645Y454784D01*
X142266Y453871D01*
X142137Y452890D01*
X142266Y451910D01*
X142645Y450996D01*
X142932Y450622D01*
X142685Y450122D01*
X103262D01*
X99150Y454234D01*
Y453140D01*
X95657D01*
X101444Y447353D01*
X101970Y447002D01*
X102590Y446878D01*
X162598D01*
X163219Y447002D01*
X163745Y447353D01*
X165735Y449344D01*
X166008Y449231D01*
X166988Y449102D01*
X167969Y449231D01*
X168883Y449609D01*
X169667Y450211D01*
X170269Y450996D01*
X170648Y451910D01*
X170777Y452890D01*
X170648Y453871D01*
X170269Y454784D01*
X169667Y455569D01*
X168883Y456171D01*
X167969Y456549D01*
X166988Y456678D01*
X166008Y456549D01*
X165094Y456171D01*
X164310Y455569D01*
X163708Y454784D01*
X163329Y453871D01*
X163200Y452890D01*
X163329Y451910D01*
X163442Y451637D01*
X161926Y450122D01*
X149166D01*
X148919Y450622D01*
X149206Y450996D01*
X149585Y451910D01*
X149714Y452890D01*
X149585Y453871D01*
X149206Y454784D01*
X148604Y455569D01*
X147820Y456171D01*
X147547Y456284D01*
Y467574D01*
X147424Y468195D01*
X147072Y468721D01*
X130646Y485147D01*
D02*
G37*
G36*
X85522Y453140D02*
X82278D01*
Y449533D01*
X82402Y448912D01*
X82753Y448386D01*
X113744Y417395D01*
X113235Y416442D01*
X112840Y415140D01*
X112707Y413787D01*
X112840Y412433D01*
X113235Y411131D01*
X113876Y409932D01*
X114739Y408880D01*
X115791Y408017D01*
X116991Y407376D01*
X118292Y406981D01*
X119646Y406848D01*
X121000Y406981D01*
X122301Y407376D01*
X123501Y408017D01*
X124553Y408880D01*
X125416Y409932D01*
X126057Y411131D01*
X126452Y412433D01*
X126585Y413787D01*
X126452Y415140D01*
X126057Y416442D01*
X125548Y417395D01*
X134331Y426178D01*
X239083D01*
X239143Y426035D01*
X239704Y425304D01*
X240435Y424743D01*
X241286Y424390D01*
X242200Y424270D01*
X243114Y424390D01*
X243965Y424743D01*
X244696Y425304D01*
X245257Y426035D01*
X245610Y426886D01*
X245730Y427800D01*
X245610Y428714D01*
X245257Y429565D01*
X244696Y430296D01*
X243965Y430857D01*
X243114Y431210D01*
X242200Y431330D01*
X241286Y431210D01*
X240435Y430857D01*
X239704Y430296D01*
X239143Y429565D01*
X239083Y429422D01*
X133659D01*
X133039Y429298D01*
X132513Y428947D01*
X123254Y419688D01*
X122301Y420197D01*
X121000Y420592D01*
X119646Y420725D01*
X118292Y420592D01*
X116991Y420197D01*
X116038Y419688D01*
X85522Y450204D01*
Y453140D01*
D02*
G37*
G36*
X77650Y477243D02*
X36553Y436147D01*
X36202Y435621D01*
X36078Y435000D01*
Y420800D01*
X34967Y419688D01*
X34014Y420197D01*
X32712Y420592D01*
X31359Y420725D01*
X30005Y420592D01*
X28703Y420197D01*
X27503Y419556D01*
X26452Y418693D01*
X25589Y417642D01*
X24948Y416442D01*
X24553Y415140D01*
X24420Y413787D01*
X24553Y412433D01*
X24948Y411131D01*
X25589Y409932D01*
X26452Y408880D01*
X27503Y408017D01*
X28703Y407376D01*
X30005Y406981D01*
X31359Y406848D01*
X32712Y406981D01*
X34014Y407376D01*
X35214Y408017D01*
X36265Y408880D01*
X37128Y409932D01*
X37769Y411131D01*
X38164Y412433D01*
X38298Y413787D01*
X38164Y415140D01*
X37769Y416442D01*
X37260Y417395D01*
X38847Y418981D01*
X39198Y419507D01*
X39322Y420128D01*
Y434328D01*
X77650Y472656D01*
Y477243D01*
D02*
G37*
G36*
X145926Y421808D02*
X144572Y421675D01*
X143270Y421280D01*
X142070Y420639D01*
X141019Y419776D01*
X140156Y418724D01*
X139515Y417525D01*
X139120Y416223D01*
X138987Y414869D01*
X139120Y413516D01*
X139515Y412214D01*
X140156Y411014D01*
X141019Y409963D01*
X142070Y409100D01*
X143270Y408459D01*
X144572Y408064D01*
X145926Y407931D01*
X147279Y408064D01*
X148581Y408459D01*
X149781Y409100D01*
X150832Y409963D01*
X151695Y411014D01*
X152336Y412214D01*
X152731Y413516D01*
X152865Y414869D01*
X152731Y416223D01*
X152336Y417525D01*
X151695Y418724D01*
X150832Y419776D01*
X149781Y420639D01*
X148581Y421280D01*
X147279Y421675D01*
X145926Y421808D01*
D02*
G37*
G36*
X58622Y420725D02*
X57269Y420592D01*
X55967Y420197D01*
X54767Y419556D01*
X53716Y418693D01*
X52853Y417642D01*
X52212Y416442D01*
X51817Y415140D01*
X51683Y413787D01*
X51817Y412433D01*
X52212Y411131D01*
X52853Y409932D01*
X53716Y408880D01*
X54767Y408017D01*
X55967Y407376D01*
X57269Y406981D01*
X58622Y406848D01*
X59976Y406981D01*
X61278Y407376D01*
X62477Y408017D01*
X63529Y408880D01*
X64392Y409932D01*
X65033Y411131D01*
X65428Y412433D01*
X65561Y413787D01*
X65428Y415140D01*
X65033Y416442D01*
X64392Y417642D01*
X63529Y418693D01*
X62477Y419556D01*
X61278Y420197D01*
X59976Y420592D01*
X58622Y420725D01*
D02*
G37*
G36*
X88650Y339004D02*
Y335782D01*
X91873D01*
X91809Y336262D01*
X91431Y337176D01*
X90829Y337961D01*
X90044Y338563D01*
X89131Y338941D01*
X88650Y339004D01*
D02*
G37*
G36*
X87650D02*
X87169Y338941D01*
X86256Y338563D01*
X85471Y337961D01*
X84869Y337176D01*
X84491Y336262D01*
X84427Y335782D01*
X87650D01*
Y339004D01*
D02*
G37*
G36*
X91873Y334782D02*
X90934D01*
X90939Y334740D01*
X90984Y334495D01*
X91048Y334257D01*
X91132Y334027D01*
X91234Y333804D01*
X91356Y333589D01*
X91454Y333444D01*
X91809Y334301D01*
X91873Y334782D01*
D02*
G37*
G36*
X90433D02*
X88650D01*
Y332999D01*
X90433Y334782D01*
D02*
G37*
G36*
X88650Y332498D02*
Y331559D01*
X89131Y331623D01*
X89988Y331978D01*
X89843Y332076D01*
X89628Y332198D01*
X89406Y332300D01*
X89175Y332384D01*
X88937Y332448D01*
X88692Y332493D01*
X88650Y332498D01*
D02*
G37*
G36*
X87650Y334782D02*
X84427D01*
X84491Y334301D01*
X84869Y333388D01*
X85471Y332603D01*
X86256Y332001D01*
X87169Y331623D01*
X87650Y331559D01*
Y334782D01*
D02*
G37*
G36*
X30126Y338669D02*
Y330224D01*
X38571D01*
X38447Y331479D01*
X37936Y333166D01*
X37104Y334721D01*
X35986Y336084D01*
X34623Y337203D01*
X33068Y338034D01*
X31381Y338546D01*
X30126Y338669D01*
D02*
G37*
G36*
X29126D02*
X27871Y338546D01*
X26184Y338034D01*
X24629Y337203D01*
X23266Y336084D01*
X22148Y334721D01*
X21317Y333166D01*
X20805Y331479D01*
X20681Y330224D01*
X29126D01*
Y338669D01*
D02*
G37*
G36*
X123559Y329160D02*
X122402D01*
Y329070D01*
X120342Y328964D01*
Y329160D01*
X120146D01*
Y327704D01*
X123571D01*
X123475Y327690D01*
X123419Y327648D01*
X123402Y327579D01*
X123425Y327481D01*
X123486Y327356D01*
X123588Y327203D01*
X123728Y327022D01*
X124024Y326692D01*
X124583D01*
Y329065D01*
X124525Y329064D01*
X124323Y329046D01*
X124144Y329017D01*
X123988Y328975D01*
X123857Y328922D01*
X123750Y328857D01*
X123666Y328781D01*
X123607Y328692D01*
X123571Y328591D01*
X123559Y328479D01*
Y329160D01*
D02*
G37*
G36*
X119146D02*
X115721D01*
Y327704D01*
X115701Y327889D01*
X115642Y328054D01*
X115544Y328200D01*
X115406Y328326D01*
X115229Y328433D01*
X115012Y328521D01*
X114756Y328589D01*
X114709Y328596D01*
Y326692D01*
X119146D01*
Y327683D01*
X119097Y327690D01*
X118819Y327704D01*
X119146D01*
Y329160D01*
D02*
G37*
G36*
X120146Y327385D02*
Y326692D01*
X121188D01*
X121046Y326813D01*
X120767Y327022D01*
X120489Y327203D01*
X120211Y327356D01*
X120146Y327385D01*
D02*
G37*
G36*
X165264Y329925D02*
Y326504D01*
X168685D01*
X168615Y327036D01*
X168217Y327997D01*
X167583Y328823D01*
X166757Y329457D01*
X165796Y329855D01*
X165264Y329925D01*
D02*
G37*
G36*
X164264D02*
X163732Y329855D01*
X162770Y329457D01*
X161945Y328823D01*
X161311Y327997D01*
X160913Y327036D01*
X160877Y326762D01*
X161040Y326831D01*
X161293Y326964D01*
X161551Y327126D01*
X161817Y327318D01*
X162090Y327539D01*
X162655Y328071D01*
Y326504D01*
X164264D01*
Y329925D01*
D02*
G37*
G36*
X21682Y329224D02*
X20681D01*
X20805Y327970D01*
X21317Y326283D01*
X21574Y325801D01*
X21607Y326102D01*
X21694Y328280D01*
X21682Y329224D01*
D02*
G37*
G36*
X121615Y342654D02*
X117677D01*
X116903Y342552D01*
X116180Y342253D01*
X115560Y341778D01*
X115085Y341158D01*
X114785Y340435D01*
X114683Y339660D01*
X114785Y338885D01*
X115085Y338163D01*
X115560Y337543D01*
X115734Y337410D01*
Y336910D01*
X115560Y336778D01*
X115085Y336157D01*
X114785Y335435D01*
X114683Y334660D01*
X114785Y333886D01*
X115085Y333163D01*
X115150Y333077D01*
X114929Y332629D01*
X114709D01*
Y330724D01*
X114756Y330732D01*
X115012Y330800D01*
X115229Y330888D01*
X115406Y330995D01*
X115544Y331121D01*
X115642Y331267D01*
X115701Y331432D01*
X115721Y331617D01*
Y330160D01*
X119646D01*
X120342D01*
Y330357D01*
X120381Y330337D01*
X120458Y330319D01*
X120571Y330303D01*
X120910Y330277D01*
X122402Y330251D01*
Y330160D01*
X123559D01*
Y330841D01*
X123571Y330729D01*
X123607Y330629D01*
X123666Y330540D01*
X123750Y330464D01*
X123857Y330399D01*
X123988Y330345D01*
X124144Y330304D01*
X124323Y330275D01*
X124525Y330257D01*
X124583Y330255D01*
Y332629D01*
X124363D01*
X124142Y333077D01*
X124207Y333163D01*
X124507Y333886D01*
X124609Y334660D01*
X124507Y335435D01*
X124207Y336157D01*
X123732Y336778D01*
X123558Y336910D01*
Y337410D01*
X123732Y337543D01*
X124112Y338039D01*
X159260D01*
X159881Y338162D01*
X160311Y338450D01*
X160811Y338287D01*
Y332051D01*
X166423D01*
X195229Y303246D01*
Y300320D01*
X194195Y300006D01*
X192995Y299365D01*
X191944Y298502D01*
X191081Y297450D01*
X190440Y296251D01*
X190045Y294949D01*
X189911Y293595D01*
X190045Y292242D01*
X190440Y290940D01*
X191081Y289740D01*
X191944Y288689D01*
X192995Y287826D01*
X194195Y287185D01*
X195497Y286790D01*
X196850Y286656D01*
X198204Y286790D01*
X199506Y287185D01*
X200706Y287826D01*
X201757Y288689D01*
X202620Y289740D01*
X203261Y290940D01*
X203656Y292242D01*
X203789Y293595D01*
X203656Y294949D01*
X203261Y296251D01*
X202620Y297450D01*
X201757Y298502D01*
X200706Y299365D01*
X199506Y300006D01*
X198472Y300320D01*
Y303917D01*
X198349Y304538D01*
X197997Y305064D01*
X168717Y334345D01*
Y338978D01*
X186583D01*
X190949Y334612D01*
X190439Y333659D01*
X190045Y332358D01*
X189911Y331004D01*
X190045Y329650D01*
X190439Y328349D01*
X191081Y327149D01*
X191944Y326097D01*
X192995Y325235D01*
X194195Y324593D01*
X195496Y324198D01*
X196850Y324065D01*
X198204Y324198D01*
X199506Y324593D01*
X200705Y325235D01*
X201757Y326097D01*
X202620Y327149D01*
X203261Y328349D01*
X203656Y329650D01*
X203789Y331004D01*
X203656Y332358D01*
X203261Y333659D01*
X202620Y334859D01*
X201757Y335911D01*
X200705Y336773D01*
X199506Y337415D01*
X198204Y337810D01*
X196850Y337943D01*
X195496Y337810D01*
X194195Y337415D01*
X193242Y336906D01*
X188401Y341747D01*
X187875Y342098D01*
X187254Y342222D01*
X160200D01*
X159579Y342098D01*
X159053Y341747D01*
X158589Y341282D01*
X124112D01*
X123732Y341778D01*
X123112Y342253D01*
X122389Y342552D01*
X121615Y342654D01*
D02*
G37*
G36*
X164264Y325504D02*
X162655D01*
Y323937D01*
X162369Y324218D01*
X161817Y324690D01*
X161551Y324882D01*
X161293Y325044D01*
X161040Y325177D01*
X160877Y325246D01*
X160913Y324972D01*
X161311Y324011D01*
X161945Y323185D01*
X162770Y322551D01*
X163732Y322153D01*
X164264Y322083D01*
Y325504D01*
D02*
G37*
G36*
X15559Y323905D02*
Y322913D01*
X16375Y322916D01*
X18821Y323099D01*
X18501Y323270D01*
X16814Y323782D01*
X15559Y323905D01*
D02*
G37*
G36*
X29126Y329224D02*
X21970D01*
X29126Y322314D01*
Y329224D01*
D02*
G37*
G36*
X168685Y325504D02*
X165264D01*
Y322083D01*
X165796Y322153D01*
X166757Y322551D01*
X167583Y323185D01*
X168217Y324011D01*
X168615Y324972D01*
X168685Y325504D01*
D02*
G37*
G36*
X38571Y329224D02*
X30126D01*
Y320780D01*
X31381Y320903D01*
X33068Y321415D01*
X34623Y322246D01*
X35986Y323365D01*
X37104Y324728D01*
X37936Y326283D01*
X38447Y327970D01*
X38571Y329224D01*
D02*
G37*
G36*
X29126Y321762D02*
X28439Y321747D01*
X25973Y321528D01*
X26184Y321415D01*
X27871Y320903D01*
X29126Y320780D01*
Y321762D01*
D02*
G37*
G36*
X23171Y318771D02*
X23135Y318470D01*
X23015Y316277D01*
X23011Y315461D01*
X24004D01*
X23880Y316715D01*
X23369Y318403D01*
X23171Y318771D01*
D02*
G37*
G36*
X15559Y322491D02*
Y315461D01*
X22589D01*
X15559Y322491D01*
D02*
G37*
G36*
X14559Y323905D02*
X13304Y323782D01*
X11617Y323270D01*
X10062Y322439D01*
X8699Y321320D01*
X7581Y319957D01*
X6750Y318403D01*
X6238Y316715D01*
X6114Y315461D01*
X14559D01*
Y323905D01*
D02*
G37*
G36*
X29626Y367963D02*
X28272Y367829D01*
X26971Y367434D01*
X25771Y366793D01*
X24719Y365930D01*
X23856Y364879D01*
X23215Y363679D01*
X22820Y362377D01*
X22687Y361024D01*
X22820Y359670D01*
X23215Y358368D01*
X23856Y357169D01*
X24719Y356117D01*
X25771Y355254D01*
X26971Y354613D01*
X28272Y354218D01*
X29626Y354085D01*
X30980Y354218D01*
X32281Y354613D01*
X33234Y355122D01*
X57433Y330923D01*
Y314976D01*
X55102D01*
Y312645D01*
X40453D01*
X39832Y312522D01*
X39306Y312170D01*
X34726Y307590D01*
X34623Y307675D01*
X33068Y308506D01*
X31381Y309018D01*
X29626Y309191D01*
X27871Y309018D01*
X26184Y308506D01*
X24629Y307675D01*
X23266Y306557D01*
X22148Y305194D01*
X21317Y303639D01*
X20805Y301952D01*
X20632Y300197D01*
X20805Y298442D01*
X21317Y296755D01*
X22148Y295200D01*
X23266Y293837D01*
X24629Y292719D01*
X26184Y291887D01*
X27871Y291375D01*
X29626Y291203D01*
X31381Y291375D01*
X33068Y291887D01*
X34623Y292719D01*
X35986Y293837D01*
X37104Y295200D01*
X37936Y296755D01*
X38447Y298442D01*
X38620Y300197D01*
X38447Y301952D01*
X37936Y303639D01*
X37104Y305194D01*
X37020Y305297D01*
X41124Y309402D01*
X55102D01*
Y307071D01*
X63008D01*
Y314976D01*
X60677D01*
Y331595D01*
X60553Y332215D01*
X60202Y332741D01*
X35528Y357416D01*
X36037Y358368D01*
X36432Y359670D01*
X36565Y361024D01*
X36432Y362377D01*
X36037Y363679D01*
X35396Y364879D01*
X34533Y365930D01*
X33481Y366793D01*
X32281Y367434D01*
X30980Y367829D01*
X29626Y367963D01*
D02*
G37*
G36*
X24004Y314461D02*
X15559D01*
Y309283D01*
X20625D01*
X19754Y308404D01*
X18154Y306546D01*
X18501Y306651D01*
X20056Y307482D01*
X21419Y308601D01*
X22537Y309964D01*
X23369Y311519D01*
X23880Y313206D01*
X24004Y314461D01*
D02*
G37*
G36*
X14559D02*
X6114D01*
X6238Y313206D01*
X6750Y311519D01*
X7581Y309964D01*
X8699Y308601D01*
X10062Y307482D01*
X11617Y306651D01*
X12017Y306530D01*
X11830Y306768D01*
X10364Y308404D01*
X9493Y309283D01*
X14559D01*
Y314461D01*
D02*
G37*
G36*
X121615Y303644D02*
X117677D01*
X116903Y303542D01*
X116180Y303243D01*
X115560Y302767D01*
X115085Y302147D01*
X114785Y301425D01*
X114683Y300650D01*
X114785Y299875D01*
X115085Y299152D01*
X115560Y298532D01*
X115734Y298400D01*
Y297900D01*
X115560Y297767D01*
X115085Y297147D01*
X114785Y296425D01*
X114749Y296150D01*
X119646D01*
X122976D01*
Y297056D01*
X122996Y296976D01*
X123057Y296904D01*
X123158Y296841D01*
X123300Y296786D01*
X123483Y296739D01*
X123706Y296701D01*
X123969Y296672D01*
X124414Y296649D01*
X124207Y297147D01*
X123732Y297767D01*
X123558Y297900D01*
Y298400D01*
X123732Y298532D01*
X124207Y299152D01*
X124507Y299875D01*
X124609Y300650D01*
X124507Y301425D01*
X124207Y302147D01*
X123732Y302767D01*
X123112Y303243D01*
X122389Y303542D01*
X121615Y303644D01*
D02*
G37*
G36*
X168323Y299602D02*
X164870D01*
Y296150D01*
X168323D01*
Y299602D01*
D02*
G37*
G36*
X163870D02*
X160417D01*
Y296245D01*
X160475Y296246D01*
X160678Y296264D01*
X160857Y296293D01*
X161012Y296335D01*
X161143Y296388D01*
X161250Y296453D01*
X161334Y296530D01*
X161393Y296618D01*
X161429Y296719D01*
X161441Y296831D01*
Y296150D01*
X163870D01*
Y299602D01*
D02*
G37*
G36*
Y295150D02*
X161441D01*
Y294468D01*
X161429Y294581D01*
X161393Y294681D01*
X161334Y294770D01*
X161250Y294847D01*
X161143Y294911D01*
X161012Y294965D01*
X160857Y295006D01*
X160678Y295035D01*
X160475Y295053D01*
X160417Y295055D01*
Y291697D01*
X163870D01*
Y295150D01*
D02*
G37*
G36*
X168323D02*
X164870D01*
Y291697D01*
X168323D01*
Y295150D01*
D02*
G37*
G36*
X59055Y305168D02*
X58023Y305032D01*
X57062Y304634D01*
X56236Y304000D01*
X55602Y303175D01*
X55204Y302213D01*
X55068Y301181D01*
X55204Y300149D01*
X55602Y299188D01*
X56236Y298362D01*
X57062Y297728D01*
X58023Y297330D01*
X59055Y297194D01*
X60087Y297330D01*
X60459Y297484D01*
X63807Y294135D01*
X64334Y293784D01*
X64954Y293660D01*
X84756D01*
X84869Y293388D01*
X85471Y292603D01*
X86256Y292001D01*
X87169Y291623D01*
X88150Y291494D01*
X89131Y291623D01*
X90044Y292001D01*
X90829Y292603D01*
X91431Y293388D01*
X91809Y294302D01*
X91938Y295282D01*
X91809Y296263D01*
X91431Y297176D01*
X90829Y297961D01*
X90044Y298563D01*
X89131Y298941D01*
X88150Y299070D01*
X87169Y298941D01*
X86256Y298563D01*
X85471Y297961D01*
X84869Y297176D01*
X84756Y296904D01*
X65626D01*
X62752Y299778D01*
X62906Y300149D01*
X63042Y301181D01*
X62906Y302213D01*
X62508Y303175D01*
X61874Y304000D01*
X61048Y304634D01*
X60087Y305032D01*
X59055Y305168D01*
D02*
G37*
G36*
X122976Y295150D02*
X119646D01*
X114749D01*
X114785Y294875D01*
X115085Y294152D01*
X115150Y294067D01*
X114929Y293618D01*
X114709D01*
Y287681D01*
X124583D01*
Y293618D01*
X124363D01*
X124142Y294067D01*
X124207Y294152D01*
X124412Y294647D01*
X123706Y294598D01*
X123483Y294560D01*
X123300Y294513D01*
X123158Y294459D01*
X123057Y294395D01*
X122996Y294323D01*
X122976Y294243D01*
Y295150D01*
D02*
G37*
G36*
X164370Y289636D02*
X163338Y289501D01*
X162377Y289102D01*
X161551Y288469D01*
X160917Y287643D01*
X160519Y286682D01*
X160383Y285650D01*
X160519Y284618D01*
X160917Y283656D01*
X161551Y282831D01*
X162377Y282197D01*
X163338Y281799D01*
X164370Y281663D01*
X165402Y281799D01*
X166363Y282197D01*
X167189Y282831D01*
X167823Y283656D01*
X168221Y284618D01*
X168357Y285650D01*
X168221Y286682D01*
X167823Y287643D01*
X167189Y288469D01*
X166363Y289102D01*
X165402Y289501D01*
X164370Y289636D01*
D02*
G37*
G36*
X18374Y252258D02*
Y247646D01*
X22986D01*
X22876Y248486D01*
X22358Y249735D01*
X21535Y250807D01*
X20463Y251630D01*
X19214Y252147D01*
X18374Y252258D01*
D02*
G37*
G36*
X17374D02*
X16534Y252147D01*
X15285Y251630D01*
X14212Y250807D01*
X13390Y249735D01*
X12872Y248486D01*
X12762Y247646D01*
X17374D01*
Y252258D01*
D02*
G37*
G36*
X22986Y246646D02*
X18374D01*
Y242033D01*
X19214Y242144D01*
X20463Y242661D01*
X21535Y243484D01*
X22358Y244556D01*
X22876Y245805D01*
X22986Y246646D01*
D02*
G37*
G36*
X17374D02*
X12762D01*
X12872Y245805D01*
X13390Y244556D01*
X14212Y243484D01*
X15285Y242661D01*
X16534Y242144D01*
X17374Y242033D01*
Y246646D01*
D02*
G37*
G36*
X121614Y231448D02*
X120582Y231312D01*
X119621Y230913D01*
X118795Y230280D01*
X118162Y229454D01*
X117763Y228492D01*
X117628Y227461D01*
X117763Y226429D01*
X118162Y225467D01*
X118795Y224641D01*
X119621Y224008D01*
X120582Y223610D01*
X121614Y223474D01*
X122646Y223610D01*
X123608Y224008D01*
X124434Y224641D01*
X125067Y225467D01*
X125465Y226429D01*
X125601Y227461D01*
X125465Y228492D01*
X125067Y229454D01*
X124434Y230280D01*
X123608Y230913D01*
X122646Y231312D01*
X121614Y231448D01*
D02*
G37*
G36*
X293575Y226159D02*
X290122D01*
Y222706D01*
X291389D01*
Y223975D01*
X291658Y223751D01*
X291993Y223551D01*
X292394Y223374D01*
X292551Y223323D01*
Y223387D01*
X292558Y223320D01*
X292861Y223221D01*
X293395Y223091D01*
X293575Y223059D01*
Y226159D01*
D02*
G37*
G36*
X289122D02*
X285670D01*
Y222706D01*
X285910D01*
X286116Y223080D01*
X286364Y223632D01*
X286540Y224161D01*
X286646Y224666D01*
X286682Y225147D01*
X289122Y222706D01*
Y226159D01*
D02*
G37*
G36*
X23008Y232594D02*
X12740D01*
Y222327D01*
X23008D01*
Y232594D01*
D02*
G37*
G36*
X293575Y221353D02*
X293395Y221321D01*
X292861Y221192D01*
X292558Y221092D01*
X292551Y221025D01*
Y221090D01*
X292394Y221038D01*
X291993Y220862D01*
X291658Y220661D01*
X291390Y220438D01*
X292563Y219266D01*
X292082Y219230D01*
X291577Y219124D01*
X291049Y218947D01*
X290496Y218700D01*
X290122Y218493D01*
Y218253D01*
X293575D01*
Y221353D01*
D02*
G37*
G36*
X331209Y224963D02*
Y220738D01*
X335434D01*
X335336Y221478D01*
X334858Y222633D01*
X334096Y223625D01*
X333104Y224387D01*
X331949Y224866D01*
X331209Y224963D01*
D02*
G37*
G36*
X330209D02*
X329469Y224866D01*
X328313Y224387D01*
X327321Y223625D01*
X326559Y222633D01*
X326081Y221478D01*
X326050Y221243D01*
X326215Y221337D01*
X326549Y221561D01*
X326898Y221825D01*
X327639Y222476D01*
X328031Y222863D01*
Y220738D01*
X330209D01*
Y224963D01*
D02*
G37*
G36*
X291389Y221706D02*
X290122D01*
D01*
X291389Y220440D01*
Y221706D01*
D02*
G37*
G36*
X172929Y254554D02*
X172015Y254433D01*
X171163Y254081D01*
X170432Y253520D01*
X169871Y252789D01*
X169519Y251937D01*
X169398Y251024D01*
X169519Y250110D01*
X169871Y249258D01*
X170432Y248527D01*
X171163Y247966D01*
X172015Y247614D01*
X172929Y247493D01*
X173842Y247614D01*
X173986Y247673D01*
X189774Y231885D01*
X190300Y231534D01*
X190920Y231410D01*
X195407D01*
X201516Y225301D01*
Y219689D01*
X209421D01*
Y227594D01*
X203809D01*
X197225Y234178D01*
X196699Y234530D01*
X196079Y234653D01*
X191592D01*
X176279Y249967D01*
X176339Y250110D01*
X176459Y251024D01*
X176339Y251937D01*
X175986Y252789D01*
X175425Y253520D01*
X174694Y254081D01*
X173842Y254433D01*
X172929Y254554D01*
D02*
G37*
G36*
X330209Y219738D02*
X328031D01*
Y217613D01*
X327639Y217999D01*
X326898Y218650D01*
X326549Y218915D01*
X326215Y219139D01*
X326050Y219233D01*
X326081Y218998D01*
X326559Y217842D01*
X327321Y216850D01*
X328313Y216089D01*
X329469Y215610D01*
X330209Y215513D01*
Y219738D01*
D02*
G37*
G36*
X248819Y226759D02*
X247579Y226596D01*
X246424Y226117D01*
X245431Y225356D01*
X244670Y224364D01*
X244191Y223208D01*
X244028Y221968D01*
X244191Y220728D01*
X244670Y219573D01*
X245431Y218581D01*
X246424Y217819D01*
X247579Y217341D01*
X248819Y217177D01*
X250059Y217341D01*
X251215Y217819D01*
X252207Y218581D01*
X252968Y219573D01*
X253447Y220728D01*
X253610Y221968D01*
X253447Y223208D01*
X252968Y224364D01*
X252207Y225356D01*
X251215Y226117D01*
X250059Y226596D01*
X248819Y226759D01*
D02*
G37*
G36*
X335434Y219738D02*
X331209D01*
Y215513D01*
X331949Y215610D01*
X333104Y216089D01*
X334096Y216850D01*
X334858Y217842D01*
X335336Y218998D01*
X335434Y219738D01*
D02*
G37*
G36*
X90650Y218764D02*
X85650D01*
X83650Y216764D01*
Y212764D01*
X85650Y210764D01*
X90650D01*
X92650Y212764D01*
Y216764D01*
X90650Y218764D01*
D02*
G37*
G36*
X205969Y213783D02*
Y210362D01*
X209390D01*
X209320Y210894D01*
X208922Y211856D01*
X208288Y212681D01*
X207462Y213315D01*
X206501Y213713D01*
X205969Y213783D01*
D02*
G37*
G36*
X204969D02*
X204437Y213713D01*
X203475Y213315D01*
X202650Y212681D01*
X202016Y211856D01*
X201618Y210894D01*
X201596Y210730D01*
X201696Y210747D01*
X201993Y210819D01*
X201997Y210822D01*
X202256Y210984D01*
X202522Y211176D01*
X202795Y211398D01*
X203360Y211929D01*
Y211364D01*
X203433Y211407D01*
X203702Y211631D01*
Y210362D01*
X204969D01*
Y213783D01*
D02*
G37*
G36*
Y209362D02*
X203702D01*
Y208093D01*
X203433Y208317D01*
X203360Y208361D01*
Y207795D01*
X203074Y208076D01*
X202522Y208548D01*
X202256Y208740D01*
X201997Y208903D01*
X201993Y208905D01*
X201696Y208977D01*
X201596Y208995D01*
X201618Y208830D01*
X202016Y207869D01*
X202650Y207043D01*
X203475Y206410D01*
X204437Y206011D01*
X204969Y205941D01*
Y209362D01*
D02*
G37*
G36*
X18374Y211884D02*
Y207272D01*
X22986D01*
X22876Y208112D01*
X22358Y209361D01*
X21535Y210433D01*
X20463Y211256D01*
X19214Y211773D01*
X18374Y211884D01*
D02*
G37*
G36*
X17374D02*
X16534Y211773D01*
X15285Y211256D01*
X14212Y210433D01*
X13390Y209361D01*
X12872Y208112D01*
X12762Y207272D01*
X17374D01*
Y211884D01*
D02*
G37*
G36*
X209390Y209362D02*
X205969D01*
Y205941D01*
X206501Y206011D01*
X207462Y206410D01*
X208288Y207043D01*
X208922Y207869D01*
X209320Y208830D01*
X209390Y209362D01*
D02*
G37*
G36*
X251631Y207071D02*
X249319D01*
Y202783D01*
X252129D01*
X251993Y205968D01*
X252254Y205822D01*
X252581Y205693D01*
X252974Y205578D01*
X253432Y205479D01*
X253534Y205462D01*
X253457Y205852D01*
X253028Y206493D01*
X252387Y206921D01*
X251631Y207071D01*
D02*
G37*
G36*
X289622Y212414D02*
X288591Y212278D01*
X287629Y211879D01*
X286803Y211246D01*
X286170Y210420D01*
X285771Y209459D01*
X285635Y208427D01*
X285771Y207395D01*
X286170Y206433D01*
X286803Y205608D01*
X287629Y204974D01*
X288591Y204576D01*
X289622Y204440D01*
X290654Y204576D01*
X291616Y204974D01*
X292442Y205608D01*
X293075Y206433D01*
X293473Y207395D01*
X293609Y208427D01*
X293473Y209459D01*
X293075Y210420D01*
X292442Y211246D01*
X291616Y211879D01*
X290654Y212278D01*
X289622Y212414D01*
D02*
G37*
G36*
X248319Y207071D02*
X246006D01*
X245251Y206921D01*
X244610Y206493D01*
X244181Y205852D01*
X244104Y205462D01*
X244207Y205479D01*
X244664Y205578D01*
X245057Y205693D01*
X245384Y205822D01*
X245645Y205968D01*
X245509Y202783D01*
X248319D01*
Y207071D01*
D02*
G37*
G36*
X22986Y206272D02*
X18374D01*
Y201659D01*
X19214Y201770D01*
X20463Y202287D01*
X21535Y203110D01*
X22358Y204183D01*
X22876Y205431D01*
X22986Y206272D01*
D02*
G37*
G36*
X17374D02*
X12762D01*
X12872Y205431D01*
X13390Y204183D01*
X14212Y203110D01*
X15285Y202287D01*
X16534Y201770D01*
X17374Y201659D01*
Y206272D01*
D02*
G37*
G36*
X88650Y208798D02*
X87650D01*
X86606Y208661D01*
X85633Y208258D01*
X84797Y207617D01*
X84156Y206781D01*
X83753Y205808D01*
X83615Y204764D01*
X83753Y203720D01*
X84156Y202747D01*
X84797Y201911D01*
X85633Y201270D01*
X86606Y200867D01*
X87650Y200729D01*
X88650D01*
X89694Y200867D01*
X90667Y201270D01*
X91503Y201911D01*
X92144Y202747D01*
X92547Y203720D01*
X92685Y204764D01*
X92547Y205808D01*
X92144Y206781D01*
X91503Y207617D01*
X90667Y208258D01*
X89694Y208661D01*
X88650Y208798D01*
D02*
G37*
G36*
X248319Y201783D02*
X245467D01*
X245339Y198804D01*
X245118Y199070D01*
X244829Y199308D01*
X244472Y199518D01*
X244046Y199699D01*
X244031Y199704D01*
Y199471D01*
X244181Y198715D01*
X244610Y198074D01*
X245251Y197646D01*
X246006Y197495D01*
X248319D01*
Y201783D01*
D02*
G37*
G36*
X252171D02*
X249319D01*
Y197495D01*
X251631D01*
X252387Y197646D01*
X253028Y198074D01*
X253457Y198715D01*
X253607Y199471D01*
Y199704D01*
X253592Y199699D01*
X253166Y199518D01*
X252809Y199308D01*
X252520Y199070D01*
X252299Y198804D01*
X252171Y201783D01*
D02*
G37*
G36*
X23008Y192220D02*
X12740D01*
Y181953D01*
X23008D01*
Y192220D01*
D02*
G37*
G36*
X210777Y172260D02*
X206930D01*
Y168413D01*
X210777D01*
Y172260D01*
D02*
G37*
G36*
X205930D02*
X202084D01*
Y168413D01*
X205930D01*
Y172260D01*
D02*
G37*
G36*
X18374Y171490D02*
Y166878D01*
X22986D01*
X22876Y167718D01*
X22358Y168967D01*
X21535Y170039D01*
X20463Y170862D01*
X19214Y171380D01*
X18374Y171490D01*
D02*
G37*
G36*
X17374D02*
X16534Y171380D01*
X15285Y170862D01*
X14212Y170039D01*
X13390Y168967D01*
X12872Y167718D01*
X12762Y166878D01*
X17374D01*
Y171490D01*
D02*
G37*
G36*
X210777Y167413D02*
X206930D01*
Y163567D01*
X210777D01*
Y167413D01*
D02*
G37*
G36*
X205930D02*
X202084D01*
Y163567D01*
X205930D01*
Y167413D01*
D02*
G37*
G36*
X334595Y163874D02*
X335134Y163335D01*
X334918Y163658D01*
X334595Y163874D01*
D02*
G37*
G36*
X333521Y164237D02*
X331209D01*
Y159949D01*
X335497D01*
Y162261D01*
X335346Y163017D01*
X335253Y163157D01*
X335051Y162948D01*
X334690Y162520D01*
X334559Y162330D01*
X334460Y162157D01*
X334395Y162000D01*
X334363Y161859D01*
X334364Y161734D01*
X334398Y161627D01*
X334465Y161535D01*
X332794Y163205D01*
X332886Y163138D01*
X332994Y163104D01*
X333119Y163103D01*
X333259Y163135D01*
X333416Y163201D01*
X333590Y163299D01*
X333779Y163430D01*
X333985Y163594D01*
X334208Y163792D01*
X334417Y163993D01*
X334277Y164087D01*
X333521Y164237D01*
D02*
G37*
G36*
X251631Y166205D02*
X249318D01*
Y161917D01*
X253606D01*
Y164230D01*
X253456Y164986D01*
X253028Y165627D01*
X252387Y166055D01*
X251631Y166205D01*
D02*
G37*
G36*
X248318D02*
X246006D01*
X245250Y166055D01*
X244609Y165627D01*
X244181Y164986D01*
X244030Y164230D01*
Y161917D01*
X248318D01*
Y166205D01*
D02*
G37*
G36*
X22986Y165878D02*
X18374D01*
Y161266D01*
X19214Y161376D01*
X20463Y161894D01*
X21535Y162716D01*
X22358Y163789D01*
X22876Y165038D01*
X22986Y165878D01*
D02*
G37*
G36*
X17374D02*
X12762D01*
X12872Y165038D01*
X13390Y163789D01*
X14212Y162716D01*
X15285Y161894D01*
X16534Y161376D01*
X17374Y161266D01*
Y165878D01*
D02*
G37*
G36*
X330209Y164237D02*
X327896D01*
X327140Y164087D01*
X326499Y163658D01*
X326071Y163017D01*
X325921Y162261D01*
Y159949D01*
X330209D01*
Y164237D01*
D02*
G37*
G36*
X253606Y160917D02*
X249318D01*
Y156629D01*
X251631D01*
X252387Y156780D01*
X253028Y157208D01*
X253456Y157849D01*
X253606Y158605D01*
Y160917D01*
D02*
G37*
G36*
X248318D02*
X244030D01*
Y158605D01*
X244181Y157849D01*
X244609Y157208D01*
X245250Y156780D01*
X246006Y156629D01*
X248318D01*
Y160917D01*
D02*
G37*
G36*
X335497Y158949D02*
X331209D01*
Y154661D01*
X333521D01*
X334277Y154811D01*
X334918Y155240D01*
X335346Y155880D01*
X335497Y156637D01*
Y158949D01*
D02*
G37*
G36*
X330209D02*
X325921D01*
Y156637D01*
X326071Y155880D01*
X326499Y155240D01*
X327140Y154811D01*
X327896Y154661D01*
X330209D01*
Y158949D01*
D02*
G37*
G36*
X121614Y150680D02*
X120582Y150544D01*
X119621Y150146D01*
X118795Y149512D01*
X118162Y148686D01*
X117763Y147725D01*
X117628Y146693D01*
X117763Y145661D01*
X118162Y144700D01*
X118795Y143874D01*
X119621Y143240D01*
X120582Y142842D01*
X121614Y142706D01*
X122646Y142842D01*
X123608Y143240D01*
X124434Y143874D01*
X125067Y144700D01*
X125465Y145661D01*
X125601Y146693D01*
X125465Y147725D01*
X125067Y148686D01*
X124434Y149512D01*
X123608Y150146D01*
X122646Y150544D01*
X121614Y150680D01*
D02*
G37*
G36*
X23008Y151827D02*
X12740D01*
Y141559D01*
X23008D01*
Y151827D01*
D02*
G37*
G36*
X58760Y153632D02*
X57406Y153499D01*
X56104Y153104D01*
X54905Y152462D01*
X53853Y151600D01*
X52990Y150548D01*
X52349Y149348D01*
X51954Y148047D01*
X51821Y146693D01*
X51954Y145339D01*
X52349Y144038D01*
X52990Y142838D01*
X53853Y141786D01*
X54905Y140924D01*
X56104Y140282D01*
X57406Y139887D01*
X58760Y139754D01*
X60114Y139887D01*
X61415Y140282D01*
X62615Y140924D01*
X63666Y141786D01*
X64529Y142838D01*
X65171Y144038D01*
X65565Y145339D01*
X65699Y146693D01*
X65565Y148047D01*
X65171Y149348D01*
X64529Y150548D01*
X63666Y151600D01*
X62615Y152462D01*
X61415Y153104D01*
X60114Y153499D01*
X58760Y153632D01*
D02*
G37*
G36*
X291084Y141761D02*
Y137943D01*
X294902D01*
X294819Y138577D01*
X294381Y139635D01*
X293684Y140542D01*
X292776Y141239D01*
X291719Y141677D01*
X291084Y141761D01*
D02*
G37*
G36*
X290084D02*
X289449Y141677D01*
X288392Y141239D01*
X287484Y140542D01*
X286787Y139635D01*
X286349Y138577D01*
X286266Y137943D01*
X290084D01*
Y141761D01*
D02*
G37*
G36*
X294902Y136943D02*
X291084D01*
Y133124D01*
X291719Y133208D01*
X292776Y133646D01*
X293684Y134343D01*
X294381Y135251D01*
X294819Y136308D01*
X294902Y136943D01*
D02*
G37*
G36*
X290084D02*
X286266D01*
X286349Y136308D01*
X286787Y135251D01*
X287484Y134343D01*
X288392Y133646D01*
X289449Y133208D01*
X290084Y133124D01*
Y136943D01*
D02*
G37*
G36*
X89764Y136441D02*
X84764D01*
X82764Y134441D01*
Y130441D01*
X84764Y128441D01*
X89764D01*
X91764Y130441D01*
Y134441D01*
X89764Y136441D01*
D02*
G37*
G36*
X18374Y131096D02*
Y126484D01*
X22986D01*
X22876Y127324D01*
X22358Y128573D01*
X21535Y129646D01*
X20463Y130469D01*
X19214Y130986D01*
X18374Y131096D01*
D02*
G37*
G36*
X17374D02*
X16534Y130986D01*
X15285Y130469D01*
X14212Y129646D01*
X13390Y128573D01*
X12872Y127324D01*
X12762Y126484D01*
X17374D01*
Y131096D01*
D02*
G37*
G36*
X22986Y125484D02*
X18374D01*
Y120872D01*
X19214Y120983D01*
X20463Y121500D01*
X21535Y122323D01*
X22358Y123395D01*
X22876Y124644D01*
X22986Y125484D01*
D02*
G37*
G36*
X17374D02*
X12762D01*
X12872Y124644D01*
X13390Y123395D01*
X14212Y122323D01*
X15285Y121500D01*
X16534Y120983D01*
X17374Y120872D01*
Y125484D01*
D02*
G37*
G36*
X87764Y126475D02*
X86764D01*
X85720Y126338D01*
X84747Y125935D01*
X83911Y125294D01*
X83270Y124458D01*
X82867Y123485D01*
X82730Y122441D01*
X82867Y121397D01*
X83270Y120423D01*
X83911Y119588D01*
X84747Y118947D01*
X85527Y118624D01*
X85586Y118115D01*
X75392Y107921D01*
X65484D01*
X65171Y108955D01*
X64529Y110154D01*
X63666Y111206D01*
X62615Y112069D01*
X61415Y112710D01*
X60114Y113105D01*
X58760Y113238D01*
X57406Y113105D01*
X56104Y112710D01*
X54905Y112069D01*
X53853Y111206D01*
X52990Y110154D01*
X52349Y108955D01*
X51954Y107653D01*
X51821Y106299D01*
X51954Y104946D01*
X52349Y103644D01*
X52990Y102444D01*
X53853Y101393D01*
X54905Y100530D01*
X56104Y99888D01*
X57406Y99494D01*
X58760Y99360D01*
X60114Y99494D01*
X61415Y99888D01*
X62615Y100530D01*
X63666Y101393D01*
X64529Y102444D01*
X65171Y103644D01*
X65484Y104677D01*
X76063D01*
X76684Y104801D01*
X77210Y105152D01*
X88411Y116353D01*
X88762Y116879D01*
X88886Y117500D01*
Y118536D01*
X88889Y118577D01*
X89781Y118947D01*
X90617Y119588D01*
X91258Y120423D01*
X91661Y121397D01*
X91799Y122441D01*
X91661Y123485D01*
X91258Y124458D01*
X90617Y125294D01*
X89781Y125935D01*
X88808Y126338D01*
X87764Y126475D01*
D02*
G37*
G36*
X23008Y111433D02*
X12740D01*
Y101165D01*
X23008D01*
Y111433D01*
D02*
G37*
G36*
X58760Y234400D02*
X57406Y234266D01*
X56104Y233871D01*
X54905Y233230D01*
X53853Y232367D01*
X52990Y231316D01*
X52349Y230116D01*
X51954Y228814D01*
X51821Y227461D01*
X51954Y226107D01*
X52349Y224805D01*
X52990Y223605D01*
X53853Y222554D01*
X54905Y221691D01*
X56104Y221050D01*
X57406Y220655D01*
X58760Y220522D01*
X60114Y220655D01*
X61415Y221050D01*
X62615Y221691D01*
X63666Y222554D01*
X64529Y223605D01*
X64703Y223930D01*
X95152D01*
X118084Y200998D01*
Y179267D01*
X117763Y178492D01*
X117628Y177461D01*
X117763Y176429D01*
X118084Y175655D01*
Y169229D01*
X107740Y158885D01*
X107179Y158154D01*
X106826Y157303D01*
X106706Y156389D01*
X106706Y156389D01*
Y66929D01*
Y56682D01*
X106826Y55768D01*
X107179Y54917D01*
X107740Y54185D01*
X108471Y53624D01*
X109323Y53272D01*
X110236Y53151D01*
X111150Y53272D01*
X112001Y53624D01*
X112732Y54185D01*
X113294Y54917D01*
X113646Y55768D01*
X113766Y56682D01*
Y66929D01*
Y117249D01*
X114213Y117507D01*
X114266Y117504D01*
X114804Y116804D01*
X115535Y116243D01*
X116386Y115890D01*
X117300Y115770D01*
X118214Y115890D01*
X118357Y115949D01*
X119993Y114314D01*
Y90300D01*
X119621Y90146D01*
X118795Y89512D01*
X118162Y88686D01*
X117763Y87725D01*
X117628Y86693D01*
X117763Y85661D01*
X118162Y84700D01*
X118795Y83874D01*
X119621Y83240D01*
X120582Y82842D01*
X121614Y82706D01*
X122646Y82842D01*
X123608Y83240D01*
X124434Y83874D01*
X125067Y84700D01*
X125465Y85661D01*
X125601Y86693D01*
X125465Y87725D01*
X125067Y88686D01*
X124434Y89512D01*
X123608Y90146D01*
X123236Y90300D01*
Y114986D01*
X123113Y115606D01*
X122761Y116132D01*
X120650Y118243D01*
X120710Y118386D01*
X120830Y119300D01*
X120710Y120214D01*
X120357Y121065D01*
X119796Y121796D01*
X119065Y122357D01*
X118214Y122710D01*
X117300Y122830D01*
X116386Y122710D01*
X115535Y122357D01*
X114804Y121796D01*
X114266Y121096D01*
X114213Y121093D01*
X113766Y121351D01*
Y154927D01*
X124110Y165271D01*
X124671Y166002D01*
X125024Y166853D01*
X125144Y167767D01*
Y175654D01*
X125465Y176429D01*
X125601Y177461D01*
X125465Y178492D01*
X125144Y179268D01*
Y202461D01*
X125024Y203375D01*
X124671Y204226D01*
X124110Y204957D01*
X99111Y229957D01*
X98379Y230518D01*
X97528Y230871D01*
X96614Y230991D01*
X64703D01*
X64529Y231316D01*
X63666Y232367D01*
X62615Y233230D01*
X61415Y233871D01*
X60114Y234266D01*
X58760Y234400D01*
D02*
G37*
G36*
Y194026D02*
X57406Y193892D01*
X56104Y193497D01*
X54905Y192856D01*
X53853Y191993D01*
X52990Y190942D01*
X52349Y189742D01*
X51954Y188440D01*
X51821Y187087D01*
X51954Y185733D01*
X52349Y184431D01*
X52990Y183231D01*
X53853Y182180D01*
X54905Y181317D01*
X56104Y180676D01*
X57406Y180281D01*
X58760Y180148D01*
X60114Y180281D01*
X60466Y180388D01*
X95634Y145220D01*
Y98425D01*
Y86033D01*
X95754Y85119D01*
X96107Y84268D01*
X96668Y83537D01*
X97399Y82976D01*
X98250Y82623D01*
X99164Y82503D01*
X100078Y82623D01*
X100929Y82976D01*
X101660Y83537D01*
X102221Y84268D01*
X102574Y85119D01*
X102694Y86033D01*
Y98425D01*
Y146682D01*
X102574Y147596D01*
X102221Y148448D01*
X101660Y149179D01*
X65459Y185380D01*
X65565Y185733D01*
X65699Y187087D01*
X65565Y188440D01*
X65171Y189742D01*
X64529Y190942D01*
X63666Y191993D01*
X62615Y192856D01*
X61415Y193497D01*
X60114Y193892D01*
X58760Y194026D01*
D02*
G37*
G36*
X248819Y70214D02*
X247838Y70084D01*
X246925Y69706D01*
X246140Y69104D01*
X245538Y68319D01*
X245160Y67406D01*
X245031Y66425D01*
X245160Y65445D01*
X245538Y64531D01*
X246140Y63747D01*
X246925Y63144D01*
X247838Y62766D01*
X248819Y62637D01*
X249799Y62766D01*
X250713Y63144D01*
X251498Y63747D01*
X252100Y64531D01*
X252478Y65445D01*
X252607Y66425D01*
X252478Y67406D01*
X252100Y68319D01*
X251498Y69104D01*
X250713Y69706D01*
X249799Y70084D01*
X248819Y70214D01*
D02*
G37*
G36*
X330709Y69030D02*
X329728Y68901D01*
X328814Y68522D01*
X328030Y67920D01*
X327428Y67136D01*
X327049Y66222D01*
X326920Y65241D01*
X327049Y64261D01*
X327428Y63347D01*
X328030Y62563D01*
X328814Y61961D01*
X329728Y61582D01*
X330709Y61453D01*
X331689Y61582D01*
X332603Y61961D01*
X333387Y62563D01*
X333989Y63347D01*
X334368Y64261D01*
X334497Y65241D01*
X334368Y66222D01*
X333989Y67136D01*
X333387Y67920D01*
X332603Y68522D01*
X331689Y68901D01*
X330709Y69030D01*
D02*
G37*
G36*
X378965Y64886D02*
X375118D01*
Y61039D01*
X378965D01*
Y64886D01*
D02*
G37*
G36*
X374118D02*
X370272D01*
Y61039D01*
X374118D01*
Y64886D01*
D02*
G37*
G36*
X210777Y64886D02*
X206930D01*
Y61039D01*
X210777D01*
Y64886D01*
D02*
G37*
G36*
X205930D02*
X202084D01*
Y62233D01*
X202595Y62811D01*
X202873Y63254D01*
X203040Y63609D01*
X203096Y63874D01*
X205930Y61039D01*
Y64886D01*
D02*
G37*
G36*
X378965Y60039D02*
X375118D01*
Y56193D01*
X378965D01*
Y60039D01*
D02*
G37*
G36*
X374118D02*
X370272D01*
Y56193D01*
X374118D01*
Y60039D01*
D02*
G37*
G36*
X210777Y60039D02*
X206930D01*
D01*
X209765Y57205D01*
X209500Y57149D01*
X209146Y56982D01*
X208702Y56704D01*
X208169Y56314D01*
X208024Y56193D01*
X210777D01*
Y60039D01*
D02*
G37*
G36*
X58260Y50197D02*
X57671Y50139D01*
X58260Y49609D01*
Y50197D01*
D02*
G37*
G36*
X59260D02*
Y43807D01*
X62977D01*
Y47441D01*
X63049Y47403D01*
X63188Y47370D01*
X63394Y47341D01*
X64006Y47293D01*
X64430Y47283D01*
X63666Y48214D01*
X62615Y49077D01*
X61415Y49718D01*
X60114Y50113D01*
X59260Y50197D01*
D02*
G37*
G36*
X58260Y48771D02*
X53295Y43807D01*
X58260D01*
Y48771D01*
D02*
G37*
G36*
X51939Y44505D02*
X51870Y43807D01*
X52566D01*
X52232Y44198D01*
X51939Y44505D01*
D02*
G37*
G36*
X249319Y42627D02*
Y38401D01*
X253544D01*
X253447Y39141D01*
X252968Y40297D01*
X252207Y41289D01*
X251215Y42050D01*
X250059Y42529D01*
X249319Y42627D01*
D02*
G37*
G36*
X248319D02*
X247579Y42529D01*
X246424Y42050D01*
X245431Y41289D01*
X244670Y40297D01*
X244191Y39141D01*
X244094Y38401D01*
X248319D01*
Y42627D01*
D02*
G37*
G36*
X62977Y42807D02*
X59260D01*
Y36417D01*
X60114Y36501D01*
X61415Y36896D01*
X62615Y37538D01*
X63666Y38400D01*
X64360Y39246D01*
X62977Y39173D01*
Y42807D01*
D02*
G37*
G36*
X58260D02*
X51870D01*
X51954Y41953D01*
X52349Y40652D01*
X52990Y39452D01*
X53853Y38400D01*
X54905Y37538D01*
X56104Y36896D01*
X57406Y36501D01*
X58260Y36417D01*
Y42807D01*
D02*
G37*
G36*
X253544Y37401D02*
X249319D01*
Y33176D01*
X250059Y33274D01*
X251215Y33752D01*
X252207Y34514D01*
X252968Y35506D01*
X253447Y36661D01*
X253544Y37401D01*
D02*
G37*
G36*
X248319D02*
X244094D01*
X244191Y36661D01*
X244670Y35506D01*
X245431Y34514D01*
X246424Y33752D01*
X247579Y33274D01*
X248319Y33176D01*
Y37401D01*
D02*
G37*
G36*
X291084Y35330D02*
Y31512D01*
X294902D01*
X294819Y32146D01*
X294381Y33204D01*
X293684Y34112D01*
X292776Y34808D01*
X291719Y35246D01*
X291084Y35330D01*
D02*
G37*
G36*
X290084D02*
X289449Y35246D01*
X288392Y34808D01*
X287484Y34112D01*
X286787Y33204D01*
X286349Y32146D01*
X286266Y31512D01*
X290084D01*
Y35330D01*
D02*
G37*
G36*
X294902Y30512D02*
X291084D01*
Y26694D01*
X291719Y26777D01*
X292776Y27215D01*
X293684Y27912D01*
X294381Y28820D01*
X294819Y29877D01*
X294902Y30512D01*
D02*
G37*
G36*
X290084D02*
X286266D01*
X286349Y29877D01*
X286787Y28820D01*
X287484Y27912D01*
X288392Y27215D01*
X289449Y26777D01*
X290084Y26694D01*
Y30512D01*
D02*
G37*
G36*
X206430Y35396D02*
X205296Y35246D01*
X204238Y34808D01*
X203330Y34112D01*
X202634Y33204D01*
X202196Y32146D01*
X202046Y31012D01*
X202196Y29877D01*
X202634Y28820D01*
X203330Y27912D01*
X204238Y27215D01*
X205296Y26777D01*
X206430Y26628D01*
X207565Y26777D01*
X208622Y27215D01*
X209530Y27912D01*
X210227Y28820D01*
X210665Y29877D01*
X210814Y31012D01*
X210665Y32146D01*
X210227Y33204D01*
X209530Y34112D01*
X208622Y34808D01*
X207565Y35246D01*
X206430Y35396D01*
D02*
G37*
G36*
X335490Y21667D02*
X333177D01*
Y17379D01*
X337465D01*
Y19692D01*
X337315Y20448D01*
X336887Y21089D01*
X336246Y21517D01*
X335490Y21667D01*
D02*
G37*
G36*
X332177D02*
X329865D01*
X329109Y21517D01*
X328468Y21089D01*
X328040Y20448D01*
X327889Y19692D01*
Y17379D01*
X332177D01*
Y21667D01*
D02*
G37*
G36*
X251631Y23004D02*
X246006D01*
X245251Y22854D01*
X244610Y22426D01*
X244181Y21785D01*
X244031Y21029D01*
Y15404D01*
X244181Y14648D01*
X244610Y14007D01*
X245251Y13579D01*
X246006Y13428D01*
X251631D01*
X252387Y13579D01*
X253028Y14007D01*
X253457Y14648D01*
X253607Y15404D01*
Y21029D01*
X253457Y21785D01*
X253028Y22426D01*
X252387Y22854D01*
X251631Y23004D01*
D02*
G37*
G36*
X337465Y16379D02*
X333177D01*
Y12091D01*
X335490D01*
X336246Y12242D01*
X336887Y12670D01*
X337315Y13311D01*
X337465Y14067D01*
Y16379D01*
D02*
G37*
G36*
X332177D02*
X327889D01*
Y14067D01*
X328040Y13311D01*
X328468Y12670D01*
X329109Y12242D01*
X329865Y12091D01*
X332177D01*
Y16379D01*
D02*
G37*
%LPD*%
G36*
X318275Y725394D02*
X318263Y725506D01*
X318227Y725606D01*
X318167Y725695D01*
X318084Y725772D01*
X317977Y725837D01*
X317845Y725890D01*
X317690Y725931D01*
X317511Y725961D01*
X317308Y725978D01*
X317082Y725984D01*
Y727165D01*
X317308Y727171D01*
X317511Y727189D01*
X317690Y727218D01*
X317845Y727260D01*
X317977Y727313D01*
X318084Y727378D01*
X318167Y727455D01*
X318227Y727543D01*
X318263Y727644D01*
X318275Y727756D01*
Y725394D01*
D02*
G37*
G36*
X234040Y631181D02*
X234028Y631293D01*
X233992Y631394D01*
X233933Y631483D01*
X233849Y631559D01*
X233742Y631624D01*
X233611Y631677D01*
X233455Y631719D01*
X233277Y631748D01*
X233074Y631766D01*
X232847Y631772D01*
Y632953D01*
X233074Y632959D01*
X233277Y632977D01*
X233455Y633006D01*
X233611Y633047D01*
X233742Y633101D01*
X233849Y633166D01*
X233933Y633242D01*
X233992Y633331D01*
X234028Y633431D01*
X234040Y633543D01*
Y631181D01*
D02*
G37*
G36*
X272323Y567880D02*
X272289Y567772D01*
Y567647D01*
X272323Y567505D01*
X272390Y567346D01*
X272490Y567171D01*
X272624Y566979D01*
X272791Y566770D01*
X273225Y566302D01*
X272390Y565467D01*
X272148Y565701D01*
X271713Y566068D01*
X271521Y566202D01*
X271346Y566302D01*
X271187Y566369D01*
X271045Y566402D01*
X270920D01*
X270811Y566369D01*
X270719Y566302D01*
X272390Y567972D01*
X272323Y567880D01*
D02*
G37*
G36*
X59651Y314919D02*
X59669Y314716D01*
X59699Y314537D01*
X59740Y314382D01*
X59793Y314251D01*
X59858Y314143D01*
X59935Y314060D01*
X60023Y314000D01*
X60124Y313964D01*
X60236Y313952D01*
X57874D01*
X57986Y313964D01*
X58087Y314000D01*
X58175Y314060D01*
X58252Y314143D01*
X58317Y314251D01*
X58370Y314382D01*
X58411Y314537D01*
X58441Y314716D01*
X58459Y314919D01*
X58464Y315145D01*
X59646D01*
X59651Y314919D01*
D02*
G37*
G36*
X56126Y309842D02*
X56114Y309955D01*
X56078Y310055D01*
X56019Y310144D01*
X55935Y310220D01*
X55828Y310285D01*
X55697Y310339D01*
X55542Y310380D01*
X55363Y310409D01*
X55160Y310427D01*
X54933Y310433D01*
Y311614D01*
X55160Y311620D01*
X55363Y311638D01*
X55542Y311667D01*
X55697Y311709D01*
X55828Y311762D01*
X55935Y311827D01*
X56019Y311904D01*
X56078Y311992D01*
X56114Y312092D01*
X56126Y312205D01*
Y309842D01*
D02*
G37*
G36*
X88330Y119524D02*
X88230Y119486D01*
X88142Y119422D01*
X88066Y119333D01*
X88001Y119219D01*
X87949Y119079D01*
X87907Y118914D01*
X87878Y118723D01*
X87860Y118508D01*
X87854Y118266D01*
X86673D01*
X86668Y118508D01*
X86650Y118723D01*
X86621Y118914D01*
X86580Y119079D01*
X86527Y119219D01*
X86462Y119333D01*
X86386Y119422D01*
X86298Y119486D01*
X86198Y119524D01*
X86086Y119536D01*
X88442D01*
X88330Y119524D01*
D02*
G37*
D10*
X568724Y122441D02*
X589197D01*
Y42913D02*
Y122441D01*
X568724Y42913D02*
X589197D01*
X568724D02*
Y122441D01*
X589197D01*
Y42913D02*
Y122441D01*
X568724Y42913D02*
X589197D01*
X568724D02*
Y122441D01*
Y744488D02*
X589197D01*
Y664961D02*
Y744488D01*
X568724Y664961D02*
X589197D01*
X568724D02*
Y744488D01*
X589197D01*
Y664961D02*
Y744488D01*
X568724Y664961D02*
X589197D01*
X568724D02*
Y744488D01*
Y312244D02*
X589197D01*
Y232717D02*
Y312244D01*
X568724Y232717D02*
X589197D01*
X568724D02*
Y312244D01*
X589197D01*
Y232717D02*
Y312244D01*
X568724Y232717D02*
X589197D01*
X568724D02*
Y312244D01*
Y554528D02*
X589197D01*
Y475000D02*
Y554528D01*
X568724Y475000D02*
X589197D01*
X568724D02*
Y554528D01*
X589197D01*
Y475000D02*
Y554528D01*
X568724Y475000D02*
X589197D01*
X568724D02*
Y554528D01*
Y217343D02*
X589197D01*
Y137815D02*
Y217343D01*
X568724Y137815D02*
X589197D01*
X568724D02*
Y217343D01*
X589197D01*
Y137815D02*
Y217343D01*
X568724Y137815D02*
X589197D01*
X568724D02*
Y217343D01*
Y649508D02*
X589197D01*
Y569980D02*
Y649508D01*
X568724Y569980D02*
X589197D01*
X568724D02*
Y649508D01*
X589197D01*
Y569980D02*
Y649508D01*
X568724Y569980D02*
X589197D01*
X568724D02*
Y649508D01*
X5217Y334646D02*
X38681D01*
X-689D02*
X5217D01*
X-689Y331299D02*
Y334646D01*
Y298622D02*
Y331299D01*
Y295276D02*
Y298622D01*
Y295276D02*
X5217D01*
X38681D01*
Y334646D01*
X-38091Y331299D02*
X-689D01*
X-38091Y298622D02*
Y331299D01*
Y298622D02*
X-689D01*
X5217Y295276D02*
Y334646D01*
X38681D01*
X-689D02*
X5217D01*
X-689Y331299D02*
Y334646D01*
Y298622D02*
Y331299D01*
Y295276D02*
Y298622D01*
Y295276D02*
X5217D01*
X38681D01*
Y334646D01*
X-38091Y331299D02*
X-689D01*
X-38091Y298622D02*
Y331299D01*
Y298622D02*
X-689D01*
X5217Y295276D02*
Y334646D01*
X329832Y17936D02*
G03*
X331824Y16881I1976J1321D01*
G01*
X333532Y16879D02*
G03*
X335506Y17917I11J2376D01*
G01*
X331823Y36564D02*
G03*
X329849Y35527I-11J-2376D01*
G01*
X335522Y35508D02*
G03*
X333530Y36563I-1976J-1321D01*
G01*
X328995Y34074D02*
G03*
X328729Y33809I87J-354D01*
G01*
X331878Y33883D02*
G03*
X328995Y34074I-4288J-43031D01*
G01*
X331878Y19560D02*
G03*
X328995Y19370I41749J-654584D01*
G01*
X328729Y19635D02*
G03*
X328995Y19370I357J92D01*
G01*
X333476Y33883D02*
G03*
X336360Y34074I-41797J655314D01*
G01*
X336626Y33809D02*
G03*
X336360Y34074I-357J-92D01*
G01*
X336360Y19370D02*
G03*
X336626Y19635I-87J354D01*
G01*
X333476Y19560D02*
G03*
X336360Y19370I4288J43031D01*
G01*
X331878Y19032D02*
G03*
X330617Y17864I3661J-5218D01*
G01*
X328729Y19635D02*
G03*
X330500Y17864I1772J0D01*
G01*
X336626Y33809D02*
G03*
X334854Y35580I-1772J0D01*
G01*
X330500D02*
G03*
X328729Y33809I0J-1772D01*
G01*
X334854Y17864D02*
G03*
X336626Y19635I0J1772D01*
G01*
X331496Y16879D02*
G03*
X333858Y16879I1181J0D01*
G01*
Y36564D02*
G03*
X331496Y36564I-1181J0D01*
G01*
X414387Y17935D02*
G03*
X416378Y16879I1976J1321D01*
G01*
X418086Y16878D02*
G03*
X420060Y17916I11J2376D01*
G01*
X416377Y36563D02*
G03*
X414403Y35525I-11J-2376D01*
G01*
X420077Y35506D02*
G03*
X418085Y36562I-1976J-1321D01*
G01*
X413549Y34072D02*
G03*
X413283Y33807I87J-354D01*
G01*
X416433Y33882D02*
G03*
X413549Y34072I-4288J-43031D01*
G01*
X416433Y19559D02*
G03*
X413549Y19369I41749J-654584D01*
G01*
X413283Y19634D02*
G03*
X413549Y19369I357J92D01*
G01*
X418031Y33882D02*
G03*
X420914Y34072I-41797J655314D01*
G01*
X421180Y33807D02*
G03*
X420914Y34072I-357J-92D01*
G01*
X420914Y19369D02*
G03*
X421180Y19634I-87J354D01*
G01*
X418031Y19559D02*
G03*
X420914Y19369I4288J43031D01*
G01*
X416433Y19030D02*
G03*
X415171Y17862I3661J-5218D01*
G01*
X413283Y19634D02*
G03*
X415055Y17862I1772J0D01*
G01*
X421180Y33807D02*
G03*
X419409Y35579I-1772J0D01*
G01*
X415055D02*
G03*
X413283Y33807I0J-1772D01*
G01*
X419409Y17862D02*
G03*
X421180Y19634I0J1772D01*
G01*
X416050Y16878D02*
G03*
X418413Y16878I1181J0D01*
G01*
Y36563D02*
G03*
X416050Y36563I-1181J0D01*
G01*
X245974Y19273D02*
G03*
X247966Y18218I1976J1321D01*
G01*
X249673Y18216D02*
G03*
X251647Y19254I11J2376D01*
G01*
X247965Y37901D02*
G03*
X245991Y36864I-11J-2376D01*
G01*
X251664Y36845D02*
G03*
X249672Y37900I-1976J-1321D01*
G01*
X245137Y35411D02*
G03*
X244870Y35146I87J-354D01*
G01*
X248020Y35220D02*
G03*
X245137Y35411I-4288J-43031D01*
G01*
X248020Y20898D02*
G03*
X245137Y20707I41749J-654584D01*
G01*
X244870Y20972D02*
G03*
X245137Y20707I357J92D01*
G01*
X249618Y35220D02*
G03*
X252501Y35411I-41797J655314D01*
G01*
X252767Y35146D02*
G03*
X252501Y35411I-357J-92D01*
G01*
X252501Y20707D02*
G03*
X252767Y20972I-87J354D01*
G01*
X249618Y20898D02*
G03*
X252501Y20707I4288J43031D01*
G01*
X248020Y20369D02*
G03*
X246758Y19201I3661J-5218D01*
G01*
X244870Y20972D02*
G03*
X246642Y19201I1772J0D01*
G01*
X252767Y35146D02*
G03*
X250996Y36917I-1772J0D01*
G01*
X246642D02*
G03*
X244870Y35146I0J-1772D01*
G01*
X250996Y19201D02*
G03*
X252767Y20972I0J1772D01*
G01*
X247638Y18216D02*
G03*
X250000Y18216I1181J0D01*
G01*
Y37901D02*
G03*
X247638Y37901I-1181J0D01*
G01*
X327864Y201610D02*
G03*
X329855Y200554I1976J1321D01*
G01*
X331563Y200553D02*
G03*
X333537Y201590I11J2376D01*
G01*
X329854Y220238D02*
G03*
X327880Y219200I-11J-2376D01*
G01*
X333554Y219181D02*
G03*
X331562Y220236I-1976J-1321D01*
G01*
X327026Y217747D02*
G03*
X326760Y217482I87J-354D01*
G01*
X329910Y217557D02*
G03*
X327026Y217747I-4288J-43031D01*
G01*
X329910Y203234D02*
G03*
X327026Y203044I41749J-654584D01*
G01*
X326760Y203309D02*
G03*
X327026Y203044I357J92D01*
G01*
X331508Y217557D02*
G03*
X334391Y217747I-41797J655314D01*
G01*
X334657Y217482D02*
G03*
X334391Y217747I-357J-92D01*
G01*
X334391Y203044D02*
G03*
X334657Y203309I-87J354D01*
G01*
X331508Y203234D02*
G03*
X334391Y203044I4288J43031D01*
G01*
X329910Y202705D02*
G03*
X328648Y201537I3661J-5218D01*
G01*
X326760Y203309D02*
G03*
X328532Y201537I1772J0D01*
G01*
X334657Y217482D02*
G03*
X332886Y219253I-1772J0D01*
G01*
X328532D02*
G03*
X326760Y217482I0J-1772D01*
G01*
X332886Y201537D02*
G03*
X334657Y203309I0J1772D01*
G01*
X329528Y200553D02*
G03*
X331890Y200553I1181J0D01*
G01*
Y220238D02*
G03*
X329528Y220238I-1181J0D01*
G01*
X245974Y203340D02*
G03*
X247966Y202285I1976J1321D01*
G01*
X249673Y202283D02*
G03*
X251647Y203321I11J2376D01*
G01*
X247965Y221969D02*
G03*
X245991Y220931I-11J-2376D01*
G01*
X251664Y220912D02*
G03*
X249672Y221967I-1976J-1321D01*
G01*
X245137Y219478D02*
G03*
X244870Y219213I87J-354D01*
G01*
X248020Y219287D02*
G03*
X245137Y219478I-4288J-43031D01*
G01*
X248020Y204964D02*
G03*
X245137Y204774I41749J-654584D01*
G01*
X244870Y205039D02*
G03*
X245137Y204774I357J92D01*
G01*
X249618Y219287D02*
G03*
X252501Y219478I-41797J655314D01*
G01*
X252767Y219213D02*
G03*
X252501Y219478I-357J-92D01*
G01*
X252501Y204774D02*
G03*
X252767Y205039I-87J354D01*
G01*
X249618Y204964D02*
G03*
X252501Y204774I4288J43031D01*
G01*
X248020Y204436D02*
G03*
X246758Y203268I3661J-5218D01*
G01*
X244870Y205039D02*
G03*
X246642Y203268I1772J0D01*
G01*
X252767Y219213D02*
G03*
X250996Y220984I-1772J0D01*
G01*
X246642D02*
G03*
X244870Y219213I0J-1772D01*
G01*
X250996Y203268D02*
G03*
X252767Y205039I0J1772D01*
G01*
X247638Y202283D02*
G03*
X250000Y202283I1181J0D01*
G01*
Y221969D02*
G03*
X247638Y221969I-1181J0D01*
G01*
X202511Y481676D02*
G03*
X200519Y482731I-1976J-1321D01*
G01*
X198811Y482733D02*
G03*
X196837Y481695I-11J-2376D01*
G01*
X200520Y463048D02*
G03*
X202494Y464085I11J2376D01*
G01*
X196821Y464105D02*
G03*
X198813Y463049I1976J1321D01*
G01*
X203348Y465539D02*
G03*
X203614Y465804I-87J354D01*
G01*
X200465Y465729D02*
G03*
X203348Y465539I4288J43031D01*
G01*
X200465Y480052D02*
G03*
X203348Y480242I-41749J654584D01*
G01*
X203614Y479977D02*
G03*
X203348Y480242I-357J-92D01*
G01*
X198867Y465729D02*
G03*
X195983Y465539I41797J-655314D01*
G01*
X195717Y465804D02*
G03*
X195983Y465539I357J92D01*
G01*
X195983Y480242D02*
G03*
X195717Y479977I87J-354D01*
G01*
X198867Y480052D02*
G03*
X195983Y480242I-4288J-43031D01*
G01*
X200465Y480580D02*
G03*
X201726Y481748I-3661J5218D01*
G01*
X203614Y479977D02*
G03*
X201843Y481748I-1772J0D01*
G01*
X195717Y465803D02*
G03*
X197489Y464032I1772J0D01*
G01*
X201843D02*
G03*
X203614Y465803I0J1772D01*
G01*
X197489Y481748D02*
G03*
X195717Y479977I0J-1772D01*
G01*
X200847Y482733D02*
G03*
X198485Y482733I-1181J0D01*
G01*
Y463048D02*
G03*
X200847Y463048I1181J0D01*
G01*
X196821Y621536D02*
G03*
X198813Y620481I1976J1321D01*
G01*
X200520Y620479D02*
G03*
X202494Y621517I11J2376D01*
G01*
X198811Y640165D02*
G03*
X196837Y639127I-11J-2376D01*
G01*
X202511Y639108D02*
G03*
X200519Y640163I-1976J-1321D01*
G01*
X195983Y637674D02*
G03*
X195717Y637409I87J-354D01*
G01*
X198867Y637484D02*
G03*
X195983Y637674I-4288J-43031D01*
G01*
X198867Y623161D02*
G03*
X195983Y622970I41749J-654584D01*
G01*
X195717Y623236D02*
G03*
X195983Y622970I357J92D01*
G01*
X200465Y637484D02*
G03*
X203348Y637674I-41797J655314D01*
G01*
X203614Y637409D02*
G03*
X203348Y637674I-357J-92D01*
G01*
X203348Y622970D02*
G03*
X203614Y623236I-87J354D01*
G01*
X200465Y623161D02*
G03*
X203348Y622970I4288J43031D01*
G01*
X198867Y622632D02*
G03*
X197605Y621464I3661J-5218D01*
G01*
X195717Y623236D02*
G03*
X197489Y621464I1772J0D01*
G01*
X203614Y637409D02*
G03*
X201843Y639180I-1772J0D01*
G01*
X197489D02*
G03*
X195717Y637409I0J-1772D01*
G01*
X201843Y621464D02*
G03*
X203614Y623236I0J1772D01*
G01*
X198485Y620479D02*
G03*
X200847Y620479I1181J0D01*
G01*
Y640165D02*
G03*
X198485Y640165I-1181J0D01*
G01*
X245973Y162474D02*
G03*
X247965Y161419I1976J1321D01*
G01*
X249673Y161417D02*
G03*
X251647Y162455I11J2376D01*
G01*
X247964Y181102D02*
G03*
X245990Y180065I-11J-2376D01*
G01*
X251663Y180045D02*
G03*
X249671Y181101I-1976J-1321D01*
G01*
X245136Y178612D02*
G03*
X244870Y178347I87J-354D01*
G01*
X248019Y178421D02*
G03*
X245136Y178612I-4288J-43031D01*
G01*
X248019Y164098D02*
G03*
X245136Y163908I41749J-654584D01*
G01*
X244870Y164173D02*
G03*
X245136Y163908I357J92D01*
G01*
X249617Y178421D02*
G03*
X252501Y178612I-41797J655314D01*
G01*
X252767Y178347D02*
G03*
X252501Y178612I-357J-92D01*
G01*
X252501Y163908D02*
G03*
X252767Y164173I-87J354D01*
G01*
X249617Y164098D02*
G03*
X252501Y163908I4288J43031D01*
G01*
X248019Y163570D02*
G03*
X246758Y162402I3661J-5218D01*
G01*
X244870Y164173D02*
G03*
X246641Y162402I1772J0D01*
G01*
X252767Y178347D02*
G03*
X250995Y180118I-1772J0D01*
G01*
X246641D02*
G03*
X244870Y178347I0J-1772D01*
G01*
X250995Y162402D02*
G03*
X252767Y164173I0J1772D01*
G01*
X247637Y161417D02*
G03*
X249999Y161417I1181J0D01*
G01*
Y181102D02*
G03*
X247637Y181102I-1181J0D01*
G01*
X327864Y160506D02*
G03*
X329855Y159450I1976J1321D01*
G01*
X331563Y159449D02*
G03*
X333537Y160487I11J2376D01*
G01*
X329854Y179134D02*
G03*
X327880Y178096I-11J-2376D01*
G01*
X333554Y178077D02*
G03*
X331562Y179133I-1976J-1321D01*
G01*
X327026Y176643D02*
G03*
X326760Y176378I87J-354D01*
G01*
X329909Y176453D02*
G03*
X327026Y176643I-4288J-43031D01*
G01*
X329909Y162130D02*
G03*
X327026Y161940I41749J-654584D01*
G01*
X326760Y162205D02*
G03*
X327026Y161940I357J92D01*
G01*
X331507Y176453D02*
G03*
X334391Y176643I-41797J655314D01*
G01*
X334657Y176378D02*
G03*
X334391Y176643I-357J-92D01*
G01*
X334391Y161940D02*
G03*
X334657Y162205I-87J354D01*
G01*
X331507Y162130D02*
G03*
X334391Y161940I4288J43031D01*
G01*
X329909Y161601D02*
G03*
X328648Y160433I3661J-5218D01*
G01*
X326760Y162205D02*
G03*
X328532Y160433I1772J0D01*
G01*
X334657Y176378D02*
G03*
X332886Y178150I-1772J0D01*
G01*
X328532D02*
G03*
X326760Y176378I0J-1772D01*
G01*
X332886Y160433D02*
G03*
X334657Y162205I0J1772D01*
G01*
X329527Y159449D02*
G03*
X331890Y159449I1181J0D01*
G01*
Y179134D02*
G03*
X329527Y179134I-1181J0D01*
G01*
X499124Y17935D02*
G03*
X501115Y16879I1976J1321D01*
G01*
X502823Y16878D02*
G03*
X504797Y17916I11J2376D01*
G01*
X501114Y36563D02*
G03*
X499140Y35525I-11J-2376D01*
G01*
X504813Y35506D02*
G03*
X502822Y36562I-1976J-1321D01*
G01*
X498286Y34072D02*
G03*
X498020Y33807I87J-354D01*
G01*
X501169Y33882D02*
G03*
X498286Y34072I-4288J-43031D01*
G01*
X501169Y19559D02*
G03*
X498286Y19369I41749J-654584D01*
G01*
X498020Y19634D02*
G03*
X498286Y19369I357J92D01*
G01*
X502768Y33882D02*
G03*
X505651Y34072I-41797J655314D01*
G01*
X505917Y33807D02*
G03*
X505651Y34072I-357J-92D01*
G01*
X505651Y19369D02*
G03*
X505917Y19634I-87J354D01*
G01*
X502768Y19559D02*
G03*
X505651Y19369I4288J43031D01*
G01*
X501169Y19030D02*
G03*
X499908Y17862I3661J-5218D01*
G01*
X498020Y19634D02*
G03*
X499792Y17862I1772J0D01*
G01*
X505917Y33807D02*
G03*
X504145Y35579I-1772J0D01*
G01*
X499792D02*
G03*
X498020Y33807I0J-1772D01*
G01*
X504145Y17862D02*
G03*
X505917Y19634I0J1772D01*
G01*
X500787Y16878D02*
G03*
X503150Y16878I1181J0D01*
G01*
Y36563D02*
G03*
X500787Y36563I-1181J0D01*
G01*
X540791Y384915D02*
G03*
X542782Y383859I1976J1321D01*
G01*
X544490Y383858D02*
G03*
X546464Y384896I11J2376D01*
G01*
X542781Y403543D02*
G03*
X540807Y402506I-11J-2376D01*
G01*
X546480Y402486D02*
G03*
X544489Y403542I-1976J-1321D01*
G01*
X539953Y401053D02*
G03*
X539687Y400787I87J-354D01*
G01*
X542837Y400862D02*
G03*
X539953Y401053I-4288J-43031D01*
G01*
X542837Y386539D02*
G03*
X539953Y386349I41749J-654584D01*
G01*
X539687Y386614D02*
G03*
X539953Y386349I357J92D01*
G01*
X544434Y400862D02*
G03*
X547318Y401053I-41797J655314D01*
G01*
X547584Y400787D02*
G03*
X547318Y401053I-357J-92D01*
G01*
X547318Y386349D02*
G03*
X547584Y386614I-87J354D01*
G01*
X544434Y386539D02*
G03*
X547318Y386349I4288J43031D01*
G01*
X542837Y386011D02*
G03*
X541575Y384842I3661J-5218D01*
G01*
X539687Y386614D02*
G03*
X541459Y384842I1772J0D01*
G01*
X547584Y400787D02*
G03*
X545812Y402559I-1772J0D01*
G01*
X541459D02*
G03*
X539687Y400787I0J-1772D01*
G01*
X545812Y384842D02*
G03*
X547584Y386614I0J1772D01*
G01*
X542454Y383858D02*
G03*
X544817Y383858I1181J0D01*
G01*
Y403543D02*
G03*
X542454Y403543I-1181J0D01*
G01*
X335522Y17935D02*
X335540Y17962D01*
X335599Y18042D01*
X329760Y18037D02*
X329828Y17943D01*
X329832Y17936D01*
X329815Y35482D02*
X329832Y35510D01*
X329755Y35402D02*
X329815Y35482D01*
X335526Y35501D02*
X335595Y35407D01*
X335522Y35508D02*
X335526Y35501D01*
X333476Y34412D02*
X333554Y34423D01*
X333646Y34465D01*
X333745Y34540D01*
X333830Y34622D01*
X334051Y34885D01*
X334239Y35125D01*
X334407Y35330D01*
X334555Y35481D01*
X334655Y35555D01*
X334738Y35580D01*
X330617D02*
X330722Y35541D01*
X330861Y35423D01*
X331045Y35214D01*
X331273Y34924D01*
X331391Y34775D01*
X331526Y34621D01*
X331621Y34530D01*
X331740Y34448D01*
X331817Y34419D01*
X331878Y34412D01*
X334689Y17873D02*
X334738Y17864D01*
X334632Y17903D02*
X334689Y17873D01*
X334567Y17952D02*
X334632Y17903D01*
X334493Y18021D02*
X334567Y17952D01*
X334406Y18115D02*
X334493Y18021D01*
X334309Y18230D02*
X334406Y18115D01*
X334201Y18366D02*
X334309Y18230D01*
X334082Y18520D02*
X334201Y18366D01*
X333964Y18668D02*
X334082Y18520D01*
X333828Y18823D02*
X333964Y18668D01*
X333783Y18869D02*
X333828Y18823D01*
X333733Y18914D02*
X333783Y18869D01*
X333678Y18958D02*
X333733Y18914D01*
X333614Y18996D02*
X333678Y18958D01*
X333577Y19013D02*
X333614Y18996D01*
X333537Y19025D02*
X333577Y19013D01*
X333507Y19030D02*
X333537Y19025D01*
X333476Y19032D02*
X333507Y19030D01*
X331824Y16881D02*
X333531Y16879D01*
X331823Y36564D02*
X333530Y36563D01*
X331878Y19032D02*
Y34412D01*
X328729Y19635D02*
Y33809D01*
X336626Y19635D02*
Y33809D01*
X333476Y19032D02*
Y34412D01*
X331878Y33883D02*
X333476D01*
X331878Y19561D02*
X333476D01*
X331878Y19032D02*
X333476D01*
X331878Y34412D02*
X333476D01*
X330500Y35580D02*
X334854D01*
X330500Y17864D02*
X334854D01*
X420076Y17934D02*
X420094Y17961D01*
X420154Y18041D01*
X414314Y18035D02*
X414382Y17942D01*
X414387Y17935D01*
X414369Y35480D02*
X414386Y35508D01*
X414310Y35400D02*
X414369Y35480D01*
X420081Y35500D02*
X420149Y35406D01*
X420077Y35506D02*
X420081Y35500D01*
X418031Y34411D02*
X418108Y34422D01*
X418200Y34464D01*
X418300Y34538D01*
X418384Y34620D01*
X418605Y34883D01*
X418793Y35124D01*
X418962Y35329D01*
X419109Y35479D01*
X419209Y35553D01*
X419292Y35579D01*
X415171D02*
X415276Y35540D01*
X415415Y35421D01*
X415599Y35212D01*
X415827Y34923D01*
X415945Y34774D01*
X416080Y34620D01*
X416176Y34528D01*
X416295Y34446D01*
X416372Y34418D01*
X416433Y34411D01*
X419244Y17872D02*
X419292Y17862D01*
X419187Y17901D02*
X419244Y17872D01*
X419121Y17951D02*
X419187Y17901D01*
X419048Y18020D02*
X419121Y17951D01*
X418960Y18114D02*
X419048Y18020D01*
X418864Y18229D02*
X418960Y18114D01*
X418756Y18365D02*
X418864Y18229D01*
X418636Y18518D02*
X418756Y18365D01*
X418518Y18666D02*
X418636Y18518D01*
X418383Y18822D02*
X418518Y18666D01*
X418337Y18868D02*
X418383Y18822D01*
X418288Y18913D02*
X418337Y18868D01*
X418232Y18956D02*
X418288Y18913D01*
X418168Y18995D02*
X418232Y18956D01*
X418132Y19011D02*
X418168Y18995D01*
X418091Y19024D02*
X418132Y19011D01*
X418062Y19029D02*
X418091Y19024D01*
X418031Y19030D02*
X418062Y19029D01*
X416378Y16879D02*
X418086Y16878D01*
X416377Y36563D02*
X418085Y36562D01*
X416433Y19030D02*
Y34411D01*
X413283Y19634D02*
Y33807D01*
X421180Y19634D02*
Y33807D01*
X418031Y19030D02*
Y34411D01*
X416433Y33882D02*
X418031D01*
X416433Y19559D02*
X418031D01*
X416433Y19030D02*
X418031D01*
X416433Y34411D02*
X418031D01*
X415055Y35579D02*
X419409D01*
X415055Y17862D02*
X419409D01*
X251663Y19272D02*
X251682Y19299D01*
X251741Y19379D01*
X245902Y19374D02*
X245970Y19280D01*
X245974Y19273D01*
X245956Y36819D02*
X245973Y36847D01*
X245897Y36739D02*
X245956Y36819D01*
X251668Y36838D02*
X251736Y36744D01*
X251664Y36845D02*
X251668Y36838D01*
X249618Y35749D02*
X249696Y35760D01*
X249788Y35802D01*
X249887Y35876D01*
X249971Y35959D01*
X250193Y36222D01*
X250380Y36462D01*
X250549Y36667D01*
X250696Y36818D01*
X250797Y36892D01*
X250879Y36917D01*
X246758D02*
X246864Y36878D01*
X247003Y36760D01*
X247187Y36551D01*
X247414Y36261D01*
X247532Y36112D01*
X247668Y35958D01*
X247763Y35867D01*
X247882Y35785D01*
X247959Y35756D01*
X248020Y35749D01*
X250831Y19210D02*
X250879Y19201D01*
X250774Y19240D02*
X250831Y19210D01*
X250709Y19289D02*
X250774Y19240D01*
X250635Y19358D02*
X250709Y19289D01*
X250548Y19452D02*
X250635Y19358D01*
X250451Y19567D02*
X250548Y19452D01*
X250343Y19703D02*
X250451Y19567D01*
X250223Y19857D02*
X250343Y19703D01*
X250106Y20005D02*
X250223Y19857D01*
X249970Y20160D02*
X250106Y20005D01*
X249925Y20206D02*
X249970Y20160D01*
X249875Y20251D02*
X249925Y20206D01*
X249819Y20295D02*
X249875Y20251D01*
X249756Y20333D02*
X249819Y20295D01*
X249719Y20350D02*
X249756Y20333D01*
X249679Y20362D02*
X249719Y20350D01*
X249649Y20367D02*
X249679Y20362D01*
X249618Y20369D02*
X249649Y20367D01*
X247966Y18218D02*
X249673Y18216D01*
X247965Y37901D02*
X249672Y37900D01*
X248020Y20369D02*
Y35749D01*
X244870Y20972D02*
Y35146D01*
X252768Y20972D02*
Y35146D01*
X249618Y20369D02*
Y35749D01*
X248020Y35220D02*
X249618D01*
X248020Y20897D02*
X249618D01*
X248020Y20369D02*
X249618D01*
X248020Y35749D02*
X249618D01*
X246642Y36917D02*
X250996D01*
X246642Y19201D02*
X250996D01*
X333553Y201608D02*
X333571Y201635D01*
X333631Y201715D01*
X327791Y201710D02*
X327859Y201616D01*
X327864Y201610D01*
X327846Y219155D02*
X327863Y219183D01*
X327787Y219075D02*
X327846Y219155D01*
X333558Y219174D02*
X333626Y219081D01*
X333554Y219181D02*
X333558Y219174D01*
X331508Y218085D02*
X331585Y218097D01*
X331677Y218139D01*
X331777Y218213D01*
X331861Y218295D01*
X332082Y218558D01*
X332270Y218799D01*
X332439Y219004D01*
X332586Y219154D01*
X332687Y219228D01*
X332769Y219253D01*
X328648D02*
X328753Y219214D01*
X328893Y219096D01*
X329077Y218887D01*
X329304Y218597D01*
X329422Y218448D01*
X329557Y218294D01*
X329653Y218203D01*
X329772Y218121D01*
X329849Y218092D01*
X329910Y218085D01*
X332721Y201547D02*
X332769Y201537D01*
X332664Y201576D02*
X332721Y201547D01*
X332598Y201626D02*
X332664Y201576D01*
X332525Y201695D02*
X332598Y201626D01*
X332437Y201789D02*
X332525Y201695D01*
X332341Y201903D02*
X332437Y201789D01*
X332233Y202039D02*
X332341Y201903D01*
X332113Y202193D02*
X332233Y202039D01*
X331996Y202341D02*
X332113Y202193D01*
X331860Y202496D02*
X331996Y202341D01*
X331814Y202542D02*
X331860Y202496D01*
X331765Y202588D02*
X331814Y202542D01*
X331709Y202631D02*
X331765Y202588D01*
X331646Y202670D02*
X331709Y202631D01*
X331609Y202686D02*
X331646Y202670D01*
X331569Y202698D02*
X331609Y202686D01*
X331539Y202703D02*
X331569Y202698D01*
X331508Y202705D02*
X331539Y202703D01*
X329856Y200554D02*
X331563Y200553D01*
X329854Y220238D02*
X331562Y220236D01*
X329910Y202705D02*
Y218085D01*
X326760Y203309D02*
Y217482D01*
X334657Y203309D02*
Y217482D01*
X331508Y202705D02*
Y218085D01*
X329910Y217557D02*
X331508D01*
X329910Y203234D02*
X331508D01*
X329910Y202705D02*
X331508D01*
X329910Y218085D02*
X331508D01*
X328532Y219253D02*
X332886D01*
X328532Y201537D02*
X332886D01*
X251663Y203339D02*
X251682Y203366D01*
X251741Y203446D01*
X245902Y203441D02*
X245970Y203347D01*
X245974Y203340D01*
X245956Y220886D02*
X245973Y220914D01*
X245897Y220806D02*
X245956Y220886D01*
X251668Y220905D02*
X251736Y220811D01*
X251664Y220912D02*
X251668Y220905D01*
X249618Y219816D02*
X249696Y219827D01*
X249788Y219869D01*
X249887Y219943D01*
X249971Y220026D01*
X250193Y220289D01*
X250380Y220529D01*
X250549Y220734D01*
X250696Y220885D01*
X250797Y220959D01*
X250879Y220984D01*
X246758D02*
X246864Y220945D01*
X247003Y220827D01*
X247187Y220618D01*
X247414Y220328D01*
X247532Y220179D01*
X247668Y220025D01*
X247763Y219934D01*
X247882Y219852D01*
X247959Y219823D01*
X248020Y219816D01*
X250831Y203277D02*
X250879Y203268D01*
X250774Y203307D02*
X250831Y203277D01*
X250709Y203356D02*
X250774Y203307D01*
X250635Y203425D02*
X250709Y203356D01*
X250548Y203519D02*
X250635Y203425D01*
X250451Y203634D02*
X250548Y203519D01*
X250343Y203770D02*
X250451Y203634D01*
X250223Y203924D02*
X250343Y203770D01*
X250106Y204072D02*
X250223Y203924D01*
X249970Y204227D02*
X250106Y204072D01*
X249925Y204273D02*
X249970Y204227D01*
X249875Y204318D02*
X249925Y204273D01*
X249819Y204362D02*
X249875Y204318D01*
X249756Y204400D02*
X249819Y204362D01*
X249719Y204417D02*
X249756Y204400D01*
X249679Y204429D02*
X249719Y204417D01*
X249649Y204434D02*
X249679Y204429D01*
X249618Y204436D02*
X249649Y204434D01*
X247966Y202285D02*
X249673Y202283D01*
X247965Y221968D02*
X249672Y221967D01*
X248020Y204436D02*
Y219816D01*
X244870Y205039D02*
Y219213D01*
X252768Y205039D02*
Y219213D01*
X249618Y204436D02*
Y219816D01*
X248020Y219287D02*
X249618D01*
X248020Y204965D02*
X249618D01*
X248020Y204436D02*
X249618D01*
X248020Y219816D02*
X249618D01*
X246642Y220984D02*
X250996D01*
X246642Y203268D02*
X250996D01*
X196803Y481650D02*
X196821Y481677D01*
X196744Y481570D02*
X196803Y481650D01*
X202515Y481669D02*
X202583Y481575D01*
X202511Y481676D02*
X202515Y481669D01*
X202511Y464102D02*
X202528Y464130D01*
X202588Y464210D01*
X196748Y464205D02*
X196816Y464111D01*
X196821Y464105D01*
X198789Y465189D02*
X198867Y465200D01*
X198697Y465147D02*
X198789Y465189D01*
X198597Y465073D02*
X198697Y465147D01*
X198513Y464990D02*
X198597Y465073D01*
X198292Y464727D02*
X198513Y464990D01*
X198104Y464487D02*
X198292Y464727D01*
X197935Y464282D02*
X198104Y464487D01*
X197788Y464131D02*
X197935Y464282D01*
X197688Y464058D02*
X197788Y464131D01*
X197605Y464032D02*
X197688Y464058D01*
X201621Y464071D02*
X201726Y464032D01*
X201482Y464189D02*
X201621Y464071D01*
X201298Y464398D02*
X201482Y464189D01*
X201070Y464688D02*
X201298Y464398D01*
X200952Y464837D02*
X201070Y464688D01*
X200817Y464991D02*
X200952Y464837D01*
X200722Y465083D02*
X200817Y464991D01*
X200603Y465165D02*
X200722Y465083D01*
X200526Y465193D02*
X200603Y465165D01*
X200465Y465200D02*
X200526Y465193D01*
X197605Y481748D02*
X197654Y481739D01*
X197710Y481709D01*
X197776Y481660D01*
X197850Y481591D01*
X197937Y481497D01*
X198034Y481382D01*
X198142Y481246D01*
X198261Y481092D01*
X198379Y480944D01*
X198514Y480789D01*
X198560Y480743D01*
X198610Y480698D01*
X198665Y480654D01*
X198729Y480616D01*
X198766Y480600D01*
X198806Y480587D01*
X198836Y480582D01*
X198867Y480580D01*
X198811Y482733D02*
X200519Y482731D01*
X198813Y463049D02*
X200520Y463048D01*
X200465Y465200D02*
Y480580D01*
X203614Y465804D02*
Y479977D01*
X195717Y465804D02*
Y479977D01*
X198867Y465200D02*
Y480580D01*
Y465729D02*
X200465D01*
X198867Y480052D02*
X200465D01*
X198867Y480580D02*
X200465D01*
X198867Y465200D02*
X200465D01*
X197489Y464032D02*
X201843D01*
X197489Y481748D02*
X201843D01*
X202510Y621535D02*
X202528Y621562D01*
X202588Y621642D01*
X196748Y621637D02*
X196816Y621543D01*
X196821Y621536D01*
X196803Y639082D02*
X196820Y639110D01*
X196744Y639002D02*
X196803Y639082D01*
X202515Y639101D02*
X202583Y639007D01*
X202511Y639108D02*
X202515Y639101D01*
X200465Y638012D02*
X200542Y638024D01*
X200634Y638065D01*
X200734Y638140D01*
X200818Y638222D01*
X201039Y638485D01*
X201227Y638725D01*
X201396Y638930D01*
X201543Y639081D01*
X201644Y639155D01*
X201726Y639180D01*
X197605D02*
X197710Y639141D01*
X197850Y639023D01*
X198034Y638814D01*
X198261Y638524D01*
X198379Y638375D01*
X198514Y638221D01*
X198610Y638130D01*
X198729Y638048D01*
X198806Y638019D01*
X198867Y638012D01*
X201678Y621474D02*
X201726Y621464D01*
X201621Y621503D02*
X201678Y621474D01*
X201555Y621552D02*
X201621Y621503D01*
X201482Y621621D02*
X201555Y621552D01*
X201394Y621716D02*
X201482Y621621D01*
X201298Y621830D02*
X201394Y621716D01*
X201190Y621966D02*
X201298Y621830D01*
X201070Y622120D02*
X201190Y621966D01*
X200953Y622268D02*
X201070Y622120D01*
X200817Y622423D02*
X200953Y622268D01*
X200771Y622469D02*
X200817Y622423D01*
X200722Y622514D02*
X200771Y622469D01*
X200666Y622558D02*
X200722Y622514D01*
X200603Y622596D02*
X200666Y622558D01*
X200566Y622613D02*
X200603Y622596D01*
X200526Y622625D02*
X200566Y622613D01*
X200496Y622630D02*
X200526Y622625D01*
X200465Y622632D02*
X200496Y622630D01*
X198813Y620481D02*
X200520Y620480D01*
X198811Y640165D02*
X200519Y640163D01*
X198867Y622632D02*
Y638012D01*
X195717Y623235D02*
Y637409D01*
X203614Y623235D02*
Y637409D01*
X200465Y622632D02*
Y638012D01*
X198867Y637484D02*
X200465D01*
X198867Y623161D02*
X200465D01*
X198867Y622632D02*
X200465D01*
X198867Y638012D02*
X200465D01*
X197489Y639180D02*
X201843D01*
X197489Y621464D02*
X201843D01*
X251663Y162473D02*
X251681Y162500D01*
X251740Y162580D01*
X245901Y162575D02*
X245969Y162481D01*
X245973Y162474D01*
X245956Y180020D02*
X245973Y180048D01*
X245896Y179940D02*
X245956Y180020D01*
X251668Y180039D02*
X251736Y179945D01*
X251663Y180045D02*
X251668Y180039D01*
X249617Y178950D02*
X249695Y178961D01*
X249787Y179003D01*
X249886Y179077D01*
X249971Y179160D01*
X250192Y179423D01*
X250380Y179663D01*
X250549Y179868D01*
X250696Y180019D01*
X250796Y180092D01*
X250879Y180118D01*
X246758D02*
X246863Y180079D01*
X247002Y179961D01*
X247186Y179752D01*
X247414Y179462D01*
X247532Y179313D01*
X247667Y179159D01*
X247762Y179067D01*
X247881Y178985D01*
X247958Y178957D01*
X248019Y178950D01*
X250830Y162411D02*
X250879Y162402D01*
X250774Y162441D02*
X250830Y162411D01*
X250708Y162490D02*
X250774Y162441D01*
X250634Y162559D02*
X250708Y162490D01*
X250547Y162653D02*
X250634Y162559D01*
X250450Y162768D02*
X250547Y162653D01*
X250342Y162904D02*
X250450Y162768D01*
X250223Y163058D02*
X250342Y162904D01*
X250105Y163206D02*
X250223Y163058D01*
X249970Y163361D02*
X250105Y163206D01*
X249924Y163407D02*
X249970Y163361D01*
X249874Y163452D02*
X249924Y163407D01*
X249819Y163496D02*
X249874Y163452D01*
X249755Y163534D02*
X249819Y163496D01*
X249718Y163550D02*
X249755Y163534D01*
X249678Y163563D02*
X249718Y163550D01*
X249648Y163568D02*
X249678Y163563D01*
X249617Y163570D02*
X249648Y163568D01*
X247965Y161419D02*
X249673Y161417D01*
X247964Y181102D02*
X249671Y181101D01*
X248019Y163570D02*
Y178950D01*
X244870Y164173D02*
Y178346D01*
X252767Y164173D02*
Y178346D01*
X249617Y163570D02*
Y178950D01*
X248019Y178421D02*
X249617D01*
X248019Y164098D02*
X249617D01*
X248019Y163570D02*
X249617D01*
X248019Y178950D02*
X249617D01*
X246641Y180118D02*
X250995D01*
X246641Y162402D02*
X250995D01*
X333553Y160505D02*
X333571Y160532D01*
X333630Y160612D01*
X327791Y160606D02*
X327859Y160512D01*
X327864Y160506D01*
X327846Y178051D02*
X327863Y178079D01*
X327787Y177971D02*
X327846Y178051D01*
X333558Y178071D02*
X333626Y177977D01*
X333553Y178077D02*
X333558Y178071D01*
X331508Y176981D02*
X331585Y176993D01*
X331677Y177035D01*
X331777Y177109D01*
X331861Y177192D01*
X332082Y177454D01*
X332270Y177695D01*
X332439Y177900D01*
X332586Y178050D01*
X332686Y178124D01*
X332769Y178150D01*
X328648D02*
X328753Y178111D01*
X328892Y177992D01*
X329076Y177783D01*
X329304Y177494D01*
X329422Y177345D01*
X329557Y177190D01*
X329652Y177099D01*
X329772Y177017D01*
X329849Y176989D01*
X329910Y176981D01*
X332721Y160443D02*
X332769Y160433D01*
X332664Y160472D02*
X332721Y160443D01*
X332598Y160522D02*
X332664Y160472D01*
X332525Y160591D02*
X332598Y160522D01*
X332437Y160685D02*
X332525Y160591D01*
X332341Y160800D02*
X332437Y160685D01*
X332233Y160936D02*
X332341Y160800D01*
X332113Y161089D02*
X332233Y160936D01*
X331995Y161237D02*
X332113Y161089D01*
X331860Y161393D02*
X331995Y161237D01*
X331814Y161439D02*
X331860Y161393D01*
X331765Y161484D02*
X331814Y161439D01*
X331709Y161527D02*
X331765Y161484D01*
X331645Y161566D02*
X331709Y161527D01*
X331609Y161582D02*
X331645Y161566D01*
X331568Y161594D02*
X331609Y161582D01*
X331539Y161600D02*
X331568Y161594D01*
X331508Y161601D02*
X331539Y161600D01*
X329855Y159450D02*
X331563Y159449D01*
X329854Y179134D02*
X331562Y179133D01*
X329910Y161601D02*
Y176981D01*
X326760Y162205D02*
Y176378D01*
X334657Y162205D02*
Y176378D01*
X331508Y161601D02*
Y176981D01*
X329910Y176453D02*
X331508D01*
X329910Y162130D02*
X331508D01*
X329910Y161601D02*
X331508D01*
X329910Y176981D02*
X331508D01*
X328532Y178150D02*
X332885D01*
X328532Y160433D02*
X332885D01*
X504813Y17934D02*
X504831Y17961D01*
X504890Y18041D01*
X499051Y18035D02*
X499119Y17941D01*
X499123Y17935D01*
X499106Y35480D02*
X499123Y35508D01*
X499047Y35400D02*
X499106Y35480D01*
X504818Y35500D02*
X504886Y35406D01*
X504813Y35506D02*
X504818Y35500D01*
X502768Y34410D02*
X502845Y34422D01*
X502937Y34464D01*
X503037Y34538D01*
X503121Y34621D01*
X503342Y34883D01*
X503530Y35124D01*
X503699Y35329D01*
X503846Y35479D01*
X503946Y35553D01*
X504029Y35579D01*
X499908D02*
X500013Y35540D01*
X500152Y35421D01*
X500336Y35212D01*
X500564Y34923D01*
X500682Y34774D01*
X500817Y34619D01*
X500912Y34528D01*
X501032Y34446D01*
X501109Y34418D01*
X501169Y34410D01*
X503980Y17872D02*
X504029Y17862D01*
X503924Y17901D02*
X503980Y17872D01*
X503858Y17951D02*
X503924Y17901D01*
X503785Y18020D02*
X503858Y17951D01*
X503697Y18114D02*
X503785Y18020D01*
X503601Y18229D02*
X503697Y18114D01*
X503493Y18365D02*
X503601Y18229D01*
X503373Y18518D02*
X503493Y18365D01*
X503256Y18666D02*
X503373Y18518D01*
X503120Y18822D02*
X503256Y18666D01*
X503074Y18868D02*
X503120Y18822D01*
X503024Y18913D02*
X503074Y18868D01*
X502969Y18956D02*
X503024Y18913D01*
X502905Y18995D02*
X502969Y18956D01*
X502869Y19011D02*
X502905Y18995D01*
X502828Y19023D02*
X502869Y19011D01*
X502799Y19029D02*
X502828Y19023D01*
X502768Y19030D02*
X502799Y19029D01*
X501115Y16879D02*
X502823Y16878D01*
X501114Y36563D02*
X502822Y36562D01*
X501169Y19030D02*
Y34410D01*
X498020Y19634D02*
Y33807D01*
X505917Y19634D02*
Y33807D01*
X502768Y19030D02*
Y34410D01*
X501169Y33882D02*
X502768D01*
X501169Y19559D02*
X502768D01*
X501169Y19030D02*
X502768D01*
X501169Y34410D02*
X502768D01*
X499791Y35579D02*
X504145D01*
X499791Y17862D02*
X504145D01*
X546480Y384914D02*
X546498Y384941D01*
X546557Y385021D01*
X540718Y385016D02*
X540786Y384922D01*
X540791Y384915D01*
X540773Y402461D02*
X540790Y402489D01*
X540714Y402381D02*
X540773Y402461D01*
X546485Y402480D02*
X546553Y402386D01*
X546481Y402487D02*
X546485Y402480D01*
X544434Y401391D02*
X544512Y401402D01*
X544604Y401444D01*
X544704Y401518D01*
X544788Y401601D01*
X545009Y401863D01*
X545197Y402104D01*
X545366Y402309D01*
X545513Y402459D01*
X545613Y402533D01*
X545696Y402559D01*
X541575D02*
X541680Y402520D01*
X541819Y402401D01*
X542003Y402193D01*
X542231Y401903D01*
X542349Y401754D01*
X542484Y401600D01*
X542580Y401509D01*
X542699Y401426D01*
X542776Y401398D01*
X542837Y401391D01*
X545647Y384852D02*
X545696Y384842D01*
X545591Y384882D02*
X545647Y384852D01*
X545525Y384931D02*
X545591Y384882D01*
X545451Y385000D02*
X545525Y384931D01*
X545364Y385094D02*
X545451Y385000D01*
X545268Y385209D02*
X545364Y385094D01*
X545160Y385345D02*
X545268Y385209D01*
X545040Y385499D02*
X545160Y385345D01*
X544922Y385647D02*
X545040Y385499D01*
X544787Y385802D02*
X544922Y385647D01*
X544741Y385848D02*
X544787Y385802D01*
X544692Y385893D02*
X544741Y385848D01*
X544636Y385936D02*
X544692Y385893D01*
X544572Y385975D02*
X544636Y385936D01*
X544536Y385992D02*
X544572Y385975D01*
X544495Y386004D02*
X544536Y385992D01*
X544465Y386009D02*
X544495Y386004D01*
X544434Y386011D02*
X544465Y386009D01*
X542782Y383859D02*
X544490Y383858D01*
X542781Y403543D02*
X544489Y403542D01*
X542837Y386011D02*
Y401391D01*
X539687Y386614D02*
Y400787D01*
X547584Y386614D02*
Y400787D01*
X544434Y386011D02*
Y401391D01*
X542837Y400862D02*
X544434D01*
X542837Y386539D02*
X544434D01*
X542837Y386011D02*
X544434D01*
X542837Y401391D02*
X544434D01*
X541459Y402559D02*
X545813D01*
X541459Y384842D02*
X545813D01*
D11*
X489500Y373902D02*
X511000D01*
X489500D02*
Y413402D01*
X511000D01*
Y373902D02*
Y413402D01*
X77650Y453140D02*
X99150D01*
X77650D02*
Y492640D01*
X99150D01*
Y453140D02*
Y492640D01*
X76764Y610572D02*
X98264D01*
X76764D02*
Y650072D01*
X98264D01*
Y610572D02*
Y650072D01*
X109146Y453140D02*
X130646D01*
X109146D02*
Y492640D01*
X130646D01*
Y453140D02*
Y492640D01*
X108260Y610572D02*
X129760D01*
X108260D02*
Y650072D01*
X129760D01*
Y610572D02*
Y650072D01*
D12*
X338937Y741732D02*
G03*
X338937Y741732I-12795J0D01*
G01*
X382677D02*
G03*
X382677Y741732I-12795J0D01*
G01*
X322892Y706102D02*
X395551D01*
Y785925D01*
X331455D02*
X395551D01*
X300473Y706102D02*
X322892D01*
X308349Y785925D02*
X323753D01*
X300473Y706102D02*
Y785925D01*
X308349D01*
X323753D02*
X331455D01*
X14272Y339016D02*
G03*
X14272Y339016I-394J0D01*
G01*
D02*
G03*
X14272Y339016I-394J0D01*
G01*
X38681Y295276D02*
Y334646D01*
X-689Y295276D02*
X38681D01*
X-689D02*
Y334646D01*
X38681D01*
X-38091Y331299D02*
X-689D01*
X-38091Y298622D02*
Y331299D01*
Y298622D02*
X-689D01*
X348012Y739764D02*
Y743701D01*
X346043Y741732D02*
X349980D01*
X290925Y698130D02*
X405098D01*
Y791634D01*
X290925D02*
X405098D01*
X290925Y698130D02*
Y791634D01*
D14*
X141732Y73957D02*
X141732Y73957D01*
X128996Y86693D02*
X141732Y73957D01*
X131890Y92520D02*
Y295650D01*
Y92520D02*
X141732Y82677D01*
X141732Y67739D02*
Y73957D01*
X15059Y286614D02*
Y314961D01*
Y286614D02*
X25381Y276292D01*
X46656D01*
X62388Y260561D01*
X249367Y308419D02*
Y468504D01*
X236969Y474931D02*
X242941D01*
X249367Y468504D01*
Y553169D01*
X136811Y87598D02*
Y263504D01*
X148898Y275590D01*
X216539D01*
X249367Y308419D01*
X241330Y561206D02*
X249367Y553169D01*
X236969Y561206D02*
X241330D01*
X128996Y86693D02*
Y255906D01*
X207468Y474931D02*
X236969D01*
X199666Y482733D02*
X207468Y474931D01*
X93772Y329660D02*
X119646D01*
X88150Y335282D02*
X93772Y329660D01*
X131890Y295650D02*
Y317416D01*
X125004Y295650D02*
X131890Y288764D01*
X119646Y295650D02*
X125004D01*
X124341Y260561D02*
X128996Y255906D01*
X62388Y260561D02*
X124341D01*
X15059Y314961D02*
X29626Y329528D01*
X119646Y329660D02*
X131890Y317416D01*
D18*
X301775Y371570D02*
G03*
X301775Y355438I-6302J-8066D01*
G01*
X301282Y424011D02*
G03*
X301282Y407879I-6302J-8066D01*
G01*
X451184Y363854D02*
G03*
X451184Y347721I-6302J-8066D01*
G01*
Y440547D02*
G03*
X451184Y424414I-6302J-8066D01*
G01*
X125948Y342727D02*
G03*
X125948Y326594I-6302J-8066D01*
G01*
X125948Y303716D02*
G03*
X125948Y287583I-6302J-8066D01*
G01*
X31359Y667520D02*
X33819Y665059D01*
X27717Y667520D02*
X33819D01*
X27717Y656890D02*
Y667520D01*
Y656890D02*
X33819D01*
Y667520D01*
X28996Y508472D02*
X32540D01*
X28996Y515165D02*
X32540D01*
X28996Y508472D02*
Y515165D01*
X32540Y508472D02*
Y515165D01*
X28996Y587606D02*
X32540D01*
X28996Y594298D02*
X32540D01*
X28996Y587606D02*
Y594298D01*
X32540Y587606D02*
Y594298D01*
X61280Y468756D02*
Y477024D01*
X55965Y468756D02*
Y477024D01*
X61280D01*
X55965Y468756D02*
X61280D01*
Y626188D02*
Y634456D01*
X55965Y626188D02*
Y634456D01*
X61280D01*
X55965Y626188D02*
X61280D01*
X81063Y570972D02*
X96418D01*
Y531995D02*
Y570972D01*
X81063Y531995D02*
X96418D01*
X81063D02*
Y570972D01*
Y565972D02*
X86063Y570972D01*
X85445Y518050D02*
X90658D01*
Y506554D02*
Y518050D01*
X85445Y506554D02*
X90658D01*
X85445D02*
Y518050D01*
Y514310D02*
X89185Y518050D01*
X85445Y596700D02*
X90658D01*
Y585204D02*
Y596700D01*
X85445Y585204D02*
X90658D01*
X85445D02*
Y596700D01*
Y592960D02*
X89185Y596700D01*
X117059Y517566D02*
X122272D01*
Y506070D02*
Y517566D01*
X117059Y506070D02*
X122272D01*
X117059D02*
Y517566D01*
Y513826D02*
X120800Y517566D01*
X117059Y596700D02*
X122272D01*
Y585204D02*
Y596700D01*
X117059Y585204D02*
X122272D01*
X117059D02*
Y596700D01*
Y592960D02*
X120799Y596700D01*
X56016Y517566D02*
X61229D01*
Y506070D02*
Y517566D01*
X56016Y506070D02*
X61229D01*
X56016D02*
Y517566D01*
Y513826D02*
X59756Y517566D01*
X56016Y596700D02*
X61229D01*
Y585204D02*
Y596700D01*
X56016Y585204D02*
X61229D01*
X56016D02*
Y596700D01*
Y592960D02*
X59756Y596700D01*
X587402Y390249D02*
X589772Y387879D01*
X580039Y390249D02*
X589803D01*
X580039Y359541D02*
Y390249D01*
Y359541D02*
X589803D01*
Y390249D01*
X587402Y427703D02*
X589772Y425333D01*
X580039Y427703D02*
X589803D01*
X580039Y396995D02*
Y427703D01*
Y396995D02*
X589803D01*
Y427703D01*
X301772Y355438D02*
Y371570D01*
X301280Y407879D02*
Y424011D01*
X349362Y260835D02*
X351732Y258465D01*
X349331D02*
X359095D01*
Y289173D01*
X349331D02*
X359095D01*
X349331Y258465D02*
Y289173D01*
X349362Y503276D02*
X351732Y500906D01*
X349331D02*
X359095D01*
Y531614D01*
X349331D02*
X359095D01*
X349331Y500906D02*
Y531614D01*
X451181Y347721D02*
Y363854D01*
Y424414D02*
Y440547D01*
X587402Y352795D02*
X589772Y350425D01*
X580039Y352795D02*
X589803D01*
X580039Y322087D02*
Y352795D01*
Y322087D02*
X589803D01*
Y352795D01*
X587402Y465157D02*
X589772Y462787D01*
X580039Y465157D02*
X589803D01*
X580039Y434449D02*
Y465157D01*
Y434449D02*
X589803D01*
Y465157D01*
X424350Y133779D02*
X426720Y131409D01*
X416988Y133779D02*
X426752D01*
X416988Y103071D02*
Y133779D01*
Y103071D02*
X426752D01*
Y133779D01*
X423268Y678346D02*
X425638Y675976D01*
X415905Y678346D02*
X425669D01*
X415905Y647638D02*
Y678346D01*
Y647638D02*
X425669D01*
Y678346D01*
X125945Y326594D02*
Y342727D01*
Y287583D02*
Y303716D01*
X31359Y488744D02*
X33819Y486284D01*
X27717Y488744D02*
X33819D01*
X27717Y478114D02*
Y488744D01*
Y478114D02*
X33819D01*
Y488744D01*
X31949Y449291D02*
X34410Y446831D01*
X28308Y449291D02*
X34410D01*
X28308Y438661D02*
Y449291D01*
Y438661D02*
X34410D01*
Y449291D01*
X31359Y635532D02*
X33819Y633071D01*
X27717Y635532D02*
X33819D01*
X27717Y624902D02*
Y635532D01*
Y624902D02*
X33819D01*
Y635532D01*
X359921Y320512D02*
Y361063D01*
X345748Y320512D02*
X364843D01*
X345748Y361063D02*
X364843D01*
Y320512D02*
Y361063D01*
X345748Y320512D02*
Y361063D01*
X359921Y427205D02*
Y467756D01*
X345748Y427205D02*
X364843D01*
X345748Y467756D02*
X364843D01*
Y427205D02*
Y467756D01*
X345748Y427205D02*
Y467756D01*
X30768Y510046D02*
Y513590D01*
X28996Y511818D02*
X32540D01*
X30768Y589180D02*
Y592724D01*
X28996Y590952D02*
X32540D01*
X56654Y472890D02*
X60591D01*
X58622Y470922D02*
Y474859D01*
X56654Y630322D02*
X60591D01*
X58622Y628354D02*
Y632291D01*
X295472Y361535D02*
Y365472D01*
X293504Y363504D02*
X297441D01*
X294980Y413976D02*
Y417913D01*
X293012Y415945D02*
X296949D01*
X444882Y353819D02*
Y357756D01*
X442913Y355787D02*
X446850D01*
X444882Y430512D02*
Y434449D01*
X442913Y432480D02*
X446850D01*
X42618Y288311D02*
Y341610D01*
X-42028Y288311D02*
X42618D01*
X-42028D02*
Y341610D01*
X42618D01*
X117678Y334660D02*
X121615D01*
X119646Y332692D02*
Y336629D01*
X117677Y295650D02*
X121614D01*
X119646Y293681D02*
Y297618D01*
X354331Y338819D02*
Y342756D01*
X352362Y340787D02*
X356299D01*
X354331Y445512D02*
Y449449D01*
X352362Y447480D02*
X356299D01*
D24*
X24705Y331693D02*
X34547D01*
X24705Y327756D02*
Y331693D01*
Y327756D02*
X34547D01*
Y331693D01*
X24705Y302165D02*
X34547D01*
X24705Y298228D02*
Y302165D01*
Y298228D02*
X34547D01*
Y302165D01*
X12500Y319882D02*
X17618D01*
X12500Y310039D02*
Y319882D01*
Y310039D02*
X17618D01*
Y319882D01*
X508500Y404852D02*
G03*
X508500Y404852I-500J0D01*
G01*
X499500Y379902D02*
G03*
X499500Y379902I-4000J0D01*
G01*
X96650Y484090D02*
G03*
X96650Y484090I-500J0D01*
G01*
X87650Y459140D02*
G03*
X87650Y459140I-4000J0D01*
G01*
X95764Y641522D02*
G03*
X95764Y641522I-500J0D01*
G01*
X86764Y616572D02*
G03*
X86764Y616572I-4000J0D01*
G01*
X128146Y484090D02*
G03*
X128146Y484090I-500J0D01*
G01*
X119146Y459140D02*
G03*
X119146Y459140I-4000J0D01*
G01*
X127260Y641522D02*
G03*
X127260Y641522I-500J0D01*
G01*
X118260Y616572D02*
G03*
X118260Y616572I-4000J0D01*
G01*
D25*
X8258Y329724D02*
Y326561D01*
X8610Y325507D01*
X8961Y325156D01*
X9664Y324804D01*
X10719D01*
X11422Y325156D01*
X11773Y325507D01*
X12124Y326561D01*
Y329724D01*
X4744D01*
X10367Y317881D02*
X11070Y318232D01*
X11773Y318935D01*
X12124Y319638D01*
Y321044D01*
X11773Y321747D01*
X11070Y322449D01*
X10367Y322801D01*
X9313Y323152D01*
X7556D01*
X6501Y322801D01*
X5798Y322449D01*
X5096Y321747D01*
X4744Y321044D01*
Y319638D01*
X5096Y318935D01*
X5798Y318232D01*
X6501Y317881D01*
X12124Y315807D02*
X4744D01*
X12124D02*
Y312644D01*
X11773Y311590D01*
X11422Y311239D01*
X10719Y310887D01*
X10016D01*
X9313Y311239D01*
X8961Y311590D01*
X8610Y312644D01*
Y315807D02*
Y312644D01*
X8258Y311590D01*
X7907Y311239D01*
X7204Y310887D01*
X6150D01*
X5447Y311239D01*
X5096Y311590D01*
X4744Y312644D01*
Y315807D01*
X12124Y298868D02*
Y303436D01*
X4744D01*
Y298868D01*
X8610Y303436D02*
Y300625D01*
X12124Y297638D02*
X4744D01*
X12124D02*
Y295178D01*
X11773Y294123D01*
X11070Y293420D01*
X10367Y293069D01*
X9313Y292717D01*
X7556D01*
X6501Y293069D01*
X5798Y293420D01*
X5096Y294123D01*
X4744Y295178D01*
Y297638D01*
X10367Y285794D02*
X11070Y286145D01*
X11773Y286848D01*
X12124Y287551D01*
Y288957D01*
X11773Y289660D01*
X11070Y290363D01*
X10367Y290714D01*
X9313Y291066D01*
X7556D01*
X6501Y290714D01*
X5798Y290363D01*
X5096Y289660D01*
X4744Y288957D01*
Y287551D01*
X5096Y286848D01*
X5798Y286145D01*
X6501Y285794D01*
X7556D01*
Y287551D02*
Y285794D01*
X12124Y279538D02*
Y284107D01*
X4744D01*
Y279538D01*
X8610Y284107D02*
Y281295D01*
X8258Y329724D02*
Y326561D01*
X8610Y325507D01*
X8961Y325156D01*
X9664Y324804D01*
X10719D01*
X11422Y325156D01*
X11773Y325507D01*
X12124Y326561D01*
Y329724D01*
X4744D01*
X10367Y317881D02*
X11070Y318232D01*
X11773Y318935D01*
X12124Y319638D01*
Y321044D01*
X11773Y321747D01*
X11070Y322449D01*
X10367Y322801D01*
X9313Y323152D01*
X7556D01*
X6501Y322801D01*
X5798Y322449D01*
X5096Y321747D01*
X4744Y321044D01*
Y319638D01*
X5096Y318935D01*
X5798Y318232D01*
X6501Y317881D01*
X12124Y315807D02*
X4744D01*
X12124D02*
Y312644D01*
X11773Y311590D01*
X11422Y311239D01*
X10719Y310887D01*
X10016D01*
X9313Y311239D01*
X8961Y311590D01*
X8610Y312644D01*
Y315807D02*
Y312644D01*
X8258Y311590D01*
X7907Y311239D01*
X7204Y310887D01*
X6150D01*
X5447Y311239D01*
X5096Y311590D01*
X4744Y312644D01*
Y315807D01*
X12124Y298868D02*
Y303436D01*
X4744D01*
Y298868D01*
X8610Y303436D02*
Y300625D01*
X12124Y297638D02*
X4744D01*
X12124D02*
Y295178D01*
X11773Y294123D01*
X11070Y293420D01*
X10367Y293069D01*
X9313Y292717D01*
X7556D01*
X6501Y293069D01*
X5798Y293420D01*
X5096Y294123D01*
X4744Y295178D01*
Y297638D01*
X10367Y285794D02*
X11070Y286145D01*
X11773Y286848D01*
X12124Y287551D01*
Y288957D01*
X11773Y289660D01*
X11070Y290363D01*
X10367Y290714D01*
X9313Y291066D01*
X7556D01*
X6501Y290714D01*
X5798Y290363D01*
X5096Y289660D01*
X4744Y288957D01*
Y287551D01*
X5096Y286848D01*
X5798Y286145D01*
X6501Y285794D01*
X7556D01*
Y287551D02*
Y285794D01*
X12124Y279538D02*
Y284107D01*
X4744D01*
Y279538D01*
X8610Y284107D02*
Y281295D01*
D26*
X61754Y227461D02*
G03*
X61754Y227461I-2994J0D01*
G01*
Y187087D02*
G03*
X61754Y187087I-2994J0D01*
G01*
X61753Y43307D02*
G03*
X61753Y43307I-2994J0D01*
G01*
X61754Y106299D02*
G03*
X61754Y106299I-2994J0D01*
G01*
X266773Y741732D02*
G03*
X266773Y741732I-2994J0D01*
G01*
X32620Y361024D02*
G03*
X32620Y361024I-2994J0D01*
G01*
X199844Y331004D02*
G03*
X199844Y331004I-2994J0D01*
G01*
X61754Y146693D02*
G03*
X61754Y146693I-2994J0D01*
G01*
X199844Y293596D02*
G03*
X199844Y293596I-2994J0D01*
G01*
X61616Y413787D02*
G03*
X61616Y413787I-2994J0D01*
G01*
X60769Y689279D02*
G03*
X60769Y689279I-2994J0D01*
G01*
X34352Y413787D02*
G03*
X34352Y413787I-2994J0D01*
G01*
X33762Y689279D02*
G03*
X33762Y689279I-2994J0D01*
G01*
X122640Y413787D02*
G03*
X122640Y413787I-2994J0D01*
G01*
X121754Y689279D02*
G03*
X121754Y689279I-2994J0D01*
G01*
X148919Y414869D02*
G03*
X148919Y414869I-2994J0D01*
G01*
X148919Y689476D02*
G03*
X148919Y689476I-2994J0D01*
G01*
X357325Y157480D02*
G03*
X357325Y157480I-2994J0D01*
G01*
Y629528D02*
G03*
X357325Y629528I-2994J0D01*
G01*
X496104Y221063D02*
G03*
X496104Y221063I-2994J0D01*
G01*
X495907Y561221D02*
G03*
X495907Y561221I-2994J0D01*
G01*
D27*
X24174Y672146D02*
X37362D01*
X24174Y652264D02*
Y672146D01*
Y652264D02*
X37362D01*
Y672146D01*
X28012Y506318D02*
X33524D01*
X28012Y517318D02*
X33524D01*
X28012Y506318D02*
Y517318D01*
X33524Y506318D02*
Y517318D01*
X28012Y585452D02*
X33524D01*
X28012Y596452D02*
X33524D01*
X28012Y585452D02*
Y596452D01*
X33524Y585452D02*
Y596452D01*
X62363Y465890D02*
Y479890D01*
X54882Y465890D02*
Y479890D01*
X62363D01*
X54882Y465890D02*
X62363D01*
Y623322D02*
Y637322D01*
X54882Y623322D02*
Y637322D01*
X62363D01*
X54882Y623322D02*
X62363D01*
X73977Y572153D02*
X103504D01*
Y530814D02*
Y572153D01*
X73977Y530814D02*
X103504D01*
X73977D02*
Y572153D01*
X80374Y519428D02*
X95729D01*
Y505176D02*
Y519428D01*
X80374Y505176D02*
X95729D01*
X80374D02*
Y519428D01*
Y598078D02*
X95729D01*
Y583826D02*
Y598078D01*
X80374Y583826D02*
X95729D01*
X80374D02*
Y598078D01*
X111988Y518944D02*
X127343D01*
Y504692D02*
Y518944D01*
X111988Y504692D02*
X127343D01*
X111988D02*
Y518944D01*
Y598078D02*
X127343D01*
Y583826D02*
Y598078D01*
X111988Y583826D02*
X127343D01*
X111988D02*
Y598078D01*
X50945Y518944D02*
X66300D01*
Y504692D02*
Y518944D01*
X50945Y504692D02*
X66300D01*
X50945D02*
Y518944D01*
Y598078D02*
X66300D01*
Y583826D02*
Y598078D01*
X50945Y583826D02*
X66300D01*
X50945D02*
Y598078D01*
X579114Y391234D02*
X590433D01*
X579114Y358556D02*
Y391234D01*
Y358556D02*
X590433D01*
Y391234D01*
X579114Y428688D02*
X590433D01*
X579114Y396010D02*
Y428688D01*
Y396010D02*
X590433D01*
Y428688D01*
X348701Y257480D02*
X360020D01*
Y290157D01*
X348701D02*
X360020D01*
X348701Y257480D02*
Y290157D01*
Y499921D02*
X360020D01*
Y532598D01*
X348701D02*
X360020D01*
X348701Y499921D02*
Y532598D01*
X579114Y353780D02*
X590433D01*
X579114Y321102D02*
Y353780D01*
Y321102D02*
X590433D01*
Y353780D01*
X579114Y466142D02*
X590433D01*
X579114Y433465D02*
Y466142D01*
Y433465D02*
X590433D01*
Y466142D01*
X416063Y134764D02*
X427382D01*
X416063Y102087D02*
Y134764D01*
Y102087D02*
X427382D01*
Y134764D01*
X414980Y679330D02*
X426299D01*
X414980Y646653D02*
Y679330D01*
Y646653D02*
X426299D01*
Y679330D01*
X24174Y493370D02*
X37363D01*
X24174Y473488D02*
Y493370D01*
Y473488D02*
X37363D01*
Y493370D01*
X24764Y453917D02*
X37953D01*
X24764Y434035D02*
Y453917D01*
Y434035D02*
X37953D01*
Y453917D01*
X24173Y640157D02*
X37362D01*
X24173Y620276D02*
Y640157D01*
Y620276D02*
X37362D01*
Y640157D01*
X344764Y319528D02*
X365827D01*
X344764Y362047D02*
X365827D01*
Y319528D02*
Y362047D01*
X344764Y319528D02*
Y362047D01*
Y426221D02*
X365827D01*
X344764Y468740D02*
X365827D01*
Y426221D02*
Y468740D01*
X344764Y426221D02*
Y468740D01*
X590378Y41929D02*
Y123425D01*
X567543Y41929D02*
X590378D01*
X567543D02*
Y123425D01*
X590378D01*
Y663976D02*
Y745472D01*
X567543Y663976D02*
X590378D01*
X567543D02*
Y745472D01*
X590378D01*
Y231732D02*
Y313228D01*
X567543Y231732D02*
X590378D01*
X567543D02*
Y313228D01*
X590378D01*
Y474016D02*
Y555512D01*
X567543Y474016D02*
X590378D01*
X567543D02*
Y555512D01*
X590378D01*
Y136831D02*
Y218327D01*
X567543Y136831D02*
X590378D01*
X567543D02*
Y218327D01*
X590378D01*
Y568996D02*
Y650492D01*
X567543Y568996D02*
X590378D01*
X567543D02*
Y650492D01*
X590378D01*
X-39075Y335630D02*
X39665D01*
X-39075Y294291D02*
Y335630D01*
Y294291D02*
X39665D01*
Y335630D01*
D67*
X388751Y16879D02*
X417232D01*
X469593Y16879D01*
X563366Y49390D02*
X575197Y61220D01*
X469593Y16879D02*
X479436Y26722D01*
X562106Y609744D02*
Y691634D01*
Y601969D02*
Y609744D01*
Y441043D02*
Y601969D01*
Y691634D02*
X575197Y704724D01*
X317434Y514764D02*
X383327Y580657D01*
X271654Y493972D02*
X292446Y514764D01*
X370079Y60539D02*
X387443D01*
X411417Y36564D02*
X447203D01*
X330709Y16879D02*
X343479D01*
X149606Y90551D02*
X275591D01*
X102362Y43307D02*
X189198D01*
X141732Y73957D02*
Y82677D01*
X141732Y67739D02*
X164544Y90551D01*
X117300Y43307D02*
X141732Y67739D01*
X141732Y67739D02*
X141732Y67739D01*
X141732Y82677D02*
Y252687D01*
X383327Y580657D02*
Y713130D01*
X369882Y726575D02*
X383327Y713130D01*
X271654Y295670D02*
Y493972D01*
X374618Y31012D02*
X388751Y16879D01*
X542539Y77973D02*
Y340216D01*
X525106Y60539D02*
X542539Y77973D01*
X477992Y60539D02*
X525106D01*
X458570D02*
X477992D01*
X501968Y36563D01*
X477992Y60539D02*
X477992Y60539D01*
X453018Y36564D02*
X458570Y31012D01*
X447203Y36564D02*
X453018D01*
X292446Y514764D02*
X317434D01*
X149606Y122878D02*
X194642Y167913D01*
X141732Y252687D02*
X152077Y263032D01*
X239015D01*
X271654Y295670D01*
X562106Y359783D02*
Y440945D01*
X542539Y340216D02*
X562106Y359783D01*
X567543Y156122D02*
X575197D01*
X563366D02*
X567543D01*
X479436Y26722D02*
X540698D01*
X563366Y49390D01*
Y156122D01*
X229384Y161417D02*
X248818D01*
X222888Y167913D02*
X229384Y161417D01*
X206430Y167913D02*
X222888D01*
X39370Y62697D02*
X58760Y43307D01*
X354331Y44791D02*
X370079Y60539D01*
X354331Y27731D02*
Y44791D01*
X31496Y233524D02*
X39370Y225650D01*
X17874Y247146D02*
X31496Y233524D01*
X39370Y185276D02*
Y225650D01*
X17874Y206772D02*
X39370Y185276D01*
Y144882D02*
Y185276D01*
X17874Y166378D02*
X39370Y144882D01*
Y112586D02*
Y144882D01*
X275591Y90551D02*
X290584Y105545D01*
Y137442D01*
X149606Y90551D02*
Y122878D01*
X194642Y167913D02*
X206430D01*
X58760Y43307D02*
X102362D01*
X387443Y60539D02*
X411417Y36564D01*
X343479Y16879D02*
X354331Y27731D01*
X304716Y16879D02*
X330709D01*
X290584Y31012D02*
X304716Y16879D01*
X283694Y37901D02*
X290584Y31012D01*
X248819Y37901D02*
X283694D01*
X226181Y60539D02*
X248819Y37901D01*
X206430Y60539D02*
X226181D01*
X189198Y43307D02*
X206430Y60539D01*
X39370Y62697D02*
Y112586D01*
X25972Y125984D02*
X39370Y112586D01*
X17874Y125984D02*
X25972D01*
D68*
X373130Y507244D02*
X385827Y519941D01*
X354331Y507244D02*
X373130D01*
X562100Y471128D02*
X584114Y449114D01*
X562106Y609744D02*
X575197D01*
X489114D02*
X562106D01*
X562100Y596647D02*
X567421Y601969D01*
X290000Y420945D02*
Y514800D01*
X141732Y67739D02*
Y73957D01*
X105709Y643424D02*
X118760Y630372D01*
X105709Y643424D02*
Y651083D01*
X95367Y661424D02*
X105709Y651083D01*
X58622Y661424D02*
X95367D01*
X30768Y689279D02*
X58622Y661424D01*
X70600Y515558D02*
Y515600D01*
X40453Y311024D02*
X59055D01*
X29626Y300197D02*
X40453Y311024D01*
X29626Y361024D02*
X59055Y331595D01*
Y311024D02*
Y331595D01*
X263780Y741732D02*
X278937Y726575D01*
X383711Y666289D02*
X420669Y629331D01*
X342001Y539331D02*
X342040Y539370D01*
X326461Y539331D02*
X342001D01*
X287511Y551181D02*
X353851D01*
X269449Y569243D02*
X287511Y551181D01*
X192338Y209862D02*
X205469D01*
X445400Y81500D02*
X456800Y92900D01*
X445400Y58946D02*
X477646Y26700D01*
X445400Y58946D02*
Y81500D01*
X500000Y403702D02*
X535433D01*
X448200Y410300D02*
X553500D01*
X552500Y389600D02*
X553600Y390700D01*
X110088Y503412D02*
X145926Y467574D01*
X69067Y503412D02*
X110088D01*
X567421Y601969D02*
X575197Y609744D01*
X70600Y515558D02*
X105542D01*
X69100D02*
X70600D01*
X290000Y420945D02*
X294980D01*
X299604Y363504D02*
X340000D01*
X295472D02*
X299604D01*
X386259Y264841D02*
X416400Y234700D01*
X377281Y273819D02*
X386259Y264841D01*
X166988Y650322D02*
X185000Y632310D01*
Y614331D02*
Y632310D01*
Y614331D02*
X190000Y609331D01*
X354331D01*
X429685Y653976D02*
X444882D01*
X420669Y662992D02*
X429685Y653976D01*
X87264Y117500D02*
Y122441D01*
X76063Y106299D02*
X87264Y117500D01*
X58760Y106299D02*
X76063D01*
X444882Y653976D02*
X489114Y609744D01*
X207468Y632362D02*
X236969D01*
X199666Y640165D02*
X207468Y632362D01*
X346778Y210400D02*
X354331Y217953D01*
X330600Y210400D02*
X346778D01*
X301302Y181102D02*
X330600Y210400D01*
X248818Y181102D02*
X301302D01*
X421752Y118425D02*
X445630D01*
X451378Y124173D01*
X158052Y463048D02*
X199666D01*
X105542Y515558D02*
X158052Y463048D01*
X278937Y726575D02*
X326142D01*
X444882Y350787D02*
X489173D01*
X493110Y354724D01*
X340000Y363504D02*
X345100Y358404D01*
Y308000D02*
Y358404D01*
Y308000D02*
X368691Y284409D01*
X385827D01*
X64954Y295282D02*
X88150D01*
X59055Y301181D02*
X64954Y295282D01*
X426988Y104173D02*
X451378D01*
X421752Y109409D02*
X426988Y104173D01*
X385827Y264409D02*
X386259Y264841D01*
X354331Y273819D02*
X377281D01*
X416400Y201336D02*
Y234700D01*
Y201336D02*
X421752Y195984D01*
X166988Y531483D02*
X189628D01*
X199666Y541521D01*
X421752Y467480D02*
X426132Y463100D01*
X504700D01*
X537538Y430262D01*
X570400Y433200D02*
X577216D01*
X584803Y440787D01*
X486613Y191300D02*
X527600D01*
X444882Y233032D02*
X486613Y191300D01*
X303051Y323150D02*
X330906D01*
X295374Y330827D02*
X303051Y323150D01*
X420669Y672008D02*
X425077Y667600D01*
X454841D01*
X493110Y629331D01*
X564181Y726181D02*
X575197D01*
X493110Y655110D02*
X564181Y726181D01*
X493110Y629331D02*
Y655110D01*
X421752Y127441D02*
X450807Y156496D01*
X493110D01*
X409605Y403702D02*
X500000D01*
X385827Y427480D02*
X409605Y403702D01*
X572033Y403333D02*
X584803D01*
X569600Y400900D02*
X572033Y403333D01*
X517100Y389600D02*
X552500D01*
X507900Y398800D02*
X517100Y389600D01*
X423839Y398800D02*
X507900D01*
X385827Y360787D02*
X423839Y398800D01*
X385827Y360787D02*
X404016D01*
X421358Y378130D01*
X145926Y452890D02*
Y467574D01*
X31359Y413787D02*
X37700Y420128D01*
Y435000D01*
X79900Y477200D01*
X113906D01*
X119646Y482940D01*
X162598Y448500D02*
X166988Y452890D01*
X102590Y448500D02*
X162598D01*
X88150Y462940D02*
X102590Y448500D01*
X118760Y689279D02*
X128139Y679900D01*
X321300D01*
X350400Y650800D01*
X576502Y412349D02*
X584803D01*
X570751Y418100D02*
X576502Y412349D01*
X502900Y471900D02*
X554200Y420600D01*
X390246Y471900D02*
X502900D01*
X385827Y467480D02*
X390246Y471900D01*
X426600Y431900D02*
X448200Y410300D01*
X383100Y431900D02*
X426600D01*
X381200Y430000D02*
X383100Y431900D01*
X381200Y393039D02*
Y430000D01*
Y393039D02*
X385827Y388412D01*
X225648Y561521D02*
X269449Y605322D01*
X199666Y561521D02*
X225648D01*
X176951D02*
X199666D01*
X166988Y571483D02*
X176951Y561521D01*
X294980Y415945D02*
X308845D01*
X349300Y456400D01*
Y463414D01*
X385827Y499941D01*
X87264Y620372D02*
X112636Y595000D01*
X151666D01*
X166988Y610322D01*
X145926D02*
X150304Y614700D01*
X170000D01*
X171400Y613300D01*
Y604200D02*
Y613300D01*
X156700Y589500D02*
X171400Y604200D01*
X71000Y589500D02*
X156700D01*
X574935Y421365D02*
X584803D01*
X570600Y425700D02*
X574935Y421365D01*
X442500Y366457D02*
X531496D01*
X439300Y363257D02*
X442500Y366457D01*
X439300Y355787D02*
Y363257D01*
Y355787D02*
X444882D01*
X439300Y432480D02*
X444882D01*
X439300Y423900D02*
Y432480D01*
Y423900D02*
X441835Y421365D01*
X531496D01*
X117300Y119300D02*
X121614Y114986D01*
Y86693D02*
Y114986D01*
X83900Y449533D02*
X119646Y413787D01*
X83900Y449533D02*
Y468690D01*
X88150Y472940D01*
X299604Y363504D02*
X301100Y365000D01*
Y394500D01*
X280800Y414800D02*
X301100Y394500D01*
X133659Y427800D02*
X242200D01*
X119646Y413787D02*
X133659Y427800D01*
X563400Y150305D02*
X567543Y154449D01*
X456800Y92900D02*
Y118751D01*
X451378Y124173D02*
X456800Y118751D01*
X345647Y217953D02*
X354331D01*
X282500Y281100D02*
X345647Y217953D01*
X196850Y293595D02*
Y303917D01*
X164764Y336004D02*
X196850Y303917D01*
X416300Y114861D02*
X421752Y109409D01*
X416300Y114861D02*
Y171500D01*
X417700Y172900D01*
X431000D01*
X435400Y177300D01*
Y201955D01*
X444882Y211437D01*
X562100Y471128D02*
Y596647D01*
X421752Y167953D02*
X431397D01*
X444882Y181437D01*
X420669Y619331D02*
X430866Y629528D01*
X444882D01*
X294980Y410945D02*
X322244D01*
X330413Y419114D01*
X330709Y159449D02*
X338360Y167100D01*
X399847D01*
X410700Y177953D01*
X421752D01*
X295472Y358504D02*
X325551D01*
X330906Y353150D01*
X119646Y339660D02*
X159260D01*
X160200Y340600D01*
X187254D01*
X196850Y331004D01*
X145926Y531483D02*
X161842Y547400D01*
X231090D01*
X236969Y541521D01*
X145926Y650322D02*
X166988D01*
X145926Y492890D02*
X166988D01*
X219240Y465088D02*
X236969D01*
X217200Y463048D02*
X219240Y465088D01*
X199666Y463048D02*
X217200D01*
X469753Y429134D02*
X493110D01*
X468100Y427480D02*
X469753Y429134D01*
X444882Y427480D02*
X468100D01*
X219240Y622520D02*
X236969D01*
X217200Y620480D02*
X219240Y622520D01*
X199666Y620480D02*
X217200D01*
X311068Y220238D02*
X330709D01*
X309100Y222206D02*
X311068Y220238D01*
X289622Y222206D02*
X309100D01*
X312999Y449114D02*
X330413D01*
X311700Y447815D02*
X312999Y449114D01*
X294390Y447815D02*
X311700D01*
X131890Y288764D02*
X138776Y295650D01*
X164370D01*
X196079Y233032D02*
X205469Y223642D01*
X190920Y233032D02*
X196079D01*
X172929Y251024D02*
X190920Y233032D01*
X584114Y449114D02*
X584803Y449803D01*
X562106Y440945D02*
Y441043D01*
X567543Y156122D02*
Y320181D01*
Y154449D02*
Y156122D01*
Y320181D02*
X584803Y337441D01*
X29626Y329528D02*
Y329724D01*
X31496Y233524D02*
X32148D01*
X155811Y326004D02*
X164764D01*
X152155Y329660D02*
X155811Y326004D01*
X119646Y329660D02*
X152155D01*
D69*
X330709Y36565D02*
X331693Y37549D01*
X220472Y78740D02*
X228346D01*
X99164Y98425D02*
Y146682D01*
Y86033D02*
Y98425D01*
X110236Y66929D02*
Y156389D01*
Y56682D02*
Y66929D01*
X110236Y156389D02*
X110236Y156389D01*
X212627Y202703D02*
X270119D01*
X190400Y209862D02*
X205469D01*
X228346Y78740D02*
X272383D01*
X397638Y142323D02*
Y145669D01*
X393701Y138386D02*
X397638Y142323D01*
X381890Y138386D02*
X389015Y145511D01*
X340589Y46445D02*
X393701Y99557D01*
X332677Y46445D02*
X340589D01*
X332677Y36564D02*
Y46445D01*
X393701Y99557D02*
Y138386D01*
X306734Y60539D02*
X330709Y36565D01*
X149606Y169068D02*
X190400Y209862D01*
X149606Y122878D02*
Y169068D01*
X270119Y202703D02*
X289622Y222206D01*
X205469Y209862D02*
X212627Y202703D01*
X58760Y187087D02*
X99164Y146682D01*
X110236Y156389D02*
X121614Y167767D01*
Y177461D01*
Y202461D01*
X96614Y227461D02*
X121614Y202461D01*
X58760Y227461D02*
X96614D01*
X272383Y78740D02*
X290584Y60539D01*
X460630Y556851D02*
X493110Y589331D01*
X460630Y523229D02*
Y556851D01*
X444882Y507480D02*
X460630Y523229D01*
X421653Y484252D02*
X444882Y507480D01*
X381102Y484252D02*
X421653D01*
X354331Y457480D02*
X381102Y484252D01*
X468504Y221102D02*
X493110Y196496D01*
X468504Y221102D02*
Y257165D01*
X444882Y280787D02*
X468504Y257165D01*
X418583Y307087D02*
X444882Y280787D01*
X360039Y307087D02*
X418583D01*
X354331Y312795D02*
X360039Y307087D01*
X354331Y312795D02*
Y330787D01*
X562106Y601969D02*
X567421D01*
X575197Y609744D01*
X290584Y60539D02*
X306734D01*
X350394Y78740D02*
X358268D01*
X381890Y102362D01*
Y138386D01*
D70*
X248818Y181102D02*
X262993Y166927D01*
Y148675D02*
Y166927D01*
X222013Y106425D02*
X248819D01*
X206430Y122008D02*
X222013Y106425D01*
X206430Y122008D02*
Y138386D01*
X252704D02*
X262993Y148675D01*
X206430Y138386D02*
X252704D01*
X290584Y166970D02*
X330709Y126845D01*
Y105241D02*
Y126845D01*
D71*
X354331Y609331D02*
D03*
Y569331D02*
D03*
X145926Y571483D02*
D03*
Y531483D02*
D03*
X166988Y571483D02*
D03*
Y531483D02*
D03*
X421358Y418130D02*
D03*
Y378130D02*
D03*
X88150Y335282D02*
D03*
Y295282D02*
D03*
X248819Y66425D02*
D03*
Y106425D02*
D03*
X330709Y65241D02*
D03*
Y105241D02*
D03*
X166988Y492890D02*
D03*
Y452890D02*
D03*
Y650322D02*
D03*
Y610322D02*
D03*
X145926Y492890D02*
D03*
Y452890D02*
D03*
Y650322D02*
D03*
Y610322D02*
D03*
X385827Y360787D02*
D03*
Y320787D02*
D03*
Y467480D02*
D03*
Y427480D02*
D03*
X295374Y330827D02*
D03*
Y290827D02*
D03*
X294390Y487815D02*
D03*
Y447815D02*
D03*
X421752Y320787D02*
D03*
Y360787D02*
D03*
Y427480D02*
D03*
Y467480D02*
D03*
X354331Y217953D02*
D03*
Y177953D02*
D03*
X444882Y280787D02*
D03*
Y320787D02*
D03*
Y467480D02*
D03*
Y507480D02*
D03*
X531496Y244488D02*
D03*
Y284488D02*
D03*
Y499370D02*
D03*
Y539370D02*
D03*
X493110Y156496D02*
D03*
Y196496D02*
D03*
Y589331D02*
D03*
Y629331D02*
D03*
X531496Y326457D02*
D03*
Y366457D02*
D03*
Y421365D02*
D03*
Y461365D02*
D03*
X236969Y541521D02*
D03*
D72*
X206430Y138386D02*
D03*
X290584Y137443D02*
D03*
X354331Y330787D02*
D03*
Y437480D02*
D03*
X206430Y31012D02*
D03*
X290584D02*
D03*
X374618Y31012D02*
D03*
X458570D02*
D03*
D73*
X206430Y167913D02*
D03*
X290584Y166970D02*
D03*
X206430Y60539D02*
D03*
X290584D02*
D03*
X374618Y60539D02*
D03*
X458570D02*
D03*
D74*
X332677Y36564D02*
D03*
X417232Y36563D02*
D03*
X248819Y37901D02*
D03*
X330709Y220238D02*
D03*
X248819Y221968D02*
D03*
X199666Y463048D02*
D03*
Y640165D02*
D03*
X248818Y181102D02*
D03*
X330709Y179134D02*
D03*
X501968Y36563D02*
D03*
X199666Y561521D02*
D03*
X385827Y284409D02*
D03*
Y519941D02*
D03*
X451378Y104173D02*
D03*
X444882Y653976D02*
D03*
X543636Y403543D02*
D03*
D75*
X332677Y16879D02*
D03*
X417232Y16878D02*
D03*
X248819Y18216D02*
D03*
X330709Y200553D02*
D03*
X248819Y202283D02*
D03*
X199666Y482733D02*
D03*
Y620480D02*
D03*
X248818Y161417D02*
D03*
X330709Y159449D02*
D03*
X501968Y16878D02*
D03*
X199666Y541521D02*
D03*
X385827Y264409D02*
D03*
Y499941D02*
D03*
X451378Y124173D02*
D03*
X444882Y673976D02*
D03*
X543636Y383858D02*
D03*
D76*
X58760Y227461D02*
D03*
Y187087D02*
D03*
Y43307D02*
D03*
Y106299D02*
D03*
X263780Y741732D02*
D03*
X29626Y361024D02*
D03*
X196850Y331004D02*
D03*
X58760Y146693D02*
D03*
X196850Y293595D02*
D03*
X58622Y413787D02*
D03*
X57776Y689278D02*
D03*
X31359Y413787D02*
D03*
X30768Y689279D02*
D03*
X119646Y413787D02*
D03*
X118760Y689279D02*
D03*
X145926Y414869D02*
D03*
Y689476D02*
D03*
X354331Y157480D02*
D03*
Y629528D02*
D03*
X493110Y221063D02*
D03*
X492913Y561220D02*
D03*
D77*
X421752Y177953D02*
D03*
Y167953D02*
D03*
Y157953D02*
D03*
X531496Y393602D02*
D03*
X269449Y595322D02*
D03*
Y605322D02*
D03*
X421752Y284488D02*
D03*
Y274488D02*
D03*
Y264488D02*
D03*
X420669Y519370D02*
D03*
Y509370D02*
D03*
Y499370D02*
D03*
Y629331D02*
D03*
Y619331D02*
D03*
Y609331D02*
D03*
D78*
X500000Y383702D02*
D03*
X88150Y462940D02*
D03*
X87264Y620372D02*
D03*
X119646Y462940D02*
D03*
X118760Y620372D02*
D03*
D79*
X500000Y393702D02*
D03*
Y403702D02*
D03*
X88150Y472940D02*
D03*
Y482940D02*
D03*
X87264Y630372D02*
D03*
Y640372D02*
D03*
X119646Y472940D02*
D03*
Y482940D02*
D03*
X118760Y630372D02*
D03*
Y640372D02*
D03*
D80*
X121614Y177461D02*
D03*
Y227461D02*
D03*
Y146693D02*
D03*
Y86693D02*
D03*
X531496Y44803D02*
D03*
Y104803D02*
D03*
X531496Y685354D02*
D03*
Y745354D02*
D03*
X531496Y156496D02*
D03*
Y216496D02*
D03*
Y569331D02*
D03*
Y629331D02*
D03*
X330906Y323150D02*
D03*
X330413Y419114D02*
D03*
X421752Y195984D02*
D03*
X420669Y556417D02*
D03*
X326461Y539331D02*
D03*
X307457D02*
D03*
X269449Y539243D02*
D03*
X288453Y539331D02*
D03*
X444882Y233032D02*
D03*
Y540728D02*
D03*
Y181437D02*
D03*
Y599528D02*
D03*
X164370Y285650D02*
D03*
X164764Y326004D02*
D03*
X289622Y208427D02*
D03*
X205469Y209862D02*
D03*
X236969Y622520D02*
D03*
Y465088D02*
D03*
X385827Y398255D02*
D03*
X59055Y301181D02*
D03*
D81*
X493110Y244488D02*
D03*
Y354724D02*
D03*
Y429134D02*
D03*
Y539370D02*
D03*
D82*
X584803Y374895D02*
D03*
Y365879D02*
D03*
Y412349D02*
D03*
Y403333D02*
D03*
X354331Y273819D02*
D03*
Y282835D02*
D03*
Y516260D02*
D03*
Y525276D02*
D03*
X584803Y337441D02*
D03*
Y328425D02*
D03*
Y449803D02*
D03*
Y440787D02*
D03*
X421752Y118425D02*
D03*
Y109409D02*
D03*
X420669Y662992D02*
D03*
Y653976D02*
D03*
D83*
X584803Y383911D02*
D03*
Y421365D02*
D03*
X354331Y264803D02*
D03*
Y507244D02*
D03*
X584803Y346457D02*
D03*
Y458819D02*
D03*
X421752Y127441D02*
D03*
X420669Y672008D02*
D03*
D84*
X295472Y368504D02*
D03*
Y363504D02*
D03*
X294980Y420945D02*
D03*
Y415945D02*
D03*
X444882Y360787D02*
D03*
Y355787D02*
D03*
Y437480D02*
D03*
Y432480D02*
D03*
X119646Y334660D02*
D03*
Y339660D02*
D03*
Y295650D02*
D03*
Y300650D02*
D03*
D85*
X295472Y358504D02*
D03*
X294980Y410945D02*
D03*
X444882Y350787D02*
D03*
Y427480D02*
D03*
X119646Y329660D02*
D03*
Y290650D02*
D03*
D86*
X575197Y104134D02*
D03*
Y726181D02*
D03*
Y293937D02*
D03*
Y536220D02*
D03*
Y199035D02*
D03*
Y631201D02*
D03*
D87*
Y82677D02*
D03*
Y61220D02*
D03*
Y704724D02*
D03*
Y683268D02*
D03*
Y272480D02*
D03*
Y251024D02*
D03*
Y514764D02*
D03*
Y493307D02*
D03*
Y177579D02*
D03*
Y156122D02*
D03*
Y609744D02*
D03*
Y588287D02*
D03*
D88*
X88150Y204764D02*
D03*
X87264Y122441D02*
D03*
D89*
X88150Y214764D02*
D03*
X87264Y132441D02*
D03*
D90*
X15059Y314961D02*
D03*
X29626Y329724D02*
D03*
Y300197D02*
D03*
D91*
X330906Y353150D02*
D03*
X330413Y449114D02*
D03*
X421752Y225984D02*
D03*
X420669Y586417D02*
D03*
X326461Y569331D02*
D03*
X307457D02*
D03*
X269449Y569243D02*
D03*
X288453Y569331D02*
D03*
X444882Y263032D02*
D03*
Y570728D02*
D03*
Y211437D02*
D03*
Y629528D02*
D03*
X164370Y295650D02*
D03*
X164764Y336004D02*
D03*
X289622Y222206D02*
D03*
X205469Y223642D02*
D03*
X236969Y632362D02*
D03*
Y474931D02*
D03*
X59055Y311024D02*
D03*
D92*
X354331Y350787D02*
D03*
Y457480D02*
D03*
D93*
X385827Y388412D02*
D03*
D94*
X236969Y561206D02*
D03*
D95*
X326142Y726575D02*
D03*
X369882D02*
D03*
D96*
X17874Y227461D02*
D03*
Y187087D02*
D03*
Y146693D02*
D03*
Y106299D02*
D03*
D97*
Y247146D02*
D03*
Y206772D02*
D03*
Y166378D02*
D03*
Y125984D02*
D03*
D98*
X22638Y764764D02*
D03*
Y22638D02*
D03*
X567913Y764764D02*
D03*
Y22638D02*
D03*
D99*
X99164Y86033D02*
D03*
X110236Y56682D02*
D03*
Y66929D02*
D03*
X389015Y145511D02*
D03*
X358268Y78740D02*
D03*
X228346D02*
D03*
X220472Y78898D02*
D03*
X99164Y98425D02*
D03*
X397638Y145669D02*
D03*
X535433Y403702D02*
D03*
X553500Y410300D02*
D03*
X553600Y390700D02*
D03*
X69067Y503412D02*
D03*
X69100Y515558D02*
D03*
X537538Y430262D02*
D03*
X570400Y433200D02*
D03*
X527600Y191300D02*
D03*
X569600Y400900D02*
D03*
X350400Y650800D02*
D03*
X570751Y418100D02*
D03*
X554200Y420600D02*
D03*
X71000Y589500D02*
D03*
X570600Y425700D02*
D03*
X117300Y119300D02*
D03*
X280800Y414800D02*
D03*
X242200Y427800D02*
D03*
X282500Y281100D02*
D03*
X172929Y251024D02*
D03*
X350394Y78740D02*
D03*
X381890Y138386D02*
D03*
X393701D02*
D03*
D100*
X290584Y166970D02*
X302748Y179134D01*
X330709D01*
M02*
