G04*
G04 #@! TF.GenerationSoftware,Altium Limited,Altium Designer,18.0.7 (293)*
G04*
G04 Layer_Physical_Order=1*
G04 Layer_Color=255*
%FSLAX25Y25*%
%MOIN*%
G70*
G01*
G75*
%ADD10C,0.00500*%
%ADD11C,0.00600*%
%ADD12C,0.00787*%
%ADD14C,0.01968*%
%ADD18C,0.00394*%
%ADD24C,0.00000*%
%ADD25C,0.00781*%
%ADD26C,0.00300*%
%ADD27C,0.00197*%
%ADD28R,0.02953X0.04921*%
%ADD29R,0.03543X0.02756*%
%ADD30R,0.05315X0.03937*%
%ADD31R,0.06102X0.02559*%
%ADD32R,0.03937X0.02756*%
%ADD67C,0.07874*%
%ADD68C,0.01181*%
%ADD69C,0.05000*%
%ADD70C,0.03937*%
%ADD71C,0.05512*%
%ADD72C,0.06693*%
%ADD73R,0.06693X0.06693*%
%ADD74C,0.07500*%
G04:AMPARAMS|DCode=75|XSize=75mil|YSize=75mil|CornerRadius=9.38mil|HoleSize=0mil|Usage=FLASHONLY|Rotation=90.000|XOffset=0mil|YOffset=0mil|HoleType=Round|Shape=RoundedRectangle|*
%AMROUNDEDRECTD75*
21,1,0.07500,0.05625,0,0,90.0*
21,1,0.05625,0.07500,0,0,90.0*
1,1,0.01875,0.02813,0.02813*
1,1,0.01875,0.02813,-0.02813*
1,1,0.01875,-0.02813,-0.02813*
1,1,0.01875,-0.02813,0.02813*
%
%ADD75ROUNDEDRECTD75*%
%ADD76C,0.11811*%
%ADD77C,0.04724*%
%ADD78R,0.05200X0.05200*%
%ADD79C,0.05200*%
%ADD80C,0.05906*%
%ADD81C,0.07087*%
%ADD82C,0.07677*%
%ADD83R,0.07677X0.07677*%
%ADD84O,0.07874X0.03937*%
%ADD85R,0.07874X0.03937*%
%ADD86R,0.09803X0.09803*%
%ADD87C,0.09803*%
%ADD88O,0.07000X0.06000*%
G04:AMPARAMS|DCode=89|XSize=60mil|YSize=70mil|CornerRadius=0mil|HoleSize=0mil|Usage=FLASHONLY|Rotation=90.000|XOffset=0mil|YOffset=0mil|HoleType=Round|Shape=Octagon|*
%AMOCTAGOND89*
4,1,8,-0.03500,-0.01500,-0.03500,0.01500,-0.02000,0.03000,0.02000,0.03000,0.03500,0.01500,0.03500,-0.01500,0.02000,-0.03000,-0.02000,-0.03000,-0.03500,-0.01500,0.0*
%
%ADD89OCTAGOND89*%

%ADD90C,0.15902*%
%ADD91R,0.05906X0.05906*%
%ADD92R,0.06693X0.06693*%
G04:AMPARAMS|DCode=93|XSize=59.06mil|YSize=59.06mil|CornerRadius=7.38mil|HoleSize=0mil|Usage=FLASHONLY|Rotation=90.000|XOffset=0mil|YOffset=0mil|HoleType=Round|Shape=RoundedRectangle|*
%AMROUNDEDRECTD93*
21,1,0.05906,0.04429,0,0,90.0*
21,1,0.04429,0.05906,0,0,90.0*
1,1,0.01476,0.02215,0.02215*
1,1,0.01476,0.02215,-0.02215*
1,1,0.01476,-0.02215,-0.02215*
1,1,0.01476,-0.02215,0.02215*
%
%ADD93ROUNDEDRECTD93*%
%ADD94R,0.05512X0.05512*%
%ADD95O,0.15748X0.19685*%
%ADD96R,0.08268X0.08268*%
%ADD97C,0.08268*%
%ADD98P,0.23438X8X22.5*%
%ADD99C,0.05000*%
G36*
X533563Y743246D02*
X533544Y743210D01*
X533528Y743140D01*
X533513Y743037D01*
X533489Y742731D01*
X533465Y741718D01*
X533464Y741382D01*
X529528Y741382D01*
X529429Y743246D01*
X533563Y743246D01*
D02*
G37*
G36*
X269688Y740718D02*
X269849Y738302D01*
X269953Y737646D01*
X270083Y737066D01*
X270239Y736559D01*
X270420Y736128D01*
X270626Y735771D01*
X270858Y735489D01*
X270022Y734654D01*
X269741Y734886D01*
X269384Y735092D01*
X268952Y735273D01*
X268446Y735429D01*
X267865Y735559D01*
X267210Y735663D01*
X265674Y735796D01*
X264793Y735824D01*
X263839Y735827D01*
X269685Y741673D01*
X269688Y740718D01*
D02*
G37*
G36*
X330108Y741975D02*
X330339Y739569D01*
X330541Y738429D01*
X330800Y737332D01*
X331118Y736278D01*
X331493Y735265D01*
X331926Y734295D01*
X332417Y733368D01*
X332965Y732483D01*
X319319D01*
X319867Y733368D01*
X320358Y734295D01*
X320791Y735265D01*
X321166Y736278D01*
X321483Y737332D01*
X321743Y738429D01*
X321945Y739569D01*
X322089Y740751D01*
X322205Y743242D01*
X330079D01*
X330108Y741975D01*
D02*
G37*
G36*
X580020Y722870D02*
X579986Y722761D01*
Y722636D01*
X580020Y722494D01*
X580086Y722335D01*
X580187Y722160D01*
X580320Y721968D01*
X580487Y721759D01*
X580922Y721291D01*
X580086Y720456D01*
X579844Y720690D01*
X579410Y721058D01*
X579218Y721191D01*
X579042Y721291D01*
X578884Y721358D01*
X578742Y721392D01*
X578617D01*
X578508Y721358D01*
X578416Y721291D01*
X580086Y722962D01*
X580020Y722870D01*
D02*
G37*
G36*
X55577Y683797D02*
X55233Y683918D01*
X54900Y684001D01*
X54576Y684045D01*
X54264Y684051D01*
X53962Y684018D01*
X53671Y683947D01*
X53390Y683837D01*
X53172Y683718D01*
X53084Y683563D01*
X52992Y683365D01*
X52917Y683160D01*
X52859Y682948D01*
X52817Y682729D01*
X52792Y682503D01*
X52784Y682270D01*
X51602Y681089D01*
X51594Y681305D01*
X51569Y681481D01*
X51527Y681616D01*
X51469Y681711D01*
X51394Y681766D01*
X51302Y681780D01*
X51193Y681755D01*
X51068Y681688D01*
X50926Y681582D01*
X50767Y681435D01*
X52193Y683696D01*
X51775Y684113D01*
X52000Y684363D01*
X52187Y684622D01*
X52334Y684893D01*
X52444Y685174D01*
X52515Y685465D01*
X52548Y685767D01*
X52542Y686079D01*
X52498Y686402D01*
X52416Y686736D01*
X52295Y687080D01*
X55577Y683797D01*
D02*
G37*
G36*
X533563Y683246D02*
X533544Y683210D01*
X533528Y683140D01*
X533513Y683037D01*
X533489Y682731D01*
X533465Y681718D01*
X533464Y681382D01*
X529528Y681382D01*
X529429Y683246D01*
X533563Y683246D01*
D02*
G37*
G36*
X149386Y684581D02*
X147792Y682759D01*
X147402Y682221D01*
X147083Y681718D01*
X146835Y681251D01*
X146658Y680818D01*
X146552Y680420D01*
X146516Y680056D01*
X145335D01*
X145300Y680420D01*
X145193Y680818D01*
X145016Y681251D01*
X144768Y681718D01*
X144449Y682221D01*
X144060Y682759D01*
X143067Y683939D01*
X142465Y684581D01*
X141792Y685258D01*
X150059D01*
X149386Y684581D01*
D02*
G37*
G36*
X122221Y684384D02*
X120626Y682562D01*
X120237Y682024D01*
X119918Y681522D01*
X119670Y681054D01*
X119492Y680621D01*
X119386Y680223D01*
X119351Y679859D01*
X118170D01*
X118134Y680223D01*
X118028Y680621D01*
X117851Y681054D01*
X117603Y681522D01*
X117284Y682024D01*
X116894Y682562D01*
X115902Y683742D01*
X115300Y684384D01*
X114626Y685061D01*
X122894D01*
X122221Y684384D01*
D02*
G37*
G36*
X571696Y679837D02*
X571399Y680115D01*
X571080Y680363D01*
X570741Y680583D01*
X570379Y680773D01*
X569997Y680934D01*
X569594Y681065D01*
X569169Y681168D01*
X568723Y681241D01*
X568256Y681285D01*
X567767Y681299D01*
Y685236D01*
X568256Y685251D01*
X568723Y685295D01*
X569169Y685368D01*
X569594Y685470D01*
X569997Y685602D01*
X570379Y685763D01*
X570741Y685953D01*
X571080Y686172D01*
X571399Y686421D01*
X571696Y686699D01*
Y679837D01*
D02*
G37*
G36*
X442796Y670232D02*
X442705Y670298D01*
X442598Y670331D01*
X442474Y670330D01*
X442334Y670297D01*
X442177Y670231D01*
X442004Y670131D01*
X441814Y669999D01*
X441607Y669833D01*
X441144Y669403D01*
X440309Y670238D01*
X440540Y670478D01*
X440904Y670908D01*
X441037Y671098D01*
X441136Y671272D01*
X441203Y671428D01*
X441236Y671569D01*
X441236Y671693D01*
X441203Y671800D01*
X441138Y671890D01*
X442796Y670232D01*
D02*
G37*
G36*
X32232Y669770D02*
X32268Y669669D01*
X32328Y669581D01*
X32411Y669504D01*
X32519Y669439D01*
X32650Y669386D01*
X32805Y669345D01*
X32984Y669315D01*
X33187Y669297D01*
X33413Y669291D01*
Y668110D01*
X33187Y668104D01*
X32984Y668087D01*
X32805Y668057D01*
X32650Y668016D01*
X32519Y667963D01*
X32411Y667898D01*
X32328Y667821D01*
X32268Y667732D01*
X32232Y667632D01*
X32220Y667520D01*
Y669882D01*
X32232Y669770D01*
D02*
G37*
G36*
X425397Y657869D02*
X425223Y657665D01*
X425068Y657421D01*
X424931Y657136D01*
X424814Y656811D01*
X424715Y656446D01*
X424636Y656040D01*
X424575Y655594D01*
X424511Y654581D01*
X424508Y654015D01*
X420708Y657815D01*
X421275Y657818D01*
X422287Y657882D01*
X422733Y657943D01*
X423139Y658022D01*
X423504Y658121D01*
X423829Y658238D01*
X424114Y658375D01*
X424358Y658530D01*
X424562Y658704D01*
X425397Y657869D01*
D02*
G37*
G36*
X146529Y654452D02*
X146570Y654232D01*
X146637Y654006D01*
X146730Y653776D01*
X146851Y653541D01*
X146998Y653300D01*
X147172Y653055D01*
X147373Y652805D01*
X147855Y652290D01*
X143997D01*
X144251Y652550D01*
X144679Y653055D01*
X144853Y653300D01*
X145000Y653541D01*
X145121Y653776D01*
X145215Y654006D01*
X145282Y654232D01*
X145322Y654452D01*
X145335Y654667D01*
X146516D01*
X146529Y654452D01*
D02*
G37*
G36*
X31837Y653260D02*
X31736Y653224D01*
X31648Y653165D01*
X31571Y653081D01*
X31506Y652974D01*
X31453Y652843D01*
X31412Y652687D01*
X31382Y652508D01*
X31365Y652306D01*
X31359Y652079D01*
X30177D01*
X30171Y652306D01*
X30154Y652508D01*
X30124Y652687D01*
X30083Y652843D01*
X30030Y652974D01*
X29965Y653081D01*
X29888Y653165D01*
X29800Y653224D01*
X29699Y653260D01*
X29587Y653272D01*
X31949D01*
X31837Y653260D01*
D02*
G37*
G36*
X352904Y650459D02*
X352956Y649883D01*
X353004Y649622D01*
X353066Y649379D01*
X353143Y649155D01*
X353234Y648949D01*
X353340Y648761D01*
X353461Y648591D01*
X353596Y648439D01*
X352761Y647604D01*
X352609Y647739D01*
X352439Y647860D01*
X352251Y647966D01*
X352045Y648057D01*
X351821Y648134D01*
X351578Y648197D01*
X351317Y648244D01*
X351038Y648278D01*
X350741Y648296D01*
X350425Y648300D01*
X352900Y650775D01*
X352904Y650459D01*
D02*
G37*
G36*
X580922Y636090D02*
X580687Y635847D01*
X580317Y635411D01*
X580182Y635219D01*
X580080Y635043D01*
X580012Y634885D01*
X579978Y634743D01*
X579977Y634619D01*
X580009Y634511D01*
X580074Y634420D01*
X578416Y636078D01*
X578507Y636013D01*
X578615Y635981D01*
X578739Y635982D01*
X578881Y636016D01*
X579039Y636084D01*
X579215Y636186D01*
X579407Y636321D01*
X579617Y636489D01*
X580086Y636926D01*
X580922Y636090D01*
D02*
G37*
G36*
X203419Y639577D02*
X203482Y638593D01*
X203542Y638159D01*
X203621Y637764D01*
X203718Y637408D01*
X203833Y637091D01*
X203968Y636813D01*
X204121Y636573D01*
X204293Y636373D01*
X203458Y635537D01*
X203257Y635709D01*
X203017Y635862D01*
X202739Y635997D01*
X202422Y636113D01*
X202066Y636210D01*
X201671Y636288D01*
X201237Y636348D01*
X200253Y636411D01*
X199703Y636415D01*
X203415Y640127D01*
X203419Y639577D01*
D02*
G37*
G36*
X61268Y635434D02*
X61304Y635334D01*
X61363Y635245D01*
X61447Y635169D01*
X61554Y635104D01*
X61685Y635050D01*
X61840Y635009D01*
X62019Y634980D01*
X62222Y634962D01*
X62449Y634956D01*
Y633775D01*
X62222Y633769D01*
X62019Y633751D01*
X61840Y633722D01*
X61685Y633680D01*
X61554Y633627D01*
X61447Y633562D01*
X61363Y633486D01*
X61304Y633397D01*
X61268Y633296D01*
X61256Y633184D01*
Y635546D01*
X61268Y635434D01*
D02*
G37*
G36*
X423035Y629017D02*
X423086Y628486D01*
X423132Y628244D01*
X423193Y628018D01*
X423267Y627809D01*
X423356Y627615D01*
X423458Y627437D01*
X423575Y627275D01*
X423706Y627129D01*
X422871Y626294D01*
X422725Y626425D01*
X422563Y626542D01*
X422385Y626644D01*
X422191Y626733D01*
X421982Y626807D01*
X421756Y626868D01*
X421514Y626914D01*
X421256Y626946D01*
X420983Y626965D01*
X420693Y626969D01*
X423031Y629307D01*
X423035Y629017D01*
D02*
G37*
G36*
X31365Y627123D02*
X31382Y626921D01*
X31412Y626742D01*
X31453Y626586D01*
X31506Y626455D01*
X31571Y626348D01*
X31648Y626264D01*
X31736Y626205D01*
X31837Y626169D01*
X31949Y626157D01*
X29587D01*
X29699Y626169D01*
X29800Y626205D01*
X29888Y626264D01*
X29965Y626348D01*
X30030Y626455D01*
X30083Y626586D01*
X30124Y626742D01*
X30154Y626921D01*
X30171Y627123D01*
X30177Y627350D01*
X31359D01*
X31365Y627123D01*
D02*
G37*
G36*
X533544Y627186D02*
X533528Y627117D01*
X533513Y627014D01*
X533489Y626708D01*
X533465Y625695D01*
X533464Y625358D01*
X529528D01*
X529429Y627222D01*
X533563D01*
X533544Y627186D01*
D02*
G37*
G36*
X55989Y625302D02*
X55979Y625375D01*
X55949Y625441D01*
X55900Y625499D01*
X55831Y625549D01*
X55742Y625592D01*
X55633Y625626D01*
X55504Y625654D01*
X55356Y625673D01*
X55188Y625684D01*
X55000Y625688D01*
Y626869D01*
X55188Y626873D01*
X55504Y626904D01*
X55633Y626931D01*
X55742Y626966D01*
X55831Y627008D01*
X55900Y627059D01*
X55949Y627117D01*
X55979Y627182D01*
X55989Y627256D01*
Y625302D01*
D02*
G37*
G36*
X61268Y627348D02*
X61304Y627247D01*
X61363Y627159D01*
X61447Y627082D01*
X61554Y627017D01*
X61685Y626964D01*
X61840Y626923D01*
X62019Y626893D01*
X62222Y626875D01*
X62449Y626869D01*
Y625688D01*
X62222Y625682D01*
X62019Y625665D01*
X61840Y625635D01*
X61685Y625594D01*
X61554Y625541D01*
X61447Y625476D01*
X61363Y625399D01*
X61304Y625310D01*
X61268Y625210D01*
X61256Y625098D01*
Y627460D01*
X61268Y627348D01*
D02*
G37*
G36*
X31837Y621272D02*
X31736Y621236D01*
X31648Y621176D01*
X31571Y621093D01*
X31506Y620986D01*
X31453Y620854D01*
X31412Y620699D01*
X31382Y620520D01*
X31365Y620317D01*
X31359Y620091D01*
X30177D01*
X30171Y620317D01*
X30154Y620520D01*
X30124Y620699D01*
X30083Y620854D01*
X30030Y620986D01*
X29965Y621093D01*
X29888Y621176D01*
X29800Y621236D01*
X29699Y621272D01*
X29587Y621284D01*
X31949D01*
X31837Y621272D01*
D02*
G37*
G36*
X238755Y620125D02*
X238283Y619573D01*
X238091Y619308D01*
X237928Y619049D01*
X237796Y618796D01*
X237692Y618551D01*
X237618Y618312D01*
X237574Y618080D01*
X237559Y617855D01*
X236378D01*
X236364Y618080D01*
X236319Y618312D01*
X236245Y618551D01*
X236142Y618796D01*
X236009Y619049D01*
X235847Y619308D01*
X235655Y619573D01*
X235433Y619846D01*
X234902Y620411D01*
X239036D01*
X238755Y620125D01*
D02*
G37*
G36*
X129760Y610572D02*
X108260D01*
Y650072D01*
X129760D01*
Y610572D01*
D02*
G37*
G36*
X98264D02*
X76764D01*
Y650072D01*
X98264D01*
Y610572D01*
D02*
G37*
G36*
X354303Y606575D02*
X353940Y606571D01*
X353280Y606517D01*
X352983Y606466D01*
X352709Y606401D01*
X352458Y606319D01*
X352228Y606223D01*
X352022Y606111D01*
X351838Y605983D01*
X351676Y605840D01*
X350840Y606675D01*
X350984Y606837D01*
X351111Y607022D01*
X351223Y607228D01*
X351320Y607457D01*
X351401Y607709D01*
X351466Y607983D01*
X351517Y608279D01*
X351552Y608598D01*
X351575Y609303D01*
X354303Y606575D01*
D02*
G37*
G36*
X422121Y607436D02*
X421781Y607025D01*
X421642Y606821D01*
X421525Y606618D01*
X421430Y606417D01*
X421355Y606218D01*
X421302Y606019D01*
X421270Y605822D01*
X421260Y605626D01*
X420079D01*
X420068Y605822D01*
X420036Y606019D01*
X419983Y606218D01*
X419909Y606417D01*
X419813Y606618D01*
X419696Y606821D01*
X419558Y607025D01*
X419398Y607230D01*
X419218Y607436D01*
X419016Y607644D01*
X422323D01*
X422121Y607436D01*
D02*
G37*
G36*
X442171Y603095D02*
X442366Y602962D01*
X442587Y602846D01*
X442834Y602745D01*
X443106Y602661D01*
X443404Y602592D01*
X443727Y602540D01*
X444077Y602504D01*
X444852Y602480D01*
X441929Y599557D01*
X441925Y599958D01*
X441869Y600682D01*
X441817Y601006D01*
X441749Y601304D01*
X441664Y601576D01*
X441564Y601823D01*
X441447Y602043D01*
X441315Y602239D01*
X441166Y602409D01*
X442001Y603244D01*
X442171Y603095D01*
D02*
G37*
G36*
X115497Y597013D02*
X115514Y596810D01*
X115544Y596631D01*
X115585Y596476D01*
X115638Y596344D01*
X115703Y596237D01*
X115780Y596153D01*
X115868Y596094D01*
X115969Y596058D01*
X116081Y596046D01*
X113719D01*
X113831Y596058D01*
X113932Y596094D01*
X114020Y596153D01*
X114097Y596237D01*
X114162Y596344D01*
X114215Y596476D01*
X114256Y596631D01*
X114286Y596810D01*
X114304Y597013D01*
X114309Y597239D01*
X115491D01*
X115497Y597013D01*
D02*
G37*
G36*
X272486Y597524D02*
X272355Y597378D01*
X272238Y597216D01*
X272136Y597038D01*
X272047Y596844D01*
X271973Y596634D01*
X271912Y596409D01*
X271866Y596167D01*
X271833Y595909D01*
X271815Y595635D01*
X271811Y595346D01*
X269473Y597684D01*
X269762Y597688D01*
X270294Y597739D01*
X270536Y597785D01*
X270762Y597845D01*
X270971Y597920D01*
X271165Y598009D01*
X271343Y598111D01*
X271505Y598228D01*
X271651Y598359D01*
X272486Y597524D01*
D02*
G37*
G36*
X81383Y593511D02*
X81371Y593623D01*
X81335Y593724D01*
X81275Y593812D01*
X81192Y593889D01*
X81084Y593954D01*
X80953Y594007D01*
X80798Y594049D01*
X80619Y594078D01*
X80416Y594096D01*
X80189Y594102D01*
Y595283D01*
X80416Y595289D01*
X80619Y595306D01*
X80798Y595336D01*
X80953Y595377D01*
X81084Y595430D01*
X81192Y595495D01*
X81275Y595572D01*
X81335Y595661D01*
X81371Y595761D01*
X81383Y595873D01*
Y593511D01*
D02*
G37*
G36*
X51954D02*
X51942Y593623D01*
X51906Y593724D01*
X51846Y593812D01*
X51763Y593889D01*
X51655Y593954D01*
X51524Y594007D01*
X51369Y594049D01*
X51190Y594078D01*
X50987Y594096D01*
X50760Y594102D01*
Y595283D01*
X50987Y595289D01*
X51190Y595306D01*
X51369Y595336D01*
X51524Y595377D01*
X51655Y595430D01*
X51763Y595495D01*
X51846Y595572D01*
X51906Y595661D01*
X51942Y595761D01*
X51954Y595873D01*
Y593511D01*
D02*
G37*
G36*
X93296Y593272D02*
X93314Y593070D01*
X93344Y592891D01*
X93385Y592735D01*
X93438Y592604D01*
X93503Y592497D01*
X93580Y592413D01*
X93669Y592354D01*
X93769Y592318D01*
X93881Y592306D01*
X91519D01*
X91631Y592318D01*
X91732Y592354D01*
X91820Y592413D01*
X91897Y592497D01*
X91962Y592604D01*
X92015Y592735D01*
X92056Y592891D01*
X92086Y593070D01*
X92103Y593272D01*
X92110Y593499D01*
X93291D01*
X93296Y593272D01*
D02*
G37*
G36*
X65303Y592021D02*
X65339Y591921D01*
X65399Y591832D01*
X65482Y591755D01*
X65590Y591690D01*
X65721Y591637D01*
X65876Y591596D01*
X66055Y591566D01*
X66258Y591548D01*
X66484Y591543D01*
Y590361D01*
X66258Y590355D01*
X66055Y590338D01*
X65876Y590308D01*
X65721Y590267D01*
X65590Y590214D01*
X65482Y590149D01*
X65399Y590072D01*
X65339Y589984D01*
X65303Y589883D01*
X65291Y589771D01*
Y592133D01*
X65303Y592021D01*
D02*
G37*
G36*
X421266Y590312D02*
X421283Y590109D01*
X421313Y589931D01*
X421354Y589776D01*
X421407Y589644D01*
X421472Y589537D01*
X421549Y589453D01*
X421638Y589394D01*
X421738Y589358D01*
X421850Y589346D01*
X419488D01*
X419600Y589358D01*
X419701Y589394D01*
X419789Y589453D01*
X419866Y589537D01*
X419931Y589644D01*
X419984Y589776D01*
X420025Y589931D01*
X420055Y590109D01*
X420073Y590312D01*
X420079Y590539D01*
X421260D01*
X421266Y590312D01*
D02*
G37*
G36*
X68530Y589112D02*
X68481Y589350D01*
X68412Y589562D01*
X68324Y589749D01*
X68216Y589912D01*
X68088Y590049D01*
X67940Y590162D01*
X67773Y590249D01*
X67586Y590311D01*
X67379Y590349D01*
X67153Y590361D01*
X67465Y591543D01*
X67758Y591546D01*
X68925Y591636D01*
X69214Y591678D01*
X70366Y591918D01*
X68530Y589112D01*
D02*
G37*
G36*
X117733Y589168D02*
X117471Y588899D01*
X117066Y588428D01*
X116923Y588227D01*
X116818Y588048D01*
X116753Y587892D01*
X116727Y587760D01*
X116741Y587650D01*
X116794Y587562D01*
X116886Y587498D01*
X114637Y588566D01*
X114754Y588526D01*
X114882Y588515D01*
X115022Y588531D01*
X115172Y588574D01*
X115333Y588645D01*
X115506Y588743D01*
X115690Y588869D01*
X115884Y589023D01*
X116090Y589204D01*
X116307Y589413D01*
X117733Y589168D01*
D02*
G37*
G36*
X124569Y589574D02*
X124469Y589539D01*
X124380Y589480D01*
X124303Y589397D01*
X124238Y589291D01*
X124185Y589161D01*
X124144Y589007D01*
X124114Y588830D01*
X124097Y588629D01*
X124091Y588405D01*
X122909D01*
X122905Y588629D01*
X122867Y589007D01*
X122833Y589161D01*
X122791Y589291D01*
X122738Y589397D01*
X122676Y589480D01*
X122605Y589539D01*
X122524Y589574D01*
X122433Y589586D01*
X124681D01*
X124569Y589574D01*
D02*
G37*
G36*
X513709Y593091D02*
X513793Y592338D01*
X513932Y591608D01*
X514126Y590902D01*
X514377Y590218D01*
X514683Y589557D01*
X515045Y588920D01*
X515463Y588305D01*
X515936Y587714D01*
X516465Y587146D01*
X511713Y589114D01*
X513681Y593867D01*
X513709Y593091D01*
D02*
G37*
G36*
X32528Y588765D02*
X32563Y588664D01*
X32623Y588576D01*
X32706Y588499D01*
X32814Y588434D01*
X32945Y588381D01*
X33100Y588340D01*
X33279Y588310D01*
X33482Y588293D01*
X33709Y588286D01*
Y587106D01*
X33482Y587100D01*
X33279Y587082D01*
X33100Y587052D01*
X32945Y587011D01*
X32814Y586958D01*
X32706Y586893D01*
X32623Y586816D01*
X32563Y586728D01*
X32528Y586627D01*
X32516Y586515D01*
Y588877D01*
X32528Y588765D01*
D02*
G37*
G36*
X81383Y586031D02*
X81371Y586143D01*
X81335Y586243D01*
X81275Y586332D01*
X81192Y586409D01*
X81084Y586474D01*
X80953Y586527D01*
X80798Y586568D01*
X80619Y586598D01*
X80416Y586615D01*
X80189Y586621D01*
Y587802D01*
X80416Y587808D01*
X80619Y587826D01*
X80798Y587855D01*
X80953Y587897D01*
X81084Y587950D01*
X81192Y588015D01*
X81275Y588092D01*
X81335Y588180D01*
X81371Y588281D01*
X81383Y588393D01*
Y586031D01*
D02*
G37*
G36*
X55854Y588281D02*
X55890Y588180D01*
X55950Y588092D01*
X56033Y588015D01*
X56141Y587950D01*
X56272Y587897D01*
X56427Y587855D01*
X56606Y587826D01*
X56809Y587808D01*
X57036Y587802D01*
Y586621D01*
X56809Y586615D01*
X56606Y586598D01*
X56427Y586568D01*
X56272Y586527D01*
X56141Y586474D01*
X56033Y586409D01*
X55950Y586332D01*
X55890Y586243D01*
X55854Y586143D01*
X55843Y586031D01*
Y588393D01*
X55854Y588281D01*
D02*
G37*
G36*
X571696Y584856D02*
X571399Y585134D01*
X571080Y585383D01*
X570741Y585602D01*
X570379Y585792D01*
X569997Y585953D01*
X569594Y586085D01*
X569169Y586187D01*
X568723Y586260D01*
X568256Y586304D01*
X567767Y586319D01*
Y590256D01*
X568256Y590271D01*
X568723Y590314D01*
X569169Y590387D01*
X569594Y590490D01*
X569997Y590622D01*
X570379Y590782D01*
X570741Y590973D01*
X571080Y591192D01*
X571399Y591441D01*
X571696Y591718D01*
Y584856D01*
D02*
G37*
G36*
X419399Y583476D02*
X419307Y583543D01*
X419198Y583577D01*
X419073D01*
X418931Y583543D01*
X418772Y583476D01*
X418597Y583376D01*
X418405Y583243D01*
X418196Y583076D01*
X417728Y582641D01*
X416893Y583476D01*
X417127Y583719D01*
X417495Y584153D01*
X417628Y584345D01*
X417728Y584520D01*
X417795Y584679D01*
X417829Y584821D01*
Y584946D01*
X417795Y585055D01*
X417728Y585147D01*
X419399Y583476D01*
D02*
G37*
G36*
X78597Y571205D02*
X78614Y571002D01*
X78644Y570823D01*
X78685Y570669D01*
X78738Y570537D01*
X78803Y570430D01*
X78880Y570346D01*
X78969Y570287D01*
X79069Y570251D01*
X79181Y570239D01*
X76819D01*
X76931Y570251D01*
X77031Y570287D01*
X77120Y570346D01*
X77197Y570430D01*
X77262Y570537D01*
X77315Y570669D01*
X77356Y570823D01*
X77386Y571002D01*
X77403Y571205D01*
X77409Y571432D01*
X78591D01*
X78597Y571205D01*
D02*
G37*
G36*
X531466Y572283D02*
X528543Y569360D01*
X528531Y569399D01*
X528494Y569460D01*
X528432Y569543D01*
X528232Y569776D01*
X527532Y570509D01*
X527295Y570748D01*
X530079Y573532D01*
X531466Y572283D01*
D02*
G37*
G36*
X357821Y571986D02*
X357678Y571824D01*
X357551Y571640D01*
X357439Y571433D01*
X357342Y571204D01*
X357261Y570952D01*
X357195Y570678D01*
X357145Y570382D01*
X357110Y570063D01*
X357087Y569358D01*
X354358Y572086D01*
X354722Y572090D01*
X355382Y572145D01*
X355678Y572195D01*
X355952Y572261D01*
X356204Y572342D01*
X356433Y572438D01*
X356640Y572550D01*
X356824Y572678D01*
X356986Y572821D01*
X357821Y571986D01*
D02*
G37*
G36*
X443611Y567788D02*
X443519Y567854D01*
X443411Y567888D01*
X443286D01*
X443144Y567854D01*
X442985Y567788D01*
X442810Y567687D01*
X442618Y567554D01*
X442409Y567387D01*
X441941Y566953D01*
X441106Y567788D01*
X441340Y568030D01*
X441707Y568464D01*
X441841Y568656D01*
X441941Y568832D01*
X442008Y568990D01*
X442041Y569132D01*
Y569257D01*
X442008Y569366D01*
X441941Y569458D01*
X443611Y567788D01*
D02*
G37*
G36*
X105323Y568393D02*
X105104Y568388D01*
X104917Y568374D01*
X104764Y568350D01*
X104644Y568317D01*
X104556Y568274D01*
X104502Y568222D01*
X104481Y568160D01*
X104494Y568089D01*
X104539Y568008D01*
X104618Y567918D01*
X103307Y567558D01*
X103137Y567716D01*
X102959Y567858D01*
X102775Y567984D01*
X102584Y568092D01*
X102385Y568184D01*
X102180Y568259D01*
X101968Y568318D01*
X101750Y568359D01*
X101524Y568385D01*
X101291Y568393D01*
X102717Y569574D01*
X105323Y568393D01*
D02*
G37*
G36*
X145110Y569515D02*
X147855D01*
X147600Y569255D01*
X147172Y568750D01*
X146998Y568505D01*
X146851Y568265D01*
X146730Y568030D01*
X146637Y567799D01*
X146570Y567574D01*
X146529Y567353D01*
X146516Y567138D01*
X145335D01*
X145322Y567353D01*
X145282Y567574D01*
X145215Y567799D01*
X145121Y568030D01*
X145000Y568265D01*
X144853Y568505D01*
X144751Y568648D01*
X144578Y568619D01*
X144304Y568553D01*
X144053Y568472D01*
X143823Y568376D01*
X143617Y568264D01*
X143432Y568136D01*
X143271Y567993D01*
X142435Y568828D01*
X142578Y568990D01*
X142706Y569174D01*
X142818Y569381D01*
X142914Y569610D01*
X142996Y569862D01*
X143061Y570136D01*
X143112Y570432D01*
X143147Y570751D01*
X143170Y571456D01*
X145110Y569515D01*
D02*
G37*
G36*
X79081Y567704D02*
X78981Y567669D01*
X78892Y567610D01*
X78815Y567527D01*
X78750Y567421D01*
X78697Y567291D01*
X78656Y567137D01*
X78626Y566960D01*
X78609Y566759D01*
X78603Y566535D01*
X77422D01*
X77416Y566759D01*
X77398Y566960D01*
X77368Y567137D01*
X77327Y567291D01*
X77274Y567421D01*
X77209Y567527D01*
X77132Y567610D01*
X77044Y567669D01*
X76943Y567704D01*
X76831Y567716D01*
X79193D01*
X79081Y567704D01*
D02*
G37*
G36*
X354303Y566575D02*
X353940Y566571D01*
X353280Y566517D01*
X352983Y566466D01*
X352709Y566401D01*
X352458Y566319D01*
X352228Y566223D01*
X352022Y566111D01*
X351838Y565983D01*
X351676Y565840D01*
X350840Y566676D01*
X350984Y566837D01*
X351111Y567022D01*
X351223Y567228D01*
X351320Y567457D01*
X351401Y567709D01*
X351466Y567983D01*
X351517Y568279D01*
X351552Y568598D01*
X351575Y569303D01*
X354303Y566575D01*
D02*
G37*
G36*
X78609Y566205D02*
X78626Y566003D01*
X78656Y565824D01*
X78697Y565668D01*
X78750Y565537D01*
X78815Y565430D01*
X78892Y565346D01*
X78981Y565287D01*
X79081Y565251D01*
X79193Y565239D01*
X76831D01*
X76943Y565251D01*
X77044Y565287D01*
X77132Y565346D01*
X77209Y565430D01*
X77274Y565537D01*
X77327Y565668D01*
X77368Y565824D01*
X77398Y566003D01*
X77416Y566205D01*
X77422Y566432D01*
X78603D01*
X78609Y566205D01*
D02*
G37*
G36*
X327530Y566378D02*
X327429Y566343D01*
X327341Y566284D01*
X327264Y566201D01*
X327199Y566095D01*
X327146Y565965D01*
X327104Y565811D01*
X327075Y565634D01*
X327057Y565433D01*
X327051Y565209D01*
X325870D01*
X325864Y565433D01*
X325847Y565634D01*
X325817Y565811D01*
X325776Y565965D01*
X325723Y566095D01*
X325658Y566201D01*
X325581Y566284D01*
X325492Y566343D01*
X325392Y566378D01*
X325280Y566390D01*
X327642D01*
X327530Y566378D01*
D02*
G37*
G36*
X308526D02*
X308425Y566343D01*
X308337Y566284D01*
X308260Y566201D01*
X308195Y566095D01*
X308142Y565965D01*
X308101Y565811D01*
X308071Y565634D01*
X308053Y565433D01*
X308048Y565209D01*
X306866D01*
X306860Y565433D01*
X306843Y565634D01*
X306813Y565811D01*
X306772Y565965D01*
X306719Y566095D01*
X306654Y566201D01*
X306577Y566284D01*
X306488Y566343D01*
X306388Y566378D01*
X306276Y566390D01*
X308638D01*
X308526Y566378D01*
D02*
G37*
G36*
X289522D02*
X289422Y566343D01*
X289333Y566284D01*
X289256Y566201D01*
X289191Y566095D01*
X289138Y565965D01*
X289097Y565811D01*
X289067Y565634D01*
X289050Y565433D01*
X289044Y565209D01*
X287862D01*
X287857Y565433D01*
X287839Y565634D01*
X287809Y565811D01*
X287768Y565965D01*
X287715Y566095D01*
X287650Y566201D01*
X287573Y566284D01*
X287485Y566343D01*
X287384Y566378D01*
X287272Y566390D01*
X289634D01*
X289522Y566378D01*
D02*
G37*
G36*
X534461Y569263D02*
X534498Y569202D01*
X534560Y569118D01*
X534760Y568886D01*
X535460Y568153D01*
X535697Y567914D01*
X532913Y565130D01*
X531526Y566378D01*
X534449Y569301D01*
X534461Y569263D01*
D02*
G37*
G36*
X237565Y564904D02*
X237583Y564702D01*
X237613Y564523D01*
X237654Y564367D01*
X237707Y564236D01*
X237772Y564129D01*
X237849Y564045D01*
X237937Y563986D01*
X238038Y563950D01*
X238150Y563938D01*
X235788D01*
X235900Y563950D01*
X236000Y563986D01*
X236089Y564045D01*
X236166Y564129D01*
X236231Y564236D01*
X236284Y564367D01*
X236325Y564523D01*
X236355Y564702D01*
X236372Y564904D01*
X236378Y565131D01*
X237559D01*
X237565Y564904D01*
D02*
G37*
G36*
X96442Y562802D02*
X96430Y562915D01*
X96394Y563015D01*
X96334Y563103D01*
X96251Y563180D01*
X96143Y563245D01*
X96012Y563298D01*
X95857Y563340D01*
X95678Y563369D01*
X95475Y563387D01*
X95249Y563393D01*
Y564574D01*
X95475Y564580D01*
X95678Y564598D01*
X95857Y564627D01*
X96012Y564668D01*
X96143Y564722D01*
X96251Y564786D01*
X96334Y564863D01*
X96394Y564952D01*
X96430Y565052D01*
X96442Y565165D01*
Y562802D01*
D02*
G37*
G36*
X102508Y560052D02*
X102544Y559952D01*
X102603Y559863D01*
X102687Y559787D01*
X102794Y559722D01*
X102926Y559668D01*
X103081Y559627D01*
X103260Y559598D01*
X103462Y559580D01*
X103689Y559574D01*
Y558393D01*
X103462Y558387D01*
X103260Y558369D01*
X103081Y558340D01*
X102926Y558298D01*
X102794Y558245D01*
X102687Y558180D01*
X102603Y558104D01*
X102544Y558015D01*
X102508Y557914D01*
X102496Y557802D01*
Y560164D01*
X102508Y560052D01*
D02*
G37*
G36*
X74985Y557802D02*
X74973Y557914D01*
X74937Y558015D01*
X74878Y558104D01*
X74794Y558180D01*
X74687Y558245D01*
X74555Y558298D01*
X74400Y558340D01*
X74221Y558369D01*
X74019Y558387D01*
X73792Y558393D01*
Y559574D01*
X74019Y559580D01*
X74221Y559598D01*
X74400Y559627D01*
X74555Y559668D01*
X74687Y559722D01*
X74794Y559787D01*
X74878Y559863D01*
X74937Y559952D01*
X74973Y560052D01*
X74985Y560164D01*
Y557802D01*
D02*
G37*
G36*
X79081Y557704D02*
X78981Y557669D01*
X78892Y557610D01*
X78815Y557527D01*
X78750Y557421D01*
X78697Y557291D01*
X78656Y557137D01*
X78626Y556960D01*
X78609Y556759D01*
X78603Y556535D01*
X77422D01*
X77416Y556759D01*
X77398Y556960D01*
X77368Y557137D01*
X77327Y557291D01*
X77274Y557421D01*
X77209Y557527D01*
X77132Y557610D01*
X77044Y557669D01*
X76943Y557704D01*
X76831Y557716D01*
X79193D01*
X79081Y557704D01*
D02*
G37*
G36*
X78609Y556205D02*
X78626Y556003D01*
X78656Y555824D01*
X78697Y555668D01*
X78750Y555537D01*
X78815Y555430D01*
X78892Y555346D01*
X78981Y555287D01*
X79081Y555251D01*
X79193Y555239D01*
X76831D01*
X76943Y555251D01*
X77044Y555287D01*
X77132Y555346D01*
X77209Y555430D01*
X77274Y555537D01*
X77327Y555668D01*
X77368Y555824D01*
X77398Y556003D01*
X77416Y556205D01*
X77422Y556432D01*
X78603D01*
X78609Y556205D01*
D02*
G37*
G36*
X497010Y556931D02*
X496976Y556792D01*
X496947Y556587D01*
X496900Y555975D01*
X496852Y553949D01*
X496850Y553275D01*
X488976D01*
X488779Y557003D01*
X497047D01*
X497010Y556931D01*
D02*
G37*
G36*
X102508Y555052D02*
X102544Y554952D01*
X102603Y554863D01*
X102687Y554786D01*
X102794Y554722D01*
X102926Y554668D01*
X103081Y554627D01*
X103260Y554598D01*
X103462Y554580D01*
X103689Y554574D01*
Y553393D01*
X103462Y553387D01*
X103260Y553369D01*
X103081Y553340D01*
X102926Y553298D01*
X102794Y553245D01*
X102687Y553180D01*
X102603Y553103D01*
X102544Y553015D01*
X102508Y552914D01*
X102496Y552802D01*
Y555164D01*
X102508Y555052D01*
D02*
G37*
G36*
X420640Y553465D02*
X420239Y553461D01*
X419515Y553405D01*
X419191Y553352D01*
X418893Y553284D01*
X418621Y553200D01*
X418374Y553099D01*
X418153Y552983D01*
X417958Y552850D01*
X417788Y552701D01*
X416953Y553536D01*
X417102Y553706D01*
X417235Y553901D01*
X417351Y554122D01*
X417452Y554369D01*
X417536Y554641D01*
X417604Y554939D01*
X417657Y555263D01*
X417693Y555612D01*
X417717Y556388D01*
X420640Y553465D01*
D02*
G37*
G36*
X114523Y553393D02*
X114307Y553384D01*
X114132Y553359D01*
X113996Y553318D01*
X113901Y553259D01*
X113846Y553184D01*
X113832Y553092D01*
X113858Y552984D01*
X113924Y552858D01*
X114031Y552716D01*
X114178Y552558D01*
X112507D01*
X112337Y552716D01*
X112159Y552858D01*
X111975Y552984D01*
X111784Y553092D01*
X111585Y553184D01*
X111380Y553259D01*
X111168Y553318D01*
X110950Y553359D01*
X110724Y553384D01*
X110491Y553393D01*
X111917Y554574D01*
X114523Y553393D01*
D02*
G37*
G36*
X415802Y550703D02*
X415660Y550526D01*
X415535Y550342D01*
X415426Y550150D01*
X415335Y549952D01*
X415259Y549747D01*
X415201Y549535D01*
X415159Y549316D01*
X415134Y549090D01*
X415126Y548857D01*
X413945Y547676D01*
X413936Y547892D01*
X413911Y548068D01*
X413869Y548204D01*
X413811Y548299D01*
X413736Y548353D01*
X413644Y548368D01*
X413535Y548342D01*
X413410Y548276D01*
X413268Y548169D01*
X413109Y548022D01*
X414118Y550701D01*
X415961Y550874D01*
X415802Y550703D01*
D02*
G37*
G36*
X79081Y547704D02*
X78981Y547669D01*
X78892Y547610D01*
X78815Y547527D01*
X78750Y547421D01*
X78697Y547291D01*
X78656Y547137D01*
X78626Y546960D01*
X78609Y546759D01*
X78603Y546535D01*
X77422D01*
X77416Y546759D01*
X77398Y546960D01*
X77368Y547137D01*
X77327Y547291D01*
X77274Y547421D01*
X77209Y547527D01*
X77132Y547610D01*
X77044Y547669D01*
X76943Y547704D01*
X76831Y547716D01*
X79193D01*
X79081Y547704D01*
D02*
G37*
G36*
X78609Y546205D02*
X78626Y546002D01*
X78656Y545823D01*
X78697Y545669D01*
X78750Y545537D01*
X78815Y545430D01*
X78892Y545346D01*
X78981Y545287D01*
X79081Y545251D01*
X79193Y545239D01*
X76831D01*
X76943Y545251D01*
X77044Y545287D01*
X77132Y545346D01*
X77209Y545430D01*
X77274Y545537D01*
X77327Y545669D01*
X77368Y545823D01*
X77398Y546002D01*
X77416Y546205D01*
X77422Y546432D01*
X78603D01*
X78609Y546205D01*
D02*
G37*
G36*
X311173Y542211D02*
X311024Y542042D01*
X310892Y541847D01*
X310775Y541625D01*
X310675Y541379D01*
X310590Y541107D01*
X310522Y540809D01*
X310470Y540485D01*
X310434Y540136D01*
X310410Y539360D01*
X307487Y542283D01*
X307887Y542287D01*
X308611Y542343D01*
X308935Y542395D01*
X309233Y542464D01*
X309505Y542548D01*
X309752Y542649D01*
X309973Y542765D01*
X310168Y542898D01*
X310338Y543047D01*
X311173Y542211D01*
D02*
G37*
G36*
X292169D02*
X292020Y542042D01*
X291888Y541847D01*
X291771Y541625D01*
X291670Y541379D01*
X291586Y541107D01*
X291518Y540809D01*
X291466Y540485D01*
X291429Y540136D01*
X291406Y539360D01*
X288482Y542283D01*
X288883Y542287D01*
X289607Y542343D01*
X289931Y542395D01*
X290229Y542464D01*
X290501Y542548D01*
X290748Y542649D01*
X290969Y542765D01*
X291164Y542898D01*
X291334Y543047D01*
X292169Y542211D01*
D02*
G37*
G36*
X273165Y542124D02*
X273016Y541954D01*
X272884Y541759D01*
X272767Y541538D01*
X272667Y541291D01*
X272582Y541019D01*
X272514Y540721D01*
X272462Y540397D01*
X272426Y540048D01*
X272402Y539272D01*
X269479Y542195D01*
X269879Y542199D01*
X270603Y542255D01*
X270927Y542308D01*
X271225Y542376D01*
X271497Y542460D01*
X271744Y542561D01*
X271965Y542677D01*
X272160Y542810D01*
X272330Y542959D01*
X273165Y542124D01*
D02*
G37*
G36*
X239728Y541130D02*
X239783Y540470D01*
X239833Y540173D01*
X239899Y539899D01*
X239980Y539648D01*
X240077Y539419D01*
X240189Y539212D01*
X240316Y539028D01*
X240459Y538866D01*
X239624Y538030D01*
X239462Y538173D01*
X239278Y538301D01*
X239071Y538413D01*
X238842Y538510D01*
X238590Y538591D01*
X238316Y538657D01*
X238020Y538707D01*
X237701Y538742D01*
X236996Y538765D01*
X239725Y541493D01*
X239728Y541130D01*
D02*
G37*
G36*
X102508Y540052D02*
X102544Y539952D01*
X102603Y539863D01*
X102687Y539786D01*
X102794Y539722D01*
X102926Y539668D01*
X103081Y539627D01*
X103260Y539598D01*
X103462Y539580D01*
X103689Y539574D01*
Y538393D01*
X103462Y538387D01*
X103260Y538369D01*
X103081Y538340D01*
X102926Y538298D01*
X102794Y538245D01*
X102687Y538180D01*
X102603Y538103D01*
X102544Y538015D01*
X102508Y537915D01*
X102496Y537802D01*
Y540165D01*
X102508Y540052D01*
D02*
G37*
G36*
X447838Y540298D02*
X447894Y539574D01*
X447947Y539250D01*
X448015Y538952D01*
X448099Y538680D01*
X448200Y538434D01*
X448316Y538212D01*
X448449Y538017D01*
X448598Y537848D01*
X447763Y537012D01*
X447593Y537161D01*
X447398Y537294D01*
X447177Y537410D01*
X446930Y537511D01*
X446658Y537595D01*
X446360Y537664D01*
X446036Y537716D01*
X445687Y537752D01*
X444911Y537776D01*
X447834Y540699D01*
X447838Y540298D01*
D02*
G37*
G36*
X79081Y537704D02*
X78981Y537669D01*
X78892Y537610D01*
X78815Y537527D01*
X78750Y537421D01*
X78697Y537291D01*
X78656Y537137D01*
X78626Y536960D01*
X78609Y536759D01*
X78603Y536535D01*
X77422D01*
X77416Y536759D01*
X77398Y536960D01*
X77368Y537137D01*
X77327Y537291D01*
X77274Y537421D01*
X77209Y537527D01*
X77132Y537610D01*
X77044Y537669D01*
X76943Y537704D01*
X76831Y537716D01*
X79193D01*
X79081Y537704D01*
D02*
G37*
G36*
X534256Y538979D02*
X534310Y538319D01*
X534360Y538022D01*
X534426Y537748D01*
X534507Y537497D01*
X534604Y537268D01*
X534716Y537061D01*
X534843Y536877D01*
X534986Y536715D01*
X534151Y535880D01*
X533989Y536023D01*
X533805Y536150D01*
X533598Y536262D01*
X533369Y536359D01*
X533117Y536440D01*
X532843Y536506D01*
X532547Y536556D01*
X532228Y536591D01*
X531523Y536614D01*
X534252Y539342D01*
X534256Y538979D01*
D02*
G37*
G36*
X288423Y536378D02*
X288023Y536374D01*
X287299Y536318D01*
X286975Y536266D01*
X286677Y536198D01*
X286405Y536113D01*
X286158Y536013D01*
X285937Y535896D01*
X285742Y535763D01*
X285572Y535614D01*
X284737Y536450D01*
X284886Y536619D01*
X285018Y536815D01*
X285135Y537036D01*
X285236Y537282D01*
X285320Y537555D01*
X285388Y537853D01*
X285440Y538176D01*
X285476Y538525D01*
X285500Y539301D01*
X288423Y536378D01*
D02*
G37*
G36*
X78609Y536205D02*
X78626Y536002D01*
X78656Y535823D01*
X78697Y535669D01*
X78750Y535537D01*
X78815Y535430D01*
X78892Y535346D01*
X78981Y535287D01*
X79081Y535251D01*
X79193Y535239D01*
X76831D01*
X76943Y535251D01*
X77044Y535287D01*
X77132Y535346D01*
X77209Y535430D01*
X77274Y535537D01*
X77327Y535669D01*
X77368Y535823D01*
X77398Y536002D01*
X77416Y536205D01*
X77422Y536432D01*
X78603D01*
X78609Y536205D01*
D02*
G37*
G36*
X102508Y535052D02*
X102544Y534952D01*
X102603Y534863D01*
X102687Y534787D01*
X102794Y534722D01*
X102926Y534668D01*
X103081Y534627D01*
X103260Y534598D01*
X103462Y534580D01*
X103689Y534574D01*
Y533393D01*
X103462Y533387D01*
X103260Y533369D01*
X103081Y533340D01*
X102926Y533298D01*
X102794Y533245D01*
X102687Y533180D01*
X102603Y533104D01*
X102544Y533015D01*
X102508Y532914D01*
X102496Y532802D01*
Y535164D01*
X102508Y535052D01*
D02*
G37*
G36*
X74985Y532802D02*
X74973Y532914D01*
X74937Y533015D01*
X74878Y533104D01*
X74794Y533180D01*
X74687Y533245D01*
X74555Y533298D01*
X74400Y533340D01*
X74221Y533369D01*
X74019Y533387D01*
X73792Y533393D01*
Y534574D01*
X74019Y534580D01*
X74221Y534598D01*
X74400Y534627D01*
X74555Y534668D01*
X74687Y534722D01*
X74794Y534787D01*
X74878Y534863D01*
X74937Y534952D01*
X74973Y535052D01*
X74985Y535164D01*
Y532802D01*
D02*
G37*
G36*
X164495Y534831D02*
X164679Y534703D01*
X164886Y534591D01*
X165115Y534495D01*
X165367Y534413D01*
X165641Y534348D01*
X165937Y534297D01*
X166256Y534263D01*
X166961Y534239D01*
X164233Y531511D01*
X164229Y531875D01*
X164174Y532535D01*
X164124Y532831D01*
X164058Y533105D01*
X163977Y533357D01*
X163881Y533586D01*
X163769Y533792D01*
X163641Y533977D01*
X163498Y534138D01*
X164333Y534974D01*
X164495Y534831D01*
D02*
G37*
G36*
X580020Y532909D02*
X579986Y532801D01*
Y532675D01*
X580020Y532534D01*
X580086Y532375D01*
X580187Y532199D01*
X580320Y532007D01*
X580487Y531799D01*
X580922Y531331D01*
X580086Y530496D01*
X579844Y530729D01*
X579410Y531097D01*
X579218Y531231D01*
X579042Y531331D01*
X578884Y531398D01*
X578742Y531431D01*
X578617D01*
X578508Y531398D01*
X578416Y531331D01*
X580086Y533001D01*
X580020Y532909D01*
D02*
G37*
G36*
X582118Y530135D02*
X583126Y527456D01*
X582967Y527603D01*
X582825Y527710D01*
X582700Y527776D01*
X582591Y527802D01*
X582499Y527787D01*
X582424Y527733D01*
X582366Y527638D01*
X582324Y527502D01*
X582299Y527326D01*
X582291Y527110D01*
X581110Y528292D01*
X581101Y528524D01*
X581076Y528750D01*
X581034Y528969D01*
X580976Y529181D01*
X580901Y529386D01*
X580809Y529584D01*
X580700Y529775D01*
X580575Y529960D01*
X580433Y530137D01*
X580274Y530308D01*
X582118Y530135D01*
D02*
G37*
G36*
X386438Y525631D02*
X386499Y525353D01*
X386600Y525061D01*
X386743Y524755D01*
X386926Y524435D01*
X387150Y524100D01*
X387414Y523751D01*
X388065Y523011D01*
X388452Y522619D01*
X383202D01*
X383588Y523011D01*
X384239Y523751D01*
X384504Y524100D01*
X384728Y524435D01*
X384911Y524755D01*
X385053Y525061D01*
X385155Y525353D01*
X385216Y525631D01*
X385236Y525894D01*
X386417D01*
X386438Y525631D01*
D02*
G37*
G36*
X358173Y524670D02*
X358237Y523657D01*
X358297Y523211D01*
X358377Y522806D01*
X358475Y522440D01*
X358593Y522116D01*
X358729Y521831D01*
X358885Y521587D01*
X359059Y521383D01*
X358224Y520547D01*
X358020Y520722D01*
X357775Y520877D01*
X357491Y521014D01*
X357166Y521131D01*
X356801Y521229D01*
X356395Y521309D01*
X355949Y521370D01*
X354936Y521434D01*
X354369Y521437D01*
X358169Y525237D01*
X358173Y524670D01*
D02*
G37*
G36*
X423706Y521572D02*
X423575Y521426D01*
X423458Y521264D01*
X423356Y521086D01*
X423267Y520892D01*
X423193Y520682D01*
X423132Y520457D01*
X423086Y520215D01*
X423054Y519957D01*
X423035Y519683D01*
X423031Y519394D01*
X420693Y521732D01*
X420983Y521736D01*
X421514Y521787D01*
X421756Y521833D01*
X421982Y521893D01*
X422191Y521968D01*
X422385Y522057D01*
X422563Y522159D01*
X422725Y522276D01*
X422871Y522407D01*
X423706Y521572D01*
D02*
G37*
G36*
X83896Y518363D02*
X83914Y518160D01*
X83944Y517981D01*
X83985Y517826D01*
X84038Y517695D01*
X84103Y517587D01*
X84180Y517504D01*
X84268Y517444D01*
X84369Y517409D01*
X84481Y517397D01*
X82119D01*
X82231Y517409D01*
X82332Y517444D01*
X82420Y517504D01*
X82497Y517587D01*
X82562Y517695D01*
X82615Y517826D01*
X82656Y517981D01*
X82686Y518160D01*
X82704Y518363D01*
X82709Y518590D01*
X83890D01*
X83896Y518363D01*
D02*
G37*
G36*
X349697Y519756D02*
X349952Y519599D01*
X350232Y519483D01*
X350536Y519408D01*
X350864Y519373D01*
X351218Y519379D01*
X351596Y519426D01*
X351998Y519514D01*
X352425Y519643D01*
X352877Y519812D01*
X350750Y514877D01*
X350492Y515539D01*
X349067Y518662D01*
X348969Y518781D01*
X349467Y519954D01*
X349697Y519756D01*
D02*
G37*
G36*
X85283Y516514D02*
X85318Y516397D01*
X85375Y516286D01*
X85454Y516179D01*
X85557Y516077D01*
X85681Y515979D01*
X85828Y515887D01*
X85997Y515800D01*
X86190Y515717D01*
X86404Y515640D01*
Y514395D01*
X86241Y514448D01*
X85416Y514665D01*
X85344Y514674D01*
X85283Y514677D01*
X85272Y516636D01*
X85283Y516514D01*
D02*
G37*
G36*
X55854Y516627D02*
X55890Y516527D01*
X55950Y516438D01*
X56033Y516361D01*
X56141Y516296D01*
X56272Y516243D01*
X56427Y516202D01*
X56606Y516172D01*
X56809Y516155D01*
X57036Y516149D01*
Y514968D01*
X56809Y514962D01*
X56606Y514944D01*
X56427Y514915D01*
X56272Y514873D01*
X56141Y514820D01*
X56033Y514755D01*
X55950Y514678D01*
X55890Y514590D01*
X55854Y514489D01*
X55843Y514377D01*
Y516739D01*
X55854Y516627D01*
D02*
G37*
G36*
X67315Y513808D02*
X67089Y514029D01*
X66644Y514399D01*
X66426Y514550D01*
X66210Y514678D01*
X65997Y514782D01*
X65787Y514863D01*
X65579Y514921D01*
X65373Y514956D01*
X65171Y514968D01*
Y516149D01*
X65373Y516160D01*
X65579Y516195D01*
X65787Y516253D01*
X65997Y516334D01*
X66210Y516439D01*
X66426Y516566D01*
X66644Y516717D01*
X66865Y516891D01*
X67089Y517088D01*
X67315Y517308D01*
Y513808D01*
D02*
G37*
G36*
X124697Y514139D02*
X124714Y513936D01*
X124744Y513757D01*
X124785Y513602D01*
X124838Y513470D01*
X124903Y513363D01*
X124980Y513279D01*
X125068Y513220D01*
X125169Y513184D01*
X125281Y513172D01*
X122919D01*
X123031Y513184D01*
X123132Y513220D01*
X123220Y513279D01*
X123297Y513363D01*
X123362Y513470D01*
X123415Y513602D01*
X123456Y513757D01*
X123486Y513936D01*
X123503Y514139D01*
X123509Y514365D01*
X124691D01*
X124697Y514139D01*
D02*
G37*
G36*
X571696Y511333D02*
X571399Y511611D01*
X571080Y511859D01*
X570741Y512079D01*
X570379Y512269D01*
X569997Y512430D01*
X569594Y512561D01*
X569169Y512664D01*
X568723Y512737D01*
X568256Y512781D01*
X567767Y512795D01*
Y516732D01*
X568256Y516747D01*
X568723Y516791D01*
X569169Y516864D01*
X569594Y516966D01*
X569997Y517098D01*
X570379Y517259D01*
X570741Y517449D01*
X571080Y517668D01*
X571399Y517917D01*
X571696Y518195D01*
Y511333D01*
D02*
G37*
G36*
X82546Y510883D02*
X82563Y510681D01*
X82593Y510502D01*
X82634Y510348D01*
X82687Y510216D01*
X82752Y510109D01*
X82829Y510025D01*
X82917Y509965D01*
X83018Y509929D01*
X83130Y509916D01*
X81371Y509928D01*
X81368Y509940D01*
X81366Y509975D01*
X81358Y511109D01*
X82539D01*
X82546Y510883D01*
D02*
G37*
G36*
X93845Y510925D02*
X93744Y510889D01*
X93656Y510830D01*
X93579Y510747D01*
X93514Y510641D01*
X93461Y510511D01*
X93420Y510358D01*
X93390Y510181D01*
X93372Y509980D01*
X93366Y509755D01*
X92185D01*
X92180Y509980D01*
X92162Y510181D01*
X92132Y510358D01*
X92091Y510511D01*
X92038Y510641D01*
X91973Y510747D01*
X91896Y510830D01*
X91808Y510889D01*
X91707Y510925D01*
X91595Y510936D01*
X93957D01*
X93845Y510925D01*
D02*
G37*
G36*
X64432Y510440D02*
X64332Y510405D01*
X64244Y510346D01*
X64169Y510263D01*
X64105Y510157D01*
X64053Y510027D01*
X64014Y509873D01*
X63986Y509696D01*
X63971Y509496D01*
X63968Y509271D01*
X62787D01*
X62778Y509496D01*
X62758Y509696D01*
X62726Y509873D01*
X62683Y510027D01*
X62628Y510157D01*
X62562Y510263D01*
X62484Y510346D01*
X62395Y510405D01*
X62294Y510440D01*
X62182Y510452D01*
X64544D01*
X64432Y510440D01*
D02*
G37*
G36*
X29020Y507381D02*
X29008Y507493D01*
X28973Y507594D01*
X28913Y507682D01*
X28830Y507759D01*
X28722Y507824D01*
X28591Y507877D01*
X28436Y507919D01*
X28257Y507948D01*
X28054Y507966D01*
X27827Y507972D01*
Y509153D01*
X28054Y509159D01*
X28257Y509176D01*
X28436Y509206D01*
X28591Y509247D01*
X28722Y509300D01*
X28830Y509365D01*
X28913Y509442D01*
X28973Y509531D01*
X29008Y509631D01*
X29020Y509743D01*
Y507381D01*
D02*
G37*
G36*
X116898Y509147D02*
X116933Y509047D01*
X116993Y508958D01*
X117077Y508881D01*
X117184Y508816D01*
X117315Y508763D01*
X117470Y508722D01*
X117649Y508692D01*
X117852Y508674D01*
X118079Y508669D01*
Y507487D01*
X117852Y507481D01*
X117649Y507464D01*
X117470Y507434D01*
X117315Y507393D01*
X117184Y507340D01*
X117077Y507275D01*
X116993Y507198D01*
X116933Y507109D01*
X116898Y507009D01*
X116886Y506897D01*
Y509259D01*
X116898Y509147D01*
D02*
G37*
G36*
X423035Y509057D02*
X423086Y508525D01*
X423132Y508283D01*
X423193Y508058D01*
X423267Y507848D01*
X423356Y507654D01*
X423458Y507476D01*
X423575Y507314D01*
X423706Y507168D01*
X422871Y506333D01*
X422725Y506464D01*
X422563Y506581D01*
X422385Y506683D01*
X422191Y506772D01*
X421982Y506847D01*
X421756Y506907D01*
X421514Y506953D01*
X421256Y506986D01*
X420983Y507004D01*
X420693Y507008D01*
X423031Y509346D01*
X423035Y509057D01*
D02*
G37*
G36*
X66821Y506447D02*
X66992Y506328D01*
X67181Y506224D01*
X67389Y506135D01*
X67614Y506061D01*
X67858Y506002D01*
X68119Y505957D01*
X68399Y505927D01*
X68696Y505912D01*
X69012Y505912D01*
X66567Y503407D01*
X66559Y503723D01*
X66500Y504299D01*
X66449Y504559D01*
X66384Y504801D01*
X66304Y505025D01*
X66211Y505230D01*
X66102Y505417D01*
X65980Y505585D01*
X65843Y505735D01*
X66668Y506580D01*
X66821Y506447D01*
D02*
G37*
G36*
X382329Y504283D02*
X382758Y503919D01*
X382949Y503786D01*
X383122Y503687D01*
X383279Y503620D01*
X383419Y503587D01*
X383543Y503587D01*
X383650Y503619D01*
X383741Y503685D01*
X382083Y502027D01*
X382149Y502117D01*
X382181Y502225D01*
X382181Y502348D01*
X382148Y502489D01*
X382081Y502646D01*
X381982Y502819D01*
X381849Y503009D01*
X381684Y503216D01*
X381254Y503679D01*
X382089Y504514D01*
X382329Y504283D01*
D02*
G37*
G36*
X418613Y502276D02*
X418775Y502159D01*
X418953Y502057D01*
X419147Y501968D01*
X419357Y501893D01*
X419583Y501833D01*
X419824Y501787D01*
X420082Y501754D01*
X420356Y501736D01*
X420646Y501732D01*
X418307Y499394D01*
X418303Y499683D01*
X418253Y500215D01*
X418206Y500457D01*
X418146Y500682D01*
X418071Y500892D01*
X417983Y501086D01*
X417880Y501264D01*
X417763Y501426D01*
X417632Y501572D01*
X418467Y502407D01*
X418613Y502276D01*
D02*
G37*
G36*
X533724Y501045D02*
X534229Y500617D01*
X534474Y500442D01*
X534714Y500295D01*
X534949Y500175D01*
X535180Y500081D01*
X535405Y500014D01*
X535626Y499974D01*
X535841Y499961D01*
Y498779D01*
X535626Y498766D01*
X535405Y498726D01*
X535180Y498659D01*
X534949Y498565D01*
X534714Y498445D01*
X534474Y498298D01*
X534229Y498124D01*
X533979Y497923D01*
X533464Y497441D01*
Y501299D01*
X533724Y501045D01*
D02*
G37*
G36*
X145898Y490134D02*
X145534Y490131D01*
X144874Y490076D01*
X144578Y490026D01*
X144304Y489960D01*
X144053Y489879D01*
X143823Y489782D01*
X143617Y489670D01*
X143432Y489543D01*
X143271Y489400D01*
X142435Y490235D01*
X142578Y490397D01*
X142706Y490581D01*
X142818Y490788D01*
X142914Y491017D01*
X142996Y491269D01*
X143061Y491543D01*
X143112Y491839D01*
X143147Y492158D01*
X143170Y492863D01*
X145898Y490134D01*
D02*
G37*
G36*
X297880Y490470D02*
X297737Y490308D01*
X297610Y490124D01*
X297498Y489917D01*
X297401Y489688D01*
X297320Y489437D01*
X297254Y489163D01*
X297204Y488866D01*
X297169Y488547D01*
X297146Y487843D01*
X294417Y490571D01*
X294781Y490575D01*
X295441Y490629D01*
X295737Y490679D01*
X296011Y490745D01*
X296263Y490826D01*
X296492Y490923D01*
X296699Y491035D01*
X296883Y491162D01*
X297045Y491305D01*
X297880Y490470D01*
D02*
G37*
G36*
X294362Y485059D02*
X293999Y485055D01*
X293339Y485001D01*
X293042Y484951D01*
X292768Y484885D01*
X292517Y484804D01*
X292287Y484707D01*
X292081Y484595D01*
X291897Y484468D01*
X291735Y484325D01*
X290899Y485160D01*
X291042Y485322D01*
X291170Y485506D01*
X291282Y485713D01*
X291379Y485942D01*
X291460Y486193D01*
X291526Y486467D01*
X291576Y486764D01*
X291611Y487083D01*
X291634Y487787D01*
X294362Y485059D01*
D02*
G37*
G36*
X61268Y478002D02*
X61304Y477902D01*
X61363Y477813D01*
X61447Y477737D01*
X61554Y477672D01*
X61685Y477618D01*
X61840Y477577D01*
X62019Y477548D01*
X62222Y477530D01*
X62449Y477524D01*
Y476343D01*
X62222Y476337D01*
X62019Y476319D01*
X61840Y476290D01*
X61685Y476248D01*
X61554Y476195D01*
X61447Y476130D01*
X61363Y476053D01*
X61304Y475965D01*
X61268Y475865D01*
X61256Y475752D01*
Y478115D01*
X61268Y478002D01*
D02*
G37*
G36*
X27996Y596452D02*
Y594708D01*
X29353D01*
Y594985D01*
X29411Y594950D01*
X29487Y594918D01*
X29582Y594890D01*
X29695Y594866D01*
X29828Y594845D01*
X30148Y594815D01*
X30543Y594800D01*
X30768Y594798D01*
Y594208D01*
X31268D01*
Y591830D01*
X32578D01*
Y590074D01*
X27996D01*
Y585318D01*
X33540D01*
Y586074D01*
X34200D01*
X34821Y586198D01*
X35347Y586549D01*
X35698Y587075D01*
X35822Y587696D01*
Y595949D01*
X36179Y596299D01*
X43504Y596161D01*
Y564180D01*
X43307Y563983D01*
Y480315D01*
X42618Y479626D01*
Y470469D01*
X39526D01*
X33244Y476751D01*
Y480394D01*
X29322D01*
Y486465D01*
X33244D01*
Y491083D01*
X35347Y493185D01*
X35698Y493711D01*
X35822Y494332D01*
Y511600D01*
X35698Y512221D01*
X35347Y512747D01*
X34821Y513098D01*
X34200Y513222D01*
X33540D01*
Y514574D01*
X30768D01*
D01*
Y514483D01*
X30543Y514482D01*
X29828Y514437D01*
X29695Y514416D01*
X29582Y514392D01*
X29487Y514364D01*
X29411Y514332D01*
X29353Y514296D01*
Y514574D01*
X27996D01*
Y513222D01*
X27400D01*
X26779Y513098D01*
X26253Y512747D01*
X24153Y510647D01*
X23802Y510121D01*
X23678Y509500D01*
Y442500D01*
X23802Y441879D01*
X24153Y441353D01*
X28153Y437353D01*
X28679Y437002D01*
X28882Y436961D01*
Y434020D01*
X33835D01*
Y440941D01*
X29153D01*
X26922Y443172D01*
Y450332D01*
X27384Y450523D01*
X28653Y449253D01*
X28882Y449100D01*
Y447012D01*
X33835D01*
Y453933D01*
X29322D01*
Y473473D01*
X31935D01*
X37708Y467700D01*
X38234Y467348D01*
X38855Y467225D01*
X42618D01*
X42618Y237205D01*
X-0Y237205D01*
X0Y596103D01*
X354Y596457D01*
X27996Y596452D01*
D02*
G37*
G36*
X425040Y469933D02*
X424888Y469768D01*
X424757Y469598D01*
X424647Y469421D01*
X424557Y469240D01*
X424488Y469052D01*
X424439Y468859D01*
X424412Y468661D01*
X424405Y468457D01*
X424418Y468247D01*
X424452Y468031D01*
X422303Y470181D01*
X422518Y470147D01*
X422728Y470133D01*
X422932Y470140D01*
X423131Y470168D01*
X423324Y470216D01*
X423511Y470285D01*
X423693Y470375D01*
X423869Y470485D01*
X424040Y470616D01*
X424204Y470768D01*
X425040Y469933D01*
D02*
G37*
G36*
X53880Y470114D02*
X54057Y469972D01*
X54242Y469847D01*
X54433Y469738D01*
X54631Y469646D01*
X54836Y469571D01*
X55048Y469513D01*
X55267Y469471D01*
X55278Y469470D01*
X55404Y469490D01*
X55559Y469532D01*
X55691Y469585D01*
X55798Y469650D01*
X55882Y469727D01*
X55941Y469815D01*
X55977Y469916D01*
X55989Y470028D01*
Y467666D01*
X55977Y467778D01*
X55941Y467878D01*
X55882Y467967D01*
X55798Y468044D01*
X55691Y468109D01*
X55559Y468162D01*
X55404Y468203D01*
X55225Y468233D01*
X55023Y468250D01*
X54796Y468256D01*
Y468667D01*
X54300Y468256D01*
X51693Y469437D01*
X51909Y469446D01*
X52085Y469471D01*
X52220Y469513D01*
X52315Y469571D01*
X52370Y469646D01*
X52385Y469738D01*
X52359Y469847D01*
X52293Y469972D01*
X52186Y470114D01*
X52039Y470272D01*
X53710D01*
X53880Y470114D01*
D02*
G37*
G36*
X389317Y470135D02*
X389174Y469974D01*
X389047Y469789D01*
X388935Y469583D01*
X388838Y469353D01*
X388757Y469102D01*
X388691Y468828D01*
X388641Y468532D01*
X388606Y468213D01*
X388583Y467508D01*
X385854Y470236D01*
X386218Y470240D01*
X386878Y470294D01*
X387174Y470345D01*
X387448Y470410D01*
X387700Y470492D01*
X387929Y470588D01*
X388136Y470700D01*
X388320Y470828D01*
X388482Y470971D01*
X389317Y470135D01*
D02*
G37*
G36*
X59691Y466890D02*
X59591Y466855D01*
X59502Y466795D01*
X59425Y466711D01*
X59361Y466604D01*
X59307Y466473D01*
X59266Y466318D01*
X59237Y466139D01*
X59219Y465936D01*
X59213Y465709D01*
X58032D01*
X58026Y465936D01*
X58008Y466139D01*
X57979Y466318D01*
X57937Y466473D01*
X57884Y466604D01*
X57819Y466711D01*
X57743Y466795D01*
X57654Y466855D01*
X57553Y466890D01*
X57441Y466902D01*
X59803D01*
X59691Y466890D01*
D02*
G37*
G36*
X444854Y464725D02*
X444491Y464721D01*
X443831Y464666D01*
X443534Y464616D01*
X443260Y464550D01*
X443009Y464469D01*
X442779Y464373D01*
X442573Y464260D01*
X442389Y464133D01*
X442227Y463990D01*
X441392Y464825D01*
X441535Y464987D01*
X441662Y465171D01*
X441774Y465378D01*
X441871Y465607D01*
X441952Y465859D01*
X442018Y466133D01*
X442068Y466429D01*
X442103Y466748D01*
X442126Y467453D01*
X444854Y464725D01*
D02*
G37*
G36*
X385799D02*
X385436Y464721D01*
X384776Y464666D01*
X384479Y464616D01*
X384205Y464550D01*
X383954Y464469D01*
X383724Y464373D01*
X383518Y464260D01*
X383334Y464133D01*
X383172Y463990D01*
X382336Y464825D01*
X382480Y464987D01*
X382607Y465171D01*
X382719Y465378D01*
X382816Y465607D01*
X382897Y465859D01*
X382962Y466133D01*
X383013Y466429D01*
X383048Y466748D01*
X383071Y467453D01*
X385799Y464725D01*
D02*
G37*
G36*
X585400Y463600D02*
X585417Y463397D01*
X585447Y463218D01*
X585488Y463063D01*
X585541Y462932D01*
X585606Y462824D01*
X585683Y462741D01*
X585772Y462681D01*
X585872Y462645D01*
X585984Y462633D01*
X583622D01*
X583734Y462645D01*
X583835Y462681D01*
X583923Y462741D01*
X584000Y462824D01*
X584065Y462932D01*
X584118Y463063D01*
X584160Y463218D01*
X584189Y463397D01*
X584207Y463600D01*
X584213Y463827D01*
X585394D01*
X585400Y463600D01*
D02*
G37*
G36*
X582647Y454992D02*
X582555Y455059D01*
X582446Y455092D01*
X582321D01*
X582179Y455059D01*
X582021Y454992D01*
X581845Y454892D01*
X581653Y454758D01*
X581444Y454591D01*
X580977Y454157D01*
X580141Y454992D01*
X580375Y455234D01*
X580743Y455669D01*
X580876Y455861D01*
X580977Y456036D01*
X581043Y456195D01*
X581077Y456337D01*
Y456462D01*
X581043Y456571D01*
X580977Y456663D01*
X582647Y454992D01*
D02*
G37*
G36*
X130646Y453140D02*
X109146D01*
Y492640D01*
X130646D01*
Y453140D01*
D02*
G37*
G36*
X99150D02*
X77650D01*
Y492640D01*
X99150D01*
Y453140D01*
D02*
G37*
G36*
X334189Y452055D02*
X333954Y451812D01*
X333584Y451376D01*
X333450Y451184D01*
X333348Y451008D01*
X333280Y450849D01*
X333245Y450708D01*
X333244Y450583D01*
X333277Y450475D01*
X333342Y450385D01*
X331684Y452043D01*
X331775Y451977D01*
X331882Y451945D01*
X332007Y451946D01*
X332149Y451981D01*
X332307Y452049D01*
X332483Y452150D01*
X332675Y452285D01*
X332885Y452453D01*
X333354Y452890D01*
X334189Y452055D01*
D02*
G37*
G36*
X29894Y437906D02*
X29888Y437907D01*
X29870Y437907D01*
X29300Y437910D01*
Y439090D01*
X29894Y439094D01*
Y437906D01*
D02*
G37*
G36*
X570375Y430700D02*
X570059Y430696D01*
X569483Y430644D01*
X569222Y430596D01*
X568979Y430534D01*
X568755Y430457D01*
X568549Y430366D01*
X568361Y430260D01*
X568191Y430139D01*
X568039Y430004D01*
X567204Y430839D01*
X567339Y430991D01*
X567460Y431161D01*
X567566Y431349D01*
X567657Y431555D01*
X567734Y431779D01*
X567797Y432022D01*
X567844Y432283D01*
X567877Y432562D01*
X567896Y432859D01*
X567900Y433175D01*
X570375Y430700D01*
D02*
G37*
G36*
X539549Y431792D02*
X539993Y431421D01*
X540211Y431270D01*
X540427Y431143D01*
X540640Y431039D01*
X540851Y430957D01*
X541059Y430899D01*
X541264Y430864D01*
X541467Y430853D01*
Y429672D01*
X541264Y429660D01*
X541059Y429626D01*
X540851Y429567D01*
X540640Y429486D01*
X540427Y429382D01*
X540211Y429254D01*
X539993Y429104D01*
X539772Y428930D01*
X539549Y428733D01*
X539323Y428512D01*
Y432012D01*
X539549Y431792D01*
D02*
G37*
G36*
X425242Y430135D02*
X425099Y429974D01*
X424972Y429789D01*
X424860Y429583D01*
X424763Y429354D01*
X424682Y429102D01*
X424616Y428828D01*
X424566Y428532D01*
X424531Y428213D01*
X424508Y427508D01*
X421780Y430236D01*
X422143Y430240D01*
X422803Y430294D01*
X423100Y430345D01*
X423374Y430410D01*
X423625Y430492D01*
X423854Y430588D01*
X424061Y430700D01*
X424245Y430828D01*
X424407Y430971D01*
X425242Y430135D01*
D02*
G37*
G36*
X244211Y429330D02*
X244656Y428959D01*
X244874Y428808D01*
X245090Y428680D01*
X245303Y428576D01*
X245513Y428495D01*
X245721Y428437D01*
X245926Y428402D01*
X246129Y428391D01*
Y427210D01*
X245926Y427198D01*
X245721Y427163D01*
X245513Y427105D01*
X245303Y427024D01*
X245090Y426920D01*
X244874Y426792D01*
X244656Y426641D01*
X244435Y426467D01*
X244211Y426270D01*
X243985Y426050D01*
Y429550D01*
X244211Y429330D01*
D02*
G37*
G36*
X568815Y423950D02*
X568589Y424170D01*
X568144Y424541D01*
X567926Y424692D01*
X567710Y424820D01*
X567497Y424924D01*
X567287Y425005D01*
X567079Y425063D01*
X566874Y425098D01*
X566671Y425109D01*
Y426291D01*
X566874Y426302D01*
X567079Y426337D01*
X567287Y426395D01*
X567497Y426476D01*
X567710Y426580D01*
X567926Y426708D01*
X568144Y426859D01*
X568365Y427033D01*
X568589Y427230D01*
X568815Y427450D01*
Y423950D01*
D02*
G37*
G36*
X291462Y419771D02*
X291447Y419882D01*
X291401Y419981D01*
X291326Y420069D01*
X291221Y420144D01*
X291086Y420208D01*
X290920Y420261D01*
X290725Y420302D01*
X290499Y420331D01*
X290243Y420348D01*
X289958Y420354D01*
Y421535D01*
X290243Y421541D01*
X290725Y421588D01*
X290920Y421629D01*
X291086Y421681D01*
X291221Y421745D01*
X291326Y421821D01*
X291401Y421909D01*
X291447Y422008D01*
X291462Y422119D01*
Y419771D01*
D02*
G37*
G36*
X556211Y422130D02*
X556656Y421759D01*
X556874Y421608D01*
X557090Y421480D01*
X557303Y421376D01*
X557513Y421295D01*
X557721Y421237D01*
X557927Y421202D01*
X558129Y421191D01*
Y420010D01*
X557927Y419998D01*
X557721Y419963D01*
X557513Y419905D01*
X557303Y419824D01*
X557090Y419720D01*
X556874Y419592D01*
X556656Y419441D01*
X556435Y419267D01*
X556211Y419070D01*
X555985Y418850D01*
Y422350D01*
X556211Y422130D01*
D02*
G37*
G36*
X568811Y420884D02*
X568952Y420769D01*
X569092Y420672D01*
X569232Y420594D01*
X569372Y420533D01*
X569510Y420491D01*
X569648Y420466D01*
X569785Y420460D01*
X569922Y420472D01*
X570058Y420502D01*
X568349Y418793D01*
X568379Y418929D01*
X568391Y419066D01*
X568385Y419203D01*
X568361Y419341D01*
X568318Y419480D01*
X568257Y419619D01*
X568179Y419759D01*
X568082Y419899D01*
X567967Y420041D01*
X567833Y420182D01*
X568669Y421018D01*
X568811Y420884D01*
D02*
G37*
G36*
X582647Y417538D02*
X582555Y417605D01*
X582446Y417638D01*
X582321D01*
X582179Y417605D01*
X582021Y417538D01*
X581845Y417438D01*
X581653Y417304D01*
X581444Y417137D01*
X580977Y416703D01*
X580141Y417538D01*
X580375Y417780D01*
X580743Y418215D01*
X580876Y418407D01*
X580977Y418582D01*
X581043Y418741D01*
X581077Y418883D01*
Y419008D01*
X581043Y419117D01*
X580977Y419209D01*
X582647Y417538D01*
D02*
G37*
G36*
X278591Y417861D02*
X278761Y417740D01*
X278949Y417634D01*
X279155Y417543D01*
X279379Y417466D01*
X279622Y417404D01*
X279883Y417356D01*
X280162Y417322D01*
X280459Y417304D01*
X280775Y417300D01*
X278300Y414825D01*
X278296Y415141D01*
X278244Y415717D01*
X278197Y415978D01*
X278134Y416221D01*
X278057Y416445D01*
X277966Y416651D01*
X277860Y416839D01*
X277739Y417009D01*
X277604Y417161D01*
X278439Y417996D01*
X278591Y417861D01*
D02*
G37*
G36*
X555511Y411830D02*
X555956Y411459D01*
X556174Y411308D01*
X556390Y411180D01*
X556603Y411076D01*
X556813Y410995D01*
X557021Y410937D01*
X557227Y410902D01*
X557429Y410890D01*
Y409710D01*
X557227Y409698D01*
X557021Y409663D01*
X556813Y409605D01*
X556603Y409524D01*
X556390Y409420D01*
X556174Y409292D01*
X555956Y409141D01*
X555735Y408967D01*
X555511Y408770D01*
X555285Y408550D01*
Y412050D01*
X555511Y411830D01*
D02*
G37*
G36*
X151834Y413856D02*
X151995Y411440D01*
X152099Y410784D01*
X152229Y410203D01*
X152385Y409696D01*
X152566Y409265D01*
X152772Y408909D01*
X153004Y408627D01*
X152168Y407791D01*
X151886Y408023D01*
X151530Y408229D01*
X151099Y408410D01*
X150592Y408566D01*
X150011Y408696D01*
X149355Y408800D01*
X147820Y408933D01*
X146940Y408961D01*
X145985Y408964D01*
X151831Y414810D01*
X151834Y413856D01*
D02*
G37*
G36*
X62083Y408892D02*
X60488Y407070D01*
X60099Y406532D01*
X59780Y406030D01*
X59532Y405562D01*
X59355Y405129D01*
X59248Y404731D01*
X59213Y404367D01*
X58032D01*
X57996Y404731D01*
X57890Y405129D01*
X57713Y405562D01*
X57465Y406030D01*
X57146Y406532D01*
X56756Y407070D01*
X55764Y408250D01*
X55162Y408892D01*
X54488Y409569D01*
X62756D01*
X62083Y408892D01*
D02*
G37*
G36*
X548263Y407335D02*
X548091Y407135D01*
X547938Y406895D01*
X547803Y406617D01*
X547687Y406300D01*
X547590Y405944D01*
X547512Y405549D01*
X547452Y405115D01*
X547389Y404131D01*
X547385Y403581D01*
X543673Y407293D01*
X544223Y407297D01*
X545207Y407360D01*
X545641Y407420D01*
X546036Y407498D01*
X546392Y407595D01*
X546709Y407711D01*
X546987Y407845D01*
X547227Y407999D01*
X547427Y408171D01*
X548263Y407335D01*
D02*
G37*
G36*
X537937Y403362D02*
X537989Y402785D01*
X538036Y402524D01*
X538099Y402282D01*
X538176Y402057D01*
X538267Y401851D01*
X538373Y401663D01*
X538494Y401493D01*
X538629Y401342D01*
X537794Y400506D01*
X537642Y400642D01*
X537472Y400762D01*
X537285Y400868D01*
X537078Y400960D01*
X536854Y401037D01*
X536611Y401099D01*
X536350Y401147D01*
X536071Y401180D01*
X535774Y401198D01*
X535458Y401202D01*
X537933Y403677D01*
X537937Y403362D01*
D02*
G37*
G36*
X386432Y402694D02*
X386476Y402462D01*
X386550Y402224D01*
X386654Y401978D01*
X386786Y401726D01*
X386949Y401467D01*
X387141Y401201D01*
X387362Y400929D01*
X387894Y400363D01*
X383760D01*
X384040Y400649D01*
X384513Y401201D01*
X384705Y401467D01*
X384867Y401726D01*
X385000Y401978D01*
X385103Y402224D01*
X385177Y402462D01*
X385222Y402694D01*
X385236Y402919D01*
X386417D01*
X386432Y402694D01*
D02*
G37*
G36*
X569575Y398400D02*
X569259Y398396D01*
X568683Y398344D01*
X568422Y398296D01*
X568179Y398234D01*
X567955Y398157D01*
X567749Y398066D01*
X567561Y397960D01*
X567391Y397839D01*
X567239Y397704D01*
X566404Y398539D01*
X566539Y398691D01*
X566660Y398861D01*
X566766Y399049D01*
X566857Y399255D01*
X566934Y399479D01*
X566996Y399722D01*
X567044Y399983D01*
X567077Y400262D01*
X567096Y400559D01*
X567100Y400875D01*
X569575Y398400D01*
D02*
G37*
G36*
X532097Y397111D02*
X532129Y396914D01*
X532182Y396716D01*
X532256Y396516D01*
X532352Y396315D01*
X532469Y396112D01*
X532607Y395909D01*
X532767Y395704D01*
X532947Y395497D01*
X533149Y395289D01*
X529842D01*
X530044Y395497D01*
X530384Y395909D01*
X530523Y396112D01*
X530640Y396315D01*
X530735Y396516D01*
X530810Y396716D01*
X530863Y396914D01*
X530895Y397111D01*
X530905Y397307D01*
X532086D01*
X532097Y397111D01*
D02*
G37*
G36*
X555611Y392230D02*
X556056Y391859D01*
X556274Y391708D01*
X556490Y391580D01*
X556703Y391476D01*
X556913Y391395D01*
X557121Y391337D01*
X557327Y391302D01*
X557529Y391290D01*
Y390109D01*
X557327Y390098D01*
X557121Y390063D01*
X556913Y390005D01*
X556703Y389924D01*
X556490Y389820D01*
X556274Y389692D01*
X556056Y389541D01*
X555835Y389367D01*
X555611Y389170D01*
X555385Y388950D01*
Y392450D01*
X555611Y392230D01*
D02*
G37*
G36*
X581220Y388337D02*
X581656Y387968D01*
X581848Y387833D01*
X582024Y387731D01*
X582182Y387663D01*
X582324Y387629D01*
X582448Y387628D01*
X582556Y387660D01*
X582647Y387725D01*
X580989Y386067D01*
X581054Y386158D01*
X581086Y386266D01*
X581085Y386390D01*
X581051Y386532D01*
X580983Y386690D01*
X580881Y386866D01*
X580746Y387058D01*
X580578Y387268D01*
X580141Y387737D01*
X580977Y388573D01*
X581220Y388337D01*
D02*
G37*
G36*
X388704Y387037D02*
X388672Y386929D01*
X388673Y386804D01*
X388708Y386663D01*
X388776Y386504D01*
X388877Y386329D01*
X389012Y386136D01*
X389180Y385927D01*
X389617Y385457D01*
X388782Y384622D01*
X388539Y384857D01*
X388103Y385227D01*
X387910Y385362D01*
X387735Y385463D01*
X387576Y385531D01*
X387435Y385566D01*
X387310Y385567D01*
X387202Y385535D01*
X387111Y385469D01*
X388770Y387127D01*
X388704Y387037D01*
D02*
G37*
G36*
X547392Y384435D02*
X547427Y384335D01*
X547487Y384246D01*
X547571Y384169D01*
X547678Y384104D01*
X547809Y384051D01*
X547964Y384010D01*
X548143Y383980D01*
X548346Y383963D01*
X548573Y383957D01*
Y382776D01*
X548346Y382770D01*
X548143Y382752D01*
X547964Y382722D01*
X547809Y382681D01*
X547678Y382628D01*
X547571Y382563D01*
X547487Y382486D01*
X547427Y382398D01*
X547392Y382297D01*
X547380Y382185D01*
Y384547D01*
X547392Y384435D01*
D02*
G37*
G36*
X477583Y393652D02*
X469709Y381841D01*
X469657Y383337D01*
X469503Y384676D01*
X469246Y385857D01*
X468886Y386881D01*
X468423Y387747D01*
X467858Y388456D01*
X467189Y389007D01*
X466418Y389400D01*
X465544Y389637D01*
X464567Y389715D01*
Y397589D01*
X465544Y397668D01*
X466418Y397904D01*
X467189Y398298D01*
X467858Y398849D01*
X468423Y399558D01*
X468886Y400424D01*
X469246Y401448D01*
X469503Y402629D01*
X469657Y403967D01*
X469709Y405463D01*
X477583Y393652D01*
D02*
G37*
G36*
X581063Y375758D02*
X581092Y375920D01*
X581099Y376064D01*
X581086Y376192D01*
X581051Y376303D01*
X580995Y376397D01*
X580919Y376473D01*
X580821Y376533D01*
X580701Y376575D01*
X580561Y376601D01*
X580400Y376609D01*
Y377790D01*
X580734Y377795D01*
X581628Y377864D01*
X581891Y377905D01*
X582361Y378014D01*
X582569Y378082D01*
X582759Y378160D01*
X582932Y378246D01*
X581063Y375758D01*
D02*
G37*
G36*
X511000Y373902D02*
X489500D01*
Y413402D01*
X511000D01*
Y373902D01*
D02*
G37*
G36*
X294597Y371426D02*
X294614Y371218D01*
X294644Y371035D01*
X294685Y370878D01*
X294738Y370746D01*
X294803Y370640D01*
X294880Y370558D01*
X294969Y370502D01*
X295069Y370471D01*
X295181Y370465D01*
X292824Y370327D01*
X292935Y370346D01*
X293034Y370391D01*
X293122Y370460D01*
X293198Y370554D01*
X293263Y370674D01*
X293316Y370818D01*
X293357Y370988D01*
X293386Y371182D01*
X293404Y371402D01*
X293409Y371646D01*
X294590Y371658D01*
X294597Y371426D01*
D02*
G37*
G36*
X581114Y370433D02*
X581358Y370278D01*
X581643Y370141D01*
X581968Y370024D01*
X582333Y369925D01*
X582739Y369846D01*
X583185Y369785D01*
X584198Y369721D01*
X584765Y369718D01*
X580965Y365918D01*
X580961Y366484D01*
X580897Y367497D01*
X580836Y367943D01*
X580757Y368349D01*
X580659Y368714D01*
X580541Y369039D01*
X580405Y369324D01*
X580249Y369568D01*
X580075Y369772D01*
X580910Y370607D01*
X581114Y370433D01*
D02*
G37*
G36*
X441196Y359852D02*
X441184Y359918D01*
X441148Y359976D01*
X441088Y360028D01*
X441005Y360073D01*
X440897Y360111D01*
X440765Y360142D01*
X440610Y360166D01*
X440431Y360183D01*
X440000Y360197D01*
Y361378D01*
X440227Y361381D01*
X440610Y361409D01*
X440765Y361433D01*
X440897Y361464D01*
X441005Y361502D01*
X441088Y361547D01*
X441148Y361599D01*
X441184Y361657D01*
X441196Y361723D01*
Y359852D01*
D02*
G37*
G36*
X424512Y360396D02*
X424566Y359736D01*
X424616Y359440D01*
X424682Y359166D01*
X424763Y358914D01*
X424860Y358685D01*
X424972Y358478D01*
X425099Y358294D01*
X425242Y358132D01*
X424407Y357297D01*
X424245Y357440D01*
X424061Y357568D01*
X423854Y357680D01*
X423625Y357776D01*
X423374Y357857D01*
X423100Y357923D01*
X422803Y357973D01*
X422484Y358008D01*
X421780Y358032D01*
X424508Y360760D01*
X424512Y360396D01*
D02*
G37*
G36*
X441363Y354614D02*
X441348Y354724D01*
X441303Y354824D01*
X441228Y354911D01*
X441122Y354987D01*
X440987Y355051D01*
X440822Y355103D01*
X440626Y355144D01*
X440401Y355173D01*
X440145Y355191D01*
X439859Y355197D01*
Y356378D01*
X440145Y356384D01*
X440626Y356430D01*
X440822Y356471D01*
X440987Y356524D01*
X441122Y356588D01*
X441228Y356664D01*
X441303Y356751D01*
X441348Y356850D01*
X441363Y356961D01*
Y354614D01*
D02*
G37*
G36*
X585400Y351238D02*
X585417Y351035D01*
X585447Y350856D01*
X585488Y350701D01*
X585541Y350570D01*
X585606Y350462D01*
X585683Y350379D01*
X585772Y350319D01*
X585872Y350283D01*
X585984Y350271D01*
X583622D01*
X583734Y350283D01*
X583835Y350319D01*
X583923Y350379D01*
X584000Y350462D01*
X584065Y350570D01*
X584118Y350701D01*
X584160Y350856D01*
X584189Y351035D01*
X584207Y351238D01*
X584213Y351465D01*
X585394D01*
X585400Y351238D01*
D02*
G37*
G36*
X357701Y353491D02*
X357807Y352852D01*
X357983Y352206D01*
X358231Y351551D01*
X358549Y350888D01*
X358938Y350217D01*
X359398Y349538D01*
X359928Y348851D01*
X360529Y348156D01*
X361201Y347453D01*
X357665Y343917D01*
X356962Y344589D01*
X355580Y345721D01*
X354901Y346180D01*
X354230Y346569D01*
X353567Y346887D01*
X352913Y347135D01*
X352266Y347311D01*
X351627Y347418D01*
X350996Y347453D01*
X357665Y354122D01*
X357701Y353491D01*
D02*
G37*
G36*
X582647Y342630D02*
X582555Y342697D01*
X582446Y342730D01*
X582321D01*
X582179Y342697D01*
X582021Y342630D01*
X581845Y342530D01*
X581653Y342396D01*
X581444Y342229D01*
X580977Y341795D01*
X580141Y342630D01*
X580375Y342872D01*
X580743Y343307D01*
X580876Y343499D01*
X580977Y343674D01*
X581043Y343833D01*
X581077Y343975D01*
Y344100D01*
X581043Y344209D01*
X580977Y344301D01*
X582647Y342630D01*
D02*
G37*
G36*
X162066Y339545D02*
X162502Y339175D01*
X162695Y339040D01*
X162870Y338939D01*
X163029Y338871D01*
X163170Y338836D01*
X163295Y338835D01*
X163403Y338867D01*
X163493Y338933D01*
X161835Y337274D01*
X161901Y337365D01*
X161933Y337473D01*
X161932Y337598D01*
X161897Y337739D01*
X161829Y337898D01*
X161728Y338073D01*
X161593Y338266D01*
X161425Y338475D01*
X160988Y338945D01*
X161823Y339780D01*
X162066Y339545D01*
D02*
G37*
G36*
X197476Y340060D02*
X197582Y339662D01*
X197760Y339229D01*
X198008Y338761D01*
X198327Y338258D01*
X198716Y337721D01*
X199708Y336541D01*
X200311Y335899D01*
X200984Y335221D01*
X192716D01*
X193390Y335899D01*
X194984Y337721D01*
X195374Y338258D01*
X195693Y338761D01*
X195941Y339229D01*
X196118Y339662D01*
X196224Y340060D01*
X196260Y340423D01*
X197441D01*
X197476Y340060D01*
D02*
G37*
G36*
X123180Y335723D02*
X123225Y335624D01*
X123300Y335537D01*
X123405Y335461D01*
X123541Y335397D01*
X123706Y335344D01*
X123902Y335303D01*
X124127Y335274D01*
X124383Y335257D01*
X124669Y335251D01*
Y334070D01*
X124383Y334064D01*
X123902Y334017D01*
X123706Y333977D01*
X123541Y333924D01*
X123405Y333860D01*
X123300Y333784D01*
X123225Y333697D01*
X123180Y333597D01*
X123165Y333487D01*
Y335834D01*
X123180Y335723D01*
D02*
G37*
G36*
X531468Y323701D02*
X531105Y323697D01*
X530445Y323643D01*
X530148Y323592D01*
X529874Y323527D01*
X529623Y323445D01*
X529393Y323349D01*
X529187Y323237D01*
X529003Y323109D01*
X528841Y322966D01*
X528006Y323801D01*
X528149Y323963D01*
X528276Y324148D01*
X528388Y324354D01*
X528485Y324584D01*
X528566Y324835D01*
X528631Y325109D01*
X528682Y325405D01*
X528717Y325724D01*
X528740Y326429D01*
X531468Y323701D01*
D02*
G37*
G36*
X587092Y325280D02*
X586421Y324519D01*
X586149Y324161D01*
X585918Y323818D01*
X585729Y323490D01*
X585582Y323177D01*
X585478Y322879D01*
X585415Y322597D01*
X585394Y322329D01*
X584213D01*
X584192Y322597D01*
X584129Y322879D01*
X584024Y323177D01*
X583877Y323490D01*
X583688Y323818D01*
X583458Y324161D01*
X583185Y324519D01*
X582514Y325280D01*
X582116Y325684D01*
X587490D01*
X587092Y325280D01*
D02*
G37*
G36*
X200311Y326109D02*
X198716Y324287D01*
X198327Y323750D01*
X198008Y323247D01*
X197760Y322779D01*
X197582Y322346D01*
X197476Y321948D01*
X197441Y321585D01*
X196260D01*
X196224Y321948D01*
X196118Y322346D01*
X195941Y322779D01*
X195693Y323247D01*
X195374Y323750D01*
X194984Y324287D01*
X193992Y325467D01*
X193390Y326109D01*
X192716Y326787D01*
X200984D01*
X200311Y326109D01*
D02*
G37*
G36*
X442389Y324135D02*
X442573Y324007D01*
X442779Y323895D01*
X443009Y323799D01*
X443260Y323717D01*
X443534Y323652D01*
X443831Y323601D01*
X444149Y323567D01*
X444854Y323543D01*
X442126Y320815D01*
X442122Y321179D01*
X442068Y321839D01*
X442018Y322135D01*
X441952Y322409D01*
X441871Y322660D01*
X441774Y322890D01*
X441662Y323096D01*
X441535Y323281D01*
X441392Y323443D01*
X442227Y324278D01*
X442389Y324135D01*
D02*
G37*
G36*
X389317Y323443D02*
X389174Y323281D01*
X389047Y323096D01*
X388935Y322890D01*
X388838Y322660D01*
X388757Y322409D01*
X388691Y322135D01*
X388641Y321839D01*
X388606Y321520D01*
X388583Y320815D01*
X385854Y323543D01*
X386218Y323547D01*
X386878Y323601D01*
X387174Y323652D01*
X387448Y323717D01*
X387700Y323799D01*
X387929Y323895D01*
X388136Y324007D01*
X388320Y324135D01*
X388482Y324278D01*
X389317Y323443D01*
D02*
G37*
G36*
X333862Y322720D02*
X333918Y321995D01*
X333970Y321672D01*
X334039Y321374D01*
X334123Y321101D01*
X334224Y320855D01*
X334340Y320634D01*
X334473Y320438D01*
X334622Y320269D01*
X333787Y319433D01*
X333617Y319582D01*
X333421Y319715D01*
X333201Y319832D01*
X332954Y319932D01*
X332682Y320017D01*
X332384Y320085D01*
X332060Y320137D01*
X331711Y320173D01*
X330935Y320197D01*
X333858Y323120D01*
X333862Y322720D01*
D02*
G37*
G36*
X424512Y320396D02*
X424566Y319736D01*
X424616Y319440D01*
X424682Y319166D01*
X424763Y318914D01*
X424860Y318685D01*
X424972Y318478D01*
X425099Y318294D01*
X425242Y318132D01*
X424407Y317297D01*
X424245Y317440D01*
X424061Y317567D01*
X423854Y317680D01*
X423625Y317776D01*
X423374Y317857D01*
X423100Y317923D01*
X422803Y317973D01*
X422484Y318008D01*
X421780Y318032D01*
X424508Y320760D01*
X424512Y320396D01*
D02*
G37*
G36*
X388586D02*
X388641Y319736D01*
X388691Y319440D01*
X388757Y319166D01*
X388838Y318914D01*
X388935Y318685D01*
X389047Y318478D01*
X389174Y318294D01*
X389317Y318132D01*
X388482Y317297D01*
X388320Y317440D01*
X388136Y317567D01*
X387929Y317680D01*
X387700Y317776D01*
X387448Y317857D01*
X387174Y317923D01*
X386878Y317973D01*
X386559Y318008D01*
X385854Y318032D01*
X388583Y320760D01*
X388586Y320396D01*
D02*
G37*
G36*
X62771Y304062D02*
X62622Y303892D01*
X62490Y303697D01*
X62373Y303476D01*
X62273Y303229D01*
X62188Y302957D01*
X62120Y302659D01*
X62068Y302336D01*
X62032Y301986D01*
X62008Y301211D01*
X59084Y304134D01*
X59485Y304138D01*
X60209Y304194D01*
X60533Y304246D01*
X60831Y304314D01*
X61103Y304399D01*
X61350Y304499D01*
X61571Y304616D01*
X61766Y304749D01*
X61936Y304897D01*
X62771Y304062D01*
D02*
G37*
G36*
X123180Y301713D02*
X123225Y301613D01*
X123300Y301526D01*
X123405Y301450D01*
X123541Y301386D01*
X123706Y301333D01*
X123902Y301293D01*
X124127Y301263D01*
X124383Y301246D01*
X124669Y301240D01*
Y300059D01*
X124383Y300053D01*
X123902Y300007D01*
X123706Y299966D01*
X123541Y299913D01*
X123405Y299849D01*
X123300Y299773D01*
X123225Y299686D01*
X123180Y299587D01*
X123165Y299476D01*
Y301823D01*
X123180Y301713D01*
D02*
G37*
G36*
X575793Y299781D02*
X575811Y299578D01*
X575841Y299399D01*
X575882Y299244D01*
X575935Y299113D01*
X576000Y299006D01*
X576077Y298922D01*
X576165Y298862D01*
X576266Y298827D01*
X576378Y298815D01*
X574016D01*
X574128Y298827D01*
X574228Y298862D01*
X574317Y298922D01*
X574394Y299006D01*
X574459Y299113D01*
X574512Y299244D01*
X574553Y299399D01*
X574583Y299578D01*
X574600Y299781D01*
X574606Y300008D01*
X575787D01*
X575793Y299781D01*
D02*
G37*
G36*
X203928Y299838D02*
X203697Y299556D01*
X203490Y299200D01*
X203309Y298768D01*
X203154Y298262D01*
X203024Y297681D01*
X202919Y297025D01*
X202787Y295489D01*
X202758Y294609D01*
X202756Y293654D01*
X196909Y299501D01*
X197864Y299503D01*
X200280Y299664D01*
X200936Y299769D01*
X201517Y299899D01*
X202023Y300054D01*
X202455Y300235D01*
X202811Y300442D01*
X203093Y300673D01*
X203928Y299838D01*
D02*
G37*
G36*
X100539Y291917D02*
X100433Y291775D01*
X100366Y291649D01*
X100340Y291541D01*
X100355Y291449D01*
X100410Y291374D01*
X100505Y291315D01*
X100640Y291274D01*
X100816Y291248D01*
X101032Y291240D01*
X98425Y290059D01*
X97000Y291240D01*
X97232Y291248D01*
X97458Y291274D01*
X97677Y291315D01*
X97889Y291374D01*
X98094Y291449D01*
X98292Y291541D01*
X98484Y291649D01*
X98668Y291775D01*
X98845Y291917D01*
X99016Y292075D01*
X100686D01*
X100539Y291917D01*
D02*
G37*
G36*
X115733Y289469D02*
X115721Y289581D01*
X115685Y289681D01*
X115626Y289770D01*
X115542Y289846D01*
X115435Y289911D01*
X115304Y289965D01*
X115148Y290006D01*
X114969Y290035D01*
X114767Y290053D01*
X114540Y290059D01*
Y291240D01*
X114767Y291246D01*
X114969Y291264D01*
X115148Y291293D01*
X115304Y291335D01*
X115435Y291388D01*
X115542Y291453D01*
X115626Y291529D01*
X115685Y291618D01*
X115721Y291719D01*
X115733Y291831D01*
Y289469D01*
D02*
G37*
G36*
X580020Y290626D02*
X579986Y290517D01*
Y290392D01*
X580020Y290250D01*
X580086Y290091D01*
X580187Y289916D01*
X580320Y289724D01*
X580487Y289515D01*
X580922Y289047D01*
X580086Y288212D01*
X579844Y288446D01*
X579410Y288814D01*
X579218Y288947D01*
X579042Y289047D01*
X578884Y289114D01*
X578742Y289148D01*
X578617D01*
X578508Y289114D01*
X578416Y289047D01*
X580086Y290718D01*
X580020Y290626D01*
D02*
G37*
G36*
X168086Y288530D02*
X167937Y288361D01*
X167805Y288165D01*
X167688Y287945D01*
X167587Y287698D01*
X167503Y287426D01*
X167435Y287128D01*
X167383Y286804D01*
X167347Y286455D01*
X167323Y285679D01*
X164400Y288602D01*
X164800Y288606D01*
X165524Y288662D01*
X165848Y288714D01*
X166146Y288783D01*
X166418Y288867D01*
X166665Y288968D01*
X166886Y289084D01*
X167081Y289217D01*
X167251Y289366D01*
X168086Y288530D01*
D02*
G37*
G36*
X354942Y288663D02*
X355005Y288381D01*
X355110Y288083D01*
X355257Y287770D01*
X355446Y287442D01*
X355676Y287099D01*
X355949Y286741D01*
X356620Y285979D01*
X357018Y285576D01*
X351644D01*
X352042Y285979D01*
X352713Y286741D01*
X352986Y287099D01*
X353216Y287442D01*
X353405Y287770D01*
X353552Y288083D01*
X353656Y288381D01*
X353719Y288663D01*
X353740Y288931D01*
X354921D01*
X354942Y288663D01*
D02*
G37*
G36*
X534986Y287143D02*
X534843Y286981D01*
X534716Y286797D01*
X534604Y286591D01*
X534507Y286361D01*
X534426Y286110D01*
X534360Y285836D01*
X534310Y285539D01*
X534275Y285221D01*
X534252Y284516D01*
X531523Y287244D01*
X531887Y287248D01*
X532547Y287302D01*
X532843Y287352D01*
X533117Y287418D01*
X533369Y287499D01*
X533598Y287596D01*
X533805Y287708D01*
X533989Y287836D01*
X534151Y287979D01*
X534986Y287143D01*
D02*
G37*
G36*
X280715Y279350D02*
X280489Y279570D01*
X280044Y279941D01*
X279826Y280092D01*
X279610Y280220D01*
X279397Y280324D01*
X279187Y280405D01*
X278979Y280463D01*
X278773Y280498D01*
X278571Y280509D01*
Y281691D01*
X278773Y281702D01*
X278979Y281737D01*
X279187Y281795D01*
X279397Y281876D01*
X279610Y281980D01*
X279826Y282108D01*
X280044Y282259D01*
X280265Y282433D01*
X280489Y282630D01*
X280715Y282850D01*
Y279350D01*
D02*
G37*
G36*
X424789Y276690D02*
X424658Y276544D01*
X424541Y276382D01*
X424439Y276204D01*
X424350Y276010D01*
X424275Y275801D01*
X424215Y275575D01*
X424169Y275333D01*
X424136Y275075D01*
X424118Y274801D01*
X424114Y274512D01*
X421776Y276850D01*
X422065Y276854D01*
X422597Y276905D01*
X422839Y276951D01*
X423064Y277012D01*
X423274Y277086D01*
X423468Y277175D01*
X423646Y277277D01*
X423808Y277394D01*
X423954Y277525D01*
X424789Y276690D01*
D02*
G37*
G36*
X571696Y274698D02*
X571929Y274849D01*
X572415Y275266D01*
Y269695D01*
X571929Y270112D01*
X571696Y270262D01*
Y269049D01*
X571152Y269589D01*
X569671Y270867D01*
X569228Y271180D01*
X568909Y271375D01*
X568125Y271539D01*
X567089Y271692D01*
X564742Y271868D01*
X563430Y271890D01*
Y273071D01*
X564742Y273093D01*
X567089Y273269D01*
X568125Y273422D01*
X568909Y273586D01*
X569228Y273781D01*
X569671Y274094D01*
X570139Y274463D01*
X571152Y275372D01*
X571696Y275911D01*
Y274698D01*
D02*
G37*
G36*
X442184Y266572D02*
X442620Y266203D01*
X442812Y266068D01*
X442988Y265966D01*
X443147Y265898D01*
X443288Y265864D01*
X443413Y265862D01*
X443521Y265895D01*
X443611Y265960D01*
X441953Y264302D01*
X442019Y264393D01*
X442051Y264500D01*
X442050Y264625D01*
X442015Y264767D01*
X441947Y264925D01*
X441846Y265101D01*
X441711Y265293D01*
X441543Y265503D01*
X441106Y265972D01*
X441941Y266808D01*
X442184Y266572D01*
D02*
G37*
G36*
X423204Y262594D02*
X422863Y262182D01*
X422725Y261978D01*
X422608Y261776D01*
X422513Y261575D01*
X422438Y261375D01*
X422385Y261177D01*
X422353Y260980D01*
X422343Y260784D01*
X421161D01*
X421151Y260980D01*
X421119Y261177D01*
X421066Y261375D01*
X420991Y261575D01*
X420896Y261776D01*
X420779Y261978D01*
X420641Y262182D01*
X420481Y262387D01*
X420300Y262594D01*
X420098Y262801D01*
X423406D01*
X423204Y262594D01*
D02*
G37*
G36*
X358143Y262029D02*
X358151Y261978D01*
X358180Y261912D01*
X358231Y261828D01*
X358304Y261728D01*
X358514Y261478D01*
X358811Y261160D01*
X358993Y260977D01*
X358157Y260141D01*
X357974Y260323D01*
X357306Y260903D01*
X357222Y260954D01*
X357156Y260983D01*
X357105Y260991D01*
X357072Y260977D01*
X358157Y262062D01*
X358143Y262029D01*
D02*
G37*
G36*
X171143Y249274D02*
X170917Y249494D01*
X170473Y249865D01*
X170255Y250016D01*
X170039Y250143D01*
X169826Y250248D01*
X169615Y250329D01*
X169407Y250387D01*
X169202Y250422D01*
X168999Y250433D01*
Y251614D01*
X169202Y251626D01*
X169407Y251660D01*
X169615Y251718D01*
X169826Y251800D01*
X170039Y251904D01*
X170255Y252032D01*
X170473Y252182D01*
X170694Y252356D01*
X170917Y252553D01*
X171143Y252774D01*
Y249274D01*
D02*
G37*
G36*
X571696Y247592D02*
X571399Y247870D01*
X571080Y248119D01*
X570741Y248338D01*
X570379Y248529D01*
X569997Y248689D01*
X569594Y248821D01*
X569169Y248923D01*
X568723Y248997D01*
X568256Y249041D01*
X567767Y249055D01*
Y252992D01*
X568256Y253007D01*
X568723Y253051D01*
X569169Y253124D01*
X569594Y253226D01*
X569997Y253358D01*
X570379Y253519D01*
X570741Y253709D01*
X571080Y253928D01*
X571399Y254177D01*
X571696Y254455D01*
Y247592D01*
D02*
G37*
G36*
X534986Y247143D02*
X534843Y246981D01*
X534716Y246797D01*
X534604Y246590D01*
X534507Y246361D01*
X534426Y246110D01*
X534360Y245836D01*
X534310Y245539D01*
X534275Y245221D01*
X534252Y244516D01*
X531523Y247244D01*
X531887Y247248D01*
X532547Y247302D01*
X532843Y247353D01*
X533117Y247418D01*
X533369Y247499D01*
X533598Y247596D01*
X533805Y247708D01*
X533989Y247835D01*
X534151Y247978D01*
X534986Y247143D01*
D02*
G37*
G36*
X445487Y237471D02*
X445531Y237239D01*
X445605Y237001D01*
X445709Y236755D01*
X445841Y236503D01*
X446004Y236244D01*
X446196Y235978D01*
X446417Y235706D01*
X446949Y235140D01*
X442815D01*
X443095Y235426D01*
X443568Y235978D01*
X443760Y236244D01*
X443922Y236503D01*
X444055Y236755D01*
X444158Y237001D01*
X444232Y237239D01*
X444277Y237471D01*
X444291Y237696D01*
X445472D01*
X445487Y237471D01*
D02*
G37*
G36*
X422348Y229879D02*
X422366Y229677D01*
X422396Y229498D01*
X422437Y229343D01*
X422490Y229211D01*
X422555Y229104D01*
X422632Y229020D01*
X422720Y228961D01*
X422821Y228925D01*
X422933Y228913D01*
X420571D01*
X420683Y228925D01*
X420784Y228961D01*
X420872Y229020D01*
X420949Y229104D01*
X421014Y229211D01*
X421067Y229343D01*
X421108Y229498D01*
X421138Y229677D01*
X421156Y229879D01*
X421161Y230106D01*
X422343D01*
X422348Y229879D01*
D02*
G37*
G36*
X66816Y231981D02*
X66403Y231546D01*
X66035Y231107D01*
X65710Y230667D01*
X65429Y230224D01*
X65191Y229779D01*
X64998Y229332D01*
X64849Y228882D01*
X64744Y228430D01*
X64682Y227976D01*
X64665Y227520D01*
X58819Y233366D01*
X59275Y233383D01*
X59729Y233444D01*
X60181Y233550D01*
X60631Y233699D01*
X61078Y233892D01*
X61523Y234129D01*
X61966Y234410D01*
X62406Y234735D01*
X62845Y235104D01*
X63281Y235517D01*
X66816Y231981D01*
D02*
G37*
G36*
X497244Y225280D02*
X488976D01*
X489014Y225352D01*
X489047Y225491D01*
X489077Y225697D01*
X489124Y226309D01*
X489171Y228334D01*
X489173Y229008D01*
X497047D01*
X497244Y225280D01*
D02*
G37*
G36*
X121585Y224508D02*
X121184Y224504D01*
X120460Y224448D01*
X120136Y224396D01*
X119838Y224327D01*
X119566Y224243D01*
X119319Y224143D01*
X119098Y224026D01*
X118903Y223893D01*
X118734Y223745D01*
X117898Y224580D01*
X118047Y224749D01*
X118180Y224945D01*
X118296Y225166D01*
X118397Y225412D01*
X118481Y225685D01*
X118550Y225983D01*
X118602Y226306D01*
X118638Y226656D01*
X118662Y227431D01*
X121585Y224508D01*
D02*
G37*
G36*
X22046Y231274D02*
X22196Y230999D01*
X22446Y230755D01*
X22796Y230544D01*
X23246Y230366D01*
X23796Y230220D01*
X24446Y230107D01*
X25196Y230026D01*
X26996Y229961D01*
Y224961D01*
X26046Y224944D01*
X24446Y224815D01*
X23796Y224701D01*
X23246Y224555D01*
X22796Y224377D01*
X22446Y224166D01*
X22196Y223923D01*
X22046Y223647D01*
X21996Y223339D01*
Y231582D01*
X22046Y231274D01*
D02*
G37*
G36*
X54542Y223327D02*
X54207Y223637D01*
X53843Y223915D01*
X53449Y224160D01*
X53026Y224372D01*
X52573Y224552D01*
X52090Y224699D01*
X51578Y224814D01*
X51037Y224895D01*
X50467Y224944D01*
X49866Y224961D01*
Y229961D01*
X50467Y229977D01*
X51037Y230026D01*
X51578Y230108D01*
X52090Y230222D01*
X52573Y230369D01*
X53026Y230549D01*
X53449Y230761D01*
X53843Y231006D01*
X54207Y231284D01*
X54542Y231594D01*
Y223327D01*
D02*
G37*
G36*
X424626Y224622D02*
X424592Y224513D01*
Y224388D01*
X424626Y224246D01*
X424693Y224087D01*
X424793Y223912D01*
X424927Y223720D01*
X425094Y223511D01*
X425528Y223043D01*
X424693Y222208D01*
X424451Y222442D01*
X424016Y222810D01*
X423824Y222943D01*
X423649Y223043D01*
X423490Y223110D01*
X423348Y223144D01*
X423223D01*
X423114Y223110D01*
X423022Y223043D01*
X424693Y224714D01*
X424626Y224622D01*
D02*
G37*
G36*
X247515Y225484D02*
X245251Y220814D01*
X245209Y220877D01*
X245124Y220932D01*
X244996Y220981D01*
X244826Y221024D01*
X244613Y221060D01*
X244358Y221089D01*
X243720Y221129D01*
X242911Y221142D01*
X243213Y226142D01*
X247515Y225484D01*
D02*
G37*
G36*
X208459Y226499D02*
X208610Y226424D01*
X208859Y226358D01*
X209209Y226300D01*
X209660Y226252D01*
X211610Y226159D01*
X213409Y226142D01*
Y221142D01*
X212459Y221137D01*
X208859Y220926D01*
X208610Y220860D01*
X208459Y220785D01*
X208410Y220701D01*
Y226582D01*
X208459Y226499D01*
D02*
G37*
G36*
X202528Y220701D02*
X202478Y220785D01*
X202328Y220860D01*
X202078Y220926D01*
X201728Y220983D01*
X201278Y221032D01*
X199328Y221124D01*
X197528Y221142D01*
Y226142D01*
X198478Y226146D01*
X202078Y226358D01*
X202328Y226424D01*
X202478Y226499D01*
X202528Y226582D01*
Y220701D01*
D02*
G37*
G36*
X334462Y219650D02*
X334525Y218666D01*
X334585Y218232D01*
X334664Y217837D01*
X334761Y217481D01*
X334876Y217164D01*
X335011Y216886D01*
X335164Y216646D01*
X335336Y216446D01*
X334501Y215611D01*
X334300Y215782D01*
X334061Y215936D01*
X333782Y216070D01*
X333465Y216186D01*
X333109Y216283D01*
X332714Y216361D01*
X332280Y216421D01*
X331296Y216484D01*
X330746Y216488D01*
X334458Y220200D01*
X334462Y219650D01*
D02*
G37*
G36*
X91650Y215833D02*
X91685Y215732D01*
X91744Y215644D01*
X91827Y215567D01*
X91933Y215502D01*
X92063Y215449D01*
X92217Y215407D01*
X92394Y215378D01*
X92595Y215360D01*
X92819Y215354D01*
Y214173D01*
X92595Y214167D01*
X92394Y214150D01*
X92217Y214120D01*
X92063Y214079D01*
X91933Y214026D01*
X91827Y213961D01*
X91744Y213884D01*
X91685Y213795D01*
X91650Y213695D01*
X91638Y213583D01*
Y215945D01*
X91650Y215833D01*
D02*
G37*
G36*
X531466Y213543D02*
X531428Y213531D01*
X531367Y213494D01*
X531284Y213432D01*
X531051Y213232D01*
X530318Y212532D01*
X530079Y212295D01*
X527295Y215079D01*
X528543Y216466D01*
X531466Y213543D01*
D02*
G37*
G36*
X285406Y213495D02*
X287082Y212069D01*
X287581Y211720D01*
X287841Y211561D01*
X287846Y211560D01*
X288144Y211492D01*
X288468Y211439D01*
X288817Y211403D01*
X289593Y211379D01*
X289193Y210980D01*
X289276Y210959D01*
X289624Y210927D01*
X287122Y208425D01*
X287090Y208774D01*
X287070Y208856D01*
X286670Y208456D01*
X286666Y208857D01*
X286610Y209581D01*
X286558Y209905D01*
X286489Y210203D01*
X286488Y210208D01*
X286329Y210468D01*
X285980Y210967D01*
X285093Y212055D01*
X284554Y212644D01*
X283951Y213263D01*
X284787Y214098D01*
X285406Y213495D01*
D02*
G37*
G36*
X86383Y202995D02*
X86114Y203219D01*
X85779Y203419D01*
X85378Y203596D01*
X84911Y203749D01*
X84904Y203751D01*
Y203588D01*
X84890Y203699D01*
X84865Y203760D01*
X84378Y203879D01*
X83778Y203985D01*
X82382Y204126D01*
X81584Y204162D01*
X80721Y204173D01*
Y205354D01*
X81584Y205366D01*
X83778Y205543D01*
X84378Y205649D01*
X84865Y205767D01*
X84890Y205828D01*
X84904Y205939D01*
Y205777D01*
X84911Y205779D01*
X85378Y205932D01*
X85779Y206108D01*
X86114Y206309D01*
X86383Y206533D01*
Y202995D01*
D02*
G37*
G36*
X327523Y207308D02*
X328120Y206810D01*
X328745Y206351D01*
X329397Y205932D01*
X330076Y205551D01*
X330783Y205210D01*
X331517Y204908D01*
X332278Y204645D01*
X333066Y204422D01*
X333882Y204237D01*
X327024Y197379D01*
X326840Y198195D01*
X326616Y198984D01*
X326353Y199745D01*
X326051Y200479D01*
X325710Y201185D01*
X325330Y201865D01*
X324910Y202517D01*
X324452Y203141D01*
X323954Y203739D01*
X323417Y204309D01*
X326953Y207844D01*
X327523Y207308D01*
D02*
G37*
G36*
X580020Y195724D02*
X579986Y195616D01*
Y195490D01*
X580020Y195349D01*
X580086Y195190D01*
X580187Y195014D01*
X580320Y194822D01*
X580487Y194614D01*
X580922Y194146D01*
X580086Y193311D01*
X579844Y193544D01*
X579410Y193912D01*
X579218Y194046D01*
X579042Y194146D01*
X578884Y194213D01*
X578742Y194246D01*
X578617D01*
X578508Y194213D01*
X578416Y194146D01*
X580086Y195816D01*
X580020Y195724D01*
D02*
G37*
G36*
X424709Y195554D02*
X424765Y194830D01*
X424817Y194506D01*
X424885Y194208D01*
X424969Y193936D01*
X425070Y193689D01*
X425187Y193468D01*
X425319Y193273D01*
X425468Y193103D01*
X424633Y192268D01*
X424463Y192417D01*
X424268Y192550D01*
X424047Y192666D01*
X423800Y192767D01*
X423528Y192851D01*
X423230Y192919D01*
X422906Y192972D01*
X422557Y193008D01*
X421781Y193032D01*
X424705Y195955D01*
X424709Y195554D01*
D02*
G37*
G36*
X517548Y199764D02*
X517019Y199196D01*
X516546Y198604D01*
X516128Y197990D01*
X515766Y197352D01*
X515460Y196692D01*
X515209Y196008D01*
X515015Y195301D01*
X514875Y194572D01*
X514792Y193819D01*
X514764Y193043D01*
X510827Y191358D01*
X510777Y192106D01*
X510627Y192776D01*
X510377Y193366D01*
X510027Y193878D01*
X509577Y194311D01*
X509027Y194666D01*
X508377Y194941D01*
X507627Y195138D01*
X506777Y195256D01*
X505827Y195295D01*
X507512Y200295D01*
X508489Y200323D01*
X509423Y200407D01*
X510312Y200546D01*
X511157Y200741D01*
X511958Y200991D01*
X512714Y201298D01*
X513426Y201659D01*
X514093Y202077D01*
X514716Y202550D01*
X515295Y203079D01*
X517548Y199764D01*
D02*
G37*
G36*
X530796Y193661D02*
X530661Y193509D01*
X530540Y193339D01*
X530434Y193151D01*
X530343Y192945D01*
X530266Y192721D01*
X530203Y192478D01*
X530156Y192217D01*
X530123Y191938D01*
X530104Y191641D01*
X530100Y191325D01*
X527625Y193800D01*
X527941Y193804D01*
X528517Y193856D01*
X528778Y193904D01*
X529021Y193966D01*
X529245Y194043D01*
X529451Y194134D01*
X529639Y194240D01*
X529809Y194361D01*
X529961Y194496D01*
X530796Y193661D01*
D02*
G37*
G36*
X22046Y190900D02*
X22196Y190625D01*
X22446Y190381D01*
X22796Y190171D01*
X23246Y189992D01*
X23796Y189846D01*
X24446Y189733D01*
X25196Y189652D01*
X26996Y189587D01*
Y184587D01*
X26046Y184570D01*
X24446Y184441D01*
X23796Y184327D01*
X23246Y184181D01*
X22796Y184003D01*
X22446Y183792D01*
X22196Y183549D01*
X22046Y183273D01*
X21996Y182965D01*
Y191209D01*
X22046Y190900D01*
D02*
G37*
G36*
X65838Y193329D02*
X65606Y193047D01*
X65400Y192691D01*
X65219Y192260D01*
X65063Y191753D01*
X64933Y191172D01*
X64829Y190516D01*
X64789Y190058D01*
X64947Y189995D01*
X65429Y189848D01*
X65941Y189734D01*
X66482Y189652D01*
X67053Y189603D01*
X67653Y189587D01*
Y184587D01*
X67053Y184570D01*
X66482Y184521D01*
X65941Y184440D01*
X65429Y184325D01*
X64947Y184178D01*
X64494Y183998D01*
X64071Y183786D01*
X63677Y183541D01*
X63312Y183263D01*
X62977Y182953D01*
Y188833D01*
X62312Y189499D01*
X62053Y189128D01*
X61768Y188659D01*
X61546Y188221D01*
X61387Y187812D01*
X61292Y187434D01*
X61260Y187085D01*
X58758Y189587D01*
X59107Y189619D01*
X59485Y189714D01*
X59894Y189872D01*
X60333Y190094D01*
X60801Y190380D01*
X61172Y190639D01*
X58819Y192992D01*
X59774Y192995D01*
X62190Y193156D01*
X62845Y193260D01*
X63427Y193390D01*
X63933Y193546D01*
X64364Y193727D01*
X64721Y193933D01*
X65003Y194165D01*
X65838Y193329D01*
D02*
G37*
G36*
X54542Y182953D02*
X54207Y183263D01*
X53843Y183541D01*
X53449Y183786D01*
X53026Y183998D01*
X52573Y184178D01*
X52090Y184325D01*
X51578Y184440D01*
X51037Y184521D01*
X50467Y184570D01*
X49866Y184587D01*
Y189587D01*
X50467Y189603D01*
X51037Y189652D01*
X51578Y189734D01*
X52090Y189848D01*
X52573Y189995D01*
X53026Y190175D01*
X53449Y190387D01*
X53843Y190632D01*
X54207Y190910D01*
X54542Y191220D01*
Y182953D01*
D02*
G37*
G36*
X357821Y180608D02*
X357678Y180446D01*
X357551Y180262D01*
X357439Y180055D01*
X357342Y179826D01*
X357261Y179574D01*
X357195Y179300D01*
X357145Y179004D01*
X357110Y178685D01*
X357087Y177980D01*
X354358Y180709D01*
X354722Y180712D01*
X355382Y180767D01*
X355678Y180817D01*
X355952Y180883D01*
X356204Y180964D01*
X356433Y181061D01*
X356640Y181173D01*
X356824Y181300D01*
X356986Y181443D01*
X357821Y180608D01*
D02*
G37*
G36*
X419696Y180859D02*
X419858Y180742D01*
X420036Y180639D01*
X420230Y180551D01*
X420440Y180476D01*
X420665Y180416D01*
X420907Y180369D01*
X421165Y180337D01*
X421439Y180319D01*
X421728Y180315D01*
X419390Y177976D01*
X419386Y178266D01*
X419335Y178798D01*
X419289Y179039D01*
X419229Y179265D01*
X419154Y179475D01*
X419065Y179669D01*
X418963Y179847D01*
X418846Y180009D01*
X418715Y180155D01*
X419550Y180990D01*
X419696Y180859D01*
D02*
G37*
G36*
X571696Y174148D02*
X571399Y174426D01*
X571080Y174674D01*
X570741Y174894D01*
X570379Y175084D01*
X569997Y175245D01*
X569594Y175376D01*
X569169Y175479D01*
X568723Y175552D01*
X568256Y175596D01*
X567767Y175610D01*
Y179547D01*
X568256Y179562D01*
X568723Y179606D01*
X569169Y179679D01*
X569594Y179781D01*
X569997Y179913D01*
X570379Y180074D01*
X570741Y180264D01*
X571080Y180483D01*
X571399Y180732D01*
X571696Y181010D01*
Y174148D01*
D02*
G37*
G36*
X356006Y175725D02*
X355577Y175220D01*
X355403Y174975D01*
X355256Y174734D01*
X355135Y174499D01*
X355042Y174269D01*
X354975Y174043D01*
X354935Y173823D01*
X354921Y173607D01*
X353740D01*
X353727Y173823D01*
X353687Y174043D01*
X353620Y174269D01*
X353526Y174499D01*
X353406Y174734D01*
X353258Y174975D01*
X353084Y175220D01*
X352884Y175470D01*
X352402Y175985D01*
X356260D01*
X356006Y175725D01*
D02*
G37*
G36*
X335282Y163187D02*
X335051Y162948D01*
X334690Y162520D01*
X334559Y162330D01*
X334460Y162157D01*
X334395Y162000D01*
X334363Y161859D01*
X334364Y161734D01*
X334398Y161627D01*
X334465Y161535D01*
X332794Y163205D01*
X332886Y163138D01*
X332994Y163104D01*
X333119Y163103D01*
X333259Y163135D01*
X333416Y163201D01*
X333590Y163299D01*
X333779Y163430D01*
X333985Y163594D01*
X334208Y163792D01*
X334447Y164022D01*
X335282Y163187D01*
D02*
G37*
G36*
X293852Y165214D02*
X293818Y165105D01*
Y164980D01*
X293852Y164838D01*
X293918Y164680D01*
X294019Y164504D01*
X294152Y164312D01*
X294319Y164103D01*
X294754Y163636D01*
X293918Y162800D01*
X293676Y163034D01*
X293242Y163402D01*
X293050Y163535D01*
X292875Y163636D01*
X292716Y163702D01*
X292574Y163736D01*
X292449D01*
X292340Y163702D01*
X292248Y163636D01*
X293918Y165306D01*
X293852Y165214D01*
D02*
G37*
G36*
X354957Y166536D02*
X355063Y166138D01*
X355240Y165705D01*
X355488Y165237D01*
X355807Y164735D01*
X356197Y164197D01*
X357189Y163017D01*
X357791Y162375D01*
X358465Y161698D01*
X350197D01*
X350870Y162375D01*
X352465Y164197D01*
X352854Y164735D01*
X353173Y165237D01*
X353421Y165705D01*
X353598Y166138D01*
X353705Y166536D01*
X353740Y166900D01*
X354921D01*
X354957Y166536D01*
D02*
G37*
G36*
X424789Y160155D02*
X424658Y160009D01*
X424541Y159847D01*
X424439Y159669D01*
X424350Y159475D01*
X424275Y159265D01*
X424215Y159039D01*
X424169Y158798D01*
X424136Y158540D01*
X424118Y158266D01*
X424114Y157976D01*
X421776Y160315D01*
X422065Y160319D01*
X422597Y160369D01*
X422839Y160416D01*
X423064Y160476D01*
X423274Y160551D01*
X423468Y160639D01*
X423646Y160742D01*
X423808Y160859D01*
X423954Y160990D01*
X424789Y160155D01*
D02*
G37*
G36*
X535697Y157913D02*
X534449Y156526D01*
X531526Y159449D01*
X531564Y159461D01*
X531625Y159498D01*
X531708Y159560D01*
X531941Y159760D01*
X532674Y160459D01*
X532913Y160697D01*
X535697Y157913D01*
D02*
G37*
G36*
X494785Y154268D02*
X494357Y153763D01*
X494183Y153518D01*
X494035Y153278D01*
X493915Y153042D01*
X493821Y152812D01*
X493754Y152586D01*
X493714Y152366D01*
X493701Y152151D01*
X492520D01*
X492506Y152366D01*
X492466Y152586D01*
X492399Y152812D01*
X492306Y153042D01*
X492185Y153278D01*
X492038Y153518D01*
X491864Y153763D01*
X491663Y154013D01*
X491181Y154528D01*
X495039D01*
X494785Y154268D01*
D02*
G37*
G36*
X63049Y150789D02*
X63188Y150756D01*
X63394Y150726D01*
X64006Y150679D01*
X66031Y150632D01*
X66705Y150630D01*
Y147751D01*
X66985Y147602D01*
X67374Y147443D01*
X69215Y147306D01*
X70526Y147283D01*
Y146102D01*
X69215Y146081D01*
X67374Y145943D01*
X66985Y145783D01*
X66705Y145635D01*
Y142756D01*
X62977Y142559D01*
Y144881D01*
X62605Y144698D01*
X62027Y144324D01*
X61542Y143907D01*
Y149479D01*
X62027Y149062D01*
X62605Y148688D01*
X62977Y148505D01*
Y150827D01*
X63049Y150789D01*
D02*
G37*
G36*
X82455Y143907D02*
X81969Y144324D01*
X81392Y144698D01*
X80723Y145027D01*
X79962Y145312D01*
X79110Y145554D01*
X78165Y145751D01*
X77129Y145905D01*
X74782Y146081D01*
X73470Y146102D01*
Y147283D01*
X74782Y147306D01*
X77129Y147481D01*
X78165Y147635D01*
X79110Y147832D01*
X79962Y148074D01*
X80723Y148359D01*
X81392Y148688D01*
X81969Y149062D01*
X82455Y149479D01*
Y143907D01*
D02*
G37*
G36*
X88295Y149269D02*
X89770Y147896D01*
X89949Y147676D01*
X90052Y147504D01*
X90080Y147382D01*
X90031Y147308D01*
X89907Y147283D01*
Y146102D01*
X90031Y146078D01*
X90080Y146004D01*
X90052Y145882D01*
X89949Y145710D01*
X89770Y145490D01*
X89515Y145220D01*
X88778Y144534D01*
X87737Y143652D01*
Y149734D01*
X88295Y149269D01*
D02*
G37*
G36*
X22075Y150780D02*
X22311Y150748D01*
X22704Y150721D01*
X28374Y150632D01*
X29870Y150630D01*
Y142756D01*
X21996Y142571D01*
Y150815D01*
X22075Y150780D01*
D02*
G37*
G36*
X54542Y142559D02*
X54470Y142596D01*
X54332Y142630D01*
X54126Y142659D01*
X53514Y142707D01*
X51488Y142754D01*
X50815Y142756D01*
Y150630D01*
X54542Y150827D01*
Y142559D01*
D02*
G37*
G36*
X123401Y144298D02*
X122928Y143746D01*
X122736Y143481D01*
X122574Y143222D01*
X122441Y142970D01*
X122338Y142724D01*
X122264Y142485D01*
X122220Y142253D01*
X122205Y142028D01*
X121024D01*
X121009Y142253D01*
X120965Y142485D01*
X120891Y142724D01*
X120788Y142970D01*
X120655Y143222D01*
X120492Y143481D01*
X120300Y143746D01*
X120079Y144019D01*
X119547Y144584D01*
X123681D01*
X123401Y144298D01*
D02*
G37*
G36*
X115091Y122361D02*
X115261Y122240D01*
X115449Y122134D01*
X115655Y122043D01*
X115879Y121966D01*
X116122Y121904D01*
X116383Y121856D01*
X116662Y121823D01*
X116959Y121804D01*
X117275Y121800D01*
X114800Y119325D01*
X114796Y119641D01*
X114744Y120217D01*
X114697Y120478D01*
X114634Y120721D01*
X114557Y120945D01*
X114466Y121151D01*
X114360Y121339D01*
X114239Y121509D01*
X114104Y121661D01*
X114939Y122496D01*
X115091Y122361D01*
D02*
G37*
G36*
X580922Y109023D02*
X580687Y108780D01*
X580317Y108344D01*
X580182Y108152D01*
X580080Y107976D01*
X580012Y107818D01*
X579978Y107676D01*
X579977Y107552D01*
X580009Y107444D01*
X580074Y107353D01*
X578416Y109011D01*
X578507Y108946D01*
X578615Y108914D01*
X578739Y108915D01*
X578881Y108949D01*
X579039Y109017D01*
X579215Y109119D01*
X579407Y109254D01*
X579617Y109422D01*
X580086Y109859D01*
X580922Y109023D01*
D02*
G37*
G36*
X531466Y107756D02*
X528543Y104833D01*
X528531Y104871D01*
X528494Y104932D01*
X528432Y105016D01*
X528232Y105248D01*
X527532Y105981D01*
X527295Y106220D01*
X530079Y109004D01*
X531466Y107756D01*
D02*
G37*
G36*
X22075Y110386D02*
X22311Y110354D01*
X22704Y110327D01*
X28374Y110238D01*
X29870Y110236D01*
Y102362D01*
X21996Y102177D01*
Y110421D01*
X22075Y110386D01*
D02*
G37*
G36*
X63049Y110396D02*
X63188Y110362D01*
X63394Y110333D01*
X64006Y110285D01*
X66031Y110238D01*
X66705Y110236D01*
Y102362D01*
X62977Y102165D01*
Y110433D01*
X63049Y110396D01*
D02*
G37*
G36*
X54542Y102165D02*
X54470Y102203D01*
X54332Y102236D01*
X54126Y102266D01*
X53514Y102313D01*
X51488Y102360D01*
X50815Y102362D01*
Y110236D01*
X54542Y110433D01*
Y102165D01*
D02*
G37*
G36*
X571978Y99244D02*
X571886Y99311D01*
X571777Y99344D01*
X571652D01*
X571510Y99311D01*
X571351Y99244D01*
X571176Y99144D01*
X570984Y99010D01*
X570775Y98843D01*
X570307Y98409D01*
X569472Y99244D01*
X569706Y99486D01*
X570073Y99921D01*
X570207Y100113D01*
X570307Y100288D01*
X570374Y100447D01*
X570407Y100589D01*
Y100714D01*
X570374Y100823D01*
X570307Y100915D01*
X571978Y99244D01*
D02*
G37*
G36*
X571696Y79246D02*
X571399Y79524D01*
X571080Y79773D01*
X570741Y79992D01*
X570379Y80182D01*
X569997Y80343D01*
X569594Y80475D01*
X569169Y80577D01*
X568723Y80650D01*
X568256Y80694D01*
X567767Y80709D01*
Y84646D01*
X568256Y84660D01*
X568723Y84704D01*
X569169Y84777D01*
X569594Y84880D01*
X569997Y85011D01*
X570379Y85172D01*
X570741Y85362D01*
X571080Y85582D01*
X571399Y85830D01*
X571696Y86108D01*
Y79246D01*
D02*
G37*
G36*
X456305Y68384D02*
X460842Y64375D01*
X461286Y64096D01*
X461640Y63929D01*
X461905Y63874D01*
X455788Y57757D01*
Y57754D01*
X455786Y57755D01*
X455236Y57205D01*
X455180Y57470D01*
X455068Y57707D01*
X454881Y57902D01*
X454606Y58079D01*
X454252Y58229D01*
X454154Y58257D01*
X454035Y58277D01*
X452335Y58440D01*
X448755Y58563D01*
X447287Y58571D01*
Y62508D01*
X448755Y62516D01*
X450866Y62656D01*
X450726Y62805D01*
X449668Y63874D01*
X455236Y69441D01*
X456305Y68384D01*
D02*
G37*
G36*
X533563Y46912D02*
X529429D01*
X529448Y46948D01*
X529464Y47017D01*
X529479Y47120D01*
X529503Y47426D01*
X529527Y48439D01*
X529528Y48776D01*
X533464D01*
X533563Y46912D01*
D02*
G37*
G36*
X245645Y14532D02*
X245270Y14757D01*
X244855Y14958D01*
X244398Y15136D01*
X243901Y15290D01*
X243363Y15420D01*
X242785Y15527D01*
X241505Y15669D01*
X240805Y15705D01*
X240063Y15716D01*
Y20716D01*
X240805Y20728D01*
X242165Y20823D01*
X242785Y20906D01*
X243901Y21143D01*
X244398Y21297D01*
X244855Y21474D01*
X245270Y21676D01*
X245645Y21901D01*
Y14532D01*
D02*
G37*
%LPC*%
G36*
X29353Y593708D02*
X27996D01*
Y591830D01*
X30268D01*
Y593598D01*
X29828Y593571D01*
X29695Y593550D01*
X29582Y593526D01*
X29487Y593498D01*
X29411Y593466D01*
X29353Y593430D01*
Y593708D01*
D02*
G37*
G36*
X30268Y517452D02*
X27996D01*
Y515574D01*
X29353D01*
Y515852D01*
X29411Y515816D01*
X29487Y515784D01*
X29582Y515756D01*
X29695Y515732D01*
X29828Y515711D01*
X30148Y515681D01*
X30268Y515677D01*
Y517452D01*
D02*
G37*
G36*
X33540D02*
X31268D01*
Y515574D01*
X33540D01*
Y517452D01*
D02*
G37*
G36*
X31359Y420725D02*
X30005Y420592D01*
X28703Y420197D01*
X27503Y419556D01*
X26452Y418693D01*
X25589Y417642D01*
X24948Y416442D01*
X24553Y415140D01*
X24420Y413787D01*
X24553Y412433D01*
X24948Y411131D01*
X25589Y409932D01*
X26452Y408880D01*
X27503Y408017D01*
X28703Y407376D01*
X30005Y406981D01*
X31359Y406848D01*
X32712Y406981D01*
X34014Y407376D01*
X35214Y408017D01*
X36265Y408880D01*
X37128Y409932D01*
X37769Y411131D01*
X38164Y412433D01*
X38298Y413787D01*
X38164Y415140D01*
X37769Y416442D01*
X37128Y417642D01*
X36265Y418693D01*
X35214Y419556D01*
X34014Y420197D01*
X32712Y420592D01*
X31359Y420725D01*
D02*
G37*
G36*
X29626Y367963D02*
X28272Y367829D01*
X26971Y367434D01*
X25771Y366793D01*
X24719Y365930D01*
X23856Y364879D01*
X23215Y363679D01*
X22820Y362377D01*
X22687Y361024D01*
X22820Y359670D01*
X23215Y358368D01*
X23856Y357169D01*
X24719Y356117D01*
X25771Y355254D01*
X26971Y354613D01*
X28272Y354218D01*
X29626Y354085D01*
X30980Y354218D01*
X32281Y354613D01*
X33481Y355254D01*
X34533Y356117D01*
X35396Y357169D01*
X36037Y358368D01*
X36432Y359670D01*
X36565Y361024D01*
X36432Y362377D01*
X36037Y363679D01*
X35396Y364879D01*
X34533Y365930D01*
X33481Y366793D01*
X32281Y367434D01*
X30980Y367829D01*
X29626Y367963D01*
D02*
G37*
G36*
X30126Y338669D02*
Y337677D01*
X30942Y337680D01*
X33388Y337863D01*
X33068Y338034D01*
X31381Y338546D01*
X30126Y338669D01*
D02*
G37*
G36*
X37738Y333535D02*
X37702Y333234D01*
X37582Y331040D01*
X37578Y330224D01*
X38571D01*
X38447Y331479D01*
X37936Y333166D01*
X37738Y333535D01*
D02*
G37*
G36*
X30126Y337254D02*
Y330224D01*
X37156D01*
X30126Y337254D01*
D02*
G37*
G36*
X29126Y338669D02*
X27871Y338546D01*
X26184Y338034D01*
X24629Y337203D01*
X23266Y336084D01*
X22148Y334721D01*
X21317Y333166D01*
X20805Y331479D01*
X20681Y330224D01*
X29126D01*
Y338669D01*
D02*
G37*
G36*
X38571Y329224D02*
X30126D01*
Y320780D01*
X31381Y320903D01*
X33068Y321415D01*
X34623Y322246D01*
X35986Y323365D01*
X37104Y324728D01*
X37936Y326283D01*
X38447Y327970D01*
X38571Y329224D01*
D02*
G37*
G36*
X29126D02*
X20681D01*
X20805Y327970D01*
X21317Y326283D01*
X22148Y324728D01*
X23266Y323365D01*
X24629Y322246D01*
X26184Y321415D01*
X27871Y320903D01*
X29126Y320780D01*
Y329224D01*
D02*
G37*
G36*
X15559Y323905D02*
Y315461D01*
X24004D01*
X23880Y316715D01*
X23369Y318403D01*
X22537Y319957D01*
X21419Y321320D01*
X20056Y322439D01*
X18501Y323270D01*
X16814Y323782D01*
X15559Y323905D01*
D02*
G37*
G36*
X14559D02*
X13304Y323782D01*
X11617Y323270D01*
X10062Y322439D01*
X8699Y321320D01*
X7581Y319957D01*
X6750Y318403D01*
X6238Y316715D01*
X6114Y315461D01*
X14559D01*
Y323905D01*
D02*
G37*
G36*
X24004Y314461D02*
X15559D01*
Y306016D01*
X16814Y306139D01*
X18501Y306651D01*
X20056Y307482D01*
X21419Y308601D01*
X22537Y309964D01*
X23369Y311519D01*
X23880Y313206D01*
X24004Y314461D01*
D02*
G37*
G36*
X14559D02*
X6114D01*
X6238Y313206D01*
X6750Y311519D01*
X7581Y309964D01*
X8699Y308601D01*
X10062Y307482D01*
X11617Y306651D01*
X13304Y306139D01*
X14559Y306016D01*
Y314461D01*
D02*
G37*
G36*
X29626Y309191D02*
X27871Y309018D01*
X26184Y308506D01*
X24629Y307675D01*
X23266Y306557D01*
X22148Y305194D01*
X21317Y303639D01*
X20805Y301952D01*
X20632Y300197D01*
X20805Y298442D01*
X21317Y296755D01*
X22148Y295200D01*
X23266Y293837D01*
X24629Y292719D01*
X26184Y291887D01*
X27871Y291375D01*
X29626Y291203D01*
X31381Y291375D01*
X33068Y291887D01*
X34623Y292719D01*
X35986Y293837D01*
X37104Y295200D01*
X37936Y296755D01*
X38447Y298442D01*
X38620Y300197D01*
X38447Y301952D01*
X37936Y303639D01*
X37104Y305194D01*
X35986Y306557D01*
X34623Y307675D01*
X33068Y308506D01*
X31381Y309018D01*
X29626Y309191D01*
D02*
G37*
G36*
X18374Y252258D02*
Y247646D01*
X22986D01*
X22876Y248486D01*
X22358Y249735D01*
X21535Y250807D01*
X20463Y251630D01*
X19214Y252147D01*
X18374Y252258D01*
D02*
G37*
G36*
X17374D02*
X16534Y252147D01*
X15285Y251630D01*
X14212Y250807D01*
X13390Y249735D01*
X12872Y248486D01*
X12762Y247646D01*
X17374D01*
Y252258D01*
D02*
G37*
G36*
X22986Y246646D02*
X18374D01*
Y242033D01*
X19214Y242144D01*
X20463Y242661D01*
X21535Y243484D01*
X22358Y244556D01*
X22876Y245805D01*
X22986Y246646D01*
D02*
G37*
G36*
X17374D02*
X12762D01*
X12872Y245805D01*
X13390Y244556D01*
X14212Y243484D01*
X15285Y242661D01*
X16534Y242144D01*
X17374Y242033D01*
Y246646D01*
D02*
G37*
%LPD*%
D10*
X568724Y122441D02*
X589197D01*
Y42913D02*
Y122441D01*
X568724Y42913D02*
X589197D01*
X568724D02*
Y122441D01*
X589197D01*
Y42913D02*
Y122441D01*
X568724Y42913D02*
X589197D01*
X568724D02*
Y122441D01*
Y744488D02*
X589197D01*
Y664961D02*
Y744488D01*
X568724Y664961D02*
X589197D01*
X568724D02*
Y744488D01*
X589197D01*
Y664961D02*
Y744488D01*
X568724Y664961D02*
X589197D01*
X568724D02*
Y744488D01*
Y312244D02*
X589197D01*
Y232717D02*
Y312244D01*
X568724Y232717D02*
X589197D01*
X568724D02*
Y312244D01*
X589197D01*
Y232717D02*
Y312244D01*
X568724Y232717D02*
X589197D01*
X568724D02*
Y312244D01*
Y554528D02*
X589197D01*
Y475000D02*
Y554528D01*
X568724Y475000D02*
X589197D01*
X568724D02*
Y554528D01*
X589197D01*
Y475000D02*
Y554528D01*
X568724Y475000D02*
X589197D01*
X568724D02*
Y554528D01*
Y217343D02*
X589197D01*
Y137815D02*
Y217343D01*
X568724Y137815D02*
X589197D01*
X568724D02*
Y217343D01*
X589197D01*
Y137815D02*
Y217343D01*
X568724Y137815D02*
X589197D01*
X568724D02*
Y217343D01*
Y649508D02*
X589197D01*
Y569980D02*
Y649508D01*
X568724Y569980D02*
X589197D01*
X568724D02*
Y649508D01*
X589197D01*
Y569980D02*
Y649508D01*
X568724Y569980D02*
X589197D01*
X568724D02*
Y649508D01*
X5217Y334646D02*
X38681D01*
X-689D02*
X5217D01*
X-689Y331299D02*
Y334646D01*
Y298622D02*
Y331299D01*
Y295276D02*
Y298622D01*
Y295276D02*
X5217D01*
X38681D01*
Y334646D01*
X-38091Y331299D02*
X-689D01*
X-38091Y298622D02*
Y331299D01*
Y298622D02*
X-689D01*
X5217Y295276D02*
Y334646D01*
X38681D01*
X-689D02*
X5217D01*
X-689Y331299D02*
Y334646D01*
Y298622D02*
Y331299D01*
Y295276D02*
Y298622D01*
Y295276D02*
X5217D01*
X38681D01*
Y334646D01*
X-38091Y331299D02*
X-689D01*
X-38091Y298622D02*
Y331299D01*
Y298622D02*
X-689D01*
X5217Y295276D02*
Y334646D01*
X329832Y17936D02*
G03*
X331824Y16881I1976J1321D01*
G01*
X333532Y16879D02*
G03*
X335506Y17917I11J2376D01*
G01*
X331823Y36564D02*
G03*
X329849Y35527I-11J-2376D01*
G01*
X335522Y35508D02*
G03*
X333530Y36563I-1976J-1321D01*
G01*
X328995Y34074D02*
G03*
X328729Y33809I87J-354D01*
G01*
X331878Y33883D02*
G03*
X328995Y34074I-4288J-43031D01*
G01*
X331878Y19560D02*
G03*
X328995Y19370I41749J-654584D01*
G01*
X328729Y19635D02*
G03*
X328995Y19370I357J92D01*
G01*
X333476Y33883D02*
G03*
X336360Y34074I-41797J655314D01*
G01*
X336626Y33809D02*
G03*
X336360Y34074I-357J-92D01*
G01*
X336360Y19370D02*
G03*
X336626Y19635I-87J354D01*
G01*
X333476Y19560D02*
G03*
X336360Y19370I4288J43031D01*
G01*
X331878Y19032D02*
G03*
X330617Y17864I3661J-5218D01*
G01*
X328729Y19635D02*
G03*
X330500Y17864I1772J0D01*
G01*
X336626Y33809D02*
G03*
X334854Y35580I-1772J0D01*
G01*
X330500D02*
G03*
X328729Y33809I0J-1772D01*
G01*
X334854Y17864D02*
G03*
X336626Y19635I0J1772D01*
G01*
X331496Y16879D02*
G03*
X333858Y16879I1181J0D01*
G01*
Y36564D02*
G03*
X331496Y36564I-1181J0D01*
G01*
X414387Y17935D02*
G03*
X416378Y16879I1976J1321D01*
G01*
X418086Y16878D02*
G03*
X420060Y17916I11J2376D01*
G01*
X416377Y36563D02*
G03*
X414403Y35525I-11J-2376D01*
G01*
X420077Y35506D02*
G03*
X418085Y36562I-1976J-1321D01*
G01*
X413549Y34072D02*
G03*
X413283Y33807I87J-354D01*
G01*
X416433Y33882D02*
G03*
X413549Y34072I-4288J-43031D01*
G01*
X416433Y19559D02*
G03*
X413549Y19369I41749J-654584D01*
G01*
X413283Y19634D02*
G03*
X413549Y19369I357J92D01*
G01*
X418031Y33882D02*
G03*
X420914Y34072I-41797J655314D01*
G01*
X421180Y33807D02*
G03*
X420914Y34072I-357J-92D01*
G01*
X420914Y19369D02*
G03*
X421180Y19634I-87J354D01*
G01*
X418031Y19559D02*
G03*
X420914Y19369I4288J43031D01*
G01*
X416433Y19030D02*
G03*
X415171Y17862I3661J-5218D01*
G01*
X413283Y19634D02*
G03*
X415055Y17862I1772J0D01*
G01*
X421180Y33807D02*
G03*
X419409Y35579I-1772J0D01*
G01*
X415055D02*
G03*
X413283Y33807I0J-1772D01*
G01*
X419409Y17862D02*
G03*
X421180Y19634I0J1772D01*
G01*
X416050Y16878D02*
G03*
X418413Y16878I1181J0D01*
G01*
Y36563D02*
G03*
X416050Y36563I-1181J0D01*
G01*
X245974Y19273D02*
G03*
X247966Y18218I1976J1321D01*
G01*
X249673Y18216D02*
G03*
X251647Y19254I11J2376D01*
G01*
X247965Y37901D02*
G03*
X245991Y36864I-11J-2376D01*
G01*
X251664Y36845D02*
G03*
X249672Y37900I-1976J-1321D01*
G01*
X245137Y35411D02*
G03*
X244870Y35146I87J-354D01*
G01*
X248020Y35220D02*
G03*
X245137Y35411I-4288J-43031D01*
G01*
X248020Y20898D02*
G03*
X245137Y20707I41749J-654584D01*
G01*
X244870Y20972D02*
G03*
X245137Y20707I357J92D01*
G01*
X249618Y35220D02*
G03*
X252501Y35411I-41797J655314D01*
G01*
X252767Y35146D02*
G03*
X252501Y35411I-357J-92D01*
G01*
X252501Y20707D02*
G03*
X252767Y20972I-87J354D01*
G01*
X249618Y20898D02*
G03*
X252501Y20707I4288J43031D01*
G01*
X248020Y20369D02*
G03*
X246758Y19201I3661J-5218D01*
G01*
X244870Y20972D02*
G03*
X246642Y19201I1772J0D01*
G01*
X252767Y35146D02*
G03*
X250996Y36917I-1772J0D01*
G01*
X246642D02*
G03*
X244870Y35146I0J-1772D01*
G01*
X250996Y19201D02*
G03*
X252767Y20972I0J1772D01*
G01*
X247638Y18216D02*
G03*
X250000Y18216I1181J0D01*
G01*
Y37901D02*
G03*
X247638Y37901I-1181J0D01*
G01*
X327864Y201610D02*
G03*
X329855Y200554I1976J1321D01*
G01*
X331563Y200553D02*
G03*
X333537Y201590I11J2376D01*
G01*
X329854Y220238D02*
G03*
X327880Y219200I-11J-2376D01*
G01*
X333554Y219181D02*
G03*
X331562Y220236I-1976J-1321D01*
G01*
X327026Y217747D02*
G03*
X326760Y217482I87J-354D01*
G01*
X329910Y217557D02*
G03*
X327026Y217747I-4288J-43031D01*
G01*
X329910Y203234D02*
G03*
X327026Y203044I41749J-654584D01*
G01*
X326760Y203309D02*
G03*
X327026Y203044I357J92D01*
G01*
X331508Y217557D02*
G03*
X334391Y217747I-41797J655314D01*
G01*
X334657Y217482D02*
G03*
X334391Y217747I-357J-92D01*
G01*
X334391Y203044D02*
G03*
X334657Y203309I-87J354D01*
G01*
X331508Y203234D02*
G03*
X334391Y203044I4288J43031D01*
G01*
X329910Y202705D02*
G03*
X328648Y201537I3661J-5218D01*
G01*
X326760Y203309D02*
G03*
X328532Y201537I1772J0D01*
G01*
X334657Y217482D02*
G03*
X332886Y219253I-1772J0D01*
G01*
X328532D02*
G03*
X326760Y217482I0J-1772D01*
G01*
X332886Y201537D02*
G03*
X334657Y203309I0J1772D01*
G01*
X329528Y200553D02*
G03*
X331890Y200553I1181J0D01*
G01*
Y220238D02*
G03*
X329528Y220238I-1181J0D01*
G01*
X245974Y203340D02*
G03*
X247966Y202285I1976J1321D01*
G01*
X249673Y202283D02*
G03*
X251647Y203321I11J2376D01*
G01*
X247965Y221969D02*
G03*
X245991Y220931I-11J-2376D01*
G01*
X251664Y220912D02*
G03*
X249672Y221967I-1976J-1321D01*
G01*
X245137Y219478D02*
G03*
X244870Y219213I87J-354D01*
G01*
X248020Y219287D02*
G03*
X245137Y219478I-4288J-43031D01*
G01*
X248020Y204964D02*
G03*
X245137Y204774I41749J-654584D01*
G01*
X244870Y205039D02*
G03*
X245137Y204774I357J92D01*
G01*
X249618Y219287D02*
G03*
X252501Y219478I-41797J655314D01*
G01*
X252767Y219213D02*
G03*
X252501Y219478I-357J-92D01*
G01*
X252501Y204774D02*
G03*
X252767Y205039I-87J354D01*
G01*
X249618Y204964D02*
G03*
X252501Y204774I4288J43031D01*
G01*
X248020Y204436D02*
G03*
X246758Y203268I3661J-5218D01*
G01*
X244870Y205039D02*
G03*
X246642Y203268I1772J0D01*
G01*
X252767Y219213D02*
G03*
X250996Y220984I-1772J0D01*
G01*
X246642D02*
G03*
X244870Y219213I0J-1772D01*
G01*
X250996Y203268D02*
G03*
X252767Y205039I0J1772D01*
G01*
X247638Y202283D02*
G03*
X250000Y202283I1181J0D01*
G01*
Y221969D02*
G03*
X247638Y221969I-1181J0D01*
G01*
X202511Y481676D02*
G03*
X200519Y482731I-1976J-1321D01*
G01*
X198811Y482733D02*
G03*
X196837Y481695I-11J-2376D01*
G01*
X200520Y463048D02*
G03*
X202494Y464085I11J2376D01*
G01*
X196821Y464105D02*
G03*
X198813Y463049I1976J1321D01*
G01*
X203348Y465539D02*
G03*
X203614Y465804I-87J354D01*
G01*
X200465Y465729D02*
G03*
X203348Y465539I4288J43031D01*
G01*
X200465Y480052D02*
G03*
X203348Y480242I-41749J654584D01*
G01*
X203614Y479977D02*
G03*
X203348Y480242I-357J-92D01*
G01*
X198867Y465729D02*
G03*
X195983Y465539I41797J-655314D01*
G01*
X195717Y465804D02*
G03*
X195983Y465539I357J92D01*
G01*
X195983Y480242D02*
G03*
X195717Y479977I87J-354D01*
G01*
X198867Y480052D02*
G03*
X195983Y480242I-4288J-43031D01*
G01*
X200465Y480580D02*
G03*
X201726Y481748I-3661J5218D01*
G01*
X203614Y479977D02*
G03*
X201843Y481748I-1772J0D01*
G01*
X195717Y465803D02*
G03*
X197489Y464032I1772J0D01*
G01*
X201843D02*
G03*
X203614Y465803I0J1772D01*
G01*
X197489Y481748D02*
G03*
X195717Y479977I0J-1772D01*
G01*
X200847Y482733D02*
G03*
X198485Y482733I-1181J0D01*
G01*
Y463048D02*
G03*
X200847Y463048I1181J0D01*
G01*
X196821Y621536D02*
G03*
X198813Y620481I1976J1321D01*
G01*
X200520Y620479D02*
G03*
X202494Y621517I11J2376D01*
G01*
X198811Y640165D02*
G03*
X196837Y639127I-11J-2376D01*
G01*
X202511Y639108D02*
G03*
X200519Y640163I-1976J-1321D01*
G01*
X195983Y637674D02*
G03*
X195717Y637409I87J-354D01*
G01*
X198867Y637484D02*
G03*
X195983Y637674I-4288J-43031D01*
G01*
X198867Y623161D02*
G03*
X195983Y622970I41749J-654584D01*
G01*
X195717Y623236D02*
G03*
X195983Y622970I357J92D01*
G01*
X200465Y637484D02*
G03*
X203348Y637674I-41797J655314D01*
G01*
X203614Y637409D02*
G03*
X203348Y637674I-357J-92D01*
G01*
X203348Y622970D02*
G03*
X203614Y623236I-87J354D01*
G01*
X200465Y623161D02*
G03*
X203348Y622970I4288J43031D01*
G01*
X198867Y622632D02*
G03*
X197605Y621464I3661J-5218D01*
G01*
X195717Y623236D02*
G03*
X197489Y621464I1772J0D01*
G01*
X203614Y637409D02*
G03*
X201843Y639180I-1772J0D01*
G01*
X197489D02*
G03*
X195717Y637409I0J-1772D01*
G01*
X201843Y621464D02*
G03*
X203614Y623236I0J1772D01*
G01*
X198485Y620479D02*
G03*
X200847Y620479I1181J0D01*
G01*
Y640165D02*
G03*
X198485Y640165I-1181J0D01*
G01*
X245973Y162474D02*
G03*
X247965Y161419I1976J1321D01*
G01*
X249673Y161417D02*
G03*
X251647Y162455I11J2376D01*
G01*
X247964Y181102D02*
G03*
X245990Y180065I-11J-2376D01*
G01*
X251663Y180045D02*
G03*
X249671Y181101I-1976J-1321D01*
G01*
X245136Y178612D02*
G03*
X244870Y178347I87J-354D01*
G01*
X248019Y178421D02*
G03*
X245136Y178612I-4288J-43031D01*
G01*
X248019Y164098D02*
G03*
X245136Y163908I41749J-654584D01*
G01*
X244870Y164173D02*
G03*
X245136Y163908I357J92D01*
G01*
X249617Y178421D02*
G03*
X252501Y178612I-41797J655314D01*
G01*
X252767Y178347D02*
G03*
X252501Y178612I-357J-92D01*
G01*
X252501Y163908D02*
G03*
X252767Y164173I-87J354D01*
G01*
X249617Y164098D02*
G03*
X252501Y163908I4288J43031D01*
G01*
X248019Y163570D02*
G03*
X246758Y162402I3661J-5218D01*
G01*
X244870Y164173D02*
G03*
X246641Y162402I1772J0D01*
G01*
X252767Y178347D02*
G03*
X250995Y180118I-1772J0D01*
G01*
X246641D02*
G03*
X244870Y178347I0J-1772D01*
G01*
X250995Y162402D02*
G03*
X252767Y164173I0J1772D01*
G01*
X247637Y161417D02*
G03*
X249999Y161417I1181J0D01*
G01*
Y181102D02*
G03*
X247637Y181102I-1181J0D01*
G01*
X327864Y160506D02*
G03*
X329855Y159450I1976J1321D01*
G01*
X331563Y159449D02*
G03*
X333537Y160487I11J2376D01*
G01*
X329854Y179134D02*
G03*
X327880Y178096I-11J-2376D01*
G01*
X333554Y178077D02*
G03*
X331562Y179133I-1976J-1321D01*
G01*
X327026Y176643D02*
G03*
X326760Y176378I87J-354D01*
G01*
X329909Y176453D02*
G03*
X327026Y176643I-4288J-43031D01*
G01*
X329909Y162130D02*
G03*
X327026Y161940I41749J-654584D01*
G01*
X326760Y162205D02*
G03*
X327026Y161940I357J92D01*
G01*
X331507Y176453D02*
G03*
X334391Y176643I-41797J655314D01*
G01*
X334657Y176378D02*
G03*
X334391Y176643I-357J-92D01*
G01*
X334391Y161940D02*
G03*
X334657Y162205I-87J354D01*
G01*
X331507Y162130D02*
G03*
X334391Y161940I4288J43031D01*
G01*
X329909Y161601D02*
G03*
X328648Y160433I3661J-5218D01*
G01*
X326760Y162205D02*
G03*
X328532Y160433I1772J0D01*
G01*
X334657Y176378D02*
G03*
X332886Y178150I-1772J0D01*
G01*
X328532D02*
G03*
X326760Y176378I0J-1772D01*
G01*
X332886Y160433D02*
G03*
X334657Y162205I0J1772D01*
G01*
X329527Y159449D02*
G03*
X331890Y159449I1181J0D01*
G01*
Y179134D02*
G03*
X329527Y179134I-1181J0D01*
G01*
X499124Y17935D02*
G03*
X501115Y16879I1976J1321D01*
G01*
X502823Y16878D02*
G03*
X504797Y17916I11J2376D01*
G01*
X501114Y36563D02*
G03*
X499140Y35525I-11J-2376D01*
G01*
X504813Y35506D02*
G03*
X502822Y36562I-1976J-1321D01*
G01*
X498286Y34072D02*
G03*
X498020Y33807I87J-354D01*
G01*
X501169Y33882D02*
G03*
X498286Y34072I-4288J-43031D01*
G01*
X501169Y19559D02*
G03*
X498286Y19369I41749J-654584D01*
G01*
X498020Y19634D02*
G03*
X498286Y19369I357J92D01*
G01*
X502768Y33882D02*
G03*
X505651Y34072I-41797J655314D01*
G01*
X505917Y33807D02*
G03*
X505651Y34072I-357J-92D01*
G01*
X505651Y19369D02*
G03*
X505917Y19634I-87J354D01*
G01*
X502768Y19559D02*
G03*
X505651Y19369I4288J43031D01*
G01*
X501169Y19030D02*
G03*
X499908Y17862I3661J-5218D01*
G01*
X498020Y19634D02*
G03*
X499792Y17862I1772J0D01*
G01*
X505917Y33807D02*
G03*
X504145Y35579I-1772J0D01*
G01*
X499792D02*
G03*
X498020Y33807I0J-1772D01*
G01*
X504145Y17862D02*
G03*
X505917Y19634I0J1772D01*
G01*
X500787Y16878D02*
G03*
X503150Y16878I1181J0D01*
G01*
Y36563D02*
G03*
X500787Y36563I-1181J0D01*
G01*
X540791Y384915D02*
G03*
X542782Y383859I1976J1321D01*
G01*
X544490Y383858D02*
G03*
X546464Y384896I11J2376D01*
G01*
X542781Y403543D02*
G03*
X540807Y402506I-11J-2376D01*
G01*
X546480Y402486D02*
G03*
X544489Y403542I-1976J-1321D01*
G01*
X539953Y401053D02*
G03*
X539687Y400787I87J-354D01*
G01*
X542837Y400862D02*
G03*
X539953Y401053I-4288J-43031D01*
G01*
X542837Y386539D02*
G03*
X539953Y386349I41749J-654584D01*
G01*
X539687Y386614D02*
G03*
X539953Y386349I357J92D01*
G01*
X544434Y400862D02*
G03*
X547318Y401053I-41797J655314D01*
G01*
X547584Y400787D02*
G03*
X547318Y401053I-357J-92D01*
G01*
X547318Y386349D02*
G03*
X547584Y386614I-87J354D01*
G01*
X544434Y386539D02*
G03*
X547318Y386349I4288J43031D01*
G01*
X542837Y386011D02*
G03*
X541575Y384842I3661J-5218D01*
G01*
X539687Y386614D02*
G03*
X541459Y384842I1772J0D01*
G01*
X547584Y400787D02*
G03*
X545812Y402559I-1772J0D01*
G01*
X541459D02*
G03*
X539687Y400787I0J-1772D01*
G01*
X545812Y384842D02*
G03*
X547584Y386614I0J1772D01*
G01*
X542454Y383858D02*
G03*
X544817Y383858I1181J0D01*
G01*
Y403543D02*
G03*
X542454Y403543I-1181J0D01*
G01*
X335522Y17935D02*
X335540Y17962D01*
X335599Y18042D01*
X329760Y18037D02*
X329828Y17943D01*
X329832Y17936D01*
X329815Y35482D02*
X329832Y35510D01*
X329755Y35402D02*
X329815Y35482D01*
X335526Y35501D02*
X335595Y35407D01*
X335522Y35508D02*
X335526Y35501D01*
X333476Y34412D02*
X333554Y34423D01*
X333646Y34465D01*
X333745Y34540D01*
X333830Y34622D01*
X334051Y34885D01*
X334239Y35125D01*
X334407Y35330D01*
X334555Y35481D01*
X334655Y35555D01*
X334738Y35580D01*
X330617D02*
X330722Y35541D01*
X330861Y35423D01*
X331045Y35214D01*
X331273Y34924D01*
X331391Y34775D01*
X331526Y34621D01*
X331621Y34530D01*
X331740Y34448D01*
X331817Y34419D01*
X331878Y34412D01*
X334689Y17873D02*
X334738Y17864D01*
X334632Y17903D02*
X334689Y17873D01*
X334567Y17952D02*
X334632Y17903D01*
X334493Y18021D02*
X334567Y17952D01*
X334406Y18115D02*
X334493Y18021D01*
X334309Y18230D02*
X334406Y18115D01*
X334201Y18366D02*
X334309Y18230D01*
X334082Y18520D02*
X334201Y18366D01*
X333964Y18668D02*
X334082Y18520D01*
X333828Y18823D02*
X333964Y18668D01*
X333783Y18869D02*
X333828Y18823D01*
X333733Y18914D02*
X333783Y18869D01*
X333678Y18958D02*
X333733Y18914D01*
X333614Y18996D02*
X333678Y18958D01*
X333577Y19013D02*
X333614Y18996D01*
X333537Y19025D02*
X333577Y19013D01*
X333507Y19030D02*
X333537Y19025D01*
X333476Y19032D02*
X333507Y19030D01*
X331824Y16881D02*
X333531Y16879D01*
X331823Y36564D02*
X333530Y36563D01*
X331878Y19032D02*
Y34412D01*
X328729Y19635D02*
Y33809D01*
X336626Y19635D02*
Y33809D01*
X333476Y19032D02*
Y34412D01*
X331878Y33883D02*
X333476D01*
X331878Y19561D02*
X333476D01*
X331878Y19032D02*
X333476D01*
X331878Y34412D02*
X333476D01*
X330500Y35580D02*
X334854D01*
X330500Y17864D02*
X334854D01*
X420076Y17934D02*
X420094Y17961D01*
X420154Y18041D01*
X414314Y18035D02*
X414382Y17942D01*
X414387Y17935D01*
X414369Y35480D02*
X414386Y35508D01*
X414310Y35400D02*
X414369Y35480D01*
X420081Y35500D02*
X420149Y35406D01*
X420077Y35506D02*
X420081Y35500D01*
X418031Y34411D02*
X418108Y34422D01*
X418200Y34464D01*
X418300Y34538D01*
X418384Y34620D01*
X418605Y34883D01*
X418793Y35124D01*
X418962Y35329D01*
X419109Y35479D01*
X419209Y35553D01*
X419292Y35579D01*
X415171D02*
X415276Y35540D01*
X415415Y35421D01*
X415599Y35212D01*
X415827Y34923D01*
X415945Y34774D01*
X416080Y34620D01*
X416176Y34528D01*
X416295Y34446D01*
X416372Y34418D01*
X416433Y34411D01*
X419244Y17872D02*
X419292Y17862D01*
X419187Y17901D02*
X419244Y17872D01*
X419121Y17951D02*
X419187Y17901D01*
X419048Y18020D02*
X419121Y17951D01*
X418960Y18114D02*
X419048Y18020D01*
X418864Y18229D02*
X418960Y18114D01*
X418756Y18365D02*
X418864Y18229D01*
X418636Y18518D02*
X418756Y18365D01*
X418518Y18666D02*
X418636Y18518D01*
X418383Y18822D02*
X418518Y18666D01*
X418337Y18868D02*
X418383Y18822D01*
X418288Y18913D02*
X418337Y18868D01*
X418232Y18956D02*
X418288Y18913D01*
X418168Y18995D02*
X418232Y18956D01*
X418132Y19011D02*
X418168Y18995D01*
X418091Y19024D02*
X418132Y19011D01*
X418062Y19029D02*
X418091Y19024D01*
X418031Y19030D02*
X418062Y19029D01*
X416378Y16879D02*
X418086Y16878D01*
X416377Y36563D02*
X418085Y36562D01*
X416433Y19030D02*
Y34411D01*
X413283Y19634D02*
Y33807D01*
X421180Y19634D02*
Y33807D01*
X418031Y19030D02*
Y34411D01*
X416433Y33882D02*
X418031D01*
X416433Y19559D02*
X418031D01*
X416433Y19030D02*
X418031D01*
X416433Y34411D02*
X418031D01*
X415055Y35579D02*
X419409D01*
X415055Y17862D02*
X419409D01*
X251663Y19272D02*
X251682Y19299D01*
X251741Y19379D01*
X245902Y19374D02*
X245970Y19280D01*
X245974Y19273D01*
X245956Y36819D02*
X245973Y36847D01*
X245897Y36739D02*
X245956Y36819D01*
X251668Y36838D02*
X251736Y36744D01*
X251664Y36845D02*
X251668Y36838D01*
X249618Y35749D02*
X249696Y35760D01*
X249788Y35802D01*
X249887Y35876D01*
X249971Y35959D01*
X250193Y36222D01*
X250380Y36462D01*
X250549Y36667D01*
X250696Y36818D01*
X250797Y36892D01*
X250879Y36917D01*
X246758D02*
X246864Y36878D01*
X247003Y36760D01*
X247187Y36551D01*
X247414Y36261D01*
X247532Y36112D01*
X247668Y35958D01*
X247763Y35867D01*
X247882Y35785D01*
X247959Y35756D01*
X248020Y35749D01*
X250831Y19210D02*
X250879Y19201D01*
X250774Y19240D02*
X250831Y19210D01*
X250709Y19289D02*
X250774Y19240D01*
X250635Y19358D02*
X250709Y19289D01*
X250548Y19452D02*
X250635Y19358D01*
X250451Y19567D02*
X250548Y19452D01*
X250343Y19703D02*
X250451Y19567D01*
X250223Y19857D02*
X250343Y19703D01*
X250106Y20005D02*
X250223Y19857D01*
X249970Y20160D02*
X250106Y20005D01*
X249925Y20206D02*
X249970Y20160D01*
X249875Y20251D02*
X249925Y20206D01*
X249819Y20295D02*
X249875Y20251D01*
X249756Y20333D02*
X249819Y20295D01*
X249719Y20350D02*
X249756Y20333D01*
X249679Y20362D02*
X249719Y20350D01*
X249649Y20367D02*
X249679Y20362D01*
X249618Y20369D02*
X249649Y20367D01*
X247966Y18218D02*
X249673Y18216D01*
X247965Y37901D02*
X249672Y37900D01*
X248020Y20369D02*
Y35749D01*
X244870Y20972D02*
Y35146D01*
X252768Y20972D02*
Y35146D01*
X249618Y20369D02*
Y35749D01*
X248020Y35220D02*
X249618D01*
X248020Y20897D02*
X249618D01*
X248020Y20369D02*
X249618D01*
X248020Y35749D02*
X249618D01*
X246642Y36917D02*
X250996D01*
X246642Y19201D02*
X250996D01*
X333553Y201608D02*
X333571Y201635D01*
X333631Y201715D01*
X327791Y201710D02*
X327859Y201616D01*
X327864Y201610D01*
X327846Y219155D02*
X327863Y219183D01*
X327787Y219075D02*
X327846Y219155D01*
X333558Y219174D02*
X333626Y219081D01*
X333554Y219181D02*
X333558Y219174D01*
X331508Y218085D02*
X331585Y218097D01*
X331677Y218139D01*
X331777Y218213D01*
X331861Y218295D01*
X332082Y218558D01*
X332270Y218799D01*
X332439Y219004D01*
X332586Y219154D01*
X332687Y219228D01*
X332769Y219253D01*
X328648D02*
X328753Y219214D01*
X328893Y219096D01*
X329077Y218887D01*
X329304Y218597D01*
X329422Y218448D01*
X329557Y218294D01*
X329653Y218203D01*
X329772Y218121D01*
X329849Y218092D01*
X329910Y218085D01*
X332721Y201547D02*
X332769Y201537D01*
X332664Y201576D02*
X332721Y201547D01*
X332598Y201626D02*
X332664Y201576D01*
X332525Y201695D02*
X332598Y201626D01*
X332437Y201789D02*
X332525Y201695D01*
X332341Y201903D02*
X332437Y201789D01*
X332233Y202039D02*
X332341Y201903D01*
X332113Y202193D02*
X332233Y202039D01*
X331996Y202341D02*
X332113Y202193D01*
X331860Y202496D02*
X331996Y202341D01*
X331814Y202542D02*
X331860Y202496D01*
X331765Y202588D02*
X331814Y202542D01*
X331709Y202631D02*
X331765Y202588D01*
X331646Y202670D02*
X331709Y202631D01*
X331609Y202686D02*
X331646Y202670D01*
X331569Y202698D02*
X331609Y202686D01*
X331539Y202703D02*
X331569Y202698D01*
X331508Y202705D02*
X331539Y202703D01*
X329856Y200554D02*
X331563Y200553D01*
X329854Y220238D02*
X331562Y220236D01*
X329910Y202705D02*
Y218085D01*
X326760Y203309D02*
Y217482D01*
X334657Y203309D02*
Y217482D01*
X331508Y202705D02*
Y218085D01*
X329910Y217557D02*
X331508D01*
X329910Y203234D02*
X331508D01*
X329910Y202705D02*
X331508D01*
X329910Y218085D02*
X331508D01*
X328532Y219253D02*
X332886D01*
X328532Y201537D02*
X332886D01*
X251663Y203339D02*
X251682Y203366D01*
X251741Y203446D01*
X245902Y203441D02*
X245970Y203347D01*
X245974Y203340D01*
X245956Y220886D02*
X245973Y220914D01*
X245897Y220806D02*
X245956Y220886D01*
X251668Y220905D02*
X251736Y220811D01*
X251664Y220912D02*
X251668Y220905D01*
X249618Y219816D02*
X249696Y219827D01*
X249788Y219869D01*
X249887Y219943D01*
X249971Y220026D01*
X250193Y220289D01*
X250380Y220529D01*
X250549Y220734D01*
X250696Y220885D01*
X250797Y220959D01*
X250879Y220984D01*
X246758D02*
X246864Y220945D01*
X247003Y220827D01*
X247187Y220618D01*
X247414Y220328D01*
X247532Y220179D01*
X247668Y220025D01*
X247763Y219934D01*
X247882Y219852D01*
X247959Y219823D01*
X248020Y219816D01*
X250831Y203277D02*
X250879Y203268D01*
X250774Y203307D02*
X250831Y203277D01*
X250709Y203356D02*
X250774Y203307D01*
X250635Y203425D02*
X250709Y203356D01*
X250548Y203519D02*
X250635Y203425D01*
X250451Y203634D02*
X250548Y203519D01*
X250343Y203770D02*
X250451Y203634D01*
X250223Y203924D02*
X250343Y203770D01*
X250106Y204072D02*
X250223Y203924D01*
X249970Y204227D02*
X250106Y204072D01*
X249925Y204273D02*
X249970Y204227D01*
X249875Y204318D02*
X249925Y204273D01*
X249819Y204362D02*
X249875Y204318D01*
X249756Y204400D02*
X249819Y204362D01*
X249719Y204417D02*
X249756Y204400D01*
X249679Y204429D02*
X249719Y204417D01*
X249649Y204434D02*
X249679Y204429D01*
X249618Y204436D02*
X249649Y204434D01*
X247966Y202285D02*
X249673Y202283D01*
X247965Y221968D02*
X249672Y221967D01*
X248020Y204436D02*
Y219816D01*
X244870Y205039D02*
Y219213D01*
X252768Y205039D02*
Y219213D01*
X249618Y204436D02*
Y219816D01*
X248020Y219287D02*
X249618D01*
X248020Y204965D02*
X249618D01*
X248020Y204436D02*
X249618D01*
X248020Y219816D02*
X249618D01*
X246642Y220984D02*
X250996D01*
X246642Y203268D02*
X250996D01*
X196803Y481650D02*
X196821Y481677D01*
X196744Y481570D02*
X196803Y481650D01*
X202515Y481669D02*
X202583Y481575D01*
X202511Y481676D02*
X202515Y481669D01*
X202511Y464102D02*
X202528Y464130D01*
X202588Y464210D01*
X196748Y464205D02*
X196816Y464111D01*
X196821Y464105D01*
X198789Y465189D02*
X198867Y465200D01*
X198697Y465147D02*
X198789Y465189D01*
X198597Y465073D02*
X198697Y465147D01*
X198513Y464990D02*
X198597Y465073D01*
X198292Y464727D02*
X198513Y464990D01*
X198104Y464487D02*
X198292Y464727D01*
X197935Y464282D02*
X198104Y464487D01*
X197788Y464131D02*
X197935Y464282D01*
X197688Y464058D02*
X197788Y464131D01*
X197605Y464032D02*
X197688Y464058D01*
X201621Y464071D02*
X201726Y464032D01*
X201482Y464189D02*
X201621Y464071D01*
X201298Y464398D02*
X201482Y464189D01*
X201070Y464688D02*
X201298Y464398D01*
X200952Y464837D02*
X201070Y464688D01*
X200817Y464991D02*
X200952Y464837D01*
X200722Y465083D02*
X200817Y464991D01*
X200603Y465165D02*
X200722Y465083D01*
X200526Y465193D02*
X200603Y465165D01*
X200465Y465200D02*
X200526Y465193D01*
X197605Y481748D02*
X197654Y481739D01*
X197710Y481709D01*
X197776Y481660D01*
X197850Y481591D01*
X197937Y481497D01*
X198034Y481382D01*
X198142Y481246D01*
X198261Y481092D01*
X198379Y480944D01*
X198514Y480789D01*
X198560Y480743D01*
X198610Y480698D01*
X198665Y480654D01*
X198729Y480616D01*
X198766Y480600D01*
X198806Y480587D01*
X198836Y480582D01*
X198867Y480580D01*
X198811Y482733D02*
X200519Y482731D01*
X198813Y463049D02*
X200520Y463048D01*
X200465Y465200D02*
Y480580D01*
X203614Y465804D02*
Y479977D01*
X195717Y465804D02*
Y479977D01*
X198867Y465200D02*
Y480580D01*
Y465729D02*
X200465D01*
X198867Y480052D02*
X200465D01*
X198867Y480580D02*
X200465D01*
X198867Y465200D02*
X200465D01*
X197489Y464032D02*
X201843D01*
X197489Y481748D02*
X201843D01*
X202510Y621535D02*
X202528Y621562D01*
X202588Y621642D01*
X196748Y621637D02*
X196816Y621543D01*
X196821Y621536D01*
X196803Y639082D02*
X196820Y639110D01*
X196744Y639002D02*
X196803Y639082D01*
X202515Y639101D02*
X202583Y639007D01*
X202511Y639108D02*
X202515Y639101D01*
X200465Y638012D02*
X200542Y638024D01*
X200634Y638065D01*
X200734Y638140D01*
X200818Y638222D01*
X201039Y638485D01*
X201227Y638725D01*
X201396Y638930D01*
X201543Y639081D01*
X201644Y639155D01*
X201726Y639180D01*
X197605D02*
X197710Y639141D01*
X197850Y639023D01*
X198034Y638814D01*
X198261Y638524D01*
X198379Y638375D01*
X198514Y638221D01*
X198610Y638130D01*
X198729Y638048D01*
X198806Y638019D01*
X198867Y638012D01*
X201678Y621474D02*
X201726Y621464D01*
X201621Y621503D02*
X201678Y621474D01*
X201555Y621552D02*
X201621Y621503D01*
X201482Y621621D02*
X201555Y621552D01*
X201394Y621716D02*
X201482Y621621D01*
X201298Y621830D02*
X201394Y621716D01*
X201190Y621966D02*
X201298Y621830D01*
X201070Y622120D02*
X201190Y621966D01*
X200953Y622268D02*
X201070Y622120D01*
X200817Y622423D02*
X200953Y622268D01*
X200771Y622469D02*
X200817Y622423D01*
X200722Y622514D02*
X200771Y622469D01*
X200666Y622558D02*
X200722Y622514D01*
X200603Y622596D02*
X200666Y622558D01*
X200566Y622613D02*
X200603Y622596D01*
X200526Y622625D02*
X200566Y622613D01*
X200496Y622630D02*
X200526Y622625D01*
X200465Y622632D02*
X200496Y622630D01*
X198813Y620481D02*
X200520Y620480D01*
X198811Y640165D02*
X200519Y640163D01*
X198867Y622632D02*
Y638012D01*
X195717Y623235D02*
Y637409D01*
X203614Y623235D02*
Y637409D01*
X200465Y622632D02*
Y638012D01*
X198867Y637484D02*
X200465D01*
X198867Y623161D02*
X200465D01*
X198867Y622632D02*
X200465D01*
X198867Y638012D02*
X200465D01*
X197489Y639180D02*
X201843D01*
X197489Y621464D02*
X201843D01*
X251663Y162473D02*
X251681Y162500D01*
X251740Y162580D01*
X245901Y162575D02*
X245969Y162481D01*
X245973Y162474D01*
X245956Y180020D02*
X245973Y180048D01*
X245896Y179940D02*
X245956Y180020D01*
X251668Y180039D02*
X251736Y179945D01*
X251663Y180045D02*
X251668Y180039D01*
X249617Y178950D02*
X249695Y178961D01*
X249787Y179003D01*
X249886Y179077D01*
X249971Y179160D01*
X250192Y179423D01*
X250380Y179663D01*
X250549Y179868D01*
X250696Y180019D01*
X250796Y180092D01*
X250879Y180118D01*
X246758D02*
X246863Y180079D01*
X247002Y179961D01*
X247186Y179752D01*
X247414Y179462D01*
X247532Y179313D01*
X247667Y179159D01*
X247762Y179067D01*
X247881Y178985D01*
X247958Y178957D01*
X248019Y178950D01*
X250830Y162411D02*
X250879Y162402D01*
X250774Y162441D02*
X250830Y162411D01*
X250708Y162490D02*
X250774Y162441D01*
X250634Y162559D02*
X250708Y162490D01*
X250547Y162653D02*
X250634Y162559D01*
X250450Y162768D02*
X250547Y162653D01*
X250342Y162904D02*
X250450Y162768D01*
X250223Y163058D02*
X250342Y162904D01*
X250105Y163206D02*
X250223Y163058D01*
X249970Y163361D02*
X250105Y163206D01*
X249924Y163407D02*
X249970Y163361D01*
X249874Y163452D02*
X249924Y163407D01*
X249819Y163496D02*
X249874Y163452D01*
X249755Y163534D02*
X249819Y163496D01*
X249718Y163550D02*
X249755Y163534D01*
X249678Y163563D02*
X249718Y163550D01*
X249648Y163568D02*
X249678Y163563D01*
X249617Y163570D02*
X249648Y163568D01*
X247965Y161419D02*
X249673Y161417D01*
X247964Y181102D02*
X249671Y181101D01*
X248019Y163570D02*
Y178950D01*
X244870Y164173D02*
Y178346D01*
X252767Y164173D02*
Y178346D01*
X249617Y163570D02*
Y178950D01*
X248019Y178421D02*
X249617D01*
X248019Y164098D02*
X249617D01*
X248019Y163570D02*
X249617D01*
X248019Y178950D02*
X249617D01*
X246641Y180118D02*
X250995D01*
X246641Y162402D02*
X250995D01*
X333553Y160505D02*
X333571Y160532D01*
X333630Y160612D01*
X327791Y160606D02*
X327859Y160512D01*
X327864Y160506D01*
X327846Y178051D02*
X327863Y178079D01*
X327787Y177971D02*
X327846Y178051D01*
X333558Y178071D02*
X333626Y177977D01*
X333553Y178077D02*
X333558Y178071D01*
X331508Y176981D02*
X331585Y176993D01*
X331677Y177035D01*
X331777Y177109D01*
X331861Y177192D01*
X332082Y177454D01*
X332270Y177695D01*
X332439Y177900D01*
X332586Y178050D01*
X332686Y178124D01*
X332769Y178150D01*
X328648D02*
X328753Y178111D01*
X328892Y177992D01*
X329076Y177783D01*
X329304Y177494D01*
X329422Y177345D01*
X329557Y177190D01*
X329652Y177099D01*
X329772Y177017D01*
X329849Y176989D01*
X329910Y176981D01*
X332721Y160443D02*
X332769Y160433D01*
X332664Y160472D02*
X332721Y160443D01*
X332598Y160522D02*
X332664Y160472D01*
X332525Y160591D02*
X332598Y160522D01*
X332437Y160685D02*
X332525Y160591D01*
X332341Y160800D02*
X332437Y160685D01*
X332233Y160936D02*
X332341Y160800D01*
X332113Y161089D02*
X332233Y160936D01*
X331995Y161237D02*
X332113Y161089D01*
X331860Y161393D02*
X331995Y161237D01*
X331814Y161439D02*
X331860Y161393D01*
X331765Y161484D02*
X331814Y161439D01*
X331709Y161527D02*
X331765Y161484D01*
X331645Y161566D02*
X331709Y161527D01*
X331609Y161582D02*
X331645Y161566D01*
X331568Y161594D02*
X331609Y161582D01*
X331539Y161600D02*
X331568Y161594D01*
X331508Y161601D02*
X331539Y161600D01*
X329855Y159450D02*
X331563Y159449D01*
X329854Y179134D02*
X331562Y179133D01*
X329910Y161601D02*
Y176981D01*
X326760Y162205D02*
Y176378D01*
X334657Y162205D02*
Y176378D01*
X331508Y161601D02*
Y176981D01*
X329910Y176453D02*
X331508D01*
X329910Y162130D02*
X331508D01*
X329910Y161601D02*
X331508D01*
X329910Y176981D02*
X331508D01*
X328532Y178150D02*
X332885D01*
X328532Y160433D02*
X332885D01*
X504813Y17934D02*
X504831Y17961D01*
X504890Y18041D01*
X499051Y18035D02*
X499119Y17941D01*
X499123Y17935D01*
X499106Y35480D02*
X499123Y35508D01*
X499047Y35400D02*
X499106Y35480D01*
X504818Y35500D02*
X504886Y35406D01*
X504813Y35506D02*
X504818Y35500D01*
X502768Y34410D02*
X502845Y34422D01*
X502937Y34464D01*
X503037Y34538D01*
X503121Y34621D01*
X503342Y34883D01*
X503530Y35124D01*
X503699Y35329D01*
X503846Y35479D01*
X503946Y35553D01*
X504029Y35579D01*
X499908D02*
X500013Y35540D01*
X500152Y35421D01*
X500336Y35212D01*
X500564Y34923D01*
X500682Y34774D01*
X500817Y34619D01*
X500912Y34528D01*
X501032Y34446D01*
X501109Y34418D01*
X501169Y34410D01*
X503980Y17872D02*
X504029Y17862D01*
X503924Y17901D02*
X503980Y17872D01*
X503858Y17951D02*
X503924Y17901D01*
X503785Y18020D02*
X503858Y17951D01*
X503697Y18114D02*
X503785Y18020D01*
X503601Y18229D02*
X503697Y18114D01*
X503493Y18365D02*
X503601Y18229D01*
X503373Y18518D02*
X503493Y18365D01*
X503256Y18666D02*
X503373Y18518D01*
X503120Y18822D02*
X503256Y18666D01*
X503074Y18868D02*
X503120Y18822D01*
X503024Y18913D02*
X503074Y18868D01*
X502969Y18956D02*
X503024Y18913D01*
X502905Y18995D02*
X502969Y18956D01*
X502869Y19011D02*
X502905Y18995D01*
X502828Y19023D02*
X502869Y19011D01*
X502799Y19029D02*
X502828Y19023D01*
X502768Y19030D02*
X502799Y19029D01*
X501115Y16879D02*
X502823Y16878D01*
X501114Y36563D02*
X502822Y36562D01*
X501169Y19030D02*
Y34410D01*
X498020Y19634D02*
Y33807D01*
X505917Y19634D02*
Y33807D01*
X502768Y19030D02*
Y34410D01*
X501169Y33882D02*
X502768D01*
X501169Y19559D02*
X502768D01*
X501169Y19030D02*
X502768D01*
X501169Y34410D02*
X502768D01*
X499791Y35579D02*
X504145D01*
X499791Y17862D02*
X504145D01*
X546480Y384914D02*
X546498Y384941D01*
X546557Y385021D01*
X540718Y385016D02*
X540786Y384922D01*
X540791Y384915D01*
X540773Y402461D02*
X540790Y402489D01*
X540714Y402381D02*
X540773Y402461D01*
X546485Y402480D02*
X546553Y402386D01*
X546481Y402487D02*
X546485Y402480D01*
X544434Y401391D02*
X544512Y401402D01*
X544604Y401444D01*
X544704Y401518D01*
X544788Y401601D01*
X545009Y401863D01*
X545197Y402104D01*
X545366Y402309D01*
X545513Y402459D01*
X545613Y402533D01*
X545696Y402559D01*
X541575D02*
X541680Y402520D01*
X541819Y402401D01*
X542003Y402193D01*
X542231Y401903D01*
X542349Y401754D01*
X542484Y401600D01*
X542580Y401509D01*
X542699Y401426D01*
X542776Y401398D01*
X542837Y401391D01*
X545647Y384852D02*
X545696Y384842D01*
X545591Y384882D02*
X545647Y384852D01*
X545525Y384931D02*
X545591Y384882D01*
X545451Y385000D02*
X545525Y384931D01*
X545364Y385094D02*
X545451Y385000D01*
X545268Y385209D02*
X545364Y385094D01*
X545160Y385345D02*
X545268Y385209D01*
X545040Y385499D02*
X545160Y385345D01*
X544922Y385647D02*
X545040Y385499D01*
X544787Y385802D02*
X544922Y385647D01*
X544741Y385848D02*
X544787Y385802D01*
X544692Y385893D02*
X544741Y385848D01*
X544636Y385936D02*
X544692Y385893D01*
X544572Y385975D02*
X544636Y385936D01*
X544536Y385992D02*
X544572Y385975D01*
X544495Y386004D02*
X544536Y385992D01*
X544465Y386009D02*
X544495Y386004D01*
X544434Y386011D02*
X544465Y386009D01*
X542782Y383859D02*
X544490Y383858D01*
X542781Y403543D02*
X544489Y403542D01*
X542837Y386011D02*
Y401391D01*
X539687Y386614D02*
Y400787D01*
X547584Y386614D02*
Y400787D01*
X544434Y386011D02*
Y401391D01*
X542837Y400862D02*
X544434D01*
X542837Y386539D02*
X544434D01*
X542837Y386011D02*
X544434D01*
X542837Y401391D02*
X544434D01*
X541459Y402559D02*
X545813D01*
X541459Y384842D02*
X545813D01*
D11*
X489500Y373902D02*
X511000D01*
X489500D02*
Y413402D01*
X511000D01*
Y373902D02*
Y413402D01*
X77650Y453140D02*
X99150D01*
X77650D02*
Y492640D01*
X99150D01*
Y453140D02*
Y492640D01*
X76764Y610572D02*
X98264D01*
X76764D02*
Y650072D01*
X98264D01*
Y610572D02*
Y650072D01*
X109146Y453140D02*
X130646D01*
X109146D02*
Y492640D01*
X130646D01*
Y453140D02*
Y492640D01*
X108260Y610572D02*
X129760D01*
X108260D02*
Y650072D01*
X129760D01*
Y610572D02*
Y650072D01*
D12*
X338937Y741732D02*
G03*
X338937Y741732I-12795J0D01*
G01*
X382677D02*
G03*
X382677Y741732I-12795J0D01*
G01*
X322892Y706102D02*
X395551D01*
Y785925D01*
X331455D02*
X395551D01*
X300473Y706102D02*
X322892D01*
X308349Y785925D02*
X323753D01*
X300473Y706102D02*
Y785925D01*
X308349D01*
X323753D02*
X331455D01*
X14272Y339016D02*
G03*
X14272Y339016I-394J0D01*
G01*
D02*
G03*
X14272Y339016I-394J0D01*
G01*
X38681Y295276D02*
Y334646D01*
X-689Y295276D02*
X38681D01*
X-689D02*
Y334646D01*
X38681D01*
X-38091Y331299D02*
X-689D01*
X-38091Y298622D02*
Y331299D01*
Y298622D02*
X-689D01*
X348012Y739764D02*
Y743701D01*
X346043Y741732D02*
X349980D01*
X290925Y698130D02*
X405098D01*
Y791634D01*
X290925D02*
X405098D01*
X290925Y698130D02*
Y791634D01*
D14*
X42618Y342717D02*
Y369246D01*
X29626Y329724D02*
X42618Y342717D01*
X22100Y389764D02*
X42618Y369246D01*
X19685Y585143D02*
X28750Y594208D01*
X19685Y524139D02*
Y585143D01*
Y524139D02*
X28750Y515074D01*
X27174D02*
X28750D01*
X22100Y510000D02*
X27174Y515074D01*
X22100Y389764D02*
X22100Y510000D01*
D18*
X301775Y371570D02*
G03*
X301775Y355438I-6302J-8066D01*
G01*
X301282Y424011D02*
G03*
X301282Y407879I-6302J-8066D01*
G01*
X451184Y363854D02*
G03*
X451184Y347721I-6302J-8066D01*
G01*
Y440547D02*
G03*
X451184Y424414I-6302J-8066D01*
G01*
X125948Y342727D02*
G03*
X125948Y326594I-6302J-8066D01*
G01*
X125948Y303716D02*
G03*
X125948Y287583I-6302J-8066D01*
G01*
X31359Y667520D02*
X33819Y665059D01*
X27717Y667520D02*
X33819D01*
X27717Y656890D02*
Y667520D01*
Y656890D02*
X33819D01*
Y667520D01*
X28996Y508472D02*
X32540D01*
X28996Y515165D02*
X32540D01*
X28996Y508472D02*
Y515165D01*
X32540Y508472D02*
Y515165D01*
X28996Y587606D02*
X32540D01*
X28996Y594298D02*
X32540D01*
X28996Y587606D02*
Y594298D01*
X32540Y587606D02*
Y594298D01*
X61280Y468756D02*
Y477024D01*
X55965Y468756D02*
Y477024D01*
X61280D01*
X55965Y468756D02*
X61280D01*
Y626188D02*
Y634456D01*
X55965Y626188D02*
Y634456D01*
X61280D01*
X55965Y626188D02*
X61280D01*
X81063Y570972D02*
X96418D01*
Y531995D02*
Y570972D01*
X81063Y531995D02*
X96418D01*
X81063D02*
Y570972D01*
Y565972D02*
X86063Y570972D01*
X85445Y518050D02*
X90658D01*
Y506554D02*
Y518050D01*
X85445Y506554D02*
X90658D01*
X85445D02*
Y518050D01*
Y514310D02*
X89185Y518050D01*
X85445Y596700D02*
X90658D01*
Y585204D02*
Y596700D01*
X85445Y585204D02*
X90658D01*
X85445D02*
Y596700D01*
Y592960D02*
X89185Y596700D01*
X117059Y517566D02*
X122272D01*
Y506070D02*
Y517566D01*
X117059Y506070D02*
X122272D01*
X117059D02*
Y517566D01*
Y513826D02*
X120800Y517566D01*
X117059Y596700D02*
X122272D01*
Y585204D02*
Y596700D01*
X117059Y585204D02*
X122272D01*
X117059D02*
Y596700D01*
Y592960D02*
X120799Y596700D01*
X56016Y517566D02*
X61229D01*
Y506070D02*
Y517566D01*
X56016Y506070D02*
X61229D01*
X56016D02*
Y517566D01*
Y513826D02*
X59756Y517566D01*
X56016Y596700D02*
X61229D01*
Y585204D02*
Y596700D01*
X56016Y585204D02*
X61229D01*
X56016D02*
Y596700D01*
Y592960D02*
X59756Y596700D01*
X587402Y390249D02*
X589772Y387879D01*
X580039Y390249D02*
X589803D01*
X580039Y359541D02*
Y390249D01*
Y359541D02*
X589803D01*
Y390249D01*
X587402Y427703D02*
X589772Y425333D01*
X580039Y427703D02*
X589803D01*
X580039Y396995D02*
Y427703D01*
Y396995D02*
X589803D01*
Y427703D01*
X301772Y355438D02*
Y371570D01*
X301280Y407879D02*
Y424011D01*
X349362Y260835D02*
X351732Y258465D01*
X349331D02*
X359095D01*
Y289173D01*
X349331D02*
X359095D01*
X349331Y258465D02*
Y289173D01*
X349362Y503276D02*
X351732Y500906D01*
X349331D02*
X359095D01*
Y531614D01*
X349331D02*
X359095D01*
X349331Y500906D02*
Y531614D01*
X451181Y347721D02*
Y363854D01*
Y424414D02*
Y440547D01*
X587402Y352795D02*
X589772Y350425D01*
X580039Y352795D02*
X589803D01*
X580039Y322087D02*
Y352795D01*
Y322087D02*
X589803D01*
Y352795D01*
X587402Y465157D02*
X589772Y462787D01*
X580039Y465157D02*
X589803D01*
X580039Y434449D02*
Y465157D01*
Y434449D02*
X589803D01*
Y465157D01*
X424350Y133779D02*
X426720Y131409D01*
X416988Y133779D02*
X426752D01*
X416988Y103071D02*
Y133779D01*
Y103071D02*
X426752D01*
Y133779D01*
X423268Y678346D02*
X425638Y675976D01*
X415905Y678346D02*
X425669D01*
X415905Y647638D02*
Y678346D01*
Y647638D02*
X425669D01*
Y678346D01*
X125945Y326594D02*
Y342727D01*
Y287583D02*
Y303716D01*
X31359Y488744D02*
X33819Y486284D01*
X27717Y488744D02*
X33819D01*
X27717Y478114D02*
Y488744D01*
Y478114D02*
X33819D01*
Y488744D01*
X31949Y449291D02*
X34410Y446831D01*
X28308Y449291D02*
X34410D01*
X28308Y438661D02*
Y449291D01*
Y438661D02*
X34410D01*
Y449291D01*
X31359Y635532D02*
X33819Y633071D01*
X27717Y635532D02*
X33819D01*
X27717Y624902D02*
Y635532D01*
Y624902D02*
X33819D01*
Y635532D01*
X359921Y320512D02*
Y361063D01*
X345748Y320512D02*
X364843D01*
X345748Y361063D02*
X364843D01*
Y320512D02*
Y361063D01*
X345748Y320512D02*
Y361063D01*
X359921Y427205D02*
Y467756D01*
X345748Y427205D02*
X364843D01*
X345748Y467756D02*
X364843D01*
Y427205D02*
Y467756D01*
X345748Y427205D02*
Y467756D01*
X30768Y510046D02*
Y513590D01*
X28996Y511818D02*
X32540D01*
X30768Y589180D02*
Y592724D01*
X28996Y590952D02*
X32540D01*
X56654Y472890D02*
X60591D01*
X58622Y470922D02*
Y474859D01*
X56654Y630322D02*
X60591D01*
X58622Y628354D02*
Y632291D01*
X295472Y361535D02*
Y365472D01*
X293504Y363504D02*
X297441D01*
X294980Y413976D02*
Y417913D01*
X293012Y415945D02*
X296949D01*
X444882Y353819D02*
Y357756D01*
X442913Y355787D02*
X446850D01*
X444882Y430512D02*
Y434449D01*
X442913Y432480D02*
X446850D01*
X42618Y288311D02*
Y341610D01*
X-42028Y288311D02*
X42618D01*
X-42028D02*
Y341610D01*
X42618D01*
X117678Y334660D02*
X121615D01*
X119646Y332692D02*
Y336629D01*
X117677Y295650D02*
X121614D01*
X119646Y293681D02*
Y297618D01*
X354331Y338819D02*
Y342756D01*
X352362Y340787D02*
X356299D01*
X354331Y445512D02*
Y449449D01*
X352362Y447480D02*
X356299D01*
D24*
X24705Y331693D02*
X34547D01*
X24705Y327756D02*
Y331693D01*
Y327756D02*
X34547D01*
Y331693D01*
X24705Y302165D02*
X34547D01*
X24705Y298228D02*
Y302165D01*
Y298228D02*
X34547D01*
Y302165D01*
X12500Y319882D02*
X17618D01*
X12500Y310039D02*
Y319882D01*
Y310039D02*
X17618D01*
Y319882D01*
X508500Y404852D02*
G03*
X508500Y404852I-500J0D01*
G01*
X499500Y379902D02*
G03*
X499500Y379902I-4000J0D01*
G01*
X96650Y484090D02*
G03*
X96650Y484090I-500J0D01*
G01*
X87650Y459140D02*
G03*
X87650Y459140I-4000J0D01*
G01*
X95764Y641522D02*
G03*
X95764Y641522I-500J0D01*
G01*
X86764Y616572D02*
G03*
X86764Y616572I-4000J0D01*
G01*
X128146Y484090D02*
G03*
X128146Y484090I-500J0D01*
G01*
X119146Y459140D02*
G03*
X119146Y459140I-4000J0D01*
G01*
X127260Y641522D02*
G03*
X127260Y641522I-500J0D01*
G01*
X118260Y616572D02*
G03*
X118260Y616572I-4000J0D01*
G01*
D25*
X8258Y329724D02*
Y326561D01*
X8610Y325507D01*
X8961Y325156D01*
X9664Y324804D01*
X10719D01*
X11422Y325156D01*
X11773Y325507D01*
X12124Y326561D01*
Y329724D01*
X4744D01*
X10367Y317881D02*
X11070Y318232D01*
X11773Y318935D01*
X12124Y319638D01*
Y321044D01*
X11773Y321747D01*
X11070Y322449D01*
X10367Y322801D01*
X9313Y323152D01*
X7556D01*
X6501Y322801D01*
X5798Y322449D01*
X5096Y321747D01*
X4744Y321044D01*
Y319638D01*
X5096Y318935D01*
X5798Y318232D01*
X6501Y317881D01*
X12124Y315807D02*
X4744D01*
X12124D02*
Y312644D01*
X11773Y311590D01*
X11422Y311239D01*
X10719Y310887D01*
X10016D01*
X9313Y311239D01*
X8961Y311590D01*
X8610Y312644D01*
Y315807D02*
Y312644D01*
X8258Y311590D01*
X7907Y311239D01*
X7204Y310887D01*
X6150D01*
X5447Y311239D01*
X5096Y311590D01*
X4744Y312644D01*
Y315807D01*
X12124Y298868D02*
Y303436D01*
X4744D01*
Y298868D01*
X8610Y303436D02*
Y300625D01*
X12124Y297638D02*
X4744D01*
X12124D02*
Y295178D01*
X11773Y294123D01*
X11070Y293420D01*
X10367Y293069D01*
X9313Y292717D01*
X7556D01*
X6501Y293069D01*
X5798Y293420D01*
X5096Y294123D01*
X4744Y295178D01*
Y297638D01*
X10367Y285794D02*
X11070Y286145D01*
X11773Y286848D01*
X12124Y287551D01*
Y288957D01*
X11773Y289660D01*
X11070Y290363D01*
X10367Y290714D01*
X9313Y291066D01*
X7556D01*
X6501Y290714D01*
X5798Y290363D01*
X5096Y289660D01*
X4744Y288957D01*
Y287551D01*
X5096Y286848D01*
X5798Y286145D01*
X6501Y285794D01*
X7556D01*
Y287551D02*
Y285794D01*
X12124Y279538D02*
Y284107D01*
X4744D01*
Y279538D01*
X8610Y284107D02*
Y281295D01*
X8258Y329724D02*
Y326561D01*
X8610Y325507D01*
X8961Y325156D01*
X9664Y324804D01*
X10719D01*
X11422Y325156D01*
X11773Y325507D01*
X12124Y326561D01*
Y329724D01*
X4744D01*
X10367Y317881D02*
X11070Y318232D01*
X11773Y318935D01*
X12124Y319638D01*
Y321044D01*
X11773Y321747D01*
X11070Y322449D01*
X10367Y322801D01*
X9313Y323152D01*
X7556D01*
X6501Y322801D01*
X5798Y322449D01*
X5096Y321747D01*
X4744Y321044D01*
Y319638D01*
X5096Y318935D01*
X5798Y318232D01*
X6501Y317881D01*
X12124Y315807D02*
X4744D01*
X12124D02*
Y312644D01*
X11773Y311590D01*
X11422Y311239D01*
X10719Y310887D01*
X10016D01*
X9313Y311239D01*
X8961Y311590D01*
X8610Y312644D01*
Y315807D02*
Y312644D01*
X8258Y311590D01*
X7907Y311239D01*
X7204Y310887D01*
X6150D01*
X5447Y311239D01*
X5096Y311590D01*
X4744Y312644D01*
Y315807D01*
X12124Y298868D02*
Y303436D01*
X4744D01*
Y298868D01*
X8610Y303436D02*
Y300625D01*
X12124Y297638D02*
X4744D01*
X12124D02*
Y295178D01*
X11773Y294123D01*
X11070Y293420D01*
X10367Y293069D01*
X9313Y292717D01*
X7556D01*
X6501Y293069D01*
X5798Y293420D01*
X5096Y294123D01*
X4744Y295178D01*
Y297638D01*
X10367Y285794D02*
X11070Y286145D01*
X11773Y286848D01*
X12124Y287551D01*
Y288957D01*
X11773Y289660D01*
X11070Y290363D01*
X10367Y290714D01*
X9313Y291066D01*
X7556D01*
X6501Y290714D01*
X5798Y290363D01*
X5096Y289660D01*
X4744Y288957D01*
Y287551D01*
X5096Y286848D01*
X5798Y286145D01*
X6501Y285794D01*
X7556D01*
Y287551D02*
Y285794D01*
X12124Y279538D02*
Y284107D01*
X4744D01*
Y279538D01*
X8610Y284107D02*
Y281295D01*
D26*
X61754Y227461D02*
G03*
X61754Y227461I-2994J0D01*
G01*
Y187087D02*
G03*
X61754Y187087I-2994J0D01*
G01*
X61753Y43307D02*
G03*
X61753Y43307I-2994J0D01*
G01*
X61754Y106299D02*
G03*
X61754Y106299I-2994J0D01*
G01*
X266773Y741732D02*
G03*
X266773Y741732I-2994J0D01*
G01*
X32620Y361024D02*
G03*
X32620Y361024I-2994J0D01*
G01*
X199844Y331004D02*
G03*
X199844Y331004I-2994J0D01*
G01*
X61754Y146693D02*
G03*
X61754Y146693I-2994J0D01*
G01*
X199844Y293596D02*
G03*
X199844Y293596I-2994J0D01*
G01*
X61616Y413787D02*
G03*
X61616Y413787I-2994J0D01*
G01*
X60769Y689279D02*
G03*
X60769Y689279I-2994J0D01*
G01*
X34352Y413787D02*
G03*
X34352Y413787I-2994J0D01*
G01*
X33762Y689279D02*
G03*
X33762Y689279I-2994J0D01*
G01*
X122640Y413787D02*
G03*
X122640Y413787I-2994J0D01*
G01*
X121754Y689279D02*
G03*
X121754Y689279I-2994J0D01*
G01*
X148919Y414869D02*
G03*
X148919Y414869I-2994J0D01*
G01*
X148919Y689476D02*
G03*
X148919Y689476I-2994J0D01*
G01*
X357325Y157480D02*
G03*
X357325Y157480I-2994J0D01*
G01*
Y629528D02*
G03*
X357325Y629528I-2994J0D01*
G01*
X496104Y221063D02*
G03*
X496104Y221063I-2994J0D01*
G01*
X495907Y561221D02*
G03*
X495907Y561221I-2994J0D01*
G01*
D27*
X24174Y672146D02*
X37362D01*
X24174Y652264D02*
Y672146D01*
Y652264D02*
X37362D01*
Y672146D01*
X28012Y506318D02*
X33524D01*
X28012Y517318D02*
X33524D01*
X28012Y506318D02*
Y517318D01*
X33524Y506318D02*
Y517318D01*
X28012Y585452D02*
X33524D01*
X28012Y596452D02*
X33524D01*
X28012Y585452D02*
Y596452D01*
X33524Y585452D02*
Y596452D01*
X62363Y465890D02*
Y479890D01*
X54882Y465890D02*
Y479890D01*
X62363D01*
X54882Y465890D02*
X62363D01*
Y623322D02*
Y637322D01*
X54882Y623322D02*
Y637322D01*
X62363D01*
X54882Y623322D02*
X62363D01*
X73977Y572153D02*
X103504D01*
Y530814D02*
Y572153D01*
X73977Y530814D02*
X103504D01*
X73977D02*
Y572153D01*
X80374Y519428D02*
X95729D01*
Y505176D02*
Y519428D01*
X80374Y505176D02*
X95729D01*
X80374D02*
Y519428D01*
Y598078D02*
X95729D01*
Y583826D02*
Y598078D01*
X80374Y583826D02*
X95729D01*
X80374D02*
Y598078D01*
X111988Y518944D02*
X127343D01*
Y504692D02*
Y518944D01*
X111988Y504692D02*
X127343D01*
X111988D02*
Y518944D01*
Y598078D02*
X127343D01*
Y583826D02*
Y598078D01*
X111988Y583826D02*
X127343D01*
X111988D02*
Y598078D01*
X50945Y518944D02*
X66300D01*
Y504692D02*
Y518944D01*
X50945Y504692D02*
X66300D01*
X50945D02*
Y518944D01*
Y598078D02*
X66300D01*
Y583826D02*
Y598078D01*
X50945Y583826D02*
X66300D01*
X50945D02*
Y598078D01*
X579114Y391234D02*
X590433D01*
X579114Y358556D02*
Y391234D01*
Y358556D02*
X590433D01*
Y391234D01*
X579114Y428688D02*
X590433D01*
X579114Y396010D02*
Y428688D01*
Y396010D02*
X590433D01*
Y428688D01*
X348701Y257480D02*
X360020D01*
Y290157D01*
X348701D02*
X360020D01*
X348701Y257480D02*
Y290157D01*
Y499921D02*
X360020D01*
Y532598D01*
X348701D02*
X360020D01*
X348701Y499921D02*
Y532598D01*
X579114Y353780D02*
X590433D01*
X579114Y321102D02*
Y353780D01*
Y321102D02*
X590433D01*
Y353780D01*
X579114Y466142D02*
X590433D01*
X579114Y433465D02*
Y466142D01*
Y433465D02*
X590433D01*
Y466142D01*
X416063Y134764D02*
X427382D01*
X416063Y102087D02*
Y134764D01*
Y102087D02*
X427382D01*
Y134764D01*
X414980Y679330D02*
X426299D01*
X414980Y646653D02*
Y679330D01*
Y646653D02*
X426299D01*
Y679330D01*
X24174Y493370D02*
X37363D01*
X24174Y473488D02*
Y493370D01*
Y473488D02*
X37363D01*
Y493370D01*
X24764Y453917D02*
X37953D01*
X24764Y434035D02*
Y453917D01*
Y434035D02*
X37953D01*
Y453917D01*
X24173Y640157D02*
X37362D01*
X24173Y620276D02*
Y640157D01*
Y620276D02*
X37362D01*
Y640157D01*
X344764Y319528D02*
X365827D01*
X344764Y362047D02*
X365827D01*
Y319528D02*
Y362047D01*
X344764Y319528D02*
Y362047D01*
Y426221D02*
X365827D01*
X344764Y468740D02*
X365827D01*
Y426221D02*
Y468740D01*
X344764Y426221D02*
Y468740D01*
X590378Y41929D02*
Y123425D01*
X567543Y41929D02*
X590378D01*
X567543D02*
Y123425D01*
X590378D01*
Y663976D02*
Y745472D01*
X567543Y663976D02*
X590378D01*
X567543D02*
Y745472D01*
X590378D01*
Y231732D02*
Y313228D01*
X567543Y231732D02*
X590378D01*
X567543D02*
Y313228D01*
X590378D01*
Y474016D02*
Y555512D01*
X567543Y474016D02*
X590378D01*
X567543D02*
Y555512D01*
X590378D01*
Y136831D02*
Y218327D01*
X567543Y136831D02*
X590378D01*
X567543D02*
Y218327D01*
X590378D01*
Y568996D02*
Y650492D01*
X567543Y568996D02*
X590378D01*
X567543D02*
Y650492D01*
X590378D01*
X-39075Y335630D02*
X39665D01*
X-39075Y294291D02*
Y335630D01*
Y294291D02*
X39665D01*
Y335630D01*
D28*
X30768Y655709D02*
D03*
Y668701D02*
D03*
Y476933D02*
D03*
Y489925D02*
D03*
X31359Y437480D02*
D03*
Y450472D02*
D03*
X30768Y623720D02*
D03*
Y636713D02*
D03*
D29*
Y508562D02*
D03*
Y515074D02*
D03*
Y587696D02*
D03*
Y594208D02*
D03*
D30*
X58622Y476933D02*
D03*
Y468847D02*
D03*
Y634365D02*
D03*
Y626279D02*
D03*
D31*
X78012Y568983D02*
D03*
Y563983D02*
D03*
Y558983D02*
D03*
Y553983D02*
D03*
Y548983D02*
D03*
Y543983D02*
D03*
Y538983D02*
D03*
Y533983D02*
D03*
X99469D02*
D03*
Y538983D02*
D03*
Y543983D02*
D03*
Y548983D02*
D03*
Y553983D02*
D03*
Y558983D02*
D03*
Y563983D02*
D03*
Y568983D02*
D03*
D32*
X83327Y516043D02*
D03*
Y508562D02*
D03*
X92776Y512302D02*
D03*
X83327Y594692D02*
D03*
Y587212D02*
D03*
X92776Y590952D02*
D03*
X114941Y515558D02*
D03*
Y508078D02*
D03*
X124390Y511818D02*
D03*
X114941Y594692D02*
D03*
Y587212D02*
D03*
X124390Y590952D02*
D03*
X53898Y515558D02*
D03*
Y508078D02*
D03*
X63347Y511818D02*
D03*
X53898Y594692D02*
D03*
Y587212D02*
D03*
X63347Y590952D02*
D03*
D67*
X450943Y42624D02*
X463638D01*
X425197Y16878D02*
X450943Y42624D01*
X417232Y16878D02*
X425197D01*
X417232D02*
X417233Y16879D01*
X463638Y42624D02*
X484252Y63238D01*
X359776Y45854D02*
X374618Y31012D01*
X428558Y90551D02*
X458570Y60539D01*
X423827Y90551D02*
X428558D01*
X238666D02*
X423827D01*
X472704Y16878D02*
X501968D01*
X458570Y31012D02*
X472704Y16878D01*
X58760Y106299D02*
X222918D01*
X17874D02*
X58760D01*
X17874Y146693D02*
X58760D01*
X338681Y757972D02*
X426476D01*
X326142Y745433D02*
X338681Y757972D01*
X326142Y726575D02*
Y745433D01*
X460630Y397589D02*
Y723819D01*
X426476Y757972D02*
X460630Y723819D01*
X269390Y45854D02*
X359776D01*
X248819Y66425D02*
X269390Y45854D01*
X222918Y106299D02*
X238666Y90551D01*
X175230Y121713D02*
X401870D01*
X140499Y156443D02*
X175230Y121713D01*
X484252Y63238D02*
Y118110D01*
X460630Y141732D02*
X484252Y118110D01*
X409449Y141732D02*
X460630D01*
X401870Y134153D02*
X409449Y141732D01*
X401870Y121713D02*
Y134153D01*
X94987Y156443D02*
X140499D01*
X85237Y146693D02*
X94987Y156443D01*
X58760Y146693D02*
X85237D01*
X492913Y539567D02*
X493110Y539370D01*
X492913Y539567D02*
Y561220D01*
X567520Y264803D02*
X575197Y272480D01*
X500000Y264803D02*
X567520D01*
X493110Y221063D02*
Y244488D01*
Y257913D01*
X500000Y264803D01*
X473646Y393652D02*
Y409669D01*
Y374189D02*
Y393652D01*
X460630Y397589D02*
X464567Y393652D01*
X473646D01*
Y409669D02*
X493110Y429134D01*
X473646Y374189D02*
X493110Y354724D01*
X575197Y491788D02*
Y493307D01*
X544773Y461365D02*
X575197Y491788D01*
X531496Y461365D02*
X544773D01*
X493110Y499750D02*
X531496Y461365D01*
X493110Y499750D02*
Y539370D01*
D68*
X354331Y525276D02*
X359800Y519806D01*
Y478501D02*
Y519806D01*
X352325Y516260D02*
X354331D01*
X348900Y519685D02*
X352325Y516260D01*
X88150Y204764D02*
X88150D01*
X76437D02*
X88150D01*
X58760Y187087D02*
X76437Y204764D01*
X294000Y368504D02*
Y400700D01*
X58412Y487800D02*
X73455D01*
X53193Y482581D02*
X58412Y487800D01*
X53193Y474989D02*
Y482581D01*
Y474989D02*
X54882Y473300D01*
X61550D01*
X58622Y476933D02*
X69067D01*
X114900Y594692D02*
Y613000D01*
X111158Y616742D02*
Y622146D01*
X114413Y625400D01*
X124838D01*
X114900Y594692D02*
X114941D01*
X111158Y616742D02*
X114900Y613000D01*
X124838Y625400D02*
X129232Y629794D01*
Y693799D01*
X122441Y700591D02*
X129232Y693799D01*
X56004Y700591D02*
X122441D01*
X27700Y672287D02*
X56004Y700591D01*
X27700Y633068D02*
Y672287D01*
X83300Y516043D02*
Y518900D01*
X52193Y683696D02*
X57776Y689278D01*
X37198Y668701D02*
X52193Y683696D01*
X70600Y514100D02*
Y515600D01*
X30768Y668701D02*
X37198D01*
X154968Y287332D02*
X161200Y281100D01*
X154968Y287332D02*
Y295868D01*
X164370Y285650D02*
X196850Y318130D01*
X154968Y295868D02*
X170800Y311700D01*
X60000Y290650D02*
X98425D01*
X106299Y298524D01*
Y334699D01*
X98425Y290650D02*
X119646D01*
X106299Y334699D02*
X117400Y345800D01*
X47358Y389636D02*
X58622Y400900D01*
X47358Y303291D02*
Y389636D01*
Y303291D02*
X60000Y290650D01*
X58622Y400900D02*
Y413787D01*
X283322Y534200D02*
X288453Y539331D01*
X236969Y541521D02*
X244290Y534200D01*
X283322D01*
X543636Y383366D02*
X553937D01*
X543635Y403543D02*
X548425Y408333D01*
X535433Y403702D02*
X543636Y395500D01*
X564200D01*
X548425Y408333D02*
Y412817D01*
X553500Y410300D02*
X566900D01*
X550000Y414392D02*
X566278D01*
X553600Y390700D02*
X559982D01*
X531496Y405550D02*
Y411096D01*
X531343Y405397D02*
X531496Y405550D01*
X531343Y402008D02*
Y405397D01*
Y402008D02*
X531496Y401855D01*
Y393602D02*
Y401855D01*
X527100Y379700D02*
Y425700D01*
X531496Y411096D02*
X546100Y425700D01*
X71194Y514100D02*
X79700Y505594D01*
X70600Y514100D02*
X71194D01*
X63347Y511818D02*
X63381Y508964D01*
X69067Y503412D01*
X54300Y468847D02*
X58622D01*
X38855D02*
X54300D01*
X85237Y146693D02*
X89907D01*
X58760D02*
X85237D01*
X581700Y529717D02*
X584803Y526614D01*
X111917Y553983D02*
X128426D01*
X449300Y437480D02*
Y536310D01*
X29800Y450400D02*
X31359D01*
X29300Y438500D02*
X31359D01*
X87264Y129200D02*
X88800D01*
X53300Y508078D02*
Y509628D01*
X123500Y581100D02*
Y590952D01*
X102717Y568983D02*
X111383D01*
X99469D02*
X102717D01*
X124100Y511818D02*
Y530000D01*
X78000Y568983D02*
Y585212D01*
X81949Y508562D02*
Y511551D01*
X92700Y590952D02*
Y606400D01*
X409500Y545248D02*
X414535Y550283D01*
X580400Y377200D02*
X584803D01*
X287200Y480625D02*
X294390Y487815D01*
X287200Y271500D02*
Y480625D01*
Y271500D02*
X338300Y220400D01*
Y155000D02*
Y220400D01*
X333000Y149700D02*
X338300Y155000D01*
X307854Y149700D02*
X333000D01*
X290584Y166970D02*
X307854Y149700D01*
X346100Y601100D02*
X354331Y609331D01*
X346100Y539525D02*
Y601100D01*
X294390Y487815D02*
X346100Y539525D01*
X117400Y345800D02*
X154968D01*
X164764Y336004D01*
X199666Y640165D02*
X205100Y634730D01*
Y301845D02*
Y634730D01*
X196850Y293595D02*
X205100Y301845D01*
X50300Y594692D02*
X53898D01*
X48158Y592550D02*
X50300Y594692D01*
X48158Y474989D02*
Y592550D01*
Y474989D02*
X54300Y468847D01*
X30768Y476933D02*
X38855Y468847D01*
X141500Y488465D02*
X145926Y492890D01*
X141500Y419295D02*
Y488465D01*
Y419295D02*
X145926Y414869D01*
X196850Y331004D02*
Y460232D01*
X199666Y463048D01*
X55000Y626279D02*
X58622D01*
X52193Y629086D02*
X55000Y626279D01*
X52193Y629086D02*
Y683696D01*
X79700Y505594D02*
X86886D01*
Y514856D01*
X83327Y516043D02*
X86886Y514856D01*
X53898Y515558D02*
X69100D01*
X83300Y516043D02*
X83327D01*
X83300Y518900D02*
X86900Y522500D01*
Y607012D01*
X67633Y626279D02*
X86900Y607012D01*
X58622Y626279D02*
X67633D01*
X269449Y595322D02*
X273900Y599773D01*
Y731612D01*
X263780Y741732D02*
X273900Y731612D01*
X415618Y278354D02*
X421752Y284488D01*
X415618Y184087D02*
Y278354D01*
Y184087D02*
X421752Y177953D01*
X28750Y515074D02*
X30768D01*
X92776Y487566D02*
Y512302D01*
X88150Y482940D02*
X92776Y487566D01*
X307457Y558335D02*
Y569331D01*
X288453Y539331D02*
X307457Y558335D01*
X94383Y563983D02*
X99469D01*
X92200Y561800D02*
X94383Y563983D01*
X92200Y522900D02*
Y561800D01*
X89067Y519767D02*
X92200Y522900D01*
X89067Y503412D02*
Y519767D01*
X73455Y487800D02*
X89067Y503412D01*
X61550Y473300D02*
X66200Y468650D01*
Y308326D02*
Y468650D01*
X59055Y301181D02*
X66200Y308326D01*
X531496Y244488D02*
X545308Y258300D01*
X578700D01*
X581700Y261300D01*
Y287434D01*
X575197Y293937D02*
X581700Y287434D01*
X584803Y346457D02*
Y352500D01*
X553937Y383366D02*
X584803Y352500D01*
X575197Y293937D02*
Y336850D01*
X584803Y346457D01*
Y458819D02*
Y526614D01*
X385827Y519941D02*
Y551575D01*
X420669Y586417D01*
X145926Y552546D02*
Y571483D01*
Y552546D02*
X166988Y531483D01*
X537538Y430262D02*
X567462D01*
X570400Y433200D01*
X434100Y559947D02*
X444882Y570728D01*
X434100Y520000D02*
Y559947D01*
X428200Y514100D02*
X434100Y520000D01*
X419300Y514100D02*
X428200D01*
X416716Y511516D02*
X419300Y514100D01*
X416716Y507184D02*
Y511516D01*
Y507184D02*
X420300Y503600D01*
X422500D01*
X424622Y501478D01*
Y470350D02*
Y501478D01*
X421752Y467480D02*
X424622Y470350D01*
X584803Y248503D02*
Y328425D01*
X527600Y191300D02*
X584803Y248503D01*
X269449Y539243D02*
X288453Y558247D01*
Y569331D01*
X326461Y558334D02*
Y569331D01*
X307457Y539331D02*
X326461Y558334D01*
X27700Y633068D02*
X30768Y630000D01*
Y623720D02*
Y630000D01*
X330413Y449114D02*
X359800Y478501D01*
X575197Y726181D02*
X581700Y719678D01*
Y637704D02*
Y719678D01*
X575197Y631201D02*
X581700Y637704D01*
X575197Y199035D02*
X581700Y192532D01*
Y110637D02*
Y192532D01*
X575197Y104134D02*
X581700Y110637D01*
X493110Y126390D02*
Y156496D01*
Y126390D02*
X525300Y94200D01*
X565263D01*
X575197Y104134D01*
X527100Y322061D02*
X531496Y326457D01*
X527100Y281750D02*
Y322061D01*
Y281750D02*
X536370Y272480D01*
X575197D01*
X440570Y432480D02*
X444882D01*
X439300Y433750D02*
X440570Y432480D01*
X439300Y433750D02*
Y461899D01*
X444882Y467480D01*
X354331Y177953D02*
X358700Y182322D01*
Y260434D01*
X354331Y264803D02*
X358700Y260434D01*
X564200Y395500D02*
X569600Y400900D01*
X559982Y390700D02*
X584803Y365879D01*
X53898Y587212D02*
X57500D01*
X70000Y574712D01*
Y561483D02*
Y574712D01*
Y561483D02*
X72500Y558983D01*
X78012D01*
X118760Y591031D02*
Y620372D01*
X114941Y587212D02*
X118760Y591031D01*
X69067Y476933D02*
X77700Y468300D01*
X115006D01*
X119646Y472940D01*
X350400Y650800D02*
X380400Y620800D01*
Y505368D02*
Y620800D01*
Y505368D02*
X385827Y499941D01*
X87264Y640372D02*
X118760Y671868D01*
Y689279D01*
X568251Y420600D02*
X570751Y418100D01*
X554200Y420600D02*
X568251D01*
X385827Y398255D02*
Y410673D01*
X381400Y415100D02*
X385827Y410673D01*
X381400Y415100D02*
Y463054D01*
X385827Y467480D01*
X409500Y491154D01*
Y545248D01*
X414535Y550283D02*
X420669Y556417D01*
X414535Y505504D02*
Y550283D01*
Y505504D02*
X420669Y499370D01*
X584803Y374895D02*
Y377200D01*
X574700Y382900D02*
X580400Y377200D01*
X574700Y382900D02*
Y402500D01*
X566900Y410300D02*
X574700Y402500D01*
X385827Y388412D02*
X390200Y384039D01*
Y325161D02*
Y384039D01*
X385827Y320787D02*
X390200Y325161D01*
X421752Y225984D02*
X428000Y219736D01*
Y158300D02*
Y219736D01*
X422200Y152500D02*
X428000Y158300D01*
X419000Y152500D02*
X422200D01*
X406700Y164800D02*
X419000Y152500D01*
X406700Y164800D02*
Y299914D01*
X385827Y320787D02*
X406700Y299914D01*
X420669Y509370D02*
X426803Y503236D01*
Y432532D02*
Y503236D01*
X421752Y427480D02*
X426803Y432532D01*
X354331Y629528D02*
X358700Y625158D01*
Y573700D02*
Y625158D01*
X354331Y569331D02*
X358700Y573700D01*
X105300Y630372D02*
X118760D01*
X100628Y625700D02*
X105300Y630372D01*
X81242Y625700D02*
X100628D01*
X72576Y634365D02*
X81242Y625700D01*
X58622Y634365D02*
X72576D01*
X92700Y590952D02*
X92776D01*
X83000Y616100D02*
X92700Y606400D01*
X83000Y616100D02*
Y619700D01*
X71900Y630800D02*
X83000Y619700D01*
X54374Y630800D02*
X71900D01*
X54374D02*
Y637925D01*
X84817D01*
X87264Y640372D01*
X78012Y543983D02*
X81317D01*
X82800Y542500D01*
Y531262D02*
Y542500D01*
X79700Y528162D02*
X82800Y531262D01*
X79700Y513800D02*
Y528162D01*
Y513800D02*
X81949Y511551D01*
Y508562D02*
X83327D01*
X69548Y590952D02*
X71000Y589500D01*
X63347Y590952D02*
X69548D01*
X548425Y412817D02*
X550000Y414392D01*
X566278D02*
X566660Y414009D01*
X572659D01*
X574900Y416250D01*
Y448916D01*
X584803Y458819D01*
X579300Y389414D02*
X584803Y383911D01*
X579300Y389414D02*
Y415862D01*
X584803Y421365D01*
X546100Y425700D02*
X570600D01*
X108918Y214764D02*
X121614Y227461D01*
X88150Y214764D02*
X108918D01*
X89907Y146693D02*
X117300Y119300D01*
X87264Y129200D02*
Y132441D01*
X88800Y129200D02*
X104000Y114000D01*
X118114D01*
X121614Y117500D01*
Y146693D01*
X531496Y499370D02*
X560070D01*
X560500Y499800D01*
X580000D01*
X581700Y498100D01*
Y480300D02*
Y498100D01*
X527100Y425700D02*
X581700Y480300D01*
X527100Y379700D02*
X535900Y370900D01*
Y288892D02*
Y370900D01*
X531496Y284488D02*
X535900Y288892D01*
X128426Y553983D02*
X145926Y571483D01*
X420669Y653976D02*
X440669Y673976D01*
X444882D01*
X267800Y427800D02*
X280800Y414800D01*
X242200Y427800D02*
X267800D01*
X161200Y281100D02*
X282500D01*
X170800Y311700D02*
Y389995D01*
X145926Y414869D02*
X170800Y389995D01*
X96250Y548983D02*
X99469D01*
X94800Y547533D02*
X96250Y548983D01*
X94800Y540433D02*
Y547533D01*
Y540433D02*
X96250Y538983D01*
X99469D01*
X102717Y568983D02*
X104200Y567500D01*
Y558983D02*
Y567500D01*
X99469Y558983D02*
X104200D01*
X31359Y450400D02*
Y450472D01*
X27700Y452500D02*
X29800Y450400D01*
X27700Y452500D02*
Y508562D01*
X30768D01*
X31359Y437480D02*
Y438500D01*
X25300Y442500D02*
X29300Y438500D01*
X25300Y442500D02*
Y509500D01*
X27400Y511600D01*
X34200D01*
Y494332D02*
Y511600D01*
X30768Y490900D02*
X34200Y494332D01*
X30768Y489925D02*
Y490900D01*
X119646Y462940D02*
X123900Y467194D01*
Y499021D01*
X118650Y504271D02*
X123900Y499021D01*
X118650Y504271D02*
Y508078D01*
X114941D02*
X118650D01*
X99469Y553983D02*
X111917D01*
X128000Y537900D01*
Y508800D02*
Y537900D01*
X120800Y508800D02*
X128000D01*
X120800D02*
Y529383D01*
X116200Y533983D02*
X120800Y529383D01*
X99469Y533983D02*
X116200D01*
X575197Y536220D02*
X581700Y529717D01*
Y510000D02*
Y529717D01*
X579000Y507300D02*
X581700Y510000D01*
X563566Y507300D02*
X579000D01*
X531496Y539370D02*
X563566Y507300D01*
X53300Y508078D02*
X53898D01*
X50339Y512590D02*
X53300Y509628D01*
X50339Y512590D02*
Y519322D01*
X65000Y533983D01*
X78012D01*
X124100Y511818D02*
X124390D01*
X115117Y538983D02*
X124100Y530000D01*
X99469Y538983D02*
X115117D01*
X123500Y590952D02*
X124390D01*
X111383Y568983D02*
X123500Y581100D01*
X196850Y318130D02*
Y331004D01*
X330906Y323150D02*
X354331Y299724D01*
Y282835D02*
Y299724D01*
X80000Y587212D02*
X83327D01*
X78000Y585212D02*
X80000Y587212D01*
X78000Y568983D02*
X78012D01*
X421752Y274488D02*
X427886Y280622D01*
Y354653D01*
X421752Y360787D02*
X427886Y354653D01*
X421752Y320787D02*
X425705Y316835D01*
Y282490D02*
Y316835D01*
X423750Y280535D02*
X425705Y282490D01*
X421700Y280535D02*
X423750D01*
X417799Y276635D02*
X421700Y280535D01*
X417799Y272500D02*
Y276635D01*
Y272500D02*
X419799Y270500D01*
X427500D01*
X444882Y253118D01*
Y233032D02*
Y253118D01*
X53898Y594692D02*
X83327D01*
X294000Y368504D02*
X295472D01*
X289400Y405300D02*
X294000Y400700D01*
X289400Y405300D02*
Y420945D01*
X294980D01*
X420669Y629331D02*
X425300Y624700D01*
Y524001D02*
Y624700D01*
X420669Y519370D02*
X425300Y524001D01*
X444882Y437480D02*
X449300D01*
X444882Y540728D02*
X449300Y536310D01*
X437100Y270813D02*
X444882Y263032D01*
X437100Y270813D02*
Y357887D01*
X440000Y360787D01*
X444882D01*
X28750Y594208D02*
X30768D01*
X439500Y668594D02*
X444882Y673976D01*
X439500Y604909D02*
Y668594D01*
Y604909D02*
X444882Y599528D01*
X348900Y519685D02*
Y563900D01*
X354331Y569331D01*
X330709Y220238D02*
X336100Y214846D01*
Y164840D02*
Y214846D01*
X330709Y159449D02*
X336100Y164840D01*
X421752Y157953D02*
X425800Y162001D01*
Y191936D01*
X421752Y195984D02*
X425800Y191936D01*
X30768Y612932D02*
Y623720D01*
Y612932D02*
X34200Y609500D01*
Y587696D02*
Y609500D01*
X30768Y587696D02*
X34200D01*
X439300Y355787D02*
X444882D01*
X439300Y326369D02*
Y355787D01*
Y326369D02*
X444882Y320787D01*
X145926Y650322D02*
Y689476D01*
X58622Y413787D02*
Y468847D01*
X236969Y561206D02*
Y622520D01*
X88150Y472940D02*
Y482940D01*
X420669Y586417D02*
Y609331D01*
X30768Y636713D02*
Y655709D01*
X354331Y157480D02*
Y177953D01*
X78012Y553983D02*
Y558983D01*
Y533983D02*
Y538983D01*
Y563983D02*
Y568983D01*
Y543983D02*
Y548983D01*
X118760Y630372D02*
Y640372D01*
X119646Y472940D02*
Y482940D01*
X500000Y383702D02*
Y393702D01*
X87264Y630372D02*
Y640372D01*
X421752Y225984D02*
Y264488D01*
X162694Y262503D02*
X235546D01*
X141732Y283465D02*
X162694Y262503D01*
X141732Y283465D02*
Y325723D01*
X160394Y251024D02*
X172929D01*
X131890Y279528D02*
X160394Y251024D01*
X131890Y279528D02*
Y295650D01*
X126890Y300650D02*
X131890Y295650D01*
X119646Y300650D02*
X126890D01*
X235546Y262503D02*
X289622Y208427D01*
X119646Y334660D02*
X132795D01*
X141732Y325723D01*
D69*
X397638Y142323D02*
Y184600D01*
X220472Y78898D02*
X228346D01*
X17874Y187087D02*
X58760D01*
X110236Y50371D02*
Y66929D01*
X110236Y66929D01*
X110236Y50371D02*
X129111Y31496D01*
X110236Y56682D02*
Y66929D01*
X110236Y56682D02*
X110236Y56682D01*
X129111Y31496D02*
X205946D01*
X99164Y86033D02*
Y98425D01*
Y86033D02*
X106299Y78898D01*
X220472Y78898D01*
X75394Y244094D02*
X242933D01*
X58760Y227461D02*
X75394Y244094D01*
X242933D02*
X278601Y208427D01*
X87809Y204423D02*
X88150Y204764D01*
X17874Y227461D02*
X58760D01*
X236220Y60802D02*
Y70142D01*
X244819Y78740D01*
X205946Y31496D02*
X206430Y31012D01*
X244819Y78740D02*
X350394D01*
X206430Y31012D02*
X219226Y18216D01*
X206430Y31012D02*
X236220Y60802D01*
X511496Y589331D02*
X511713Y589114D01*
X493110Y589331D02*
X511496D01*
X494410Y197795D02*
X512795D01*
X493110Y196496D02*
X494410Y197795D01*
X322835Y208427D02*
X330709Y200553D01*
X289622Y208427D02*
X322835D01*
X278601D02*
X289622D01*
X94987Y187087D02*
X131542Y223642D01*
X247146D02*
X248819Y221969D01*
X205469Y223642D02*
X247146D01*
X58760Y187087D02*
X94987D01*
X131542Y223642D02*
X205469D01*
X381890Y138386D02*
X389015Y145511D01*
Y179134D01*
X369114Y199035D02*
X389015Y179134D01*
X369114Y199035D02*
Y336004D01*
X354331Y350787D02*
X369114Y336004D01*
X377953Y204285D02*
Y409449D01*
X364173D02*
X377953D01*
X354331Y419291D02*
X364173Y409449D01*
X354331Y419291D02*
Y437480D01*
X393701Y138386D02*
X397638Y142323D01*
X377953Y204285D02*
X397638Y184600D01*
X219226Y18216D02*
X248819D01*
D70*
X418701Y60539D02*
X458570D01*
X408374Y70866D02*
X418701Y60539D01*
X342837Y70866D02*
X408374D01*
X337213Y65241D02*
X342837Y70866D01*
X330709Y65241D02*
X337213D01*
X531496Y156496D02*
X552579Y177579D01*
X575197D01*
X512795Y197795D02*
X531496Y216496D01*
X512795Y123504D02*
Y197795D01*
Y123504D02*
X531496Y104803D01*
X551181Y82677D02*
X575197D01*
X531496Y62992D02*
X551181Y82677D01*
X531496Y44803D02*
Y62992D01*
X511713Y589114D02*
X531496Y569331D01*
X511713Y589114D02*
Y638386D01*
X531496Y658169D01*
Y685354D01*
X562008Y588287D02*
X575197D01*
X531496Y716634D02*
Y745354D01*
Y716634D02*
X564862Y683268D01*
X575197D01*
X531496Y569331D02*
X551181Y549646D01*
Y527815D02*
Y549646D01*
Y527815D02*
X564232Y514764D01*
X575197D01*
X531496Y618799D02*
Y629331D01*
Y618799D02*
X562008Y588287D01*
X531496Y216496D02*
Y219527D01*
X562992Y251024D01*
X575197D01*
D71*
X354331Y609331D02*
D03*
Y569331D02*
D03*
X145926Y571483D02*
D03*
Y531483D02*
D03*
X166988Y571483D02*
D03*
Y531483D02*
D03*
X421358Y418130D02*
D03*
Y378130D02*
D03*
X88150Y335282D02*
D03*
Y295282D02*
D03*
X248819Y66425D02*
D03*
Y106425D02*
D03*
X330709Y65241D02*
D03*
Y105241D02*
D03*
X166988Y492890D02*
D03*
Y452890D02*
D03*
Y650322D02*
D03*
Y610322D02*
D03*
X145926Y492890D02*
D03*
Y452890D02*
D03*
Y650322D02*
D03*
Y610322D02*
D03*
X385827Y360787D02*
D03*
Y320787D02*
D03*
Y467480D02*
D03*
Y427480D02*
D03*
X295374Y330827D02*
D03*
Y290827D02*
D03*
X294390Y487815D02*
D03*
Y447815D02*
D03*
X421752Y320787D02*
D03*
Y360787D02*
D03*
Y427480D02*
D03*
Y467480D02*
D03*
X354331Y217953D02*
D03*
Y177953D02*
D03*
X444882Y280787D02*
D03*
Y320787D02*
D03*
Y467480D02*
D03*
Y507480D02*
D03*
X531496Y244488D02*
D03*
Y284488D02*
D03*
Y499370D02*
D03*
Y539370D02*
D03*
X493110Y156496D02*
D03*
Y196496D02*
D03*
Y589331D02*
D03*
Y629331D02*
D03*
X531496Y326457D02*
D03*
Y366457D02*
D03*
Y421365D02*
D03*
Y461365D02*
D03*
X236969Y541521D02*
D03*
D72*
X206430Y138386D02*
D03*
X290584Y137443D02*
D03*
X354331Y330787D02*
D03*
Y437480D02*
D03*
X206430Y31012D02*
D03*
X290584D02*
D03*
X374618Y31012D02*
D03*
X458570D02*
D03*
D73*
X206430Y167913D02*
D03*
X290584Y166970D02*
D03*
X206430Y60539D02*
D03*
X290584D02*
D03*
X374618Y60539D02*
D03*
X458570D02*
D03*
D74*
X332677Y36564D02*
D03*
X417232Y36563D02*
D03*
X248819Y37901D02*
D03*
X330709Y220238D02*
D03*
X248819Y221968D02*
D03*
X199666Y463048D02*
D03*
Y640165D02*
D03*
X248818Y181102D02*
D03*
X330709Y179134D02*
D03*
X501968Y36563D02*
D03*
X199666Y561521D02*
D03*
X385827Y284409D02*
D03*
Y519941D02*
D03*
X451378Y104173D02*
D03*
X444882Y653976D02*
D03*
X543636Y403543D02*
D03*
D75*
X332677Y16879D02*
D03*
X417232Y16878D02*
D03*
X248819Y18216D02*
D03*
X330709Y200553D02*
D03*
X248819Y202283D02*
D03*
X199666Y482733D02*
D03*
Y620480D02*
D03*
X248818Y161417D02*
D03*
X330709Y159449D02*
D03*
X501968Y16878D02*
D03*
X199666Y541521D02*
D03*
X385827Y264409D02*
D03*
Y499941D02*
D03*
X451378Y124173D02*
D03*
X444882Y673976D02*
D03*
X543636Y383858D02*
D03*
D76*
X58760Y227461D02*
D03*
Y187087D02*
D03*
Y43307D02*
D03*
Y106299D02*
D03*
X263780Y741732D02*
D03*
X29626Y361024D02*
D03*
X196850Y331004D02*
D03*
X58760Y146693D02*
D03*
X196850Y293595D02*
D03*
X58622Y413787D02*
D03*
X57776Y689278D02*
D03*
X31359Y413787D02*
D03*
X30768Y689279D02*
D03*
X119646Y413787D02*
D03*
X118760Y689279D02*
D03*
X145926Y414869D02*
D03*
Y689476D02*
D03*
X354331Y157480D02*
D03*
Y629528D02*
D03*
X493110Y221063D02*
D03*
X492913Y561220D02*
D03*
D77*
X421752Y177953D02*
D03*
Y167953D02*
D03*
Y157953D02*
D03*
X531496Y393602D02*
D03*
X269449Y595322D02*
D03*
Y605322D02*
D03*
X421752Y284488D02*
D03*
Y274488D02*
D03*
Y264488D02*
D03*
X420669Y519370D02*
D03*
Y509370D02*
D03*
Y499370D02*
D03*
Y629331D02*
D03*
Y619331D02*
D03*
Y609331D02*
D03*
D78*
X500000Y383702D02*
D03*
X88150Y462940D02*
D03*
X87264Y620372D02*
D03*
X119646Y462940D02*
D03*
X118760Y620372D02*
D03*
D79*
X500000Y393702D02*
D03*
Y403702D02*
D03*
X88150Y472940D02*
D03*
Y482940D02*
D03*
X87264Y630372D02*
D03*
Y640372D02*
D03*
X119646Y472940D02*
D03*
Y482940D02*
D03*
X118760Y630372D02*
D03*
Y640372D02*
D03*
D80*
X121614Y177461D02*
D03*
Y227461D02*
D03*
Y146693D02*
D03*
Y86693D02*
D03*
X531496Y44803D02*
D03*
Y104803D02*
D03*
X531496Y685354D02*
D03*
Y745354D02*
D03*
X531496Y156496D02*
D03*
Y216496D02*
D03*
Y569331D02*
D03*
Y629331D02*
D03*
X330906Y323150D02*
D03*
X330413Y419114D02*
D03*
X421752Y195984D02*
D03*
X420669Y556417D02*
D03*
X326461Y539331D02*
D03*
X307457D02*
D03*
X269449Y539243D02*
D03*
X288453Y539331D02*
D03*
X444882Y233032D02*
D03*
Y540728D02*
D03*
Y181437D02*
D03*
Y599528D02*
D03*
X164370Y285650D02*
D03*
X164764Y326004D02*
D03*
X289622Y208427D02*
D03*
X205469Y209862D02*
D03*
X236969Y622520D02*
D03*
Y465088D02*
D03*
X385827Y398255D02*
D03*
X59055Y301181D02*
D03*
D81*
X493110Y244488D02*
D03*
Y354724D02*
D03*
Y429134D02*
D03*
Y539370D02*
D03*
D82*
X584803Y374895D02*
D03*
Y365879D02*
D03*
Y412349D02*
D03*
Y403333D02*
D03*
X354331Y273819D02*
D03*
Y282835D02*
D03*
Y516260D02*
D03*
Y525276D02*
D03*
X584803Y337441D02*
D03*
Y328425D02*
D03*
Y449803D02*
D03*
Y440787D02*
D03*
X421752Y118425D02*
D03*
Y109409D02*
D03*
X420669Y662992D02*
D03*
Y653976D02*
D03*
D83*
X584803Y383911D02*
D03*
Y421365D02*
D03*
X354331Y264803D02*
D03*
Y507244D02*
D03*
X584803Y346457D02*
D03*
Y458819D02*
D03*
X421752Y127441D02*
D03*
X420669Y672008D02*
D03*
D84*
X295472Y368504D02*
D03*
Y363504D02*
D03*
X294980Y420945D02*
D03*
Y415945D02*
D03*
X444882Y360787D02*
D03*
Y355787D02*
D03*
Y437480D02*
D03*
Y432480D02*
D03*
X119646Y334660D02*
D03*
Y339660D02*
D03*
Y295650D02*
D03*
Y300650D02*
D03*
D85*
X295472Y358504D02*
D03*
X294980Y410945D02*
D03*
X444882Y350787D02*
D03*
Y427480D02*
D03*
X119646Y329660D02*
D03*
Y290650D02*
D03*
D86*
X575197Y104134D02*
D03*
Y726181D02*
D03*
Y293937D02*
D03*
Y536220D02*
D03*
Y199035D02*
D03*
Y631201D02*
D03*
D87*
Y82677D02*
D03*
Y61220D02*
D03*
Y704724D02*
D03*
Y683268D02*
D03*
Y272480D02*
D03*
Y251024D02*
D03*
Y514764D02*
D03*
Y493307D02*
D03*
Y177579D02*
D03*
Y156122D02*
D03*
Y609744D02*
D03*
Y588287D02*
D03*
D88*
X88150Y204764D02*
D03*
X87264Y122441D02*
D03*
D89*
X88150Y214764D02*
D03*
X87264Y132441D02*
D03*
D90*
X15059Y314961D02*
D03*
X29626Y329724D02*
D03*
Y300197D02*
D03*
D91*
X330906Y353150D02*
D03*
X330413Y449114D02*
D03*
X421752Y225984D02*
D03*
X420669Y586417D02*
D03*
X326461Y569331D02*
D03*
X307457D02*
D03*
X269449Y569243D02*
D03*
X288453Y569331D02*
D03*
X444882Y263032D02*
D03*
Y570728D02*
D03*
Y211437D02*
D03*
Y629528D02*
D03*
X164370Y295650D02*
D03*
X164764Y336004D02*
D03*
X289622Y222206D02*
D03*
X205469Y223642D02*
D03*
X236969Y632362D02*
D03*
Y474931D02*
D03*
X59055Y311024D02*
D03*
D92*
X354331Y350787D02*
D03*
Y457480D02*
D03*
D93*
X385827Y388412D02*
D03*
D94*
X236969Y561206D02*
D03*
D95*
X326142Y726575D02*
D03*
X369882D02*
D03*
D96*
X17874Y227461D02*
D03*
Y187087D02*
D03*
Y146693D02*
D03*
Y106299D02*
D03*
D97*
Y247146D02*
D03*
Y206772D02*
D03*
Y166378D02*
D03*
Y125984D02*
D03*
D98*
X22638Y764764D02*
D03*
Y22638D02*
D03*
X567913Y764764D02*
D03*
Y22638D02*
D03*
D99*
X99164Y86033D02*
D03*
X110236Y56682D02*
D03*
Y66929D02*
D03*
X389015Y145511D02*
D03*
X358268Y78740D02*
D03*
X228346D02*
D03*
X220472Y78898D02*
D03*
X99164Y98425D02*
D03*
X397638Y145669D02*
D03*
X535433Y403702D02*
D03*
X553500Y410300D02*
D03*
X553600Y390700D02*
D03*
X69067Y503412D02*
D03*
X69100Y515558D02*
D03*
X537538Y430262D02*
D03*
X570400Y433200D02*
D03*
X527600Y191300D02*
D03*
X569600Y400900D02*
D03*
X350400Y650800D02*
D03*
X570751Y418100D02*
D03*
X554200Y420600D02*
D03*
X71000Y589500D02*
D03*
X570600Y425700D02*
D03*
X117300Y119300D02*
D03*
X280800Y414800D02*
D03*
X242200Y427800D02*
D03*
X282500Y281100D02*
D03*
X172929Y251024D02*
D03*
X350394Y78740D02*
D03*
X381890Y138386D02*
D03*
X393701D02*
D03*
M02*
