G04*
G04 #@! TF.GenerationSoftware,Altium Limited,Altium Designer,18.0.7 (293)*
G04*
G04 Layer_Color=128*
%FSLAX25Y25*%
%MOIN*%
G70*
G01*
G75*
%ADD10C,0.00500*%
%ADD11C,0.00600*%
%ADD12C,0.00787*%
%ADD18C,0.00394*%
%ADD24C,0.00000*%
%ADD25C,0.00781*%
%ADD26C,0.00300*%
%ADD27C,0.00197*%
G36*
X99150Y492640D02*
Y453140D01*
X77650D01*
Y492640D01*
X99150D01*
D02*
G37*
G36*
X98264Y650072D02*
Y610572D01*
X76764D01*
Y650072D01*
X98264D01*
D02*
G37*
G36*
X130646Y492640D02*
Y453140D01*
X109146D01*
Y492640D01*
X130646D01*
D02*
G37*
G36*
X129760Y650072D02*
Y610572D01*
X108260D01*
Y650072D01*
X129760D01*
D02*
G37*
G36*
X511000Y413402D02*
Y373902D01*
X489500D01*
Y413402D01*
X511000D01*
D02*
G37*
D10*
X568724Y122441D02*
X589197D01*
Y42913D02*
Y122441D01*
X568724Y42913D02*
X589197D01*
X568724D02*
Y122441D01*
X589197D01*
Y42913D02*
Y122441D01*
X568724Y42913D02*
X589197D01*
X568724D02*
Y122441D01*
Y744488D02*
X589197D01*
Y664961D02*
Y744488D01*
X568724Y664961D02*
X589197D01*
X568724D02*
Y744488D01*
X589197D01*
Y664961D02*
Y744488D01*
X568724Y664961D02*
X589197D01*
X568724D02*
Y744488D01*
Y312244D02*
X589197D01*
Y232717D02*
Y312244D01*
X568724Y232717D02*
X589197D01*
X568724D02*
Y312244D01*
X589197D01*
Y232717D02*
Y312244D01*
X568724Y232717D02*
X589197D01*
X568724D02*
Y312244D01*
Y554528D02*
X589197D01*
Y475000D02*
Y554528D01*
X568724Y475000D02*
X589197D01*
X568724D02*
Y554528D01*
X589197D01*
Y475000D02*
Y554528D01*
X568724Y475000D02*
X589197D01*
X568724D02*
Y554528D01*
Y217343D02*
X589197D01*
Y137815D02*
Y217343D01*
X568724Y137815D02*
X589197D01*
X568724D02*
Y217343D01*
X589197D01*
Y137815D02*
Y217343D01*
X568724Y137815D02*
X589197D01*
X568724D02*
Y217343D01*
Y649508D02*
X589197D01*
Y569980D02*
Y649508D01*
X568724Y569980D02*
X589197D01*
X568724D02*
Y649508D01*
X589197D01*
Y569980D02*
Y649508D01*
X568724Y569980D02*
X589197D01*
X568724D02*
Y649508D01*
X5217Y334646D02*
X38681D01*
X-689D02*
X5217D01*
X-689Y331299D02*
Y334646D01*
Y298622D02*
Y331299D01*
Y295276D02*
Y298622D01*
Y295276D02*
X5217D01*
X38681D01*
Y334646D01*
X-38091Y331299D02*
X-689D01*
X-38091Y298622D02*
Y331299D01*
Y298622D02*
X-689D01*
X5217Y295276D02*
Y334646D01*
X38681D01*
X-689D02*
X5217D01*
X-689Y331299D02*
Y334646D01*
Y298622D02*
Y331299D01*
Y295276D02*
Y298622D01*
Y295276D02*
X5217D01*
X38681D01*
Y334646D01*
X-38091Y331299D02*
X-689D01*
X-38091Y298622D02*
Y331299D01*
Y298622D02*
X-689D01*
X5217Y295276D02*
Y334646D01*
X329832Y17936D02*
G03*
X331824Y16881I1976J1321D01*
G01*
X333532Y16879D02*
G03*
X335506Y17917I11J2376D01*
G01*
X331823Y36564D02*
G03*
X329849Y35527I-11J-2376D01*
G01*
X335522Y35508D02*
G03*
X333530Y36563I-1976J-1321D01*
G01*
X328995Y34074D02*
G03*
X328729Y33809I87J-354D01*
G01*
X331878Y33883D02*
G03*
X328995Y34074I-4288J-43031D01*
G01*
X331878Y19560D02*
G03*
X328995Y19370I41749J-654584D01*
G01*
X328729Y19635D02*
G03*
X328995Y19370I357J92D01*
G01*
X333476Y33883D02*
G03*
X336360Y34074I-41797J655314D01*
G01*
X336626Y33809D02*
G03*
X336360Y34074I-357J-92D01*
G01*
X336360Y19370D02*
G03*
X336626Y19635I-87J354D01*
G01*
X333476Y19560D02*
G03*
X336360Y19370I4288J43031D01*
G01*
X331878Y19032D02*
G03*
X330617Y17864I3661J-5218D01*
G01*
X328729Y19635D02*
G03*
X330500Y17864I1772J0D01*
G01*
X336626Y33809D02*
G03*
X334854Y35580I-1772J0D01*
G01*
X330500D02*
G03*
X328729Y33809I0J-1772D01*
G01*
X334854Y17864D02*
G03*
X336626Y19635I0J1772D01*
G01*
X331496Y16879D02*
G03*
X333858Y16879I1181J0D01*
G01*
Y36564D02*
G03*
X331496Y36564I-1181J0D01*
G01*
X414387Y17935D02*
G03*
X416378Y16879I1976J1321D01*
G01*
X418086Y16878D02*
G03*
X420060Y17916I11J2376D01*
G01*
X416377Y36563D02*
G03*
X414403Y35525I-11J-2376D01*
G01*
X420077Y35506D02*
G03*
X418085Y36562I-1976J-1321D01*
G01*
X413549Y34072D02*
G03*
X413283Y33807I87J-354D01*
G01*
X416433Y33882D02*
G03*
X413549Y34072I-4288J-43031D01*
G01*
X416433Y19559D02*
G03*
X413549Y19369I41749J-654584D01*
G01*
X413283Y19634D02*
G03*
X413549Y19369I357J92D01*
G01*
X418031Y33882D02*
G03*
X420914Y34072I-41797J655314D01*
G01*
X421180Y33807D02*
G03*
X420914Y34072I-357J-92D01*
G01*
X420914Y19369D02*
G03*
X421180Y19634I-87J354D01*
G01*
X418031Y19559D02*
G03*
X420914Y19369I4288J43031D01*
G01*
X416433Y19030D02*
G03*
X415171Y17862I3661J-5218D01*
G01*
X413283Y19634D02*
G03*
X415055Y17862I1772J0D01*
G01*
X421180Y33807D02*
G03*
X419409Y35579I-1772J0D01*
G01*
X415055D02*
G03*
X413283Y33807I0J-1772D01*
G01*
X419409Y17862D02*
G03*
X421180Y19634I0J1772D01*
G01*
X416050Y16878D02*
G03*
X418413Y16878I1181J0D01*
G01*
Y36563D02*
G03*
X416050Y36563I-1181J0D01*
G01*
X245974Y19273D02*
G03*
X247966Y18218I1976J1321D01*
G01*
X249673Y18216D02*
G03*
X251647Y19254I11J2376D01*
G01*
X247965Y37901D02*
G03*
X245991Y36864I-11J-2376D01*
G01*
X251664Y36845D02*
G03*
X249672Y37900I-1976J-1321D01*
G01*
X245137Y35411D02*
G03*
X244870Y35146I87J-354D01*
G01*
X248020Y35220D02*
G03*
X245137Y35411I-4288J-43031D01*
G01*
X248020Y20898D02*
G03*
X245137Y20707I41749J-654584D01*
G01*
X244870Y20972D02*
G03*
X245137Y20707I357J92D01*
G01*
X249618Y35220D02*
G03*
X252501Y35411I-41797J655314D01*
G01*
X252767Y35146D02*
G03*
X252501Y35411I-357J-92D01*
G01*
X252501Y20707D02*
G03*
X252767Y20972I-87J354D01*
G01*
X249618Y20898D02*
G03*
X252501Y20707I4288J43031D01*
G01*
X248020Y20369D02*
G03*
X246758Y19201I3661J-5218D01*
G01*
X244870Y20972D02*
G03*
X246642Y19201I1772J0D01*
G01*
X252767Y35146D02*
G03*
X250996Y36917I-1772J0D01*
G01*
X246642D02*
G03*
X244870Y35146I0J-1772D01*
G01*
X250996Y19201D02*
G03*
X252767Y20972I0J1772D01*
G01*
X247638Y18216D02*
G03*
X250000Y18216I1181J0D01*
G01*
Y37901D02*
G03*
X247638Y37901I-1181J0D01*
G01*
X327864Y201610D02*
G03*
X329855Y200554I1976J1321D01*
G01*
X331563Y200553D02*
G03*
X333537Y201590I11J2376D01*
G01*
X329854Y220238D02*
G03*
X327880Y219200I-11J-2376D01*
G01*
X333554Y219181D02*
G03*
X331562Y220236I-1976J-1321D01*
G01*
X327026Y217747D02*
G03*
X326760Y217482I87J-354D01*
G01*
X329910Y217557D02*
G03*
X327026Y217747I-4288J-43031D01*
G01*
X329910Y203234D02*
G03*
X327026Y203044I41749J-654584D01*
G01*
X326760Y203309D02*
G03*
X327026Y203044I357J92D01*
G01*
X331508Y217557D02*
G03*
X334391Y217747I-41797J655314D01*
G01*
X334657Y217482D02*
G03*
X334391Y217747I-357J-92D01*
G01*
X334391Y203044D02*
G03*
X334657Y203309I-87J354D01*
G01*
X331508Y203234D02*
G03*
X334391Y203044I4288J43031D01*
G01*
X329910Y202705D02*
G03*
X328648Y201537I3661J-5218D01*
G01*
X326760Y203309D02*
G03*
X328532Y201537I1772J0D01*
G01*
X334657Y217482D02*
G03*
X332886Y219253I-1772J0D01*
G01*
X328532D02*
G03*
X326760Y217482I0J-1772D01*
G01*
X332886Y201537D02*
G03*
X334657Y203309I0J1772D01*
G01*
X329528Y200553D02*
G03*
X331890Y200553I1181J0D01*
G01*
Y220238D02*
G03*
X329528Y220238I-1181J0D01*
G01*
X245974Y203340D02*
G03*
X247966Y202285I1976J1321D01*
G01*
X249673Y202283D02*
G03*
X251647Y203321I11J2376D01*
G01*
X247965Y221969D02*
G03*
X245991Y220931I-11J-2376D01*
G01*
X251664Y220912D02*
G03*
X249672Y221967I-1976J-1321D01*
G01*
X245137Y219478D02*
G03*
X244870Y219213I87J-354D01*
G01*
X248020Y219287D02*
G03*
X245137Y219478I-4288J-43031D01*
G01*
X248020Y204964D02*
G03*
X245137Y204774I41749J-654584D01*
G01*
X244870Y205039D02*
G03*
X245137Y204774I357J92D01*
G01*
X249618Y219287D02*
G03*
X252501Y219478I-41797J655314D01*
G01*
X252767Y219213D02*
G03*
X252501Y219478I-357J-92D01*
G01*
X252501Y204774D02*
G03*
X252767Y205039I-87J354D01*
G01*
X249618Y204964D02*
G03*
X252501Y204774I4288J43031D01*
G01*
X248020Y204436D02*
G03*
X246758Y203268I3661J-5218D01*
G01*
X244870Y205039D02*
G03*
X246642Y203268I1772J0D01*
G01*
X252767Y219213D02*
G03*
X250996Y220984I-1772J0D01*
G01*
X246642D02*
G03*
X244870Y219213I0J-1772D01*
G01*
X250996Y203268D02*
G03*
X252767Y205039I0J1772D01*
G01*
X247638Y202283D02*
G03*
X250000Y202283I1181J0D01*
G01*
Y221969D02*
G03*
X247638Y221969I-1181J0D01*
G01*
X202511Y481676D02*
G03*
X200519Y482731I-1976J-1321D01*
G01*
X198811Y482733D02*
G03*
X196837Y481695I-11J-2376D01*
G01*
X200520Y463048D02*
G03*
X202494Y464085I11J2376D01*
G01*
X196821Y464105D02*
G03*
X198813Y463049I1976J1321D01*
G01*
X203348Y465539D02*
G03*
X203614Y465804I-87J354D01*
G01*
X200465Y465729D02*
G03*
X203348Y465539I4288J43031D01*
G01*
X200465Y480052D02*
G03*
X203348Y480242I-41749J654584D01*
G01*
X203614Y479977D02*
G03*
X203348Y480242I-357J-92D01*
G01*
X198867Y465729D02*
G03*
X195983Y465539I41797J-655314D01*
G01*
X195717Y465804D02*
G03*
X195983Y465539I357J92D01*
G01*
X195983Y480242D02*
G03*
X195717Y479977I87J-354D01*
G01*
X198867Y480052D02*
G03*
X195983Y480242I-4288J-43031D01*
G01*
X200465Y480580D02*
G03*
X201726Y481748I-3661J5218D01*
G01*
X203614Y479977D02*
G03*
X201843Y481748I-1772J0D01*
G01*
X195717Y465803D02*
G03*
X197489Y464032I1772J0D01*
G01*
X201843D02*
G03*
X203614Y465803I0J1772D01*
G01*
X197489Y481748D02*
G03*
X195717Y479977I0J-1772D01*
G01*
X200847Y482733D02*
G03*
X198485Y482733I-1181J0D01*
G01*
Y463048D02*
G03*
X200847Y463048I1181J0D01*
G01*
X196821Y621536D02*
G03*
X198813Y620481I1976J1321D01*
G01*
X200520Y620479D02*
G03*
X202494Y621517I11J2376D01*
G01*
X198811Y640165D02*
G03*
X196837Y639127I-11J-2376D01*
G01*
X202511Y639108D02*
G03*
X200519Y640163I-1976J-1321D01*
G01*
X195983Y637674D02*
G03*
X195717Y637409I87J-354D01*
G01*
X198867Y637484D02*
G03*
X195983Y637674I-4288J-43031D01*
G01*
X198867Y623161D02*
G03*
X195983Y622970I41749J-654584D01*
G01*
X195717Y623236D02*
G03*
X195983Y622970I357J92D01*
G01*
X200465Y637484D02*
G03*
X203348Y637674I-41797J655314D01*
G01*
X203614Y637409D02*
G03*
X203348Y637674I-357J-92D01*
G01*
X203348Y622970D02*
G03*
X203614Y623236I-87J354D01*
G01*
X200465Y623161D02*
G03*
X203348Y622970I4288J43031D01*
G01*
X198867Y622632D02*
G03*
X197605Y621464I3661J-5218D01*
G01*
X195717Y623236D02*
G03*
X197489Y621464I1772J0D01*
G01*
X203614Y637409D02*
G03*
X201843Y639180I-1772J0D01*
G01*
X197489D02*
G03*
X195717Y637409I0J-1772D01*
G01*
X201843Y621464D02*
G03*
X203614Y623236I0J1772D01*
G01*
X198485Y620479D02*
G03*
X200847Y620479I1181J0D01*
G01*
Y640165D02*
G03*
X198485Y640165I-1181J0D01*
G01*
X245973Y162474D02*
G03*
X247965Y161419I1976J1321D01*
G01*
X249673Y161417D02*
G03*
X251647Y162455I11J2376D01*
G01*
X247964Y181102D02*
G03*
X245990Y180065I-11J-2376D01*
G01*
X251663Y180045D02*
G03*
X249671Y181101I-1976J-1321D01*
G01*
X245136Y178612D02*
G03*
X244870Y178347I87J-354D01*
G01*
X248019Y178421D02*
G03*
X245136Y178612I-4288J-43031D01*
G01*
X248019Y164098D02*
G03*
X245136Y163908I41749J-654584D01*
G01*
X244870Y164173D02*
G03*
X245136Y163908I357J92D01*
G01*
X249617Y178421D02*
G03*
X252501Y178612I-41797J655314D01*
G01*
X252767Y178347D02*
G03*
X252501Y178612I-357J-92D01*
G01*
X252501Y163908D02*
G03*
X252767Y164173I-87J354D01*
G01*
X249617Y164098D02*
G03*
X252501Y163908I4288J43031D01*
G01*
X248019Y163570D02*
G03*
X246758Y162402I3661J-5218D01*
G01*
X244870Y164173D02*
G03*
X246641Y162402I1772J0D01*
G01*
X252767Y178347D02*
G03*
X250995Y180118I-1772J0D01*
G01*
X246641D02*
G03*
X244870Y178347I0J-1772D01*
G01*
X250995Y162402D02*
G03*
X252767Y164173I0J1772D01*
G01*
X247637Y161417D02*
G03*
X249999Y161417I1181J0D01*
G01*
Y181102D02*
G03*
X247637Y181102I-1181J0D01*
G01*
X327864Y160506D02*
G03*
X329855Y159450I1976J1321D01*
G01*
X331563Y159449D02*
G03*
X333537Y160487I11J2376D01*
G01*
X329854Y179134D02*
G03*
X327880Y178096I-11J-2376D01*
G01*
X333554Y178077D02*
G03*
X331562Y179133I-1976J-1321D01*
G01*
X327026Y176643D02*
G03*
X326760Y176378I87J-354D01*
G01*
X329909Y176453D02*
G03*
X327026Y176643I-4288J-43031D01*
G01*
X329909Y162130D02*
G03*
X327026Y161940I41749J-654584D01*
G01*
X326760Y162205D02*
G03*
X327026Y161940I357J92D01*
G01*
X331507Y176453D02*
G03*
X334391Y176643I-41797J655314D01*
G01*
X334657Y176378D02*
G03*
X334391Y176643I-357J-92D01*
G01*
X334391Y161940D02*
G03*
X334657Y162205I-87J354D01*
G01*
X331507Y162130D02*
G03*
X334391Y161940I4288J43031D01*
G01*
X329909Y161601D02*
G03*
X328648Y160433I3661J-5218D01*
G01*
X326760Y162205D02*
G03*
X328532Y160433I1772J0D01*
G01*
X334657Y176378D02*
G03*
X332886Y178150I-1772J0D01*
G01*
X328532D02*
G03*
X326760Y176378I0J-1772D01*
G01*
X332886Y160433D02*
G03*
X334657Y162205I0J1772D01*
G01*
X329527Y159449D02*
G03*
X331890Y159449I1181J0D01*
G01*
Y179134D02*
G03*
X329527Y179134I-1181J0D01*
G01*
X499124Y17935D02*
G03*
X501115Y16879I1976J1321D01*
G01*
X502823Y16878D02*
G03*
X504797Y17916I11J2376D01*
G01*
X501114Y36563D02*
G03*
X499140Y35525I-11J-2376D01*
G01*
X504813Y35506D02*
G03*
X502822Y36562I-1976J-1321D01*
G01*
X498286Y34072D02*
G03*
X498020Y33807I87J-354D01*
G01*
X501169Y33882D02*
G03*
X498286Y34072I-4288J-43031D01*
G01*
X501169Y19559D02*
G03*
X498286Y19369I41749J-654584D01*
G01*
X498020Y19634D02*
G03*
X498286Y19369I357J92D01*
G01*
X502768Y33882D02*
G03*
X505651Y34072I-41797J655314D01*
G01*
X505917Y33807D02*
G03*
X505651Y34072I-357J-92D01*
G01*
X505651Y19369D02*
G03*
X505917Y19634I-87J354D01*
G01*
X502768Y19559D02*
G03*
X505651Y19369I4288J43031D01*
G01*
X501169Y19030D02*
G03*
X499908Y17862I3661J-5218D01*
G01*
X498020Y19634D02*
G03*
X499792Y17862I1772J0D01*
G01*
X505917Y33807D02*
G03*
X504145Y35579I-1772J0D01*
G01*
X499792D02*
G03*
X498020Y33807I0J-1772D01*
G01*
X504145Y17862D02*
G03*
X505917Y19634I0J1772D01*
G01*
X500787Y16878D02*
G03*
X503150Y16878I1181J0D01*
G01*
Y36563D02*
G03*
X500787Y36563I-1181J0D01*
G01*
X540791Y384915D02*
G03*
X542782Y383859I1976J1321D01*
G01*
X544490Y383858D02*
G03*
X546464Y384896I11J2376D01*
G01*
X542781Y403543D02*
G03*
X540807Y402506I-11J-2376D01*
G01*
X546480Y402486D02*
G03*
X544489Y403542I-1976J-1321D01*
G01*
X539953Y401053D02*
G03*
X539687Y400787I87J-354D01*
G01*
X542837Y400862D02*
G03*
X539953Y401053I-4288J-43031D01*
G01*
X542837Y386539D02*
G03*
X539953Y386349I41749J-654584D01*
G01*
X539687Y386614D02*
G03*
X539953Y386349I357J92D01*
G01*
X544434Y400862D02*
G03*
X547318Y401053I-41797J655314D01*
G01*
X547584Y400787D02*
G03*
X547318Y401053I-357J-92D01*
G01*
X547318Y386349D02*
G03*
X547584Y386614I-87J354D01*
G01*
X544434Y386539D02*
G03*
X547318Y386349I4288J43031D01*
G01*
X542837Y386011D02*
G03*
X541575Y384842I3661J-5218D01*
G01*
X539687Y386614D02*
G03*
X541459Y384842I1772J0D01*
G01*
X547584Y400787D02*
G03*
X545812Y402559I-1772J0D01*
G01*
X541459D02*
G03*
X539687Y400787I0J-1772D01*
G01*
X545812Y384842D02*
G03*
X547584Y386614I0J1772D01*
G01*
X542454Y383858D02*
G03*
X544817Y383858I1181J0D01*
G01*
Y403543D02*
G03*
X542454Y403543I-1181J0D01*
G01*
X335522Y17935D02*
X335540Y17962D01*
X335599Y18042D01*
X329760Y18037D02*
X329828Y17943D01*
X329832Y17936D01*
X329815Y35482D02*
X329832Y35510D01*
X329755Y35402D02*
X329815Y35482D01*
X335526Y35501D02*
X335595Y35407D01*
X335522Y35508D02*
X335526Y35501D01*
X333476Y34412D02*
X333554Y34423D01*
X333646Y34465D01*
X333745Y34540D01*
X333830Y34622D01*
X334051Y34885D01*
X334239Y35125D01*
X334407Y35330D01*
X334555Y35481D01*
X334655Y35555D01*
X334738Y35580D01*
X330617D02*
X330722Y35541D01*
X330861Y35423D01*
X331045Y35214D01*
X331273Y34924D01*
X331391Y34775D01*
X331526Y34621D01*
X331621Y34530D01*
X331740Y34448D01*
X331817Y34419D01*
X331878Y34412D01*
X334689Y17873D02*
X334738Y17864D01*
X334632Y17903D02*
X334689Y17873D01*
X334567Y17952D02*
X334632Y17903D01*
X334493Y18021D02*
X334567Y17952D01*
X334406Y18115D02*
X334493Y18021D01*
X334309Y18230D02*
X334406Y18115D01*
X334201Y18366D02*
X334309Y18230D01*
X334082Y18520D02*
X334201Y18366D01*
X333964Y18668D02*
X334082Y18520D01*
X333828Y18823D02*
X333964Y18668D01*
X333783Y18869D02*
X333828Y18823D01*
X333733Y18914D02*
X333783Y18869D01*
X333678Y18958D02*
X333733Y18914D01*
X333614Y18996D02*
X333678Y18958D01*
X333577Y19013D02*
X333614Y18996D01*
X333537Y19025D02*
X333577Y19013D01*
X333507Y19030D02*
X333537Y19025D01*
X333476Y19032D02*
X333507Y19030D01*
X331824Y16881D02*
X333531Y16879D01*
X331823Y36564D02*
X333530Y36563D01*
X331878Y19032D02*
Y34412D01*
X328729Y19635D02*
Y33809D01*
X336626Y19635D02*
Y33809D01*
X333476Y19032D02*
Y34412D01*
X331878Y33883D02*
X333476D01*
X331878Y19561D02*
X333476D01*
X331878Y19032D02*
X333476D01*
X331878Y34412D02*
X333476D01*
X330500Y35580D02*
X334854D01*
X330500Y17864D02*
X334854D01*
X420076Y17934D02*
X420094Y17961D01*
X420154Y18041D01*
X414314Y18035D02*
X414382Y17942D01*
X414387Y17935D01*
X414369Y35480D02*
X414386Y35508D01*
X414310Y35400D02*
X414369Y35480D01*
X420081Y35500D02*
X420149Y35406D01*
X420077Y35506D02*
X420081Y35500D01*
X418031Y34411D02*
X418108Y34422D01*
X418200Y34464D01*
X418300Y34538D01*
X418384Y34620D01*
X418605Y34883D01*
X418793Y35124D01*
X418962Y35329D01*
X419109Y35479D01*
X419209Y35553D01*
X419292Y35579D01*
X415171D02*
X415276Y35540D01*
X415415Y35421D01*
X415599Y35212D01*
X415827Y34923D01*
X415945Y34774D01*
X416080Y34620D01*
X416176Y34528D01*
X416295Y34446D01*
X416372Y34418D01*
X416433Y34411D01*
X419244Y17872D02*
X419292Y17862D01*
X419187Y17901D02*
X419244Y17872D01*
X419121Y17951D02*
X419187Y17901D01*
X419048Y18020D02*
X419121Y17951D01*
X418960Y18114D02*
X419048Y18020D01*
X418864Y18229D02*
X418960Y18114D01*
X418756Y18365D02*
X418864Y18229D01*
X418636Y18518D02*
X418756Y18365D01*
X418518Y18666D02*
X418636Y18518D01*
X418383Y18822D02*
X418518Y18666D01*
X418337Y18868D02*
X418383Y18822D01*
X418288Y18913D02*
X418337Y18868D01*
X418232Y18956D02*
X418288Y18913D01*
X418168Y18995D02*
X418232Y18956D01*
X418132Y19011D02*
X418168Y18995D01*
X418091Y19024D02*
X418132Y19011D01*
X418062Y19029D02*
X418091Y19024D01*
X418031Y19030D02*
X418062Y19029D01*
X416378Y16879D02*
X418086Y16878D01*
X416377Y36563D02*
X418085Y36562D01*
X416433Y19030D02*
Y34411D01*
X413283Y19634D02*
Y33807D01*
X421180Y19634D02*
Y33807D01*
X418031Y19030D02*
Y34411D01*
X416433Y33882D02*
X418031D01*
X416433Y19559D02*
X418031D01*
X416433Y19030D02*
X418031D01*
X416433Y34411D02*
X418031D01*
X415055Y35579D02*
X419409D01*
X415055Y17862D02*
X419409D01*
X251663Y19272D02*
X251682Y19299D01*
X251741Y19379D01*
X245902Y19374D02*
X245970Y19280D01*
X245974Y19273D01*
X245956Y36819D02*
X245973Y36847D01*
X245897Y36739D02*
X245956Y36819D01*
X251668Y36838D02*
X251736Y36744D01*
X251664Y36845D02*
X251668Y36838D01*
X249618Y35749D02*
X249696Y35760D01*
X249788Y35802D01*
X249887Y35876D01*
X249971Y35959D01*
X250193Y36222D01*
X250380Y36462D01*
X250549Y36667D01*
X250696Y36818D01*
X250797Y36892D01*
X250879Y36917D01*
X246758D02*
X246864Y36878D01*
X247003Y36760D01*
X247187Y36551D01*
X247414Y36261D01*
X247532Y36112D01*
X247668Y35958D01*
X247763Y35867D01*
X247882Y35785D01*
X247959Y35756D01*
X248020Y35749D01*
X250831Y19210D02*
X250879Y19201D01*
X250774Y19240D02*
X250831Y19210D01*
X250709Y19289D02*
X250774Y19240D01*
X250635Y19358D02*
X250709Y19289D01*
X250548Y19452D02*
X250635Y19358D01*
X250451Y19567D02*
X250548Y19452D01*
X250343Y19703D02*
X250451Y19567D01*
X250223Y19857D02*
X250343Y19703D01*
X250106Y20005D02*
X250223Y19857D01*
X249970Y20160D02*
X250106Y20005D01*
X249925Y20206D02*
X249970Y20160D01*
X249875Y20251D02*
X249925Y20206D01*
X249819Y20295D02*
X249875Y20251D01*
X249756Y20333D02*
X249819Y20295D01*
X249719Y20350D02*
X249756Y20333D01*
X249679Y20362D02*
X249719Y20350D01*
X249649Y20367D02*
X249679Y20362D01*
X249618Y20369D02*
X249649Y20367D01*
X247966Y18218D02*
X249673Y18216D01*
X247965Y37901D02*
X249672Y37900D01*
X248020Y20369D02*
Y35749D01*
X244870Y20972D02*
Y35146D01*
X252768Y20972D02*
Y35146D01*
X249618Y20369D02*
Y35749D01*
X248020Y35220D02*
X249618D01*
X248020Y20897D02*
X249618D01*
X248020Y20369D02*
X249618D01*
X248020Y35749D02*
X249618D01*
X246642Y36917D02*
X250996D01*
X246642Y19201D02*
X250996D01*
X333553Y201608D02*
X333571Y201635D01*
X333631Y201715D01*
X327791Y201710D02*
X327859Y201616D01*
X327864Y201610D01*
X327846Y219155D02*
X327863Y219183D01*
X327787Y219075D02*
X327846Y219155D01*
X333558Y219174D02*
X333626Y219081D01*
X333554Y219181D02*
X333558Y219174D01*
X331508Y218085D02*
X331585Y218097D01*
X331677Y218139D01*
X331777Y218213D01*
X331861Y218295D01*
X332082Y218558D01*
X332270Y218799D01*
X332439Y219004D01*
X332586Y219154D01*
X332687Y219228D01*
X332769Y219253D01*
X328648D02*
X328753Y219214D01*
X328893Y219096D01*
X329077Y218887D01*
X329304Y218597D01*
X329422Y218448D01*
X329557Y218294D01*
X329653Y218203D01*
X329772Y218121D01*
X329849Y218092D01*
X329910Y218085D01*
X332721Y201547D02*
X332769Y201537D01*
X332664Y201576D02*
X332721Y201547D01*
X332598Y201626D02*
X332664Y201576D01*
X332525Y201695D02*
X332598Y201626D01*
X332437Y201789D02*
X332525Y201695D01*
X332341Y201903D02*
X332437Y201789D01*
X332233Y202039D02*
X332341Y201903D01*
X332113Y202193D02*
X332233Y202039D01*
X331996Y202341D02*
X332113Y202193D01*
X331860Y202496D02*
X331996Y202341D01*
X331814Y202542D02*
X331860Y202496D01*
X331765Y202588D02*
X331814Y202542D01*
X331709Y202631D02*
X331765Y202588D01*
X331646Y202670D02*
X331709Y202631D01*
X331609Y202686D02*
X331646Y202670D01*
X331569Y202698D02*
X331609Y202686D01*
X331539Y202703D02*
X331569Y202698D01*
X331508Y202705D02*
X331539Y202703D01*
X329856Y200554D02*
X331563Y200553D01*
X329854Y220238D02*
X331562Y220236D01*
X329910Y202705D02*
Y218085D01*
X326760Y203309D02*
Y217482D01*
X334657Y203309D02*
Y217482D01*
X331508Y202705D02*
Y218085D01*
X329910Y217557D02*
X331508D01*
X329910Y203234D02*
X331508D01*
X329910Y202705D02*
X331508D01*
X329910Y218085D02*
X331508D01*
X328532Y219253D02*
X332886D01*
X328532Y201537D02*
X332886D01*
X251663Y203339D02*
X251682Y203366D01*
X251741Y203446D01*
X245902Y203441D02*
X245970Y203347D01*
X245974Y203340D01*
X245956Y220886D02*
X245973Y220914D01*
X245897Y220806D02*
X245956Y220886D01*
X251668Y220905D02*
X251736Y220811D01*
X251664Y220912D02*
X251668Y220905D01*
X249618Y219816D02*
X249696Y219827D01*
X249788Y219869D01*
X249887Y219943D01*
X249971Y220026D01*
X250193Y220289D01*
X250380Y220529D01*
X250549Y220734D01*
X250696Y220885D01*
X250797Y220959D01*
X250879Y220984D01*
X246758D02*
X246864Y220945D01*
X247003Y220827D01*
X247187Y220618D01*
X247414Y220328D01*
X247532Y220179D01*
X247668Y220025D01*
X247763Y219934D01*
X247882Y219852D01*
X247959Y219823D01*
X248020Y219816D01*
X250831Y203277D02*
X250879Y203268D01*
X250774Y203307D02*
X250831Y203277D01*
X250709Y203356D02*
X250774Y203307D01*
X250635Y203425D02*
X250709Y203356D01*
X250548Y203519D02*
X250635Y203425D01*
X250451Y203634D02*
X250548Y203519D01*
X250343Y203770D02*
X250451Y203634D01*
X250223Y203924D02*
X250343Y203770D01*
X250106Y204072D02*
X250223Y203924D01*
X249970Y204227D02*
X250106Y204072D01*
X249925Y204273D02*
X249970Y204227D01*
X249875Y204318D02*
X249925Y204273D01*
X249819Y204362D02*
X249875Y204318D01*
X249756Y204400D02*
X249819Y204362D01*
X249719Y204417D02*
X249756Y204400D01*
X249679Y204429D02*
X249719Y204417D01*
X249649Y204434D02*
X249679Y204429D01*
X249618Y204436D02*
X249649Y204434D01*
X247966Y202285D02*
X249673Y202283D01*
X247965Y221968D02*
X249672Y221967D01*
X248020Y204436D02*
Y219816D01*
X244870Y205039D02*
Y219213D01*
X252768Y205039D02*
Y219213D01*
X249618Y204436D02*
Y219816D01*
X248020Y219287D02*
X249618D01*
X248020Y204965D02*
X249618D01*
X248020Y204436D02*
X249618D01*
X248020Y219816D02*
X249618D01*
X246642Y220984D02*
X250996D01*
X246642Y203268D02*
X250996D01*
X196803Y481650D02*
X196821Y481677D01*
X196744Y481570D02*
X196803Y481650D01*
X202515Y481669D02*
X202583Y481575D01*
X202511Y481676D02*
X202515Y481669D01*
X202511Y464102D02*
X202528Y464130D01*
X202588Y464210D01*
X196748Y464205D02*
X196816Y464111D01*
X196821Y464105D01*
X198789Y465189D02*
X198867Y465200D01*
X198697Y465147D02*
X198789Y465189D01*
X198597Y465073D02*
X198697Y465147D01*
X198513Y464990D02*
X198597Y465073D01*
X198292Y464727D02*
X198513Y464990D01*
X198104Y464487D02*
X198292Y464727D01*
X197935Y464282D02*
X198104Y464487D01*
X197788Y464131D02*
X197935Y464282D01*
X197688Y464058D02*
X197788Y464131D01*
X197605Y464032D02*
X197688Y464058D01*
X201621Y464071D02*
X201726Y464032D01*
X201482Y464189D02*
X201621Y464071D01*
X201298Y464398D02*
X201482Y464189D01*
X201070Y464688D02*
X201298Y464398D01*
X200952Y464837D02*
X201070Y464688D01*
X200817Y464991D02*
X200952Y464837D01*
X200722Y465083D02*
X200817Y464991D01*
X200603Y465165D02*
X200722Y465083D01*
X200526Y465193D02*
X200603Y465165D01*
X200465Y465200D02*
X200526Y465193D01*
X197605Y481748D02*
X197654Y481739D01*
X197710Y481709D01*
X197776Y481660D01*
X197850Y481591D01*
X197937Y481497D01*
X198034Y481382D01*
X198142Y481246D01*
X198261Y481092D01*
X198379Y480944D01*
X198514Y480789D01*
X198560Y480743D01*
X198610Y480698D01*
X198665Y480654D01*
X198729Y480616D01*
X198766Y480600D01*
X198806Y480587D01*
X198836Y480582D01*
X198867Y480580D01*
X198811Y482733D02*
X200519Y482731D01*
X198813Y463049D02*
X200520Y463048D01*
X200465Y465200D02*
Y480580D01*
X203614Y465804D02*
Y479977D01*
X195717Y465804D02*
Y479977D01*
X198867Y465200D02*
Y480580D01*
Y465729D02*
X200465D01*
X198867Y480052D02*
X200465D01*
X198867Y480580D02*
X200465D01*
X198867Y465200D02*
X200465D01*
X197489Y464032D02*
X201843D01*
X197489Y481748D02*
X201843D01*
X202510Y621535D02*
X202528Y621562D01*
X202588Y621642D01*
X196748Y621637D02*
X196816Y621543D01*
X196821Y621536D01*
X196803Y639082D02*
X196820Y639110D01*
X196744Y639002D02*
X196803Y639082D01*
X202515Y639101D02*
X202583Y639007D01*
X202511Y639108D02*
X202515Y639101D01*
X200465Y638012D02*
X200542Y638024D01*
X200634Y638065D01*
X200734Y638140D01*
X200818Y638222D01*
X201039Y638485D01*
X201227Y638725D01*
X201396Y638930D01*
X201543Y639081D01*
X201644Y639155D01*
X201726Y639180D01*
X197605D02*
X197710Y639141D01*
X197850Y639023D01*
X198034Y638814D01*
X198261Y638524D01*
X198379Y638375D01*
X198514Y638221D01*
X198610Y638130D01*
X198729Y638048D01*
X198806Y638019D01*
X198867Y638012D01*
X201678Y621474D02*
X201726Y621464D01*
X201621Y621503D02*
X201678Y621474D01*
X201555Y621552D02*
X201621Y621503D01*
X201482Y621621D02*
X201555Y621552D01*
X201394Y621716D02*
X201482Y621621D01*
X201298Y621830D02*
X201394Y621716D01*
X201190Y621966D02*
X201298Y621830D01*
X201070Y622120D02*
X201190Y621966D01*
X200953Y622268D02*
X201070Y622120D01*
X200817Y622423D02*
X200953Y622268D01*
X200771Y622469D02*
X200817Y622423D01*
X200722Y622514D02*
X200771Y622469D01*
X200666Y622558D02*
X200722Y622514D01*
X200603Y622596D02*
X200666Y622558D01*
X200566Y622613D02*
X200603Y622596D01*
X200526Y622625D02*
X200566Y622613D01*
X200496Y622630D02*
X200526Y622625D01*
X200465Y622632D02*
X200496Y622630D01*
X198813Y620481D02*
X200520Y620480D01*
X198811Y640165D02*
X200519Y640163D01*
X198867Y622632D02*
Y638012D01*
X195717Y623235D02*
Y637409D01*
X203614Y623235D02*
Y637409D01*
X200465Y622632D02*
Y638012D01*
X198867Y637484D02*
X200465D01*
X198867Y623161D02*
X200465D01*
X198867Y622632D02*
X200465D01*
X198867Y638012D02*
X200465D01*
X197489Y639180D02*
X201843D01*
X197489Y621464D02*
X201843D01*
X251663Y162473D02*
X251681Y162500D01*
X251740Y162580D01*
X245901Y162575D02*
X245969Y162481D01*
X245973Y162474D01*
X245956Y180020D02*
X245973Y180048D01*
X245896Y179940D02*
X245956Y180020D01*
X251668Y180039D02*
X251736Y179945D01*
X251663Y180045D02*
X251668Y180039D01*
X249617Y178950D02*
X249695Y178961D01*
X249787Y179003D01*
X249886Y179077D01*
X249971Y179160D01*
X250192Y179423D01*
X250380Y179663D01*
X250549Y179868D01*
X250696Y180019D01*
X250796Y180092D01*
X250879Y180118D01*
X246758D02*
X246863Y180079D01*
X247002Y179961D01*
X247186Y179752D01*
X247414Y179462D01*
X247532Y179313D01*
X247667Y179159D01*
X247762Y179067D01*
X247881Y178985D01*
X247958Y178957D01*
X248019Y178950D01*
X250830Y162411D02*
X250879Y162402D01*
X250774Y162441D02*
X250830Y162411D01*
X250708Y162490D02*
X250774Y162441D01*
X250634Y162559D02*
X250708Y162490D01*
X250547Y162653D02*
X250634Y162559D01*
X250450Y162768D02*
X250547Y162653D01*
X250342Y162904D02*
X250450Y162768D01*
X250223Y163058D02*
X250342Y162904D01*
X250105Y163206D02*
X250223Y163058D01*
X249970Y163361D02*
X250105Y163206D01*
X249924Y163407D02*
X249970Y163361D01*
X249874Y163452D02*
X249924Y163407D01*
X249819Y163496D02*
X249874Y163452D01*
X249755Y163534D02*
X249819Y163496D01*
X249718Y163550D02*
X249755Y163534D01*
X249678Y163563D02*
X249718Y163550D01*
X249648Y163568D02*
X249678Y163563D01*
X249617Y163570D02*
X249648Y163568D01*
X247965Y161419D02*
X249673Y161417D01*
X247964Y181102D02*
X249671Y181101D01*
X248019Y163570D02*
Y178950D01*
X244870Y164173D02*
Y178346D01*
X252767Y164173D02*
Y178346D01*
X249617Y163570D02*
Y178950D01*
X248019Y178421D02*
X249617D01*
X248019Y164098D02*
X249617D01*
X248019Y163570D02*
X249617D01*
X248019Y178950D02*
X249617D01*
X246641Y180118D02*
X250995D01*
X246641Y162402D02*
X250995D01*
X333553Y160505D02*
X333571Y160532D01*
X333630Y160612D01*
X327791Y160606D02*
X327859Y160512D01*
X327864Y160506D01*
X327846Y178051D02*
X327863Y178079D01*
X327787Y177971D02*
X327846Y178051D01*
X333558Y178071D02*
X333626Y177977D01*
X333553Y178077D02*
X333558Y178071D01*
X331508Y176981D02*
X331585Y176993D01*
X331677Y177035D01*
X331777Y177109D01*
X331861Y177192D01*
X332082Y177454D01*
X332270Y177695D01*
X332439Y177900D01*
X332586Y178050D01*
X332686Y178124D01*
X332769Y178150D01*
X328648D02*
X328753Y178111D01*
X328892Y177992D01*
X329076Y177783D01*
X329304Y177494D01*
X329422Y177345D01*
X329557Y177190D01*
X329652Y177099D01*
X329772Y177017D01*
X329849Y176989D01*
X329910Y176981D01*
X332721Y160443D02*
X332769Y160433D01*
X332664Y160472D02*
X332721Y160443D01*
X332598Y160522D02*
X332664Y160472D01*
X332525Y160591D02*
X332598Y160522D01*
X332437Y160685D02*
X332525Y160591D01*
X332341Y160800D02*
X332437Y160685D01*
X332233Y160936D02*
X332341Y160800D01*
X332113Y161089D02*
X332233Y160936D01*
X331995Y161237D02*
X332113Y161089D01*
X331860Y161393D02*
X331995Y161237D01*
X331814Y161439D02*
X331860Y161393D01*
X331765Y161484D02*
X331814Y161439D01*
X331709Y161527D02*
X331765Y161484D01*
X331645Y161566D02*
X331709Y161527D01*
X331609Y161582D02*
X331645Y161566D01*
X331568Y161594D02*
X331609Y161582D01*
X331539Y161600D02*
X331568Y161594D01*
X331508Y161601D02*
X331539Y161600D01*
X329855Y159450D02*
X331563Y159449D01*
X329854Y179134D02*
X331562Y179133D01*
X329910Y161601D02*
Y176981D01*
X326760Y162205D02*
Y176378D01*
X334657Y162205D02*
Y176378D01*
X331508Y161601D02*
Y176981D01*
X329910Y176453D02*
X331508D01*
X329910Y162130D02*
X331508D01*
X329910Y161601D02*
X331508D01*
X329910Y176981D02*
X331508D01*
X328532Y178150D02*
X332885D01*
X328532Y160433D02*
X332885D01*
X504813Y17934D02*
X504831Y17961D01*
X504890Y18041D01*
X499051Y18035D02*
X499119Y17941D01*
X499123Y17935D01*
X499106Y35480D02*
X499123Y35508D01*
X499047Y35400D02*
X499106Y35480D01*
X504818Y35500D02*
X504886Y35406D01*
X504813Y35506D02*
X504818Y35500D01*
X502768Y34410D02*
X502845Y34422D01*
X502937Y34464D01*
X503037Y34538D01*
X503121Y34621D01*
X503342Y34883D01*
X503530Y35124D01*
X503699Y35329D01*
X503846Y35479D01*
X503946Y35553D01*
X504029Y35579D01*
X499908D02*
X500013Y35540D01*
X500152Y35421D01*
X500336Y35212D01*
X500564Y34923D01*
X500682Y34774D01*
X500817Y34619D01*
X500912Y34528D01*
X501032Y34446D01*
X501109Y34418D01*
X501169Y34410D01*
X503980Y17872D02*
X504029Y17862D01*
X503924Y17901D02*
X503980Y17872D01*
X503858Y17951D02*
X503924Y17901D01*
X503785Y18020D02*
X503858Y17951D01*
X503697Y18114D02*
X503785Y18020D01*
X503601Y18229D02*
X503697Y18114D01*
X503493Y18365D02*
X503601Y18229D01*
X503373Y18518D02*
X503493Y18365D01*
X503256Y18666D02*
X503373Y18518D01*
X503120Y18822D02*
X503256Y18666D01*
X503074Y18868D02*
X503120Y18822D01*
X503024Y18913D02*
X503074Y18868D01*
X502969Y18956D02*
X503024Y18913D01*
X502905Y18995D02*
X502969Y18956D01*
X502869Y19011D02*
X502905Y18995D01*
X502828Y19023D02*
X502869Y19011D01*
X502799Y19029D02*
X502828Y19023D01*
X502768Y19030D02*
X502799Y19029D01*
X501115Y16879D02*
X502823Y16878D01*
X501114Y36563D02*
X502822Y36562D01*
X501169Y19030D02*
Y34410D01*
X498020Y19634D02*
Y33807D01*
X505917Y19634D02*
Y33807D01*
X502768Y19030D02*
Y34410D01*
X501169Y33882D02*
X502768D01*
X501169Y19559D02*
X502768D01*
X501169Y19030D02*
X502768D01*
X501169Y34410D02*
X502768D01*
X499791Y35579D02*
X504145D01*
X499791Y17862D02*
X504145D01*
X546480Y384914D02*
X546498Y384941D01*
X546557Y385021D01*
X540718Y385016D02*
X540786Y384922D01*
X540791Y384915D01*
X540773Y402461D02*
X540790Y402489D01*
X540714Y402381D02*
X540773Y402461D01*
X546485Y402480D02*
X546553Y402386D01*
X546481Y402487D02*
X546485Y402480D01*
X544434Y401391D02*
X544512Y401402D01*
X544604Y401444D01*
X544704Y401518D01*
X544788Y401601D01*
X545009Y401863D01*
X545197Y402104D01*
X545366Y402309D01*
X545513Y402459D01*
X545613Y402533D01*
X545696Y402559D01*
X541575D02*
X541680Y402520D01*
X541819Y402401D01*
X542003Y402193D01*
X542231Y401903D01*
X542349Y401754D01*
X542484Y401600D01*
X542580Y401509D01*
X542699Y401426D01*
X542776Y401398D01*
X542837Y401391D01*
X545647Y384852D02*
X545696Y384842D01*
X545591Y384882D02*
X545647Y384852D01*
X545525Y384931D02*
X545591Y384882D01*
X545451Y385000D02*
X545525Y384931D01*
X545364Y385094D02*
X545451Y385000D01*
X545268Y385209D02*
X545364Y385094D01*
X545160Y385345D02*
X545268Y385209D01*
X545040Y385499D02*
X545160Y385345D01*
X544922Y385647D02*
X545040Y385499D01*
X544787Y385802D02*
X544922Y385647D01*
X544741Y385848D02*
X544787Y385802D01*
X544692Y385893D02*
X544741Y385848D01*
X544636Y385936D02*
X544692Y385893D01*
X544572Y385975D02*
X544636Y385936D01*
X544536Y385992D02*
X544572Y385975D01*
X544495Y386004D02*
X544536Y385992D01*
X544465Y386009D02*
X544495Y386004D01*
X544434Y386011D02*
X544465Y386009D01*
X542782Y383859D02*
X544490Y383858D01*
X542781Y403543D02*
X544489Y403542D01*
X542837Y386011D02*
Y401391D01*
X539687Y386614D02*
Y400787D01*
X547584Y386614D02*
Y400787D01*
X544434Y386011D02*
Y401391D01*
X542837Y400862D02*
X544434D01*
X542837Y386539D02*
X544434D01*
X542837Y386011D02*
X544434D01*
X542837Y401391D02*
X544434D01*
X541459Y402559D02*
X545813D01*
X541459Y384842D02*
X545813D01*
D11*
X489500Y373902D02*
X511000D01*
X489500D02*
Y413402D01*
X511000D01*
Y373902D02*
Y413402D01*
X77650Y453140D02*
X99150D01*
X77650D02*
Y492640D01*
X99150D01*
Y453140D02*
Y492640D01*
X76764Y610572D02*
X98264D01*
X76764D02*
Y650072D01*
X98264D01*
Y610572D02*
Y650072D01*
X109146Y453140D02*
X130646D01*
X109146D02*
Y492640D01*
X130646D01*
Y453140D02*
Y492640D01*
X108260Y610572D02*
X129760D01*
X108260D02*
Y650072D01*
X129760D01*
Y610572D02*
Y650072D01*
D12*
X338937Y741732D02*
G03*
X338937Y741732I-12795J0D01*
G01*
X382677D02*
G03*
X382677Y741732I-12795J0D01*
G01*
X322892Y706102D02*
X395551D01*
Y785925D01*
X331455D02*
X395551D01*
X300473Y706102D02*
X322892D01*
X308349Y785925D02*
X323753D01*
X300473Y706102D02*
Y785925D01*
X308349D01*
X323753D02*
X331455D01*
X14272Y339016D02*
G03*
X14272Y339016I-394J0D01*
G01*
D02*
G03*
X14272Y339016I-394J0D01*
G01*
X38681Y295276D02*
Y334646D01*
X-689Y295276D02*
X38681D01*
X-689D02*
Y334646D01*
X38681D01*
X-38091Y331299D02*
X-689D01*
X-38091Y298622D02*
Y331299D01*
Y298622D02*
X-689D01*
X348012Y739764D02*
Y743701D01*
X346043Y741732D02*
X349980D01*
X290925Y698130D02*
X405098D01*
Y791634D01*
X290925D02*
X405098D01*
X290925Y698130D02*
Y791634D01*
D18*
X301775Y371570D02*
G03*
X301775Y355438I-6302J-8066D01*
G01*
X301282Y424011D02*
G03*
X301282Y407879I-6302J-8066D01*
G01*
X451184Y363854D02*
G03*
X451184Y347721I-6302J-8066D01*
G01*
Y440547D02*
G03*
X451184Y424414I-6302J-8066D01*
G01*
X125948Y342727D02*
G03*
X125948Y326594I-6302J-8066D01*
G01*
X125948Y303716D02*
G03*
X125948Y287583I-6302J-8066D01*
G01*
X31359Y667520D02*
X33819Y665059D01*
X27717Y667520D02*
X33819D01*
X27717Y656890D02*
Y667520D01*
Y656890D02*
X33819D01*
Y667520D01*
X28996Y508472D02*
X32540D01*
X28996Y515165D02*
X32540D01*
X28996Y508472D02*
Y515165D01*
X32540Y508472D02*
Y515165D01*
X28996Y587606D02*
X32540D01*
X28996Y594298D02*
X32540D01*
X28996Y587606D02*
Y594298D01*
X32540Y587606D02*
Y594298D01*
X61280Y468756D02*
Y477024D01*
X55965Y468756D02*
Y477024D01*
X61280D01*
X55965Y468756D02*
X61280D01*
Y626188D02*
Y634456D01*
X55965Y626188D02*
Y634456D01*
X61280D01*
X55965Y626188D02*
X61280D01*
X81063Y570972D02*
X96418D01*
Y531995D02*
Y570972D01*
X81063Y531995D02*
X96418D01*
X81063D02*
Y570972D01*
Y565972D02*
X86063Y570972D01*
X85445Y518050D02*
X90658D01*
Y506554D02*
Y518050D01*
X85445Y506554D02*
X90658D01*
X85445D02*
Y518050D01*
Y514310D02*
X89185Y518050D01*
X85445Y596700D02*
X90658D01*
Y585204D02*
Y596700D01*
X85445Y585204D02*
X90658D01*
X85445D02*
Y596700D01*
Y592960D02*
X89185Y596700D01*
X117059Y517566D02*
X122272D01*
Y506070D02*
Y517566D01*
X117059Y506070D02*
X122272D01*
X117059D02*
Y517566D01*
Y513826D02*
X120800Y517566D01*
X117059Y596700D02*
X122272D01*
Y585204D02*
Y596700D01*
X117059Y585204D02*
X122272D01*
X117059D02*
Y596700D01*
Y592960D02*
X120799Y596700D01*
X56016Y517566D02*
X61229D01*
Y506070D02*
Y517566D01*
X56016Y506070D02*
X61229D01*
X56016D02*
Y517566D01*
Y513826D02*
X59756Y517566D01*
X56016Y596700D02*
X61229D01*
Y585204D02*
Y596700D01*
X56016Y585204D02*
X61229D01*
X56016D02*
Y596700D01*
Y592960D02*
X59756Y596700D01*
X587402Y390249D02*
X589772Y387879D01*
X580039Y390249D02*
X589803D01*
X580039Y359541D02*
Y390249D01*
Y359541D02*
X589803D01*
Y390249D01*
X587402Y427703D02*
X589772Y425333D01*
X580039Y427703D02*
X589803D01*
X580039Y396995D02*
Y427703D01*
Y396995D02*
X589803D01*
Y427703D01*
X301772Y355438D02*
Y371570D01*
X301280Y407879D02*
Y424011D01*
X349362Y260835D02*
X351732Y258465D01*
X349331D02*
X359095D01*
Y289173D01*
X349331D02*
X359095D01*
X349331Y258465D02*
Y289173D01*
X349362Y503276D02*
X351732Y500906D01*
X349331D02*
X359095D01*
Y531614D01*
X349331D02*
X359095D01*
X349331Y500906D02*
Y531614D01*
X451181Y347721D02*
Y363854D01*
Y424414D02*
Y440547D01*
X587402Y352795D02*
X589772Y350425D01*
X580039Y352795D02*
X589803D01*
X580039Y322087D02*
Y352795D01*
Y322087D02*
X589803D01*
Y352795D01*
X587402Y465157D02*
X589772Y462787D01*
X580039Y465157D02*
X589803D01*
X580039Y434449D02*
Y465157D01*
Y434449D02*
X589803D01*
Y465157D01*
X424350Y133779D02*
X426720Y131409D01*
X416988Y133779D02*
X426752D01*
X416988Y103071D02*
Y133779D01*
Y103071D02*
X426752D01*
Y133779D01*
X423268Y678346D02*
X425638Y675976D01*
X415905Y678346D02*
X425669D01*
X415905Y647638D02*
Y678346D01*
Y647638D02*
X425669D01*
Y678346D01*
X125945Y326594D02*
Y342727D01*
Y287583D02*
Y303716D01*
X31359Y488744D02*
X33819Y486284D01*
X27717Y488744D02*
X33819D01*
X27717Y478114D02*
Y488744D01*
Y478114D02*
X33819D01*
Y488744D01*
X31949Y449291D02*
X34410Y446831D01*
X28308Y449291D02*
X34410D01*
X28308Y438661D02*
Y449291D01*
Y438661D02*
X34410D01*
Y449291D01*
X31359Y635532D02*
X33819Y633071D01*
X27717Y635532D02*
X33819D01*
X27717Y624902D02*
Y635532D01*
Y624902D02*
X33819D01*
Y635532D01*
X359921Y320512D02*
Y361063D01*
X345748Y320512D02*
X364843D01*
X345748Y361063D02*
X364843D01*
Y320512D02*
Y361063D01*
X345748Y320512D02*
Y361063D01*
X359921Y427205D02*
Y467756D01*
X345748Y427205D02*
X364843D01*
X345748Y467756D02*
X364843D01*
Y427205D02*
Y467756D01*
X345748Y427205D02*
Y467756D01*
X30768Y510046D02*
Y513590D01*
X28996Y511818D02*
X32540D01*
X30768Y589180D02*
Y592724D01*
X28996Y590952D02*
X32540D01*
X56654Y472890D02*
X60591D01*
X58622Y470922D02*
Y474859D01*
X56654Y630322D02*
X60591D01*
X58622Y628354D02*
Y632291D01*
X295472Y361535D02*
Y365472D01*
X293504Y363504D02*
X297441D01*
X294980Y413976D02*
Y417913D01*
X293012Y415945D02*
X296949D01*
X444882Y353819D02*
Y357756D01*
X442913Y355787D02*
X446850D01*
X444882Y430512D02*
Y434449D01*
X442913Y432480D02*
X446850D01*
X42618Y288311D02*
Y341610D01*
X-42028Y288311D02*
X42618D01*
X-42028D02*
Y341610D01*
X42618D01*
X117678Y334660D02*
X121615D01*
X119646Y332692D02*
Y336629D01*
X117677Y295650D02*
X121614D01*
X119646Y293681D02*
Y297618D01*
X354331Y338819D02*
Y342756D01*
X352362Y340787D02*
X356299D01*
X354331Y445512D02*
Y449449D01*
X352362Y447480D02*
X356299D01*
D24*
X24705Y331693D02*
X34547D01*
X24705Y327756D02*
Y331693D01*
Y327756D02*
X34547D01*
Y331693D01*
X24705Y302165D02*
X34547D01*
X24705Y298228D02*
Y302165D01*
Y298228D02*
X34547D01*
Y302165D01*
X12500Y319882D02*
X17618D01*
X12500Y310039D02*
Y319882D01*
Y310039D02*
X17618D01*
Y319882D01*
X508500Y404852D02*
G03*
X508500Y404852I-500J0D01*
G01*
X499500Y379902D02*
G03*
X499500Y379902I-4000J0D01*
G01*
X96650Y484090D02*
G03*
X96650Y484090I-500J0D01*
G01*
X87650Y459140D02*
G03*
X87650Y459140I-4000J0D01*
G01*
X95764Y641522D02*
G03*
X95764Y641522I-500J0D01*
G01*
X86764Y616572D02*
G03*
X86764Y616572I-4000J0D01*
G01*
X128146Y484090D02*
G03*
X128146Y484090I-500J0D01*
G01*
X119146Y459140D02*
G03*
X119146Y459140I-4000J0D01*
G01*
X127260Y641522D02*
G03*
X127260Y641522I-500J0D01*
G01*
X118260Y616572D02*
G03*
X118260Y616572I-4000J0D01*
G01*
D25*
X8258Y329724D02*
Y326561D01*
X8610Y325507D01*
X8961Y325156D01*
X9664Y324804D01*
X10719D01*
X11422Y325156D01*
X11773Y325507D01*
X12124Y326561D01*
Y329724D01*
X4744D01*
X10367Y317881D02*
X11070Y318232D01*
X11773Y318935D01*
X12124Y319638D01*
Y321044D01*
X11773Y321747D01*
X11070Y322449D01*
X10367Y322801D01*
X9313Y323152D01*
X7556D01*
X6501Y322801D01*
X5798Y322449D01*
X5096Y321747D01*
X4744Y321044D01*
Y319638D01*
X5096Y318935D01*
X5798Y318232D01*
X6501Y317881D01*
X12124Y315807D02*
X4744D01*
X12124D02*
Y312644D01*
X11773Y311590D01*
X11422Y311239D01*
X10719Y310887D01*
X10016D01*
X9313Y311239D01*
X8961Y311590D01*
X8610Y312644D01*
Y315807D02*
Y312644D01*
X8258Y311590D01*
X7907Y311239D01*
X7204Y310887D01*
X6150D01*
X5447Y311239D01*
X5096Y311590D01*
X4744Y312644D01*
Y315807D01*
X12124Y298868D02*
Y303436D01*
X4744D01*
Y298868D01*
X8610Y303436D02*
Y300625D01*
X12124Y297638D02*
X4744D01*
X12124D02*
Y295178D01*
X11773Y294123D01*
X11070Y293420D01*
X10367Y293069D01*
X9313Y292717D01*
X7556D01*
X6501Y293069D01*
X5798Y293420D01*
X5096Y294123D01*
X4744Y295178D01*
Y297638D01*
X10367Y285794D02*
X11070Y286145D01*
X11773Y286848D01*
X12124Y287551D01*
Y288957D01*
X11773Y289660D01*
X11070Y290363D01*
X10367Y290714D01*
X9313Y291066D01*
X7556D01*
X6501Y290714D01*
X5798Y290363D01*
X5096Y289660D01*
X4744Y288957D01*
Y287551D01*
X5096Y286848D01*
X5798Y286145D01*
X6501Y285794D01*
X7556D01*
Y287551D02*
Y285794D01*
X12124Y279538D02*
Y284107D01*
X4744D01*
Y279538D01*
X8610Y284107D02*
Y281295D01*
X8258Y329724D02*
Y326561D01*
X8610Y325507D01*
X8961Y325156D01*
X9664Y324804D01*
X10719D01*
X11422Y325156D01*
X11773Y325507D01*
X12124Y326561D01*
Y329724D01*
X4744D01*
X10367Y317881D02*
X11070Y318232D01*
X11773Y318935D01*
X12124Y319638D01*
Y321044D01*
X11773Y321747D01*
X11070Y322449D01*
X10367Y322801D01*
X9313Y323152D01*
X7556D01*
X6501Y322801D01*
X5798Y322449D01*
X5096Y321747D01*
X4744Y321044D01*
Y319638D01*
X5096Y318935D01*
X5798Y318232D01*
X6501Y317881D01*
X12124Y315807D02*
X4744D01*
X12124D02*
Y312644D01*
X11773Y311590D01*
X11422Y311239D01*
X10719Y310887D01*
X10016D01*
X9313Y311239D01*
X8961Y311590D01*
X8610Y312644D01*
Y315807D02*
Y312644D01*
X8258Y311590D01*
X7907Y311239D01*
X7204Y310887D01*
X6150D01*
X5447Y311239D01*
X5096Y311590D01*
X4744Y312644D01*
Y315807D01*
X12124Y298868D02*
Y303436D01*
X4744D01*
Y298868D01*
X8610Y303436D02*
Y300625D01*
X12124Y297638D02*
X4744D01*
X12124D02*
Y295178D01*
X11773Y294123D01*
X11070Y293420D01*
X10367Y293069D01*
X9313Y292717D01*
X7556D01*
X6501Y293069D01*
X5798Y293420D01*
X5096Y294123D01*
X4744Y295178D01*
Y297638D01*
X10367Y285794D02*
X11070Y286145D01*
X11773Y286848D01*
X12124Y287551D01*
Y288957D01*
X11773Y289660D01*
X11070Y290363D01*
X10367Y290714D01*
X9313Y291066D01*
X7556D01*
X6501Y290714D01*
X5798Y290363D01*
X5096Y289660D01*
X4744Y288957D01*
Y287551D01*
X5096Y286848D01*
X5798Y286145D01*
X6501Y285794D01*
X7556D01*
Y287551D02*
Y285794D01*
X12124Y279538D02*
Y284107D01*
X4744D01*
Y279538D01*
X8610Y284107D02*
Y281295D01*
D26*
X61754Y227461D02*
G03*
X61754Y227461I-2994J0D01*
G01*
Y187087D02*
G03*
X61754Y187087I-2994J0D01*
G01*
X61753Y43307D02*
G03*
X61753Y43307I-2994J0D01*
G01*
X61754Y106299D02*
G03*
X61754Y106299I-2994J0D01*
G01*
X266773Y741732D02*
G03*
X266773Y741732I-2994J0D01*
G01*
X32620Y361024D02*
G03*
X32620Y361024I-2994J0D01*
G01*
X199844Y331004D02*
G03*
X199844Y331004I-2994J0D01*
G01*
X61754Y146693D02*
G03*
X61754Y146693I-2994J0D01*
G01*
X199844Y293596D02*
G03*
X199844Y293596I-2994J0D01*
G01*
X61616Y413787D02*
G03*
X61616Y413787I-2994J0D01*
G01*
X60769Y689279D02*
G03*
X60769Y689279I-2994J0D01*
G01*
X34352Y413787D02*
G03*
X34352Y413787I-2994J0D01*
G01*
X33762Y689279D02*
G03*
X33762Y689279I-2994J0D01*
G01*
X122640Y413787D02*
G03*
X122640Y413787I-2994J0D01*
G01*
X121754Y689279D02*
G03*
X121754Y689279I-2994J0D01*
G01*
X148919Y414869D02*
G03*
X148919Y414869I-2994J0D01*
G01*
X148919Y689476D02*
G03*
X148919Y689476I-2994J0D01*
G01*
X357325Y157480D02*
G03*
X357325Y157480I-2994J0D01*
G01*
Y629528D02*
G03*
X357325Y629528I-2994J0D01*
G01*
X496104Y221063D02*
G03*
X496104Y221063I-2994J0D01*
G01*
X495907Y561221D02*
G03*
X495907Y561221I-2994J0D01*
G01*
D27*
X24174Y672146D02*
X37362D01*
X24174Y652264D02*
Y672146D01*
Y652264D02*
X37362D01*
Y672146D01*
X28012Y506318D02*
X33524D01*
X28012Y517318D02*
X33524D01*
X28012Y506318D02*
Y517318D01*
X33524Y506318D02*
Y517318D01*
X28012Y585452D02*
X33524D01*
X28012Y596452D02*
X33524D01*
X28012Y585452D02*
Y596452D01*
X33524Y585452D02*
Y596452D01*
X62363Y465890D02*
Y479890D01*
X54882Y465890D02*
Y479890D01*
X62363D01*
X54882Y465890D02*
X62363D01*
Y623322D02*
Y637322D01*
X54882Y623322D02*
Y637322D01*
X62363D01*
X54882Y623322D02*
X62363D01*
X73977Y572153D02*
X103504D01*
Y530814D02*
Y572153D01*
X73977Y530814D02*
X103504D01*
X73977D02*
Y572153D01*
X80374Y519428D02*
X95729D01*
Y505176D02*
Y519428D01*
X80374Y505176D02*
X95729D01*
X80374D02*
Y519428D01*
Y598078D02*
X95729D01*
Y583826D02*
Y598078D01*
X80374Y583826D02*
X95729D01*
X80374D02*
Y598078D01*
X111988Y518944D02*
X127343D01*
Y504692D02*
Y518944D01*
X111988Y504692D02*
X127343D01*
X111988D02*
Y518944D01*
Y598078D02*
X127343D01*
Y583826D02*
Y598078D01*
X111988Y583826D02*
X127343D01*
X111988D02*
Y598078D01*
X50945Y518944D02*
X66300D01*
Y504692D02*
Y518944D01*
X50945Y504692D02*
X66300D01*
X50945D02*
Y518944D01*
Y598078D02*
X66300D01*
Y583826D02*
Y598078D01*
X50945Y583826D02*
X66300D01*
X50945D02*
Y598078D01*
X579114Y391234D02*
X590433D01*
X579114Y358556D02*
Y391234D01*
Y358556D02*
X590433D01*
Y391234D01*
X579114Y428688D02*
X590433D01*
X579114Y396010D02*
Y428688D01*
Y396010D02*
X590433D01*
Y428688D01*
X348701Y257480D02*
X360020D01*
Y290157D01*
X348701D02*
X360020D01*
X348701Y257480D02*
Y290157D01*
Y499921D02*
X360020D01*
Y532598D01*
X348701D02*
X360020D01*
X348701Y499921D02*
Y532598D01*
X579114Y353780D02*
X590433D01*
X579114Y321102D02*
Y353780D01*
Y321102D02*
X590433D01*
Y353780D01*
X579114Y466142D02*
X590433D01*
X579114Y433465D02*
Y466142D01*
Y433465D02*
X590433D01*
Y466142D01*
X416063Y134764D02*
X427382D01*
X416063Y102087D02*
Y134764D01*
Y102087D02*
X427382D01*
Y134764D01*
X414980Y679330D02*
X426299D01*
X414980Y646653D02*
Y679330D01*
Y646653D02*
X426299D01*
Y679330D01*
X24174Y493370D02*
X37363D01*
X24174Y473488D02*
Y493370D01*
Y473488D02*
X37363D01*
Y493370D01*
X24764Y453917D02*
X37953D01*
X24764Y434035D02*
Y453917D01*
Y434035D02*
X37953D01*
Y453917D01*
X24173Y640157D02*
X37362D01*
X24173Y620276D02*
Y640157D01*
Y620276D02*
X37362D01*
Y640157D01*
X344764Y319528D02*
X365827D01*
X344764Y362047D02*
X365827D01*
Y319528D02*
Y362047D01*
X344764Y319528D02*
Y362047D01*
Y426221D02*
X365827D01*
X344764Y468740D02*
X365827D01*
Y426221D02*
Y468740D01*
X344764Y426221D02*
Y468740D01*
X590378Y41929D02*
Y123425D01*
X567543Y41929D02*
X590378D01*
X567543D02*
Y123425D01*
X590378D01*
Y663976D02*
Y745472D01*
X567543Y663976D02*
X590378D01*
X567543D02*
Y745472D01*
X590378D01*
Y231732D02*
Y313228D01*
X567543Y231732D02*
X590378D01*
X567543D02*
Y313228D01*
X590378D01*
Y474016D02*
Y555512D01*
X567543Y474016D02*
X590378D01*
X567543D02*
Y555512D01*
X590378D01*
Y136831D02*
Y218327D01*
X567543Y136831D02*
X590378D01*
X567543D02*
Y218327D01*
X590378D01*
Y568996D02*
Y650492D01*
X567543Y568996D02*
X590378D01*
X567543D02*
Y650492D01*
X590378D01*
X-39075Y335630D02*
X39665D01*
X-39075Y294291D02*
Y335630D01*
Y294291D02*
X39665D01*
Y335630D01*
M02*
