G04*
G04 #@! TF.GenerationSoftware,Altium Limited,Altium Designer,18.0.7 (293)*
G04*
G04 Layer_Physical_Order=2*
G04 Layer_Color=16711680*
%FSLAX25Y25*%
%MOIN*%
G70*
G01*
G75*
%ADD10C,0.00500*%
%ADD11C,0.00787*%
%ADD12C,0.00600*%
%ADD13C,0.01000*%
%ADD19C,0.00394*%
%ADD21C,0.00000*%
%ADD22C,0.00000*%
%ADD23C,0.00781*%
%ADD24C,0.00300*%
%ADD25C,0.00197*%
%ADD53R,0.05118X0.05118*%
%ADD54C,0.05118*%
%ADD55C,0.07087*%
%ADD56C,0.07500*%
G04:AMPARAMS|DCode=57|XSize=75mil|YSize=75mil|CornerRadius=9.38mil|HoleSize=0mil|Usage=FLASHONLY|Rotation=90.000|XOffset=0mil|YOffset=0mil|HoleType=Round|Shape=RoundedRectangle|*
%AMROUNDEDRECTD57*
21,1,0.07500,0.05625,0,0,90.0*
21,1,0.05625,0.07500,0,0,90.0*
1,1,0.01875,0.02813,0.02813*
1,1,0.01875,0.02813,-0.02813*
1,1,0.01875,-0.02813,-0.02813*
1,1,0.01875,-0.02813,0.02813*
%
%ADD57ROUNDEDRECTD57*%
%ADD58C,0.11811*%
%ADD59R,0.05906X0.05906*%
%ADD60C,0.05906*%
%ADD61C,0.07677*%
%ADD62C,0.05200*%
%ADD63R,0.05200X0.05200*%
%ADD64O,0.06000X0.07000*%
G04:AMPARAMS|DCode=65|XSize=60mil|YSize=70mil|CornerRadius=0mil|HoleSize=0mil|Usage=FLASHONLY|Rotation=180.000|XOffset=0mil|YOffset=0mil|HoleType=Round|Shape=Octagon|*
%AMOCTAGOND65*
4,1,8,0.01500,-0.03500,-0.01500,-0.03500,-0.03000,-0.02000,-0.03000,0.02000,-0.01500,0.03500,0.01500,0.03500,0.03000,0.02000,0.03000,-0.02000,0.01500,-0.03500,0.0*
%
%ADD65OCTAGOND65*%

%ADD66P,0.23438X8X22.5*%
%ADD67C,0.15902*%
%ADD68R,0.08268X0.08268*%
%ADD69C,0.08268*%
%ADD70R,0.07874X0.03937*%
%ADD71O,0.07874X0.03937*%
%ADD72C,0.05512*%
%ADD73R,0.05200X0.05200*%
%ADD74C,0.04724*%
%ADD75O,0.05150X0.11874*%
%ADD76O,0.05937X0.11874*%
%ADD77O,0.11874X0.05937*%
%ADD78R,0.05906X0.05906*%
%ADD79C,0.05000*%
G36*
X518383Y190278D02*
X518156Y189798D01*
X517626Y189850D01*
Y181406D01*
X526071D01*
X526019Y181936D01*
X526499Y182163D01*
X532961Y175700D01*
X532747Y175248D01*
X532390Y175283D01*
Y166839D01*
X540835D01*
X540799Y167196D01*
X541251Y167410D01*
X575083Y133578D01*
X578913D01*
Y129748D01*
X590551Y118110D01*
Y78740D01*
X579602Y67791D01*
Y40241D01*
X558102D01*
Y46291D01*
X519781Y7970D01*
X499763D01*
X499571Y8432D01*
X531930Y40791D01*
X529067D01*
Y42253D01*
X496784Y9970D01*
X480668D01*
X480422Y10470D01*
X480977Y11193D01*
X481434Y12298D01*
X481525Y12984D01*
X477008D01*
Y13484D01*
X476508D01*
Y18001D01*
X475822Y17911D01*
X474717Y17453D01*
X473768Y16725D01*
X473039Y15776D01*
X472865Y15353D01*
X472977Y15334D01*
X473229Y15339D01*
X473489Y15394D01*
X473758Y15497D01*
X474035Y15648D01*
X474321Y15849D01*
X474615Y16098D01*
X474081Y11487D01*
X472409Y13749D01*
X471935Y13588D01*
X471741Y13781D01*
X471245Y14113D01*
X470660Y14229D01*
X465003D01*
X464418Y14113D01*
X463922Y13781D01*
X462589Y12449D01*
X462535Y12412D01*
X462439Y12362D01*
X462313Y12311D01*
X462154Y12263D01*
X461964Y12220D01*
X461756Y12187D01*
X461199Y12145D01*
X460947Y12142D01*
X460866Y12153D01*
X459937Y12030D01*
X459071Y11672D01*
X458328Y11101D01*
X457757Y10358D01*
X457399Y9492D01*
X457276Y8563D01*
X457399Y7634D01*
X457757Y6768D01*
X458328Y6025D01*
X459071Y5454D01*
X459937Y5096D01*
X460866Y4973D01*
X461795Y5096D01*
X462661Y5454D01*
X463405Y6025D01*
X463975Y6768D01*
X464334Y7634D01*
X464456Y8563D01*
X464447Y8634D01*
X464464Y9200D01*
X464488Y9440D01*
X464523Y9661D01*
X464566Y9851D01*
X464614Y10009D01*
X464665Y10136D01*
X464716Y10232D01*
X464752Y10286D01*
X465261Y10795D01*
X465327Y10783D01*
X465445Y10619D01*
X465579Y10231D01*
X465273Y9492D01*
X465150Y8563D01*
X465273Y7634D01*
X465631Y6768D01*
X466202Y6025D01*
X466945Y5454D01*
X467811Y5096D01*
X468740Y4973D01*
X469669Y5096D01*
X469982Y5225D01*
X470277Y5028D01*
X470862Y4911D01*
X516069D01*
X516260Y4450D01*
X511811Y0D01*
X78740Y197D01*
X78543D01*
X24221Y54520D01*
X16831D01*
Y55020D01*
X16331D01*
Y62409D01*
X0Y78740D01*
Y118110D01*
X0D01*
X12318Y130428D01*
X12779Y130236D01*
Y121146D01*
X23047D01*
Y129214D01*
X23255Y129458D01*
X38232Y144435D01*
X45633D01*
X45748Y144423D01*
X45988Y144356D01*
X46307Y144220D01*
X46692Y144008D01*
X47137Y143719D01*
X47617Y143363D01*
X49411Y141777D01*
X50023Y141168D01*
X50113Y141058D01*
X51165Y140195D01*
X52364Y139554D01*
X53666Y139159D01*
X55020Y139026D01*
X56373Y139159D01*
X57675Y139554D01*
X58875Y140195D01*
X59926Y141058D01*
X60010Y141160D01*
X61272Y142384D01*
X62415Y143358D01*
X62902Y143719D01*
X63347Y144008D01*
X63733Y144220D01*
X64051Y144356D01*
X64291Y144423D01*
X64406Y144435D01*
X70993D01*
X71408Y144158D01*
X71994Y144041D01*
X84630D01*
Y141618D01*
X92535D01*
Y144041D01*
X101366D01*
X101608Y143800D01*
X102104Y143469D01*
X102689Y143352D01*
X110247D01*
X110263Y143351D01*
X110395Y143319D01*
X110573Y143253D01*
X110793Y143145D01*
X111048Y142993D01*
X111334Y142795D01*
X111640Y142557D01*
X112358Y141917D01*
X112656Y141621D01*
X112754Y141494D01*
X113746Y140733D01*
X114902Y140254D01*
X116142Y140091D01*
X116301Y140112D01*
X116721Y140110D01*
X117681Y140055D01*
X118065Y140006D01*
X118408Y139944D01*
X118696Y139872D01*
X118928Y139793D01*
X119101Y139714D01*
X119217Y139642D01*
X119228Y139632D01*
X125474Y133387D01*
X125970Y133056D01*
X126555Y132939D01*
X137120D01*
X137190Y132934D01*
X137200Y132933D01*
X137646Y132351D01*
X138267Y131876D01*
X138989Y131577D01*
X139764Y131474D01*
X143701D01*
X144476Y131577D01*
X145198Y131876D01*
X145818Y132351D01*
X146294Y132972D01*
X146593Y133694D01*
X146695Y134469D01*
X146593Y135243D01*
X146294Y135966D01*
X145818Y136586D01*
X145645Y136719D01*
Y137219D01*
X145818Y137351D01*
X146294Y137971D01*
X146593Y138694D01*
X146629Y138969D01*
X146608D01*
X146377Y138964D01*
X145987Y138924D01*
X145828Y138890D01*
X145694Y138845D01*
X145585Y138791D01*
X145500Y138727D01*
X145439Y138653D01*
X145402Y138569D01*
X145390Y138476D01*
Y138969D01*
X138074D01*
Y138476D01*
X138062Y138569D01*
X138026Y138653D01*
X137965Y138727D01*
X137880Y138791D01*
X137770Y138845D01*
X137636Y138890D01*
X137478Y138924D01*
X137295Y138949D01*
X137088Y138964D01*
X136856Y138969D01*
X136835D01*
X136872Y138694D01*
X137171Y137971D01*
X137646Y137351D01*
X137820Y137219D01*
Y136719D01*
X137646Y136586D01*
X137205Y136010D01*
X137084Y135998D01*
X127189D01*
X121391Y141795D01*
X121381Y141807D01*
X121310Y141923D01*
X121231Y142096D01*
X121152Y142327D01*
X121079Y142616D01*
X121017Y142958D01*
X120969Y143343D01*
X120914Y144302D01*
X120912Y144723D01*
X120933Y144882D01*
X120770Y146122D01*
X120291Y147277D01*
X119529Y148269D01*
X118537Y149031D01*
X117382Y149510D01*
X116142Y149673D01*
X114902Y149510D01*
X113746Y149031D01*
X112754Y148269D01*
X112656Y148142D01*
X112358Y147846D01*
X111640Y147207D01*
X111334Y146969D01*
X111048Y146771D01*
X110793Y146618D01*
X110574Y146511D01*
X110395Y146444D01*
X110263Y146413D01*
X110247Y146411D01*
X103323D01*
X103081Y146652D01*
X102585Y146984D01*
X102000Y147100D01*
X92535D01*
Y149524D01*
X84630D01*
Y147100D01*
X72600D01*
X72185Y147378D01*
X71600Y147494D01*
X64406D01*
X64291Y147506D01*
X64051Y147573D01*
X63732Y147710D01*
X63347Y147921D01*
X62902Y148211D01*
X62422Y148566D01*
X60628Y150152D01*
X60016Y150761D01*
X59926Y150871D01*
X58875Y151734D01*
X57675Y152375D01*
X56373Y152770D01*
X55020Y152903D01*
X53666Y152770D01*
X52364Y152375D01*
X51165Y151734D01*
X50113Y150871D01*
X50029Y150769D01*
X48768Y149545D01*
X47624Y148572D01*
X47137Y148211D01*
X46692Y147921D01*
X46307Y147710D01*
X45988Y147573D01*
X45748Y147506D01*
X45633Y147494D01*
X37598D01*
X37013Y147378D01*
X36517Y147046D01*
X21129Y131658D01*
X20970Y131510D01*
X20850Y131413D01*
X13957D01*
X13765Y131875D01*
X78740Y196850D01*
X511811D01*
X518383Y190278D01*
D02*
G37*
G36*
X22922Y150267D02*
X22750Y150060D01*
X22597Y149805D01*
X22462Y149501D01*
X22346Y149149D01*
X22249Y148747D01*
X22171Y148296D01*
X22112Y147797D01*
X22050Y146652D01*
X22047Y146006D01*
X17955Y150098D01*
X18601Y150101D01*
X20245Y150222D01*
X20696Y150300D01*
X21097Y150397D01*
X21450Y150513D01*
X21754Y150648D01*
X22009Y150801D01*
X22215Y150974D01*
X22922Y150267D01*
D02*
G37*
G36*
X91522Y146476D02*
X91552Y146391D01*
X91602Y146316D01*
X91673Y146251D01*
X91764Y146196D01*
X91876Y146151D01*
X92007Y146116D01*
X92159Y146091D01*
X92331Y146076D01*
X92523Y146071D01*
Y145071D01*
X92331Y145066D01*
X92159Y145051D01*
X92007Y145026D01*
X91876Y144991D01*
X91764Y144946D01*
X91673Y144891D01*
X91602Y144826D01*
X91552Y144751D01*
X91522Y144666D01*
X91511Y144571D01*
Y146571D01*
X91522Y146476D01*
D02*
G37*
G36*
X85654Y144571D02*
X85644Y144666D01*
X85613Y144751D01*
X85563Y144826D01*
X85492Y144891D01*
X85401Y144946D01*
X85290Y144991D01*
X85158Y145026D01*
X85006Y145051D01*
X84834Y145066D01*
X84642Y145071D01*
Y146071D01*
X84834Y146076D01*
X85006Y146091D01*
X85158Y146116D01*
X85290Y146151D01*
X85401Y146196D01*
X85492Y146251D01*
X85563Y146316D01*
X85613Y146391D01*
X85644Y146476D01*
X85654Y146571D01*
Y144571D01*
D02*
G37*
G36*
X113464Y142257D02*
X113056Y142660D01*
X112293Y143341D01*
X111938Y143617D01*
X111600Y143851D01*
X111280Y144042D01*
X110978Y144191D01*
X110693Y144297D01*
X110425Y144360D01*
X110175Y144382D01*
Y145382D01*
X110425Y145403D01*
X110693Y145467D01*
X110978Y145573D01*
X111280Y145722D01*
X111600Y145913D01*
X111938Y146147D01*
X112293Y146423D01*
X113056Y147103D01*
X113464Y147507D01*
Y142257D01*
D02*
G37*
G36*
X59930Y149408D02*
X61780Y147773D01*
X62321Y147373D01*
X62822Y147046D01*
X63286Y146792D01*
X63711Y146610D01*
X64098Y146501D01*
X64447Y146465D01*
Y145465D01*
X64098Y145428D01*
X63711Y145319D01*
X63286Y145138D01*
X62822Y144883D01*
X62321Y144556D01*
X61780Y144156D01*
X60585Y143139D01*
X59237Y141831D01*
Y150099D01*
X59930Y149408D01*
D02*
G37*
G36*
X50802Y141831D02*
X50109Y142521D01*
X48259Y144156D01*
X47719Y144556D01*
X47217Y144883D01*
X46753Y145138D01*
X46328Y145319D01*
X45941Y145428D01*
X45592Y145465D01*
Y146465D01*
X45941Y146501D01*
X46328Y146610D01*
X46753Y146792D01*
X47217Y147046D01*
X47719Y147373D01*
X48259Y147773D01*
X49454Y148790D01*
X50802Y150099D01*
Y141831D01*
D02*
G37*
G36*
X119895Y144270D02*
X119953Y143250D01*
X120009Y142804D01*
X120082Y142400D01*
X120174Y142038D01*
X120282Y141719D01*
X120409Y141442D01*
X120553Y141208D01*
X120714Y141016D01*
X120007Y140309D01*
X119816Y140471D01*
X119581Y140615D01*
X119305Y140741D01*
X118986Y140850D01*
X118624Y140941D01*
X118220Y141015D01*
X117773Y141070D01*
X116753Y141129D01*
X116179Y141132D01*
X119892Y144844D01*
X119895Y144270D01*
D02*
G37*
G36*
X138074Y133476D02*
X138062Y133570D01*
X138026Y133653D01*
X137965Y133727D01*
X137880Y133791D01*
X137770Y133845D01*
X137636Y133890D01*
X137478Y133924D01*
X137295Y133949D01*
X137088Y133964D01*
X136856Y133969D01*
Y134969D01*
X137088Y134974D01*
X137478Y135013D01*
X137636Y135047D01*
X137770Y135092D01*
X137880Y135146D01*
X137965Y135210D01*
X138026Y135284D01*
X138062Y135368D01*
X138074Y135461D01*
Y133476D01*
D02*
G37*
G36*
X22742Y130402D02*
X22543Y130195D01*
X22230Y129826D01*
X22115Y129663D01*
X22029Y129515D01*
X21971Y129380D01*
X21942Y129261D01*
X21941Y129155D01*
X21968Y129064D01*
X22023Y128987D01*
X20621Y130389D01*
X20698Y130334D01*
X20789Y130307D01*
X20894Y130308D01*
X21014Y130338D01*
X21148Y130395D01*
X21297Y130482D01*
X21460Y130596D01*
X21637Y130738D01*
X22035Y131109D01*
X22742Y130402D01*
D02*
G37*
G36*
X464080Y11070D02*
X463952Y10924D01*
X463838Y10755D01*
X463738Y10564D01*
X463652Y10350D01*
X463580Y10113D01*
X463521Y9854D01*
X463477Y9571D01*
X463446Y9267D01*
X463425Y8589D01*
X460892Y11122D01*
X461242Y11125D01*
X461874Y11173D01*
X462157Y11218D01*
X462416Y11277D01*
X462653Y11349D01*
X462867Y11435D01*
X463058Y11535D01*
X463227Y11649D01*
X463373Y11777D01*
X464080Y11070D01*
D02*
G37*
G36*
X470879Y7149D02*
X470888Y7137D01*
X470904Y7117D01*
X470995Y7019D01*
X471216Y6794D01*
X470509Y6087D01*
X470148Y6426D01*
X470877Y7155D01*
X470879Y7149D01*
D02*
G37*
%LPC*%
G36*
X516626Y189850D02*
X515371Y189727D01*
X513684Y189215D01*
X512129Y188384D01*
X510766Y187265D01*
X509648Y185902D01*
X508816Y184347D01*
X508305Y182660D01*
X508181Y181406D01*
X516626D01*
Y189850D01*
D02*
G37*
G36*
X222426Y179089D02*
X222155Y178818D01*
X222104Y178783D01*
X222012Y178735D01*
X221890Y178685D01*
X221739Y178638D01*
X221556Y178596D01*
X221357Y178564D01*
X220820Y178522D01*
X220577Y178520D01*
X220500Y178530D01*
X219586Y178410D01*
X218735Y178057D01*
X218004Y177496D01*
X217443Y176765D01*
X217090Y175914D01*
X216970Y175000D01*
X217090Y174086D01*
X217443Y173235D01*
X218004Y172504D01*
X218735Y171943D01*
X219586Y171590D01*
X220500Y171470D01*
X221414Y171590D01*
X222265Y171943D01*
X222426Y172066D01*
Y175599D01*
X220525Y177500D01*
X220864Y177503D01*
X221477Y177551D01*
X221751Y177595D01*
X222004Y177653D01*
X222234Y177724D01*
X222426Y177802D01*
Y179089D01*
D02*
G37*
G36*
X526071Y180406D02*
X525077D01*
X525077Y179464D01*
X525210Y177042D01*
X525435Y177464D01*
X525947Y179151D01*
X526071Y180406D01*
D02*
G37*
G36*
X524656D02*
X517626D01*
Y175228D01*
X519478D01*
X524656Y180406D01*
D02*
G37*
G36*
X531390Y175283D02*
X530135Y175160D01*
X528448Y174648D01*
X527883Y174346D01*
X529082Y174276D01*
X531390Y174285D01*
Y175283D01*
D02*
G37*
G36*
X520484Y172874D02*
X520111Y172457D01*
X520568Y172596D01*
X521017Y172836D01*
X520484Y172874D01*
D02*
G37*
G36*
X516626Y180406D02*
X508181D01*
X508305Y179151D01*
X508816Y177464D01*
X509648Y175909D01*
X510766Y174546D01*
X512129Y173427D01*
X513684Y172596D01*
X514172Y172448D01*
X513384Y173358D01*
X511560Y175228D01*
X516626D01*
Y180406D01*
D02*
G37*
G36*
X413091Y182431D02*
X411737Y182298D01*
X410435Y181903D01*
X409235Y181262D01*
X408184Y180399D01*
X407321Y179347D01*
X406680Y178148D01*
X406285Y176846D01*
X406152Y175492D01*
X406285Y174138D01*
X406680Y172837D01*
X407321Y171637D01*
X408184Y170586D01*
X409235Y169723D01*
X410435Y169081D01*
X411737Y168687D01*
X413091Y168553D01*
X414444Y168687D01*
X415746Y169081D01*
X416946Y169723D01*
X417997Y170586D01*
X418860Y171637D01*
X419501Y172837D01*
X419896Y174138D01*
X420029Y175492D01*
X419896Y176846D01*
X419501Y178148D01*
X418860Y179347D01*
X417997Y180399D01*
X416946Y181262D01*
X415746Y181903D01*
X414444Y182298D01*
X413091Y182431D01*
D02*
G37*
G36*
X114567Y181939D02*
X113213Y181806D01*
X111912Y181411D01*
X110712Y180770D01*
X109660Y179907D01*
X108798Y178855D01*
X108156Y177655D01*
X107761Y176354D01*
X107628Y175000D01*
X107761Y173646D01*
X108156Y172345D01*
X108798Y171145D01*
X109660Y170093D01*
X110712Y169230D01*
X111912Y168589D01*
X113213Y168194D01*
X114567Y168061D01*
X115921Y168194D01*
X117222Y168589D01*
X118422Y169230D01*
X119474Y170093D01*
X120336Y171145D01*
X120978Y172345D01*
X121373Y173646D01*
X121506Y175000D01*
X121373Y176354D01*
X120978Y177655D01*
X120336Y178855D01*
X119474Y179907D01*
X118422Y180770D01*
X117222Y181411D01*
X115921Y181806D01*
X114567Y181939D01*
D02*
G37*
G36*
X153346Y181545D02*
X151993Y181412D01*
X150691Y181017D01*
X149491Y180376D01*
X148440Y179513D01*
X147577Y178462D01*
X146936Y177262D01*
X146541Y175960D01*
X146407Y174606D01*
X146541Y173253D01*
X146936Y171951D01*
X147577Y170751D01*
X148440Y169700D01*
X149491Y168837D01*
X150691Y168196D01*
X151993Y167801D01*
X153346Y167667D01*
X154700Y167801D01*
X156002Y168196D01*
X157202Y168837D01*
X158253Y169700D01*
X159116Y170751D01*
X159757Y171951D01*
X160152Y173253D01*
X160285Y174606D01*
X160152Y175960D01*
X159757Y177262D01*
X159116Y178462D01*
X158253Y179513D01*
X157202Y180376D01*
X156002Y181017D01*
X154700Y181412D01*
X153346Y181545D01*
D02*
G37*
G36*
X531390Y173995D02*
X524480Y166839D01*
X531390D01*
Y173995D01*
D02*
G37*
G36*
X523712Y170027D02*
X523580Y169781D01*
X523069Y168093D01*
X522945Y166839D01*
X523929D01*
X523915Y167654D01*
X523712Y170027D01*
D02*
G37*
G36*
X321214Y184029D02*
X261926D01*
Y180971D01*
X320581D01*
X329304Y172247D01*
X329346Y172183D01*
X329401Y172075D01*
X329457Y171931D01*
X329510Y171751D01*
X329556Y171536D01*
X329592Y171298D01*
X329637Y170673D01*
X329640Y170393D01*
X329627Y170299D01*
X329756Y169318D01*
X330135Y168404D01*
X330737Y167620D01*
X331521Y167018D01*
X332435Y166639D01*
X333415Y166510D01*
X334396Y166639D01*
X335310Y167018D01*
X336094Y167620D01*
X336145Y167687D01*
X336603Y168119D01*
X336815Y168294D01*
X337019Y168445D01*
X337204Y168564D01*
X337369Y168654D01*
X337510Y168716D01*
X337625Y168754D01*
X337701Y168769D01*
X346305D01*
X346381Y168754D01*
X346496Y168716D01*
X346637Y168654D01*
X346802Y168564D01*
X346987Y168445D01*
X347181Y168302D01*
X347654Y167892D01*
X347854Y167695D01*
X347912Y167620D01*
X348696Y167018D01*
X349610Y166639D01*
X350591Y166510D01*
X351571Y166639D01*
X352485Y167018D01*
X353269Y167620D01*
X353871Y168404D01*
X354250Y169318D01*
X354379Y170299D01*
X354250Y171279D01*
X353871Y172193D01*
X353269Y172977D01*
X352485Y173579D01*
X351571Y173958D01*
X350591Y174087D01*
X349610Y173958D01*
X348696Y173579D01*
X347912Y172977D01*
X347861Y172910D01*
X347403Y172478D01*
X347191Y172303D01*
X346987Y172152D01*
X346802Y172033D01*
X346637Y171943D01*
X346496Y171881D01*
X346381Y171843D01*
X346305Y171828D01*
X337701D01*
X337625Y171843D01*
X337510Y171881D01*
X337369Y171943D01*
X337204Y172033D01*
X337019Y172152D01*
X336825Y172296D01*
X336352Y172706D01*
X336152Y172902D01*
X336094Y172977D01*
X335310Y173579D01*
X334396Y173958D01*
X333415Y174087D01*
X333332Y174076D01*
X332702Y174093D01*
X332429Y174120D01*
X332178Y174158D01*
X331962Y174204D01*
X331783Y174257D01*
X331639Y174313D01*
X331531Y174368D01*
X331467Y174410D01*
X322295Y183581D01*
X321799Y183913D01*
X321214Y184029D01*
D02*
G37*
G36*
X291312Y179581D02*
X261926D01*
Y176522D01*
X290679D01*
X294953Y172247D01*
X294996Y172183D01*
X295051Y172075D01*
X295107Y171931D01*
X295160Y171751D01*
X295206Y171536D01*
X295242Y171298D01*
X295287Y170673D01*
X295289Y170393D01*
X295277Y170299D01*
X295406Y169318D01*
X295784Y168404D01*
X296386Y167620D01*
X297171Y167018D01*
X298084Y166639D01*
X299065Y166510D01*
X300045Y166639D01*
X300959Y167018D01*
X301744Y167620D01*
X302346Y168404D01*
X302724Y169318D01*
X302853Y170299D01*
X302724Y171279D01*
X302346Y172193D01*
X301744Y172977D01*
X300959Y173579D01*
X300045Y173958D01*
X299065Y174087D01*
X298981Y174076D01*
X298352Y174093D01*
X298078Y174120D01*
X297828Y174158D01*
X297612Y174204D01*
X297432Y174257D01*
X297289Y174313D01*
X297181Y174368D01*
X297116Y174410D01*
X292394Y179133D01*
X291898Y179464D01*
X291312Y179581D01*
D02*
G37*
G36*
X281890Y174087D02*
X280909Y173958D01*
X279996Y173579D01*
X279211Y172977D01*
X278609Y172193D01*
X278231Y171279D01*
X278101Y170299D01*
X278231Y169318D01*
X278609Y168404D01*
X279211Y167620D01*
X279996Y167018D01*
X280909Y166639D01*
X281890Y166510D01*
X282870Y166639D01*
X283784Y167018D01*
X284569Y167620D01*
X285171Y168404D01*
X285549Y169318D01*
X285678Y170299D01*
X285549Y171279D01*
X285171Y172193D01*
X284569Y172977D01*
X283784Y173579D01*
X282870Y173958D01*
X281890Y174087D01*
D02*
G37*
G36*
X316240D02*
X315260Y173958D01*
X314346Y173579D01*
X313562Y172977D01*
X312959Y172193D01*
X312581Y171279D01*
X312452Y170299D01*
X312463Y170215D01*
X312445Y169586D01*
X312419Y169312D01*
X312381Y169062D01*
X312335Y168846D01*
X312282Y168666D01*
X312226Y168522D01*
X312171Y168414D01*
X312129Y168350D01*
X307066Y163288D01*
X249052D01*
X244789Y167551D01*
X240463D01*
X247337Y160677D01*
X247833Y160345D01*
X248419Y160229D01*
X307700D01*
X308285Y160345D01*
X308781Y160677D01*
X314292Y166187D01*
X314356Y166229D01*
X314464Y166285D01*
X314607Y166340D01*
X314787Y166393D01*
X315003Y166440D01*
X315241Y166476D01*
X315866Y166520D01*
X316146Y166523D01*
X316240Y166510D01*
X317221Y166639D01*
X318134Y167018D01*
X318919Y167620D01*
X319521Y168404D01*
X319899Y169318D01*
X320028Y170299D01*
X319899Y171279D01*
X319521Y172193D01*
X318919Y172977D01*
X318134Y173579D01*
X317221Y173958D01*
X316240Y174087D01*
D02*
G37*
G36*
X540835Y165839D02*
X532390D01*
Y157394D01*
X533644Y157517D01*
X535332Y158029D01*
X536887Y158860D01*
X538250Y159979D01*
X539368Y161342D01*
X540199Y162897D01*
X540711Y164584D01*
X540835Y165839D01*
D02*
G37*
G36*
X531390D02*
X522945D01*
X523069Y164584D01*
X523580Y162897D01*
X524411Y161342D01*
X525530Y159979D01*
X526893Y158860D01*
X528448Y158029D01*
X530135Y157517D01*
X531390Y157394D01*
Y165839D01*
D02*
G37*
G36*
X465354Y182431D02*
X464001Y182298D01*
X462699Y181903D01*
X461499Y181262D01*
X460448Y180399D01*
X459585Y179347D01*
X458944Y178148D01*
X458549Y176846D01*
X458416Y175492D01*
X458549Y174138D01*
X458944Y172837D01*
X459585Y171637D01*
X460448Y170586D01*
X461499Y169723D01*
X462699Y169081D01*
X464001Y168687D01*
X465354Y168553D01*
X465486Y168566D01*
X467243Y168540D01*
X468740Y168420D01*
X469340Y168330D01*
X469859Y168220D01*
X470282Y168097D01*
X470603Y167968D01*
X470820Y167847D01*
X470910Y167773D01*
X473427Y165257D01*
X473923Y164926D01*
X474508Y164809D01*
X489684D01*
X489890Y164786D01*
X490237Y164680D01*
X490689Y164475D01*
X491230Y164163D01*
X491850Y163744D01*
X492526Y163228D01*
X495019Y160995D01*
X495847Y160168D01*
X496002Y159979D01*
X497365Y158860D01*
X498920Y158029D01*
X500607Y157517D01*
X502362Y157344D01*
X504117Y157517D01*
X505804Y158029D01*
X507359Y158860D01*
X508722Y159979D01*
X509840Y161342D01*
X510672Y162897D01*
X511184Y164584D01*
X511356Y166339D01*
X511184Y168093D01*
X510672Y169781D01*
X509840Y171335D01*
X508722Y172698D01*
X507359Y173817D01*
X505804Y174648D01*
X504117Y175160D01*
X502362Y175333D01*
X500607Y175160D01*
X498920Y174648D01*
X497365Y173817D01*
X496002Y172698D01*
X495859Y172523D01*
X494124Y170832D01*
X492533Y169454D01*
X491850Y168933D01*
X491230Y168514D01*
X490689Y168202D01*
X490237Y167997D01*
X489890Y167892D01*
X489684Y167868D01*
X475141D01*
X473073Y169936D01*
X473000Y170026D01*
X472878Y170244D01*
X472749Y170565D01*
X472626Y170988D01*
X472517Y171506D01*
X472429Y172097D01*
X472281Y174487D01*
X472279Y175351D01*
X472293Y175492D01*
X472160Y176846D01*
X471765Y178148D01*
X471124Y179347D01*
X470261Y180399D01*
X469209Y181262D01*
X468010Y181903D01*
X466708Y182298D01*
X465354Y182431D01*
D02*
G37*
G36*
X208100Y167829D02*
X208028D01*
Y167551D01*
X186565D01*
X188898Y165219D01*
X189394Y164887D01*
X189980Y164771D01*
X207467D01*
X212871Y159367D01*
Y154713D01*
X212371Y154515D01*
X211525Y155164D01*
X210369Y155642D01*
X209129Y155806D01*
X208970Y155785D01*
X208549Y155787D01*
X207590Y155842D01*
X207205Y155890D01*
X206863Y155952D01*
X206575Y156025D01*
X206343Y156104D01*
X206170Y156183D01*
X206054Y156254D01*
X206042Y156264D01*
X204525Y157781D01*
X204029Y158113D01*
X203444Y158229D01*
X178176D01*
X177591Y158113D01*
X177095Y157781D01*
X167979Y148666D01*
X167820Y148518D01*
X167700Y148421D01*
X161992D01*
Y145998D01*
X146669D01*
Y147437D01*
X136795D01*
Y141500D01*
X137016D01*
X137237Y141052D01*
X137171Y140966D01*
X136872Y140243D01*
X136835Y139969D01*
X136856D01*
X137088Y139973D01*
X137478Y140013D01*
X137636Y140047D01*
X137770Y140092D01*
X137880Y140146D01*
X137965Y140210D01*
X138026Y140284D01*
X138062Y140368D01*
X138074Y140461D01*
Y139969D01*
X145390D01*
Y140461D01*
X145402Y140368D01*
X145439Y140284D01*
X145500Y140210D01*
X145585Y140146D01*
X145694Y140092D01*
X145828Y140047D01*
X145987Y140013D01*
X146170Y139988D01*
X146377Y139973D01*
X146608Y139969D01*
X146629D01*
X146593Y140243D01*
X146294Y140966D01*
X146228Y141052D01*
X146449Y141500D01*
X146669D01*
Y142939D01*
X161992D01*
Y140516D01*
X169898D01*
Y146222D01*
X170105Y146466D01*
X178810Y155171D01*
X187540D01*
X187710Y154671D01*
X187360Y154402D01*
X186599Y153410D01*
X186120Y152255D01*
X186083Y151972D01*
X186206Y152046D01*
X186544Y152280D01*
X186899Y152556D01*
X187662Y153236D01*
X188070Y153640D01*
Y151515D01*
X190748D01*
X195473D01*
X195376Y152255D01*
X194897Y153410D01*
X194136Y154402D01*
X193786Y154671D01*
X193956Y155171D01*
X202810D01*
X203879Y154101D01*
X203890Y154089D01*
X203961Y153974D01*
X204040Y153800D01*
X204119Y153569D01*
X204191Y153281D01*
X204254Y152938D01*
X204302Y152554D01*
X204357Y151594D01*
X204359Y151174D01*
X204338Y151015D01*
X204501Y149775D01*
X204980Y148619D01*
X205741Y147627D01*
X206733Y146866D01*
X207889Y146387D01*
X209129Y146224D01*
X210369Y146387D01*
X211525Y146866D01*
X212371Y147515D01*
X212871Y147316D01*
Y144440D01*
X212987Y143854D01*
X213319Y143358D01*
X222260Y134416D01*
X222270Y134405D01*
X222342Y134289D01*
X222421Y134116D01*
X222500Y133884D01*
X222572Y133596D01*
X222634Y133253D01*
X222682Y132869D01*
X222738Y131909D01*
X222740Y131489D01*
X222719Y131330D01*
X222882Y130090D01*
X223361Y128934D01*
X224122Y127942D01*
X225114Y127181D01*
X226270Y126702D01*
X227510Y126539D01*
X228614Y126684D01*
X228882Y126245D01*
X228167Y125529D01*
X186106D01*
X185521Y125413D01*
X185025Y125082D01*
X178840Y118896D01*
X178508Y118400D01*
X178392Y117815D01*
Y107956D01*
X177930Y107765D01*
X173786Y111908D01*
X173290Y112240D01*
X172705Y112356D01*
X165292D01*
X165177Y112368D01*
X164937Y112436D01*
X164619Y112572D01*
X164233Y112784D01*
X163788Y113073D01*
X163308Y113428D01*
X161514Y115014D01*
X160902Y115623D01*
X160812Y115733D01*
X159761Y116596D01*
X158561Y117237D01*
X157259Y117632D01*
X155906Y117766D01*
X154552Y117632D01*
X153250Y117237D01*
X152050Y116596D01*
X150999Y115733D01*
X150136Y114682D01*
X149495Y113482D01*
X149100Y112180D01*
X148967Y110827D01*
X149100Y109473D01*
X149495Y108171D01*
X150136Y106972D01*
X150999Y105920D01*
X152050Y105057D01*
X153250Y104416D01*
X154552Y104021D01*
X155906Y103888D01*
X157259Y104021D01*
X158561Y104416D01*
X159761Y105057D01*
X160812Y105920D01*
X160896Y106022D01*
X162157Y107246D01*
X163301Y108220D01*
X163788Y108581D01*
X164233Y108870D01*
X164619Y109082D01*
X164937Y109218D01*
X165177Y109285D01*
X165292Y109297D01*
X172071D01*
X179917Y101452D01*
X180065Y101293D01*
X180161Y101173D01*
Y95465D01*
X187345D01*
X187537Y95003D01*
X186288Y93754D01*
X186213Y93705D01*
X186092Y93646D01*
X185932Y93585D01*
X185730Y93528D01*
X185489Y93478D01*
X185221Y93440D01*
X184529Y93392D01*
X184221Y93390D01*
X184114Y93404D01*
X183082Y93268D01*
X182121Y92870D01*
X181295Y92237D01*
X180661Y91411D01*
X180263Y90449D01*
X180127Y89417D01*
X180263Y88385D01*
X180661Y87424D01*
X181295Y86598D01*
X182121Y85965D01*
X183082Y85566D01*
X184114Y85431D01*
X185146Y85566D01*
X186108Y85965D01*
X186933Y86598D01*
X187567Y87424D01*
X187965Y88385D01*
X188101Y89417D01*
X188087Y89524D01*
X188089Y89833D01*
X188136Y90525D01*
X188175Y90792D01*
X188225Y91033D01*
X188282Y91235D01*
X188342Y91396D01*
X188402Y91516D01*
X188451Y91591D01*
X202027Y105167D01*
X210397D01*
X210604Y104667D01*
X208519Y102581D01*
X208187Y102085D01*
X208071Y101500D01*
Y93932D01*
X208187Y93346D01*
X208519Y92850D01*
X209777Y91591D01*
X209826Y91516D01*
X209886Y91396D01*
X209947Y91235D01*
X210004Y91033D01*
X210053Y90792D01*
X210092Y90525D01*
X210139Y89833D01*
X210141Y89524D01*
X210127Y89417D01*
X210263Y88385D01*
X210662Y87424D01*
X211295Y86598D01*
X212121Y85965D01*
X212278Y85900D01*
X212178Y85400D01*
X198567D01*
X197982Y85283D01*
X197486Y84952D01*
X186288Y73754D01*
X186213Y73705D01*
X186092Y73646D01*
X185932Y73585D01*
X185730Y73528D01*
X185489Y73478D01*
X185221Y73440D01*
X184529Y73392D01*
X184221Y73390D01*
X184114Y73404D01*
X183082Y73268D01*
X182121Y72870D01*
X181295Y72237D01*
X181229Y72151D01*
X181010Y71934D01*
X180487Y71479D01*
X180271Y71316D01*
X180065Y71181D01*
X179882Y71079D01*
X179726Y71008D01*
X179598Y70965D01*
X179510Y70947D01*
X176382D01*
X175381Y71948D01*
X174885Y72279D01*
X174300Y72396D01*
X170549D01*
X170461Y72414D01*
X170334Y72457D01*
X170177Y72528D01*
X169994Y72630D01*
X169788Y72765D01*
X169572Y72927D01*
X169050Y73383D01*
X168830Y73600D01*
X168764Y73685D01*
X167938Y74319D01*
X166977Y74717D01*
X165945Y74853D01*
X164913Y74717D01*
X163952Y74319D01*
X163126Y73685D01*
X163060Y73600D01*
X162840Y73383D01*
X162318Y72927D01*
X162101Y72765D01*
X161896Y72630D01*
X161713Y72528D01*
X161556Y72457D01*
X161429Y72414D01*
X161341Y72396D01*
X153276D01*
X152690Y72279D01*
X152452Y72120D01*
X144967D01*
X144896Y72125D01*
X144886Y72126D01*
X144440Y72708D01*
X144267Y72841D01*
Y73341D01*
X144440Y73473D01*
X144916Y74094D01*
X145215Y74816D01*
X145317Y75591D01*
X145215Y76366D01*
X144916Y77088D01*
X144850Y77174D01*
X145071Y77622D01*
X145291D01*
Y80091D01*
X145279D01*
X145087Y80086D01*
X144915Y80071D01*
X144763Y80046D01*
X144632Y80011D01*
X144520Y79966D01*
X144429Y79911D01*
X144359Y79846D01*
X144308Y79771D01*
X144278Y79686D01*
X144267Y79591D01*
Y80091D01*
X136441D01*
Y79591D01*
X136431Y79686D01*
X136401Y79771D01*
X136350Y79846D01*
X136279Y79911D01*
X136188Y79966D01*
X136077Y80011D01*
X135945Y80046D01*
X135794Y80071D01*
X135622Y80086D01*
X135429Y80091D01*
X135417D01*
Y77622D01*
X135417Y77622D01*
X135297Y77172D01*
X135227Y77120D01*
X121358D01*
X120773Y77004D01*
X120277Y76672D01*
X119395Y75791D01*
X119314Y75718D01*
X119233Y75654D01*
X113821D01*
X113065Y75504D01*
X112424Y75076D01*
X111996Y74435D01*
X111846Y73679D01*
Y72396D01*
X103426D01*
X103381Y72440D01*
X102885Y72771D01*
X102300Y72888D01*
X93186D01*
X93099Y72906D01*
X92971Y72949D01*
X92815Y73020D01*
X92632Y73122D01*
X92426Y73257D01*
X92210Y73419D01*
X91687Y73875D01*
X91467Y74092D01*
X91402Y74177D01*
X90576Y74811D01*
X89614Y75209D01*
X88583Y75345D01*
X88476Y75331D01*
X88167Y75333D01*
X87476Y75380D01*
X87208Y75419D01*
X86967Y75469D01*
X86765Y75526D01*
X86604Y75586D01*
X86484Y75646D01*
X86409Y75695D01*
X75117Y86987D01*
X74620Y87319D01*
X74035Y87435D01*
X64406D01*
X64291Y87447D01*
X64051Y87515D01*
X63732Y87651D01*
X63347Y87862D01*
X62902Y88152D01*
X62422Y88507D01*
X60628Y90093D01*
X60016Y90702D01*
X59926Y90812D01*
X58875Y91675D01*
X57675Y92316D01*
X56373Y92711D01*
X55020Y92844D01*
X53666Y92711D01*
X52364Y92316D01*
X51165Y91675D01*
X50113Y90812D01*
X50029Y90710D01*
X48768Y89486D01*
X47624Y88513D01*
X47137Y88152D01*
X46692Y87862D01*
X46307Y87651D01*
X45988Y87515D01*
X45748Y87447D01*
X45633Y87435D01*
X23047D01*
Y91040D01*
X12779D01*
Y80772D01*
X23047D01*
Y84376D01*
X45633D01*
X45748Y84364D01*
X45988Y84297D01*
X46307Y84161D01*
X46692Y83949D01*
X47137Y83659D01*
X47617Y83304D01*
X49411Y81718D01*
X50023Y81109D01*
X50113Y80999D01*
X51165Y80136D01*
X52364Y79495D01*
X53666Y79100D01*
X55020Y78967D01*
X56373Y79100D01*
X57675Y79495D01*
X58875Y80136D01*
X59926Y80999D01*
X60010Y81101D01*
X61272Y82325D01*
X62415Y83299D01*
X62902Y83659D01*
X63347Y83949D01*
X63733Y84161D01*
X64051Y84297D01*
X64291Y84364D01*
X64406Y84376D01*
X73402D01*
X84246Y73532D01*
X84295Y73457D01*
X84355Y73336D01*
X84415Y73176D01*
X84472Y72974D01*
X84522Y72733D01*
X84561Y72465D01*
X84607Y71773D01*
X84610Y71465D01*
X84596Y71358D01*
X84732Y70326D01*
X85130Y69365D01*
X85764Y68539D01*
X86589Y67905D01*
X87551Y67507D01*
X88583Y67371D01*
X89614Y67507D01*
X90576Y67905D01*
X91402Y68539D01*
X91467Y68625D01*
X91687Y68841D01*
X92210Y69297D01*
X92426Y69459D01*
X92632Y69594D01*
X92815Y69696D01*
X92971Y69767D01*
X93099Y69810D01*
X93186Y69829D01*
X101666D01*
X101711Y69785D01*
X102207Y69453D01*
X102792Y69337D01*
X111846D01*
Y68054D01*
X111996Y67298D01*
X112424Y66657D01*
X113065Y66229D01*
X113821Y66078D01*
X119446D01*
X120202Y66229D01*
X120843Y66657D01*
X121271Y67298D01*
X121422Y68054D01*
Y73461D01*
X121584Y73653D01*
X121992Y74061D01*
X135742D01*
X135812Y74056D01*
X135823Y74055D01*
X136269Y73473D01*
X136442Y73341D01*
Y72841D01*
X136269Y72708D01*
X135793Y72088D01*
X135494Y71365D01*
X135392Y70591D01*
X135494Y69816D01*
X135793Y69094D01*
X136269Y68473D01*
X136889Y67998D01*
X137611Y67699D01*
X138386Y67597D01*
X142323D01*
X143098Y67699D01*
X143820Y67998D01*
X144440Y68473D01*
X144882Y69049D01*
X145002Y69061D01*
X153000D01*
X153585Y69178D01*
X153823Y69337D01*
X161341D01*
X161429Y69318D01*
X161556Y69275D01*
X161713Y69204D01*
X161896Y69102D01*
X162102Y68967D01*
X162318Y68805D01*
X162840Y68349D01*
X163060Y68133D01*
X163126Y68047D01*
X163952Y67414D01*
X164913Y67015D01*
X165945Y66879D01*
X166977Y67015D01*
X167938Y67414D01*
X168764Y68047D01*
X168830Y68133D01*
X169050Y68349D01*
X169572Y68805D01*
X169788Y68967D01*
X169994Y69102D01*
X170177Y69204D01*
X170334Y69275D01*
X170461Y69318D01*
X170549Y69337D01*
X173667D01*
X174667Y68336D01*
X175163Y68004D01*
X175749Y67888D01*
X179510D01*
X179598Y67870D01*
X179726Y67826D01*
X179882Y67756D01*
X180065Y67654D01*
X180271Y67518D01*
X180487Y67356D01*
X181010Y66900D01*
X181229Y66684D01*
X181295Y66598D01*
X182121Y65965D01*
X183082Y65566D01*
X184114Y65430D01*
X185146Y65566D01*
X186108Y65965D01*
X186933Y66598D01*
X187567Y67424D01*
X187965Y68385D01*
X188101Y69417D01*
X188087Y69524D01*
X188089Y69833D01*
X188136Y70525D01*
X188175Y70792D01*
X188225Y71033D01*
X188282Y71235D01*
X188342Y71396D01*
X188402Y71516D01*
X188451Y71591D01*
X199200Y82341D01*
X210745D01*
X210991Y81841D01*
X210662Y81411D01*
X210263Y80449D01*
X210127Y79417D01*
X210263Y78386D01*
X210662Y77424D01*
X211295Y76598D01*
X212004Y76054D01*
X211869Y75554D01*
X211686D01*
X211101Y75438D01*
X210605Y75106D01*
X166028Y30529D01*
X138055D01*
X137470Y30413D01*
X136974Y30081D01*
X135866Y28974D01*
X135851Y28961D01*
X135731Y28888D01*
X135552Y28806D01*
X135312Y28725D01*
X135015Y28651D01*
X134684Y28592D01*
X133265Y28483D01*
X132842Y28481D01*
X132677Y28502D01*
X131414Y28336D01*
X130237Y27849D01*
X129226Y27073D01*
X128451Y26062D01*
X127963Y24885D01*
X127797Y23622D01*
X127963Y22359D01*
X128451Y21182D01*
X129226Y20171D01*
X130237Y19396D01*
X131414Y18908D01*
X132677Y18742D01*
X133940Y18908D01*
X135117Y19396D01*
X136128Y20171D01*
X136904Y21182D01*
X137391Y22359D01*
X137557Y23622D01*
X137536Y23787D01*
X137538Y24220D01*
X137594Y25209D01*
X137643Y25606D01*
X137706Y25960D01*
X137781Y26257D01*
X137862Y26497D01*
X137943Y26676D01*
X138016Y26796D01*
X138029Y26811D01*
X138689Y27471D01*
X148676D01*
X148833Y26971D01*
X148136Y26062D01*
X147648Y24885D01*
X147482Y23622D01*
X147648Y22359D01*
X148136Y21182D01*
X148911Y20171D01*
X149922Y19396D01*
X151099Y18908D01*
X152362Y18742D01*
X153625Y18908D01*
X154802Y19396D01*
X155813Y20171D01*
X156589Y21182D01*
X157076Y22359D01*
X157243Y23622D01*
X157076Y24885D01*
X156589Y26062D01*
X155892Y26971D01*
X156048Y27471D01*
X166661D01*
X167247Y27587D01*
X167743Y27919D01*
X209712Y69887D01*
X210160Y69666D01*
X210127Y69417D01*
X210263Y68385D01*
X210662Y67424D01*
X211295Y66598D01*
X212121Y65965D01*
X213082Y65566D01*
X214114Y65430D01*
X214221Y65445D01*
X214529Y65442D01*
X215221Y65395D01*
X215489Y65357D01*
X215730Y65307D01*
X215932Y65250D01*
X216092Y65189D01*
X216213Y65130D01*
X216288Y65081D01*
X250250Y31119D01*
X250746Y30787D01*
X251332Y30671D01*
X360473D01*
X364333Y26811D01*
X364346Y26796D01*
X364420Y26676D01*
X364501Y26497D01*
X364581Y26257D01*
X364656Y25960D01*
X364715Y25629D01*
X364824Y24209D01*
X364826Y23787D01*
X364805Y23622D01*
X364971Y22359D01*
X365458Y21182D01*
X366234Y20171D01*
X367245Y19396D01*
X368422Y18908D01*
X369685Y18742D01*
X370948Y18908D01*
X372125Y19396D01*
X373136Y20171D01*
X373911Y21182D01*
X374399Y22359D01*
X374565Y23622D01*
X374399Y24885D01*
X373911Y26062D01*
X373136Y27073D01*
X372125Y27849D01*
X370948Y28336D01*
X369685Y28502D01*
X369520Y28481D01*
X369087Y28483D01*
X368098Y28539D01*
X367701Y28588D01*
X367347Y28651D01*
X367050Y28725D01*
X366810Y28806D01*
X366631Y28888D01*
X366512Y28961D01*
X366496Y28974D01*
X362188Y33281D01*
X361692Y33613D01*
X361107Y33729D01*
X317407D01*
X317238Y34229D01*
X317791Y34654D01*
X318427Y35483D01*
X318827Y36448D01*
X318963Y37484D01*
Y43421D01*
X318827Y44457D01*
X318427Y45423D01*
X317791Y46252D01*
X316962Y46888D01*
X315997Y47288D01*
X314961Y47424D01*
X313925Y47288D01*
X312959Y46888D01*
X312130Y46252D01*
X311494Y45423D01*
X311094Y44457D01*
X310958Y43421D01*
Y37484D01*
X311094Y36448D01*
X311494Y35483D01*
X312130Y34654D01*
X312684Y34229D01*
X312514Y33729D01*
X307565D01*
X307395Y34229D01*
X307949Y34654D01*
X308585Y35483D01*
X308984Y36448D01*
X309121Y37484D01*
Y39953D01*
X305118D01*
X301115D01*
Y37484D01*
X301252Y36448D01*
X301652Y35483D01*
X302288Y34654D01*
X302841Y34229D01*
X302671Y33729D01*
X287880D01*
X287710Y34229D01*
X288263Y34654D01*
X288899Y35483D01*
X289299Y36448D01*
X289436Y37484D01*
Y39953D01*
X285433D01*
X281430D01*
Y37484D01*
X281567Y36448D01*
X281966Y35483D01*
X282603Y34654D01*
X283156Y34229D01*
X282986Y33729D01*
X277904D01*
X277734Y34229D01*
X278140Y34541D01*
X278713Y35288D01*
X279073Y36157D01*
X279196Y37091D01*
Y43815D01*
X279073Y44748D01*
X278713Y45618D01*
X278140Y46365D01*
X277760Y46656D01*
X277727Y47155D01*
X278633Y48061D01*
X316310D01*
X316895Y48178D01*
X317391Y48509D01*
X331467Y62585D01*
X331531Y62627D01*
X331639Y62682D01*
X331783Y62738D01*
X331962Y62791D01*
X332178Y62837D01*
X332417Y62873D01*
X333041Y62918D01*
X333321Y62920D01*
X333415Y62908D01*
X333499Y62919D01*
X334128Y62901D01*
X334402Y62875D01*
X334652Y62837D01*
X334868Y62791D01*
X335048Y62738D01*
X335192Y62682D01*
X335300Y62627D01*
X335364Y62585D01*
X336630Y61319D01*
X337126Y60987D01*
X337712Y60871D01*
X406073D01*
X406659Y60987D01*
X407155Y61319D01*
X407535Y61699D01*
X407625Y61772D01*
X407842Y61893D01*
X408163Y62023D01*
X408586Y62146D01*
X409105Y62255D01*
X409696Y62343D01*
X412086Y62491D01*
X412949Y62492D01*
X413091Y62479D01*
X414444Y62612D01*
X415746Y63007D01*
X416946Y63648D01*
X417997Y64511D01*
X418860Y65562D01*
X419501Y66762D01*
X419896Y68064D01*
X420029Y69417D01*
X419896Y70771D01*
X419501Y72073D01*
X418860Y73273D01*
X417997Y74324D01*
X416946Y75187D01*
X415746Y75828D01*
X414444Y76223D01*
X413091Y76356D01*
X411737Y76223D01*
X410435Y75828D01*
X409235Y75187D01*
X408184Y74324D01*
X407321Y73273D01*
X406680Y72073D01*
X406285Y70771D01*
X406152Y69417D01*
X406165Y69286D01*
X406138Y67529D01*
X406018Y66032D01*
X405928Y65431D01*
X405819Y64913D01*
X405696Y64490D01*
X405567Y64169D01*
X405445Y63952D01*
X405427Y63929D01*
X353832D01*
X353585Y64429D01*
X353871Y64802D01*
X354250Y65716D01*
X354313Y66196D01*
X350591D01*
X346868D01*
X346931Y65716D01*
X347310Y64802D01*
X347596Y64429D01*
X347349Y63929D01*
X338345D01*
X337527Y64748D01*
X337485Y64812D01*
X337429Y64920D01*
X337374Y65063D01*
X337321Y65243D01*
X337274Y65459D01*
X337238Y65697D01*
X337194Y66322D01*
X337191Y66602D01*
X337204Y66696D01*
X337075Y67677D01*
X336696Y68590D01*
X336094Y69375D01*
X335310Y69977D01*
X334396Y70355D01*
X333415Y70485D01*
X332435Y70355D01*
X331521Y69977D01*
X330737Y69375D01*
X330135Y68590D01*
X329756Y67677D01*
X329627Y66696D01*
X329638Y66613D01*
X329621Y65983D01*
X329594Y65710D01*
X329556Y65459D01*
X329510Y65243D01*
X329457Y65064D01*
X329401Y64920D01*
X329346Y64812D01*
X329304Y64748D01*
X315676Y51120D01*
X278000D01*
X277415Y51004D01*
X276919Y50672D01*
X274509Y48263D01*
X274178Y47767D01*
X274061Y47181D01*
Y47051D01*
X273788Y46938D01*
X273041Y46365D01*
X272468Y45618D01*
X272108Y44748D01*
X271985Y43815D01*
Y37091D01*
X272108Y36157D01*
X272468Y35288D01*
X273041Y34541D01*
X273447Y34229D01*
X273277Y33729D01*
X251965D01*
X218451Y67243D01*
X218402Y67318D01*
X218342Y67439D01*
X218282Y67600D01*
X218225Y67801D01*
X218175Y68042D01*
X218136Y68310D01*
X218089Y69002D01*
X218087Y69311D01*
X218101Y69417D01*
X217965Y70449D01*
X217567Y71411D01*
X217119Y71995D01*
X217365Y72495D01*
X224860D01*
X224997Y71995D01*
X224122Y71324D01*
X223361Y70332D01*
X222882Y69176D01*
X222719Y67936D01*
X222882Y66696D01*
X223361Y65540D01*
X224122Y64548D01*
X225114Y63787D01*
X226270Y63308D01*
X227510Y63145D01*
X227669Y63166D01*
X228089Y63164D01*
X229049Y63109D01*
X229433Y63061D01*
X229776Y62998D01*
X230064Y62926D01*
X230295Y62847D01*
X230469Y62768D01*
X230585Y62697D01*
X230596Y62687D01*
X231964Y61319D01*
X232460Y60987D01*
X233046Y60871D01*
X311944D01*
X312529Y60987D01*
X313025Y61319D01*
X314292Y62585D01*
X314356Y62627D01*
X314464Y62682D01*
X314607Y62738D01*
X314787Y62791D01*
X315003Y62837D01*
X315241Y62873D01*
X315866Y62918D01*
X316146Y62920D01*
X316240Y62908D01*
X317221Y63037D01*
X318134Y63415D01*
X318919Y64017D01*
X319521Y64802D01*
X319899Y65716D01*
X320028Y66696D01*
X319899Y67677D01*
X319521Y68590D01*
X318919Y69375D01*
X318134Y69977D01*
X317221Y70355D01*
X316240Y70485D01*
X315260Y70355D01*
X314346Y69977D01*
X313562Y69375D01*
X312959Y68590D01*
X312581Y67677D01*
X312452Y66696D01*
X312463Y66613D01*
X312445Y65983D01*
X312419Y65710D01*
X312381Y65459D01*
X312335Y65243D01*
X312282Y65064D01*
X312226Y64920D01*
X312171Y64812D01*
X312129Y64748D01*
X311311Y63929D01*
X302306D01*
X302060Y64429D01*
X302346Y64802D01*
X302724Y65716D01*
X302853Y66696D01*
X302724Y67677D01*
X302346Y68590D01*
X301744Y69375D01*
X300959Y69977D01*
X300045Y70355D01*
X299065Y70485D01*
X298981Y70473D01*
X298352Y70491D01*
X298078Y70517D01*
X297828Y70555D01*
X297612Y70602D01*
X297432Y70654D01*
X297289Y70710D01*
X297181Y70765D01*
X297116Y70808D01*
X293891Y74033D01*
X294082Y74495D01*
X381053D01*
X381299Y73995D01*
X380898Y73472D01*
X380499Y72510D01*
X380363Y71478D01*
X380499Y70446D01*
X380898Y69485D01*
X381531Y68659D01*
X382357Y68026D01*
X383318Y67627D01*
X384350Y67492D01*
X385382Y67627D01*
X386344Y68026D01*
X387170Y68659D01*
X387803Y69485D01*
X388201Y70446D01*
X388337Y71478D01*
X388201Y72510D01*
X387803Y73472D01*
X387402Y73995D01*
X387648Y74495D01*
X405825D01*
X406410Y74612D01*
X406906Y74943D01*
X410433Y78471D01*
X427457D01*
X434305Y71623D01*
X434354Y71548D01*
X434414Y71427D01*
X434474Y71266D01*
X434531Y71065D01*
X434581Y70824D01*
X434620Y70556D01*
X434667Y69864D01*
X434669Y69556D01*
X434655Y69449D01*
X434791Y68417D01*
X435189Y67455D01*
X435823Y66630D01*
X436648Y65996D01*
X437610Y65598D01*
X438642Y65462D01*
X439674Y65598D01*
X440635Y65996D01*
X441461Y66630D01*
X442095Y67455D01*
X442493Y68417D01*
X442629Y69449D01*
X442493Y70481D01*
X442095Y71442D01*
X441461Y72268D01*
X440635Y72901D01*
X439674Y73300D01*
X438642Y73436D01*
X438535Y73422D01*
X438227Y73424D01*
X437535Y73471D01*
X437267Y73510D01*
X437026Y73559D01*
X436824Y73616D01*
X436663Y73677D01*
X436543Y73737D01*
X436468Y73786D01*
X429172Y81081D01*
X428676Y81413D01*
X428091Y81529D01*
X409800D01*
X409215Y81413D01*
X408719Y81081D01*
X405191Y77554D01*
X388303D01*
Y85274D01*
X382597D01*
X382353Y85481D01*
X377978Y89856D01*
X377482Y90188D01*
X376897Y90304D01*
X269060D01*
Y91587D01*
X268909Y92343D01*
X268481Y92984D01*
X267840Y93412D01*
X267084Y93563D01*
X261459D01*
X260703Y93412D01*
X260062Y92984D01*
X259634Y92343D01*
X259484Y91587D01*
Y85962D01*
X259634Y85206D01*
X260062Y84565D01*
X260703Y84137D01*
X261459Y83987D01*
X267084D01*
X267840Y84137D01*
X268481Y84565D01*
X268909Y85206D01*
X269060Y85962D01*
Y87245D01*
X376263D01*
X380153Y83355D01*
X380301Y83196D01*
X380398Y83076D01*
Y77554D01*
X227046D01*
X219648Y84952D01*
X219152Y85283D01*
X218567Y85400D01*
X216050D01*
X215950Y85900D01*
X216108Y85965D01*
X216933Y86598D01*
X217567Y87424D01*
X217965Y88385D01*
X218101Y89417D01*
X217965Y90449D01*
X217567Y91411D01*
X216933Y92237D01*
X216108Y92870D01*
X215146Y93268D01*
X214114Y93404D01*
X214007Y93390D01*
X213699Y93392D01*
X213007Y93440D01*
X212739Y93478D01*
X212498Y93528D01*
X212297Y93585D01*
X212136Y93646D01*
X212015Y93705D01*
X211940Y93754D01*
X211129Y94565D01*
Y96095D01*
X211629Y96342D01*
X212121Y95965D01*
X213082Y95566D01*
X214114Y95430D01*
X215146Y95566D01*
X216108Y95965D01*
X216933Y96598D01*
X216999Y96684D01*
X217219Y96900D01*
X217741Y97356D01*
X217958Y97518D01*
X218163Y97654D01*
X218346Y97756D01*
X218503Y97826D01*
X218630Y97869D01*
X218718Y97888D01*
X323267D01*
X327736Y93419D01*
X328232Y93087D01*
X328817Y92971D01*
X435917D01*
X436087Y92471D01*
X435823Y92268D01*
X435189Y91442D01*
X434791Y90481D01*
X434655Y89449D01*
X434791Y88417D01*
X435189Y87455D01*
X435823Y86630D01*
X436648Y85996D01*
X437610Y85598D01*
X438642Y85462D01*
X439674Y85598D01*
X440635Y85996D01*
X441461Y86630D01*
X442095Y87455D01*
X442493Y88417D01*
X442629Y89449D01*
X442493Y90481D01*
X442095Y91442D01*
X441461Y92268D01*
X441197Y92471D01*
X441366Y92971D01*
X463693D01*
X464278Y93087D01*
X464774Y93419D01*
X466468Y95112D01*
X466543Y95161D01*
X466664Y95221D01*
X466824Y95281D01*
X467026Y95338D01*
X467267Y95388D01*
X467535Y95427D01*
X468226Y95474D01*
X468535Y95476D01*
X468642Y95462D01*
X469674Y95598D01*
X470635Y95996D01*
X471461Y96630D01*
X472094Y97455D01*
X472493Y98417D01*
X472629Y99449D01*
X472493Y100481D01*
X472094Y101442D01*
X471461Y102268D01*
X471293Y102397D01*
X471453Y102871D01*
X499376D01*
X507503Y94744D01*
X507545Y94680D01*
X507600Y94572D01*
X507656Y94428D01*
X507709Y94248D01*
X507755Y94032D01*
X507791Y93794D01*
X507836Y93169D01*
X507838Y92889D01*
X507826Y92795D01*
X507955Y91815D01*
X508333Y90901D01*
X508935Y90117D01*
X509720Y89514D01*
X510634Y89136D01*
X511614Y89007D01*
X512595Y89136D01*
X513508Y89514D01*
X514293Y90117D01*
X514344Y90183D01*
X514802Y90616D01*
X515014Y90791D01*
X515218Y90941D01*
X515403Y91061D01*
X515568Y91151D01*
X515709Y91213D01*
X515824Y91250D01*
X515900Y91266D01*
X556831D01*
X557416Y91382D01*
X557912Y91714D01*
X560276Y94078D01*
X557413D01*
Y95541D01*
X556197Y94325D01*
X550567D01*
Y94078D01*
X529067D01*
Y94325D01*
X515900D01*
X515824Y94340D01*
X515709Y94377D01*
X515568Y94440D01*
X515403Y94529D01*
X515218Y94649D01*
X515024Y94792D01*
X514550Y95202D01*
X514351Y95399D01*
X514293Y95474D01*
X513508Y96076D01*
X512595Y96454D01*
X511614Y96583D01*
X511531Y96573D01*
X510901Y96590D01*
X510628Y96616D01*
X510377Y96654D01*
X510161Y96701D01*
X509981Y96753D01*
X509838Y96809D01*
X509730Y96864D01*
X509665Y96907D01*
X501091Y105481D01*
X500595Y105813D01*
X500009Y105929D01*
X443593D01*
X443008Y105813D01*
X442512Y105481D01*
X440676Y103646D01*
X440517Y103498D01*
X440397Y103402D01*
X434689D01*
Y96029D01*
X329451D01*
X325110Y100371D01*
X325291Y100871D01*
X374879D01*
X375465Y100987D01*
X375961Y101319D01*
X381783Y107141D01*
X381858Y107190D01*
X381978Y107249D01*
X382139Y107310D01*
X382341Y107367D01*
X382582Y107417D01*
X382850Y107455D01*
X383541Y107502D01*
X383850Y107505D01*
X383957Y107491D01*
X384988Y107626D01*
X385950Y108025D01*
X386776Y108658D01*
X387409Y109484D01*
X387808Y110445D01*
X387944Y111477D01*
X387808Y112509D01*
X387409Y113471D01*
X386776Y114296D01*
X386645Y114397D01*
X386805Y114871D01*
X388500D01*
X389085Y114987D01*
X389581Y115319D01*
X389913Y115815D01*
X390029Y116400D01*
Y125800D01*
X389913Y126385D01*
X389581Y126881D01*
X381029Y135433D01*
Y148110D01*
X381529Y148356D01*
X381963Y148024D01*
X382925Y147625D01*
X383957Y147490D01*
X384063Y147504D01*
X384372Y147501D01*
X385064Y147454D01*
X385332Y147416D01*
X385573Y147366D01*
X385774Y147309D01*
X385935Y147248D01*
X386055Y147188D01*
X386130Y147140D01*
X410474Y122797D01*
X410970Y122465D01*
X411555Y122349D01*
X529067D01*
Y125407D01*
X514134D01*
X514085Y125907D01*
X514485Y125987D01*
X514981Y126319D01*
X522534Y133871D01*
X555758D01*
X557413Y132215D01*
Y133578D01*
X560376D01*
X557473Y136481D01*
X556977Y136813D01*
X556391Y136929D01*
X521900D01*
X521315Y136813D01*
X520819Y136481D01*
X515576Y131239D01*
X515152Y131522D01*
X515273Y131815D01*
X515403Y132795D01*
X515273Y133776D01*
X514895Y134689D01*
X514293Y135474D01*
X513508Y136076D01*
X512595Y136454D01*
X511614Y136583D01*
X510634Y136454D01*
X509720Y136076D01*
X508935Y135474D01*
X508333Y134689D01*
X507955Y133776D01*
X507826Y132795D01*
X507955Y131815D01*
X508333Y130901D01*
X508935Y130116D01*
X509720Y129514D01*
X509925Y129429D01*
X509826Y128929D01*
X498549D01*
X497222Y130256D01*
X497179Y130320D01*
X497124Y130429D01*
X497068Y130572D01*
X497016Y130752D01*
X496969Y130968D01*
X496933Y131206D01*
X496888Y131831D01*
X496886Y132111D01*
X496899Y132205D01*
X496769Y133185D01*
X496391Y134099D01*
X495789Y134883D01*
X495004Y135486D01*
X494091Y135864D01*
X493110Y135993D01*
X492130Y135864D01*
X491216Y135486D01*
X490431Y134883D01*
X489829Y134099D01*
X489451Y133185D01*
X489322Y132205D01*
X489451Y131224D01*
X489829Y130311D01*
X490431Y129526D01*
X491216Y128924D01*
X492130Y128546D01*
X493110Y128417D01*
X493194Y128428D01*
X493823Y128410D01*
X494097Y128384D01*
X494347Y128346D01*
X494563Y128299D01*
X494743Y128247D01*
X494886Y128191D01*
X494995Y128136D01*
X495059Y128093D01*
X496834Y126319D01*
X497330Y125987D01*
X497730Y125907D01*
X497681Y125407D01*
X412188D01*
X388293Y149302D01*
X388245Y149378D01*
X388185Y149498D01*
X388124Y149659D01*
X388067Y149860D01*
X388017Y150101D01*
X387979Y150369D01*
X387932Y151061D01*
X387929Y151370D01*
X387944Y151476D01*
X387808Y152508D01*
X387409Y153470D01*
X386776Y154296D01*
X385950Y154929D01*
X384988Y155327D01*
X383957Y155463D01*
X382925Y155327D01*
X381963Y154929D01*
X381529Y154596D01*
X381029Y154843D01*
Y156229D01*
X381917Y157117D01*
X382078Y157266D01*
X382199Y157363D01*
X382204Y157366D01*
X382392D01*
X382430Y157359D01*
X382468Y157366D01*
X387909D01*
Y165272D01*
X380004D01*
Y159831D01*
X379996Y159792D01*
X380004Y159754D01*
Y159567D01*
X379793Y159318D01*
X378419Y157944D01*
X378087Y157448D01*
X377971Y156862D01*
Y134800D01*
X378087Y134215D01*
X378419Y133719D01*
X386403Y125734D01*
X386211Y125273D01*
X380004D01*
Y122849D01*
X325852D01*
X320352Y128350D01*
X320309Y128414D01*
X320254Y128522D01*
X320198Y128666D01*
X320146Y128846D01*
X320099Y129061D01*
X320063Y129300D01*
X320019Y129925D01*
X320016Y130205D01*
X320028Y130299D01*
X319899Y131279D01*
X319521Y132193D01*
X318919Y132977D01*
X318134Y133579D01*
X317221Y133958D01*
X316240Y134087D01*
X316157Y134076D01*
X315527Y134093D01*
X315253Y134120D01*
X315003Y134158D01*
X314787Y134204D01*
X314608Y134257D01*
X314464Y134313D01*
X314356Y134368D01*
X314292Y134410D01*
X305320Y143381D01*
X304824Y143713D01*
X304239Y143829D01*
X238826D01*
X232430Y150226D01*
X232358Y150307D01*
X232298Y150383D01*
Y155796D01*
X232147Y156552D01*
X231719Y157193D01*
X231078Y157621D01*
X230322Y157771D01*
X225041D01*
X224834Y158271D01*
X228633Y162071D01*
X234739D01*
X240641Y156168D01*
X240651Y156156D01*
X240723Y156040D01*
X240802Y155867D01*
X240881Y155636D01*
X240953Y155348D01*
X241015Y155005D01*
X241063Y154621D01*
X241119Y153661D01*
X241121Y153241D01*
X241100Y153082D01*
X241263Y151842D01*
X241742Y150686D01*
X242503Y149694D01*
X243495Y148933D01*
X244651Y148454D01*
X245891Y148291D01*
X247131Y148454D01*
X248286Y148933D01*
X249278Y149694D01*
X249376Y149821D01*
X249675Y150117D01*
X250393Y150757D01*
X250698Y150995D01*
X250985Y151193D01*
X251240Y151345D01*
X251459Y151453D01*
X251637Y151519D01*
X251770Y151551D01*
X251785Y151552D01*
X254066D01*
X254248Y151370D01*
X254745Y151039D01*
X255330Y150922D01*
X258377D01*
X258393Y150921D01*
X258525Y150890D01*
X258703Y150823D01*
X258923Y150715D01*
X259178Y150563D01*
X259464Y150365D01*
X259770Y150127D01*
X260487Y149487D01*
X260786Y149191D01*
X260884Y149064D01*
X261876Y148303D01*
X263032Y147824D01*
X264272Y147661D01*
X265512Y147824D01*
X266667Y148303D01*
X267659Y149064D01*
X268421Y150056D01*
X268899Y151212D01*
X269063Y152452D01*
X268899Y153692D01*
X268421Y154847D01*
X267659Y155840D01*
X266667Y156601D01*
X265512Y157080D01*
X264272Y157243D01*
X263032Y157080D01*
X261876Y156601D01*
X260884Y155840D01*
X260786Y155712D01*
X260487Y155416D01*
X259770Y154777D01*
X259464Y154539D01*
X259178Y154341D01*
X258923Y154188D01*
X258703Y154081D01*
X258525Y154014D01*
X258393Y153982D01*
X258377Y153981D01*
X255963D01*
X255781Y154163D01*
X255285Y154495D01*
X254700Y154611D01*
X251785D01*
X251770Y154612D01*
X251637Y154644D01*
X251459Y154710D01*
X251240Y154818D01*
X250985Y154971D01*
X250698Y155169D01*
X250393Y155407D01*
X249675Y156046D01*
X249376Y156342D01*
X249278Y156469D01*
X248286Y157231D01*
X247131Y157709D01*
X245891Y157873D01*
X245732Y157852D01*
X245311Y157854D01*
X244352Y157909D01*
X243967Y157957D01*
X243625Y158019D01*
X243337Y158092D01*
X243105Y158171D01*
X242932Y158250D01*
X242816Y158321D01*
X242804Y158331D01*
X236454Y164681D01*
X235958Y165013D01*
X235372Y165129D01*
X228000D01*
X227415Y165013D01*
X226919Y164681D01*
X221119Y158881D01*
X220787Y158385D01*
X220671Y157800D01*
Y144100D01*
X220787Y143515D01*
X221119Y143019D01*
X227549Y136589D01*
X227366Y136139D01*
X227330Y136100D01*
X226930Y136102D01*
X225971Y136157D01*
X225586Y136205D01*
X225244Y136267D01*
X224956Y136340D01*
X224724Y136419D01*
X224551Y136498D01*
X224435Y136569D01*
X224423Y136579D01*
X215929Y145073D01*
Y160000D01*
X215813Y160585D01*
X215481Y161081D01*
X209181Y167381D01*
X208685Y167713D01*
X208100Y167829D01*
D02*
G37*
G36*
X446169Y156824D02*
Y152598D01*
X450395D01*
X450297Y153338D01*
X449819Y154494D01*
X449057Y155486D01*
X448065Y156247D01*
X446909Y156726D01*
X446169Y156824D01*
D02*
G37*
G36*
X445169D02*
X444429Y156726D01*
X443274Y156247D01*
X442282Y155486D01*
X441520Y154494D01*
X441042Y153338D01*
X440944Y152598D01*
X445169D01*
Y156824D01*
D02*
G37*
G36*
X450395Y151598D02*
X449422D01*
X449422Y151487D01*
X449481Y150467D01*
X449537Y150020D01*
X449610Y149616D01*
X449645Y149477D01*
X449819Y149703D01*
X450297Y150858D01*
X450395Y151598D01*
D02*
G37*
G36*
X448957D02*
X446169D01*
Y148811D01*
X448957Y151598D01*
D02*
G37*
G36*
X190248Y150515D02*
X188070D01*
Y148390D01*
X187662Y148794D01*
X186899Y149474D01*
X186544Y149750D01*
X186206Y149984D01*
X186083Y150057D01*
X186120Y149775D01*
X186599Y148619D01*
X187360Y147627D01*
X188353Y146866D01*
X189508Y146387D01*
X190248Y146290D01*
Y150515D01*
D02*
G37*
G36*
X446169Y148346D02*
Y147373D01*
X446909Y147471D01*
X448065Y147949D01*
X448291Y148123D01*
X448152Y148158D01*
X447748Y148231D01*
X447301Y148287D01*
X446281Y148346D01*
X446169Y148346D01*
D02*
G37*
G36*
X445169Y151598D02*
X440944D01*
X441042Y150858D01*
X441520Y149703D01*
X442282Y148711D01*
X443274Y147949D01*
X444429Y147471D01*
X445169Y147373D01*
Y151598D01*
D02*
G37*
G36*
X464173Y156858D02*
X462933Y156695D01*
X461778Y156216D01*
X460785Y155455D01*
X460024Y154463D01*
X459546Y153307D01*
X459382Y152067D01*
X459546Y150827D01*
X460024Y149671D01*
X460785Y148679D01*
X461778Y147918D01*
X462933Y147439D01*
X464173Y147276D01*
X465413Y147439D01*
X466569Y147918D01*
X467561Y148679D01*
X468322Y149671D01*
X468801Y150827D01*
X468964Y152067D01*
X468801Y153307D01*
X468322Y154463D01*
X467561Y155455D01*
X466569Y156216D01*
X465413Y156695D01*
X464173Y156858D01*
D02*
G37*
G36*
X195473Y150515D02*
X191248D01*
Y146290D01*
X191988Y146387D01*
X193143Y146866D01*
X194136Y147627D01*
X194897Y148619D01*
X195376Y149775D01*
X195473Y150515D01*
D02*
G37*
G36*
X165445Y138390D02*
X164913Y138320D01*
X163951Y137921D01*
X163682Y137715D01*
X163808Y137667D01*
X164086Y137588D01*
X164394Y137524D01*
X164730Y137476D01*
X165445Y137427D01*
Y138390D01*
D02*
G37*
G36*
X166445D02*
Y137427D01*
X167159Y137476D01*
X167496Y137524D01*
X167803Y137588D01*
X168081Y137667D01*
X168208Y137715D01*
X167938Y137921D01*
X166977Y138320D01*
X166445Y138390D01*
D02*
G37*
G36*
X169191Y136732D02*
X169143Y136605D01*
X169064Y136327D01*
X169001Y136020D01*
X168952Y135683D01*
X168904Y134969D01*
X169866D01*
X169796Y135501D01*
X169397Y136462D01*
X169191Y136732D01*
D02*
G37*
G36*
X166445Y136951D02*
Y134969D01*
X168427D01*
X166445Y136951D01*
D02*
G37*
G36*
X165445D02*
X163463Y134969D01*
X165445D01*
Y136951D01*
D02*
G37*
G36*
X162699Y136732D02*
X162492Y136462D01*
X162094Y135501D01*
X162024Y134969D01*
X162986D01*
X162937Y135683D01*
X162889Y136020D01*
X162825Y136327D01*
X162747Y136605D01*
X162699Y136732D01*
D02*
G37*
G36*
X466986Y137170D02*
X464673D01*
Y132882D01*
X468961D01*
Y135194D01*
X468811Y135950D01*
X468383Y136591D01*
X467742Y137019D01*
X466986Y137170D01*
D02*
G37*
G36*
X463673D02*
X461361D01*
X460605Y137019D01*
X459964Y136591D01*
X459536Y135950D01*
X459385Y135194D01*
Y132882D01*
X463673D01*
Y137170D01*
D02*
G37*
G36*
X89083Y135712D02*
Y132291D01*
X92504D01*
X92434Y132823D01*
X92035Y133785D01*
X91402Y134610D01*
X90576Y135244D01*
X89614Y135642D01*
X89083Y135712D01*
D02*
G37*
G36*
X88083D02*
X87551Y135642D01*
X86589Y135244D01*
X85764Y134610D01*
X85130Y133785D01*
X84732Y132823D01*
X84662Y132291D01*
X88083D01*
Y135712D01*
D02*
G37*
G36*
X162986Y133969D02*
X162024D01*
X162094Y133437D01*
X162492Y132475D01*
X162699Y132206D01*
X162747Y132332D01*
X162825Y132610D01*
X162889Y132918D01*
X162937Y133254D01*
X162986Y133969D01*
D02*
G37*
G36*
X165445D02*
X163463D01*
X165445Y131986D01*
Y133969D01*
D02*
G37*
G36*
X211942Y136118D02*
X209629D01*
Y131830D01*
X213917D01*
Y134142D01*
X213767Y134898D01*
X213338Y135539D01*
X212698Y135967D01*
X211942Y136118D01*
D02*
G37*
G36*
X208629D02*
X206316D01*
X205560Y135967D01*
X204920Y135539D01*
X204491Y134898D01*
X204341Y134142D01*
Y131830D01*
X208629D01*
Y136118D01*
D02*
G37*
G36*
X351091Y134021D02*
Y130799D01*
X354313D01*
X354250Y131279D01*
X353871Y132193D01*
X353269Y132977D01*
X352485Y133579D01*
X351571Y133958D01*
X351091Y134021D01*
D02*
G37*
G36*
X350091D02*
X349610Y133958D01*
X348696Y133579D01*
X347912Y132977D01*
X347310Y132193D01*
X346931Y131279D01*
X346868Y130799D01*
X350091D01*
Y134021D01*
D02*
G37*
G36*
X169866Y133969D02*
X166445D01*
Y130548D01*
X166977Y130618D01*
X167938Y131016D01*
X168764Y131649D01*
X169397Y132475D01*
X169796Y133437D01*
X169866Y133969D01*
D02*
G37*
G36*
X165445Y131510D02*
X164730Y131461D01*
X164394Y131413D01*
X164086Y131349D01*
X163808Y131270D01*
X163682Y131223D01*
X163951Y131016D01*
X164913Y130618D01*
X165445Y130548D01*
Y131510D01*
D02*
G37*
G36*
X92504Y131291D02*
X91541D01*
X91590Y130577D01*
X91638Y130240D01*
X91702Y129933D01*
X91781Y129655D01*
X91829Y129528D01*
X92035Y129798D01*
X92434Y130760D01*
X92504Y131291D01*
D02*
G37*
G36*
X91065D02*
X89083D01*
Y129309D01*
X91065Y131291D01*
D02*
G37*
G36*
X89083Y128832D02*
Y127870D01*
X89614Y127940D01*
X90576Y128339D01*
X90846Y128545D01*
X90719Y128593D01*
X90441Y128672D01*
X90134Y128735D01*
X89797Y128784D01*
X89083Y128832D01*
D02*
G37*
G36*
X88083Y131291D02*
X84662D01*
X84732Y130760D01*
X85130Y129798D01*
X85764Y128972D01*
X86589Y128339D01*
X87551Y127940D01*
X88083Y127870D01*
Y131291D01*
D02*
G37*
G36*
X448482Y137201D02*
X442857D01*
X442101Y137051D01*
X441460Y136623D01*
X441032Y135982D01*
X440881Y135226D01*
Y129601D01*
X441032Y128845D01*
X441460Y128204D01*
X442101Y127776D01*
X442857Y127625D01*
X448482D01*
X449238Y127776D01*
X449879Y128204D01*
X450307Y128845D01*
X450457Y129601D01*
Y135226D01*
X450307Y135982D01*
X449879Y136623D01*
X449238Y137051D01*
X448482Y137201D01*
D02*
G37*
G36*
X468961Y131882D02*
X464673D01*
Y127594D01*
X466986D01*
X467742Y127744D01*
X468383Y128172D01*
X468811Y128813D01*
X468961Y129569D01*
Y131882D01*
D02*
G37*
G36*
X463673D02*
X459385D01*
Y129569D01*
X459536Y128813D01*
X459964Y128172D01*
X460605Y127744D01*
X461361Y127594D01*
X463673D01*
Y131882D01*
D02*
G37*
G36*
X354313Y129799D02*
X351091D01*
Y126576D01*
X351571Y126639D01*
X352485Y127018D01*
X353269Y127620D01*
X353871Y128404D01*
X354250Y129318D01*
X354313Y129799D01*
D02*
G37*
G36*
X350091D02*
X346868D01*
X346931Y129318D01*
X347310Y128404D01*
X347912Y127620D01*
X348696Y127018D01*
X349610Y126639D01*
X350091Y126576D01*
Y129799D01*
D02*
G37*
G36*
X213917Y130830D02*
X209629D01*
Y126542D01*
X211942D01*
X212698Y126692D01*
X213338Y127120D01*
X213767Y127761D01*
X213917Y128517D01*
Y130830D01*
D02*
G37*
G36*
X208629D02*
X204341D01*
Y128517D01*
X204491Y127761D01*
X204920Y127120D01*
X205560Y126692D01*
X206316Y126542D01*
X208629D01*
Y130830D01*
D02*
G37*
G36*
X193561Y136118D02*
X187935D01*
X187180Y135967D01*
X186539Y135539D01*
X186110Y134898D01*
X185960Y134142D01*
Y128517D01*
X186110Y127761D01*
X186539Y127120D01*
X187180Y126692D01*
X187935Y126542D01*
X193561D01*
X194316Y126692D01*
X194957Y127120D01*
X195386Y127761D01*
X195536Y128517D01*
Y134142D01*
X195386Y134898D01*
X194957Y135539D01*
X194316Y135967D01*
X193561Y136118D01*
D02*
G37*
G36*
X333415Y134087D02*
X332435Y133958D01*
X331521Y133579D01*
X330737Y132977D01*
X330135Y132193D01*
X329756Y131279D01*
X329627Y130299D01*
X329756Y129318D01*
X330135Y128404D01*
X330737Y127620D01*
X331521Y127018D01*
X332435Y126639D01*
X333415Y126510D01*
X334396Y126639D01*
X335310Y127018D01*
X336094Y127620D01*
X336696Y128404D01*
X337075Y129318D01*
X337204Y130299D01*
X337075Y131279D01*
X336696Y132193D01*
X336094Y132977D01*
X335310Y133579D01*
X334396Y133958D01*
X333415Y134087D01*
D02*
G37*
G36*
X118954Y129985D02*
X116642D01*
Y125697D01*
X119886D01*
Y126197D01*
X119896Y126102D01*
X119926Y126017D01*
X119977Y125942D01*
X120048Y125877D01*
X120139Y125822D01*
X120250Y125777D01*
X120382Y125742D01*
X120534Y125717D01*
X120706Y125702D01*
X120898Y125697D01*
X120930D01*
Y128009D01*
X120779Y128765D01*
X120351Y129406D01*
X119710Y129834D01*
X118954Y129985D01*
D02*
G37*
G36*
X115642D02*
X113329D01*
X112573Y129834D01*
X111932Y129406D01*
X111504Y128765D01*
X111354Y128009D01*
Y125697D01*
X111386D01*
D01*
X111578Y125702D01*
X111750Y125717D01*
X111902Y125742D01*
X112033Y125777D01*
X112145Y125822D01*
X112236Y125877D01*
X112307Y125942D01*
X112357Y126017D01*
X112388Y126102D01*
X112398Y126197D01*
Y125697D01*
X115642D01*
Y129985D01*
D02*
G37*
G36*
X120930Y124697D02*
X120898D01*
D01*
X120706Y124692D01*
X120534Y124677D01*
X120382Y124652D01*
X120250Y124617D01*
X120139Y124572D01*
X120048Y124517D01*
X119977Y124452D01*
X119926Y124377D01*
X119896Y124292D01*
X119886Y124197D01*
Y124697D01*
X116642D01*
Y120409D01*
X118954D01*
X119710Y120559D01*
X120351Y120987D01*
X120779Y121628D01*
X120930Y122384D01*
Y124697D01*
D02*
G37*
G36*
X115642D02*
X112398D01*
Y124197D01*
X112388Y124292D01*
X112357Y124377D01*
X112307Y124452D01*
X112236Y124517D01*
X112145Y124572D01*
X112033Y124617D01*
X111902Y124652D01*
X111750Y124677D01*
X111578Y124692D01*
X111386Y124697D01*
X111354D01*
Y122384D01*
X111504Y121628D01*
X111932Y120987D01*
X112573Y120559D01*
X113329Y120409D01*
X115642D01*
Y124697D01*
D02*
G37*
G36*
X18413Y110703D02*
Y106091D01*
X23026D01*
X22915Y106931D01*
X22398Y108180D01*
X21575Y109252D01*
X20503Y110075D01*
X19254Y110592D01*
X18413Y110703D01*
D02*
G37*
G36*
X17413D02*
X16573Y110592D01*
X15324Y110075D01*
X14252Y109252D01*
X13429Y108180D01*
X12912Y106931D01*
X12801Y106091D01*
X17413D01*
Y110703D01*
D02*
G37*
G36*
X23026Y105091D02*
X18413D01*
Y100478D01*
X19254Y100589D01*
X20503Y101106D01*
X21575Y101929D01*
X22398Y103001D01*
X22915Y104250D01*
X23026Y105091D01*
D02*
G37*
G36*
X17413D02*
X12801D01*
X12912Y104250D01*
X13429Y103001D01*
X14252Y101929D01*
X15324Y101106D01*
X16573Y100589D01*
X17413Y100478D01*
Y105091D01*
D02*
G37*
G36*
X493610Y95927D02*
Y92705D01*
X496833D01*
X496769Y93185D01*
X496391Y94099D01*
X495789Y94884D01*
X495004Y95486D01*
X494091Y95864D01*
X493610Y95927D01*
D02*
G37*
G36*
X492610D02*
X492130Y95864D01*
X491216Y95486D01*
X490431Y94884D01*
X489829Y94099D01*
X489451Y93185D01*
X489388Y92705D01*
X492610D01*
Y95927D01*
D02*
G37*
G36*
X245891Y94479D02*
X244651Y94316D01*
X243495Y93837D01*
X242503Y93076D01*
X242405Y92948D01*
X242107Y92653D01*
X241389Y92013D01*
X241083Y91775D01*
X240797Y91577D01*
X240542Y91425D01*
X240323Y91317D01*
X240144Y91250D01*
X240012Y91219D01*
X239996Y91217D01*
X236698D01*
X236204Y91119D01*
X232298D01*
Y92402D01*
X232147Y93158D01*
X231719Y93799D01*
X231078Y94227D01*
X230322Y94378D01*
X224697D01*
X223941Y94227D01*
X223300Y93799D01*
X222872Y93158D01*
X222722Y92402D01*
Y86777D01*
X222872Y86021D01*
X223300Y85380D01*
X223941Y84952D01*
X224697Y84802D01*
X230322D01*
X231078Y84952D01*
X231719Y85380D01*
X232147Y86021D01*
X232298Y86777D01*
Y88060D01*
X236600D01*
X237095Y88159D01*
X239996D01*
X240012Y88157D01*
X240144Y88126D01*
X240322Y88059D01*
X240542Y87951D01*
X240797Y87799D01*
X241083Y87601D01*
X241389Y87363D01*
X242107Y86723D01*
X242405Y86428D01*
X242503Y86300D01*
X243495Y85539D01*
X244651Y85060D01*
X245891Y84897D01*
X247131Y85060D01*
X248286Y85539D01*
X249278Y86300D01*
X250040Y87292D01*
X250518Y88448D01*
X250682Y89688D01*
X250518Y90928D01*
X250040Y92084D01*
X249278Y93076D01*
X248286Y93837D01*
X247131Y94316D01*
X245891Y94479D01*
D02*
G37*
G36*
X117134Y95276D02*
Y91051D01*
X121359D01*
X121262Y91791D01*
X120783Y92947D01*
X120021Y93939D01*
X119029Y94700D01*
X117874Y95179D01*
X117134Y95276D01*
D02*
G37*
G36*
X116134D02*
X115394Y95179D01*
X114238Y94700D01*
X113246Y93939D01*
X112485Y92947D01*
X112006Y91791D01*
X111969Y91509D01*
X112092Y91582D01*
X112430Y91816D01*
X112785Y92092D01*
X113548Y92773D01*
X113956Y93176D01*
Y91051D01*
X116134D01*
Y95276D01*
D02*
G37*
G36*
X490341Y91705D02*
X489388D01*
X489451Y91224D01*
X489829Y90311D01*
X490038Y90038D01*
X490118Y90243D01*
X490194Y90501D01*
X490255Y90784D01*
X490301Y91093D01*
X490334Y91429D01*
X490341Y91705D01*
D02*
G37*
G36*
X492610D02*
X490827D01*
X492610Y89921D01*
Y91705D01*
D02*
G37*
G36*
X496833D02*
X493610D01*
Y88482D01*
X494091Y88546D01*
X495004Y88924D01*
X495789Y89526D01*
X496391Y90311D01*
X496769Y91224D01*
X496833Y91705D01*
D02*
G37*
G36*
X492610Y89440D02*
X491999Y89396D01*
X491689Y89349D01*
X491406Y89288D01*
X491149Y89213D01*
X490944Y89133D01*
X491216Y88924D01*
X492130Y88546D01*
X492610Y88482D01*
Y89440D01*
D02*
G37*
G36*
X121359Y90051D02*
X120386D01*
X120387Y89940D01*
X120445Y88920D01*
X120501Y88473D01*
X120574Y88069D01*
X120609Y87930D01*
X120783Y88156D01*
X121262Y89311D01*
X121359Y90051D01*
D02*
G37*
G36*
X116134D02*
X113956D01*
Y87926D01*
X113548Y88330D01*
X112785Y89010D01*
X112430Y89286D01*
X112092Y89520D01*
X111969Y89594D01*
X112006Y89311D01*
X112485Y88156D01*
X113246Y87164D01*
X114238Y86402D01*
X115394Y85923D01*
X116134Y85826D01*
Y90051D01*
D02*
G37*
G36*
X119921D02*
X117134D01*
Y87264D01*
X119921Y90051D01*
D02*
G37*
G36*
X117134Y86799D02*
Y85826D01*
X117874Y85923D01*
X119029Y86402D01*
X119255Y86576D01*
X119116Y86611D01*
X118712Y86684D01*
X118265Y86740D01*
X117245Y86799D01*
X117134Y86799D01*
D02*
G37*
G36*
X92535Y89091D02*
X89083D01*
Y85638D01*
X92535D01*
Y89091D01*
D02*
G37*
G36*
X88083D02*
X84630D01*
Y85638D01*
X88083D01*
Y89091D01*
D02*
G37*
G36*
X468642Y93436D02*
X467610Y93300D01*
X466648Y92901D01*
X465823Y92268D01*
X465189Y91442D01*
X464791Y90481D01*
X464655Y89449D01*
X464791Y88417D01*
X465189Y87455D01*
X465823Y86630D01*
X466648Y85996D01*
X467610Y85598D01*
X468642Y85462D01*
X469674Y85598D01*
X470635Y85996D01*
X471461Y86630D01*
X472094Y87455D01*
X472493Y88417D01*
X472629Y89449D01*
X472493Y90481D01*
X472094Y91442D01*
X471461Y92268D01*
X470635Y92901D01*
X469674Y93300D01*
X468642Y93436D01*
D02*
G37*
G36*
X169898Y84819D02*
X166445D01*
Y81366D01*
X168874D01*
Y81866D01*
X168884Y81771D01*
X168914Y81686D01*
X168965Y81611D01*
X169036Y81546D01*
X169127Y81491D01*
X169238Y81446D01*
X169370Y81411D01*
X169521Y81386D01*
X169694Y81371D01*
X169886Y81366D01*
X169898D01*
Y84819D01*
D02*
G37*
G36*
X165445D02*
X161992D01*
Y81366D01*
X162004D01*
D01*
X162197Y81371D01*
X162369Y81386D01*
X162520Y81411D01*
X162652Y81446D01*
X162763Y81491D01*
X162854Y81546D01*
X162925Y81611D01*
X162976Y81686D01*
X163006Y81771D01*
X163016Y81866D01*
Y81366D01*
X165445D01*
Y84819D01*
D02*
G37*
G36*
X92535Y84638D02*
X89083D01*
Y81185D01*
X92535D01*
Y84638D01*
D02*
G37*
G36*
X88083D02*
X84630D01*
Y81185D01*
X88083D01*
Y84638D01*
D02*
G37*
G36*
X145291Y83559D02*
X140854D01*
Y81091D01*
X144267D01*
Y81591D01*
X144278Y81496D01*
X144308Y81411D01*
X144359Y81336D01*
X144429Y81271D01*
X144520Y81216D01*
X144632Y81171D01*
X144763Y81136D01*
X144915Y81111D01*
X145087Y81096D01*
X145279Y81091D01*
X145291D01*
Y83559D01*
D02*
G37*
G36*
X139854D02*
X135417D01*
Y81091D01*
X135429D01*
X135622Y81096D01*
X135794Y81111D01*
X135945Y81136D01*
X136077Y81171D01*
X136188Y81216D01*
X136279Y81271D01*
X136350Y81336D01*
X136401Y81411D01*
X136431Y81496D01*
X136441Y81591D01*
Y81091D01*
X139854D01*
Y83559D01*
D02*
G37*
G36*
X439142Y83370D02*
Y79949D01*
X442563D01*
X442493Y80481D01*
X442095Y81442D01*
X441461Y82268D01*
X440635Y82902D01*
X439674Y83300D01*
X439142Y83370D01*
D02*
G37*
G36*
X438142D02*
X437610Y83300D01*
X436648Y82902D01*
X435823Y82268D01*
X435189Y81442D01*
X434791Y80481D01*
X434721Y79949D01*
X438142D01*
Y83370D01*
D02*
G37*
G36*
X184614Y83338D02*
Y79917D01*
X188035D01*
X187965Y80449D01*
X187567Y81411D01*
X186933Y82236D01*
X186108Y82870D01*
X185146Y83268D01*
X184614Y83338D01*
D02*
G37*
G36*
X183614D02*
X183082Y83268D01*
X182121Y82870D01*
X181295Y82236D01*
X180661Y81411D01*
X180263Y80449D01*
X180219Y80112D01*
X180342Y80168D01*
X180594Y80309D01*
X180857Y80481D01*
X181129Y80685D01*
X181703Y81187D01*
X182006Y81484D01*
Y79917D01*
X183614D01*
Y83338D01*
D02*
G37*
G36*
X169898Y80366D02*
X169886D01*
D01*
X169694Y80361D01*
X169521Y80346D01*
X169370Y80321D01*
X169238Y80286D01*
X169127Y80241D01*
X169036Y80186D01*
X168965Y80121D01*
X168914Y80046D01*
X168884Y79961D01*
X168874Y79866D01*
Y80366D01*
X166445D01*
Y76913D01*
X169898D01*
Y80366D01*
D02*
G37*
G36*
X165445D02*
X163016D01*
Y79866D01*
X163006Y79961D01*
X162976Y80046D01*
X162925Y80121D01*
X162854Y80186D01*
X162763Y80241D01*
X162652Y80286D01*
X162520Y80321D01*
X162369Y80346D01*
X162197Y80361D01*
X162004Y80366D01*
X161992D01*
Y76913D01*
X165445D01*
Y80366D01*
D02*
G37*
G36*
X183614Y78917D02*
X182006D01*
Y77350D01*
X181703Y77648D01*
X181129Y78150D01*
X180857Y78353D01*
X180594Y78526D01*
X180342Y78667D01*
X180219Y78722D01*
X180263Y78386D01*
X180661Y77424D01*
X181295Y76598D01*
X182121Y75965D01*
X183082Y75566D01*
X183614Y75496D01*
Y78917D01*
D02*
G37*
G36*
X442563Y78949D02*
X441601D01*
X441649Y78234D01*
X441698Y77898D01*
X441761Y77590D01*
X441840Y77312D01*
X441888Y77186D01*
X442095Y77455D01*
X442493Y78417D01*
X442563Y78949D01*
D02*
G37*
G36*
X441124D02*
X439142D01*
Y76967D01*
X441124Y78949D01*
D02*
G37*
G36*
X439142Y76490D02*
Y75528D01*
X439674Y75598D01*
X440635Y75996D01*
X440905Y76203D01*
X440778Y76251D01*
X440500Y76329D01*
X440193Y76393D01*
X439856Y76441D01*
X439142Y76490D01*
D02*
G37*
G36*
X438142Y78949D02*
X434721D01*
X434791Y78417D01*
X435189Y77455D01*
X435823Y76630D01*
X436648Y75996D01*
X437610Y75598D01*
X438142Y75528D01*
Y78949D01*
D02*
G37*
G36*
X188035Y78917D02*
X184614D01*
Y75496D01*
X185146Y75566D01*
X186108Y75965D01*
X186933Y76598D01*
X187567Y77424D01*
X187965Y78386D01*
X188035Y78917D01*
D02*
G37*
G36*
X468642Y83436D02*
X467610Y83300D01*
X466648Y82902D01*
X465823Y82268D01*
X465189Y81442D01*
X464791Y80481D01*
X464655Y79449D01*
X464791Y78417D01*
X465189Y77455D01*
X465823Y76630D01*
X466648Y75996D01*
X467610Y75598D01*
X468642Y75462D01*
X469674Y75598D01*
X470635Y75996D01*
X471461Y76630D01*
X472094Y77455D01*
X472493Y78417D01*
X472629Y79449D01*
X472493Y80481D01*
X472094Y81442D01*
X471461Y82268D01*
X470635Y82902D01*
X469674Y83300D01*
X468642Y83436D01*
D02*
G37*
G36*
X469142Y73370D02*
Y72408D01*
X469856Y72456D01*
X470193Y72505D01*
X470500Y72568D01*
X470778Y72647D01*
X470905Y72695D01*
X470635Y72901D01*
X469674Y73300D01*
X469142Y73370D01*
D02*
G37*
G36*
X471888Y71712D02*
X471840Y71585D01*
X471761Y71307D01*
X471698Y71000D01*
X471649Y70663D01*
X471601Y69949D01*
X472563D01*
X472493Y70481D01*
X472094Y71442D01*
X471888Y71712D01*
D02*
G37*
G36*
X469142Y71931D02*
Y69949D01*
X471124D01*
X469142Y71931D01*
D02*
G37*
G36*
X468142Y73370D02*
X467610Y73300D01*
X466648Y72901D01*
X465823Y72268D01*
X465189Y71442D01*
X464791Y70481D01*
X464746Y70144D01*
X464870Y70200D01*
X465122Y70341D01*
X465384Y70513D01*
X465657Y70717D01*
X466231Y71218D01*
X466533Y71516D01*
Y69949D01*
X468142D01*
Y73370D01*
D02*
G37*
G36*
X553800Y72120D02*
X550567D01*
Y69061D01*
X553166D01*
X553268Y68960D01*
X553764Y68628D01*
X554350Y68512D01*
X558102D01*
Y71570D01*
X554983D01*
X554881Y71672D01*
X554385Y72004D01*
X553800Y72120D01*
D02*
G37*
G36*
X468142Y68949D02*
X466533D01*
Y67382D01*
X466231Y67680D01*
X465657Y68181D01*
X465384Y68385D01*
X465122Y68557D01*
X464870Y68698D01*
X464746Y68754D01*
X464791Y68417D01*
X465189Y67455D01*
X465823Y66630D01*
X466648Y65996D01*
X467610Y65598D01*
X468142Y65528D01*
Y68949D01*
D02*
G37*
G36*
X351091Y70419D02*
Y67196D01*
X354313D01*
X354250Y67677D01*
X353871Y68590D01*
X353269Y69375D01*
X352485Y69977D01*
X351571Y70355D01*
X351091Y70419D01*
D02*
G37*
G36*
X350091D02*
X349610Y70355D01*
X348696Y69977D01*
X347912Y69375D01*
X347310Y68590D01*
X346931Y67677D01*
X346868Y67196D01*
X350091D01*
Y70419D01*
D02*
G37*
G36*
X472563Y68949D02*
X469142D01*
Y65528D01*
X469674Y65598D01*
X470635Y65996D01*
X471461Y66630D01*
X472094Y67455D01*
X472493Y68417D01*
X472563Y68949D01*
D02*
G37*
G36*
X17331Y61909D02*
Y55520D01*
X23720D01*
X23636Y56373D01*
X23242Y57675D01*
X22600Y58875D01*
X21737Y59926D01*
X20686Y60789D01*
X19486Y61430D01*
X18184Y61825D01*
X17331Y61909D01*
D02*
G37*
G36*
X89665Y52806D02*
X88634Y52670D01*
X87672Y52272D01*
X86846Y51638D01*
X86213Y50812D01*
X85814Y49851D01*
X85678Y48819D01*
X85814Y47787D01*
X86213Y46826D01*
X86846Y46000D01*
X87672Y45366D01*
X88634Y44968D01*
X89665Y44832D01*
X90697Y44968D01*
X91659Y45366D01*
X92484Y46000D01*
X93118Y46826D01*
X93516Y47787D01*
X93652Y48819D01*
X93516Y49851D01*
X93118Y50812D01*
X92484Y51638D01*
X91659Y52272D01*
X90697Y52670D01*
X89665Y52806D01*
D02*
G37*
G36*
X305618Y47358D02*
Y40953D01*
X309121D01*
Y43421D01*
X308984Y44457D01*
X308585Y45423D01*
X307949Y46252D01*
X307120Y46888D01*
X306154Y47288D01*
X305618Y47358D01*
D02*
G37*
G36*
X285933D02*
Y40953D01*
X289436D01*
Y43421D01*
X289299Y44457D01*
X288899Y45423D01*
X288263Y46252D01*
X287434Y46888D01*
X286469Y47288D01*
X285933Y47358D01*
D02*
G37*
G36*
X304618D02*
X304082Y47288D01*
X303117Y46888D01*
X302288Y46252D01*
X301652Y45423D01*
X301252Y44457D01*
X301115Y43421D01*
Y40953D01*
X304618D01*
Y47358D01*
D02*
G37*
G36*
X284933D02*
X284397Y47288D01*
X283432Y46888D01*
X282603Y46252D01*
X281966Y45423D01*
X281567Y44457D01*
X281430Y43421D01*
Y40953D01*
X284933D01*
Y47358D01*
D02*
G37*
G36*
X295276Y43844D02*
X294398Y43729D01*
X293580Y43390D01*
X292878Y42851D01*
X292339Y42148D01*
X292000Y41331D01*
X291884Y40453D01*
X292000Y39575D01*
X292339Y38757D01*
X292878Y38055D01*
X293580Y37516D01*
X294398Y37177D01*
X295276Y37062D01*
X296153Y37177D01*
X296971Y37516D01*
X297674Y38055D01*
X298213Y38757D01*
X298551Y39575D01*
X298667Y40453D01*
X298551Y41331D01*
X298213Y42148D01*
X297674Y42851D01*
X296971Y43390D01*
X296153Y43729D01*
X295276Y43844D01*
D02*
G37*
G36*
X350500Y28436D02*
Y24122D01*
X354815D01*
X354714Y24885D01*
X354226Y26062D01*
X353451Y27073D01*
X352440Y27849D01*
X351263Y28336D01*
X350500Y28436D01*
D02*
G37*
G36*
X349500D02*
X348737Y28336D01*
X347560Y27849D01*
X346549Y27073D01*
X345774Y26062D01*
X345286Y24885D01*
X345185Y24122D01*
X349500D01*
Y28436D01*
D02*
G37*
G36*
X298244Y24770D02*
X295776D01*
Y21268D01*
X301019D01*
Y21764D01*
X301030Y21670D01*
X301065Y21586D01*
X301122Y21511D01*
X301202Y21447D01*
X301306Y21392D01*
X301432Y21347D01*
X301581Y21313D01*
X301753Y21288D01*
X301948Y21273D01*
X302166Y21268D01*
X302181D01*
X302111Y21804D01*
X301711Y22769D01*
X301075Y23598D01*
X300245Y24234D01*
X299280Y24634D01*
X298244Y24770D01*
D02*
G37*
G36*
X294776D02*
X292307D01*
X291271Y24634D01*
X290306Y24234D01*
X289477Y23598D01*
X288841Y22769D01*
X288441Y21804D01*
X288370Y21268D01*
X294776D01*
Y24770D01*
D02*
G37*
G36*
X354815Y23122D02*
X353841D01*
X353841Y22993D01*
X353957Y21485D01*
X354032Y21070D01*
X354059Y20963D01*
X354226Y21182D01*
X354714Y22359D01*
X354815Y23122D01*
D02*
G37*
G36*
X346159D02*
X345185D01*
X345286Y22359D01*
X345774Y21182D01*
X345941Y20963D01*
X345968Y21070D01*
X346043Y21485D01*
X346099Y21944D01*
X346159Y22993D01*
X346159Y23122D01*
D02*
G37*
G36*
X353377D02*
X350500D01*
Y20245D01*
X353377Y23122D01*
D02*
G37*
G36*
X349500D02*
X346623D01*
X349500Y20245D01*
Y23122D01*
D02*
G37*
G36*
X302181Y20268D02*
X302166D01*
D01*
X301948Y20263D01*
X301753Y20248D01*
X301581Y20223D01*
X301432Y20188D01*
X301306Y20144D01*
X301202Y20089D01*
X301122Y20024D01*
X301065Y19950D01*
X301030Y19866D01*
X301019Y19771D01*
Y20268D01*
X295776D01*
Y16765D01*
X298244D01*
X299280Y16901D01*
X300245Y17301D01*
X301075Y17937D01*
X301711Y18766D01*
X302111Y19732D01*
X302181Y20268D01*
D02*
G37*
G36*
X461366Y21929D02*
Y18906D01*
X462694D01*
Y20197D01*
X462944Y19952D01*
X463425Y19538D01*
X463656Y19371D01*
X463881Y19228D01*
X464100Y19112D01*
X464312Y19022D01*
X464377Y19001D01*
X464334Y19335D01*
X463975Y20200D01*
X463405Y20944D01*
X462661Y21514D01*
X461795Y21873D01*
X461366Y21929D01*
D02*
G37*
G36*
X453492D02*
Y18906D01*
X454820D01*
Y20197D01*
X455070Y19952D01*
X455551Y19538D01*
X455782Y19371D01*
X456007Y19228D01*
X456226Y19112D01*
X456438Y19022D01*
X456503Y19001D01*
X456460Y19335D01*
X456101Y20200D01*
X455531Y20944D01*
X454787Y21514D01*
X453921Y21873D01*
X453492Y21929D01*
D02*
G37*
G36*
X437744D02*
Y18906D01*
X439072D01*
Y20197D01*
X439322Y19952D01*
X439803Y19538D01*
X440034Y19371D01*
X440259Y19228D01*
X440478Y19112D01*
X440690Y19022D01*
X440756Y19001D01*
X440712Y19335D01*
X440353Y20200D01*
X439782Y20944D01*
X439039Y21514D01*
X438173Y21873D01*
X437744Y21929D01*
D02*
G37*
G36*
X469240D02*
Y18906D01*
X472264D01*
X472208Y19335D01*
X471849Y20200D01*
X471278Y20944D01*
X470535Y21514D01*
X469669Y21873D01*
X469240Y21929D01*
D02*
G37*
G36*
X468240D02*
X467811Y21873D01*
X466945Y21514D01*
X466202Y20944D01*
X465631Y20200D01*
X465273Y19335D01*
X465229Y19001D01*
X465294Y19022D01*
X465507Y19112D01*
X465725Y19228D01*
X465950Y19371D01*
X466182Y19538D01*
X466419Y19732D01*
X466913Y20197D01*
Y18906D01*
X468240D01*
Y21929D01*
D02*
G37*
G36*
X460366D02*
X459937Y21873D01*
X459071Y21514D01*
X458328Y20944D01*
X457757Y20200D01*
X457399Y19335D01*
X457355Y19001D01*
X457420Y19022D01*
X457633Y19112D01*
X457851Y19228D01*
X458076Y19371D01*
X458308Y19538D01*
X458545Y19732D01*
X459039Y20197D01*
Y18906D01*
X460366D01*
Y21929D01*
D02*
G37*
G36*
X452492D02*
X452063Y21873D01*
X451197Y21514D01*
X450454Y20944D01*
X449883Y20200D01*
X449525Y19335D01*
X449481Y19001D01*
X449546Y19022D01*
X449759Y19112D01*
X449977Y19228D01*
X450202Y19371D01*
X450433Y19538D01*
X450671Y19732D01*
X451165Y20197D01*
Y18906D01*
X452492D01*
Y21929D01*
D02*
G37*
G36*
X436744D02*
X436315Y21873D01*
X435449Y21514D01*
X434706Y20944D01*
X434135Y20200D01*
X433777Y19335D01*
X433720Y18906D01*
X433898D01*
X434051Y18910D01*
X434191Y18922D01*
X434319Y18943D01*
X434434Y18973D01*
X434536Y19010D01*
X434625Y19056D01*
X434702Y19111D01*
X434766Y19173D01*
X434817Y19245D01*
X434856Y19324D01*
Y18906D01*
X436744D01*
Y21929D01*
D02*
G37*
G36*
X350500Y19781D02*
Y18808D01*
X351263Y18908D01*
X352440Y19396D01*
X352659Y19563D01*
X352552Y19590D01*
X352137Y19665D01*
X351678Y19721D01*
X350629Y19781D01*
X350500Y19781D01*
D02*
G37*
G36*
X349500D02*
X349371Y19781D01*
X347863Y19665D01*
X347448Y19590D01*
X347341Y19563D01*
X347560Y19396D01*
X348737Y18908D01*
X349500Y18808D01*
Y19781D01*
D02*
G37*
G36*
X389370Y28502D02*
X388107Y28336D01*
X386930Y27849D01*
X385919Y27073D01*
X385143Y26062D01*
X384656Y24885D01*
X384490Y23622D01*
X384656Y22359D01*
X385143Y21182D01*
X385919Y20171D01*
X386930Y19396D01*
X388107Y18908D01*
X389370Y18742D01*
X390633Y18908D01*
X391810Y19396D01*
X392821Y20171D01*
X393597Y21182D01*
X394084Y22359D01*
X394250Y23622D01*
X394084Y24885D01*
X393597Y26062D01*
X392821Y27073D01*
X391810Y27849D01*
X390633Y28336D01*
X389370Y28502D01*
D02*
G37*
G36*
X240551D02*
X239288Y28336D01*
X238111Y27849D01*
X237100Y27073D01*
X236325Y26062D01*
X235837Y24885D01*
X235671Y23622D01*
X235837Y22359D01*
X236325Y21182D01*
X237100Y20171D01*
X238111Y19396D01*
X239288Y18908D01*
X240551Y18742D01*
X241814Y18908D01*
X242991Y19396D01*
X244002Y20171D01*
X244778Y21182D01*
X245265Y22359D01*
X245431Y23622D01*
X245265Y24885D01*
X244778Y26062D01*
X244002Y27073D01*
X242991Y27849D01*
X241814Y28336D01*
X240551Y28502D01*
D02*
G37*
G36*
X220866D02*
X219603Y28336D01*
X218426Y27849D01*
X217415Y27073D01*
X216640Y26062D01*
X216152Y24885D01*
X215986Y23622D01*
X216152Y22359D01*
X216640Y21182D01*
X217415Y20171D01*
X218426Y19396D01*
X219603Y18908D01*
X220866Y18742D01*
X222129Y18908D01*
X223306Y19396D01*
X224317Y20171D01*
X225093Y21182D01*
X225580Y22359D01*
X225746Y23622D01*
X225580Y24885D01*
X225093Y26062D01*
X224317Y27073D01*
X223306Y27849D01*
X222129Y28336D01*
X220866Y28502D01*
D02*
G37*
G36*
X201181D02*
X199918Y28336D01*
X198741Y27849D01*
X197730Y27073D01*
X196955Y26062D01*
X196467Y24885D01*
X196301Y23622D01*
X196467Y22359D01*
X196955Y21182D01*
X197730Y20171D01*
X198741Y19396D01*
X199918Y18908D01*
X201181Y18742D01*
X202444Y18908D01*
X203621Y19396D01*
X204632Y20171D01*
X205408Y21182D01*
X205895Y22359D01*
X206062Y23622D01*
X205895Y24885D01*
X205408Y26062D01*
X204632Y27073D01*
X203621Y27849D01*
X202444Y28336D01*
X201181Y28502D01*
D02*
G37*
G36*
X172047D02*
X170784Y28336D01*
X169607Y27849D01*
X168596Y27073D01*
X167821Y26062D01*
X167333Y24885D01*
X167167Y23622D01*
X167333Y22359D01*
X167821Y21182D01*
X168596Y20171D01*
X169607Y19396D01*
X170784Y18908D01*
X172047Y18742D01*
X173310Y18908D01*
X174487Y19396D01*
X175498Y20171D01*
X176274Y21182D01*
X176761Y22359D01*
X176927Y23622D01*
X176761Y24885D01*
X176274Y26062D01*
X175498Y27073D01*
X174487Y27849D01*
X173310Y28336D01*
X172047Y28502D01*
D02*
G37*
G36*
X39665Y52806D02*
X38633Y52670D01*
X37672Y52272D01*
X36846Y51638D01*
X36213Y50812D01*
X35814Y49851D01*
X35678Y48819D01*
X35814Y47787D01*
X36213Y46826D01*
X36846Y46000D01*
X37672Y45366D01*
X38633Y44968D01*
X39665Y44832D01*
X39772Y44846D01*
X40081Y44844D01*
X40773Y44797D01*
X41040Y44758D01*
X41281Y44708D01*
X41483Y44651D01*
X41644Y44591D01*
X41764Y44531D01*
X41839Y44482D01*
X64273Y22049D01*
X64769Y21717D01*
X65354Y21601D01*
X73205D01*
Y20630D01*
X75205Y18630D01*
X79205D01*
X81205Y20630D01*
Y25630D01*
X79205Y27630D01*
X75205D01*
X73205Y25630D01*
Y24659D01*
X65988D01*
X44002Y46645D01*
X43953Y46720D01*
X43894Y46841D01*
X43833Y47002D01*
X43776Y47203D01*
X43726Y47444D01*
X43687Y47712D01*
X43641Y48404D01*
X43638Y48712D01*
X43652Y48819D01*
X43516Y49851D01*
X43118Y50812D01*
X42485Y51638D01*
X41659Y52272D01*
X40697Y52670D01*
X39665Y52806D01*
D02*
G37*
G36*
X87205Y27665D02*
X86161Y27527D01*
X85188Y27124D01*
X84352Y26483D01*
X83711Y25647D01*
X83308Y24674D01*
X83170Y23630D01*
Y22630D01*
X83308Y21586D01*
X83711Y20613D01*
X84352Y19777D01*
X85188Y19136D01*
X86161Y18733D01*
X87205Y18596D01*
X88249Y18733D01*
X89222Y19136D01*
X90058Y19777D01*
X90699Y20613D01*
X91102Y21586D01*
X91239Y22630D01*
Y23630D01*
X91102Y24674D01*
X90699Y25647D01*
X90058Y26483D01*
X89222Y27124D01*
X88249Y27527D01*
X87205Y27665D01*
D02*
G37*
G36*
X436744Y17906D02*
X434856D01*
Y17487D01*
X434817Y17567D01*
X434766Y17638D01*
X434702Y17700D01*
X434625Y17755D01*
X434536Y17801D01*
X434434Y17839D01*
X434319Y17868D01*
X434191Y17889D01*
X434051Y17901D01*
X433898Y17906D01*
X433720D01*
X433777Y17477D01*
X434135Y16611D01*
X434706Y15867D01*
X435449Y15297D01*
X436315Y14938D01*
X436744Y14882D01*
Y17906D01*
D02*
G37*
G36*
X314961Y24159D02*
X314083Y24044D01*
X313265Y23705D01*
X312563Y23166D01*
X312024Y22463D01*
X311685Y21645D01*
X311569Y20768D01*
X311685Y19890D01*
X312024Y19072D01*
X312563Y18370D01*
X313265Y17831D01*
X314083Y17492D01*
X314961Y17377D01*
X315838Y17492D01*
X316656Y17831D01*
X317359Y18370D01*
X317898Y19072D01*
X318236Y19890D01*
X318352Y20768D01*
X318236Y21645D01*
X317898Y22463D01*
X317359Y23166D01*
X316656Y23705D01*
X315838Y24044D01*
X314961Y24159D01*
D02*
G37*
G36*
X275591D02*
X274713Y24044D01*
X273895Y23705D01*
X273193Y23166D01*
X272654Y22463D01*
X272315Y21645D01*
X272199Y20768D01*
X272315Y19890D01*
X272654Y19072D01*
X273193Y18370D01*
X273895Y17831D01*
X274713Y17492D01*
X275591Y17377D01*
X276468Y17492D01*
X277286Y17831D01*
X277989Y18370D01*
X278527Y19072D01*
X278866Y19890D01*
X278982Y20768D01*
X278866Y21645D01*
X278527Y22463D01*
X277989Y23166D01*
X277286Y23705D01*
X276468Y24044D01*
X275591Y24159D01*
D02*
G37*
G36*
X429476Y18001D02*
Y17030D01*
X429547Y17030D01*
X430500Y17087D01*
X430918Y17141D01*
X431297Y17212D01*
X431510Y17267D01*
X431268Y17453D01*
X430162Y17911D01*
X429476Y18001D01*
D02*
G37*
G36*
X294776Y20268D02*
X288370D01*
X288441Y19732D01*
X288841Y18766D01*
X289477Y17937D01*
X290306Y17301D01*
X291271Y16901D01*
X292307Y16765D01*
X294776D01*
Y20268D01*
D02*
G37*
G36*
X468240Y17906D02*
X466913D01*
Y16614D01*
X466663Y16860D01*
X466182Y17273D01*
X465950Y17441D01*
X465725Y17583D01*
X465507Y17699D01*
X465294Y17789D01*
X465229Y17810D01*
X465273Y17477D01*
X465631Y16611D01*
X466202Y15867D01*
X466945Y15297D01*
X467811Y14938D01*
X468240Y14882D01*
Y17906D01*
D02*
G37*
G36*
X460366D02*
X459039D01*
Y16614D01*
X458789Y16860D01*
X458308Y17273D01*
X458076Y17441D01*
X457851Y17583D01*
X457633Y17699D01*
X457420Y17789D01*
X457355Y17810D01*
X457399Y17477D01*
X457757Y16611D01*
X458328Y15867D01*
X459071Y15297D01*
X459937Y14938D01*
X460366Y14882D01*
Y17906D01*
D02*
G37*
G36*
X452492D02*
X451165D01*
Y16614D01*
X450915Y16860D01*
X450433Y17273D01*
X450202Y17441D01*
X449977Y17583D01*
X449759Y17699D01*
X449546Y17789D01*
X449481Y17810D01*
X449525Y17477D01*
X449883Y16611D01*
X450454Y15867D01*
X451197Y15297D01*
X452063Y14938D01*
X452492Y14882D01*
Y17906D01*
D02*
G37*
G36*
X472264D02*
X471312D01*
X471350Y17397D01*
X471395Y17115D01*
X471454Y16856D01*
X471526Y16619D01*
X471613Y16405D01*
X471644Y16344D01*
X471849Y16611D01*
X472208Y17477D01*
X472264Y17906D01*
D02*
G37*
G36*
X470825D02*
X469240D01*
Y16321D01*
X470825Y17906D01*
D02*
G37*
G36*
X469240Y15832D02*
Y14882D01*
X469669Y14938D01*
X470535Y15297D01*
X470802Y15502D01*
X470741Y15533D01*
X470527Y15620D01*
X470290Y15692D01*
X470031Y15751D01*
X469748Y15795D01*
X469444Y15826D01*
X469240Y15832D01*
D02*
G37*
G36*
X462694Y17906D02*
X461366D01*
Y14882D01*
X461795Y14938D01*
X462661Y15297D01*
X463405Y15867D01*
X463975Y16611D01*
X464334Y17477D01*
X464377Y17810D01*
X464312Y17789D01*
X464100Y17699D01*
X463881Y17583D01*
X463656Y17441D01*
X463425Y17273D01*
X463188Y17079D01*
X462694Y16614D01*
Y17906D01*
D02*
G37*
G36*
X454820D02*
X453492D01*
Y14882D01*
X453921Y14938D01*
X454787Y15297D01*
X455531Y15867D01*
X456101Y16611D01*
X456460Y17477D01*
X456503Y17810D01*
X456438Y17789D01*
X456226Y17699D01*
X456007Y17583D01*
X455782Y17441D01*
X455551Y17273D01*
X455313Y17079D01*
X454820Y16614D01*
Y17906D01*
D02*
G37*
G36*
X439072D02*
X437744D01*
Y14882D01*
X438173Y14938D01*
X439039Y15297D01*
X439782Y15867D01*
X440353Y16611D01*
X440712Y17477D01*
X440756Y17810D01*
X440690Y17789D01*
X440478Y17699D01*
X440259Y17583D01*
X440034Y17441D01*
X439803Y17273D01*
X439566Y17079D01*
X439072Y16614D01*
Y17906D01*
D02*
G37*
G36*
X477508Y18001D02*
Y13984D01*
X481525D01*
X481434Y14670D01*
X480977Y15776D01*
X480248Y16725D01*
X479299Y17453D01*
X478194Y17911D01*
X477508Y18001D01*
D02*
G37*
G36*
X432759Y16017D02*
X432704Y15805D01*
X432633Y15426D01*
X432579Y15008D01*
X432522Y14055D01*
X432522Y13984D01*
X433493D01*
X433403Y14670D01*
X432945Y15776D01*
X432759Y16017D01*
D02*
G37*
G36*
X429476Y16563D02*
Y13984D01*
X432055D01*
X429476Y16563D01*
D02*
G37*
G36*
X428476Y18001D02*
X427790Y17911D01*
X426685Y17453D01*
X425736Y16725D01*
X425008Y15776D01*
X424550Y14670D01*
X424510Y14368D01*
X424700Y14479D01*
X425018Y14697D01*
X425351Y14955D01*
X426065Y15588D01*
X426446Y15965D01*
Y13984D01*
X428476D01*
Y18001D01*
D02*
G37*
G36*
Y12984D02*
X426446D01*
Y11004D01*
X426065Y11380D01*
X425351Y12014D01*
X425018Y12271D01*
X424700Y12489D01*
X424510Y12601D01*
X424550Y12298D01*
X425008Y11193D01*
X425736Y10244D01*
X426685Y9516D01*
X427790Y9058D01*
X428476Y8968D01*
Y12984D01*
D02*
G37*
G36*
X314961Y14316D02*
X314083Y14201D01*
X313265Y13862D01*
X312563Y13323D01*
X312024Y12621D01*
X311685Y11803D01*
X311569Y10925D01*
X311685Y10047D01*
X312024Y9230D01*
X312563Y8527D01*
X313265Y7988D01*
X314083Y7649D01*
X314961Y7534D01*
X315838Y7649D01*
X316656Y7988D01*
X317359Y8527D01*
X317898Y9230D01*
X318236Y10047D01*
X318352Y10925D01*
X318236Y11803D01*
X317898Y12621D01*
X317359Y13323D01*
X316656Y13862D01*
X315838Y14201D01*
X314961Y14316D01*
D02*
G37*
G36*
X275591D02*
X274713Y14201D01*
X273895Y13862D01*
X273193Y13323D01*
X272654Y12621D01*
X272315Y11803D01*
X272199Y10925D01*
X272315Y10047D01*
X272654Y9230D01*
X273193Y8527D01*
X273895Y7988D01*
X274713Y7649D01*
X275591Y7534D01*
X276468Y7649D01*
X277286Y7988D01*
X277989Y8527D01*
X278527Y9230D01*
X278866Y10047D01*
X278982Y10925D01*
X278866Y11803D01*
X278527Y12621D01*
X277989Y13323D01*
X277286Y13862D01*
X276468Y14201D01*
X275591Y14316D01*
D02*
G37*
G36*
X433493Y12984D02*
X429476D01*
Y8968D01*
X430162Y9058D01*
X431268Y9516D01*
X432217Y10244D01*
X432945Y11193D01*
X433163Y11719D01*
X433625Y11685D01*
X433625Y11685D01*
X433625Y11685D01*
D01*
X433685Y11673D01*
X433685Y11673D01*
X433685Y11673D01*
Y5004D01*
X440803D01*
Y12122D01*
X434286D01*
X433819Y12139D01*
Y12139D01*
X433819Y12139D01*
D01*
X433815Y12141D01*
X433432Y12517D01*
X433493Y12984D01*
D02*
G37*
G36*
X452992Y12153D02*
X452063Y12030D01*
X451197Y11672D01*
X450454Y11101D01*
X449883Y10358D01*
X449525Y9492D01*
X449402Y8563D01*
X449525Y7634D01*
X449883Y6768D01*
X450454Y6025D01*
X451197Y5454D01*
X452063Y5096D01*
X452992Y4973D01*
X453921Y5096D01*
X454787Y5454D01*
X455531Y6025D01*
X456101Y6768D01*
X456460Y7634D01*
X456582Y8563D01*
X456460Y9492D01*
X456101Y10358D01*
X455531Y11101D01*
X454787Y11672D01*
X453921Y12030D01*
X452992Y12153D01*
D02*
G37*
%LPD*%
G36*
X330837Y173604D02*
X331017Y173485D01*
X331222Y173381D01*
X331454Y173291D01*
X331711Y173215D01*
X331995Y173154D01*
X332304Y173108D01*
X332639Y173075D01*
X333388Y173054D01*
X330660Y170326D01*
X330656Y170713D01*
X330607Y171410D01*
X330560Y171719D01*
X330499Y172003D01*
X330423Y172260D01*
X330333Y172492D01*
X330229Y172697D01*
X330110Y172877D01*
X329976Y173031D01*
X330683Y173738D01*
X330837Y173604D01*
D02*
G37*
G36*
X348622Y168369D02*
X348346Y168641D01*
X347818Y169098D01*
X347567Y169284D01*
X347323Y169441D01*
X347088Y169570D01*
X346860Y169670D01*
X346641Y169741D01*
X346430Y169784D01*
X346227Y169799D01*
Y170799D01*
X346430Y170813D01*
X346641Y170856D01*
X346860Y170927D01*
X347088Y171027D01*
X347323Y171156D01*
X347567Y171313D01*
X347818Y171499D01*
X348078Y171713D01*
X348622Y172228D01*
Y168369D01*
D02*
G37*
G36*
X335660Y171956D02*
X336188Y171499D01*
X336439Y171313D01*
X336683Y171156D01*
X336918Y171027D01*
X337146Y170927D01*
X337365Y170856D01*
X337576Y170813D01*
X337779Y170799D01*
Y169799D01*
X337576Y169784D01*
X337365Y169741D01*
X337146Y169670D01*
X336918Y169570D01*
X336683Y169441D01*
X336439Y169284D01*
X336188Y169098D01*
X335928Y168884D01*
X335384Y168369D01*
Y172228D01*
X335660Y171956D01*
D02*
G37*
G36*
X296487Y173604D02*
X296666Y173485D01*
X296872Y173381D01*
X297103Y173291D01*
X297361Y173215D01*
X297644Y173154D01*
X297954Y173108D01*
X298289Y173075D01*
X299037Y173054D01*
X296309Y170326D01*
X296306Y170713D01*
X296256Y171410D01*
X296210Y171719D01*
X296148Y172003D01*
X296073Y172260D01*
X295983Y172492D01*
X295878Y172697D01*
X295759Y172877D01*
X295626Y173031D01*
X296333Y173738D01*
X296487Y173604D01*
D02*
G37*
G36*
X316213Y167543D02*
X315825Y167540D01*
X315129Y167490D01*
X314819Y167443D01*
X314536Y167382D01*
X314279Y167306D01*
X314047Y167216D01*
X313841Y167112D01*
X313662Y166993D01*
X313508Y166859D01*
X312801Y167567D01*
X312934Y167720D01*
X313053Y167900D01*
X313158Y168105D01*
X313248Y168337D01*
X313324Y168594D01*
X313385Y168878D01*
X313431Y169187D01*
X313463Y169523D01*
X313484Y170271D01*
X316213Y167543D01*
D02*
G37*
G36*
X471262Y174455D02*
X471414Y171990D01*
X471513Y171326D01*
X471636Y170739D01*
X471784Y170232D01*
X471957Y169802D01*
X472153Y169452D01*
X472374Y169179D01*
X471667Y168472D01*
X471395Y168693D01*
X471044Y168890D01*
X470615Y169062D01*
X470107Y169210D01*
X469521Y169334D01*
X468856Y169433D01*
X467292Y169559D01*
X465414Y169587D01*
X471260Y175433D01*
X471262Y174455D01*
D02*
G37*
G36*
X496684Y160773D02*
X495720Y161735D01*
X493177Y164015D01*
X492445Y164572D01*
X491771Y165028D01*
X491155Y165383D01*
X490598Y165636D01*
X490098Y165788D01*
X489657Y165839D01*
Y166839D01*
X490098Y166889D01*
X490598Y167041D01*
X491155Y167295D01*
X491771Y167649D01*
X492445Y168105D01*
X493177Y168662D01*
X494814Y170080D01*
X496684Y171904D01*
Y160773D01*
D02*
G37*
G36*
X382430Y158378D02*
X382352Y158435D01*
X382260Y158463D01*
X382154D01*
X382034Y158435D01*
X381900Y158378D01*
X381751Y158293D01*
X381589Y158180D01*
X381412Y158039D01*
X381016Y157671D01*
X380309Y158378D01*
X380507Y158583D01*
X380818Y158951D01*
X380931Y159114D01*
X381016Y159262D01*
X381072Y159397D01*
X381101Y159517D01*
Y159623D01*
X381072Y159715D01*
X381016Y159792D01*
X382430Y158378D01*
D02*
G37*
G36*
X242217Y157492D02*
X242451Y157348D01*
X242728Y157222D01*
X243047Y157113D01*
X243409Y157022D01*
X243813Y156949D01*
X244259Y156893D01*
X245279Y156834D01*
X245853Y156831D01*
X242141Y153119D01*
X242138Y153693D01*
X242079Y154713D01*
X242024Y155160D01*
X241950Y155564D01*
X241859Y155925D01*
X241750Y156245D01*
X241624Y156521D01*
X241480Y156755D01*
X241318Y156947D01*
X242025Y157654D01*
X242217Y157492D01*
D02*
G37*
G36*
X205455Y155426D02*
X205690Y155282D01*
X205966Y155155D01*
X206285Y155046D01*
X206647Y154955D01*
X207051Y154882D01*
X207497Y154826D01*
X208518Y154768D01*
X209091Y154765D01*
X205379Y151052D01*
X205376Y151626D01*
X205318Y152647D01*
X205262Y153093D01*
X205188Y153497D01*
X205097Y153859D01*
X204989Y154178D01*
X204862Y154454D01*
X204718Y154689D01*
X204556Y154880D01*
X205264Y155587D01*
X205455Y155426D01*
D02*
G37*
G36*
X248977Y155303D02*
X249740Y154623D01*
X250095Y154347D01*
X250432Y154113D01*
X250752Y153922D01*
X251055Y153773D01*
X251340Y153667D01*
X251607Y153603D01*
X251857Y153582D01*
Y152582D01*
X251607Y152560D01*
X251340Y152497D01*
X251055Y152390D01*
X250752Y152242D01*
X250432Y152050D01*
X250095Y151817D01*
X249740Y151540D01*
X248977Y150860D01*
X248569Y150457D01*
Y155707D01*
X248977Y155303D01*
D02*
G37*
G36*
X261594Y149827D02*
X261186Y150231D01*
X260423Y150910D01*
X260068Y151187D01*
X259730Y151421D01*
X259410Y151612D01*
X259107Y151760D01*
X258822Y151867D01*
X258555Y151930D01*
X258305Y151952D01*
Y152952D01*
X258555Y152973D01*
X258822Y153037D01*
X259107Y153143D01*
X259410Y153292D01*
X259730Y153483D01*
X260068Y153717D01*
X260423Y153993D01*
X261186Y154673D01*
X261594Y155077D01*
Y149827D01*
D02*
G37*
G36*
X231198Y150565D02*
X231170Y150475D01*
X231169Y150372D01*
X231196Y150254D01*
X231250Y150124D01*
X231332Y149979D01*
X231441Y149822D01*
X231578Y149650D01*
X231742Y149465D01*
X231934Y149266D01*
X231227Y148559D01*
X231028Y148751D01*
X230671Y149052D01*
X230514Y149161D01*
X230369Y149243D01*
X230239Y149297D01*
X230121Y149324D01*
X230018Y149323D01*
X229928Y149295D01*
X229852Y149239D01*
X231254Y150641D01*
X231198Y150565D01*
D02*
G37*
G36*
X386912Y151023D02*
X386964Y150262D01*
X387013Y149925D01*
X387076Y149618D01*
X387155Y149340D01*
X387249Y149091D01*
X387357Y148871D01*
X387481Y148681D01*
X387621Y148519D01*
X386914Y147812D01*
X386752Y147951D01*
X386562Y148075D01*
X386342Y148184D01*
X386093Y148278D01*
X385815Y148357D01*
X385508Y148421D01*
X385171Y148469D01*
X384410Y148521D01*
X383986Y148524D01*
X386909Y151447D01*
X386912Y151023D01*
D02*
G37*
G36*
X169593Y147409D02*
X169394Y147203D01*
X169080Y146834D01*
X168966Y146671D01*
X168879Y146522D01*
X168822Y146388D01*
X168792Y146268D01*
X168791Y146163D01*
X168818Y146072D01*
X168874Y145995D01*
X167471Y147397D01*
X167548Y147342D01*
X167639Y147315D01*
X167745Y147316D01*
X167864Y147346D01*
X167999Y147403D01*
X168147Y147489D01*
X168310Y147604D01*
X168488Y147746D01*
X168886Y148117D01*
X169593Y147409D01*
D02*
G37*
G36*
X163016Y143469D02*
X163006Y143564D01*
X162976Y143649D01*
X162925Y143724D01*
X162854Y143789D01*
X162763Y143844D01*
X162652Y143889D01*
X162520Y143924D01*
X162368Y143949D01*
X162196Y143964D01*
X162004Y143969D01*
Y144969D01*
X162196Y144974D01*
X162368Y144989D01*
X162520Y145014D01*
X162652Y145049D01*
X162763Y145094D01*
X162854Y145149D01*
X162925Y145214D01*
X162976Y145289D01*
X163006Y145374D01*
X163016Y145469D01*
Y143469D01*
D02*
G37*
G36*
X145655Y145374D02*
X145686Y145289D01*
X145736Y145214D01*
X145807Y145149D01*
X145898Y145094D01*
X146010Y145049D01*
X146141Y145014D01*
X146293Y144989D01*
X146465Y144974D01*
X146657Y144969D01*
Y143969D01*
X146465Y143964D01*
X146293Y143949D01*
X146141Y143924D01*
X146010Y143889D01*
X145898Y143844D01*
X145807Y143789D01*
X145736Y143724D01*
X145686Y143649D01*
X145655Y143564D01*
X145645Y143469D01*
Y145469D01*
X145655Y145374D01*
D02*
G37*
G36*
X223836Y135741D02*
X224070Y135597D01*
X224347Y135470D01*
X224666Y135362D01*
X225028Y135270D01*
X225432Y135197D01*
X225878Y135141D01*
X226898Y135082D01*
X227472Y135080D01*
X223760Y131367D01*
X223757Y131941D01*
X223698Y132961D01*
X223643Y133408D01*
X223569Y133812D01*
X223478Y134174D01*
X223369Y134493D01*
X223243Y134769D01*
X223099Y135003D01*
X222937Y135195D01*
X223644Y135902D01*
X223836Y135741D01*
D02*
G37*
G36*
X313662Y133604D02*
X313841Y133485D01*
X314047Y133381D01*
X314279Y133291D01*
X314536Y133215D01*
X314819Y133154D01*
X315129Y133107D01*
X315464Y133075D01*
X316213Y133054D01*
X313484Y130326D01*
X313481Y130713D01*
X313431Y131410D01*
X313385Y131719D01*
X313324Y132003D01*
X313248Y132260D01*
X313158Y132492D01*
X313053Y132697D01*
X312934Y132877D01*
X312801Y133031D01*
X313508Y133738D01*
X313662Y133604D01*
D02*
G37*
G36*
X495869Y131790D02*
X495919Y131093D01*
X495966Y130784D01*
X496027Y130501D01*
X496102Y130243D01*
X496192Y130012D01*
X496297Y129806D01*
X496416Y129626D01*
X496549Y129473D01*
X495842Y128766D01*
X495689Y128899D01*
X495509Y129018D01*
X495303Y129123D01*
X495072Y129213D01*
X494814Y129288D01*
X494531Y129349D01*
X494222Y129396D01*
X493886Y129428D01*
X493138Y129449D01*
X495866Y132177D01*
X495869Y131790D01*
D02*
G37*
G36*
X318999Y129884D02*
X319049Y129187D01*
X319096Y128878D01*
X319157Y128594D01*
X319232Y128337D01*
X319322Y128105D01*
X319427Y127900D01*
X319546Y127720D01*
X319679Y127567D01*
X318972Y126859D01*
X318819Y126993D01*
X318639Y127112D01*
X318433Y127216D01*
X318202Y127306D01*
X317944Y127382D01*
X317661Y127443D01*
X317352Y127490D01*
X317016Y127522D01*
X316268Y127543D01*
X318996Y130271D01*
X318999Y129884D01*
D02*
G37*
G36*
X281862Y127543D02*
X281475Y127540D01*
X280778Y127490D01*
X280469Y127443D01*
X280186Y127382D01*
X279928Y127306D01*
X279697Y127216D01*
X279491Y127112D01*
X279311Y126993D01*
X279158Y126859D01*
X278451Y127567D01*
X278584Y127720D01*
X278703Y127900D01*
X278808Y128105D01*
X278898Y128337D01*
X278973Y128594D01*
X279034Y128878D01*
X279081Y129187D01*
X279113Y129523D01*
X279134Y130271D01*
X281862Y127543D01*
D02*
G37*
G36*
X381028Y120320D02*
X381018Y120415D01*
X380987Y120500D01*
X380937Y120575D01*
X380866Y120640D01*
X380775Y120695D01*
X380663Y120740D01*
X380532Y120775D01*
X380380Y120800D01*
X380208Y120815D01*
X380016Y120820D01*
Y121820D01*
X380208Y121825D01*
X380380Y121840D01*
X380532Y121865D01*
X380663Y121900D01*
X380775Y121945D01*
X380866Y122000D01*
X380937Y122065D01*
X380987Y122140D01*
X381018Y122225D01*
X381028Y122320D01*
Y120320D01*
D02*
G37*
G36*
X187424Y115640D02*
X187407Y115472D01*
X187408Y115308D01*
X187428Y115147D01*
X187466Y114990D01*
X187522Y114836D01*
X187596Y114685D01*
X187689Y114538D01*
X187800Y114394D01*
X187930Y114253D01*
X187223Y113547D01*
X187082Y113676D01*
X186939Y113787D01*
X186791Y113880D01*
X186641Y113954D01*
X186487Y114011D01*
X186329Y114049D01*
X186168Y114068D01*
X186004Y114069D01*
X185836Y114052D01*
X185665Y114016D01*
X187460Y115811D01*
X187424Y115640D01*
D02*
G37*
G36*
X383927Y108525D02*
X383503Y108522D01*
X382742Y108470D01*
X382405Y108422D01*
X382098Y108358D01*
X381820Y108279D01*
X381571Y108185D01*
X381351Y108077D01*
X381161Y107952D01*
X381000Y107813D01*
X380293Y108520D01*
X380432Y108682D01*
X380556Y108872D01*
X380665Y109092D01*
X380758Y109341D01*
X380837Y109619D01*
X380901Y109926D01*
X380949Y110263D01*
X381001Y111024D01*
X381004Y111448D01*
X383927Y108525D01*
D02*
G37*
G36*
X319679Y109428D02*
X319546Y109275D01*
X319427Y109095D01*
X319322Y108889D01*
X319232Y108658D01*
X319157Y108400D01*
X319096Y108117D01*
X319049Y107808D01*
X319017Y107472D01*
X318996Y106724D01*
X316268Y109452D01*
X316655Y109455D01*
X317352Y109505D01*
X317661Y109552D01*
X317944Y109613D01*
X318202Y109688D01*
X318433Y109778D01*
X318639Y109883D01*
X318819Y110002D01*
X318972Y110135D01*
X319679Y109428D01*
D02*
G37*
G36*
X313662Y110002D02*
X313841Y109883D01*
X314047Y109778D01*
X314279Y109688D01*
X314536Y109613D01*
X314819Y109552D01*
X315129Y109505D01*
X315464Y109473D01*
X316213Y109452D01*
X313484Y106724D01*
X313481Y107111D01*
X313431Y107808D01*
X313385Y108117D01*
X313324Y108400D01*
X313248Y108658D01*
X313158Y108889D01*
X313053Y109095D01*
X312934Y109275D01*
X312801Y109428D01*
X313508Y110135D01*
X313662Y110002D01*
D02*
G37*
G36*
X160816Y114270D02*
X162666Y112635D01*
X163207Y112235D01*
X163708Y111908D01*
X164172Y111654D01*
X164597Y111472D01*
X164984Y111363D01*
X165333Y111327D01*
Y110327D01*
X164984Y110291D01*
X164597Y110181D01*
X164172Y110000D01*
X163708Y109745D01*
X163207Y109418D01*
X162666Y109019D01*
X161471Y108001D01*
X160123Y106693D01*
Y114961D01*
X160816Y114270D01*
D02*
G37*
G36*
X348622Y104767D02*
X348346Y105039D01*
X347818Y105496D01*
X347567Y105682D01*
X347323Y105839D01*
X347088Y105967D01*
X346860Y106068D01*
X346641Y106139D01*
X346430Y106182D01*
X346227Y106196D01*
Y107196D01*
X346430Y107211D01*
X346641Y107253D01*
X346860Y107325D01*
X347088Y107425D01*
X347323Y107554D01*
X347567Y107711D01*
X347818Y107896D01*
X348078Y108111D01*
X348622Y108625D01*
Y104767D01*
D02*
G37*
G36*
X335660Y108354D02*
X336188Y107896D01*
X336439Y107711D01*
X336683Y107554D01*
X336918Y107425D01*
X337146Y107325D01*
X337365Y107253D01*
X337576Y107211D01*
X337779Y107196D01*
Y106196D01*
X337576Y106182D01*
X337365Y106139D01*
X337146Y106068D01*
X336918Y105967D01*
X336683Y105839D01*
X336439Y105682D01*
X336188Y105496D01*
X335928Y105281D01*
X335384Y104767D01*
Y108625D01*
X335660Y108354D01*
D02*
G37*
G36*
X279922Y104767D02*
X279646Y105039D01*
X279118Y105496D01*
X278866Y105682D01*
X278622Y105839D01*
X278387Y105967D01*
X278159Y106068D01*
X277940Y106139D01*
X277729Y106182D01*
X277526Y106196D01*
Y107196D01*
X277729Y107211D01*
X277940Y107253D01*
X278159Y107325D01*
X278387Y107425D01*
X278622Y107554D01*
X278866Y107711D01*
X279118Y107896D01*
X279378Y108111D01*
X279922Y108625D01*
Y104767D01*
D02*
G37*
G36*
X442290Y102390D02*
X442091Y102183D01*
X441777Y101814D01*
X441663Y101651D01*
X441577Y101503D01*
X441519Y101368D01*
X441489Y101249D01*
X441488Y101143D01*
X441515Y101052D01*
X441571Y100975D01*
X440168Y102377D01*
X440245Y102322D01*
X440336Y102295D01*
X440442Y102296D01*
X440561Y102326D01*
X440696Y102384D01*
X440844Y102470D01*
X441007Y102584D01*
X441185Y102727D01*
X441582Y103097D01*
X442290Y102390D01*
D02*
G37*
G36*
X181380Y102866D02*
X181749Y102552D01*
X181912Y102438D01*
X182060Y102352D01*
X182195Y102294D01*
X182314Y102265D01*
X182420Y102264D01*
X182511Y102291D01*
X182588Y102346D01*
X181185Y100944D01*
X181241Y101021D01*
X181268Y101112D01*
X181267Y101217D01*
X181237Y101337D01*
X181179Y101471D01*
X181093Y101620D01*
X180979Y101783D01*
X180836Y101960D01*
X180466Y102358D01*
X181174Y103065D01*
X181380Y102866D01*
D02*
G37*
G36*
X187053Y100322D02*
X187083Y100237D01*
X187134Y100162D01*
X187205Y100097D01*
X187296Y100042D01*
X187407Y99997D01*
X187539Y99962D01*
X187691Y99937D01*
X187863Y99922D01*
X188055Y99917D01*
Y98917D01*
X187863Y98912D01*
X187691Y98897D01*
X187539Y98872D01*
X187407Y98837D01*
X187296Y98792D01*
X187205Y98737D01*
X187134Y98672D01*
X187083Y98597D01*
X187053Y98512D01*
X187043Y98417D01*
Y100417D01*
X187053Y100322D01*
D02*
G37*
G36*
X216525Y101187D02*
X217099Y100685D01*
X217372Y100481D01*
X217634Y100309D01*
X217886Y100168D01*
X218129Y100058D01*
X218361Y99980D01*
X218583Y99933D01*
X218796Y99917D01*
Y98917D01*
X218583Y98902D01*
X218361Y98855D01*
X218129Y98776D01*
X217886Y98667D01*
X217634Y98526D01*
X217372Y98353D01*
X217099Y98150D01*
X216525Y97648D01*
X216223Y97351D01*
Y101484D01*
X216525Y101187D01*
D02*
G37*
G36*
X468612Y96496D02*
X468188Y96493D01*
X467427Y96441D01*
X467091Y96393D01*
X466783Y96329D01*
X466505Y96251D01*
X466256Y96157D01*
X466037Y96048D01*
X465846Y95924D01*
X465685Y95785D01*
X464978Y96492D01*
X465117Y96653D01*
X465241Y96844D01*
X465350Y97063D01*
X465444Y97312D01*
X465522Y97590D01*
X465586Y97898D01*
X465634Y98234D01*
X465686Y98995D01*
X465689Y99419D01*
X468612Y96496D01*
D02*
G37*
G36*
X509036Y96101D02*
X509215Y95982D01*
X509421Y95877D01*
X509653Y95787D01*
X509910Y95712D01*
X510193Y95651D01*
X510503Y95604D01*
X510838Y95572D01*
X511587Y95551D01*
X508858Y92823D01*
X508855Y93210D01*
X508805Y93907D01*
X508759Y94216D01*
X508698Y94499D01*
X508622Y94757D01*
X508532Y94988D01*
X508427Y95194D01*
X508309Y95374D01*
X508175Y95527D01*
X508882Y96234D01*
X509036Y96101D01*
D02*
G37*
G36*
X513858Y94453D02*
X514386Y93995D01*
X514638Y93810D01*
X514882Y93652D01*
X515117Y93524D01*
X515344Y93424D01*
X515564Y93352D01*
X515775Y93309D01*
X515978Y93295D01*
Y92295D01*
X515775Y92281D01*
X515564Y92238D01*
X515344Y92167D01*
X515117Y92067D01*
X514882Y91938D01*
X514638Y91781D01*
X514386Y91595D01*
X514126Y91381D01*
X513582Y90866D01*
Y94724D01*
X513858Y94453D01*
D02*
G37*
G36*
X211318Y92942D02*
X211509Y92818D01*
X211729Y92709D01*
X211978Y92616D01*
X212256Y92537D01*
X212563Y92473D01*
X212900Y92425D01*
X213661Y92373D01*
X214085Y92370D01*
X211162Y89447D01*
X211158Y89871D01*
X211107Y90632D01*
X211058Y90968D01*
X210995Y91276D01*
X210916Y91554D01*
X210822Y91803D01*
X210713Y92023D01*
X210589Y92213D01*
X210450Y92374D01*
X211157Y93081D01*
X211318Y92942D01*
D02*
G37*
G36*
X187778Y92374D02*
X187639Y92213D01*
X187515Y92023D01*
X187406Y91803D01*
X187312Y91554D01*
X187234Y91276D01*
X187170Y90968D01*
X187122Y90632D01*
X187070Y89871D01*
X187067Y89447D01*
X184144Y92370D01*
X184568Y92373D01*
X185329Y92425D01*
X185665Y92473D01*
X185973Y92537D01*
X186251Y92616D01*
X186500Y92709D01*
X186719Y92818D01*
X186910Y92942D01*
X187071Y93081D01*
X187778Y92374D01*
D02*
G37*
G36*
X268026Y89680D02*
X268056Y89595D01*
X268107Y89520D01*
X268178Y89455D01*
X268269Y89400D01*
X268380Y89355D01*
X268512Y89320D01*
X268663Y89295D01*
X268835Y89280D01*
X269028Y89275D01*
Y88275D01*
X268835Y88270D01*
X268663Y88255D01*
X268512Y88230D01*
X268380Y88195D01*
X268269Y88150D01*
X268178Y88095D01*
X268107Y88030D01*
X268056Y87955D01*
X268026Y87870D01*
X268016Y87775D01*
Y89775D01*
X268026Y89680D01*
D02*
G37*
G36*
X22033Y86811D02*
X22064Y86726D01*
X22114Y86651D01*
X22185Y86586D01*
X22276Y86531D01*
X22388Y86486D01*
X22519Y86451D01*
X22671Y86426D01*
X22843Y86411D01*
X23035Y86406D01*
Y85406D01*
X22843Y85401D01*
X22671Y85386D01*
X22519Y85361D01*
X22388Y85326D01*
X22276Y85281D01*
X22185Y85226D01*
X22114Y85161D01*
X22064Y85086D01*
X22033Y85001D01*
X22023Y84906D01*
Y86906D01*
X22033Y86811D01*
D02*
G37*
G36*
X381616Y84769D02*
X381985Y84456D01*
X382148Y84342D01*
X382296Y84256D01*
X382431Y84198D01*
X382551Y84168D01*
X382656Y84167D01*
X382747Y84194D01*
X382824Y84250D01*
X381422Y82847D01*
X381477Y82924D01*
X381504Y83015D01*
X381503Y83121D01*
X381473Y83240D01*
X381416Y83375D01*
X381330Y83523D01*
X381215Y83686D01*
X381073Y83864D01*
X380702Y84262D01*
X381410Y84969D01*
X381616Y84769D01*
D02*
G37*
G36*
X59930Y89349D02*
X61780Y87714D01*
X62321Y87314D01*
X62822Y86987D01*
X63286Y86733D01*
X63711Y86551D01*
X64098Y86442D01*
X64447Y86406D01*
Y85406D01*
X64098Y85369D01*
X63711Y85260D01*
X63286Y85079D01*
X62822Y84824D01*
X62321Y84497D01*
X61780Y84097D01*
X60585Y83080D01*
X59237Y81772D01*
Y90039D01*
X59930Y89349D01*
D02*
G37*
G36*
X50802Y81772D02*
X50109Y82462D01*
X48259Y84097D01*
X47719Y84497D01*
X47217Y84824D01*
X46753Y85079D01*
X46328Y85260D01*
X45941Y85369D01*
X45592Y85406D01*
Y86406D01*
X45941Y86442D01*
X46328Y86551D01*
X46753Y86733D01*
X47217Y86987D01*
X47719Y87314D01*
X48259Y87714D01*
X49454Y88731D01*
X50802Y90039D01*
Y81772D01*
D02*
G37*
G36*
X136697Y74598D02*
X136684Y74691D01*
X136648Y74775D01*
X136587Y74849D01*
X136502Y74913D01*
X136392Y74967D01*
X136258Y75012D01*
X136100Y75046D01*
X135917Y75071D01*
X135710Y75086D01*
X135478Y75091D01*
Y76091D01*
X135710Y76095D01*
X136100Y76135D01*
X136258Y76169D01*
X136392Y76214D01*
X136502Y76268D01*
X136587Y76332D01*
X136648Y76406D01*
X136684Y76490D01*
X136697Y76583D01*
Y74598D01*
D02*
G37*
G36*
X121058Y74583D02*
X120867Y74385D01*
X120569Y74030D01*
X120461Y73873D01*
X120380Y73729D01*
X120327Y73598D01*
X120301Y73480D01*
X120303Y73376D01*
X120333Y73286D01*
X120390Y73208D01*
X118976Y74622D01*
X119053Y74565D01*
X119144Y74536D01*
X119248Y74534D01*
X119365Y74559D01*
X119496Y74612D01*
X119640Y74693D01*
X119798Y74801D01*
X119969Y74937D01*
X120153Y75100D01*
X120351Y75290D01*
X121058Y74583D01*
D02*
G37*
G36*
X85787Y74883D02*
X85977Y74759D01*
X86197Y74650D01*
X86446Y74556D01*
X86724Y74478D01*
X87032Y74414D01*
X87368Y74366D01*
X88129Y74314D01*
X88553Y74311D01*
X85630Y71388D01*
X85627Y71812D01*
X85575Y72573D01*
X85527Y72909D01*
X85463Y73217D01*
X85384Y73495D01*
X85291Y73744D01*
X85182Y73963D01*
X85058Y74154D01*
X84918Y74315D01*
X85626Y75022D01*
X85787Y74883D01*
D02*
G37*
G36*
X112890Y69866D02*
X112880Y69961D01*
X112849Y70046D01*
X112799Y70121D01*
X112728Y70186D01*
X112637Y70241D01*
X112525Y70286D01*
X112394Y70321D01*
X112242Y70346D01*
X112070Y70361D01*
X111878Y70366D01*
Y71366D01*
X112070Y71371D01*
X112242Y71386D01*
X112394Y71411D01*
X112525Y71446D01*
X112637Y71491D01*
X112728Y71546D01*
X112799Y71611D01*
X112849Y71686D01*
X112880Y71771D01*
X112890Y71866D01*
Y69866D01*
D02*
G37*
G36*
X144024Y71490D02*
X144061Y71406D01*
X144122Y71332D01*
X144207Y71268D01*
X144317Y71214D01*
X144451Y71169D01*
X144609Y71135D01*
X144792Y71110D01*
X144999Y71096D01*
X145230Y71091D01*
Y70091D01*
X144999Y70086D01*
X144609Y70046D01*
X144451Y70012D01*
X144317Y69967D01*
X144207Y69913D01*
X144122Y69849D01*
X144061Y69775D01*
X144024Y69691D01*
X144012Y69598D01*
Y71583D01*
X144024Y71490D01*
D02*
G37*
G36*
X435846Y72974D02*
X436037Y72850D01*
X436256Y72741D01*
X436505Y72647D01*
X436783Y72568D01*
X437091Y72505D01*
X437427Y72456D01*
X438188Y72405D01*
X438612Y72401D01*
X435689Y69478D01*
X435686Y69902D01*
X435634Y70663D01*
X435586Y71000D01*
X435522Y71307D01*
X435444Y71585D01*
X435350Y71834D01*
X435241Y72054D01*
X435117Y72245D01*
X434978Y72406D01*
X435685Y73113D01*
X435846Y72974D01*
D02*
G37*
G36*
X187778Y72374D02*
X187639Y72213D01*
X187515Y72023D01*
X187406Y71803D01*
X187312Y71554D01*
X187234Y71276D01*
X187170Y70968D01*
X187122Y70632D01*
X187070Y69871D01*
X187067Y69447D01*
X184144Y72370D01*
X184568Y72373D01*
X185329Y72425D01*
X185665Y72473D01*
X185973Y72537D01*
X186251Y72616D01*
X186500Y72709D01*
X186719Y72818D01*
X186910Y72942D01*
X187071Y73081D01*
X187778Y72374D01*
D02*
G37*
G36*
X90993Y73127D02*
X91568Y72626D01*
X91840Y72422D01*
X92102Y72250D01*
X92355Y72109D01*
X92597Y71999D01*
X92830Y71921D01*
X93052Y71874D01*
X93264Y71858D01*
Y70858D01*
X93052Y70842D01*
X92830Y70796D01*
X92597Y70717D01*
X92355Y70608D01*
X92102Y70467D01*
X91840Y70294D01*
X91568Y70090D01*
X90993Y69589D01*
X90691Y69291D01*
Y73425D01*
X90993Y73127D01*
D02*
G37*
G36*
X294953Y68645D02*
X294996Y68581D01*
X295051Y68472D01*
X295107Y68329D01*
X295160Y68149D01*
X295206Y67933D01*
X295242Y67695D01*
X295287Y67070D01*
X295289Y66790D01*
X295277Y66696D01*
X295406Y65716D01*
X295784Y64802D01*
X296070Y64429D01*
X295824Y63929D01*
X285131D01*
X284885Y64429D01*
X285171Y64802D01*
X285549Y65716D01*
X285678Y66696D01*
X285549Y67677D01*
X285171Y68590D01*
X284569Y69375D01*
X283784Y69977D01*
X282870Y70355D01*
X281890Y70485D01*
X280909Y70355D01*
X279996Y69977D01*
X279211Y69375D01*
X278609Y68590D01*
X278231Y67677D01*
X278101Y66696D01*
X278231Y65716D01*
X278609Y64802D01*
X278895Y64429D01*
X278648Y63929D01*
X266293D01*
X266194Y64429D01*
X266667Y64626D01*
X267659Y65387D01*
X268421Y66379D01*
X268899Y67535D01*
X268997Y68275D01*
X264272D01*
X259546D01*
X259644Y67535D01*
X260122Y66379D01*
X260884Y65387D01*
X261876Y64626D01*
X262350Y64429D01*
X262250Y63929D01*
X250700D01*
X250465Y64370D01*
X250528Y64466D01*
X250679Y65222D01*
Y70847D01*
X250528Y71603D01*
X250266Y71995D01*
X250534Y72495D01*
X260537D01*
X260756Y71995D01*
X260122Y71170D01*
X259644Y70015D01*
X259546Y69275D01*
X264272D01*
X268997D01*
X268899Y70015D01*
X268421Y71170D01*
X267788Y71995D01*
X268007Y72495D01*
X291103D01*
X294953Y68645D01*
D02*
G37*
G36*
X168356Y72635D02*
X168930Y72134D01*
X169203Y71930D01*
X169465Y71758D01*
X169717Y71617D01*
X169960Y71507D01*
X170192Y71429D01*
X170414Y71382D01*
X170627Y71366D01*
Y70366D01*
X170414Y70350D01*
X170192Y70303D01*
X169960Y70225D01*
X169717Y70116D01*
X169465Y69974D01*
X169203Y69802D01*
X168930Y69598D01*
X168356Y69097D01*
X168054Y68799D01*
Y72933D01*
X168356Y72635D01*
D02*
G37*
G36*
X163836Y68799D02*
X163534Y69097D01*
X162960Y69598D01*
X162687Y69802D01*
X162425Y69974D01*
X162173Y70116D01*
X161930Y70225D01*
X161698Y70303D01*
X161476Y70350D01*
X161263Y70366D01*
Y71366D01*
X161476Y71382D01*
X161698Y71429D01*
X161930Y71507D01*
X162173Y71617D01*
X162425Y71758D01*
X162687Y71930D01*
X162960Y72134D01*
X163534Y72635D01*
X163836Y72933D01*
Y68799D01*
D02*
G37*
G36*
X182006Y67351D02*
X181703Y67648D01*
X181129Y68150D01*
X180857Y68353D01*
X180594Y68526D01*
X180342Y68667D01*
X180100Y68776D01*
X179867Y68855D01*
X179645Y68902D01*
X179432Y68917D01*
Y69917D01*
X179645Y69933D01*
X179867Y69980D01*
X180100Y70058D01*
X180342Y70168D01*
X180594Y70309D01*
X180857Y70481D01*
X181129Y70685D01*
X181703Y71187D01*
X182006Y71484D01*
Y67351D01*
D02*
G37*
G36*
X296487Y70002D02*
X296666Y69883D01*
X296872Y69778D01*
X297103Y69688D01*
X297361Y69613D01*
X297644Y69552D01*
X297954Y69505D01*
X298289Y69473D01*
X299037Y69452D01*
X296309Y66724D01*
X296306Y67111D01*
X296256Y67808D01*
X296210Y68117D01*
X296148Y68400D01*
X296073Y68658D01*
X295983Y68889D01*
X295878Y69095D01*
X295759Y69275D01*
X295626Y69428D01*
X296333Y70135D01*
X296487Y70002D01*
D02*
G37*
G36*
X217070Y68964D02*
X217122Y68203D01*
X217170Y67866D01*
X217234Y67559D01*
X217312Y67281D01*
X217406Y67032D01*
X217515Y66812D01*
X217639Y66622D01*
X217778Y66460D01*
X217071Y65753D01*
X216910Y65892D01*
X216719Y66017D01*
X216500Y66125D01*
X216251Y66219D01*
X215973Y66298D01*
X215665Y66361D01*
X215329Y66410D01*
X214568Y66462D01*
X214144Y66465D01*
X217067Y69388D01*
X217070Y68964D01*
D02*
G37*
G36*
X231262Y67325D02*
X231321Y66304D01*
X231377Y65858D01*
X231450Y65454D01*
X231541Y65092D01*
X231650Y64773D01*
X231777Y64496D01*
X231921Y64262D01*
X232082Y64071D01*
X231375Y63363D01*
X231184Y63525D01*
X230949Y63669D01*
X230673Y63796D01*
X230354Y63904D01*
X229992Y63995D01*
X229588Y64069D01*
X229141Y64125D01*
X228121Y64183D01*
X227547Y64186D01*
X231260Y67898D01*
X231262Y67325D01*
D02*
G37*
G36*
X336174Y66281D02*
X336224Y65585D01*
X336271Y65275D01*
X336332Y64992D01*
X336408Y64735D01*
X336498Y64503D01*
X336602Y64297D01*
X336721Y64118D01*
X336855Y63964D01*
X336147Y63257D01*
X335994Y63390D01*
X335814Y63510D01*
X335609Y63614D01*
X335377Y63704D01*
X335120Y63780D01*
X334836Y63841D01*
X334527Y63887D01*
X334191Y63920D01*
X333443Y63940D01*
X336171Y66669D01*
X336174Y66281D01*
D02*
G37*
G36*
X333388Y63940D02*
X333001Y63937D01*
X332304Y63887D01*
X331995Y63841D01*
X331711Y63780D01*
X331454Y63704D01*
X331222Y63614D01*
X331017Y63510D01*
X330837Y63390D01*
X330683Y63257D01*
X329976Y63964D01*
X330110Y64118D01*
X330229Y64297D01*
X330333Y64503D01*
X330423Y64735D01*
X330499Y64992D01*
X330560Y65275D01*
X330607Y65585D01*
X330639Y65920D01*
X330660Y66669D01*
X333388Y63940D01*
D02*
G37*
G36*
X316213D02*
X315825Y63937D01*
X315129Y63887D01*
X314819Y63841D01*
X314536Y63780D01*
X314279Y63704D01*
X314047Y63614D01*
X313841Y63510D01*
X313662Y63390D01*
X313508Y63257D01*
X312801Y63964D01*
X312934Y64118D01*
X313053Y64297D01*
X313158Y64503D01*
X313248Y64735D01*
X313324Y64992D01*
X313385Y65275D01*
X313431Y65585D01*
X313463Y65920D01*
X313484Y66669D01*
X316213Y63940D01*
D02*
G37*
G36*
X413031Y63512D02*
X412053Y63510D01*
X409589Y63358D01*
X408924Y63259D01*
X408338Y63135D01*
X407830Y62987D01*
X407401Y62815D01*
X407050Y62618D01*
X406778Y62397D01*
X406071Y63105D01*
X406292Y63377D01*
X406488Y63728D01*
X406661Y64157D01*
X406809Y64665D01*
X406932Y65251D01*
X407031Y65915D01*
X407157Y67480D01*
X407185Y69358D01*
X413031Y63512D01*
D02*
G37*
G36*
X276094Y47003D02*
X276116Y46702D01*
X276137Y46580D01*
X276163Y46477D01*
X276194Y46392D01*
X276232Y46326D01*
X276275Y46279D01*
X276324Y46251D01*
X276378Y46242D01*
X274803D01*
X274858Y46251D01*
X274907Y46279D01*
X274950Y46326D01*
X274987Y46392D01*
X275019Y46477D01*
X275045Y46580D01*
X275065Y46702D01*
X275079Y46843D01*
X275091Y47181D01*
X276091D01*
X276094Y47003D01*
D02*
G37*
G36*
X302403Y36318D02*
X302383Y36434D01*
X302348Y36520D01*
X302297Y36576D01*
X302232Y36603D01*
X302151Y36601D01*
X302055Y36569D01*
X301944Y36507D01*
X301817Y36417D01*
X301676Y36296D01*
X301519Y36146D01*
X301440Y37482D01*
X301588Y37636D01*
X301832Y37936D01*
X301929Y38082D01*
X302010Y38225D01*
X302073Y38365D01*
X302120Y38502D01*
X302150Y38636D01*
X302163Y38768D01*
X302159Y38896D01*
X302403Y36318D01*
D02*
G37*
G36*
X288388Y38768D02*
X288401Y38636D01*
X288431Y38502D01*
X288478Y38365D01*
X288542Y38225D01*
X288622Y38082D01*
X288719Y37936D01*
X288833Y37788D01*
X288964Y37636D01*
X289111Y37482D01*
X289032Y36146D01*
X288875Y36296D01*
X288734Y36417D01*
X288607Y36507D01*
X288496Y36569D01*
X288400Y36601D01*
X288319Y36603D01*
X288254Y36576D01*
X288204Y36520D01*
X288168Y36434D01*
X288148Y36318D01*
X288392Y38896D01*
X288388Y38768D01*
D02*
G37*
G36*
X365914Y28131D02*
X366153Y27985D01*
X366436Y27857D01*
X366763Y27746D01*
X367133Y27654D01*
X367548Y27579D01*
X368007Y27523D01*
X369056Y27463D01*
X369647Y27460D01*
X365847Y23660D01*
X365844Y24251D01*
X365728Y25759D01*
X365653Y26173D01*
X365561Y26544D01*
X365450Y26871D01*
X365322Y27154D01*
X365176Y27393D01*
X365012Y27588D01*
X365719Y28295D01*
X365914Y28131D01*
D02*
G37*
G36*
X137350Y27588D02*
X137186Y27393D01*
X137040Y27154D01*
X136912Y26871D01*
X136802Y26544D01*
X136709Y26173D01*
X136635Y25759D01*
X136578Y25300D01*
X136518Y24251D01*
X136516Y23660D01*
X132716Y27460D01*
X133306Y27463D01*
X134814Y27579D01*
X135229Y27654D01*
X135600Y27746D01*
X135926Y27857D01*
X136209Y27985D01*
X136448Y28131D01*
X136643Y28295D01*
X137350Y27588D01*
D02*
G37*
G36*
X205611Y135562D02*
X205967Y135261D01*
X206125Y135152D01*
X206270Y135070D01*
X206400Y135016D01*
X206517Y134989D01*
X206621Y134990D01*
X206711Y135018D01*
X206787Y135074D01*
X205385Y133672D01*
X205441Y133748D01*
X205469Y133838D01*
X205470Y133941D01*
X205443Y134058D01*
X205389Y134189D01*
X205307Y134334D01*
X205198Y134491D01*
X205061Y134663D01*
X204897Y134848D01*
X204705Y135047D01*
X205412Y135754D01*
X205611Y135562D01*
D02*
G37*
G36*
X231264Y90495D02*
X231294Y90410D01*
X231345Y90335D01*
X231416Y90270D01*
X231507Y90215D01*
X231618Y90170D01*
X231750Y90135D01*
X231902Y90110D01*
X232074Y90095D01*
X232266Y90090D01*
Y89090D01*
X232074Y89085D01*
X231902Y89070D01*
X231750Y89045D01*
X231618Y89010D01*
X231507Y88965D01*
X231416Y88910D01*
X231345Y88845D01*
X231294Y88770D01*
X231264Y88685D01*
X231254Y88590D01*
Y90590D01*
X231264Y90495D01*
D02*
G37*
G36*
X243213Y87063D02*
X242805Y87467D01*
X242042Y88147D01*
X241687Y88423D01*
X241349Y88657D01*
X241029Y88848D01*
X240727Y88997D01*
X240442Y89103D01*
X240174Y89167D01*
X239924Y89188D01*
Y90188D01*
X240174Y90209D01*
X240442Y90273D01*
X240727Y90379D01*
X241029Y90528D01*
X241349Y90719D01*
X241687Y90953D01*
X242042Y91229D01*
X242805Y91909D01*
X243213Y92313D01*
Y87063D01*
D02*
G37*
G36*
X92230Y88078D02*
X92031Y87872D01*
X91718Y87503D01*
X91603Y87340D01*
X91517Y87192D01*
X91460Y87057D01*
X91430Y86938D01*
X91429Y86832D01*
X91456Y86741D01*
X91511Y86664D01*
X90109Y88067D01*
X90186Y88011D01*
X90277Y87984D01*
X90382Y87985D01*
X90502Y88015D01*
X90636Y88073D01*
X90785Y88159D01*
X90948Y88273D01*
X91126Y88416D01*
X91523Y88786D01*
X92230Y88078D01*
D02*
G37*
G36*
X42621Y48365D02*
X42673Y47605D01*
X42721Y47268D01*
X42785Y46961D01*
X42864Y46683D01*
X42957Y46433D01*
X43066Y46214D01*
X43190Y46023D01*
X43330Y45862D01*
X42622Y45155D01*
X42461Y45294D01*
X42271Y45418D01*
X42051Y45527D01*
X41802Y45621D01*
X41524Y45700D01*
X41216Y45763D01*
X40880Y45812D01*
X40119Y45863D01*
X39695Y45866D01*
X42618Y48790D01*
X42621Y48365D01*
D02*
G37*
G36*
X74229Y22130D02*
X74219Y22225D01*
X74188Y22310D01*
X74138Y22385D01*
X74067Y22450D01*
X73976Y22505D01*
X73865Y22550D01*
X73733Y22585D01*
X73581Y22610D01*
X73409Y22625D01*
X73217Y22630D01*
Y23630D01*
X73409Y23635D01*
X73581Y23650D01*
X73733Y23675D01*
X73865Y23710D01*
X73976Y23755D01*
X74067Y23810D01*
X74138Y23875D01*
X74188Y23950D01*
X74219Y24035D01*
X74229Y24130D01*
Y22130D01*
D02*
G37*
D10*
X536811Y157283D02*
Y190748D01*
Y196654D01*
X533465D02*
X536811D01*
X500787D02*
X533465D01*
X497441D02*
X500787D01*
X497441Y190748D02*
Y196654D01*
Y157283D02*
Y190748D01*
Y157283D02*
X536811D01*
X533465Y196654D02*
Y234055D01*
X500787D02*
X533465D01*
X500787Y196654D02*
Y234055D01*
X497441Y190748D02*
X536811D01*
Y157283D02*
Y190748D01*
Y196654D01*
X533465D02*
X536811D01*
X500787D02*
X533465D01*
X497441D02*
X500787D01*
X497441Y190748D02*
Y196654D01*
Y157283D02*
Y190748D01*
Y157283D02*
X536811D01*
X533465Y196654D02*
Y234055D01*
X500787D02*
X533465D01*
X500787Y196654D02*
Y234055D01*
X497441Y190748D02*
X536811D01*
X312992Y6988D02*
X318898D01*
X312992Y3051D02*
Y6988D01*
X303150Y3051D02*
X312992D01*
X303150D02*
Y7776D01*
X287402D02*
X303150D01*
X287402Y3051D02*
Y7776D01*
X277559Y3051D02*
X287402D01*
X277559D02*
Y6988D01*
X271654D02*
X277559D01*
X318898D02*
Y50295D01*
X271654D02*
X318898D01*
X271654Y6988D02*
Y50295D01*
X312992Y6988D02*
X318898D01*
X312992Y3051D02*
Y6988D01*
X303150Y3051D02*
X312992D01*
X303150D02*
Y7776D01*
X287402D02*
X303150D01*
X287402Y3051D02*
Y7776D01*
X277559Y3051D02*
X287402D01*
X277559D02*
Y6988D01*
X271654D02*
X277559D01*
X318898D02*
Y50295D01*
X271654D02*
X318898D01*
X271654Y6988D02*
Y50295D01*
X206284Y132387D02*
G03*
X208276Y131331I1976J1321D01*
G01*
X209983Y131330D02*
G03*
X211957Y132367I11J2376D01*
G01*
X208275Y151015D02*
G03*
X206301Y149977I-11J-2376D01*
G01*
X211974Y149958D02*
G03*
X209982Y151014I-1976J-1321D01*
G01*
X205447Y148524D02*
G03*
X205180Y148259I87J-354D01*
G01*
X208330Y148334D02*
G03*
X205447Y148524I-4288J-43031D01*
G01*
X208330Y134011D02*
G03*
X205447Y133820I41749J-654584D01*
G01*
X205180Y134086D02*
G03*
X205447Y133820I357J92D01*
G01*
X209928Y148334D02*
G03*
X212811Y148524I-41797J655314D01*
G01*
X213077Y148259D02*
G03*
X212811Y148524I-357J-92D01*
G01*
X212811Y133820D02*
G03*
X213077Y134086I-87J354D01*
G01*
X209928Y134011D02*
G03*
X212811Y133820I4288J43031D01*
G01*
X208330Y133482D02*
G03*
X207068Y132314I3661J-5218D01*
G01*
X205180Y134086D02*
G03*
X206952Y132314I1772J0D01*
G01*
X213077Y148259D02*
G03*
X211306Y150031I-1772J0D01*
G01*
X206952D02*
G03*
X205180Y148259I0J-1772D01*
G01*
X211306Y132314D02*
G03*
X213077Y134086I0J1772D01*
G01*
X207948Y131330D02*
G03*
X210310Y131330I1181J0D01*
G01*
Y151015D02*
G03*
X207948Y151015I-1181J0D01*
G01*
X187903Y132387D02*
G03*
X189895Y131331I1976J1321D01*
G01*
X191602Y131330D02*
G03*
X193576Y132367I11J2376D01*
G01*
X189894Y151015D02*
G03*
X187920Y149977I-11J-2376D01*
G01*
X193593Y149958D02*
G03*
X191601Y151014I-1976J-1321D01*
G01*
X187066Y148524D02*
G03*
X186799Y148259I87J-354D01*
G01*
X189949Y148334D02*
G03*
X187066Y148524I-4288J-43031D01*
G01*
X189949Y134011D02*
G03*
X187066Y133820I41749J-654584D01*
G01*
X186799Y134086D02*
G03*
X187066Y133820I357J92D01*
G01*
X191547Y148334D02*
G03*
X194430Y148524I-41797J655314D01*
G01*
X194697Y148259D02*
G03*
X194430Y148524I-357J-92D01*
G01*
X194430Y133820D02*
G03*
X194697Y134086I-87J354D01*
G01*
X191547Y134011D02*
G03*
X194430Y133820I4288J43031D01*
G01*
X189949Y133482D02*
G03*
X188688Y132314I3661J-5218D01*
G01*
X186799Y134086D02*
G03*
X188571Y132314I1772J0D01*
G01*
X194697Y148259D02*
G03*
X192925Y150031I-1772J0D01*
G01*
X188571D02*
G03*
X186799Y148259I0J-1772D01*
G01*
X192925Y132314D02*
G03*
X194697Y134086I0J1772D01*
G01*
X189567Y131330D02*
G03*
X191929Y131330I1181J0D01*
G01*
Y151015D02*
G03*
X189567Y151015I-1181J0D01*
G01*
X113297Y126254D02*
G03*
X115289Y125198I1976J1321D01*
G01*
X116996Y125197D02*
G03*
X118970Y126234I11J2376D01*
G01*
X115287Y144882D02*
G03*
X113313Y143844I-11J-2376D01*
G01*
X118987Y143825D02*
G03*
X116995Y144881I-1976J-1321D01*
G01*
X112459Y142391D02*
G03*
X112193Y142126I87J-354D01*
G01*
X115343Y142201D02*
G03*
X112459Y142391I-4288J-43031D01*
G01*
X115343Y127878D02*
G03*
X112459Y127688I41749J-654584D01*
G01*
X112193Y127953D02*
G03*
X112459Y127688I357J92D01*
G01*
X116941Y142201D02*
G03*
X119824Y142391I-41797J655314D01*
G01*
X120090Y142126D02*
G03*
X119824Y142391I-357J-92D01*
G01*
X119824Y127688D02*
G03*
X120090Y127953I-87J354D01*
G01*
X116941Y127878D02*
G03*
X119824Y127688I4288J43031D01*
G01*
X115343Y127349D02*
G03*
X114081Y126181I3661J-5218D01*
G01*
X112193Y127953D02*
G03*
X113965Y126181I1772J0D01*
G01*
X120090Y142126D02*
G03*
X118319Y143898I-1772J0D01*
G01*
X113965D02*
G03*
X112193Y142126I0J-1772D01*
G01*
X118319Y126181D02*
G03*
X120090Y127953I0J1772D01*
G01*
X114961Y125197D02*
G03*
X117323Y125197I1181J0D01*
G01*
Y144882D02*
G03*
X114961Y144882I-1181J0D01*
G01*
X113789Y71923D02*
G03*
X115781Y70867I1976J1321D01*
G01*
X117488Y70866D02*
G03*
X119462Y71904I11J2376D01*
G01*
X115779Y90551D02*
G03*
X113806Y89514I-11J-2376D01*
G01*
X119479Y89494D02*
G03*
X117487Y90550I-1976J-1321D01*
G01*
X112952Y88060D02*
G03*
X112685Y87795I87J-354D01*
G01*
X115835Y87870D02*
G03*
X112952Y88060I-4288J-43031D01*
G01*
X115835Y73547D02*
G03*
X112952Y73357I41749J-654584D01*
G01*
X112685Y73622D02*
G03*
X112952Y73357I357J92D01*
G01*
X117433Y87870D02*
G03*
X120316Y88060I-41797J655314D01*
G01*
X120582Y87795D02*
G03*
X120316Y88060I-357J-92D01*
G01*
X120316Y73357D02*
G03*
X120582Y73622I-87J354D01*
G01*
X117433Y73547D02*
G03*
X120316Y73357I4288J43031D01*
G01*
X115835Y73019D02*
G03*
X114573Y71850I3661J-5218D01*
G01*
X112685Y73622D02*
G03*
X114457Y71850I1772J0D01*
G01*
X120582Y87795D02*
G03*
X118811Y89567I-1772J0D01*
G01*
X114457D02*
G03*
X112685Y87795I0J-1772D01*
G01*
X118811Y71850D02*
G03*
X120582Y73622I0J1772D01*
G01*
X115453Y70866D02*
G03*
X117815Y70866I1181J0D01*
G01*
Y90551D02*
G03*
X115453Y90551I-1181J0D01*
G01*
X461328Y133439D02*
G03*
X463320Y132383I1976J1321D01*
G01*
X465028Y132382D02*
G03*
X467001Y133420I11J2376D01*
G01*
X463319Y152067D02*
G03*
X461345Y151029I-11J-2376D01*
G01*
X467018Y151010D02*
G03*
X465026Y152066I-1976J-1321D01*
G01*
X460491Y149576D02*
G03*
X460225Y149311I87J-354D01*
G01*
X463374Y149386D02*
G03*
X460491Y149576I-4288J-43031D01*
G01*
X463374Y135063D02*
G03*
X460491Y134873I41749J-654584D01*
G01*
X460225Y135138D02*
G03*
X460491Y134873I357J92D01*
G01*
X464972Y149386D02*
G03*
X467856Y149576I-41797J655314D01*
G01*
X468122Y149311D02*
G03*
X467856Y149576I-357J-92D01*
G01*
X467856Y134873D02*
G03*
X468122Y135138I-87J354D01*
G01*
X464972Y135063D02*
G03*
X467856Y134873I4288J43031D01*
G01*
X463374Y134534D02*
G03*
X462113Y133366I3661J-5218D01*
G01*
X460225Y135138D02*
G03*
X461996Y133366I1772J0D01*
G01*
X468122Y149311D02*
G03*
X466350Y151083I-1772J0D01*
G01*
X461996D02*
G03*
X460225Y149311I0J-1772D01*
G01*
X466350Y133366D02*
G03*
X468122Y135138I0J1772D01*
G01*
X462992Y132382D02*
G03*
X465354Y132382I1181J0D01*
G01*
Y152067D02*
G03*
X462992Y152067I-1181J0D01*
G01*
X442824Y133470D02*
G03*
X444816Y132415I1976J1321D01*
G01*
X446524Y132413D02*
G03*
X448498Y133451I11J2376D01*
G01*
X444815Y152098D02*
G03*
X442841Y151061I-11J-2376D01*
G01*
X448514Y151042D02*
G03*
X446522Y152097I-1976J-1321D01*
G01*
X441987Y149608D02*
G03*
X441721Y149343I87J-354D01*
G01*
X444870Y149417D02*
G03*
X441987Y149608I-4288J-43031D01*
G01*
X444870Y135094D02*
G03*
X441987Y134904I41749J-654584D01*
G01*
X441721Y135169D02*
G03*
X441987Y134904I357J92D01*
G01*
X446468Y149417D02*
G03*
X449352Y149608I-41797J655314D01*
G01*
X449618Y149343D02*
G03*
X449352Y149608I-357J-92D01*
G01*
X449352Y134904D02*
G03*
X449618Y135169I-87J354D01*
G01*
X446468Y135094D02*
G03*
X449352Y134904I4288J43031D01*
G01*
X444870Y134566D02*
G03*
X443609Y133398I3661J-5218D01*
G01*
X441721Y135169D02*
G03*
X443492Y133398I1772J0D01*
G01*
X449618Y149343D02*
G03*
X447846Y151114I-1772J0D01*
G01*
X443492D02*
G03*
X441721Y149343I0J-1772D01*
G01*
X447846Y133398D02*
G03*
X449618Y135169I0J1772D01*
G01*
X444488Y132413D02*
G03*
X446850Y132413I1181J0D01*
G01*
Y152098D02*
G03*
X444488Y152098I-1181J0D01*
G01*
X211973Y132385D02*
X211992Y132412D01*
X212051Y132492D01*
X206212Y132487D02*
X206280Y132393D01*
X206284Y132387D01*
X206266Y149932D02*
X206283Y149960D01*
X206207Y149852D02*
X206266Y149932D01*
X211978Y149951D02*
X212046Y149858D01*
X211974Y149958D02*
X211978Y149951D01*
X209928Y148862D02*
X210006Y148874D01*
X210098Y148916D01*
X210197Y148990D01*
X210281Y149072D01*
X210503Y149335D01*
X210690Y149576D01*
X210859Y149781D01*
X211006Y149931D01*
X211107Y150005D01*
X211189Y150031D01*
X207068D02*
X207174Y149991D01*
X207313Y149873D01*
X207497Y149664D01*
X207724Y149374D01*
X207842Y149225D01*
X207978Y149071D01*
X208073Y148980D01*
X208192Y148898D01*
X208269Y148869D01*
X208330Y148862D01*
X211141Y132324D02*
X211189Y132314D01*
X211084Y132353D02*
X211141Y132324D01*
X211019Y132403D02*
X211084Y132353D01*
X210945Y132472D02*
X211019Y132403D01*
X210858Y132566D02*
X210945Y132472D01*
X210761Y132680D02*
X210858Y132566D01*
X210653Y132816D02*
X210761Y132680D01*
X210534Y132970D02*
X210653Y132816D01*
X210416Y133118D02*
X210534Y132970D01*
X210280Y133273D02*
X210416Y133118D01*
X210235Y133319D02*
X210280Y133273D01*
X210185Y133365D02*
X210235Y133319D01*
X210129Y133408D02*
X210185Y133365D01*
X210066Y133447D02*
X210129Y133408D01*
X210029Y133463D02*
X210066Y133447D01*
X209989Y133475D02*
X210029Y133463D01*
X209959Y133480D02*
X209989Y133475D01*
X209928Y133482D02*
X209959Y133480D01*
X208276Y131331D02*
X209983Y131330D01*
X208275Y151015D02*
X209982Y151013D01*
X208330Y133482D02*
Y148862D01*
X205180Y134086D02*
Y148259D01*
X213078Y134086D02*
Y148259D01*
X209928Y133482D02*
Y148862D01*
X208330Y148334D02*
X209928D01*
X208330Y134011D02*
X209928D01*
X208330Y133482D02*
X209928D01*
X208330Y148862D02*
X209928D01*
X206952Y150031D02*
X211306D01*
X206952Y132314D02*
X211306D01*
X193593Y132385D02*
X193611Y132412D01*
X193670Y132492D01*
X187831Y132487D02*
X187899Y132393D01*
X187903Y132387D01*
X187885Y149932D02*
X187902Y149960D01*
X187826Y149852D02*
X187885Y149932D01*
X193597Y149951D02*
X193665Y149858D01*
X193593Y149958D02*
X193597Y149951D01*
X191547Y148862D02*
X191625Y148874D01*
X191717Y148916D01*
X191816Y148990D01*
X191901Y149072D01*
X192122Y149335D01*
X192309Y149576D01*
X192478Y149781D01*
X192625Y149931D01*
X192726Y150005D01*
X192808Y150031D01*
X188688D02*
X188793Y149991D01*
X188932Y149873D01*
X189116Y149664D01*
X189343Y149374D01*
X189461Y149225D01*
X189597Y149071D01*
X189692Y148980D01*
X189811Y148898D01*
X189888Y148869D01*
X189949Y148862D01*
X192760Y132324D02*
X192808Y132314D01*
X192703Y132353D02*
X192760Y132324D01*
X192638Y132403D02*
X192703Y132353D01*
X192564Y132472D02*
X192638Y132403D01*
X192477Y132566D02*
X192564Y132472D01*
X192380Y132680D02*
X192477Y132566D01*
X192272Y132816D02*
X192380Y132680D01*
X192153Y132970D02*
X192272Y132816D01*
X192035Y133118D02*
X192153Y132970D01*
X191899Y133273D02*
X192035Y133118D01*
X191854Y133319D02*
X191899Y133273D01*
X191804Y133365D02*
X191854Y133319D01*
X191749Y133408D02*
X191804Y133365D01*
X191685Y133447D02*
X191749Y133408D01*
X191648Y133463D02*
X191685Y133447D01*
X191608Y133475D02*
X191648Y133463D01*
X191578Y133480D02*
X191608Y133475D01*
X191547Y133482D02*
X191578Y133480D01*
X189895Y131331D02*
X191602Y131330D01*
X189894Y151015D02*
X191601Y151013D01*
X189949Y133482D02*
Y148862D01*
X186799Y134086D02*
Y148259D01*
X194697Y134086D02*
Y148259D01*
X191547Y133482D02*
Y148862D01*
X189949Y148334D02*
X191547D01*
X189949Y134011D02*
X191547D01*
X189949Y133482D02*
X191547D01*
X189949Y148862D02*
X191547D01*
X188571Y150031D02*
X192925D01*
X188571Y132314D02*
X192925D01*
X118986Y126253D02*
X119004Y126279D01*
X119064Y126360D01*
X113224Y126354D02*
X113292Y126260D01*
X113297Y126254D01*
X113279Y143799D02*
X113296Y143827D01*
X113220Y143719D02*
X113279Y143799D01*
X118991Y143818D02*
X119059Y143725D01*
X118987Y143825D02*
X118991Y143818D01*
X116941Y142729D02*
X117018Y142741D01*
X117110Y142783D01*
X117210Y142857D01*
X117294Y142939D01*
X117515Y143202D01*
X117703Y143443D01*
X117872Y143648D01*
X118019Y143798D01*
X118120Y143872D01*
X118202Y143898D01*
X114081D02*
X114186Y143859D01*
X114326Y143740D01*
X114510Y143531D01*
X114737Y143242D01*
X114855Y143093D01*
X114990Y142938D01*
X115086Y142847D01*
X115205Y142765D01*
X115282Y142736D01*
X115343Y142729D01*
X118154Y126191D02*
X118202Y126181D01*
X118097Y126220D02*
X118154Y126191D01*
X118031Y126270D02*
X118097Y126220D01*
X117958Y126339D02*
X118031Y126270D01*
X117870Y126433D02*
X117958Y126339D01*
X117774Y126548D02*
X117870Y126433D01*
X117666Y126683D02*
X117774Y126548D01*
X117546Y126837D02*
X117666Y126683D01*
X117429Y126985D02*
X117546Y126837D01*
X117293Y127140D02*
X117429Y126985D01*
X117247Y127187D02*
X117293Y127140D01*
X117198Y127232D02*
X117247Y127187D01*
X117142Y127275D02*
X117198Y127232D01*
X117079Y127314D02*
X117142Y127275D01*
X117042Y127330D02*
X117079Y127314D01*
X117002Y127342D02*
X117042Y127330D01*
X116972Y127348D02*
X117002Y127342D01*
X116941Y127349D02*
X116972Y127348D01*
X115289Y125198D02*
X116996Y125197D01*
X115287Y144882D02*
X116995Y144881D01*
X115343Y127349D02*
Y142729D01*
X112193Y127953D02*
Y142126D01*
X120090Y127953D02*
Y142126D01*
X116941Y127349D02*
Y142729D01*
X115343Y142201D02*
X116941D01*
X115343Y127878D02*
X116941D01*
X115343Y127349D02*
X116941D01*
X115343Y142729D02*
X116941D01*
X113965Y143898D02*
X118319D01*
X113965Y126181D02*
X118319D01*
X119478Y71922D02*
X119497Y71949D01*
X119556Y72029D01*
X113717Y72023D02*
X113785Y71930D01*
X113789Y71923D01*
X113771Y89469D02*
X113788Y89496D01*
X113712Y89388D02*
X113771Y89469D01*
X119483Y89488D02*
X119551Y89394D01*
X119479Y89494D02*
X119483Y89488D01*
X117433Y88399D02*
X117510Y88410D01*
X117602Y88452D01*
X117702Y88526D01*
X117786Y88609D01*
X118008Y88871D01*
X118195Y89112D01*
X118364Y89317D01*
X118511Y89467D01*
X118612Y89541D01*
X118694Y89567D01*
X114573D02*
X114679Y89528D01*
X114818Y89409D01*
X115002Y89201D01*
X115229Y88911D01*
X115347Y88762D01*
X115483Y88608D01*
X115578Y88516D01*
X115697Y88434D01*
X115774Y88406D01*
X115835Y88399D01*
X118646Y71860D02*
X118694Y71850D01*
X118589Y71890D02*
X118646Y71860D01*
X118524Y71939D02*
X118589Y71890D01*
X118450Y72008D02*
X118524Y71939D01*
X118363Y72102D02*
X118450Y72008D01*
X118266Y72217D02*
X118363Y72102D01*
X118158Y72353D02*
X118266Y72217D01*
X118038Y72507D02*
X118158Y72353D01*
X117921Y72654D02*
X118038Y72507D01*
X117785Y72810D02*
X117921Y72654D01*
X117740Y72856D02*
X117785Y72810D01*
X117690Y72901D02*
X117740Y72856D01*
X117634Y72944D02*
X117690Y72901D01*
X117571Y72983D02*
X117634Y72944D01*
X117534Y72999D02*
X117571Y72983D01*
X117494Y73012D02*
X117534Y72999D01*
X117464Y73017D02*
X117494Y73012D01*
X117433Y73019D02*
X117464Y73017D01*
X115781Y70867D02*
X117488Y70866D01*
X115779Y90551D02*
X117487Y90550D01*
X115835Y73019D02*
Y88399D01*
X112685Y73622D02*
Y87795D01*
X120582Y73622D02*
Y87795D01*
X117433Y73019D02*
Y88399D01*
X115835Y87870D02*
X117433D01*
X115835Y73547D02*
X117433D01*
X115835Y73019D02*
X117433D01*
X115835Y88399D02*
X117433D01*
X114457Y89567D02*
X118811D01*
X114457Y71850D02*
X118811D01*
X467018Y133438D02*
X467036Y133464D01*
X467095Y133545D01*
X461256Y133539D02*
X461324Y133445D01*
X461328Y133439D01*
X461311Y150984D02*
X461328Y151012D01*
X461251Y150904D02*
X461311Y150984D01*
X467023Y151004D02*
X467091Y150910D01*
X467018Y151010D02*
X467023Y151004D01*
X464972Y149914D02*
X465050Y149926D01*
X465142Y149968D01*
X465241Y150042D01*
X465326Y150124D01*
X465547Y150387D01*
X465735Y150628D01*
X465904Y150833D01*
X466051Y150983D01*
X466151Y151057D01*
X466234Y151083D01*
X462113D02*
X462218Y151044D01*
X462357Y150925D01*
X462541Y150716D01*
X462769Y150427D01*
X462887Y150278D01*
X463022Y150123D01*
X463117Y150032D01*
X463236Y149950D01*
X463313Y149921D01*
X463374Y149914D01*
X466185Y133376D02*
X466234Y133366D01*
X466129Y133405D02*
X466185Y133376D01*
X466063Y133455D02*
X466129Y133405D01*
X465989Y133524D02*
X466063Y133455D01*
X465902Y133618D02*
X465989Y133524D01*
X465805Y133733D02*
X465902Y133618D01*
X465697Y133869D02*
X465805Y133733D01*
X465578Y134022D02*
X465697Y133869D01*
X465460Y134170D02*
X465578Y134022D01*
X465325Y134326D02*
X465460Y134170D01*
X465279Y134372D02*
X465325Y134326D01*
X465229Y134417D02*
X465279Y134372D01*
X465174Y134460D02*
X465229Y134417D01*
X465110Y134499D02*
X465174Y134460D01*
X465073Y134515D02*
X465110Y134499D01*
X465033Y134527D02*
X465073Y134515D01*
X465003Y134533D02*
X465033Y134527D01*
X464972Y134534D02*
X465003Y134533D01*
X463320Y132383D02*
X465028Y132382D01*
X463319Y152067D02*
X465026Y152066D01*
X463374Y134534D02*
Y149914D01*
X460225Y135138D02*
Y149311D01*
X468122Y135138D02*
Y149311D01*
X464972Y134534D02*
Y149914D01*
X463374Y149386D02*
X464972D01*
X463374Y135063D02*
X464972D01*
X463374Y134534D02*
X464972D01*
X463374Y149914D02*
X464972D01*
X461996Y151083D02*
X466350D01*
X461996Y133366D02*
X466350D01*
X448514Y133469D02*
X448532Y133496D01*
X448591Y133576D01*
X442752Y133571D02*
X442820Y133477D01*
X442824Y133470D01*
X442807Y151016D02*
X442824Y151044D01*
X442747Y150936D02*
X442807Y151016D01*
X448519Y151035D02*
X448587Y150941D01*
X448514Y151042D02*
X448519Y151035D01*
X446468Y149946D02*
X446546Y149957D01*
X446638Y149999D01*
X446738Y150073D01*
X446822Y150156D01*
X447043Y150419D01*
X447231Y150659D01*
X447400Y150864D01*
X447547Y151015D01*
X447647Y151089D01*
X447730Y151114D01*
X443609D02*
X443714Y151075D01*
X443853Y150957D01*
X444037Y150748D01*
X444265Y150458D01*
X444383Y150309D01*
X444518Y150155D01*
X444613Y150064D01*
X444732Y149982D01*
X444809Y149953D01*
X444870Y149946D01*
X447681Y133407D02*
X447730Y133398D01*
X447625Y133437D02*
X447681Y133407D01*
X447559Y133486D02*
X447625Y133437D01*
X447485Y133555D02*
X447559Y133486D01*
X447398Y133649D02*
X447485Y133555D01*
X447301Y133764D02*
X447398Y133649D01*
X447193Y133900D02*
X447301Y133764D01*
X447074Y134054D02*
X447193Y133900D01*
X446956Y134202D02*
X447074Y134054D01*
X446821Y134357D02*
X446956Y134202D01*
X446775Y134403D02*
X446821Y134357D01*
X446725Y134448D02*
X446775Y134403D01*
X446670Y134492D02*
X446725Y134448D01*
X446606Y134530D02*
X446670Y134492D01*
X446569Y134547D02*
X446606Y134530D01*
X446529Y134559D02*
X446569Y134547D01*
X446499Y134564D02*
X446529Y134559D01*
X446468Y134566D02*
X446499Y134564D01*
X444816Y132415D02*
X446524Y132413D01*
X444815Y152098D02*
X446522Y152097D01*
X444870Y134566D02*
Y149946D01*
X441721Y135169D02*
Y149343D01*
X449618Y135169D02*
Y149343D01*
X446468Y134566D02*
Y149946D01*
X444870Y149417D02*
X446468D01*
X444870Y135094D02*
X446468D01*
X444870Y134566D02*
X446468D01*
X444870Y149946D02*
X446468D01*
X443492Y151114D02*
X447846D01*
X443492Y133398D02*
X447846D01*
D11*
X541575Y182087D02*
G03*
X541575Y182087I-394J0D01*
G01*
D02*
G03*
X541575Y182087I-394J0D01*
G01*
X428189Y26870D02*
X477795D01*
Y98D02*
Y26870D01*
X428189Y98D02*
X477795D01*
X428189D02*
Y26870D01*
X451811Y-23524D02*
Y98D01*
X432126Y-23524D02*
X451811D01*
X432126D02*
Y98D01*
X118898Y35827D02*
X185827D01*
Y394D02*
Y35827D01*
X118898Y394D02*
X185827D01*
X118898D02*
Y35827D01*
X137205Y-19606D02*
Y394D01*
Y-19606D02*
X167520D01*
Y394D01*
X142520Y-74409D02*
Y-19606D01*
Y-74409D02*
X162205D01*
Y-19606D01*
X336220Y35827D02*
X403150D01*
Y394D02*
Y35827D01*
X336220Y394D02*
X403150D01*
X336220D02*
Y35827D01*
X354528Y-19606D02*
Y394D01*
Y-19606D02*
X384843D01*
Y394D01*
X359843Y-74409D02*
Y-19606D01*
Y-74409D02*
X379528D01*
Y-19606D01*
X187402Y35827D02*
X254331D01*
Y394D02*
Y35827D01*
X187402Y394D02*
X254331D01*
X187402D02*
Y35827D01*
X205709Y-19606D02*
Y394D01*
Y-19606D02*
X236024D01*
Y394D01*
X211024Y-74409D02*
Y-19606D01*
Y-74409D02*
X230709D01*
Y-19606D01*
X497441Y157283D02*
X536811D01*
X497441D02*
Y196654D01*
X536811D01*
Y157283D02*
Y196654D01*
X533465D02*
Y234055D01*
X500787D02*
X533465D01*
X500787Y196654D02*
Y234055D01*
D12*
X222426Y189051D02*
X261926D01*
X222426Y167551D02*
Y189051D01*
Y167551D02*
X261926D01*
Y189051D01*
X168528D02*
X208028D01*
X168528Y167551D02*
Y189051D01*
Y167551D02*
X208028D01*
Y189051D01*
X529067Y94078D02*
X550567D01*
X529067D02*
Y133578D01*
X550567D01*
Y94078D02*
Y133578D01*
X557413Y94078D02*
X578913D01*
X557413D02*
Y133578D01*
X578913D01*
Y94078D02*
Y133578D01*
X529067Y40791D02*
X550567D01*
X529067D02*
Y80291D01*
X550567D01*
Y40791D02*
Y80291D01*
X558102Y40241D02*
X579602D01*
X558102D02*
Y79741D01*
X579602D01*
Y40241D02*
Y79741D01*
D13*
X511614Y92795D02*
X556831D01*
X567913Y103878D01*
X556391Y135400D02*
X567913Y123878D01*
X521900Y135400D02*
X556391D01*
X513900Y127400D02*
X521900Y135400D01*
X497915Y127400D02*
X513900D01*
X493110Y132205D02*
X497915Y127400D01*
X17913Y126280D02*
X37598Y145965D01*
X55020D01*
X71600D01*
X71994Y145571D01*
X88583D01*
X102000D01*
X102689Y144882D01*
X116142D01*
X126555Y134469D01*
X141732D01*
Y144469D02*
X165945D01*
X178176Y156700D01*
X203444D01*
X209129Y151015D01*
X214114Y99417D02*
X323900D01*
X328817Y94500D01*
X463693D01*
X468642Y99449D01*
X74035Y85906D02*
X88583Y71358D01*
X55020Y85906D02*
X74035D01*
X17913D02*
X55020D01*
X88583Y71358D02*
X102300D01*
X102792Y70866D01*
X116634D01*
X121358Y75591D01*
X140354D01*
Y70591D02*
X153000D01*
X153276Y70866D01*
X165945D01*
X174300D01*
X175749Y69417D01*
X184114D01*
X198567Y83870D01*
X218567D01*
X226413Y76025D01*
X405825D01*
X409800Y80000D01*
X428091D01*
X438642Y69449D01*
X17913Y145965D02*
X25449Y153500D01*
X119900D01*
X133931Y139469D01*
X141732D01*
X160945D01*
X165945Y134469D01*
X156673Y125197D02*
X165945Y134469D01*
X116142Y125197D02*
X156673D01*
X202059Y138400D02*
X209129Y131330D01*
X169876Y138400D02*
X202059D01*
X169876D02*
X182491Y151015D01*
X190748D01*
X165945Y134469D02*
X169876Y138400D01*
X95177Y125197D02*
X116142D01*
X88583Y131791D02*
X95177Y125197D01*
X116634Y90551D02*
X126594Y80591D01*
X140354D01*
X93996Y90551D02*
X116634D01*
X88583Y85138D02*
X93996Y90551D01*
X140354Y80591D02*
X153000D01*
X153276Y80866D01*
X165945D01*
X174300D01*
X175749Y79417D01*
X184114D01*
X285433Y40453D02*
X289386Y36500D01*
X301165D01*
X305118Y40453D01*
X295276Y20768D02*
X302900D01*
X307168Y16500D01*
X342878D01*
X350000Y23622D01*
X360138Y13484D01*
X428976D01*
X433898Y18406D01*
X437244D01*
X452992D01*
X460866D01*
X468740D01*
X473662Y13484D01*
X477008D01*
X448642Y69449D02*
X468642D01*
X438642Y79449D02*
X448642Y69449D01*
X468642D02*
X485793Y86600D01*
X487505D01*
X493110Y92205D01*
X445669Y152098D02*
X450968Y146800D01*
X511900D01*
X517126Y152026D01*
X531693Y166339D02*
X531890D01*
X517126Y152026D02*
Y180906D01*
X531693Y166339D01*
X172705Y110827D02*
X184114Y99417D01*
X155906Y110827D02*
X172705D01*
X184114Y99417D02*
X190865D01*
X203348Y111900D01*
X311036D01*
X316240Y106696D01*
X325944Y116400D01*
X388500D01*
Y125800D01*
X379500Y134800D02*
X388500Y125800D01*
X379500Y134800D02*
Y156862D01*
X383957Y161319D01*
X184114Y99417D02*
Y102589D01*
X179921Y106782D02*
X184114Y102589D01*
X179921Y106782D02*
Y117815D01*
X186106Y124000D01*
X228800D01*
X232800Y128000D01*
Y133500D01*
X222200Y144100D02*
X232800Y133500D01*
X222200Y144100D02*
Y157800D01*
X228000Y163600D01*
X235372D01*
X245891Y153082D01*
X254700D01*
X255330Y152452D01*
X264272D01*
X539567Y70591D02*
X553800D01*
X554350Y70041D01*
X568602D01*
X411555Y123878D02*
X539567D01*
X383957Y151476D02*
X411555Y123878D01*
X184114Y89417D02*
X201393Y106696D01*
X281890D01*
X227510Y89590D02*
X236600D01*
X236698Y89688D01*
X245891D01*
X227510Y67936D02*
X233046Y62400D01*
X311944D01*
X316240Y66696D01*
Y130299D02*
X325219Y121320D01*
X383957D01*
X304239Y142300D02*
X316240Y130299D01*
X238193Y142300D02*
X304239D01*
X227510Y152983D02*
X238193Y142300D01*
X178228Y178051D02*
X189980Y166300D01*
X208100D01*
X214400Y160000D01*
Y144440D02*
Y160000D01*
Y144440D02*
X227510Y131330D01*
X232126Y178051D02*
X248419Y161758D01*
X307700D01*
X316240Y170299D01*
X264272Y88775D02*
X376897D01*
X384350Y81321D01*
X333415Y106696D02*
X350591D01*
X209600Y93932D02*
X214114Y89417D01*
X209600Y93932D02*
Y101500D01*
X212000Y103900D01*
X276800D01*
X278300Y102400D01*
X374879D01*
X383957Y111477D01*
X275591Y40453D02*
Y47181D01*
X278000Y49591D01*
X316310D01*
X333415Y66696D01*
X337712Y62400D01*
X406073D01*
X413091Y69417D01*
X465354Y175492D02*
X474508Y166339D01*
X502362D01*
X39665Y48819D02*
X65354Y23130D01*
X77205D01*
X132677Y23622D02*
X138055Y29000D01*
X166661D01*
X211686Y74025D01*
X291737D01*
X299065Y66696D01*
X188228Y178051D02*
X198228D01*
X185039Y116437D02*
X187576Y113900D01*
X265491D01*
X281890Y130299D01*
X242126Y178051D02*
X252126D01*
X291312D01*
X299065Y170299D01*
X220500Y175000D02*
X228000Y182500D01*
X321214D01*
X333415Y170299D01*
X350591D01*
X438642Y99449D02*
X443593Y104400D01*
X500009D01*
X511614Y92795D01*
X460866Y8563D02*
X465003Y12700D01*
X470660D01*
X474919Y8441D01*
X497417D01*
X539567Y50591D01*
X468740Y8563D02*
X470862Y6441D01*
X525002D01*
X568602Y50041D01*
X214114Y69417D02*
X251332Y32200D01*
X361107D01*
X369685Y23622D01*
D19*
X135430Y131402D02*
G03*
X135430Y147535I6302J8066D01*
G01*
X134052Y67524D02*
G03*
X134052Y83657I6302J8066D01*
G01*
X190453Y101150D02*
G03*
X190453Y101150I-1969J0D01*
G01*
X444980Y101181D02*
G03*
X444980Y101181I-1969J0D01*
G01*
X135433Y131402D02*
Y147535D01*
X134055Y67524D02*
Y83657D01*
X184941Y64142D02*
X213287D01*
X184941Y104693D02*
X213287D01*
Y64142D02*
Y104693D01*
X184941Y64142D02*
Y104693D01*
X439469Y64173D02*
X467815D01*
X439469Y104724D02*
X467815D01*
Y64173D02*
Y104724D01*
X439469Y64173D02*
Y104724D01*
X421496Y30807D02*
X484488D01*
Y-27461D02*
Y30807D01*
X421496Y-27461D02*
X484488D01*
X421496D02*
Y30807D01*
X111024Y42913D02*
X189764D01*
Y-78346D02*
Y42913D01*
X111024Y-78346D02*
X189764D01*
X111024D02*
Y42913D01*
X328346D02*
X407087D01*
Y-78346D02*
Y42913D01*
X328346Y-78346D02*
X407087D01*
X328346D02*
Y42913D01*
X179528D02*
X258268D01*
Y-78346D02*
Y42913D01*
X179528Y-78346D02*
X258268D01*
X179528D02*
Y42913D01*
X490476Y153346D02*
X543776D01*
X490476D02*
Y237992D01*
X543776D01*
Y153346D02*
Y237992D01*
X139764Y139469D02*
X143701D01*
X141732Y137500D02*
Y141437D01*
X138386Y75591D02*
X142323D01*
X140354Y73622D02*
Y77559D01*
X199114Y82449D02*
Y86386D01*
X197146Y84417D02*
X201083D01*
X453642Y82480D02*
Y86417D01*
X451673Y84449D02*
X455610D01*
D21*
X533858Y161417D02*
Y171260D01*
X529921D02*
X533858D01*
X529921Y161417D02*
Y171260D01*
Y161417D02*
X533858D01*
X504331D02*
Y171260D01*
X500394D02*
X504331D01*
X500394Y161417D02*
Y171260D01*
Y161417D02*
X504331D01*
X522047Y178346D02*
Y183465D01*
X512205D02*
X522047D01*
X512205Y178346D02*
Y183465D01*
Y178346D02*
X522047D01*
X259926Y173551D02*
G03*
X259926Y173551I-4000J0D01*
G01*
X231476Y186051D02*
G03*
X231476Y186051I-500J0D01*
G01*
X206028Y173551D02*
G03*
X206028Y173551I-4000J0D01*
G01*
X177578Y186051D02*
G03*
X177578Y186051I-500J0D01*
G01*
X548067Y125028D02*
G03*
X548067Y125028I-500J0D01*
G01*
X539067Y100078D02*
G03*
X539067Y100078I-4000J0D01*
G01*
X576413Y125028D02*
G03*
X576413Y125028I-500J0D01*
G01*
X567413Y100078D02*
G03*
X567413Y100078I-4000J0D01*
G01*
X548067Y71741D02*
G03*
X548067Y71741I-500J0D01*
G01*
X539067Y46791D02*
G03*
X539067Y46791I-4000J0D01*
G01*
X577102Y71191D02*
G03*
X577102Y71191I-500J0D01*
G01*
X568102Y46241D02*
G03*
X568102Y46241I-4000J0D01*
G01*
D22*
X316535Y37500D02*
Y43406D01*
X313386D02*
X316535D01*
X313386Y37500D02*
Y43406D01*
Y37500D02*
X316535D01*
X306693D02*
Y43406D01*
X303543D02*
X306693D01*
X303543Y37500D02*
Y43406D01*
Y37500D02*
X306693D01*
X277165D02*
Y43406D01*
X274016D02*
X277165D01*
X274016Y37500D02*
Y43406D01*
Y37500D02*
X277165D01*
X287008D02*
Y43406D01*
X283858D02*
X287008D01*
X283858Y37500D02*
Y43406D01*
Y37500D02*
X287008D01*
X303150Y3051D02*
X318898D01*
X303150D02*
Y7776D01*
X287402D02*
X303150D01*
X287402Y3051D02*
Y7776D01*
X271654Y3051D02*
X287402D01*
X292323Y19193D02*
X298228D01*
Y22343D01*
X292323D02*
X298228D01*
X292323Y19193D02*
Y22343D01*
D23*
X531890Y187706D02*
X528727D01*
X527672Y187355D01*
X527321Y187003D01*
X526969Y186300D01*
Y185246D01*
X527321Y184543D01*
X527672Y184192D01*
X528727Y183840D01*
X531890D01*
Y191220D01*
X520046Y185597D02*
X520398Y184895D01*
X521101Y184192D01*
X521803Y183840D01*
X523209D01*
X523912Y184192D01*
X524615Y184895D01*
X524966Y185597D01*
X525318Y186652D01*
Y188409D01*
X524966Y189463D01*
X524615Y190166D01*
X523912Y190869D01*
X523209Y191220D01*
X521803D01*
X521101Y190869D01*
X520398Y190166D01*
X520046Y189463D01*
X517973Y183840D02*
Y191220D01*
Y183840D02*
X514810D01*
X513755Y184192D01*
X513404Y184543D01*
X513052Y185246D01*
Y185949D01*
X513404Y186652D01*
X513755Y187003D01*
X514810Y187355D01*
X517973D02*
X514810D01*
X513755Y187706D01*
X513404Y188057D01*
X513052Y188760D01*
Y189815D01*
X513404Y190518D01*
X513755Y190869D01*
X514810Y191220D01*
X517973D01*
X501033Y183840D02*
X505602D01*
Y191220D01*
X501033D01*
X505602Y187355D02*
X502790D01*
X499803Y183840D02*
Y191220D01*
Y183840D02*
X497343D01*
X496289Y184192D01*
X495586Y184895D01*
X495234Y185597D01*
X494883Y186652D01*
Y188409D01*
X495234Y189463D01*
X495586Y190166D01*
X496289Y190869D01*
X497343Y191220D01*
X499803D01*
X487959Y185597D02*
X488311Y184895D01*
X489014Y184192D01*
X489717Y183840D01*
X491122D01*
X491825Y184192D01*
X492528Y184895D01*
X492880Y185597D01*
X493231Y186652D01*
Y188409D01*
X492880Y189463D01*
X492528Y190166D01*
X491825Y190869D01*
X491122Y191220D01*
X489717D01*
X489014Y190869D01*
X488311Y190166D01*
X487959Y189463D01*
Y188409D01*
X489717D02*
X487959D01*
X481704Y183840D02*
X486272D01*
Y191220D01*
X481704D01*
X486272Y187355D02*
X483461D01*
X531890Y187706D02*
X528727D01*
X527672Y187355D01*
X527321Y187003D01*
X526969Y186300D01*
Y185246D01*
X527321Y184543D01*
X527672Y184192D01*
X528727Y183840D01*
X531890D01*
Y191220D01*
X520046Y185597D02*
X520398Y184895D01*
X521101Y184192D01*
X521803Y183840D01*
X523209D01*
X523912Y184192D01*
X524615Y184895D01*
X524966Y185597D01*
X525318Y186652D01*
Y188409D01*
X524966Y189463D01*
X524615Y190166D01*
X523912Y190869D01*
X523209Y191220D01*
X521803D01*
X521101Y190869D01*
X520398Y190166D01*
X520046Y189463D01*
X517973Y183840D02*
Y191220D01*
Y183840D02*
X514810D01*
X513755Y184192D01*
X513404Y184543D01*
X513052Y185246D01*
Y185949D01*
X513404Y186652D01*
X513755Y187003D01*
X514810Y187355D01*
X517973D02*
X514810D01*
X513755Y187706D01*
X513404Y188057D01*
X513052Y188760D01*
Y189815D01*
X513404Y190518D01*
X513755Y190869D01*
X514810Y191220D01*
X517973D01*
X501033Y183840D02*
X505602D01*
Y191220D01*
X501033D01*
X505602Y187355D02*
X502790D01*
X499803Y183840D02*
Y191220D01*
Y183840D02*
X497343D01*
X496289Y184192D01*
X495586Y184895D01*
X495234Y185597D01*
X494883Y186652D01*
Y188409D01*
X495234Y189463D01*
X495586Y190166D01*
X496289Y190869D01*
X497343Y191220D01*
X499803D01*
X487959Y185597D02*
X488311Y184895D01*
X489014Y184192D01*
X489717Y183840D01*
X491122D01*
X491825Y184192D01*
X492528Y184895D01*
X492880Y185597D01*
X493231Y186652D01*
Y188409D01*
X492880Y189463D01*
X492528Y190166D01*
X491825Y190869D01*
X491122Y191220D01*
X489717D01*
X489014Y190869D01*
X488311Y190166D01*
X487959Y189463D01*
Y188409D01*
X489717D02*
X487959D01*
X481704Y183840D02*
X486272D01*
Y191220D01*
X481704D01*
X486272Y187355D02*
X483461D01*
X270776Y13782D02*
X273939D01*
X274993Y14134D01*
X275344Y14485D01*
X275696Y15188D01*
Y16242D01*
X275344Y16945D01*
X274993Y17297D01*
X273939Y17648D01*
X270776D01*
Y10268D01*
X282619Y15891D02*
X282268Y16594D01*
X281565Y17297D01*
X280862Y17648D01*
X279456D01*
X278753Y17297D01*
X278050Y16594D01*
X277699Y15891D01*
X277348Y14837D01*
Y13079D01*
X277699Y12025D01*
X278050Y11322D01*
X278753Y10619D01*
X279456Y10268D01*
X280862D01*
X281565Y10619D01*
X282268Y11322D01*
X282619Y12025D01*
X284693Y17648D02*
Y10268D01*
Y17648D02*
X287856D01*
X288910Y17297D01*
X289262Y16945D01*
X289613Y16242D01*
Y15539D01*
X289262Y14837D01*
X288910Y14485D01*
X287856Y14134D01*
X284693D02*
X287856D01*
X288910Y13782D01*
X289262Y13431D01*
X289613Y12728D01*
Y11673D01*
X289262Y10971D01*
X288910Y10619D01*
X287856Y10268D01*
X284693D01*
X297063Y13079D02*
X301281D01*
Y13782D01*
X300929Y14485D01*
X300578Y14837D01*
X299875Y15188D01*
X298821D01*
X298118Y14837D01*
X297415Y14134D01*
X297063Y13079D01*
Y12376D01*
X297415Y11322D01*
X298118Y10619D01*
X298821Y10268D01*
X299875D01*
X300578Y10619D01*
X301281Y11322D01*
X307080Y17648D02*
Y10268D01*
Y14134D02*
X306377Y14837D01*
X305674Y15188D01*
X304620D01*
X303917Y14837D01*
X303214Y14134D01*
X302862Y13079D01*
Y12376D01*
X303214Y11322D01*
X303917Y10619D01*
X304620Y10268D01*
X305674D01*
X306377Y10619D01*
X307080Y11322D01*
X313265Y15188D02*
Y9565D01*
X312914Y8511D01*
X312562Y8159D01*
X311859Y7808D01*
X310805D01*
X310102Y8159D01*
X313265Y14134D02*
X312562Y14837D01*
X311859Y15188D01*
X310805D01*
X310102Y14837D01*
X309399Y14134D01*
X309048Y13079D01*
Y12376D01*
X309399Y11322D01*
X310102Y10619D01*
X310805Y10268D01*
X311859D01*
X312562Y10619D01*
X313265Y11322D01*
X315233Y13079D02*
X319450D01*
Y13782D01*
X319099Y14485D01*
X318748Y14837D01*
X318045Y15188D01*
X316990D01*
X316287Y14837D01*
X315585Y14134D01*
X315233Y13079D01*
Y12376D01*
X315585Y11322D01*
X316287Y10619D01*
X316990Y10268D01*
X318045D01*
X318748Y10619D01*
X319450Y11322D01*
D24*
X158899Y110827D02*
G03*
X158899Y110827I-2994J0D01*
G01*
X416084Y69417D02*
G03*
X416084Y69417I-2994J0D01*
G01*
Y175492D02*
G03*
X416084Y175492I-2994J0D01*
G01*
X468348Y175492D02*
G03*
X468348Y175492I-2994J0D01*
G01*
X156340Y174606D02*
G03*
X156340Y174606I-2994J0D01*
G01*
X117561Y175000D02*
G03*
X117561Y175000I-2994J0D01*
G01*
X58013Y145965D02*
G03*
X58013Y145965I-2994J0D01*
G01*
Y85905D02*
G03*
X58013Y85905I-2994J0D01*
G01*
X19825Y55020D02*
G03*
X19825Y55020I-2994J0D01*
G01*
D25*
X537795Y156299D02*
Y235039D01*
X496457D02*
X537795D01*
X496457Y156299D02*
Y235039D01*
Y156299D02*
X537795D01*
X270669Y2067D02*
Y51280D01*
Y2067D02*
X319882D01*
Y51280D01*
X270669D02*
X319882D01*
D53*
X437244Y8563D02*
D03*
D54*
X452992D02*
D03*
X460866D02*
D03*
X468740D02*
D03*
X437244Y18406D02*
D03*
X452992D02*
D03*
X460866D02*
D03*
X468740D02*
D03*
D55*
X428976Y13484D02*
D03*
X477008D02*
D03*
D56*
X209129Y151015D02*
D03*
X190748D02*
D03*
X227510Y131330D02*
D03*
X245891Y153082D02*
D03*
X264272Y152452D02*
D03*
X116142Y144882D02*
D03*
X116634Y90551D02*
D03*
X464173Y152067D02*
D03*
X445669Y152098D02*
D03*
X264272Y68775D02*
D03*
X227510Y67936D02*
D03*
X245891Y89688D02*
D03*
D57*
X209129Y131330D02*
D03*
X190748D02*
D03*
X227510Y152983D02*
D03*
X245891Y131428D02*
D03*
X264272Y132452D02*
D03*
X116142Y125197D02*
D03*
X116634Y70866D02*
D03*
X464173Y132382D02*
D03*
X445669Y132413D02*
D03*
X264272Y88775D02*
D03*
X227510Y89590D02*
D03*
X245891Y68034D02*
D03*
D58*
X155906Y110827D02*
D03*
X413091Y69417D02*
D03*
Y175492D02*
D03*
X465354D02*
D03*
X153346Y174606D02*
D03*
X114567Y175000D02*
D03*
X55020Y145965D02*
D03*
Y85906D02*
D03*
X16831Y55020D02*
D03*
D59*
X384350Y81321D02*
D03*
X383957Y161319D02*
D03*
Y121320D02*
D03*
X165945Y80866D02*
D03*
X88583Y145571D02*
D03*
Y85138D02*
D03*
X165945Y144469D02*
D03*
D60*
X384350Y71478D02*
D03*
X383957Y151476D02*
D03*
Y111477D02*
D03*
X165945Y70866D02*
D03*
X89665Y48819D02*
D03*
X39665D02*
D03*
X88583Y131791D02*
D03*
Y71358D02*
D03*
X165945Y134469D02*
D03*
X214114Y69417D02*
D03*
Y79417D02*
D03*
Y89417D02*
D03*
Y99417D02*
D03*
X184114Y69417D02*
D03*
Y79417D02*
D03*
Y89417D02*
D03*
X468642Y69449D02*
D03*
Y79449D02*
D03*
Y89449D02*
D03*
Y99449D02*
D03*
X438642Y69449D02*
D03*
Y79449D02*
D03*
Y89449D02*
D03*
D61*
X132677Y23622D02*
D03*
X152362D02*
D03*
X172047D02*
D03*
X350000D02*
D03*
X369685D02*
D03*
X389370D02*
D03*
X201181D02*
D03*
X220866D02*
D03*
X240551D02*
D03*
D62*
X232126Y178051D02*
D03*
X242126D02*
D03*
X178228D02*
D03*
X188228D02*
D03*
X539567Y113878D02*
D03*
Y123878D02*
D03*
X567913Y113878D02*
D03*
Y123878D02*
D03*
X539567Y60591D02*
D03*
Y70591D02*
D03*
X568602Y60041D02*
D03*
Y70041D02*
D03*
D63*
X252126Y178051D02*
D03*
X198228D02*
D03*
D64*
X87205Y23130D02*
D03*
D65*
X77205D02*
D03*
D66*
X567913Y174213D02*
D03*
X22638D02*
D03*
X567913Y22638D02*
D03*
X22638D02*
D03*
D67*
X517126Y180906D02*
D03*
X531890Y166339D02*
D03*
X502362D02*
D03*
D68*
X17913Y85906D02*
D03*
Y126280D02*
D03*
D69*
Y105591D02*
D03*
Y145965D02*
D03*
D70*
X141732Y144469D02*
D03*
X140354Y80591D02*
D03*
D71*
X141732Y139469D02*
D03*
Y134469D02*
D03*
X140354Y75591D02*
D03*
Y70591D02*
D03*
D72*
X299065Y106696D02*
D03*
Y66696D02*
D03*
X333415Y130299D02*
D03*
Y170299D02*
D03*
X350591D02*
D03*
Y130299D02*
D03*
X333415Y66696D02*
D03*
Y106696D02*
D03*
X281890Y130299D02*
D03*
Y170299D02*
D03*
X350591Y106696D02*
D03*
Y66696D02*
D03*
X511614Y92795D02*
D03*
Y132795D02*
D03*
X281890Y106696D02*
D03*
Y66696D02*
D03*
X493110Y132205D02*
D03*
Y92205D02*
D03*
X316240Y106696D02*
D03*
Y66696D02*
D03*
X299065Y170299D02*
D03*
Y130299D02*
D03*
X316240Y170299D02*
D03*
Y130299D02*
D03*
D73*
X539567Y103878D02*
D03*
X567913D02*
D03*
X539567Y50591D02*
D03*
X568602Y50041D02*
D03*
D74*
X314961Y20768D02*
D03*
Y10925D02*
D03*
X295276Y40453D02*
D03*
X275591Y20768D02*
D03*
Y10925D02*
D03*
D75*
Y40453D02*
D03*
D76*
X285433D02*
D03*
X305118D02*
D03*
X314961D02*
D03*
D77*
X295276Y20768D02*
D03*
D78*
X184114Y99417D02*
D03*
X438642Y99449D02*
D03*
D79*
X185039Y116437D02*
D03*
X220500Y175000D02*
D03*
M02*
