G04*
G04 #@! TF.GenerationSoftware,Altium Limited,Altium Designer,18.0.7 (293)*
G04*
G04 Layer_Color=32896*
%FSLAX25Y25*%
%MOIN*%
G70*
G01*
G75*
%ADD10C,0.00500*%
%ADD11C,0.00787*%
%ADD12C,0.00600*%
%ADD19C,0.00394*%
%ADD21C,0.00000*%
%ADD22C,0.00000*%
%ADD23C,0.00781*%
%ADD24C,0.00300*%
%ADD25C,0.00197*%
G36*
X261926Y167551D02*
X222426D01*
Y189051D01*
X261926D01*
Y167551D01*
D02*
G37*
G36*
X208028D02*
X168528D01*
Y189051D01*
X208028D01*
Y167551D01*
D02*
G37*
G36*
X578913Y94078D02*
X557413D01*
Y133578D01*
X578913D01*
Y94078D01*
D02*
G37*
G36*
X550567Y94078D02*
X529067D01*
Y133578D01*
X550567D01*
Y94078D01*
D02*
G37*
G36*
Y40791D02*
X529067D01*
Y80291D01*
X550567D01*
Y40791D01*
D02*
G37*
G36*
X579602Y40241D02*
X558102D01*
Y79741D01*
X579602D01*
Y40241D01*
D02*
G37*
D10*
X536811Y157283D02*
Y190748D01*
Y196654D01*
X533465D02*
X536811D01*
X500787D02*
X533465D01*
X497441D02*
X500787D01*
X497441Y190748D02*
Y196654D01*
Y157283D02*
Y190748D01*
Y157283D02*
X536811D01*
X533465Y196654D02*
Y234055D01*
X500787D02*
X533465D01*
X500787Y196654D02*
Y234055D01*
X497441Y190748D02*
X536811D01*
Y157283D02*
Y190748D01*
Y196654D01*
X533465D02*
X536811D01*
X500787D02*
X533465D01*
X497441D02*
X500787D01*
X497441Y190748D02*
Y196654D01*
Y157283D02*
Y190748D01*
Y157283D02*
X536811D01*
X533465Y196654D02*
Y234055D01*
X500787D02*
X533465D01*
X500787Y196654D02*
Y234055D01*
X497441Y190748D02*
X536811D01*
X312992Y6988D02*
X318898D01*
X312992Y3051D02*
Y6988D01*
X303150Y3051D02*
X312992D01*
X303150D02*
Y7776D01*
X287402D02*
X303150D01*
X287402Y3051D02*
Y7776D01*
X277559Y3051D02*
X287402D01*
X277559D02*
Y6988D01*
X271654D02*
X277559D01*
X318898D02*
Y50295D01*
X271654D02*
X318898D01*
X271654Y6988D02*
Y50295D01*
X312992Y6988D02*
X318898D01*
X312992Y3051D02*
Y6988D01*
X303150Y3051D02*
X312992D01*
X303150D02*
Y7776D01*
X287402D02*
X303150D01*
X287402Y3051D02*
Y7776D01*
X277559Y3051D02*
X287402D01*
X277559D02*
Y6988D01*
X271654D02*
X277559D01*
X318898D02*
Y50295D01*
X271654D02*
X318898D01*
X271654Y6988D02*
Y50295D01*
X536811Y157283D02*
Y190748D01*
Y196654D01*
X533465D02*
X536811D01*
X500787D02*
X533465D01*
X497441D02*
X500787D01*
X497441Y190748D02*
Y196654D01*
Y157283D02*
Y190748D01*
Y157283D02*
X536811D01*
X533465Y196654D02*
Y234055D01*
X500787D02*
X533465D01*
X500787Y196654D02*
Y234055D01*
X497441Y190748D02*
X536811D01*
Y157283D02*
Y190748D01*
Y196654D01*
X533465D02*
X536811D01*
X500787D02*
X533465D01*
X497441D02*
X500787D01*
X497441Y190748D02*
Y196654D01*
Y157283D02*
Y190748D01*
Y157283D02*
X536811D01*
X533465Y196654D02*
Y234055D01*
X500787D02*
X533465D01*
X500787Y196654D02*
Y234055D01*
X497441Y190748D02*
X536811D01*
X312992Y6988D02*
X318898D01*
X312992Y3051D02*
Y6988D01*
X303150Y3051D02*
X312992D01*
X303150D02*
Y7776D01*
X287402D02*
X303150D01*
X287402Y3051D02*
Y7776D01*
X277559Y3051D02*
X287402D01*
X277559D02*
Y6988D01*
X271654D02*
X277559D01*
X318898D02*
Y50295D01*
X271654D02*
X318898D01*
X271654Y6988D02*
Y50295D01*
X312992Y6988D02*
X318898D01*
X312992Y3051D02*
Y6988D01*
X303150Y3051D02*
X312992D01*
X303150D02*
Y7776D01*
X287402D02*
X303150D01*
X287402Y3051D02*
Y7776D01*
X277559Y3051D02*
X287402D01*
X277559D02*
Y6988D01*
X271654D02*
X277559D01*
X318898D02*
Y50295D01*
X271654D02*
X318898D01*
X271654Y6988D02*
Y50295D01*
X206284Y132387D02*
G03*
X208276Y131331I1976J1321D01*
G01*
X209983Y131330D02*
G03*
X211957Y132367I11J2376D01*
G01*
X208275Y151015D02*
G03*
X206301Y149977I-11J-2376D01*
G01*
X211974Y149958D02*
G03*
X209982Y151014I-1976J-1321D01*
G01*
X205447Y148524D02*
G03*
X205180Y148259I87J-354D01*
G01*
X208330Y148334D02*
G03*
X205447Y148524I-4288J-43031D01*
G01*
X208330Y134011D02*
G03*
X205447Y133820I41749J-654584D01*
G01*
X205180Y134086D02*
G03*
X205447Y133820I357J92D01*
G01*
X209928Y148334D02*
G03*
X212811Y148524I-41797J655314D01*
G01*
X213077Y148259D02*
G03*
X212811Y148524I-357J-92D01*
G01*
X212811Y133820D02*
G03*
X213077Y134086I-87J354D01*
G01*
X209928Y134011D02*
G03*
X212811Y133820I4288J43031D01*
G01*
X208330Y133482D02*
G03*
X207068Y132314I3661J-5218D01*
G01*
X205180Y134086D02*
G03*
X206952Y132314I1772J0D01*
G01*
X213077Y148259D02*
G03*
X211306Y150031I-1772J0D01*
G01*
X206952D02*
G03*
X205180Y148259I0J-1772D01*
G01*
X211306Y132314D02*
G03*
X213077Y134086I0J1772D01*
G01*
X207948Y131330D02*
G03*
X210310Y131330I1181J0D01*
G01*
Y151015D02*
G03*
X207948Y151015I-1181J0D01*
G01*
X187903Y132387D02*
G03*
X189895Y131331I1976J1321D01*
G01*
X191602Y131330D02*
G03*
X193576Y132367I11J2376D01*
G01*
X189894Y151015D02*
G03*
X187920Y149977I-11J-2376D01*
G01*
X193593Y149958D02*
G03*
X191601Y151014I-1976J-1321D01*
G01*
X187066Y148524D02*
G03*
X186799Y148259I87J-354D01*
G01*
X189949Y148334D02*
G03*
X187066Y148524I-4288J-43031D01*
G01*
X189949Y134011D02*
G03*
X187066Y133820I41749J-654584D01*
G01*
X186799Y134086D02*
G03*
X187066Y133820I357J92D01*
G01*
X191547Y148334D02*
G03*
X194430Y148524I-41797J655314D01*
G01*
X194697Y148259D02*
G03*
X194430Y148524I-357J-92D01*
G01*
X194430Y133820D02*
G03*
X194697Y134086I-87J354D01*
G01*
X191547Y134011D02*
G03*
X194430Y133820I4288J43031D01*
G01*
X189949Y133482D02*
G03*
X188688Y132314I3661J-5218D01*
G01*
X186799Y134086D02*
G03*
X188571Y132314I1772J0D01*
G01*
X194697Y148259D02*
G03*
X192925Y150031I-1772J0D01*
G01*
X188571D02*
G03*
X186799Y148259I0J-1772D01*
G01*
X192925Y132314D02*
G03*
X194697Y134086I0J1772D01*
G01*
X189567Y131330D02*
G03*
X191929Y131330I1181J0D01*
G01*
Y151015D02*
G03*
X189567Y151015I-1181J0D01*
G01*
X113297Y126254D02*
G03*
X115289Y125198I1976J1321D01*
G01*
X116996Y125197D02*
G03*
X118970Y126234I11J2376D01*
G01*
X115287Y144882D02*
G03*
X113313Y143844I-11J-2376D01*
G01*
X118987Y143825D02*
G03*
X116995Y144881I-1976J-1321D01*
G01*
X112459Y142391D02*
G03*
X112193Y142126I87J-354D01*
G01*
X115343Y142201D02*
G03*
X112459Y142391I-4288J-43031D01*
G01*
X115343Y127878D02*
G03*
X112459Y127688I41749J-654584D01*
G01*
X112193Y127953D02*
G03*
X112459Y127688I357J92D01*
G01*
X116941Y142201D02*
G03*
X119824Y142391I-41797J655314D01*
G01*
X120090Y142126D02*
G03*
X119824Y142391I-357J-92D01*
G01*
X119824Y127688D02*
G03*
X120090Y127953I-87J354D01*
G01*
X116941Y127878D02*
G03*
X119824Y127688I4288J43031D01*
G01*
X115343Y127349D02*
G03*
X114081Y126181I3661J-5218D01*
G01*
X112193Y127953D02*
G03*
X113965Y126181I1772J0D01*
G01*
X120090Y142126D02*
G03*
X118319Y143898I-1772J0D01*
G01*
X113965D02*
G03*
X112193Y142126I0J-1772D01*
G01*
X118319Y126181D02*
G03*
X120090Y127953I0J1772D01*
G01*
X114961Y125197D02*
G03*
X117323Y125197I1181J0D01*
G01*
Y144882D02*
G03*
X114961Y144882I-1181J0D01*
G01*
X113789Y71923D02*
G03*
X115781Y70867I1976J1321D01*
G01*
X117488Y70866D02*
G03*
X119462Y71904I11J2376D01*
G01*
X115779Y90551D02*
G03*
X113806Y89514I-11J-2376D01*
G01*
X119479Y89494D02*
G03*
X117487Y90550I-1976J-1321D01*
G01*
X112952Y88060D02*
G03*
X112685Y87795I87J-354D01*
G01*
X115835Y87870D02*
G03*
X112952Y88060I-4288J-43031D01*
G01*
X115835Y73547D02*
G03*
X112952Y73357I41749J-654584D01*
G01*
X112685Y73622D02*
G03*
X112952Y73357I357J92D01*
G01*
X117433Y87870D02*
G03*
X120316Y88060I-41797J655314D01*
G01*
X120582Y87795D02*
G03*
X120316Y88060I-357J-92D01*
G01*
X120316Y73357D02*
G03*
X120582Y73622I-87J354D01*
G01*
X117433Y73547D02*
G03*
X120316Y73357I4288J43031D01*
G01*
X115835Y73019D02*
G03*
X114573Y71850I3661J-5218D01*
G01*
X112685Y73622D02*
G03*
X114457Y71850I1772J0D01*
G01*
X120582Y87795D02*
G03*
X118811Y89567I-1772J0D01*
G01*
X114457D02*
G03*
X112685Y87795I0J-1772D01*
G01*
X118811Y71850D02*
G03*
X120582Y73622I0J1772D01*
G01*
X115453Y70866D02*
G03*
X117815Y70866I1181J0D01*
G01*
Y90551D02*
G03*
X115453Y90551I-1181J0D01*
G01*
X461328Y133439D02*
G03*
X463320Y132383I1976J1321D01*
G01*
X465028Y132382D02*
G03*
X467001Y133420I11J2376D01*
G01*
X463319Y152067D02*
G03*
X461345Y151029I-11J-2376D01*
G01*
X467018Y151010D02*
G03*
X465026Y152066I-1976J-1321D01*
G01*
X460491Y149576D02*
G03*
X460225Y149311I87J-354D01*
G01*
X463374Y149386D02*
G03*
X460491Y149576I-4288J-43031D01*
G01*
X463374Y135063D02*
G03*
X460491Y134873I41749J-654584D01*
G01*
X460225Y135138D02*
G03*
X460491Y134873I357J92D01*
G01*
X464972Y149386D02*
G03*
X467856Y149576I-41797J655314D01*
G01*
X468122Y149311D02*
G03*
X467856Y149576I-357J-92D01*
G01*
X467856Y134873D02*
G03*
X468122Y135138I-87J354D01*
G01*
X464972Y135063D02*
G03*
X467856Y134873I4288J43031D01*
G01*
X463374Y134534D02*
G03*
X462113Y133366I3661J-5218D01*
G01*
X460225Y135138D02*
G03*
X461996Y133366I1772J0D01*
G01*
X468122Y149311D02*
G03*
X466350Y151083I-1772J0D01*
G01*
X461996D02*
G03*
X460225Y149311I0J-1772D01*
G01*
X466350Y133366D02*
G03*
X468122Y135138I0J1772D01*
G01*
X462992Y132382D02*
G03*
X465354Y132382I1181J0D01*
G01*
Y152067D02*
G03*
X462992Y152067I-1181J0D01*
G01*
X442824Y133470D02*
G03*
X444816Y132415I1976J1321D01*
G01*
X446524Y132413D02*
G03*
X448498Y133451I11J2376D01*
G01*
X444815Y152098D02*
G03*
X442841Y151061I-11J-2376D01*
G01*
X448514Y151042D02*
G03*
X446522Y152097I-1976J-1321D01*
G01*
X441987Y149608D02*
G03*
X441721Y149343I87J-354D01*
G01*
X444870Y149417D02*
G03*
X441987Y149608I-4288J-43031D01*
G01*
X444870Y135094D02*
G03*
X441987Y134904I41749J-654584D01*
G01*
X441721Y135169D02*
G03*
X441987Y134904I357J92D01*
G01*
X446468Y149417D02*
G03*
X449352Y149608I-41797J655314D01*
G01*
X449618Y149343D02*
G03*
X449352Y149608I-357J-92D01*
G01*
X449352Y134904D02*
G03*
X449618Y135169I-87J354D01*
G01*
X446468Y135094D02*
G03*
X449352Y134904I4288J43031D01*
G01*
X444870Y134566D02*
G03*
X443609Y133398I3661J-5218D01*
G01*
X441721Y135169D02*
G03*
X443492Y133398I1772J0D01*
G01*
X449618Y149343D02*
G03*
X447846Y151114I-1772J0D01*
G01*
X443492D02*
G03*
X441721Y149343I0J-1772D01*
G01*
X447846Y133398D02*
G03*
X449618Y135169I0J1772D01*
G01*
X444488Y132413D02*
G03*
X446850Y132413I1181J0D01*
G01*
Y152098D02*
G03*
X444488Y152098I-1181J0D01*
G01*
X211973Y132385D02*
X211992Y132412D01*
X212051Y132492D01*
X206212Y132487D02*
X206280Y132393D01*
X206284Y132387D01*
X206266Y149932D02*
X206283Y149960D01*
X206207Y149852D02*
X206266Y149932D01*
X211978Y149951D02*
X212046Y149858D01*
X211974Y149958D02*
X211978Y149951D01*
X209928Y148862D02*
X210006Y148874D01*
X210098Y148916D01*
X210197Y148990D01*
X210281Y149072D01*
X210503Y149335D01*
X210690Y149576D01*
X210859Y149781D01*
X211006Y149931D01*
X211107Y150005D01*
X211189Y150031D01*
X207068D02*
X207174Y149991D01*
X207313Y149873D01*
X207497Y149664D01*
X207724Y149374D01*
X207842Y149225D01*
X207978Y149071D01*
X208073Y148980D01*
X208192Y148898D01*
X208269Y148869D01*
X208330Y148862D01*
X211141Y132324D02*
X211189Y132314D01*
X211084Y132353D02*
X211141Y132324D01*
X211019Y132403D02*
X211084Y132353D01*
X210945Y132472D02*
X211019Y132403D01*
X210858Y132566D02*
X210945Y132472D01*
X210761Y132680D02*
X210858Y132566D01*
X210653Y132816D02*
X210761Y132680D01*
X210534Y132970D02*
X210653Y132816D01*
X210416Y133118D02*
X210534Y132970D01*
X210280Y133273D02*
X210416Y133118D01*
X210235Y133319D02*
X210280Y133273D01*
X210185Y133365D02*
X210235Y133319D01*
X210129Y133408D02*
X210185Y133365D01*
X210066Y133447D02*
X210129Y133408D01*
X210029Y133463D02*
X210066Y133447D01*
X209989Y133475D02*
X210029Y133463D01*
X209959Y133480D02*
X209989Y133475D01*
X209928Y133482D02*
X209959Y133480D01*
X208276Y131331D02*
X209983Y131330D01*
X208275Y151015D02*
X209982Y151013D01*
X208330Y133482D02*
Y148862D01*
X205180Y134086D02*
Y148259D01*
X213078Y134086D02*
Y148259D01*
X209928Y133482D02*
Y148862D01*
X208330Y148334D02*
X209928D01*
X208330Y134011D02*
X209928D01*
X208330Y133482D02*
X209928D01*
X208330Y148862D02*
X209928D01*
X206952Y150031D02*
X211306D01*
X206952Y132314D02*
X211306D01*
X193593Y132385D02*
X193611Y132412D01*
X193670Y132492D01*
X187831Y132487D02*
X187899Y132393D01*
X187903Y132387D01*
X187885Y149932D02*
X187902Y149960D01*
X187826Y149852D02*
X187885Y149932D01*
X193597Y149951D02*
X193665Y149858D01*
X193593Y149958D02*
X193597Y149951D01*
X191547Y148862D02*
X191625Y148874D01*
X191717Y148916D01*
X191816Y148990D01*
X191901Y149072D01*
X192122Y149335D01*
X192309Y149576D01*
X192478Y149781D01*
X192625Y149931D01*
X192726Y150005D01*
X192808Y150031D01*
X188688D02*
X188793Y149991D01*
X188932Y149873D01*
X189116Y149664D01*
X189343Y149374D01*
X189461Y149225D01*
X189597Y149071D01*
X189692Y148980D01*
X189811Y148898D01*
X189888Y148869D01*
X189949Y148862D01*
X192760Y132324D02*
X192808Y132314D01*
X192703Y132353D02*
X192760Y132324D01*
X192638Y132403D02*
X192703Y132353D01*
X192564Y132472D02*
X192638Y132403D01*
X192477Y132566D02*
X192564Y132472D01*
X192380Y132680D02*
X192477Y132566D01*
X192272Y132816D02*
X192380Y132680D01*
X192153Y132970D02*
X192272Y132816D01*
X192035Y133118D02*
X192153Y132970D01*
X191899Y133273D02*
X192035Y133118D01*
X191854Y133319D02*
X191899Y133273D01*
X191804Y133365D02*
X191854Y133319D01*
X191749Y133408D02*
X191804Y133365D01*
X191685Y133447D02*
X191749Y133408D01*
X191648Y133463D02*
X191685Y133447D01*
X191608Y133475D02*
X191648Y133463D01*
X191578Y133480D02*
X191608Y133475D01*
X191547Y133482D02*
X191578Y133480D01*
X189895Y131331D02*
X191602Y131330D01*
X189894Y151015D02*
X191601Y151013D01*
X189949Y133482D02*
Y148862D01*
X186799Y134086D02*
Y148259D01*
X194697Y134086D02*
Y148259D01*
X191547Y133482D02*
Y148862D01*
X189949Y148334D02*
X191547D01*
X189949Y134011D02*
X191547D01*
X189949Y133482D02*
X191547D01*
X189949Y148862D02*
X191547D01*
X188571Y150031D02*
X192925D01*
X188571Y132314D02*
X192925D01*
X118986Y126253D02*
X119004Y126279D01*
X119064Y126360D01*
X113224Y126354D02*
X113292Y126260D01*
X113297Y126254D01*
X113279Y143799D02*
X113296Y143827D01*
X113220Y143719D02*
X113279Y143799D01*
X118991Y143818D02*
X119059Y143725D01*
X118987Y143825D02*
X118991Y143818D01*
X116941Y142729D02*
X117018Y142741D01*
X117110Y142783D01*
X117210Y142857D01*
X117294Y142939D01*
X117515Y143202D01*
X117703Y143443D01*
X117872Y143648D01*
X118019Y143798D01*
X118120Y143872D01*
X118202Y143898D01*
X114081D02*
X114186Y143859D01*
X114326Y143740D01*
X114510Y143531D01*
X114737Y143242D01*
X114855Y143093D01*
X114990Y142938D01*
X115086Y142847D01*
X115205Y142765D01*
X115282Y142736D01*
X115343Y142729D01*
X118154Y126191D02*
X118202Y126181D01*
X118097Y126220D02*
X118154Y126191D01*
X118031Y126270D02*
X118097Y126220D01*
X117958Y126339D02*
X118031Y126270D01*
X117870Y126433D02*
X117958Y126339D01*
X117774Y126548D02*
X117870Y126433D01*
X117666Y126683D02*
X117774Y126548D01*
X117546Y126837D02*
X117666Y126683D01*
X117429Y126985D02*
X117546Y126837D01*
X117293Y127140D02*
X117429Y126985D01*
X117247Y127187D02*
X117293Y127140D01*
X117198Y127232D02*
X117247Y127187D01*
X117142Y127275D02*
X117198Y127232D01*
X117079Y127314D02*
X117142Y127275D01*
X117042Y127330D02*
X117079Y127314D01*
X117002Y127342D02*
X117042Y127330D01*
X116972Y127348D02*
X117002Y127342D01*
X116941Y127349D02*
X116972Y127348D01*
X115289Y125198D02*
X116996Y125197D01*
X115287Y144882D02*
X116995Y144881D01*
X115343Y127349D02*
Y142729D01*
X112193Y127953D02*
Y142126D01*
X120090Y127953D02*
Y142126D01*
X116941Y127349D02*
Y142729D01*
X115343Y142201D02*
X116941D01*
X115343Y127878D02*
X116941D01*
X115343Y127349D02*
X116941D01*
X115343Y142729D02*
X116941D01*
X113965Y143898D02*
X118319D01*
X113965Y126181D02*
X118319D01*
X119478Y71922D02*
X119497Y71949D01*
X119556Y72029D01*
X113717Y72023D02*
X113785Y71930D01*
X113789Y71923D01*
X113771Y89469D02*
X113788Y89496D01*
X113712Y89388D02*
X113771Y89469D01*
X119483Y89488D02*
X119551Y89394D01*
X119479Y89494D02*
X119483Y89488D01*
X117433Y88399D02*
X117510Y88410D01*
X117602Y88452D01*
X117702Y88526D01*
X117786Y88609D01*
X118008Y88871D01*
X118195Y89112D01*
X118364Y89317D01*
X118511Y89467D01*
X118612Y89541D01*
X118694Y89567D01*
X114573D02*
X114679Y89528D01*
X114818Y89409D01*
X115002Y89201D01*
X115229Y88911D01*
X115347Y88762D01*
X115483Y88608D01*
X115578Y88516D01*
X115697Y88434D01*
X115774Y88406D01*
X115835Y88399D01*
X118646Y71860D02*
X118694Y71850D01*
X118589Y71890D02*
X118646Y71860D01*
X118524Y71939D02*
X118589Y71890D01*
X118450Y72008D02*
X118524Y71939D01*
X118363Y72102D02*
X118450Y72008D01*
X118266Y72217D02*
X118363Y72102D01*
X118158Y72353D02*
X118266Y72217D01*
X118038Y72507D02*
X118158Y72353D01*
X117921Y72654D02*
X118038Y72507D01*
X117785Y72810D02*
X117921Y72654D01*
X117740Y72856D02*
X117785Y72810D01*
X117690Y72901D02*
X117740Y72856D01*
X117634Y72944D02*
X117690Y72901D01*
X117571Y72983D02*
X117634Y72944D01*
X117534Y72999D02*
X117571Y72983D01*
X117494Y73012D02*
X117534Y72999D01*
X117464Y73017D02*
X117494Y73012D01*
X117433Y73019D02*
X117464Y73017D01*
X115781Y70867D02*
X117488Y70866D01*
X115779Y90551D02*
X117487Y90550D01*
X115835Y73019D02*
Y88399D01*
X112685Y73622D02*
Y87795D01*
X120582Y73622D02*
Y87795D01*
X117433Y73019D02*
Y88399D01*
X115835Y87870D02*
X117433D01*
X115835Y73547D02*
X117433D01*
X115835Y73019D02*
X117433D01*
X115835Y88399D02*
X117433D01*
X114457Y89567D02*
X118811D01*
X114457Y71850D02*
X118811D01*
X467018Y133438D02*
X467036Y133464D01*
X467095Y133545D01*
X461256Y133539D02*
X461324Y133445D01*
X461328Y133439D01*
X461311Y150984D02*
X461328Y151012D01*
X461251Y150904D02*
X461311Y150984D01*
X467023Y151004D02*
X467091Y150910D01*
X467018Y151010D02*
X467023Y151004D01*
X464972Y149914D02*
X465050Y149926D01*
X465142Y149968D01*
X465241Y150042D01*
X465326Y150124D01*
X465547Y150387D01*
X465735Y150628D01*
X465904Y150833D01*
X466051Y150983D01*
X466151Y151057D01*
X466234Y151083D01*
X462113D02*
X462218Y151044D01*
X462357Y150925D01*
X462541Y150716D01*
X462769Y150427D01*
X462887Y150278D01*
X463022Y150123D01*
X463117Y150032D01*
X463236Y149950D01*
X463313Y149921D01*
X463374Y149914D01*
X466185Y133376D02*
X466234Y133366D01*
X466129Y133405D02*
X466185Y133376D01*
X466063Y133455D02*
X466129Y133405D01*
X465989Y133524D02*
X466063Y133455D01*
X465902Y133618D02*
X465989Y133524D01*
X465805Y133733D02*
X465902Y133618D01*
X465697Y133869D02*
X465805Y133733D01*
X465578Y134022D02*
X465697Y133869D01*
X465460Y134170D02*
X465578Y134022D01*
X465325Y134326D02*
X465460Y134170D01*
X465279Y134372D02*
X465325Y134326D01*
X465229Y134417D02*
X465279Y134372D01*
X465174Y134460D02*
X465229Y134417D01*
X465110Y134499D02*
X465174Y134460D01*
X465073Y134515D02*
X465110Y134499D01*
X465033Y134527D02*
X465073Y134515D01*
X465003Y134533D02*
X465033Y134527D01*
X464972Y134534D02*
X465003Y134533D01*
X463320Y132383D02*
X465028Y132382D01*
X463319Y152067D02*
X465026Y152066D01*
X463374Y134534D02*
Y149914D01*
X460225Y135138D02*
Y149311D01*
X468122Y135138D02*
Y149311D01*
X464972Y134534D02*
Y149914D01*
X463374Y149386D02*
X464972D01*
X463374Y135063D02*
X464972D01*
X463374Y134534D02*
X464972D01*
X463374Y149914D02*
X464972D01*
X461996Y151083D02*
X466350D01*
X461996Y133366D02*
X466350D01*
X448514Y133469D02*
X448532Y133496D01*
X448591Y133576D01*
X442752Y133571D02*
X442820Y133477D01*
X442824Y133470D01*
X442807Y151016D02*
X442824Y151044D01*
X442747Y150936D02*
X442807Y151016D01*
X448519Y151035D02*
X448587Y150941D01*
X448514Y151042D02*
X448519Y151035D01*
X446468Y149946D02*
X446546Y149957D01*
X446638Y149999D01*
X446738Y150073D01*
X446822Y150156D01*
X447043Y150419D01*
X447231Y150659D01*
X447400Y150864D01*
X447547Y151015D01*
X447647Y151089D01*
X447730Y151114D01*
X443609D02*
X443714Y151075D01*
X443853Y150957D01*
X444037Y150748D01*
X444265Y150458D01*
X444383Y150309D01*
X444518Y150155D01*
X444613Y150064D01*
X444732Y149982D01*
X444809Y149953D01*
X444870Y149946D01*
X447681Y133407D02*
X447730Y133398D01*
X447625Y133437D02*
X447681Y133407D01*
X447559Y133486D02*
X447625Y133437D01*
X447485Y133555D02*
X447559Y133486D01*
X447398Y133649D02*
X447485Y133555D01*
X447301Y133764D02*
X447398Y133649D01*
X447193Y133900D02*
X447301Y133764D01*
X447074Y134054D02*
X447193Y133900D01*
X446956Y134202D02*
X447074Y134054D01*
X446821Y134357D02*
X446956Y134202D01*
X446775Y134403D02*
X446821Y134357D01*
X446725Y134448D02*
X446775Y134403D01*
X446670Y134492D02*
X446725Y134448D01*
X446606Y134530D02*
X446670Y134492D01*
X446569Y134547D02*
X446606Y134530D01*
X446529Y134559D02*
X446569Y134547D01*
X446499Y134564D02*
X446529Y134559D01*
X446468Y134566D02*
X446499Y134564D01*
X444816Y132415D02*
X446524Y132413D01*
X444815Y152098D02*
X446522Y152097D01*
X444870Y134566D02*
Y149946D01*
X441721Y135169D02*
Y149343D01*
X449618Y135169D02*
Y149343D01*
X446468Y134566D02*
Y149946D01*
X444870Y149417D02*
X446468D01*
X444870Y135094D02*
X446468D01*
X444870Y134566D02*
X446468D01*
X444870Y149946D02*
X446468D01*
X443492Y151114D02*
X447846D01*
X443492Y133398D02*
X447846D01*
D11*
X541575Y182087D02*
G03*
X541575Y182087I-394J0D01*
G01*
D02*
G03*
X541575Y182087I-394J0D01*
G01*
D02*
G03*
X541575Y182087I-394J0D01*
G01*
D02*
G03*
X541575Y182087I-394J0D01*
G01*
X428189Y26870D02*
X477795D01*
Y98D02*
Y26870D01*
X428189Y98D02*
X477795D01*
X428189D02*
Y26870D01*
X451811Y-23524D02*
Y98D01*
X432126Y-23524D02*
X451811D01*
X432126D02*
Y98D01*
X118898Y35827D02*
X185827D01*
Y394D02*
Y35827D01*
X118898Y394D02*
X185827D01*
X118898D02*
Y35827D01*
X137205Y-19606D02*
Y394D01*
Y-19606D02*
X167520D01*
Y394D01*
X142520Y-74409D02*
Y-19606D01*
Y-74409D02*
X162205D01*
Y-19606D01*
X336220Y35827D02*
X403150D01*
Y394D02*
Y35827D01*
X336220Y394D02*
X403150D01*
X336220D02*
Y35827D01*
X354528Y-19606D02*
Y394D01*
Y-19606D02*
X384843D01*
Y394D01*
X359843Y-74409D02*
Y-19606D01*
Y-74409D02*
X379528D01*
Y-19606D01*
X187402Y35827D02*
X254331D01*
Y394D02*
Y35827D01*
X187402Y394D02*
X254331D01*
X187402D02*
Y35827D01*
X205709Y-19606D02*
Y394D01*
Y-19606D02*
X236024D01*
Y394D01*
X211024Y-74409D02*
Y-19606D01*
Y-74409D02*
X230709D01*
Y-19606D01*
X497441Y157283D02*
X536811D01*
X497441D02*
Y196654D01*
X536811D01*
Y157283D02*
Y196654D01*
X533465D02*
Y234055D01*
X500787D02*
X533465D01*
X500787Y196654D02*
Y234055D01*
D12*
X222426Y189051D02*
X261926D01*
X222426Y167551D02*
Y189051D01*
Y167551D02*
X261926D01*
Y189051D01*
X168528D02*
X208028D01*
X168528Y167551D02*
Y189051D01*
Y167551D02*
X208028D01*
Y189051D01*
X529067Y94078D02*
X550567D01*
X529067D02*
Y133578D01*
X550567D01*
Y94078D02*
Y133578D01*
X557413Y94078D02*
X578913D01*
X557413D02*
Y133578D01*
X578913D01*
Y94078D02*
Y133578D01*
X529067Y40791D02*
X550567D01*
X529067D02*
Y80291D01*
X550567D01*
Y40791D02*
Y80291D01*
X558102Y40241D02*
X579602D01*
X558102D02*
Y79741D01*
X579602D01*
Y40241D02*
Y79741D01*
D19*
X135430Y131402D02*
G03*
X135430Y147535I6302J8066D01*
G01*
X134052Y67524D02*
G03*
X134052Y83657I6302J8066D01*
G01*
X190453Y101150D02*
G03*
X190453Y101150I-1969J0D01*
G01*
X444980Y101181D02*
G03*
X444980Y101181I-1969J0D01*
G01*
X135433Y131402D02*
Y147535D01*
X134055Y67524D02*
Y83657D01*
X184941Y64142D02*
X213287D01*
X184941Y104693D02*
X213287D01*
Y64142D02*
Y104693D01*
X184941Y64142D02*
Y104693D01*
X439469Y64173D02*
X467815D01*
X439469Y104724D02*
X467815D01*
Y64173D02*
Y104724D01*
X439469Y64173D02*
Y104724D01*
X421496Y30807D02*
X484488D01*
Y-27461D02*
Y30807D01*
X421496Y-27461D02*
X484488D01*
X421496D02*
Y30807D01*
X111024Y42913D02*
X189764D01*
Y-78346D02*
Y42913D01*
X111024Y-78346D02*
X189764D01*
X111024D02*
Y42913D01*
X328346D02*
X407087D01*
Y-78346D02*
Y42913D01*
X328346Y-78346D02*
X407087D01*
X328346D02*
Y42913D01*
X179528D02*
X258268D01*
Y-78346D02*
Y42913D01*
X179528Y-78346D02*
X258268D01*
X179528D02*
Y42913D01*
X490476Y153346D02*
X543776D01*
X490476D02*
Y237992D01*
X543776D01*
Y153346D02*
Y237992D01*
X139764Y139469D02*
X143701D01*
X141732Y137500D02*
Y141437D01*
X138386Y75591D02*
X142323D01*
X140354Y73622D02*
Y77559D01*
X199114Y82449D02*
Y86386D01*
X197146Y84417D02*
X201083D01*
X453642Y82480D02*
Y86417D01*
X451673Y84449D02*
X455610D01*
D21*
X533858Y161417D02*
Y171260D01*
X529921D02*
X533858D01*
X529921Y161417D02*
Y171260D01*
Y161417D02*
X533858D01*
X504331D02*
Y171260D01*
X500394D02*
X504331D01*
X500394Y161417D02*
Y171260D01*
Y161417D02*
X504331D01*
X522047Y178346D02*
Y183465D01*
X512205D02*
X522047D01*
X512205Y178346D02*
Y183465D01*
Y178346D02*
X522047D01*
X259926Y173551D02*
G03*
X259926Y173551I-4000J0D01*
G01*
X231476Y186051D02*
G03*
X231476Y186051I-500J0D01*
G01*
X206028Y173551D02*
G03*
X206028Y173551I-4000J0D01*
G01*
X177578Y186051D02*
G03*
X177578Y186051I-500J0D01*
G01*
X548067Y125028D02*
G03*
X548067Y125028I-500J0D01*
G01*
X539067Y100078D02*
G03*
X539067Y100078I-4000J0D01*
G01*
X576413Y125028D02*
G03*
X576413Y125028I-500J0D01*
G01*
X567413Y100078D02*
G03*
X567413Y100078I-4000J0D01*
G01*
X548067Y71741D02*
G03*
X548067Y71741I-500J0D01*
G01*
X539067Y46791D02*
G03*
X539067Y46791I-4000J0D01*
G01*
X577102Y71191D02*
G03*
X577102Y71191I-500J0D01*
G01*
X568102Y46241D02*
G03*
X568102Y46241I-4000J0D01*
G01*
D22*
X316535Y37500D02*
Y43406D01*
X313386D02*
X316535D01*
X313386Y37500D02*
Y43406D01*
Y37500D02*
X316535D01*
X306693D02*
Y43406D01*
X303543D02*
X306693D01*
X303543Y37500D02*
Y43406D01*
Y37500D02*
X306693D01*
X277165D02*
Y43406D01*
X274016D02*
X277165D01*
X274016Y37500D02*
Y43406D01*
Y37500D02*
X277165D01*
X287008D02*
Y43406D01*
X283858D02*
X287008D01*
X283858Y37500D02*
Y43406D01*
Y37500D02*
X287008D01*
X303150Y3051D02*
X318898D01*
X303150D02*
Y7776D01*
X287402D02*
X303150D01*
X287402Y3051D02*
Y7776D01*
X271654Y3051D02*
X287402D01*
X292323Y19193D02*
X298228D01*
Y22343D01*
X292323D02*
X298228D01*
X292323Y19193D02*
Y22343D01*
D23*
X531890Y187706D02*
X528727D01*
X527672Y187355D01*
X527321Y187003D01*
X526969Y186300D01*
Y185246D01*
X527321Y184543D01*
X527672Y184192D01*
X528727Y183840D01*
X531890D01*
Y191220D01*
X520046Y185597D02*
X520398Y184895D01*
X521101Y184192D01*
X521803Y183840D01*
X523209D01*
X523912Y184192D01*
X524615Y184895D01*
X524966Y185597D01*
X525318Y186652D01*
Y188409D01*
X524966Y189463D01*
X524615Y190166D01*
X523912Y190869D01*
X523209Y191220D01*
X521803D01*
X521101Y190869D01*
X520398Y190166D01*
X520046Y189463D01*
X517973Y183840D02*
Y191220D01*
Y183840D02*
X514810D01*
X513755Y184192D01*
X513404Y184543D01*
X513052Y185246D01*
Y185949D01*
X513404Y186652D01*
X513755Y187003D01*
X514810Y187355D01*
X517973D02*
X514810D01*
X513755Y187706D01*
X513404Y188057D01*
X513052Y188760D01*
Y189815D01*
X513404Y190518D01*
X513755Y190869D01*
X514810Y191220D01*
X517973D01*
X501033Y183840D02*
X505602D01*
Y191220D01*
X501033D01*
X505602Y187355D02*
X502790D01*
X499803Y183840D02*
Y191220D01*
Y183840D02*
X497343D01*
X496289Y184192D01*
X495586Y184895D01*
X495234Y185597D01*
X494883Y186652D01*
Y188409D01*
X495234Y189463D01*
X495586Y190166D01*
X496289Y190869D01*
X497343Y191220D01*
X499803D01*
X487959Y185597D02*
X488311Y184895D01*
X489014Y184192D01*
X489717Y183840D01*
X491122D01*
X491825Y184192D01*
X492528Y184895D01*
X492880Y185597D01*
X493231Y186652D01*
Y188409D01*
X492880Y189463D01*
X492528Y190166D01*
X491825Y190869D01*
X491122Y191220D01*
X489717D01*
X489014Y190869D01*
X488311Y190166D01*
X487959Y189463D01*
Y188409D01*
X489717D02*
X487959D01*
X481704Y183840D02*
X486272D01*
Y191220D01*
X481704D01*
X486272Y187355D02*
X483461D01*
X531890Y187706D02*
X528727D01*
X527672Y187355D01*
X527321Y187003D01*
X526969Y186300D01*
Y185246D01*
X527321Y184543D01*
X527672Y184192D01*
X528727Y183840D01*
X531890D01*
Y191220D01*
X520046Y185597D02*
X520398Y184895D01*
X521101Y184192D01*
X521803Y183840D01*
X523209D01*
X523912Y184192D01*
X524615Y184895D01*
X524966Y185597D01*
X525318Y186652D01*
Y188409D01*
X524966Y189463D01*
X524615Y190166D01*
X523912Y190869D01*
X523209Y191220D01*
X521803D01*
X521101Y190869D01*
X520398Y190166D01*
X520046Y189463D01*
X517973Y183840D02*
Y191220D01*
Y183840D02*
X514810D01*
X513755Y184192D01*
X513404Y184543D01*
X513052Y185246D01*
Y185949D01*
X513404Y186652D01*
X513755Y187003D01*
X514810Y187355D01*
X517973D02*
X514810D01*
X513755Y187706D01*
X513404Y188057D01*
X513052Y188760D01*
Y189815D01*
X513404Y190518D01*
X513755Y190869D01*
X514810Y191220D01*
X517973D01*
X501033Y183840D02*
X505602D01*
Y191220D01*
X501033D01*
X505602Y187355D02*
X502790D01*
X499803Y183840D02*
Y191220D01*
Y183840D02*
X497343D01*
X496289Y184192D01*
X495586Y184895D01*
X495234Y185597D01*
X494883Y186652D01*
Y188409D01*
X495234Y189463D01*
X495586Y190166D01*
X496289Y190869D01*
X497343Y191220D01*
X499803D01*
X487959Y185597D02*
X488311Y184895D01*
X489014Y184192D01*
X489717Y183840D01*
X491122D01*
X491825Y184192D01*
X492528Y184895D01*
X492880Y185597D01*
X493231Y186652D01*
Y188409D01*
X492880Y189463D01*
X492528Y190166D01*
X491825Y190869D01*
X491122Y191220D01*
X489717D01*
X489014Y190869D01*
X488311Y190166D01*
X487959Y189463D01*
Y188409D01*
X489717D02*
X487959D01*
X481704Y183840D02*
X486272D01*
Y191220D01*
X481704D01*
X486272Y187355D02*
X483461D01*
X270776Y13782D02*
X273939D01*
X274993Y14134D01*
X275344Y14485D01*
X275696Y15188D01*
Y16242D01*
X275344Y16945D01*
X274993Y17297D01*
X273939Y17648D01*
X270776D01*
Y10268D01*
X282619Y15891D02*
X282268Y16594D01*
X281565Y17297D01*
X280862Y17648D01*
X279456D01*
X278753Y17297D01*
X278050Y16594D01*
X277699Y15891D01*
X277348Y14837D01*
Y13079D01*
X277699Y12025D01*
X278050Y11322D01*
X278753Y10619D01*
X279456Y10268D01*
X280862D01*
X281565Y10619D01*
X282268Y11322D01*
X282619Y12025D01*
X284693Y17648D02*
Y10268D01*
Y17648D02*
X287856D01*
X288910Y17297D01*
X289262Y16945D01*
X289613Y16242D01*
Y15539D01*
X289262Y14837D01*
X288910Y14485D01*
X287856Y14134D01*
X284693D02*
X287856D01*
X288910Y13782D01*
X289262Y13431D01*
X289613Y12728D01*
Y11673D01*
X289262Y10971D01*
X288910Y10619D01*
X287856Y10268D01*
X284693D01*
X297063Y13079D02*
X301281D01*
Y13782D01*
X300929Y14485D01*
X300578Y14837D01*
X299875Y15188D01*
X298821D01*
X298118Y14837D01*
X297415Y14134D01*
X297063Y13079D01*
Y12376D01*
X297415Y11322D01*
X298118Y10619D01*
X298821Y10268D01*
X299875D01*
X300578Y10619D01*
X301281Y11322D01*
X307080Y17648D02*
Y10268D01*
Y14134D02*
X306377Y14837D01*
X305674Y15188D01*
X304620D01*
X303917Y14837D01*
X303214Y14134D01*
X302862Y13079D01*
Y12376D01*
X303214Y11322D01*
X303917Y10619D01*
X304620Y10268D01*
X305674D01*
X306377Y10619D01*
X307080Y11322D01*
X313265Y15188D02*
Y9565D01*
X312914Y8511D01*
X312562Y8159D01*
X311859Y7808D01*
X310805D01*
X310102Y8159D01*
X313265Y14134D02*
X312562Y14837D01*
X311859Y15188D01*
X310805D01*
X310102Y14837D01*
X309399Y14134D01*
X309048Y13079D01*
Y12376D01*
X309399Y11322D01*
X310102Y10619D01*
X310805Y10268D01*
X311859D01*
X312562Y10619D01*
X313265Y11322D01*
X315233Y13079D02*
X319450D01*
Y13782D01*
X319099Y14485D01*
X318748Y14837D01*
X318045Y15188D01*
X316990D01*
X316287Y14837D01*
X315585Y14134D01*
X315233Y13079D01*
Y12376D01*
X315585Y11322D01*
X316287Y10619D01*
X316990Y10268D01*
X318045D01*
X318748Y10619D01*
X319450Y11322D01*
X531890Y187706D02*
X528727D01*
X527672Y187355D01*
X527321Y187003D01*
X526969Y186300D01*
Y185246D01*
X527321Y184543D01*
X527672Y184192D01*
X528727Y183840D01*
X531890D01*
Y191220D01*
X520046Y185597D02*
X520398Y184895D01*
X521101Y184192D01*
X521803Y183840D01*
X523209D01*
X523912Y184192D01*
X524615Y184895D01*
X524966Y185597D01*
X525318Y186652D01*
Y188409D01*
X524966Y189463D01*
X524615Y190166D01*
X523912Y190869D01*
X523209Y191220D01*
X521803D01*
X521101Y190869D01*
X520398Y190166D01*
X520046Y189463D01*
X517973Y183840D02*
Y191220D01*
Y183840D02*
X514810D01*
X513755Y184192D01*
X513404Y184543D01*
X513052Y185246D01*
Y185949D01*
X513404Y186652D01*
X513755Y187003D01*
X514810Y187355D01*
X517973D02*
X514810D01*
X513755Y187706D01*
X513404Y188057D01*
X513052Y188760D01*
Y189815D01*
X513404Y190518D01*
X513755Y190869D01*
X514810Y191220D01*
X517973D01*
X501033Y183840D02*
X505602D01*
Y191220D01*
X501033D01*
X505602Y187355D02*
X502790D01*
X499803Y183840D02*
Y191220D01*
Y183840D02*
X497343D01*
X496289Y184192D01*
X495586Y184895D01*
X495234Y185597D01*
X494883Y186652D01*
Y188409D01*
X495234Y189463D01*
X495586Y190166D01*
X496289Y190869D01*
X497343Y191220D01*
X499803D01*
X487959Y185597D02*
X488311Y184895D01*
X489014Y184192D01*
X489717Y183840D01*
X491122D01*
X491825Y184192D01*
X492528Y184895D01*
X492880Y185597D01*
X493231Y186652D01*
Y188409D01*
X492880Y189463D01*
X492528Y190166D01*
X491825Y190869D01*
X491122Y191220D01*
X489717D01*
X489014Y190869D01*
X488311Y190166D01*
X487959Y189463D01*
Y188409D01*
X489717D02*
X487959D01*
X481704Y183840D02*
X486272D01*
Y191220D01*
X481704D01*
X486272Y187355D02*
X483461D01*
X531890Y187706D02*
X528727D01*
X527672Y187355D01*
X527321Y187003D01*
X526969Y186300D01*
Y185246D01*
X527321Y184543D01*
X527672Y184192D01*
X528727Y183840D01*
X531890D01*
Y191220D01*
X520046Y185597D02*
X520398Y184895D01*
X521101Y184192D01*
X521803Y183840D01*
X523209D01*
X523912Y184192D01*
X524615Y184895D01*
X524966Y185597D01*
X525318Y186652D01*
Y188409D01*
X524966Y189463D01*
X524615Y190166D01*
X523912Y190869D01*
X523209Y191220D01*
X521803D01*
X521101Y190869D01*
X520398Y190166D01*
X520046Y189463D01*
X517973Y183840D02*
Y191220D01*
Y183840D02*
X514810D01*
X513755Y184192D01*
X513404Y184543D01*
X513052Y185246D01*
Y185949D01*
X513404Y186652D01*
X513755Y187003D01*
X514810Y187355D01*
X517973D02*
X514810D01*
X513755Y187706D01*
X513404Y188057D01*
X513052Y188760D01*
Y189815D01*
X513404Y190518D01*
X513755Y190869D01*
X514810Y191220D01*
X517973D01*
X501033Y183840D02*
X505602D01*
Y191220D01*
X501033D01*
X505602Y187355D02*
X502790D01*
X499803Y183840D02*
Y191220D01*
Y183840D02*
X497343D01*
X496289Y184192D01*
X495586Y184895D01*
X495234Y185597D01*
X494883Y186652D01*
Y188409D01*
X495234Y189463D01*
X495586Y190166D01*
X496289Y190869D01*
X497343Y191220D01*
X499803D01*
X487959Y185597D02*
X488311Y184895D01*
X489014Y184192D01*
X489717Y183840D01*
X491122D01*
X491825Y184192D01*
X492528Y184895D01*
X492880Y185597D01*
X493231Y186652D01*
Y188409D01*
X492880Y189463D01*
X492528Y190166D01*
X491825Y190869D01*
X491122Y191220D01*
X489717D01*
X489014Y190869D01*
X488311Y190166D01*
X487959Y189463D01*
Y188409D01*
X489717D02*
X487959D01*
X481704Y183840D02*
X486272D01*
Y191220D01*
X481704D01*
X486272Y187355D02*
X483461D01*
X270776Y13782D02*
X273939D01*
X274993Y14134D01*
X275344Y14485D01*
X275696Y15188D01*
Y16242D01*
X275344Y16945D01*
X274993Y17297D01*
X273939Y17648D01*
X270776D01*
Y10268D01*
X282619Y15891D02*
X282268Y16594D01*
X281565Y17297D01*
X280862Y17648D01*
X279456D01*
X278753Y17297D01*
X278050Y16594D01*
X277699Y15891D01*
X277348Y14837D01*
Y13079D01*
X277699Y12025D01*
X278050Y11322D01*
X278753Y10619D01*
X279456Y10268D01*
X280862D01*
X281565Y10619D01*
X282268Y11322D01*
X282619Y12025D01*
X284693Y17648D02*
Y10268D01*
Y17648D02*
X287856D01*
X288910Y17297D01*
X289262Y16945D01*
X289613Y16242D01*
Y15539D01*
X289262Y14837D01*
X288910Y14485D01*
X287856Y14134D01*
X284693D02*
X287856D01*
X288910Y13782D01*
X289262Y13431D01*
X289613Y12728D01*
Y11673D01*
X289262Y10971D01*
X288910Y10619D01*
X287856Y10268D01*
X284693D01*
X297063Y13079D02*
X301281D01*
Y13782D01*
X300929Y14485D01*
X300578Y14837D01*
X299875Y15188D01*
X298821D01*
X298118Y14837D01*
X297415Y14134D01*
X297063Y13079D01*
Y12376D01*
X297415Y11322D01*
X298118Y10619D01*
X298821Y10268D01*
X299875D01*
X300578Y10619D01*
X301281Y11322D01*
X307080Y17648D02*
Y10268D01*
Y14134D02*
X306377Y14837D01*
X305674Y15188D01*
X304620D01*
X303917Y14837D01*
X303214Y14134D01*
X302862Y13079D01*
Y12376D01*
X303214Y11322D01*
X303917Y10619D01*
X304620Y10268D01*
X305674D01*
X306377Y10619D01*
X307080Y11322D01*
X313265Y15188D02*
Y9565D01*
X312914Y8511D01*
X312562Y8159D01*
X311859Y7808D01*
X310805D01*
X310102Y8159D01*
X313265Y14134D02*
X312562Y14837D01*
X311859Y15188D01*
X310805D01*
X310102Y14837D01*
X309399Y14134D01*
X309048Y13079D01*
Y12376D01*
X309399Y11322D01*
X310102Y10619D01*
X310805Y10268D01*
X311859D01*
X312562Y10619D01*
X313265Y11322D01*
X315233Y13079D02*
X319450D01*
Y13782D01*
X319099Y14485D01*
X318748Y14837D01*
X318045Y15188D01*
X316990D01*
X316287Y14837D01*
X315585Y14134D01*
X315233Y13079D01*
Y12376D01*
X315585Y11322D01*
X316287Y10619D01*
X316990Y10268D01*
X318045D01*
X318748Y10619D01*
X319450Y11322D01*
D24*
X158899Y110827D02*
G03*
X158899Y110827I-2994J0D01*
G01*
X416084Y69417D02*
G03*
X416084Y69417I-2994J0D01*
G01*
Y175492D02*
G03*
X416084Y175492I-2994J0D01*
G01*
X468348Y175492D02*
G03*
X468348Y175492I-2994J0D01*
G01*
X156340Y174606D02*
G03*
X156340Y174606I-2994J0D01*
G01*
X117561Y175000D02*
G03*
X117561Y175000I-2994J0D01*
G01*
X58013Y145965D02*
G03*
X58013Y145965I-2994J0D01*
G01*
Y85905D02*
G03*
X58013Y85905I-2994J0D01*
G01*
X19825Y55020D02*
G03*
X19825Y55020I-2994J0D01*
G01*
D25*
X537795Y156299D02*
Y235039D01*
X496457D02*
X537795D01*
X496457Y156299D02*
Y235039D01*
Y156299D02*
X537795D01*
X270669Y2067D02*
Y51280D01*
Y2067D02*
X319882D01*
Y51280D01*
X270669D02*
X319882D01*
M02*
