G04*
G04 #@! TF.GenerationSoftware,Altium Limited,Altium Designer,18.0.7 (293)*
G04*
G04 Layer_Physical_Order=1*
G04 Layer_Color=255*
%FSLAX25Y25*%
%MOIN*%
G70*
G01*
G75*
%ADD10C,0.00500*%
%ADD11C,0.00787*%
%ADD12C,0.00600*%
%ADD13C,0.01000*%
%ADD19C,0.00394*%
%ADD21C,0.00000*%
%ADD22C,0.00000*%
%ADD23C,0.00781*%
%ADD24C,0.00300*%
%ADD25C,0.00197*%
%ADD53R,0.05118X0.05118*%
%ADD54C,0.05118*%
%ADD55C,0.07087*%
%ADD56C,0.07500*%
G04:AMPARAMS|DCode=57|XSize=75mil|YSize=75mil|CornerRadius=9.38mil|HoleSize=0mil|Usage=FLASHONLY|Rotation=90.000|XOffset=0mil|YOffset=0mil|HoleType=Round|Shape=RoundedRectangle|*
%AMROUNDEDRECTD57*
21,1,0.07500,0.05625,0,0,90.0*
21,1,0.05625,0.07500,0,0,90.0*
1,1,0.01875,0.02813,0.02813*
1,1,0.01875,0.02813,-0.02813*
1,1,0.01875,-0.02813,-0.02813*
1,1,0.01875,-0.02813,0.02813*
%
%ADD57ROUNDEDRECTD57*%
%ADD58C,0.11811*%
%ADD59R,0.05906X0.05906*%
%ADD60C,0.05906*%
%ADD61C,0.07677*%
%ADD62C,0.05200*%
%ADD63R,0.05200X0.05200*%
%ADD64O,0.06000X0.07000*%
G04:AMPARAMS|DCode=65|XSize=60mil|YSize=70mil|CornerRadius=0mil|HoleSize=0mil|Usage=FLASHONLY|Rotation=180.000|XOffset=0mil|YOffset=0mil|HoleType=Round|Shape=Octagon|*
%AMOCTAGOND65*
4,1,8,0.01500,-0.03500,-0.01500,-0.03500,-0.03000,-0.02000,-0.03000,0.02000,-0.01500,0.03500,0.01500,0.03500,0.03000,0.02000,0.03000,-0.02000,0.01500,-0.03500,0.0*
%
%ADD65OCTAGOND65*%

%ADD66P,0.23438X8X22.5*%
%ADD67C,0.15902*%
%ADD68R,0.08268X0.08268*%
%ADD69C,0.08268*%
%ADD70R,0.07874X0.03937*%
%ADD71O,0.07874X0.03937*%
%ADD72C,0.05512*%
%ADD73R,0.05200X0.05200*%
%ADD74C,0.04724*%
%ADD75O,0.05150X0.11874*%
%ADD76O,0.05937X0.11874*%
%ADD77O,0.11874X0.05937*%
%ADD78R,0.05906X0.05906*%
%ADD79C,0.05000*%
G36*
X222012Y172973D02*
X221613Y172505D01*
X221450Y172280D01*
X221312Y172061D01*
X221200Y171847D01*
X221112Y171640D01*
X221050Y171438D01*
X221012Y171241D01*
X221000Y171051D01*
X220000D01*
X219988Y171241D01*
X219950Y171438D01*
X219887Y171640D01*
X219800Y171847D01*
X219688Y172061D01*
X219550Y172280D01*
X219388Y172505D01*
X219200Y172736D01*
X218750Y173215D01*
X222250D01*
X222012Y172973D01*
D02*
G37*
G36*
X120474Y173962D02*
X120626Y171498D01*
X120725Y170833D01*
X120849Y170247D01*
X120997Y169740D01*
X121169Y169310D01*
X121366Y168960D01*
X121587Y168687D01*
X120880Y167980D01*
X120607Y168201D01*
X120257Y168398D01*
X119827Y168570D01*
X119320Y168718D01*
X118734Y168842D01*
X118069Y168941D01*
X116504Y169067D01*
X114626Y169095D01*
X120472Y174941D01*
X120474Y173962D01*
D02*
G37*
G36*
X261926Y167551D02*
X222426D01*
Y189051D01*
X261926D01*
Y167551D01*
D02*
G37*
G36*
X208028D02*
X168528D01*
Y189051D01*
X208028D01*
Y167551D01*
D02*
G37*
G36*
X416534Y170582D02*
X414899Y168731D01*
X414499Y168191D01*
X414172Y167689D01*
X413918Y167226D01*
X413736Y166800D01*
X413627Y166413D01*
X413591Y166065D01*
X412591D01*
X412554Y166413D01*
X412445Y166800D01*
X412264Y167226D01*
X412009Y167689D01*
X411682Y168191D01*
X411282Y168731D01*
X410265Y169927D01*
X408957Y171275D01*
X417225D01*
X416534Y170582D01*
D02*
G37*
G36*
X283547Y168054D02*
X283090Y167526D01*
X282904Y167275D01*
X282747Y167031D01*
X282618Y166796D01*
X282518Y166568D01*
X282447Y166349D01*
X282404Y166138D01*
X282390Y165935D01*
X281390D01*
X281376Y166138D01*
X281333Y166349D01*
X281261Y166568D01*
X281161Y166796D01*
X281032Y167031D01*
X280875Y167275D01*
X280690Y167526D01*
X280475Y167786D01*
X279961Y168331D01*
X283819D01*
X283547Y168054D01*
D02*
G37*
G36*
X156790Y169696D02*
X155155Y167846D01*
X154755Y167306D01*
X154428Y166804D01*
X154174Y166340D01*
X153992Y165915D01*
X153883Y165528D01*
X153846Y165179D01*
X152846D01*
X152810Y165528D01*
X152701Y165915D01*
X152519Y166340D01*
X152265Y166804D01*
X151938Y167306D01*
X151538Y167846D01*
X150521Y169041D01*
X149213Y170389D01*
X157480D01*
X156790Y169696D01*
D02*
G37*
G36*
X506965Y159697D02*
X504686Y157153D01*
X504129Y156421D01*
X503673Y155747D01*
X503318Y155132D01*
X503065Y154574D01*
X502913Y154075D01*
X502862Y153633D01*
X501862D01*
X501812Y154075D01*
X501660Y154574D01*
X501406Y155132D01*
X501052Y155747D01*
X500596Y156421D01*
X500039Y157153D01*
X498620Y158791D01*
X496797Y160661D01*
X507928D01*
X506965Y159697D01*
D02*
G37*
G36*
X450242Y155964D02*
X450080Y155772D01*
X449936Y155538D01*
X449810Y155261D01*
X449701Y154942D01*
X449610Y154581D01*
X449537Y154177D01*
X449481Y153730D01*
X449422Y152710D01*
X449419Y152136D01*
X445707Y155848D01*
X446281Y155851D01*
X447301Y155910D01*
X447748Y155966D01*
X448152Y156039D01*
X448513Y156130D01*
X448832Y156239D01*
X449109Y156365D01*
X449343Y156509D01*
X449535Y156671D01*
X450242Y155964D01*
D02*
G37*
G36*
X464136Y148317D02*
X463562Y148314D01*
X462541Y148256D01*
X462095Y148200D01*
X461691Y148126D01*
X461329Y148035D01*
X461010Y147927D01*
X460734Y147800D01*
X460499Y147656D01*
X460308Y147494D01*
X459601Y148202D01*
X459762Y148393D01*
X459906Y148627D01*
X460033Y148904D01*
X460142Y149223D01*
X460233Y149585D01*
X460306Y149989D01*
X460362Y150435D01*
X460421Y151456D01*
X460423Y152030D01*
X464136Y148317D01*
D02*
G37*
G36*
X209091Y147265D02*
X208518Y147262D01*
X207497Y147203D01*
X207051Y147148D01*
X206647Y147074D01*
X206285Y146983D01*
X205966Y146874D01*
X205690Y146748D01*
X205455Y146604D01*
X205264Y146442D01*
X204556Y147149D01*
X204718Y147341D01*
X204862Y147575D01*
X204989Y147852D01*
X205097Y148171D01*
X205188Y148533D01*
X205262Y148937D01*
X205318Y149383D01*
X205376Y150403D01*
X205379Y150977D01*
X209091Y147265D01*
D02*
G37*
G36*
X87056Y142630D02*
X86978Y142687D01*
X86886Y142715D01*
X86780D01*
X86660Y142687D01*
X86526Y142630D01*
X86377Y142545D01*
X86215Y142432D01*
X86038Y142291D01*
X85642Y141923D01*
X84935Y142630D01*
X85133Y142835D01*
X85444Y143203D01*
X85557Y143365D01*
X85642Y143514D01*
X85698Y143648D01*
X85727Y143769D01*
Y143875D01*
X85698Y143966D01*
X85642Y144044D01*
X87056Y142630D01*
D02*
G37*
G36*
X17872Y141831D02*
X17226Y141828D01*
X15582Y141707D01*
X15131Y141629D01*
X14729Y141532D01*
X14377Y141416D01*
X14073Y141281D01*
X13818Y141128D01*
X13611Y140956D01*
X12904Y141663D01*
X13077Y141869D01*
X13230Y142124D01*
X13365Y142428D01*
X13481Y142781D01*
X13578Y143182D01*
X13656Y143633D01*
X13715Y144132D01*
X13777Y145277D01*
X13780Y145923D01*
X17872Y141831D01*
D02*
G37*
G36*
X268696Y136169D02*
X268505Y135971D01*
X268207Y135616D01*
X268098Y135458D01*
X268018Y135314D01*
X267965Y135183D01*
X267939Y135066D01*
X267941Y134962D01*
X267971Y134871D01*
X268028Y134794D01*
X266614Y136208D01*
X266691Y136151D01*
X266782Y136121D01*
X266886Y136120D01*
X267003Y136145D01*
X267134Y136198D01*
X267278Y136279D01*
X267436Y136387D01*
X267607Y136522D01*
X267791Y136685D01*
X267988Y136876D01*
X268696Y136169D01*
D02*
G37*
G36*
X468597Y136099D02*
X468407Y135901D01*
X468108Y135546D01*
X468000Y135388D01*
X467919Y135244D01*
X467867Y135113D01*
X467841Y134996D01*
X467843Y134892D01*
X467872Y134801D01*
X467929Y134724D01*
X466515Y136138D01*
X466593Y136081D01*
X466683Y136051D01*
X466787Y136049D01*
X466905Y136075D01*
X467036Y136128D01*
X467180Y136209D01*
X467337Y136317D01*
X467508Y136452D01*
X467693Y136615D01*
X467890Y136806D01*
X468597Y136099D01*
D02*
G37*
G36*
X242373Y135661D02*
X242729Y135360D01*
X242887Y135250D01*
X243031Y135169D01*
X243162Y135114D01*
X243279Y135088D01*
X243383Y135088D01*
X243473Y135117D01*
X243549Y135172D01*
X242147Y133770D01*
X242202Y133846D01*
X242231Y133936D01*
X242231Y134040D01*
X242205Y134157D01*
X242150Y134288D01*
X242069Y134432D01*
X241960Y134590D01*
X241823Y134761D01*
X241658Y134946D01*
X241467Y135145D01*
X242174Y135852D01*
X242373Y135661D01*
D02*
G37*
G36*
X509036Y136101D02*
X509215Y135982D01*
X509421Y135877D01*
X509653Y135787D01*
X509910Y135712D01*
X510193Y135651D01*
X510503Y135604D01*
X510838Y135572D01*
X511587Y135551D01*
X508858Y132823D01*
X508855Y133210D01*
X508805Y133907D01*
X508759Y134216D01*
X508698Y134499D01*
X508622Y134757D01*
X508532Y134988D01*
X508427Y135194D01*
X508309Y135374D01*
X508175Y135527D01*
X508882Y136234D01*
X509036Y136101D01*
D02*
G37*
G36*
X336855Y133031D02*
X336721Y132877D01*
X336602Y132697D01*
X336498Y132492D01*
X336408Y132260D01*
X336332Y132003D01*
X336271Y131719D01*
X336224Y131410D01*
X336192Y131075D01*
X336171Y130326D01*
X333443Y133054D01*
X333830Y133058D01*
X334527Y133107D01*
X334836Y133154D01*
X335120Y133215D01*
X335377Y133291D01*
X335609Y133381D01*
X335814Y133485D01*
X335994Y133604D01*
X336147Y133738D01*
X336855Y133031D01*
D02*
G37*
G36*
X493083Y129449D02*
X492695Y129446D01*
X491999Y129396D01*
X491689Y129349D01*
X491406Y129288D01*
X491149Y129213D01*
X490917Y129123D01*
X490711Y129018D01*
X490532Y128899D01*
X490378Y128766D01*
X489671Y129473D01*
X489805Y129626D01*
X489923Y129806D01*
X490028Y130012D01*
X490118Y130243D01*
X490194Y130501D01*
X490255Y130784D01*
X490301Y131093D01*
X490334Y131429D01*
X490354Y132177D01*
X493083Y129449D01*
D02*
G37*
G36*
X467862Y129964D02*
X467833Y129874D01*
X467833Y129770D01*
X467859Y129653D01*
X467913Y129522D01*
X467995Y129378D01*
X468105Y129220D01*
X468241Y129049D01*
X468405Y128864D01*
X468597Y128665D01*
X467890Y127958D01*
X467691Y128149D01*
X467335Y128451D01*
X467177Y128560D01*
X467033Y128641D01*
X466902Y128696D01*
X466785Y128723D01*
X466681Y128722D01*
X466591Y128693D01*
X466515Y128638D01*
X467917Y130040D01*
X467862Y129964D01*
D02*
G37*
G36*
X265177Y128698D02*
X265092Y128667D01*
X265017Y128617D01*
X264952Y128546D01*
X264897Y128455D01*
X264852Y128343D01*
X264817Y128212D01*
X264792Y128060D01*
X264777Y127888D01*
X264772Y127696D01*
X263772D01*
X263767Y127888D01*
X263752Y128060D01*
X263727Y128212D01*
X263692Y128343D01*
X263647Y128455D01*
X263592Y128546D01*
X263527Y128617D01*
X263452Y128667D01*
X263367Y128698D01*
X263272Y128708D01*
X265272D01*
X265177Y128698D01*
D02*
G37*
G36*
X446574Y128659D02*
X446489Y128629D01*
X446414Y128578D01*
X446349Y128507D01*
X446294Y128416D01*
X446249Y128305D01*
X446214Y128173D01*
X446189Y128022D01*
X446174Y127849D01*
X446169Y127657D01*
X445169D01*
X445164Y127849D01*
X445149Y128022D01*
X445124Y128173D01*
X445089Y128305D01*
X445044Y128416D01*
X444989Y128507D01*
X444924Y128578D01*
X444849Y128629D01*
X444764Y128659D01*
X444669Y128669D01*
X446669D01*
X446574Y128659D01*
D02*
G37*
G36*
X353350Y129884D02*
X353399Y129187D01*
X353446Y128878D01*
X353507Y128594D01*
X353583Y128337D01*
X353673Y128105D01*
X353777Y127900D01*
X353896Y127720D01*
X354030Y127567D01*
X353323Y126859D01*
X353169Y126993D01*
X352989Y127112D01*
X352784Y127216D01*
X352552Y127306D01*
X352295Y127382D01*
X352011Y127443D01*
X351702Y127490D01*
X351367Y127522D01*
X350618Y127543D01*
X353346Y130271D01*
X353350Y129884D01*
D02*
G37*
G36*
X301824D02*
X301874Y129187D01*
X301921Y128878D01*
X301982Y128594D01*
X302057Y128337D01*
X302147Y128105D01*
X302252Y127900D01*
X302371Y127720D01*
X302504Y127567D01*
X301797Y126859D01*
X301643Y126993D01*
X301464Y127112D01*
X301258Y127216D01*
X301027Y127306D01*
X300769Y127382D01*
X300486Y127443D01*
X300176Y127490D01*
X299841Y127522D01*
X299093Y127543D01*
X301821Y130271D01*
X301824Y129884D01*
D02*
G37*
G36*
X191653Y127576D02*
X191568Y127545D01*
X191493Y127495D01*
X191428Y127424D01*
X191373Y127333D01*
X191328Y127221D01*
X191293Y127090D01*
X191268Y126938D01*
X191253Y126766D01*
X191248Y126574D01*
X190248D01*
X190243Y126766D01*
X190228Y126938D01*
X190203Y127090D01*
X190168Y127221D01*
X190123Y127333D01*
X190068Y127424D01*
X190003Y127495D01*
X189928Y127545D01*
X189843Y127576D01*
X189748Y127586D01*
X191748D01*
X191653Y127576D01*
D02*
G37*
G36*
X387604Y124260D02*
X387405Y124054D01*
X387092Y123685D01*
X386977Y123522D01*
X386891Y123374D01*
X386834Y123239D01*
X386804Y123120D01*
X386803Y123014D01*
X386830Y122923D01*
X386885Y122846D01*
X385483Y124249D01*
X385560Y124193D01*
X385651Y124166D01*
X385756Y124167D01*
X385876Y124197D01*
X386011Y124255D01*
X386159Y124341D01*
X386322Y124455D01*
X386499Y124598D01*
X386897Y124968D01*
X387604Y124260D01*
D02*
G37*
G36*
X117047Y121443D02*
X116962Y121412D01*
X116887Y121362D01*
X116822Y121291D01*
X116767Y121200D01*
X116722Y121088D01*
X116687Y120957D01*
X116662Y120805D01*
X116647Y120633D01*
X116642Y120441D01*
X115642D01*
X115637Y120633D01*
X115622Y120805D01*
X115597Y120957D01*
X115562Y121088D01*
X115517Y121200D01*
X115462Y121291D01*
X115397Y121362D01*
X115322Y121412D01*
X115237Y121443D01*
X115142Y121453D01*
X117142D01*
X117047Y121443D01*
D02*
G37*
G36*
X185014Y113937D02*
X184675Y113934D01*
X184062Y113886D01*
X183788Y113842D01*
X183536Y113784D01*
X183305Y113713D01*
X183096Y113628D01*
X182909Y113529D01*
X182744Y113417D01*
X182600Y113291D01*
X181893Y113998D01*
X182019Y114141D01*
X182131Y114307D01*
X182230Y114494D01*
X182315Y114703D01*
X182387Y114933D01*
X182445Y115186D01*
X182489Y115460D01*
X182519Y115755D01*
X182539Y116412D01*
X185014Y113937D01*
D02*
G37*
G36*
X381161Y115002D02*
X381351Y114878D01*
X381571Y114769D01*
X381820Y114676D01*
X382098Y114597D01*
X382405Y114533D01*
X382742Y114485D01*
X383503Y114433D01*
X383927Y114430D01*
X381004Y111507D01*
X381001Y111931D01*
X380949Y112692D01*
X380901Y113028D01*
X380837Y113336D01*
X380758Y113614D01*
X380665Y113863D01*
X380556Y114083D01*
X380432Y114273D01*
X380293Y114434D01*
X381000Y115141D01*
X381161Y115002D01*
D02*
G37*
G36*
X348012Y110002D02*
X348192Y109883D01*
X348397Y109778D01*
X348629Y109688D01*
X348886Y109613D01*
X349170Y109552D01*
X349479Y109505D01*
X349815Y109473D01*
X350563Y109452D01*
X347835Y106724D01*
X347832Y107111D01*
X347782Y107808D01*
X347735Y108117D01*
X347674Y108400D01*
X347598Y108658D01*
X347508Y108889D01*
X347404Y109095D01*
X347285Y109275D01*
X347151Y109428D01*
X347859Y110135D01*
X348012Y110002D01*
D02*
G37*
G36*
X279311D02*
X279491Y109883D01*
X279697Y109778D01*
X279928Y109688D01*
X280186Y109613D01*
X280469Y109552D01*
X280778Y109505D01*
X281114Y109473D01*
X281862Y109452D01*
X279134Y106724D01*
X279131Y107111D01*
X279081Y107808D01*
X279034Y108117D01*
X278973Y108400D01*
X278898Y108658D01*
X278808Y108889D01*
X278703Y109095D01*
X278584Y109275D01*
X278451Y109428D01*
X279158Y110135D01*
X279311Y110002D01*
D02*
G37*
G36*
X13818Y110427D02*
X14073Y110274D01*
X14377Y110139D01*
X14729Y110023D01*
X15131Y109926D01*
X15582Y109848D01*
X16081Y109789D01*
X17226Y109727D01*
X17872Y109724D01*
X13780Y105632D01*
X13777Y106278D01*
X13656Y107922D01*
X13578Y108373D01*
X13481Y108775D01*
X13365Y109127D01*
X13230Y109431D01*
X13077Y109686D01*
X12904Y109892D01*
X13611Y110600D01*
X13818Y110427D01*
D02*
G37*
G36*
X299037Y103940D02*
X298650Y103937D01*
X297954Y103887D01*
X297644Y103841D01*
X297361Y103780D01*
X297103Y103704D01*
X296872Y103614D01*
X296666Y103509D01*
X296487Y103391D01*
X296333Y103257D01*
X295626Y103964D01*
X295759Y104118D01*
X295878Y104297D01*
X295983Y104503D01*
X296073Y104735D01*
X296148Y104992D01*
X296210Y105275D01*
X296256Y105585D01*
X296288Y105920D01*
X296309Y106669D01*
X299037Y103940D01*
D02*
G37*
G36*
X17872Y101457D02*
X17226Y101454D01*
X15582Y101333D01*
X15131Y101255D01*
X14729Y101158D01*
X14377Y101042D01*
X14073Y100907D01*
X13818Y100754D01*
X13611Y100582D01*
X12904Y101289D01*
X13077Y101495D01*
X13230Y101750D01*
X13365Y102054D01*
X13481Y102407D01*
X13578Y102808D01*
X13656Y103259D01*
X13715Y103758D01*
X13777Y104903D01*
X13780Y105549D01*
X17872Y101457D01*
D02*
G37*
G36*
X465846Y102974D02*
X466037Y102850D01*
X466256Y102741D01*
X466505Y102647D01*
X466783Y102568D01*
X467091Y102505D01*
X467427Y102456D01*
X468188Y102405D01*
X468612Y102401D01*
X465689Y99478D01*
X465686Y99902D01*
X465634Y100663D01*
X465586Y101000D01*
X465522Y101307D01*
X465444Y101585D01*
X465350Y101834D01*
X465241Y102054D01*
X465117Y102244D01*
X464978Y102406D01*
X465685Y103113D01*
X465846Y102974D01*
D02*
G37*
G36*
X211318Y102942D02*
X211509Y102818D01*
X211729Y102709D01*
X211978Y102616D01*
X212256Y102537D01*
X212563Y102473D01*
X212900Y102425D01*
X213661Y102373D01*
X214085Y102370D01*
X211162Y99447D01*
X211158Y99871D01*
X211107Y100632D01*
X211058Y100968D01*
X210995Y101276D01*
X210916Y101554D01*
X210822Y101803D01*
X210713Y102023D01*
X210589Y102213D01*
X210450Y102374D01*
X211157Y103082D01*
X211318Y102942D01*
D02*
G37*
G36*
X578913Y94078D02*
X557413D01*
Y133578D01*
X578913D01*
Y94078D01*
D02*
G37*
G36*
X550567Y94078D02*
X529067D01*
Y133578D01*
X550567D01*
Y94078D01*
D02*
G37*
G36*
X117155Y96268D02*
X117219Y96000D01*
X117325Y95715D01*
X117474Y95413D01*
X117665Y95093D01*
X117899Y94755D01*
X118175Y94400D01*
X118855Y93637D01*
X119259Y93229D01*
X114009D01*
X114413Y93637D01*
X115093Y94400D01*
X115369Y94755D01*
X115603Y95093D01*
X115794Y95413D01*
X115943Y95715D01*
X116049Y96000D01*
X116113Y96268D01*
X116134Y96518D01*
X117134D01*
X117155Y96268D01*
D02*
G37*
G36*
X250463Y93553D02*
X250302Y93362D01*
X250158Y93128D01*
X250031Y92851D01*
X249922Y92532D01*
X249831Y92170D01*
X249758Y91766D01*
X249702Y91320D01*
X249643Y90299D01*
X249641Y89726D01*
X245928Y93438D01*
X246502Y93441D01*
X247522Y93499D01*
X247969Y93555D01*
X248373Y93629D01*
X248735Y93720D01*
X249054Y93828D01*
X249330Y93955D01*
X249565Y94099D01*
X249756Y94261D01*
X250463Y93553D01*
D02*
G37*
G36*
X225168Y85846D02*
X225092Y85901D01*
X225002Y85930D01*
X224898Y85930D01*
X224781Y85904D01*
X224650Y85849D01*
X224506Y85768D01*
X224348Y85658D01*
X224177Y85522D01*
X223992Y85357D01*
X223793Y85166D01*
X223086Y85873D01*
X223277Y86071D01*
X223579Y86428D01*
X223688Y86586D01*
X223769Y86730D01*
X223824Y86861D01*
X223850Y86978D01*
X223850Y87081D01*
X223821Y87171D01*
X223766Y87248D01*
X225168Y85846D01*
D02*
G37*
G36*
X438612Y86496D02*
X438188Y86493D01*
X437427Y86441D01*
X437091Y86393D01*
X436783Y86329D01*
X436505Y86251D01*
X436256Y86157D01*
X436037Y86048D01*
X435846Y85924D01*
X435685Y85785D01*
X434978Y86492D01*
X435117Y86653D01*
X435241Y86844D01*
X435350Y87063D01*
X435444Y87312D01*
X435522Y87590D01*
X435586Y87898D01*
X435634Y88234D01*
X435686Y88995D01*
X435689Y89419D01*
X438612Y86496D01*
D02*
G37*
G36*
X470411Y87038D02*
X469910Y86463D01*
X469706Y86191D01*
X469533Y85929D01*
X469392Y85677D01*
X469283Y85434D01*
X469205Y85202D01*
X469158Y84979D01*
X469142Y84767D01*
X468142D01*
X468126Y84979D01*
X468079Y85202D01*
X468001Y85434D01*
X467891Y85677D01*
X467750Y85929D01*
X467578Y86191D01*
X467374Y86463D01*
X466873Y87038D01*
X466575Y87340D01*
X470709D01*
X470411Y87038D01*
D02*
G37*
G36*
X384855Y85069D02*
X384870Y84897D01*
X384895Y84745D01*
X384930Y84614D01*
X384975Y84503D01*
X385030Y84412D01*
X385095Y84341D01*
X385170Y84290D01*
X385255Y84260D01*
X385350Y84250D01*
X383350D01*
X383445Y84260D01*
X383530Y84290D01*
X383605Y84341D01*
X383670Y84412D01*
X383725Y84503D01*
X383770Y84614D01*
X383805Y84745D01*
X383830Y84897D01*
X383845Y85069D01*
X383850Y85261D01*
X384850D01*
X384855Y85069D01*
D02*
G37*
G36*
X469158Y83918D02*
X469205Y83696D01*
X469283Y83463D01*
X469392Y83221D01*
X469533Y82969D01*
X469706Y82706D01*
X469910Y82434D01*
X470411Y81860D01*
X470709Y81558D01*
X466575D01*
X466873Y81860D01*
X467374Y82434D01*
X467578Y82706D01*
X467750Y82969D01*
X467891Y83221D01*
X468001Y83463D01*
X468079Y83696D01*
X468126Y83918D01*
X468142Y84131D01*
X469142D01*
X469158Y83918D01*
D02*
G37*
G36*
X217778Y82374D02*
X217639Y82213D01*
X217515Y82023D01*
X217406Y81803D01*
X217312Y81554D01*
X217234Y81276D01*
X217170Y80968D01*
X217122Y80632D01*
X217070Y79871D01*
X217067Y79447D01*
X214144Y82370D01*
X214568Y82373D01*
X215329Y82425D01*
X215665Y82473D01*
X215973Y82537D01*
X216251Y82616D01*
X216500Y82709D01*
X216719Y82818D01*
X216910Y82942D01*
X217071Y83082D01*
X217778Y82374D01*
D02*
G37*
G36*
X184085Y76465D02*
X183660Y76462D01*
X182900Y76410D01*
X182563Y76362D01*
X182256Y76298D01*
X181978Y76219D01*
X181729Y76125D01*
X181509Y76016D01*
X181318Y75893D01*
X181157Y75753D01*
X180450Y76460D01*
X180589Y76622D01*
X180713Y76812D01*
X180822Y77032D01*
X180916Y77281D01*
X180995Y77559D01*
X181058Y77866D01*
X181107Y78203D01*
X181158Y78964D01*
X181162Y79388D01*
X184085Y76465D01*
D02*
G37*
G36*
X242373Y72267D02*
X242729Y71966D01*
X242887Y71856D01*
X243031Y71775D01*
X243162Y71720D01*
X243279Y71694D01*
X243383Y71694D01*
X243473Y71723D01*
X243549Y71779D01*
X242147Y70376D01*
X242202Y70453D01*
X242231Y70543D01*
X242231Y70646D01*
X242205Y70763D01*
X242150Y70894D01*
X242069Y71038D01*
X241960Y71196D01*
X241823Y71368D01*
X241658Y71553D01*
X241467Y71751D01*
X242174Y72458D01*
X242373Y72267D01*
D02*
G37*
G36*
X136697Y69598D02*
X136684Y69691D01*
X136648Y69775D01*
X136587Y69849D01*
X136502Y69913D01*
X136392Y69967D01*
X136258Y70012D01*
X136100Y70046D01*
X135917Y70071D01*
X135710Y70086D01*
X135478Y70091D01*
Y71091D01*
X135710Y71096D01*
X136100Y71135D01*
X136258Y71169D01*
X136392Y71214D01*
X136502Y71268D01*
X136587Y71332D01*
X136648Y71406D01*
X136684Y71490D01*
X136697Y71583D01*
Y69598D01*
D02*
G37*
G36*
X472306Y72406D02*
X472167Y72245D01*
X472043Y72054D01*
X471934Y71834D01*
X471840Y71585D01*
X471761Y71307D01*
X471698Y71000D01*
X471649Y70663D01*
X471598Y69902D01*
X471594Y69478D01*
X468671Y72401D01*
X469096Y72405D01*
X469856Y72456D01*
X470193Y72505D01*
X470500Y72568D01*
X470778Y72647D01*
X471027Y72741D01*
X471247Y72850D01*
X471438Y72974D01*
X471599Y73113D01*
X472306Y72406D01*
D02*
G37*
G36*
X442306D02*
X442167Y72245D01*
X442043Y72054D01*
X441934Y71834D01*
X441840Y71585D01*
X441761Y71307D01*
X441698Y71000D01*
X441649Y70663D01*
X441598Y69902D01*
X441594Y69478D01*
X438671Y72401D01*
X439095Y72405D01*
X439856Y72456D01*
X440193Y72505D01*
X440500Y72568D01*
X440778Y72647D01*
X441027Y72741D01*
X441247Y72850D01*
X441437Y72974D01*
X441599Y73113D01*
X442306Y72406D01*
D02*
G37*
G36*
X187778Y72374D02*
X187639Y72213D01*
X187515Y72023D01*
X187406Y71803D01*
X187312Y71554D01*
X187234Y71276D01*
X187170Y70968D01*
X187122Y70632D01*
X187070Y69871D01*
X187067Y69447D01*
X184144Y72370D01*
X184568Y72373D01*
X185329Y72425D01*
X185665Y72473D01*
X185973Y72537D01*
X186251Y72616D01*
X186500Y72709D01*
X186719Y72818D01*
X186910Y72942D01*
X187071Y73081D01*
X187778Y72374D01*
D02*
G37*
G36*
X282404Y70857D02*
X282447Y70646D01*
X282518Y70426D01*
X282618Y70199D01*
X282747Y69964D01*
X282904Y69720D01*
X283090Y69468D01*
X283304Y69208D01*
X283819Y68664D01*
X279961D01*
X280232Y68940D01*
X280690Y69468D01*
X280875Y69720D01*
X281032Y69964D01*
X281161Y70199D01*
X281261Y70426D01*
X281333Y70646D01*
X281376Y70857D01*
X281390Y71060D01*
X282390D01*
X282404Y70857D01*
D02*
G37*
G36*
X386120Y69068D02*
X385618Y68493D01*
X385415Y68221D01*
X385242Y67958D01*
X385101Y67706D01*
X384991Y67464D01*
X384913Y67231D01*
X384866Y67009D01*
X384850Y66797D01*
X383850D01*
X383835Y67009D01*
X383788Y67231D01*
X383709Y67464D01*
X383600Y67706D01*
X383459Y67958D01*
X383286Y68221D01*
X383083Y68493D01*
X382581Y69068D01*
X382283Y69370D01*
X386417D01*
X386120Y69068D01*
D02*
G37*
G36*
X354030Y69428D02*
X353896Y69275D01*
X353777Y69095D01*
X353673Y68889D01*
X353583Y68658D01*
X353507Y68400D01*
X353446Y68117D01*
X353399Y67808D01*
X353367Y67472D01*
X353346Y66724D01*
X350618Y69452D01*
X351005Y69455D01*
X351702Y69505D01*
X352011Y69552D01*
X352295Y69613D01*
X352552Y69688D01*
X352784Y69778D01*
X352989Y69883D01*
X353169Y70002D01*
X353323Y70135D01*
X354030Y69428D01*
D02*
G37*
G36*
X90352Y68947D02*
X89850Y68373D01*
X89647Y68101D01*
X89474Y67838D01*
X89333Y67586D01*
X89224Y67344D01*
X89145Y67111D01*
X89098Y66889D01*
X89083Y66676D01*
X88083D01*
X88067Y66889D01*
X88020Y67111D01*
X87942Y67344D01*
X87832Y67586D01*
X87691Y67838D01*
X87519Y68101D01*
X87315Y68373D01*
X86813Y68947D01*
X86516Y69249D01*
X90649D01*
X90352Y68947D01*
D02*
G37*
G36*
X470411Y67038D02*
X469910Y66464D01*
X469706Y66191D01*
X469533Y65929D01*
X469392Y65677D01*
X469283Y65434D01*
X469205Y65202D01*
X469158Y64979D01*
X469142Y64767D01*
X468142D01*
X468126Y64979D01*
X468079Y65202D01*
X468001Y65434D01*
X467891Y65677D01*
X467750Y65929D01*
X467578Y66191D01*
X467374Y66464D01*
X466873Y67038D01*
X466575Y67340D01*
X470709D01*
X470411Y67038D01*
D02*
G37*
G36*
X268024Y68163D02*
X268083Y67143D01*
X268139Y66696D01*
X268212Y66292D01*
X268303Y65931D01*
X268412Y65612D01*
X268538Y65335D01*
X268683Y65101D01*
X268844Y64909D01*
X268137Y64202D01*
X267945Y64364D01*
X267711Y64508D01*
X267435Y64634D01*
X267115Y64743D01*
X266754Y64834D01*
X266350Y64907D01*
X265903Y64963D01*
X264883Y65022D01*
X264309Y65025D01*
X268021Y68737D01*
X268024Y68163D01*
D02*
G37*
G36*
X352248Y64452D02*
X351791Y63924D01*
X351605Y63672D01*
X351448Y63429D01*
X351319Y63193D01*
X351219Y62966D01*
X351148Y62747D01*
X351105Y62536D01*
X351091Y62332D01*
X350091D01*
X350076Y62536D01*
X350033Y62747D01*
X349962Y62966D01*
X349862Y63193D01*
X349733Y63429D01*
X349576Y63672D01*
X349390Y63924D01*
X349176Y64184D01*
X348661Y64728D01*
X352520D01*
X352248Y64452D01*
D02*
G37*
G36*
X229731Y64850D02*
X229051Y64087D01*
X228775Y63732D01*
X228541Y63394D01*
X228350Y63074D01*
X228201Y62772D01*
X228095Y62487D01*
X228031Y62219D01*
X228010Y61970D01*
X227010D01*
X226989Y62219D01*
X226925Y62487D01*
X226819Y62772D01*
X226670Y63074D01*
X226479Y63394D01*
X226245Y63732D01*
X225969Y64087D01*
X225289Y64850D01*
X224885Y65258D01*
X230135D01*
X229731Y64850D01*
D02*
G37*
G36*
X12317Y60254D02*
X12480Y60129D01*
X12643Y60031D01*
X12805Y59958D01*
X12967Y59912D01*
X13129Y59892D01*
X13291Y59898D01*
X13452Y59930D01*
X13613Y59988D01*
X13773Y60072D01*
X11778Y58077D01*
X11863Y58238D01*
X11920Y58399D01*
X11952Y58560D01*
X11958Y58721D01*
X11938Y58883D01*
X11892Y59045D01*
X11820Y59208D01*
X11721Y59370D01*
X11597Y59534D01*
X11446Y59697D01*
X12154Y60404D01*
X12317Y60254D01*
D02*
G37*
G36*
X90181Y53288D02*
X90228Y53066D01*
X90306Y52834D01*
X90416Y52591D01*
X90557Y52339D01*
X90729Y52077D01*
X90933Y51804D01*
X91435Y51230D01*
X91732Y50928D01*
X87599D01*
X87896Y51230D01*
X88398Y51804D01*
X88601Y52077D01*
X88774Y52339D01*
X88915Y52591D01*
X89024Y52834D01*
X89103Y53066D01*
X89150Y53288D01*
X89165Y53501D01*
X90165D01*
X90181Y53288D01*
D02*
G37*
G36*
X285938Y47125D02*
X285953Y46930D01*
X285978Y46758D01*
X286012Y46609D01*
X286057Y46483D01*
X286112Y46380D01*
X286176Y46299D01*
X286251Y46242D01*
X286335Y46207D01*
X286430Y46196D01*
X284436D01*
X284531Y46207D01*
X284615Y46242D01*
X284690Y46299D01*
X284754Y46380D01*
X284809Y46483D01*
X284854Y46609D01*
X284888Y46758D01*
X284913Y46930D01*
X284928Y47125D01*
X284933Y47343D01*
X285933D01*
X285938Y47125D01*
D02*
G37*
G36*
X550567Y40791D02*
X529067D01*
Y80291D01*
X550567D01*
Y40791D01*
D02*
G37*
G36*
X579602Y40241D02*
X558102D01*
Y79741D01*
X579602D01*
Y40241D01*
D02*
G37*
G36*
X285943Y34570D02*
X285941Y34553D01*
X285939Y34524D01*
X285933Y34000D01*
X284933D01*
X284921Y34576D01*
X285945D01*
X285943Y34570D01*
D02*
G37*
G36*
X306020Y34698D02*
X305936Y34664D01*
X305861Y34606D01*
X305797Y34526D01*
X305742Y34423D01*
X305698Y34297D01*
X305663Y34148D01*
X305638Y33976D01*
X305623Y33781D01*
X305618Y33563D01*
X304618D01*
X304613Y33781D01*
X304598Y33976D01*
X304573Y34148D01*
X304539Y34297D01*
X304494Y34423D01*
X304439Y34526D01*
X304375Y34606D01*
X304300Y34664D01*
X304216Y34698D01*
X304122Y34710D01*
X306115D01*
X306020Y34698D01*
D02*
G37*
G36*
X87710Y27366D02*
X87725Y27171D01*
X87749Y26999D01*
X87784Y26850D01*
X87829Y26724D01*
X87884Y26621D01*
X87948Y26541D01*
X88023Y26483D01*
X88107Y26449D01*
X88201Y26438D01*
X86208D01*
X86303Y26449D01*
X86387Y26483D01*
X86462Y26541D01*
X86526Y26621D01*
X86581Y26724D01*
X86625Y26850D01*
X86660Y26999D01*
X86685Y27171D01*
X86700Y27366D01*
X86705Y27583D01*
X87705D01*
X87710Y27366D01*
D02*
G37*
G36*
X350522Y29477D02*
X350588Y29205D01*
X350697Y28914D01*
X350850Y28605D01*
X351047Y28277D01*
X351287Y27931D01*
X351572Y27567D01*
X352272Y26783D01*
X352687Y26363D01*
X347313D01*
X347728Y26783D01*
X348713Y27931D01*
X348953Y28277D01*
X349150Y28605D01*
X349303Y28914D01*
X349412Y29205D01*
X349478Y29477D01*
X349500Y29731D01*
X350500D01*
X350522Y29477D01*
D02*
G37*
G36*
X221388D02*
X221454Y29205D01*
X221563Y28914D01*
X221716Y28605D01*
X221913Y28277D01*
X222153Y27931D01*
X222438Y27567D01*
X223138Y26783D01*
X223553Y26363D01*
X218179D01*
X218595Y26783D01*
X219579Y27931D01*
X219819Y28277D01*
X220016Y28605D01*
X220169Y28914D01*
X220279Y29205D01*
X220344Y29477D01*
X220366Y29731D01*
X221366D01*
X221388Y29477D01*
D02*
G37*
G36*
X172569D02*
X172635Y29205D01*
X172744Y28914D01*
X172897Y28605D01*
X173094Y28277D01*
X173335Y27931D01*
X173619Y27567D01*
X174319Y26783D01*
X174734Y26363D01*
X169360D01*
X169776Y26783D01*
X170760Y27931D01*
X171001Y28277D01*
X171197Y28605D01*
X171350Y28914D01*
X171460Y29205D01*
X171525Y29477D01*
X171547Y29731D01*
X172547D01*
X172569Y29477D01*
D02*
G37*
G36*
X385599Y28131D02*
X385838Y27985D01*
X386121Y27857D01*
X386448Y27746D01*
X386819Y27654D01*
X387233Y27579D01*
X387692Y27523D01*
X388741Y27463D01*
X389332Y27460D01*
X385532Y23660D01*
X385529Y24251D01*
X385413Y25759D01*
X385338Y26173D01*
X385246Y26544D01*
X385135Y26871D01*
X385007Y27154D01*
X384861Y27393D01*
X384697Y27588D01*
X385404Y28295D01*
X385599Y28131D01*
D02*
G37*
G36*
X236780D02*
X237019Y27985D01*
X237302Y27857D01*
X237629Y27746D01*
X238000Y27654D01*
X238415Y27579D01*
X238873Y27523D01*
X239922Y27463D01*
X240513Y27460D01*
X236713Y23660D01*
X236710Y24251D01*
X236594Y25759D01*
X236519Y26173D01*
X236427Y26544D01*
X236317Y26871D01*
X236188Y27154D01*
X236042Y27393D01*
X235878Y27588D01*
X236585Y28295D01*
X236780Y28131D01*
D02*
G37*
G36*
X469253Y22257D02*
X469292Y22058D01*
X469356Y21851D01*
X469447Y21639D01*
X469563Y21420D01*
X469705Y21195D01*
X469873Y20964D01*
X470067Y20727D01*
X470532Y20233D01*
X466949D01*
X467194Y20483D01*
X467607Y20964D01*
X467775Y21195D01*
X467917Y21420D01*
X468034Y21639D01*
X468124Y21851D01*
X468189Y22058D01*
X468227Y22257D01*
X468240Y22451D01*
X469240D01*
X469253Y22257D01*
D02*
G37*
G36*
X301093Y21496D02*
X301121Y21448D01*
X301167Y21406D01*
X301231Y21369D01*
X301313Y21338D01*
X301414Y21313D01*
X301533Y21293D01*
X301670Y21279D01*
X302000Y21268D01*
Y20268D01*
X301826Y20265D01*
X301533Y20243D01*
X301414Y20223D01*
X301313Y20197D01*
X301231Y20166D01*
X301167Y20130D01*
X301121Y20088D01*
X301093Y20040D01*
X301084Y19986D01*
Y21549D01*
X301093Y21496D01*
D02*
G37*
G36*
X205022Y22993D02*
X205138Y21485D01*
X205213Y21070D01*
X205306Y20700D01*
X205416Y20373D01*
X205544Y20090D01*
X205690Y19851D01*
X205855Y19656D01*
X205147Y18949D01*
X204952Y19113D01*
X204713Y19259D01*
X204430Y19387D01*
X204103Y19498D01*
X203733Y19590D01*
X203318Y19665D01*
X202859Y19721D01*
X201810Y19781D01*
X201220Y19784D01*
X205020Y23584D01*
X205022Y22993D01*
D02*
G37*
G36*
X156203D02*
X156319Y21485D01*
X156394Y21070D01*
X156486Y20700D01*
X156597Y20373D01*
X156725Y20090D01*
X156871Y19851D01*
X157036Y19656D01*
X156328Y18949D01*
X156133Y19113D01*
X155894Y19259D01*
X155611Y19387D01*
X155285Y19498D01*
X154914Y19590D01*
X154499Y19665D01*
X154040Y19721D01*
X152991Y19781D01*
X152401Y19784D01*
X156201Y23584D01*
X156203Y22993D01*
D02*
G37*
G36*
X456206Y11070D02*
X456078Y10924D01*
X455965Y10755D01*
X455864Y10564D01*
X455778Y10350D01*
X455706Y10113D01*
X455647Y9854D01*
X455603Y9571D01*
X455572Y9267D01*
X455551Y8589D01*
X453018Y11122D01*
X453368Y11125D01*
X454001Y11173D01*
X454283Y11218D01*
X454542Y11277D01*
X454779Y11349D01*
X454993Y11435D01*
X455184Y11535D01*
X455353Y11649D01*
X455499Y11777D01*
X456206Y11070D01*
D02*
G37*
G36*
X450631Y11649D02*
X450800Y11535D01*
X450991Y11435D01*
X451205Y11349D01*
X451442Y11277D01*
X451702Y11218D01*
X451984Y11173D01*
X452289Y11142D01*
X452967Y11122D01*
X450433Y8589D01*
X450430Y8939D01*
X450382Y9571D01*
X450337Y9854D01*
X450279Y10113D01*
X450206Y10350D01*
X450120Y10564D01*
X450020Y10755D01*
X449906Y10924D01*
X449778Y11070D01*
X450485Y11777D01*
X450631Y11649D01*
D02*
G37*
G36*
X439735Y7352D02*
X439706Y7260D01*
Y7154D01*
X439735Y7034D01*
X439791Y6900D01*
X439876Y6751D01*
X439989Y6589D01*
X440131Y6412D01*
X440498Y6016D01*
X439791Y5309D01*
X439586Y5507D01*
X439219Y5818D01*
X439056Y5931D01*
X438907Y6016D01*
X438773Y6072D01*
X438653Y6101D01*
X438547D01*
X438455Y6072D01*
X438377Y6016D01*
X439791Y7430D01*
X439735Y7352D01*
D02*
G37*
D10*
X536811Y157283D02*
Y190748D01*
Y196654D01*
X533465D02*
X536811D01*
X500787D02*
X533465D01*
X497441D02*
X500787D01*
X497441Y190748D02*
Y196654D01*
Y157283D02*
Y190748D01*
Y157283D02*
X536811D01*
X533465Y196654D02*
Y234055D01*
X500787D02*
X533465D01*
X500787Y196654D02*
Y234055D01*
X497441Y190748D02*
X536811D01*
Y157283D02*
Y190748D01*
Y196654D01*
X533465D02*
X536811D01*
X500787D02*
X533465D01*
X497441D02*
X500787D01*
X497441Y190748D02*
Y196654D01*
Y157283D02*
Y190748D01*
Y157283D02*
X536811D01*
X533465Y196654D02*
Y234055D01*
X500787D02*
X533465D01*
X500787Y196654D02*
Y234055D01*
X497441Y190748D02*
X536811D01*
X312992Y6988D02*
X318898D01*
X312992Y3051D02*
Y6988D01*
X303150Y3051D02*
X312992D01*
X303150D02*
Y7776D01*
X287402D02*
X303150D01*
X287402Y3051D02*
Y7776D01*
X277559Y3051D02*
X287402D01*
X277559D02*
Y6988D01*
X271654D02*
X277559D01*
X318898D02*
Y50295D01*
X271654D02*
X318898D01*
X271654Y6988D02*
Y50295D01*
X312992Y6988D02*
X318898D01*
X312992Y3051D02*
Y6988D01*
X303150Y3051D02*
X312992D01*
X303150D02*
Y7776D01*
X287402D02*
X303150D01*
X287402Y3051D02*
Y7776D01*
X277559Y3051D02*
X287402D01*
X277559D02*
Y6988D01*
X271654D02*
X277559D01*
X318898D02*
Y50295D01*
X271654D02*
X318898D01*
X271654Y6988D02*
Y50295D01*
X206284Y132387D02*
G03*
X208276Y131331I1976J1321D01*
G01*
X209983Y131330D02*
G03*
X211957Y132367I11J2376D01*
G01*
X208275Y151015D02*
G03*
X206301Y149977I-11J-2376D01*
G01*
X211974Y149958D02*
G03*
X209982Y151014I-1976J-1321D01*
G01*
X205447Y148524D02*
G03*
X205180Y148259I87J-354D01*
G01*
X208330Y148334D02*
G03*
X205447Y148524I-4288J-43031D01*
G01*
X208330Y134011D02*
G03*
X205447Y133820I41749J-654584D01*
G01*
X205180Y134086D02*
G03*
X205447Y133820I357J92D01*
G01*
X209928Y148334D02*
G03*
X212811Y148524I-41797J655314D01*
G01*
X213077Y148259D02*
G03*
X212811Y148524I-357J-92D01*
G01*
X212811Y133820D02*
G03*
X213077Y134086I-87J354D01*
G01*
X209928Y134011D02*
G03*
X212811Y133820I4288J43031D01*
G01*
X208330Y133482D02*
G03*
X207068Y132314I3661J-5218D01*
G01*
X205180Y134086D02*
G03*
X206952Y132314I1772J0D01*
G01*
X213077Y148259D02*
G03*
X211306Y150031I-1772J0D01*
G01*
X206952D02*
G03*
X205180Y148259I0J-1772D01*
G01*
X211306Y132314D02*
G03*
X213077Y134086I0J1772D01*
G01*
X207948Y131330D02*
G03*
X210310Y131330I1181J0D01*
G01*
Y151015D02*
G03*
X207948Y151015I-1181J0D01*
G01*
X187903Y132387D02*
G03*
X189895Y131331I1976J1321D01*
G01*
X191602Y131330D02*
G03*
X193576Y132367I11J2376D01*
G01*
X189894Y151015D02*
G03*
X187920Y149977I-11J-2376D01*
G01*
X193593Y149958D02*
G03*
X191601Y151014I-1976J-1321D01*
G01*
X187066Y148524D02*
G03*
X186799Y148259I87J-354D01*
G01*
X189949Y148334D02*
G03*
X187066Y148524I-4288J-43031D01*
G01*
X189949Y134011D02*
G03*
X187066Y133820I41749J-654584D01*
G01*
X186799Y134086D02*
G03*
X187066Y133820I357J92D01*
G01*
X191547Y148334D02*
G03*
X194430Y148524I-41797J655314D01*
G01*
X194697Y148259D02*
G03*
X194430Y148524I-357J-92D01*
G01*
X194430Y133820D02*
G03*
X194697Y134086I-87J354D01*
G01*
X191547Y134011D02*
G03*
X194430Y133820I4288J43031D01*
G01*
X189949Y133482D02*
G03*
X188688Y132314I3661J-5218D01*
G01*
X186799Y134086D02*
G03*
X188571Y132314I1772J0D01*
G01*
X194697Y148259D02*
G03*
X192925Y150031I-1772J0D01*
G01*
X188571D02*
G03*
X186799Y148259I0J-1772D01*
G01*
X192925Y132314D02*
G03*
X194697Y134086I0J1772D01*
G01*
X189567Y131330D02*
G03*
X191929Y131330I1181J0D01*
G01*
Y151015D02*
G03*
X189567Y151015I-1181J0D01*
G01*
X113297Y126254D02*
G03*
X115289Y125198I1976J1321D01*
G01*
X116996Y125197D02*
G03*
X118970Y126234I11J2376D01*
G01*
X115287Y144882D02*
G03*
X113313Y143844I-11J-2376D01*
G01*
X118987Y143825D02*
G03*
X116995Y144881I-1976J-1321D01*
G01*
X112459Y142391D02*
G03*
X112193Y142126I87J-354D01*
G01*
X115343Y142201D02*
G03*
X112459Y142391I-4288J-43031D01*
G01*
X115343Y127878D02*
G03*
X112459Y127688I41749J-654584D01*
G01*
X112193Y127953D02*
G03*
X112459Y127688I357J92D01*
G01*
X116941Y142201D02*
G03*
X119824Y142391I-41797J655314D01*
G01*
X120090Y142126D02*
G03*
X119824Y142391I-357J-92D01*
G01*
X119824Y127688D02*
G03*
X120090Y127953I-87J354D01*
G01*
X116941Y127878D02*
G03*
X119824Y127688I4288J43031D01*
G01*
X115343Y127349D02*
G03*
X114081Y126181I3661J-5218D01*
G01*
X112193Y127953D02*
G03*
X113965Y126181I1772J0D01*
G01*
X120090Y142126D02*
G03*
X118319Y143898I-1772J0D01*
G01*
X113965D02*
G03*
X112193Y142126I0J-1772D01*
G01*
X118319Y126181D02*
G03*
X120090Y127953I0J1772D01*
G01*
X114961Y125197D02*
G03*
X117323Y125197I1181J0D01*
G01*
Y144882D02*
G03*
X114961Y144882I-1181J0D01*
G01*
X113789Y71923D02*
G03*
X115781Y70867I1976J1321D01*
G01*
X117488Y70866D02*
G03*
X119462Y71904I11J2376D01*
G01*
X115779Y90551D02*
G03*
X113806Y89514I-11J-2376D01*
G01*
X119479Y89494D02*
G03*
X117487Y90550I-1976J-1321D01*
G01*
X112952Y88060D02*
G03*
X112685Y87795I87J-354D01*
G01*
X115835Y87870D02*
G03*
X112952Y88060I-4288J-43031D01*
G01*
X115835Y73547D02*
G03*
X112952Y73357I41749J-654584D01*
G01*
X112685Y73622D02*
G03*
X112952Y73357I357J92D01*
G01*
X117433Y87870D02*
G03*
X120316Y88060I-41797J655314D01*
G01*
X120582Y87795D02*
G03*
X120316Y88060I-357J-92D01*
G01*
X120316Y73357D02*
G03*
X120582Y73622I-87J354D01*
G01*
X117433Y73547D02*
G03*
X120316Y73357I4288J43031D01*
G01*
X115835Y73019D02*
G03*
X114573Y71850I3661J-5218D01*
G01*
X112685Y73622D02*
G03*
X114457Y71850I1772J0D01*
G01*
X120582Y87795D02*
G03*
X118811Y89567I-1772J0D01*
G01*
X114457D02*
G03*
X112685Y87795I0J-1772D01*
G01*
X118811Y71850D02*
G03*
X120582Y73622I0J1772D01*
G01*
X115453Y70866D02*
G03*
X117815Y70866I1181J0D01*
G01*
Y90551D02*
G03*
X115453Y90551I-1181J0D01*
G01*
X461328Y133439D02*
G03*
X463320Y132383I1976J1321D01*
G01*
X465028Y132382D02*
G03*
X467001Y133420I11J2376D01*
G01*
X463319Y152067D02*
G03*
X461345Y151029I-11J-2376D01*
G01*
X467018Y151010D02*
G03*
X465026Y152066I-1976J-1321D01*
G01*
X460491Y149576D02*
G03*
X460225Y149311I87J-354D01*
G01*
X463374Y149386D02*
G03*
X460491Y149576I-4288J-43031D01*
G01*
X463374Y135063D02*
G03*
X460491Y134873I41749J-654584D01*
G01*
X460225Y135138D02*
G03*
X460491Y134873I357J92D01*
G01*
X464972Y149386D02*
G03*
X467856Y149576I-41797J655314D01*
G01*
X468122Y149311D02*
G03*
X467856Y149576I-357J-92D01*
G01*
X467856Y134873D02*
G03*
X468122Y135138I-87J354D01*
G01*
X464972Y135063D02*
G03*
X467856Y134873I4288J43031D01*
G01*
X463374Y134534D02*
G03*
X462113Y133366I3661J-5218D01*
G01*
X460225Y135138D02*
G03*
X461996Y133366I1772J0D01*
G01*
X468122Y149311D02*
G03*
X466350Y151083I-1772J0D01*
G01*
X461996D02*
G03*
X460225Y149311I0J-1772D01*
G01*
X466350Y133366D02*
G03*
X468122Y135138I0J1772D01*
G01*
X462992Y132382D02*
G03*
X465354Y132382I1181J0D01*
G01*
Y152067D02*
G03*
X462992Y152067I-1181J0D01*
G01*
X442824Y133470D02*
G03*
X444816Y132415I1976J1321D01*
G01*
X446524Y132413D02*
G03*
X448498Y133451I11J2376D01*
G01*
X444815Y152098D02*
G03*
X442841Y151061I-11J-2376D01*
G01*
X448514Y151042D02*
G03*
X446522Y152097I-1976J-1321D01*
G01*
X441987Y149608D02*
G03*
X441721Y149343I87J-354D01*
G01*
X444870Y149417D02*
G03*
X441987Y149608I-4288J-43031D01*
G01*
X444870Y135094D02*
G03*
X441987Y134904I41749J-654584D01*
G01*
X441721Y135169D02*
G03*
X441987Y134904I357J92D01*
G01*
X446468Y149417D02*
G03*
X449352Y149608I-41797J655314D01*
G01*
X449618Y149343D02*
G03*
X449352Y149608I-357J-92D01*
G01*
X449352Y134904D02*
G03*
X449618Y135169I-87J354D01*
G01*
X446468Y135094D02*
G03*
X449352Y134904I4288J43031D01*
G01*
X444870Y134566D02*
G03*
X443609Y133398I3661J-5218D01*
G01*
X441721Y135169D02*
G03*
X443492Y133398I1772J0D01*
G01*
X449618Y149343D02*
G03*
X447846Y151114I-1772J0D01*
G01*
X443492D02*
G03*
X441721Y149343I0J-1772D01*
G01*
X447846Y133398D02*
G03*
X449618Y135169I0J1772D01*
G01*
X444488Y132413D02*
G03*
X446850Y132413I1181J0D01*
G01*
Y152098D02*
G03*
X444488Y152098I-1181J0D01*
G01*
X211973Y132385D02*
X211992Y132412D01*
X212051Y132492D01*
X206212Y132487D02*
X206280Y132393D01*
X206284Y132387D01*
X206266Y149932D02*
X206283Y149960D01*
X206207Y149852D02*
X206266Y149932D01*
X211978Y149951D02*
X212046Y149858D01*
X211974Y149958D02*
X211978Y149951D01*
X209928Y148862D02*
X210006Y148874D01*
X210098Y148916D01*
X210197Y148990D01*
X210281Y149072D01*
X210503Y149335D01*
X210690Y149576D01*
X210859Y149781D01*
X211006Y149931D01*
X211107Y150005D01*
X211189Y150031D01*
X207068D02*
X207174Y149991D01*
X207313Y149873D01*
X207497Y149664D01*
X207724Y149374D01*
X207842Y149225D01*
X207978Y149071D01*
X208073Y148980D01*
X208192Y148898D01*
X208269Y148869D01*
X208330Y148862D01*
X211141Y132324D02*
X211189Y132314D01*
X211084Y132353D02*
X211141Y132324D01*
X211019Y132403D02*
X211084Y132353D01*
X210945Y132472D02*
X211019Y132403D01*
X210858Y132566D02*
X210945Y132472D01*
X210761Y132680D02*
X210858Y132566D01*
X210653Y132816D02*
X210761Y132680D01*
X210534Y132970D02*
X210653Y132816D01*
X210416Y133118D02*
X210534Y132970D01*
X210280Y133273D02*
X210416Y133118D01*
X210235Y133319D02*
X210280Y133273D01*
X210185Y133365D02*
X210235Y133319D01*
X210129Y133408D02*
X210185Y133365D01*
X210066Y133447D02*
X210129Y133408D01*
X210029Y133463D02*
X210066Y133447D01*
X209989Y133475D02*
X210029Y133463D01*
X209959Y133480D02*
X209989Y133475D01*
X209928Y133482D02*
X209959Y133480D01*
X208276Y131331D02*
X209983Y131330D01*
X208275Y151015D02*
X209982Y151013D01*
X208330Y133482D02*
Y148862D01*
X205180Y134086D02*
Y148259D01*
X213078Y134086D02*
Y148259D01*
X209928Y133482D02*
Y148862D01*
X208330Y148334D02*
X209928D01*
X208330Y134011D02*
X209928D01*
X208330Y133482D02*
X209928D01*
X208330Y148862D02*
X209928D01*
X206952Y150031D02*
X211306D01*
X206952Y132314D02*
X211306D01*
X193593Y132385D02*
X193611Y132412D01*
X193670Y132492D01*
X187831Y132487D02*
X187899Y132393D01*
X187903Y132387D01*
X187885Y149932D02*
X187902Y149960D01*
X187826Y149852D02*
X187885Y149932D01*
X193597Y149951D02*
X193665Y149858D01*
X193593Y149958D02*
X193597Y149951D01*
X191547Y148862D02*
X191625Y148874D01*
X191717Y148916D01*
X191816Y148990D01*
X191901Y149072D01*
X192122Y149335D01*
X192309Y149576D01*
X192478Y149781D01*
X192625Y149931D01*
X192726Y150005D01*
X192808Y150031D01*
X188688D02*
X188793Y149991D01*
X188932Y149873D01*
X189116Y149664D01*
X189343Y149374D01*
X189461Y149225D01*
X189597Y149071D01*
X189692Y148980D01*
X189811Y148898D01*
X189888Y148869D01*
X189949Y148862D01*
X192760Y132324D02*
X192808Y132314D01*
X192703Y132353D02*
X192760Y132324D01*
X192638Y132403D02*
X192703Y132353D01*
X192564Y132472D02*
X192638Y132403D01*
X192477Y132566D02*
X192564Y132472D01*
X192380Y132680D02*
X192477Y132566D01*
X192272Y132816D02*
X192380Y132680D01*
X192153Y132970D02*
X192272Y132816D01*
X192035Y133118D02*
X192153Y132970D01*
X191899Y133273D02*
X192035Y133118D01*
X191854Y133319D02*
X191899Y133273D01*
X191804Y133365D02*
X191854Y133319D01*
X191749Y133408D02*
X191804Y133365D01*
X191685Y133447D02*
X191749Y133408D01*
X191648Y133463D02*
X191685Y133447D01*
X191608Y133475D02*
X191648Y133463D01*
X191578Y133480D02*
X191608Y133475D01*
X191547Y133482D02*
X191578Y133480D01*
X189895Y131331D02*
X191602Y131330D01*
X189894Y151015D02*
X191601Y151013D01*
X189949Y133482D02*
Y148862D01*
X186799Y134086D02*
Y148259D01*
X194697Y134086D02*
Y148259D01*
X191547Y133482D02*
Y148862D01*
X189949Y148334D02*
X191547D01*
X189949Y134011D02*
X191547D01*
X189949Y133482D02*
X191547D01*
X189949Y148862D02*
X191547D01*
X188571Y150031D02*
X192925D01*
X188571Y132314D02*
X192925D01*
X118986Y126253D02*
X119004Y126279D01*
X119064Y126360D01*
X113224Y126354D02*
X113292Y126260D01*
X113297Y126254D01*
X113279Y143799D02*
X113296Y143827D01*
X113220Y143719D02*
X113279Y143799D01*
X118991Y143818D02*
X119059Y143725D01*
X118987Y143825D02*
X118991Y143818D01*
X116941Y142729D02*
X117018Y142741D01*
X117110Y142783D01*
X117210Y142857D01*
X117294Y142939D01*
X117515Y143202D01*
X117703Y143443D01*
X117872Y143648D01*
X118019Y143798D01*
X118120Y143872D01*
X118202Y143898D01*
X114081D02*
X114186Y143859D01*
X114326Y143740D01*
X114510Y143531D01*
X114737Y143242D01*
X114855Y143093D01*
X114990Y142938D01*
X115086Y142847D01*
X115205Y142765D01*
X115282Y142736D01*
X115343Y142729D01*
X118154Y126191D02*
X118202Y126181D01*
X118097Y126220D02*
X118154Y126191D01*
X118031Y126270D02*
X118097Y126220D01*
X117958Y126339D02*
X118031Y126270D01*
X117870Y126433D02*
X117958Y126339D01*
X117774Y126548D02*
X117870Y126433D01*
X117666Y126683D02*
X117774Y126548D01*
X117546Y126837D02*
X117666Y126683D01*
X117429Y126985D02*
X117546Y126837D01*
X117293Y127140D02*
X117429Y126985D01*
X117247Y127187D02*
X117293Y127140D01*
X117198Y127232D02*
X117247Y127187D01*
X117142Y127275D02*
X117198Y127232D01*
X117079Y127314D02*
X117142Y127275D01*
X117042Y127330D02*
X117079Y127314D01*
X117002Y127342D02*
X117042Y127330D01*
X116972Y127348D02*
X117002Y127342D01*
X116941Y127349D02*
X116972Y127348D01*
X115289Y125198D02*
X116996Y125197D01*
X115287Y144882D02*
X116995Y144881D01*
X115343Y127349D02*
Y142729D01*
X112193Y127953D02*
Y142126D01*
X120090Y127953D02*
Y142126D01*
X116941Y127349D02*
Y142729D01*
X115343Y142201D02*
X116941D01*
X115343Y127878D02*
X116941D01*
X115343Y127349D02*
X116941D01*
X115343Y142729D02*
X116941D01*
X113965Y143898D02*
X118319D01*
X113965Y126181D02*
X118319D01*
X119478Y71922D02*
X119497Y71949D01*
X119556Y72029D01*
X113717Y72023D02*
X113785Y71930D01*
X113789Y71923D01*
X113771Y89469D02*
X113788Y89496D01*
X113712Y89388D02*
X113771Y89469D01*
X119483Y89488D02*
X119551Y89394D01*
X119479Y89494D02*
X119483Y89488D01*
X117433Y88399D02*
X117510Y88410D01*
X117602Y88452D01*
X117702Y88526D01*
X117786Y88609D01*
X118008Y88871D01*
X118195Y89112D01*
X118364Y89317D01*
X118511Y89467D01*
X118612Y89541D01*
X118694Y89567D01*
X114573D02*
X114679Y89528D01*
X114818Y89409D01*
X115002Y89201D01*
X115229Y88911D01*
X115347Y88762D01*
X115483Y88608D01*
X115578Y88516D01*
X115697Y88434D01*
X115774Y88406D01*
X115835Y88399D01*
X118646Y71860D02*
X118694Y71850D01*
X118589Y71890D02*
X118646Y71860D01*
X118524Y71939D02*
X118589Y71890D01*
X118450Y72008D02*
X118524Y71939D01*
X118363Y72102D02*
X118450Y72008D01*
X118266Y72217D02*
X118363Y72102D01*
X118158Y72353D02*
X118266Y72217D01*
X118038Y72507D02*
X118158Y72353D01*
X117921Y72654D02*
X118038Y72507D01*
X117785Y72810D02*
X117921Y72654D01*
X117740Y72856D02*
X117785Y72810D01*
X117690Y72901D02*
X117740Y72856D01*
X117634Y72944D02*
X117690Y72901D01*
X117571Y72983D02*
X117634Y72944D01*
X117534Y72999D02*
X117571Y72983D01*
X117494Y73012D02*
X117534Y72999D01*
X117464Y73017D02*
X117494Y73012D01*
X117433Y73019D02*
X117464Y73017D01*
X115781Y70867D02*
X117488Y70866D01*
X115779Y90551D02*
X117487Y90550D01*
X115835Y73019D02*
Y88399D01*
X112685Y73622D02*
Y87795D01*
X120582Y73622D02*
Y87795D01*
X117433Y73019D02*
Y88399D01*
X115835Y87870D02*
X117433D01*
X115835Y73547D02*
X117433D01*
X115835Y73019D02*
X117433D01*
X115835Y88399D02*
X117433D01*
X114457Y89567D02*
X118811D01*
X114457Y71850D02*
X118811D01*
X467018Y133438D02*
X467036Y133464D01*
X467095Y133545D01*
X461256Y133539D02*
X461324Y133445D01*
X461328Y133439D01*
X461311Y150984D02*
X461328Y151012D01*
X461251Y150904D02*
X461311Y150984D01*
X467023Y151004D02*
X467091Y150910D01*
X467018Y151010D02*
X467023Y151004D01*
X464972Y149914D02*
X465050Y149926D01*
X465142Y149968D01*
X465241Y150042D01*
X465326Y150124D01*
X465547Y150387D01*
X465735Y150628D01*
X465904Y150833D01*
X466051Y150983D01*
X466151Y151057D01*
X466234Y151083D01*
X462113D02*
X462218Y151044D01*
X462357Y150925D01*
X462541Y150716D01*
X462769Y150427D01*
X462887Y150278D01*
X463022Y150123D01*
X463117Y150032D01*
X463236Y149950D01*
X463313Y149921D01*
X463374Y149914D01*
X466185Y133376D02*
X466234Y133366D01*
X466129Y133405D02*
X466185Y133376D01*
X466063Y133455D02*
X466129Y133405D01*
X465989Y133524D02*
X466063Y133455D01*
X465902Y133618D02*
X465989Y133524D01*
X465805Y133733D02*
X465902Y133618D01*
X465697Y133869D02*
X465805Y133733D01*
X465578Y134022D02*
X465697Y133869D01*
X465460Y134170D02*
X465578Y134022D01*
X465325Y134326D02*
X465460Y134170D01*
X465279Y134372D02*
X465325Y134326D01*
X465229Y134417D02*
X465279Y134372D01*
X465174Y134460D02*
X465229Y134417D01*
X465110Y134499D02*
X465174Y134460D01*
X465073Y134515D02*
X465110Y134499D01*
X465033Y134527D02*
X465073Y134515D01*
X465003Y134533D02*
X465033Y134527D01*
X464972Y134534D02*
X465003Y134533D01*
X463320Y132383D02*
X465028Y132382D01*
X463319Y152067D02*
X465026Y152066D01*
X463374Y134534D02*
Y149914D01*
X460225Y135138D02*
Y149311D01*
X468122Y135138D02*
Y149311D01*
X464972Y134534D02*
Y149914D01*
X463374Y149386D02*
X464972D01*
X463374Y135063D02*
X464972D01*
X463374Y134534D02*
X464972D01*
X463374Y149914D02*
X464972D01*
X461996Y151083D02*
X466350D01*
X461996Y133366D02*
X466350D01*
X448514Y133469D02*
X448532Y133496D01*
X448591Y133576D01*
X442752Y133571D02*
X442820Y133477D01*
X442824Y133470D01*
X442807Y151016D02*
X442824Y151044D01*
X442747Y150936D02*
X442807Y151016D01*
X448519Y151035D02*
X448587Y150941D01*
X448514Y151042D02*
X448519Y151035D01*
X446468Y149946D02*
X446546Y149957D01*
X446638Y149999D01*
X446738Y150073D01*
X446822Y150156D01*
X447043Y150419D01*
X447231Y150659D01*
X447400Y150864D01*
X447547Y151015D01*
X447647Y151089D01*
X447730Y151114D01*
X443609D02*
X443714Y151075D01*
X443853Y150957D01*
X444037Y150748D01*
X444265Y150458D01*
X444383Y150309D01*
X444518Y150155D01*
X444613Y150064D01*
X444732Y149982D01*
X444809Y149953D01*
X444870Y149946D01*
X447681Y133407D02*
X447730Y133398D01*
X447625Y133437D02*
X447681Y133407D01*
X447559Y133486D02*
X447625Y133437D01*
X447485Y133555D02*
X447559Y133486D01*
X447398Y133649D02*
X447485Y133555D01*
X447301Y133764D02*
X447398Y133649D01*
X447193Y133900D02*
X447301Y133764D01*
X447074Y134054D02*
X447193Y133900D01*
X446956Y134202D02*
X447074Y134054D01*
X446821Y134357D02*
X446956Y134202D01*
X446775Y134403D02*
X446821Y134357D01*
X446725Y134448D02*
X446775Y134403D01*
X446670Y134492D02*
X446725Y134448D01*
X446606Y134530D02*
X446670Y134492D01*
X446569Y134547D02*
X446606Y134530D01*
X446529Y134559D02*
X446569Y134547D01*
X446499Y134564D02*
X446529Y134559D01*
X446468Y134566D02*
X446499Y134564D01*
X444816Y132415D02*
X446524Y132413D01*
X444815Y152098D02*
X446522Y152097D01*
X444870Y134566D02*
Y149946D01*
X441721Y135169D02*
Y149343D01*
X449618Y135169D02*
Y149343D01*
X446468Y134566D02*
Y149946D01*
X444870Y149417D02*
X446468D01*
X444870Y135094D02*
X446468D01*
X444870Y134566D02*
X446468D01*
X444870Y149946D02*
X446468D01*
X443492Y151114D02*
X447846D01*
X443492Y133398D02*
X447846D01*
D11*
X541575Y182087D02*
G03*
X541575Y182087I-394J0D01*
G01*
D02*
G03*
X541575Y182087I-394J0D01*
G01*
X428189Y26870D02*
X477795D01*
Y98D02*
Y26870D01*
X428189Y98D02*
X477795D01*
X428189D02*
Y26870D01*
X451811Y-23524D02*
Y98D01*
X432126Y-23524D02*
X451811D01*
X432126D02*
Y98D01*
X118898Y35827D02*
X185827D01*
Y394D02*
Y35827D01*
X118898Y394D02*
X185827D01*
X118898D02*
Y35827D01*
X137205Y-19606D02*
Y394D01*
Y-19606D02*
X167520D01*
Y394D01*
X142520Y-74409D02*
Y-19606D01*
Y-74409D02*
X162205D01*
Y-19606D01*
X336220Y35827D02*
X403150D01*
Y394D02*
Y35827D01*
X336220Y394D02*
X403150D01*
X336220D02*
Y35827D01*
X354528Y-19606D02*
Y394D01*
Y-19606D02*
X384843D01*
Y394D01*
X359843Y-74409D02*
Y-19606D01*
Y-74409D02*
X379528D01*
Y-19606D01*
X187402Y35827D02*
X254331D01*
Y394D02*
Y35827D01*
X187402Y394D02*
X254331D01*
X187402D02*
Y35827D01*
X205709Y-19606D02*
Y394D01*
Y-19606D02*
X236024D01*
Y394D01*
X211024Y-74409D02*
Y-19606D01*
Y-74409D02*
X230709D01*
Y-19606D01*
X497441Y157283D02*
X536811D01*
X497441D02*
Y196654D01*
X536811D01*
Y157283D02*
Y196654D01*
X533465D02*
Y234055D01*
X500787D02*
X533465D01*
X500787Y196654D02*
Y234055D01*
D12*
X222426Y189051D02*
X261926D01*
X222426Y167551D02*
Y189051D01*
Y167551D02*
X261926D01*
Y189051D01*
X168528D02*
X208028D01*
X168528Y167551D02*
Y189051D01*
Y167551D02*
X208028D01*
Y189051D01*
X529067Y94078D02*
X550567D01*
X529067D02*
Y133578D01*
X550567D01*
Y94078D02*
Y133578D01*
X557413Y94078D02*
X578913D01*
X557413D02*
Y133578D01*
X578913D01*
Y94078D02*
Y133578D01*
X529067Y40791D02*
X550567D01*
X529067D02*
Y80291D01*
X550567D01*
Y40791D02*
Y80291D01*
X558102Y40241D02*
X579602D01*
X558102D02*
Y79741D01*
X579602D01*
Y40241D02*
Y79741D01*
D13*
X567913Y113878D02*
X568000Y113791D01*
Y103965D02*
Y113791D01*
X567913Y103878D02*
X568000Y103965D01*
X84100Y36200D02*
Y141088D01*
X141732Y144469D02*
X146000D01*
X458500Y146394D02*
X464173Y152067D01*
X88583Y60583D02*
Y71358D01*
Y60583D02*
X89665Y59500D01*
X127309Y75281D02*
X132000Y70591D01*
X127309Y75281D02*
Y162258D01*
X184114Y69417D02*
X190748Y76051D01*
X445669Y76476D02*
Y132413D01*
X11800Y60050D02*
Y99477D01*
X17913Y105591D01*
X116142Y108092D02*
Y125197D01*
X116634Y90551D02*
Y107600D01*
X179600Y74903D02*
X184114Y79417D01*
X179600Y32200D02*
Y74903D01*
X282433Y31000D02*
X285433Y34000D01*
Y40453D01*
X305118Y23886D02*
Y40453D01*
X350000Y23622D02*
Y44800D01*
X350591Y45391D01*
Y66696D02*
X354900Y71006D01*
X350591Y130299D02*
X354900Y125989D01*
X468642Y43898D02*
X468740Y43800D01*
X473100Y73907D02*
Y123455D01*
X464173Y132382D02*
X473100Y123455D01*
X464173Y132382D02*
X469500Y137709D01*
Y156000D01*
X467000Y158500D02*
X469500Y156000D01*
X452071Y158500D02*
X467000D01*
X539567Y70591D02*
X543700Y74724D01*
X264272Y132452D02*
X281890Y150070D01*
Y170299D01*
X172047Y154147D02*
X175100Y157200D01*
X193100D01*
X234100Y182200D02*
X238000Y178300D01*
Y139319D02*
Y178300D01*
Y139319D02*
X245891Y131428D01*
X220866Y23622D02*
Y82946D01*
X251703Y95500D02*
X268000D01*
X281890Y81610D01*
Y66696D02*
Y81610D01*
X227510Y36663D02*
Y67936D01*
Y36663D02*
X240551Y23622D01*
X232126Y162800D02*
Y178051D01*
X233300Y80625D02*
Y161626D01*
X352700Y136100D02*
X384350Y104450D01*
X346300Y134000D02*
X348400Y136100D01*
X346300Y110987D02*
Y134000D01*
Y110987D02*
X350591Y106696D01*
X354034Y141400D02*
X383957Y111477D01*
X333415Y130299D02*
X344517Y141400D01*
X384350Y28642D02*
X389370Y23622D01*
X384350Y28642D02*
Y71478D01*
X434100Y27455D02*
Y84907D01*
X468775Y12700D02*
X479600Y23525D01*
Y118695D02*
X493110Y132205D01*
X254100Y184200D02*
X259000Y179300D01*
X159984Y16000D02*
X174300D01*
X177400Y19100D01*
Y108798D02*
X185039Y116437D01*
X201181Y23622D02*
X206603Y18200D01*
X244100D01*
X251200Y25300D02*
Y73400D01*
X240600Y84000D02*
Y95100D01*
X243500Y98000D01*
X297400D01*
X303400Y104000D01*
X220500Y85803D02*
Y175000D01*
X437244Y8563D02*
X441907Y3900D01*
X474900D01*
X487600Y16600D02*
Y51911D01*
X539567Y103878D01*
Y50591D02*
Y60591D01*
X568602Y50041D02*
Y60041D01*
X468642Y79449D02*
Y89449D01*
X177400Y19100D02*
Y108798D01*
X185039Y116437D02*
X186147D01*
X190748Y76051D02*
Y131330D01*
X458500Y109591D02*
Y146394D01*
Y109591D02*
X468642Y99449D01*
X132000Y70591D02*
X140354D01*
X114567Y175000D02*
X127309Y162258D01*
X11800Y60050D02*
X16831Y55020D01*
X12200Y140251D02*
X17913Y145965D01*
X12200Y111304D02*
Y140251D01*
Y111304D02*
X17913Y105591D01*
X354900Y71006D02*
Y125989D01*
X285433Y40453D02*
Y47613D01*
X264272Y68775D02*
X285433Y47613D01*
X539567Y123878D02*
X543700Y119745D01*
Y74724D02*
Y119745D01*
X245891Y89688D02*
X251703Y95500D01*
X220866Y82946D02*
X227510Y89590D01*
X383957Y121320D02*
X413091Y150454D01*
Y175492D01*
X232126Y162800D02*
X233300Y161626D01*
Y80625D02*
X245891Y68034D01*
X348400Y136100D02*
X352700D01*
X384350Y81321D02*
Y104450D01*
X502362Y142047D02*
Y166339D01*
Y142047D02*
X511614Y132795D01*
X299065Y130299D02*
X303400Y125964D01*
Y104000D02*
Y125964D01*
X240600Y84000D02*
X251200Y73400D01*
X244100Y18200D02*
X251200Y25300D01*
X214114Y79417D02*
X220500Y85803D01*
X263600Y31000D02*
X282433D01*
X248600Y16000D02*
X263600Y31000D01*
X195800Y16000D02*
X248600D01*
X179600Y32200D02*
X195800Y16000D01*
X152362Y23622D02*
X159984Y16000D01*
X474900Y3900D02*
X487600Y16600D01*
X203400Y145286D02*
X209129Y151015D01*
X203400Y110132D02*
Y145286D01*
Y110132D02*
X214114Y99417D01*
X294769Y102400D02*
X299065Y106696D01*
X264000Y102400D02*
X294769D01*
X259000Y107400D02*
X264000Y102400D01*
X259000Y107400D02*
Y179300D01*
X204377Y184200D02*
X254100D01*
X198228Y178051D02*
X204377Y184200D01*
X452992Y8563D02*
X457129Y12700D01*
X468775D01*
X479600Y23525D02*
Y118695D01*
X344517Y141400D02*
X354034D01*
X172047Y23622D02*
Y154147D01*
X193100Y157200D02*
X218100Y182200D01*
X234100D01*
X445669Y152098D02*
X452071Y158500D01*
X264272Y124314D02*
Y132452D01*
Y124314D02*
X281890Y106696D01*
X295276Y20768D02*
X302000D01*
X305118Y23886D01*
X146000Y144469D02*
X153346Y151815D01*
Y174606D01*
X438642Y69449D02*
X445669Y76476D01*
X434100Y84907D02*
X438642Y89449D01*
X434100Y27455D02*
X452992Y8563D01*
X468642Y69449D02*
X473100Y73907D01*
X87205Y23130D02*
Y33095D01*
X84100Y36200D02*
X87205Y33095D01*
X84100Y141088D02*
X88583Y145571D01*
X89665Y48819D02*
Y59500D01*
X116142Y108092D02*
X116634Y107600D01*
X468642Y43898D02*
Y69449D01*
X468740Y18406D02*
Y43800D01*
X350591Y45391D02*
Y66696D01*
X539567Y103878D02*
Y113878D01*
D19*
X135430Y131402D02*
G03*
X135430Y147535I6302J8066D01*
G01*
X134052Y67524D02*
G03*
X134052Y83657I6302J8066D01*
G01*
X190453Y101150D02*
G03*
X190453Y101150I-1969J0D01*
G01*
X444980Y101181D02*
G03*
X444980Y101181I-1969J0D01*
G01*
X135433Y131402D02*
Y147535D01*
X134055Y67524D02*
Y83657D01*
X184941Y64142D02*
X213287D01*
X184941Y104693D02*
X213287D01*
Y64142D02*
Y104693D01*
X184941Y64142D02*
Y104693D01*
X439469Y64173D02*
X467815D01*
X439469Y104724D02*
X467815D01*
Y64173D02*
Y104724D01*
X439469Y64173D02*
Y104724D01*
X421496Y30807D02*
X484488D01*
Y-27461D02*
Y30807D01*
X421496Y-27461D02*
X484488D01*
X421496D02*
Y30807D01*
X111024Y42913D02*
X189764D01*
Y-78346D02*
Y42913D01*
X111024Y-78346D02*
X189764D01*
X111024D02*
Y42913D01*
X328346D02*
X407087D01*
Y-78346D02*
Y42913D01*
X328346Y-78346D02*
X407087D01*
X328346D02*
Y42913D01*
X179528D02*
X258268D01*
Y-78346D02*
Y42913D01*
X179528Y-78346D02*
X258268D01*
X179528D02*
Y42913D01*
X490476Y153346D02*
X543776D01*
X490476D02*
Y237992D01*
X543776D01*
Y153346D02*
Y237992D01*
X139764Y139469D02*
X143701D01*
X141732Y137500D02*
Y141437D01*
X138386Y75591D02*
X142323D01*
X140354Y73622D02*
Y77559D01*
X199114Y82449D02*
Y86386D01*
X197146Y84417D02*
X201083D01*
X453642Y82480D02*
Y86417D01*
X451673Y84449D02*
X455610D01*
D21*
X533858Y161417D02*
Y171260D01*
X529921D02*
X533858D01*
X529921Y161417D02*
Y171260D01*
Y161417D02*
X533858D01*
X504331D02*
Y171260D01*
X500394D02*
X504331D01*
X500394Y161417D02*
Y171260D01*
Y161417D02*
X504331D01*
X522047Y178346D02*
Y183465D01*
X512205D02*
X522047D01*
X512205Y178346D02*
Y183465D01*
Y178346D02*
X522047D01*
X259926Y173551D02*
G03*
X259926Y173551I-4000J0D01*
G01*
X231476Y186051D02*
G03*
X231476Y186051I-500J0D01*
G01*
X206028Y173551D02*
G03*
X206028Y173551I-4000J0D01*
G01*
X177578Y186051D02*
G03*
X177578Y186051I-500J0D01*
G01*
X548067Y125028D02*
G03*
X548067Y125028I-500J0D01*
G01*
X539067Y100078D02*
G03*
X539067Y100078I-4000J0D01*
G01*
X576413Y125028D02*
G03*
X576413Y125028I-500J0D01*
G01*
X567413Y100078D02*
G03*
X567413Y100078I-4000J0D01*
G01*
X548067Y71741D02*
G03*
X548067Y71741I-500J0D01*
G01*
X539067Y46791D02*
G03*
X539067Y46791I-4000J0D01*
G01*
X577102Y71191D02*
G03*
X577102Y71191I-500J0D01*
G01*
X568102Y46241D02*
G03*
X568102Y46241I-4000J0D01*
G01*
D22*
X316535Y37500D02*
Y43406D01*
X313386D02*
X316535D01*
X313386Y37500D02*
Y43406D01*
Y37500D02*
X316535D01*
X306693D02*
Y43406D01*
X303543D02*
X306693D01*
X303543Y37500D02*
Y43406D01*
Y37500D02*
X306693D01*
X277165D02*
Y43406D01*
X274016D02*
X277165D01*
X274016Y37500D02*
Y43406D01*
Y37500D02*
X277165D01*
X287008D02*
Y43406D01*
X283858D02*
X287008D01*
X283858Y37500D02*
Y43406D01*
Y37500D02*
X287008D01*
X303150Y3051D02*
X318898D01*
X303150D02*
Y7776D01*
X287402D02*
X303150D01*
X287402Y3051D02*
Y7776D01*
X271654Y3051D02*
X287402D01*
X292323Y19193D02*
X298228D01*
Y22343D01*
X292323D02*
X298228D01*
X292323Y19193D02*
Y22343D01*
D23*
X531890Y187706D02*
X528727D01*
X527672Y187355D01*
X527321Y187003D01*
X526969Y186300D01*
Y185246D01*
X527321Y184543D01*
X527672Y184192D01*
X528727Y183840D01*
X531890D01*
Y191220D01*
X520046Y185597D02*
X520398Y184895D01*
X521101Y184192D01*
X521803Y183840D01*
X523209D01*
X523912Y184192D01*
X524615Y184895D01*
X524966Y185597D01*
X525318Y186652D01*
Y188409D01*
X524966Y189463D01*
X524615Y190166D01*
X523912Y190869D01*
X523209Y191220D01*
X521803D01*
X521101Y190869D01*
X520398Y190166D01*
X520046Y189463D01*
X517973Y183840D02*
Y191220D01*
Y183840D02*
X514810D01*
X513755Y184192D01*
X513404Y184543D01*
X513052Y185246D01*
Y185949D01*
X513404Y186652D01*
X513755Y187003D01*
X514810Y187355D01*
X517973D02*
X514810D01*
X513755Y187706D01*
X513404Y188057D01*
X513052Y188760D01*
Y189815D01*
X513404Y190518D01*
X513755Y190869D01*
X514810Y191220D01*
X517973D01*
X501033Y183840D02*
X505602D01*
Y191220D01*
X501033D01*
X505602Y187355D02*
X502790D01*
X499803Y183840D02*
Y191220D01*
Y183840D02*
X497343D01*
X496289Y184192D01*
X495586Y184895D01*
X495234Y185597D01*
X494883Y186652D01*
Y188409D01*
X495234Y189463D01*
X495586Y190166D01*
X496289Y190869D01*
X497343Y191220D01*
X499803D01*
X487959Y185597D02*
X488311Y184895D01*
X489014Y184192D01*
X489717Y183840D01*
X491122D01*
X491825Y184192D01*
X492528Y184895D01*
X492880Y185597D01*
X493231Y186652D01*
Y188409D01*
X492880Y189463D01*
X492528Y190166D01*
X491825Y190869D01*
X491122Y191220D01*
X489717D01*
X489014Y190869D01*
X488311Y190166D01*
X487959Y189463D01*
Y188409D01*
X489717D02*
X487959D01*
X481704Y183840D02*
X486272D01*
Y191220D01*
X481704D01*
X486272Y187355D02*
X483461D01*
X531890Y187706D02*
X528727D01*
X527672Y187355D01*
X527321Y187003D01*
X526969Y186300D01*
Y185246D01*
X527321Y184543D01*
X527672Y184192D01*
X528727Y183840D01*
X531890D01*
Y191220D01*
X520046Y185597D02*
X520398Y184895D01*
X521101Y184192D01*
X521803Y183840D01*
X523209D01*
X523912Y184192D01*
X524615Y184895D01*
X524966Y185597D01*
X525318Y186652D01*
Y188409D01*
X524966Y189463D01*
X524615Y190166D01*
X523912Y190869D01*
X523209Y191220D01*
X521803D01*
X521101Y190869D01*
X520398Y190166D01*
X520046Y189463D01*
X517973Y183840D02*
Y191220D01*
Y183840D02*
X514810D01*
X513755Y184192D01*
X513404Y184543D01*
X513052Y185246D01*
Y185949D01*
X513404Y186652D01*
X513755Y187003D01*
X514810Y187355D01*
X517973D02*
X514810D01*
X513755Y187706D01*
X513404Y188057D01*
X513052Y188760D01*
Y189815D01*
X513404Y190518D01*
X513755Y190869D01*
X514810Y191220D01*
X517973D01*
X501033Y183840D02*
X505602D01*
Y191220D01*
X501033D01*
X505602Y187355D02*
X502790D01*
X499803Y183840D02*
Y191220D01*
Y183840D02*
X497343D01*
X496289Y184192D01*
X495586Y184895D01*
X495234Y185597D01*
X494883Y186652D01*
Y188409D01*
X495234Y189463D01*
X495586Y190166D01*
X496289Y190869D01*
X497343Y191220D01*
X499803D01*
X487959Y185597D02*
X488311Y184895D01*
X489014Y184192D01*
X489717Y183840D01*
X491122D01*
X491825Y184192D01*
X492528Y184895D01*
X492880Y185597D01*
X493231Y186652D01*
Y188409D01*
X492880Y189463D01*
X492528Y190166D01*
X491825Y190869D01*
X491122Y191220D01*
X489717D01*
X489014Y190869D01*
X488311Y190166D01*
X487959Y189463D01*
Y188409D01*
X489717D02*
X487959D01*
X481704Y183840D02*
X486272D01*
Y191220D01*
X481704D01*
X486272Y187355D02*
X483461D01*
X270776Y13782D02*
X273939D01*
X274993Y14134D01*
X275344Y14485D01*
X275696Y15188D01*
Y16242D01*
X275344Y16945D01*
X274993Y17297D01*
X273939Y17648D01*
X270776D01*
Y10268D01*
X282619Y15891D02*
X282268Y16594D01*
X281565Y17297D01*
X280862Y17648D01*
X279456D01*
X278753Y17297D01*
X278050Y16594D01*
X277699Y15891D01*
X277348Y14837D01*
Y13079D01*
X277699Y12025D01*
X278050Y11322D01*
X278753Y10619D01*
X279456Y10268D01*
X280862D01*
X281565Y10619D01*
X282268Y11322D01*
X282619Y12025D01*
X284693Y17648D02*
Y10268D01*
Y17648D02*
X287856D01*
X288910Y17297D01*
X289262Y16945D01*
X289613Y16242D01*
Y15539D01*
X289262Y14837D01*
X288910Y14485D01*
X287856Y14134D01*
X284693D02*
X287856D01*
X288910Y13782D01*
X289262Y13431D01*
X289613Y12728D01*
Y11673D01*
X289262Y10971D01*
X288910Y10619D01*
X287856Y10268D01*
X284693D01*
X297063Y13079D02*
X301281D01*
Y13782D01*
X300929Y14485D01*
X300578Y14837D01*
X299875Y15188D01*
X298821D01*
X298118Y14837D01*
X297415Y14134D01*
X297063Y13079D01*
Y12376D01*
X297415Y11322D01*
X298118Y10619D01*
X298821Y10268D01*
X299875D01*
X300578Y10619D01*
X301281Y11322D01*
X307080Y17648D02*
Y10268D01*
Y14134D02*
X306377Y14837D01*
X305674Y15188D01*
X304620D01*
X303917Y14837D01*
X303214Y14134D01*
X302862Y13079D01*
Y12376D01*
X303214Y11322D01*
X303917Y10619D01*
X304620Y10268D01*
X305674D01*
X306377Y10619D01*
X307080Y11322D01*
X313265Y15188D02*
Y9565D01*
X312914Y8511D01*
X312562Y8159D01*
X311859Y7808D01*
X310805D01*
X310102Y8159D01*
X313265Y14134D02*
X312562Y14837D01*
X311859Y15188D01*
X310805D01*
X310102Y14837D01*
X309399Y14134D01*
X309048Y13079D01*
Y12376D01*
X309399Y11322D01*
X310102Y10619D01*
X310805Y10268D01*
X311859D01*
X312562Y10619D01*
X313265Y11322D01*
X315233Y13079D02*
X319450D01*
Y13782D01*
X319099Y14485D01*
X318748Y14837D01*
X318045Y15188D01*
X316990D01*
X316287Y14837D01*
X315585Y14134D01*
X315233Y13079D01*
Y12376D01*
X315585Y11322D01*
X316287Y10619D01*
X316990Y10268D01*
X318045D01*
X318748Y10619D01*
X319450Y11322D01*
D24*
X158899Y110827D02*
G03*
X158899Y110827I-2994J0D01*
G01*
X416084Y69417D02*
G03*
X416084Y69417I-2994J0D01*
G01*
Y175492D02*
G03*
X416084Y175492I-2994J0D01*
G01*
X468348Y175492D02*
G03*
X468348Y175492I-2994J0D01*
G01*
X156340Y174606D02*
G03*
X156340Y174606I-2994J0D01*
G01*
X117561Y175000D02*
G03*
X117561Y175000I-2994J0D01*
G01*
X58013Y145965D02*
G03*
X58013Y145965I-2994J0D01*
G01*
Y85905D02*
G03*
X58013Y85905I-2994J0D01*
G01*
X19825Y55020D02*
G03*
X19825Y55020I-2994J0D01*
G01*
D25*
X537795Y156299D02*
Y235039D01*
X496457D02*
X537795D01*
X496457Y156299D02*
Y235039D01*
Y156299D02*
X537795D01*
X270669Y2067D02*
Y51280D01*
Y2067D02*
X319882D01*
Y51280D01*
X270669D02*
X319882D01*
D53*
X437244Y8563D02*
D03*
D54*
X452992D02*
D03*
X460866D02*
D03*
X468740D02*
D03*
X437244Y18406D02*
D03*
X452992D02*
D03*
X460866D02*
D03*
X468740D02*
D03*
D55*
X428976Y13484D02*
D03*
X477008D02*
D03*
D56*
X209129Y151015D02*
D03*
X190748D02*
D03*
X227510Y131330D02*
D03*
X245891Y153082D02*
D03*
X264272Y152452D02*
D03*
X116142Y144882D02*
D03*
X116634Y90551D02*
D03*
X464173Y152067D02*
D03*
X445669Y152098D02*
D03*
X264272Y68775D02*
D03*
X227510Y67936D02*
D03*
X245891Y89688D02*
D03*
D57*
X209129Y131330D02*
D03*
X190748D02*
D03*
X227510Y152983D02*
D03*
X245891Y131428D02*
D03*
X264272Y132452D02*
D03*
X116142Y125197D02*
D03*
X116634Y70866D02*
D03*
X464173Y132382D02*
D03*
X445669Y132413D02*
D03*
X264272Y88775D02*
D03*
X227510Y89590D02*
D03*
X245891Y68034D02*
D03*
D58*
X155906Y110827D02*
D03*
X413091Y69417D02*
D03*
Y175492D02*
D03*
X465354D02*
D03*
X153346Y174606D02*
D03*
X114567Y175000D02*
D03*
X55020Y145965D02*
D03*
Y85906D02*
D03*
X16831Y55020D02*
D03*
D59*
X384350Y81321D02*
D03*
X383957Y161319D02*
D03*
Y121320D02*
D03*
X165945Y80866D02*
D03*
X88583Y145571D02*
D03*
Y85138D02*
D03*
X165945Y144469D02*
D03*
D60*
X384350Y71478D02*
D03*
X383957Y151476D02*
D03*
Y111477D02*
D03*
X165945Y70866D02*
D03*
X89665Y48819D02*
D03*
X39665D02*
D03*
X88583Y131791D02*
D03*
Y71358D02*
D03*
X165945Y134469D02*
D03*
X214114Y69417D02*
D03*
Y79417D02*
D03*
Y89417D02*
D03*
Y99417D02*
D03*
X184114Y69417D02*
D03*
Y79417D02*
D03*
Y89417D02*
D03*
X468642Y69449D02*
D03*
Y79449D02*
D03*
Y89449D02*
D03*
Y99449D02*
D03*
X438642Y69449D02*
D03*
Y79449D02*
D03*
Y89449D02*
D03*
D61*
X132677Y23622D02*
D03*
X152362D02*
D03*
X172047D02*
D03*
X350000D02*
D03*
X369685D02*
D03*
X389370D02*
D03*
X201181D02*
D03*
X220866D02*
D03*
X240551D02*
D03*
D62*
X232126Y178051D02*
D03*
X242126D02*
D03*
X178228D02*
D03*
X188228D02*
D03*
X539567Y113878D02*
D03*
Y123878D02*
D03*
X567913Y113878D02*
D03*
Y123878D02*
D03*
X539567Y60591D02*
D03*
Y70591D02*
D03*
X568602Y60041D02*
D03*
Y70041D02*
D03*
D63*
X252126Y178051D02*
D03*
X198228D02*
D03*
D64*
X87205Y23130D02*
D03*
D65*
X77205D02*
D03*
D66*
X567913Y174213D02*
D03*
X22638D02*
D03*
X567913Y22638D02*
D03*
X22638D02*
D03*
D67*
X517126Y180906D02*
D03*
X531890Y166339D02*
D03*
X502362D02*
D03*
D68*
X17913Y85906D02*
D03*
Y126280D02*
D03*
D69*
Y105591D02*
D03*
Y145965D02*
D03*
D70*
X141732Y144469D02*
D03*
X140354Y80591D02*
D03*
D71*
X141732Y139469D02*
D03*
Y134469D02*
D03*
X140354Y75591D02*
D03*
Y70591D02*
D03*
D72*
X299065Y106696D02*
D03*
Y66696D02*
D03*
X333415Y130299D02*
D03*
Y170299D02*
D03*
X350591D02*
D03*
Y130299D02*
D03*
X333415Y66696D02*
D03*
Y106696D02*
D03*
X281890Y130299D02*
D03*
Y170299D02*
D03*
X350591Y106696D02*
D03*
Y66696D02*
D03*
X511614Y92795D02*
D03*
Y132795D02*
D03*
X281890Y106696D02*
D03*
Y66696D02*
D03*
X493110Y132205D02*
D03*
Y92205D02*
D03*
X316240Y106696D02*
D03*
Y66696D02*
D03*
X299065Y170299D02*
D03*
Y130299D02*
D03*
X316240Y170299D02*
D03*
Y130299D02*
D03*
D73*
X539567Y103878D02*
D03*
X567913D02*
D03*
X539567Y50591D02*
D03*
X568602Y50041D02*
D03*
D74*
X314961Y20768D02*
D03*
Y10925D02*
D03*
X295276Y40453D02*
D03*
X275591Y20768D02*
D03*
Y10925D02*
D03*
D75*
Y40453D02*
D03*
D76*
X285433D02*
D03*
X305118D02*
D03*
X314961D02*
D03*
D77*
X295276Y20768D02*
D03*
D78*
X184114Y99417D02*
D03*
X438642Y99449D02*
D03*
D79*
X185039Y116437D02*
D03*
X220500Y175000D02*
D03*
M02*
